%TF.GenerationSoftware,KiCad,Pcbnew,10.0.4*%
%TF.CreationDate,2026-07-16T22:42:47+02:00*%
%TF.ProjectId,nixieclocklogic_V2-2,6e697869-6563-46c6-9f63-6b6c6f676963,2.2*%
%TF.SameCoordinates,Original*%
%TF.FileFunction,Legend,Bot*%
%TF.FilePolarity,Positive*%
%FSLAX46Y46*%
G04 Gerber Fmt 4.6, Leading zero omitted, Abs format (unit mm)*
G04 Created by KiCad (PCBNEW 10.0.4) date 2026-07-16 22:42:47*
%MOMM*%
%LPD*%
G01*
G04 APERTURE LIST*
%ADD10C,0.100000*%
%ADD11C,0.200000*%
%ADD12C,0.150000*%
%ADD13C,0.120000*%
G04 APERTURE END LIST*
D10*
X208693904Y-102578161D02*
X209778700Y-102578161D01*
X209778700Y-105105461D01*
X208693904Y-105105461D01*
X208693904Y-102578161D01*
G36*
X208693904Y-102578161D02*
G01*
X209778700Y-102578161D01*
X209778700Y-105105461D01*
X208693904Y-105105461D01*
X208693904Y-102578161D01*
G37*
X208699101Y-101701600D02*
X226910899Y-101701600D01*
X226910899Y-102489000D01*
X208699101Y-102489000D01*
X208699101Y-101701600D01*
G36*
X208699101Y-101701600D02*
G01*
X226910899Y-101701600D01*
X226910899Y-102489000D01*
X208699101Y-102489000D01*
X208699101Y-101701600D01*
G37*
X208699101Y-105105200D02*
X226910899Y-105105200D01*
X226910899Y-105892600D01*
X208699101Y-105892600D01*
X208699101Y-105105200D01*
G36*
X208699101Y-105105200D02*
G01*
X226910899Y-105105200D01*
X226910899Y-105892600D01*
X208699101Y-105892600D01*
X208699101Y-105105200D01*
G37*
X225878701Y-102565200D02*
X226910899Y-102565200D01*
X226910899Y-105092500D01*
X225878701Y-105092500D01*
X225878701Y-102565200D01*
G36*
X225878701Y-102565200D02*
G01*
X226910899Y-102565200D01*
X226910899Y-105092500D01*
X225878701Y-105092500D01*
X225878701Y-102565200D01*
G37*
X207635768Y-104786039D02*
X207635768Y-103286039D01*
X207635768Y-103286039D02*
X206778625Y-104786039D01*
X206778625Y-104786039D02*
X206778625Y-103286039D01*
X206064339Y-104786039D02*
X206064339Y-103786039D01*
X206064339Y-103286039D02*
X206135767Y-103357468D01*
X206135767Y-103357468D02*
X206064339Y-103428896D01*
X206064339Y-103428896D02*
X205992910Y-103357468D01*
X205992910Y-103357468D02*
X206064339Y-103286039D01*
X206064339Y-103286039D02*
X206064339Y-103428896D01*
X205492910Y-104786039D02*
X204707196Y-103786039D01*
X205492910Y-103786039D02*
X204707196Y-104786039D01*
X204135767Y-104786039D02*
X204135767Y-103786039D01*
X204135767Y-103286039D02*
X204207195Y-103357468D01*
X204207195Y-103357468D02*
X204135767Y-103428896D01*
X204135767Y-103428896D02*
X204064338Y-103357468D01*
X204064338Y-103357468D02*
X204135767Y-103286039D01*
X204135767Y-103286039D02*
X204135767Y-103428896D01*
X202850052Y-104714611D02*
X202992909Y-104786039D01*
X202992909Y-104786039D02*
X203278624Y-104786039D01*
X203278624Y-104786039D02*
X203421481Y-104714611D01*
X203421481Y-104714611D02*
X203492909Y-104571753D01*
X203492909Y-104571753D02*
X203492909Y-104000325D01*
X203492909Y-104000325D02*
X203421481Y-103857468D01*
X203421481Y-103857468D02*
X203278624Y-103786039D01*
X203278624Y-103786039D02*
X202992909Y-103786039D01*
X202992909Y-103786039D02*
X202850052Y-103857468D01*
X202850052Y-103857468D02*
X202778624Y-104000325D01*
X202778624Y-104000325D02*
X202778624Y-104143182D01*
X202778624Y-104143182D02*
X203492909Y-104286039D01*
X201278624Y-104643182D02*
X201350052Y-104714611D01*
X201350052Y-104714611D02*
X201564338Y-104786039D01*
X201564338Y-104786039D02*
X201707195Y-104786039D01*
X201707195Y-104786039D02*
X201921481Y-104714611D01*
X201921481Y-104714611D02*
X202064338Y-104571753D01*
X202064338Y-104571753D02*
X202135767Y-104428896D01*
X202135767Y-104428896D02*
X202207195Y-104143182D01*
X202207195Y-104143182D02*
X202207195Y-103928896D01*
X202207195Y-103928896D02*
X202135767Y-103643182D01*
X202135767Y-103643182D02*
X202064338Y-103500325D01*
X202064338Y-103500325D02*
X201921481Y-103357468D01*
X201921481Y-103357468D02*
X201707195Y-103286039D01*
X201707195Y-103286039D02*
X201564338Y-103286039D01*
X201564338Y-103286039D02*
X201350052Y-103357468D01*
X201350052Y-103357468D02*
X201278624Y-103428896D01*
X200421481Y-104786039D02*
X200564338Y-104714611D01*
X200564338Y-104714611D02*
X200635767Y-104571753D01*
X200635767Y-104571753D02*
X200635767Y-103286039D01*
X199635767Y-104786039D02*
X199778624Y-104714611D01*
X199778624Y-104714611D02*
X199850053Y-104643182D01*
X199850053Y-104643182D02*
X199921481Y-104500325D01*
X199921481Y-104500325D02*
X199921481Y-104071753D01*
X199921481Y-104071753D02*
X199850053Y-103928896D01*
X199850053Y-103928896D02*
X199778624Y-103857468D01*
X199778624Y-103857468D02*
X199635767Y-103786039D01*
X199635767Y-103786039D02*
X199421481Y-103786039D01*
X199421481Y-103786039D02*
X199278624Y-103857468D01*
X199278624Y-103857468D02*
X199207196Y-103928896D01*
X199207196Y-103928896D02*
X199135767Y-104071753D01*
X199135767Y-104071753D02*
X199135767Y-104500325D01*
X199135767Y-104500325D02*
X199207196Y-104643182D01*
X199207196Y-104643182D02*
X199278624Y-104714611D01*
X199278624Y-104714611D02*
X199421481Y-104786039D01*
X199421481Y-104786039D02*
X199635767Y-104786039D01*
X197850053Y-104714611D02*
X197992910Y-104786039D01*
X197992910Y-104786039D02*
X198278624Y-104786039D01*
X198278624Y-104786039D02*
X198421481Y-104714611D01*
X198421481Y-104714611D02*
X198492910Y-104643182D01*
X198492910Y-104643182D02*
X198564338Y-104500325D01*
X198564338Y-104500325D02*
X198564338Y-104071753D01*
X198564338Y-104071753D02*
X198492910Y-103928896D01*
X198492910Y-103928896D02*
X198421481Y-103857468D01*
X198421481Y-103857468D02*
X198278624Y-103786039D01*
X198278624Y-103786039D02*
X197992910Y-103786039D01*
X197992910Y-103786039D02*
X197850053Y-103857468D01*
X197207196Y-104786039D02*
X197207196Y-103286039D01*
X197064339Y-104214611D02*
X196635767Y-104786039D01*
X196635767Y-103786039D02*
X197207196Y-104357468D01*
X195992910Y-103286039D02*
X195992910Y-104500325D01*
X195992910Y-104500325D02*
X195921481Y-104643182D01*
X195921481Y-104643182D02*
X195850053Y-104714611D01*
X195850053Y-104714611D02*
X195707195Y-104786039D01*
X195707195Y-104786039D02*
X195421481Y-104786039D01*
X195421481Y-104786039D02*
X195278624Y-104714611D01*
X195278624Y-104714611D02*
X195207195Y-104643182D01*
X195207195Y-104643182D02*
X195135767Y-104500325D01*
X195135767Y-104500325D02*
X195135767Y-103286039D01*
X194207195Y-104786039D02*
X194350052Y-104714611D01*
X194350052Y-104714611D02*
X194421481Y-104571753D01*
X194421481Y-104571753D02*
X194421481Y-103286039D01*
X193850052Y-103786039D02*
X193278624Y-103786039D01*
X193635767Y-103286039D02*
X193635767Y-104571753D01*
X193635767Y-104571753D02*
X193564338Y-104714611D01*
X193564338Y-104714611D02*
X193421481Y-104786039D01*
X193421481Y-104786039D02*
X193278624Y-104786039D01*
X192778624Y-104786039D02*
X192778624Y-103786039D01*
X192778624Y-104071753D02*
X192707195Y-103928896D01*
X192707195Y-103928896D02*
X192635767Y-103857468D01*
X192635767Y-103857468D02*
X192492909Y-103786039D01*
X192492909Y-103786039D02*
X192350052Y-103786039D01*
X191207196Y-104786039D02*
X191207196Y-104000325D01*
X191207196Y-104000325D02*
X191278624Y-103857468D01*
X191278624Y-103857468D02*
X191421481Y-103786039D01*
X191421481Y-103786039D02*
X191707196Y-103786039D01*
X191707196Y-103786039D02*
X191850053Y-103857468D01*
X191207196Y-104714611D02*
X191350053Y-104786039D01*
X191350053Y-104786039D02*
X191707196Y-104786039D01*
X191707196Y-104786039D02*
X191850053Y-104714611D01*
X191850053Y-104714611D02*
X191921481Y-104571753D01*
X191921481Y-104571753D02*
X191921481Y-104428896D01*
X191921481Y-104428896D02*
X191850053Y-104286039D01*
X191850053Y-104286039D02*
X191707196Y-104214611D01*
X191707196Y-104214611D02*
X191350053Y-104214611D01*
X191350053Y-104214611D02*
X191207196Y-104143182D01*
X189564338Y-103286039D02*
X189064338Y-104786039D01*
X189064338Y-104786039D02*
X188564338Y-103286039D01*
X188135767Y-103428896D02*
X188064339Y-103357468D01*
X188064339Y-103357468D02*
X187921482Y-103286039D01*
X187921482Y-103286039D02*
X187564339Y-103286039D01*
X187564339Y-103286039D02*
X187421482Y-103357468D01*
X187421482Y-103357468D02*
X187350053Y-103428896D01*
X187350053Y-103428896D02*
X187278624Y-103571753D01*
X187278624Y-103571753D02*
X187278624Y-103714611D01*
X187278624Y-103714611D02*
X187350053Y-103928896D01*
X187350053Y-103928896D02*
X188207196Y-104786039D01*
X188207196Y-104786039D02*
X187278624Y-104786039D01*
X186635768Y-104643182D02*
X186564339Y-104714611D01*
X186564339Y-104714611D02*
X186635768Y-104786039D01*
X186635768Y-104786039D02*
X186707196Y-104714611D01*
X186707196Y-104714611D02*
X186635768Y-104643182D01*
X186635768Y-104643182D02*
X186635768Y-104786039D01*
X185992910Y-103428896D02*
X185921482Y-103357468D01*
X185921482Y-103357468D02*
X185778625Y-103286039D01*
X185778625Y-103286039D02*
X185421482Y-103286039D01*
X185421482Y-103286039D02*
X185278625Y-103357468D01*
X185278625Y-103357468D02*
X185207196Y-103428896D01*
X185207196Y-103428896D02*
X185135767Y-103571753D01*
X185135767Y-103571753D02*
X185135767Y-103714611D01*
X185135767Y-103714611D02*
X185207196Y-103928896D01*
X185207196Y-103928896D02*
X186064339Y-104786039D01*
X186064339Y-104786039D02*
X185135767Y-104786039D01*
D11*
G36*
X212336602Y-103648377D02*
G01*
X212406376Y-103787926D01*
X212406376Y-104023290D01*
X211653995Y-103872814D01*
X211653995Y-103787925D01*
X211723768Y-103648377D01*
X211863317Y-103578604D01*
X212197055Y-103578604D01*
X212336602Y-103648377D01*
G37*
G36*
X214066187Y-103656027D02*
G01*
X214138476Y-103728316D01*
X214215900Y-103883164D01*
X214215900Y-104407377D01*
X214138476Y-104562224D01*
X214066188Y-104634514D01*
X213911341Y-104711938D01*
X213577603Y-104711938D01*
X213463519Y-104654896D01*
X213463519Y-103635645D01*
X213577603Y-103578604D01*
X213911341Y-103578604D01*
X214066187Y-103656027D01*
G37*
G36*
X215875711Y-103656027D02*
G01*
X215948000Y-103728316D01*
X216025424Y-103883164D01*
X216025424Y-104407377D01*
X215948000Y-104562224D01*
X215875712Y-104634514D01*
X215720865Y-104711938D01*
X215482365Y-104711938D01*
X215327516Y-104634514D01*
X215255229Y-104562226D01*
X215177805Y-104407378D01*
X215177805Y-103883163D01*
X215255228Y-103728316D01*
X215327517Y-103656027D01*
X215482365Y-103578604D01*
X215720865Y-103578604D01*
X215875711Y-103656027D01*
G37*
G36*
X225320016Y-104140509D02*
G01*
X224645120Y-104140509D01*
X224982567Y-103128165D01*
X225320016Y-104140509D01*
G37*
G36*
X225970671Y-105134160D02*
G01*
X209805122Y-105134160D01*
X209805122Y-103459095D01*
X210027344Y-103459095D01*
X210027344Y-103498113D01*
X210042276Y-103534161D01*
X210069866Y-103561751D01*
X210105914Y-103576683D01*
X210125423Y-103578604D01*
X210292293Y-103578604D01*
X210447139Y-103656027D01*
X210519428Y-103728316D01*
X210596852Y-103883164D01*
X210596852Y-104811938D01*
X210598773Y-104831447D01*
X210613705Y-104867495D01*
X210641295Y-104895085D01*
X210677343Y-104910017D01*
X210716361Y-104910017D01*
X210752409Y-104895085D01*
X210779999Y-104867495D01*
X210794931Y-104831447D01*
X210796852Y-104811938D01*
X210796852Y-103764319D01*
X211453995Y-103764319D01*
X211453995Y-103954795D01*
X211455916Y-103974304D01*
X211459665Y-103983356D01*
X211461567Y-103992967D01*
X211467059Y-104001205D01*
X211470848Y-104010352D01*
X211477774Y-104017278D01*
X211483210Y-104025432D01*
X211491438Y-104030942D01*
X211498438Y-104037942D01*
X211507489Y-104041691D01*
X211515630Y-104047143D01*
X211534383Y-104052853D01*
X211534484Y-104052873D01*
X211534486Y-104052874D01*
X211534488Y-104052874D01*
X212406376Y-104227251D01*
X212406376Y-104502615D01*
X212336602Y-104642164D01*
X212197055Y-104711938D01*
X211863317Y-104711938D01*
X211693954Y-104627257D01*
X211675646Y-104620251D01*
X211636726Y-104617485D01*
X211599710Y-104629824D01*
X211570233Y-104655388D01*
X211552784Y-104690287D01*
X211550018Y-104729207D01*
X211562357Y-104766223D01*
X211587921Y-104795700D01*
X211604512Y-104806143D01*
X211794988Y-104901381D01*
X211813296Y-104908387D01*
X211816879Y-104908641D01*
X211820200Y-104910017D01*
X211839709Y-104911938D01*
X212220662Y-104911938D01*
X212240171Y-104910017D01*
X212243491Y-104908641D01*
X212247075Y-104908387D01*
X212265383Y-104901381D01*
X212455860Y-104806143D01*
X212459124Y-104804088D01*
X212460661Y-104803576D01*
X212462574Y-104801916D01*
X212472450Y-104795700D01*
X212480667Y-104786224D01*
X212490138Y-104778011D01*
X212496351Y-104768139D01*
X212498014Y-104766223D01*
X212498527Y-104764684D01*
X212500581Y-104761421D01*
X212595819Y-104570944D01*
X212602825Y-104552635D01*
X212603079Y-104549052D01*
X212604455Y-104545732D01*
X212606376Y-104526223D01*
X212606376Y-104145381D01*
X212606377Y-104145376D01*
X212606376Y-104145370D01*
X212606376Y-103764319D01*
X212604455Y-103744810D01*
X212603079Y-103741489D01*
X212602825Y-103737907D01*
X212595819Y-103719598D01*
X212500581Y-103529121D01*
X212498527Y-103525857D01*
X212498014Y-103524319D01*
X212496351Y-103522402D01*
X212490138Y-103512531D01*
X212480667Y-103504317D01*
X212472450Y-103494842D01*
X212462574Y-103488625D01*
X212460661Y-103486966D01*
X212459124Y-103486453D01*
X212455860Y-103484399D01*
X212265383Y-103389161D01*
X212247075Y-103382155D01*
X212243491Y-103381900D01*
X212240171Y-103380525D01*
X212220662Y-103378604D01*
X211839709Y-103378604D01*
X211820200Y-103380525D01*
X211816879Y-103381900D01*
X211813296Y-103382155D01*
X211794988Y-103389161D01*
X211604512Y-103484399D01*
X211601248Y-103486453D01*
X211599710Y-103486966D01*
X211597794Y-103488627D01*
X211587921Y-103494842D01*
X211579705Y-103504314D01*
X211570233Y-103512530D01*
X211564016Y-103522404D01*
X211562357Y-103524319D01*
X211561844Y-103525855D01*
X211559790Y-103529120D01*
X211464552Y-103719598D01*
X211457546Y-103737906D01*
X211457291Y-103741489D01*
X211455916Y-103744810D01*
X211453995Y-103764319D01*
X210796852Y-103764319D01*
X210796852Y-103478604D01*
X210794931Y-103459095D01*
X210779999Y-103423047D01*
X210752409Y-103395457D01*
X210716361Y-103380525D01*
X210677343Y-103380525D01*
X210641295Y-103395457D01*
X210613705Y-103423047D01*
X210598773Y-103459095D01*
X210596852Y-103478604D01*
X210596852Y-103522896D01*
X210577087Y-103503131D01*
X210569420Y-103496839D01*
X210567688Y-103494842D01*
X210564676Y-103492946D01*
X210561933Y-103490695D01*
X210559496Y-103489685D01*
X210551098Y-103484399D01*
X210360621Y-103389161D01*
X210342313Y-103382155D01*
X210338729Y-103381900D01*
X210335409Y-103380525D01*
X210315900Y-103378604D01*
X210125423Y-103378604D01*
X210105914Y-103380525D01*
X210069866Y-103395457D01*
X210042276Y-103423047D01*
X210027344Y-103459095D01*
X209805122Y-103459095D01*
X209805122Y-102811938D01*
X213263519Y-102811938D01*
X213263519Y-104811938D01*
X213265440Y-104831447D01*
X213280372Y-104867495D01*
X213307962Y-104895085D01*
X213344010Y-104910017D01*
X213383028Y-104910017D01*
X213419076Y-104895085D01*
X213444944Y-104869216D01*
X213509274Y-104901381D01*
X213527582Y-104908387D01*
X213531165Y-104908641D01*
X213534486Y-104910017D01*
X213553995Y-104911938D01*
X213934948Y-104911938D01*
X213954457Y-104910017D01*
X213957777Y-104908641D01*
X213961361Y-104908387D01*
X213979669Y-104901381D01*
X214170146Y-104806143D01*
X214178543Y-104800857D01*
X214180982Y-104799847D01*
X214183726Y-104797594D01*
X214186736Y-104795700D01*
X214188468Y-104793702D01*
X214196135Y-104787410D01*
X214291373Y-104692171D01*
X214297665Y-104684504D01*
X214299662Y-104682773D01*
X214301555Y-104679765D01*
X214303810Y-104677018D01*
X214304821Y-104674576D01*
X214310105Y-104666182D01*
X214405343Y-104475706D01*
X214412349Y-104457398D01*
X214412603Y-104453814D01*
X214413979Y-104450494D01*
X214415900Y-104430985D01*
X214415900Y-103859557D01*
X214977805Y-103859557D01*
X214977805Y-104430985D01*
X214979726Y-104450494D01*
X214981101Y-104453814D01*
X214981356Y-104457398D01*
X214988362Y-104475706D01*
X215083600Y-104666183D01*
X215088884Y-104674577D01*
X215089895Y-104677018D01*
X215092149Y-104679764D01*
X215094043Y-104682773D01*
X215096039Y-104684504D01*
X215102332Y-104692171D01*
X215197570Y-104787411D01*
X215205238Y-104793704D01*
X215206969Y-104795700D01*
X215209976Y-104797593D01*
X215212723Y-104799847D01*
X215215163Y-104800857D01*
X215223560Y-104806143D01*
X215414036Y-104901381D01*
X215432344Y-104908387D01*
X215435927Y-104908641D01*
X215439248Y-104910017D01*
X215458757Y-104911938D01*
X215744472Y-104911938D01*
X215763981Y-104910017D01*
X215767301Y-104908641D01*
X215770885Y-104908387D01*
X215789193Y-104901381D01*
X215979670Y-104806143D01*
X215988067Y-104800857D01*
X215990506Y-104799847D01*
X215993250Y-104797594D01*
X215996260Y-104795700D01*
X215997992Y-104793702D01*
X216005659Y-104787410D01*
X216100897Y-104692171D01*
X216107189Y-104684504D01*
X216109186Y-104682773D01*
X216111079Y-104679765D01*
X216113334Y-104677018D01*
X216114345Y-104674576D01*
X216119629Y-104666182D01*
X216214867Y-104475706D01*
X216221873Y-104457398D01*
X216222127Y-104453814D01*
X216223503Y-104450494D01*
X216225424Y-104430985D01*
X216225424Y-103859557D01*
X216223503Y-103840048D01*
X216222127Y-103836727D01*
X216221873Y-103833145D01*
X216214867Y-103814836D01*
X216119629Y-103624359D01*
X216114343Y-103615962D01*
X216113333Y-103613523D01*
X216111079Y-103610776D01*
X216109186Y-103607769D01*
X216107191Y-103606039D01*
X216100897Y-103598369D01*
X216005659Y-103503131D01*
X215997992Y-103496839D01*
X215996260Y-103494842D01*
X215993248Y-103492946D01*
X215990505Y-103490695D01*
X215988068Y-103489685D01*
X215979670Y-103484399D01*
X215929062Y-103459095D01*
X216598773Y-103459095D01*
X216598773Y-103498113D01*
X216613705Y-103534161D01*
X216641295Y-103561751D01*
X216677343Y-103576683D01*
X216696852Y-103578604D01*
X216863722Y-103578604D01*
X217018568Y-103656027D01*
X217090857Y-103728316D01*
X217168281Y-103883164D01*
X217168281Y-104811938D01*
X217170202Y-104831447D01*
X217185134Y-104867495D01*
X217212724Y-104895085D01*
X217248772Y-104910017D01*
X217287790Y-104910017D01*
X217323838Y-104895085D01*
X217351428Y-104867495D01*
X217366360Y-104831447D01*
X217368281Y-104811938D01*
X217368281Y-103764319D01*
X218120662Y-103764319D01*
X218120662Y-104811938D01*
X218122583Y-104831447D01*
X218137515Y-104867495D01*
X218165105Y-104895085D01*
X218201153Y-104910017D01*
X218240171Y-104910017D01*
X218276219Y-104895085D01*
X218303809Y-104867495D01*
X218318741Y-104831447D01*
X218320662Y-104811938D01*
X218320662Y-103787925D01*
X218390435Y-103648377D01*
X218529984Y-103578604D01*
X218768484Y-103578604D01*
X218923330Y-103656027D01*
X218977805Y-103710502D01*
X218977805Y-104811938D01*
X218979726Y-104831447D01*
X218994658Y-104867495D01*
X219022248Y-104895085D01*
X219058296Y-104910017D01*
X219097314Y-104910017D01*
X219133362Y-104895085D01*
X219160952Y-104867495D01*
X219175884Y-104831447D01*
X219177805Y-104811938D01*
X219177805Y-103561335D01*
X219835733Y-103561335D01*
X219838499Y-103600255D01*
X219855948Y-103635154D01*
X219885425Y-103660718D01*
X219922441Y-103673057D01*
X219961361Y-103670291D01*
X219979669Y-103663285D01*
X220149032Y-103578604D01*
X220482770Y-103578604D01*
X220637616Y-103656027D01*
X220709905Y-103728316D01*
X220787329Y-103883164D01*
X220787329Y-104407377D01*
X220709905Y-104562224D01*
X220637617Y-104634514D01*
X220482770Y-104711938D01*
X220149032Y-104711938D01*
X219979669Y-104627257D01*
X219961361Y-104620251D01*
X219922441Y-104617485D01*
X219885425Y-104629824D01*
X219855948Y-104655388D01*
X219838499Y-104690287D01*
X219835733Y-104729207D01*
X219848072Y-104766223D01*
X219873636Y-104795700D01*
X219890227Y-104806143D01*
X220080703Y-104901381D01*
X220099011Y-104908387D01*
X220102594Y-104908641D01*
X220105915Y-104910017D01*
X220125424Y-104911938D01*
X220506377Y-104911938D01*
X220525886Y-104910017D01*
X220529206Y-104908641D01*
X220532790Y-104908387D01*
X220551098Y-104901381D01*
X220741575Y-104806143D01*
X220749972Y-104800857D01*
X220752411Y-104799847D01*
X220755155Y-104797594D01*
X220758165Y-104795700D01*
X220759897Y-104793702D01*
X220767564Y-104787410D01*
X220862802Y-104692171D01*
X220869094Y-104684504D01*
X220871091Y-104682773D01*
X220872984Y-104679765D01*
X220875239Y-104677018D01*
X220876250Y-104674576D01*
X220881534Y-104666182D01*
X220976772Y-104475706D01*
X220983778Y-104457398D01*
X220984032Y-104453814D01*
X220985408Y-104450494D01*
X220987329Y-104430985D01*
X220987329Y-104240509D01*
X221549234Y-104240509D01*
X221549234Y-104430985D01*
X221551155Y-104450494D01*
X221552530Y-104453814D01*
X221552785Y-104457398D01*
X221559791Y-104475706D01*
X221655029Y-104666183D01*
X221660313Y-104674577D01*
X221661324Y-104677018D01*
X221663578Y-104679764D01*
X221665472Y-104682773D01*
X221667468Y-104684504D01*
X221673761Y-104692171D01*
X221768999Y-104787411D01*
X221776667Y-104793704D01*
X221778398Y-104795700D01*
X221781405Y-104797593D01*
X221784152Y-104799847D01*
X221786592Y-104800857D01*
X221794989Y-104806143D01*
X221985465Y-104901381D01*
X222003773Y-104908387D01*
X222007356Y-104908641D01*
X222010677Y-104910017D01*
X222030186Y-104911938D01*
X222506377Y-104911938D01*
X222516250Y-104910965D01*
X222518884Y-104911153D01*
X222522347Y-104910365D01*
X222525886Y-104910017D01*
X222528328Y-104909005D01*
X222538000Y-104906806D01*
X222823714Y-104811568D01*
X222841614Y-104803577D01*
X222871090Y-104778012D01*
X222888540Y-104743113D01*
X222891306Y-104704193D01*
X222888972Y-104697191D01*
X223455917Y-104697191D01*
X223455917Y-104736209D01*
X223457996Y-104741227D01*
X223470849Y-104772258D01*
X223470853Y-104772262D01*
X223483285Y-104787411D01*
X223578523Y-104882649D01*
X223593677Y-104895085D01*
X223629725Y-104910017D01*
X223668743Y-104910017D01*
X223704791Y-104895085D01*
X223719945Y-104882649D01*
X223803163Y-104799431D01*
X224216686Y-104799431D01*
X224219452Y-104838351D01*
X224236902Y-104873249D01*
X224266378Y-104898815D01*
X224303394Y-104911153D01*
X224342314Y-104908387D01*
X224377212Y-104890937D01*
X224402778Y-104861461D01*
X224410769Y-104843561D01*
X224578453Y-104340509D01*
X225386682Y-104340509D01*
X225554366Y-104843561D01*
X225562357Y-104861461D01*
X225587923Y-104890937D01*
X225622821Y-104908387D01*
X225661741Y-104911153D01*
X225698757Y-104898815D01*
X225728233Y-104873250D01*
X225745683Y-104838351D01*
X225748449Y-104799431D01*
X225744102Y-104780315D01*
X225077436Y-102780315D01*
X225069445Y-102762415D01*
X225064760Y-102757013D01*
X225061567Y-102750627D01*
X225052098Y-102742414D01*
X225043880Y-102732939D01*
X225037488Y-102729742D01*
X225032091Y-102725062D01*
X225020197Y-102721097D01*
X225008981Y-102715489D01*
X225001853Y-102714982D01*
X224995075Y-102712723D01*
X224982568Y-102713611D01*
X224970061Y-102712723D01*
X224963282Y-102714982D01*
X224956155Y-102715489D01*
X224944942Y-102721095D01*
X224933045Y-102725061D01*
X224927645Y-102729744D01*
X224921256Y-102732939D01*
X224913040Y-102742410D01*
X224903569Y-102750626D01*
X224900374Y-102757015D01*
X224895691Y-102762415D01*
X224887700Y-102780315D01*
X224221033Y-104780315D01*
X224216686Y-104799431D01*
X223803163Y-104799431D01*
X223815183Y-104787411D01*
X223827614Y-104772262D01*
X223827619Y-104772258D01*
X223842551Y-104736210D01*
X223842551Y-104697192D01*
X223840471Y-104692171D01*
X223832108Y-104671979D01*
X223827620Y-104661143D01*
X223815183Y-104645990D01*
X223719945Y-104550751D01*
X223704792Y-104538314D01*
X223704791Y-104538313D01*
X223668743Y-104523382D01*
X223629725Y-104523382D01*
X223593677Y-104538313D01*
X223593676Y-104538314D01*
X223578523Y-104550750D01*
X223483285Y-104645990D01*
X223470848Y-104661143D01*
X223466360Y-104671979D01*
X223455917Y-104697191D01*
X222888972Y-104697191D01*
X222878968Y-104667177D01*
X222853403Y-104637701D01*
X222818504Y-104620251D01*
X222779584Y-104617485D01*
X222760468Y-104621832D01*
X222490150Y-104711938D01*
X222053794Y-104711938D01*
X221898945Y-104634514D01*
X221826658Y-104562226D01*
X221749234Y-104407378D01*
X221749234Y-104264116D01*
X221826657Y-104109270D01*
X221898946Y-104036980D01*
X222065091Y-103953908D01*
X222435392Y-103861333D01*
X222436829Y-103860819D01*
X222437552Y-103860768D01*
X222445682Y-103857656D01*
X222453853Y-103854738D01*
X222454432Y-103854308D01*
X222455861Y-103853762D01*
X222646337Y-103758523D01*
X222654735Y-103753236D01*
X222657172Y-103752227D01*
X222659915Y-103749975D01*
X222662927Y-103748080D01*
X222664659Y-103746082D01*
X222672326Y-103739791D01*
X222767564Y-103644553D01*
X222773855Y-103636886D01*
X222775853Y-103635154D01*
X222777748Y-103632142D01*
X222780000Y-103629399D01*
X222781009Y-103626961D01*
X222786296Y-103618563D01*
X222881534Y-103428087D01*
X222888540Y-103409779D01*
X222888794Y-103406195D01*
X222890170Y-103402875D01*
X222892091Y-103383366D01*
X222892091Y-103192890D01*
X222890170Y-103173381D01*
X222888794Y-103170060D01*
X222888540Y-103166477D01*
X222881534Y-103148169D01*
X222786296Y-102957693D01*
X222781009Y-102949294D01*
X222780000Y-102946857D01*
X222777748Y-102944113D01*
X222775853Y-102941102D01*
X222773855Y-102939369D01*
X222767564Y-102931703D01*
X222672326Y-102836465D01*
X222664659Y-102830173D01*
X222662927Y-102828176D01*
X222659915Y-102826280D01*
X222657172Y-102824029D01*
X222654735Y-102823019D01*
X222646337Y-102817733D01*
X222455860Y-102722495D01*
X222437552Y-102715489D01*
X222433968Y-102715234D01*
X222430648Y-102713859D01*
X222411139Y-102711938D01*
X221934948Y-102711938D01*
X221925074Y-102712910D01*
X221922441Y-102712723D01*
X221918977Y-102713510D01*
X221915439Y-102713859D01*
X221912996Y-102714870D01*
X221903325Y-102717070D01*
X221617611Y-102812308D01*
X221599711Y-102820299D01*
X221570235Y-102845864D01*
X221552785Y-102880763D01*
X221550019Y-102919683D01*
X221562357Y-102956699D01*
X221587922Y-102986175D01*
X221622821Y-103003625D01*
X221661741Y-103006391D01*
X221680857Y-103002044D01*
X221951175Y-102911938D01*
X222387532Y-102911938D01*
X222542378Y-102989361D01*
X222614667Y-103061650D01*
X222692091Y-103216497D01*
X222692091Y-103359758D01*
X222614667Y-103514605D01*
X222542377Y-103586896D01*
X222376233Y-103669967D01*
X222005932Y-103762543D01*
X222004493Y-103763056D01*
X222003773Y-103763108D01*
X221995654Y-103766214D01*
X221987472Y-103769138D01*
X221986891Y-103769568D01*
X221985465Y-103770114D01*
X221794989Y-103865352D01*
X221786590Y-103870638D01*
X221784153Y-103871648D01*
X221781409Y-103873899D01*
X221778398Y-103875795D01*
X221776665Y-103877792D01*
X221768999Y-103884084D01*
X221673761Y-103979322D01*
X221667469Y-103986988D01*
X221665472Y-103988721D01*
X221663576Y-103991732D01*
X221661325Y-103994476D01*
X221660315Y-103996912D01*
X221655029Y-104005311D01*
X221559791Y-104195788D01*
X221552785Y-104214096D01*
X221552530Y-104217679D01*
X221551155Y-104221000D01*
X221549234Y-104240509D01*
X220987329Y-104240509D01*
X220987329Y-103859557D01*
X220985408Y-103840048D01*
X220984032Y-103836727D01*
X220983778Y-103833145D01*
X220976772Y-103814836D01*
X220881534Y-103624359D01*
X220876248Y-103615962D01*
X220875238Y-103613523D01*
X220872984Y-103610776D01*
X220871091Y-103607769D01*
X220869096Y-103606039D01*
X220862802Y-103598369D01*
X220767564Y-103503131D01*
X220759897Y-103496839D01*
X220758165Y-103494842D01*
X220755153Y-103492946D01*
X220752410Y-103490695D01*
X220749973Y-103489685D01*
X220741575Y-103484399D01*
X220551098Y-103389161D01*
X220532790Y-103382155D01*
X220529206Y-103381900D01*
X220525886Y-103380525D01*
X220506377Y-103378604D01*
X220125424Y-103378604D01*
X220105915Y-103380525D01*
X220102594Y-103381900D01*
X220099011Y-103382155D01*
X220080703Y-103389161D01*
X219890227Y-103484399D01*
X219873636Y-103494842D01*
X219848072Y-103524319D01*
X219835733Y-103561335D01*
X219177805Y-103561335D01*
X219177805Y-102811938D01*
X219175884Y-102792429D01*
X219160952Y-102756381D01*
X219133362Y-102728791D01*
X219097314Y-102713859D01*
X219058296Y-102713859D01*
X219022248Y-102728791D01*
X218994658Y-102756381D01*
X218979726Y-102792429D01*
X218977805Y-102811938D01*
X218977805Y-103459657D01*
X218836812Y-103389161D01*
X218818504Y-103382155D01*
X218814920Y-103381900D01*
X218811600Y-103380525D01*
X218792091Y-103378604D01*
X218506376Y-103378604D01*
X218486867Y-103380525D01*
X218483546Y-103381900D01*
X218479963Y-103382155D01*
X218461655Y-103389161D01*
X218271179Y-103484399D01*
X218267915Y-103486453D01*
X218266377Y-103486966D01*
X218264461Y-103488627D01*
X218254588Y-103494842D01*
X218246372Y-103504314D01*
X218236900Y-103512530D01*
X218230683Y-103522404D01*
X218229024Y-103524319D01*
X218228511Y-103525855D01*
X218226457Y-103529120D01*
X218131219Y-103719598D01*
X218124213Y-103737906D01*
X218123958Y-103741489D01*
X218122583Y-103744810D01*
X218120662Y-103764319D01*
X217368281Y-103764319D01*
X217368281Y-103478604D01*
X217366360Y-103459095D01*
X217351428Y-103423047D01*
X217323838Y-103395457D01*
X217287790Y-103380525D01*
X217248772Y-103380525D01*
X217212724Y-103395457D01*
X217185134Y-103423047D01*
X217170202Y-103459095D01*
X217168281Y-103478604D01*
X217168281Y-103522896D01*
X217148516Y-103503131D01*
X217140849Y-103496839D01*
X217139117Y-103494842D01*
X217136105Y-103492946D01*
X217133362Y-103490695D01*
X217130925Y-103489685D01*
X217122527Y-103484399D01*
X216932050Y-103389161D01*
X216913742Y-103382155D01*
X216910158Y-103381900D01*
X216906838Y-103380525D01*
X216887329Y-103378604D01*
X216696852Y-103378604D01*
X216677343Y-103380525D01*
X216641295Y-103395457D01*
X216613705Y-103423047D01*
X216598773Y-103459095D01*
X215929062Y-103459095D01*
X215789193Y-103389161D01*
X215770885Y-103382155D01*
X215767301Y-103381900D01*
X215763981Y-103380525D01*
X215744472Y-103378604D01*
X215458757Y-103378604D01*
X215439248Y-103380525D01*
X215435927Y-103381900D01*
X215432344Y-103382155D01*
X215414036Y-103389161D01*
X215223560Y-103484399D01*
X215215161Y-103489685D01*
X215212724Y-103490695D01*
X215209980Y-103492946D01*
X215206969Y-103494842D01*
X215205236Y-103496839D01*
X215197570Y-103503131D01*
X215102332Y-103598369D01*
X215096040Y-103606035D01*
X215094043Y-103607768D01*
X215092147Y-103610779D01*
X215089896Y-103613523D01*
X215088886Y-103615959D01*
X215083600Y-103624358D01*
X214988362Y-103814836D01*
X214981356Y-103833144D01*
X214981101Y-103836727D01*
X214979726Y-103840048D01*
X214977805Y-103859557D01*
X214415900Y-103859557D01*
X214413979Y-103840048D01*
X214412603Y-103836727D01*
X214412349Y-103833145D01*
X214405343Y-103814836D01*
X214310105Y-103624359D01*
X214304819Y-103615962D01*
X214303809Y-103613523D01*
X214301555Y-103610776D01*
X214299662Y-103607769D01*
X214297667Y-103606039D01*
X214291373Y-103598369D01*
X214196135Y-103503131D01*
X214188468Y-103496839D01*
X214186736Y-103494842D01*
X214183724Y-103492946D01*
X214180981Y-103490695D01*
X214178544Y-103489685D01*
X214170146Y-103484399D01*
X213979669Y-103389161D01*
X213961361Y-103382155D01*
X213957777Y-103381900D01*
X213954457Y-103380525D01*
X213934948Y-103378604D01*
X213553995Y-103378604D01*
X213534486Y-103380525D01*
X213531165Y-103381900D01*
X213527582Y-103382155D01*
X213509274Y-103389161D01*
X213463519Y-103412038D01*
X213463519Y-102887667D01*
X214979726Y-102887667D01*
X214979726Y-102926685D01*
X214994658Y-102962733D01*
X215007094Y-102977887D01*
X215102332Y-103073125D01*
X215117486Y-103085561D01*
X215153534Y-103100493D01*
X215192552Y-103100493D01*
X215228600Y-103085561D01*
X215243754Y-103073125D01*
X215338992Y-102977887D01*
X215351428Y-102962733D01*
X215366360Y-102926685D01*
X215366360Y-102887667D01*
X215741631Y-102887667D01*
X215741631Y-102926685D01*
X215756563Y-102962733D01*
X215768999Y-102977887D01*
X215864237Y-103073125D01*
X215879391Y-103085561D01*
X215915439Y-103100493D01*
X215954457Y-103100493D01*
X215990505Y-103085561D01*
X216005659Y-103073125D01*
X216100897Y-102977887D01*
X216113333Y-102962733D01*
X216128265Y-102926685D01*
X216128265Y-102887667D01*
X216113333Y-102851619D01*
X216100897Y-102836465D01*
X216005659Y-102741227D01*
X215990505Y-102728791D01*
X215954457Y-102713859D01*
X215915439Y-102713859D01*
X215879391Y-102728791D01*
X215864237Y-102741227D01*
X215768999Y-102836465D01*
X215756563Y-102851619D01*
X215741631Y-102887667D01*
X215366360Y-102887667D01*
X215351428Y-102851619D01*
X215338992Y-102836465D01*
X215243754Y-102741227D01*
X215228600Y-102728791D01*
X215192552Y-102713859D01*
X215153534Y-102713859D01*
X215117486Y-102728791D01*
X215102332Y-102741227D01*
X215007094Y-102836465D01*
X214994658Y-102851619D01*
X214979726Y-102887667D01*
X213463519Y-102887667D01*
X213463519Y-102811938D01*
X213461598Y-102792429D01*
X213446666Y-102756381D01*
X213419076Y-102728791D01*
X213383028Y-102713859D01*
X213344010Y-102713859D01*
X213307962Y-102728791D01*
X213280372Y-102756381D01*
X213265440Y-102792429D01*
X213263519Y-102811938D01*
X209805122Y-102811938D01*
X209805122Y-102489716D01*
X225970671Y-102489716D01*
X225970671Y-105134160D01*
G37*
D12*
X123875704Y-63234219D02*
X123875704Y-64043742D01*
X123875704Y-64043742D02*
X123828085Y-64138980D01*
X123828085Y-64138980D02*
X123780466Y-64186600D01*
X123780466Y-64186600D02*
X123685228Y-64234219D01*
X123685228Y-64234219D02*
X123494752Y-64234219D01*
X123494752Y-64234219D02*
X123399514Y-64186600D01*
X123399514Y-64186600D02*
X123351895Y-64138980D01*
X123351895Y-64138980D02*
X123304276Y-64043742D01*
X123304276Y-64043742D02*
X123304276Y-63234219D01*
X122923323Y-63234219D02*
X122304276Y-63234219D01*
X122304276Y-63234219D02*
X122637609Y-63615171D01*
X122637609Y-63615171D02*
X122494752Y-63615171D01*
X122494752Y-63615171D02*
X122399514Y-63662790D01*
X122399514Y-63662790D02*
X122351895Y-63710409D01*
X122351895Y-63710409D02*
X122304276Y-63805647D01*
X122304276Y-63805647D02*
X122304276Y-64043742D01*
X122304276Y-64043742D02*
X122351895Y-64138980D01*
X122351895Y-64138980D02*
X122399514Y-64186600D01*
X122399514Y-64186600D02*
X122494752Y-64234219D01*
X122494752Y-64234219D02*
X122780466Y-64234219D01*
X122780466Y-64234219D02*
X122875704Y-64186600D01*
X122875704Y-64186600D02*
X122923323Y-64138980D01*
X113755085Y-63132619D02*
X113421752Y-64132619D01*
X113421752Y-64132619D02*
X113088419Y-63132619D01*
X112802704Y-64085000D02*
X112659847Y-64132619D01*
X112659847Y-64132619D02*
X112421752Y-64132619D01*
X112421752Y-64132619D02*
X112326514Y-64085000D01*
X112326514Y-64085000D02*
X112278895Y-64037380D01*
X112278895Y-64037380D02*
X112231276Y-63942142D01*
X112231276Y-63942142D02*
X112231276Y-63846904D01*
X112231276Y-63846904D02*
X112278895Y-63751666D01*
X112278895Y-63751666D02*
X112326514Y-63704047D01*
X112326514Y-63704047D02*
X112421752Y-63656428D01*
X112421752Y-63656428D02*
X112612228Y-63608809D01*
X112612228Y-63608809D02*
X112707466Y-63561190D01*
X112707466Y-63561190D02*
X112755085Y-63513571D01*
X112755085Y-63513571D02*
X112802704Y-63418333D01*
X112802704Y-63418333D02*
X112802704Y-63323095D01*
X112802704Y-63323095D02*
X112755085Y-63227857D01*
X112755085Y-63227857D02*
X112707466Y-63180238D01*
X112707466Y-63180238D02*
X112612228Y-63132619D01*
X112612228Y-63132619D02*
X112374133Y-63132619D01*
X112374133Y-63132619D02*
X112231276Y-63180238D01*
X111278895Y-64132619D02*
X111850323Y-64132619D01*
X111564609Y-64132619D02*
X111564609Y-63132619D01*
X111564609Y-63132619D02*
X111659847Y-63275476D01*
X111659847Y-63275476D02*
X111755085Y-63370714D01*
X111755085Y-63370714D02*
X111850323Y-63418333D01*
X110707466Y-63561190D02*
X110802704Y-63513571D01*
X110802704Y-63513571D02*
X110850323Y-63465952D01*
X110850323Y-63465952D02*
X110897942Y-63370714D01*
X110897942Y-63370714D02*
X110897942Y-63323095D01*
X110897942Y-63323095D02*
X110850323Y-63227857D01*
X110850323Y-63227857D02*
X110802704Y-63180238D01*
X110802704Y-63180238D02*
X110707466Y-63132619D01*
X110707466Y-63132619D02*
X110516990Y-63132619D01*
X110516990Y-63132619D02*
X110421752Y-63180238D01*
X110421752Y-63180238D02*
X110374133Y-63227857D01*
X110374133Y-63227857D02*
X110326514Y-63323095D01*
X110326514Y-63323095D02*
X110326514Y-63370714D01*
X110326514Y-63370714D02*
X110374133Y-63465952D01*
X110374133Y-63465952D02*
X110421752Y-63513571D01*
X110421752Y-63513571D02*
X110516990Y-63561190D01*
X110516990Y-63561190D02*
X110707466Y-63561190D01*
X110707466Y-63561190D02*
X110802704Y-63608809D01*
X110802704Y-63608809D02*
X110850323Y-63656428D01*
X110850323Y-63656428D02*
X110897942Y-63751666D01*
X110897942Y-63751666D02*
X110897942Y-63942142D01*
X110897942Y-63942142D02*
X110850323Y-64037380D01*
X110850323Y-64037380D02*
X110802704Y-64085000D01*
X110802704Y-64085000D02*
X110707466Y-64132619D01*
X110707466Y-64132619D02*
X110516990Y-64132619D01*
X110516990Y-64132619D02*
X110421752Y-64085000D01*
X110421752Y-64085000D02*
X110374133Y-64037380D01*
X110374133Y-64037380D02*
X110326514Y-63942142D01*
X110326514Y-63942142D02*
X110326514Y-63751666D01*
X110326514Y-63751666D02*
X110374133Y-63656428D01*
X110374133Y-63656428D02*
X110421752Y-63608809D01*
X110421752Y-63608809D02*
X110516990Y-63561190D01*
X109993180Y-63132619D02*
X109374133Y-63132619D01*
X109374133Y-63132619D02*
X109707466Y-63513571D01*
X109707466Y-63513571D02*
X109564609Y-63513571D01*
X109564609Y-63513571D02*
X109469371Y-63561190D01*
X109469371Y-63561190D02*
X109421752Y-63608809D01*
X109421752Y-63608809D02*
X109374133Y-63704047D01*
X109374133Y-63704047D02*
X109374133Y-63942142D01*
X109374133Y-63942142D02*
X109421752Y-64037380D01*
X109421752Y-64037380D02*
X109469371Y-64085000D01*
X109469371Y-64085000D02*
X109564609Y-64132619D01*
X109564609Y-64132619D02*
X109850323Y-64132619D01*
X109850323Y-64132619D02*
X109945561Y-64085000D01*
X109945561Y-64085000D02*
X109993180Y-64037380D01*
X108802704Y-63561190D02*
X108897942Y-63513571D01*
X108897942Y-63513571D02*
X108945561Y-63465952D01*
X108945561Y-63465952D02*
X108993180Y-63370714D01*
X108993180Y-63370714D02*
X108993180Y-63323095D01*
X108993180Y-63323095D02*
X108945561Y-63227857D01*
X108945561Y-63227857D02*
X108897942Y-63180238D01*
X108897942Y-63180238D02*
X108802704Y-63132619D01*
X108802704Y-63132619D02*
X108612228Y-63132619D01*
X108612228Y-63132619D02*
X108516990Y-63180238D01*
X108516990Y-63180238D02*
X108469371Y-63227857D01*
X108469371Y-63227857D02*
X108421752Y-63323095D01*
X108421752Y-63323095D02*
X108421752Y-63370714D01*
X108421752Y-63370714D02*
X108469371Y-63465952D01*
X108469371Y-63465952D02*
X108516990Y-63513571D01*
X108516990Y-63513571D02*
X108612228Y-63561190D01*
X108612228Y-63561190D02*
X108802704Y-63561190D01*
X108802704Y-63561190D02*
X108897942Y-63608809D01*
X108897942Y-63608809D02*
X108945561Y-63656428D01*
X108945561Y-63656428D02*
X108993180Y-63751666D01*
X108993180Y-63751666D02*
X108993180Y-63942142D01*
X108993180Y-63942142D02*
X108945561Y-64037380D01*
X108945561Y-64037380D02*
X108897942Y-64085000D01*
X108897942Y-64085000D02*
X108802704Y-64132619D01*
X108802704Y-64132619D02*
X108612228Y-64132619D01*
X108612228Y-64132619D02*
X108516990Y-64085000D01*
X108516990Y-64085000D02*
X108469371Y-64037380D01*
X108469371Y-64037380D02*
X108421752Y-63942142D01*
X108421752Y-63942142D02*
X108421752Y-63751666D01*
X108421752Y-63751666D02*
X108469371Y-63656428D01*
X108469371Y-63656428D02*
X108516990Y-63608809D01*
X108516990Y-63608809D02*
X108612228Y-63561190D01*
X107659847Y-63608809D02*
X107516990Y-63656428D01*
X107516990Y-63656428D02*
X107469371Y-63704047D01*
X107469371Y-63704047D02*
X107421752Y-63799285D01*
X107421752Y-63799285D02*
X107421752Y-63942142D01*
X107421752Y-63942142D02*
X107469371Y-64037380D01*
X107469371Y-64037380D02*
X107516990Y-64085000D01*
X107516990Y-64085000D02*
X107612228Y-64132619D01*
X107612228Y-64132619D02*
X107993180Y-64132619D01*
X107993180Y-64132619D02*
X107993180Y-63132619D01*
X107993180Y-63132619D02*
X107659847Y-63132619D01*
X107659847Y-63132619D02*
X107564609Y-63180238D01*
X107564609Y-63180238D02*
X107516990Y-63227857D01*
X107516990Y-63227857D02*
X107469371Y-63323095D01*
X107469371Y-63323095D02*
X107469371Y-63418333D01*
X107469371Y-63418333D02*
X107516990Y-63513571D01*
X107516990Y-63513571D02*
X107564609Y-63561190D01*
X107564609Y-63561190D02*
X107659847Y-63608809D01*
X107659847Y-63608809D02*
X107993180Y-63608809D01*
X219519332Y-70892200D02*
X219376475Y-70939819D01*
X219376475Y-70939819D02*
X219138380Y-70939819D01*
X219138380Y-70939819D02*
X219043142Y-70892200D01*
X219043142Y-70892200D02*
X218995523Y-70844580D01*
X218995523Y-70844580D02*
X218947904Y-70749342D01*
X218947904Y-70749342D02*
X218947904Y-70654104D01*
X218947904Y-70654104D02*
X218995523Y-70558866D01*
X218995523Y-70558866D02*
X219043142Y-70511247D01*
X219043142Y-70511247D02*
X219138380Y-70463628D01*
X219138380Y-70463628D02*
X219328856Y-70416009D01*
X219328856Y-70416009D02*
X219424094Y-70368390D01*
X219424094Y-70368390D02*
X219471713Y-70320771D01*
X219471713Y-70320771D02*
X219519332Y-70225533D01*
X219519332Y-70225533D02*
X219519332Y-70130295D01*
X219519332Y-70130295D02*
X219471713Y-70035057D01*
X219471713Y-70035057D02*
X219424094Y-69987438D01*
X219424094Y-69987438D02*
X219328856Y-69939819D01*
X219328856Y-69939819D02*
X219090761Y-69939819D01*
X219090761Y-69939819D02*
X218947904Y-69987438D01*
X218614570Y-69939819D02*
X218376475Y-70939819D01*
X218376475Y-70939819D02*
X218185999Y-70225533D01*
X218185999Y-70225533D02*
X217995523Y-70939819D01*
X217995523Y-70939819D02*
X217757428Y-69939819D01*
X217471713Y-69939819D02*
X216852666Y-69939819D01*
X216852666Y-69939819D02*
X217185999Y-70320771D01*
X217185999Y-70320771D02*
X217043142Y-70320771D01*
X217043142Y-70320771D02*
X216947904Y-70368390D01*
X216947904Y-70368390D02*
X216900285Y-70416009D01*
X216900285Y-70416009D02*
X216852666Y-70511247D01*
X216852666Y-70511247D02*
X216852666Y-70749342D01*
X216852666Y-70749342D02*
X216900285Y-70844580D01*
X216900285Y-70844580D02*
X216947904Y-70892200D01*
X216947904Y-70892200D02*
X217043142Y-70939819D01*
X217043142Y-70939819D02*
X217328856Y-70939819D01*
X217328856Y-70939819D02*
X217424094Y-70892200D01*
X217424094Y-70892200D02*
X217471713Y-70844580D01*
D11*
X215553742Y-63917742D02*
X215553742Y-62717742D01*
X215553742Y-63860600D02*
X215668027Y-63917742D01*
X215668027Y-63917742D02*
X215896599Y-63917742D01*
X215896599Y-63917742D02*
X216010884Y-63860600D01*
X216010884Y-63860600D02*
X216068027Y-63803457D01*
X216068027Y-63803457D02*
X216125170Y-63689171D01*
X216125170Y-63689171D02*
X216125170Y-63346314D01*
X216125170Y-63346314D02*
X216068027Y-63232028D01*
X216068027Y-63232028D02*
X216010884Y-63174885D01*
X216010884Y-63174885D02*
X215896599Y-63117742D01*
X215896599Y-63117742D02*
X215668027Y-63117742D01*
X215668027Y-63117742D02*
X215553742Y-63174885D01*
X214810885Y-63917742D02*
X214925170Y-63860600D01*
X214925170Y-63860600D02*
X214982313Y-63803457D01*
X214982313Y-63803457D02*
X215039456Y-63689171D01*
X215039456Y-63689171D02*
X215039456Y-63346314D01*
X215039456Y-63346314D02*
X214982313Y-63232028D01*
X214982313Y-63232028D02*
X214925170Y-63174885D01*
X214925170Y-63174885D02*
X214810885Y-63117742D01*
X214810885Y-63117742D02*
X214639456Y-63117742D01*
X214639456Y-63117742D02*
X214525170Y-63174885D01*
X214525170Y-63174885D02*
X214468028Y-63232028D01*
X214468028Y-63232028D02*
X214410885Y-63346314D01*
X214410885Y-63346314D02*
X214410885Y-63689171D01*
X214410885Y-63689171D02*
X214468028Y-63803457D01*
X214468028Y-63803457D02*
X214525170Y-63860600D01*
X214525170Y-63860600D02*
X214639456Y-63917742D01*
X214639456Y-63917742D02*
X214810885Y-63917742D01*
X214010885Y-63117742D02*
X213782314Y-63917742D01*
X213782314Y-63917742D02*
X213553742Y-63346314D01*
X213553742Y-63346314D02*
X213325171Y-63917742D01*
X213325171Y-63917742D02*
X213096599Y-63117742D01*
X212639456Y-63117742D02*
X212639456Y-63917742D01*
X212639456Y-63232028D02*
X212582313Y-63174885D01*
X212582313Y-63174885D02*
X212468028Y-63117742D01*
X212468028Y-63117742D02*
X212296599Y-63117742D01*
X212296599Y-63117742D02*
X212182313Y-63174885D01*
X212182313Y-63174885D02*
X212125171Y-63289171D01*
X212125171Y-63289171D02*
X212125171Y-63917742D01*
D12*
X147258066Y-66952019D02*
X147591399Y-66475828D01*
X147829494Y-66952019D02*
X147829494Y-65952019D01*
X147829494Y-65952019D02*
X147448542Y-65952019D01*
X147448542Y-65952019D02*
X147353304Y-65999638D01*
X147353304Y-65999638D02*
X147305685Y-66047257D01*
X147305685Y-66047257D02*
X147258066Y-66142495D01*
X147258066Y-66142495D02*
X147258066Y-66285352D01*
X147258066Y-66285352D02*
X147305685Y-66380590D01*
X147305685Y-66380590D02*
X147353304Y-66428209D01*
X147353304Y-66428209D02*
X147448542Y-66475828D01*
X147448542Y-66475828D02*
X147829494Y-66475828D01*
X146924732Y-65952019D02*
X146305685Y-65952019D01*
X146305685Y-65952019D02*
X146639018Y-66332971D01*
X146639018Y-66332971D02*
X146496161Y-66332971D01*
X146496161Y-66332971D02*
X146400923Y-66380590D01*
X146400923Y-66380590D02*
X146353304Y-66428209D01*
X146353304Y-66428209D02*
X146305685Y-66523447D01*
X146305685Y-66523447D02*
X146305685Y-66761542D01*
X146305685Y-66761542D02*
X146353304Y-66856780D01*
X146353304Y-66856780D02*
X146400923Y-66904400D01*
X146400923Y-66904400D02*
X146496161Y-66952019D01*
X146496161Y-66952019D02*
X146781875Y-66952019D01*
X146781875Y-66952019D02*
X146877113Y-66904400D01*
X146877113Y-66904400D02*
X146924732Y-66856780D01*
X150007485Y-69762019D02*
X149388438Y-69762019D01*
X149388438Y-69762019D02*
X149721771Y-70142971D01*
X149721771Y-70142971D02*
X149578914Y-70142971D01*
X149578914Y-70142971D02*
X149483676Y-70190590D01*
X149483676Y-70190590D02*
X149436057Y-70238209D01*
X149436057Y-70238209D02*
X149388438Y-70333447D01*
X149388438Y-70333447D02*
X149388438Y-70571542D01*
X149388438Y-70571542D02*
X149436057Y-70666780D01*
X149436057Y-70666780D02*
X149483676Y-70714400D01*
X149483676Y-70714400D02*
X149578914Y-70762019D01*
X149578914Y-70762019D02*
X149864628Y-70762019D01*
X149864628Y-70762019D02*
X149959866Y-70714400D01*
X149959866Y-70714400D02*
X150007485Y-70666780D01*
X148959866Y-70762019D02*
X148959866Y-69762019D01*
X148864628Y-70381066D02*
X148578914Y-70762019D01*
X148578914Y-70095352D02*
X148959866Y-70476304D01*
X148245580Y-69762019D02*
X147626533Y-69762019D01*
X147626533Y-69762019D02*
X147959866Y-70142971D01*
X147959866Y-70142971D02*
X147817009Y-70142971D01*
X147817009Y-70142971D02*
X147721771Y-70190590D01*
X147721771Y-70190590D02*
X147674152Y-70238209D01*
X147674152Y-70238209D02*
X147626533Y-70333447D01*
X147626533Y-70333447D02*
X147626533Y-70571542D01*
X147626533Y-70571542D02*
X147674152Y-70666780D01*
X147674152Y-70666780D02*
X147721771Y-70714400D01*
X147721771Y-70714400D02*
X147817009Y-70762019D01*
X147817009Y-70762019D02*
X148102723Y-70762019D01*
X148102723Y-70762019D02*
X148197961Y-70714400D01*
X148197961Y-70714400D02*
X148245580Y-70666780D01*
X125998266Y-67663219D02*
X126331599Y-67187028D01*
X126569694Y-67663219D02*
X126569694Y-66663219D01*
X126569694Y-66663219D02*
X126188742Y-66663219D01*
X126188742Y-66663219D02*
X126093504Y-66710838D01*
X126093504Y-66710838D02*
X126045885Y-66758457D01*
X126045885Y-66758457D02*
X125998266Y-66853695D01*
X125998266Y-66853695D02*
X125998266Y-66996552D01*
X125998266Y-66996552D02*
X126045885Y-67091790D01*
X126045885Y-67091790D02*
X126093504Y-67139409D01*
X126093504Y-67139409D02*
X126188742Y-67187028D01*
X126188742Y-67187028D02*
X126569694Y-67187028D01*
X125141123Y-66663219D02*
X125331599Y-66663219D01*
X125331599Y-66663219D02*
X125426837Y-66710838D01*
X125426837Y-66710838D02*
X125474456Y-66758457D01*
X125474456Y-66758457D02*
X125569694Y-66901314D01*
X125569694Y-66901314D02*
X125617313Y-67091790D01*
X125617313Y-67091790D02*
X125617313Y-67472742D01*
X125617313Y-67472742D02*
X125569694Y-67567980D01*
X125569694Y-67567980D02*
X125522075Y-67615600D01*
X125522075Y-67615600D02*
X125426837Y-67663219D01*
X125426837Y-67663219D02*
X125236361Y-67663219D01*
X125236361Y-67663219D02*
X125141123Y-67615600D01*
X125141123Y-67615600D02*
X125093504Y-67567980D01*
X125093504Y-67567980D02*
X125045885Y-67472742D01*
X125045885Y-67472742D02*
X125045885Y-67234647D01*
X125045885Y-67234647D02*
X125093504Y-67139409D01*
X125093504Y-67139409D02*
X125141123Y-67091790D01*
X125141123Y-67091790D02*
X125236361Y-67044171D01*
X125236361Y-67044171D02*
X125426837Y-67044171D01*
X125426837Y-67044171D02*
X125522075Y-67091790D01*
X125522075Y-67091790D02*
X125569694Y-67139409D01*
X125569694Y-67139409D02*
X125617313Y-67234647D01*
X127626857Y-74292619D02*
X128103047Y-74292619D01*
X128103047Y-74292619D02*
X128103047Y-73292619D01*
X127293523Y-74292619D02*
X127293523Y-73292619D01*
X127293523Y-73292619D02*
X127055428Y-73292619D01*
X127055428Y-73292619D02*
X126912571Y-73340238D01*
X126912571Y-73340238D02*
X126817333Y-73435476D01*
X126817333Y-73435476D02*
X126769714Y-73530714D01*
X126769714Y-73530714D02*
X126722095Y-73721190D01*
X126722095Y-73721190D02*
X126722095Y-73864047D01*
X126722095Y-73864047D02*
X126769714Y-74054523D01*
X126769714Y-74054523D02*
X126817333Y-74149761D01*
X126817333Y-74149761D02*
X126912571Y-74245000D01*
X126912571Y-74245000D02*
X127055428Y-74292619D01*
X127055428Y-74292619D02*
X127293523Y-74292619D01*
X125722095Y-74292619D02*
X126055428Y-73816428D01*
X126293523Y-74292619D02*
X126293523Y-73292619D01*
X126293523Y-73292619D02*
X125912571Y-73292619D01*
X125912571Y-73292619D02*
X125817333Y-73340238D01*
X125817333Y-73340238D02*
X125769714Y-73387857D01*
X125769714Y-73387857D02*
X125722095Y-73483095D01*
X125722095Y-73483095D02*
X125722095Y-73625952D01*
X125722095Y-73625952D02*
X125769714Y-73721190D01*
X125769714Y-73721190D02*
X125817333Y-73768809D01*
X125817333Y-73768809D02*
X125912571Y-73816428D01*
X125912571Y-73816428D02*
X126293523Y-73816428D01*
X125103047Y-73292619D02*
X125007809Y-73292619D01*
X125007809Y-73292619D02*
X124912571Y-73340238D01*
X124912571Y-73340238D02*
X124864952Y-73387857D01*
X124864952Y-73387857D02*
X124817333Y-73483095D01*
X124817333Y-73483095D02*
X124769714Y-73673571D01*
X124769714Y-73673571D02*
X124769714Y-73911666D01*
X124769714Y-73911666D02*
X124817333Y-74102142D01*
X124817333Y-74102142D02*
X124864952Y-74197380D01*
X124864952Y-74197380D02*
X124912571Y-74245000D01*
X124912571Y-74245000D02*
X125007809Y-74292619D01*
X125007809Y-74292619D02*
X125103047Y-74292619D01*
X125103047Y-74292619D02*
X125198285Y-74245000D01*
X125198285Y-74245000D02*
X125245904Y-74197380D01*
X125245904Y-74197380D02*
X125293523Y-74102142D01*
X125293523Y-74102142D02*
X125341142Y-73911666D01*
X125341142Y-73911666D02*
X125341142Y-73673571D01*
X125341142Y-73673571D02*
X125293523Y-73483095D01*
X125293523Y-73483095D02*
X125245904Y-73387857D01*
X125245904Y-73387857D02*
X125198285Y-73340238D01*
X125198285Y-73340238D02*
X125103047Y-73292619D01*
X124436380Y-73292619D02*
X123817333Y-73292619D01*
X123817333Y-73292619D02*
X124150666Y-73673571D01*
X124150666Y-73673571D02*
X124007809Y-73673571D01*
X124007809Y-73673571D02*
X123912571Y-73721190D01*
X123912571Y-73721190D02*
X123864952Y-73768809D01*
X123864952Y-73768809D02*
X123817333Y-73864047D01*
X123817333Y-73864047D02*
X123817333Y-74102142D01*
X123817333Y-74102142D02*
X123864952Y-74197380D01*
X123864952Y-74197380D02*
X123912571Y-74245000D01*
X123912571Y-74245000D02*
X124007809Y-74292619D01*
X124007809Y-74292619D02*
X124293523Y-74292619D01*
X124293523Y-74292619D02*
X124388761Y-74245000D01*
X124388761Y-74245000D02*
X124436380Y-74197380D01*
X236807333Y-79972819D02*
X236807333Y-80687104D01*
X236807333Y-80687104D02*
X236854952Y-80829961D01*
X236854952Y-80829961D02*
X236950190Y-80925200D01*
X236950190Y-80925200D02*
X237093047Y-80972819D01*
X237093047Y-80972819D02*
X237188285Y-80972819D01*
X236378761Y-80068057D02*
X236331142Y-80020438D01*
X236331142Y-80020438D02*
X236235904Y-79972819D01*
X236235904Y-79972819D02*
X235997809Y-79972819D01*
X235997809Y-79972819D02*
X235902571Y-80020438D01*
X235902571Y-80020438D02*
X235854952Y-80068057D01*
X235854952Y-80068057D02*
X235807333Y-80163295D01*
X235807333Y-80163295D02*
X235807333Y-80258533D01*
X235807333Y-80258533D02*
X235854952Y-80401390D01*
X235854952Y-80401390D02*
X236426380Y-80972819D01*
X236426380Y-80972819D02*
X235807333Y-80972819D01*
X239194409Y-91631419D02*
X239194409Y-92440942D01*
X239194409Y-92440942D02*
X239146790Y-92536180D01*
X239146790Y-92536180D02*
X239099171Y-92583800D01*
X239099171Y-92583800D02*
X239003933Y-92631419D01*
X239003933Y-92631419D02*
X238813457Y-92631419D01*
X238813457Y-92631419D02*
X238718219Y-92583800D01*
X238718219Y-92583800D02*
X238670600Y-92536180D01*
X238670600Y-92536180D02*
X238622981Y-92440942D01*
X238622981Y-92440942D02*
X238622981Y-91631419D01*
X238194409Y-92583800D02*
X238051552Y-92631419D01*
X238051552Y-92631419D02*
X237813457Y-92631419D01*
X237813457Y-92631419D02*
X237718219Y-92583800D01*
X237718219Y-92583800D02*
X237670600Y-92536180D01*
X237670600Y-92536180D02*
X237622981Y-92440942D01*
X237622981Y-92440942D02*
X237622981Y-92345704D01*
X237622981Y-92345704D02*
X237670600Y-92250466D01*
X237670600Y-92250466D02*
X237718219Y-92202847D01*
X237718219Y-92202847D02*
X237813457Y-92155228D01*
X237813457Y-92155228D02*
X238003933Y-92107609D01*
X238003933Y-92107609D02*
X238099171Y-92059990D01*
X238099171Y-92059990D02*
X238146790Y-92012371D01*
X238146790Y-92012371D02*
X238194409Y-91917133D01*
X238194409Y-91917133D02*
X238194409Y-91821895D01*
X238194409Y-91821895D02*
X238146790Y-91726657D01*
X238146790Y-91726657D02*
X238099171Y-91679038D01*
X238099171Y-91679038D02*
X238003933Y-91631419D01*
X238003933Y-91631419D02*
X237765838Y-91631419D01*
X237765838Y-91631419D02*
X237622981Y-91679038D01*
X236861076Y-92107609D02*
X236718219Y-92155228D01*
X236718219Y-92155228D02*
X236670600Y-92202847D01*
X236670600Y-92202847D02*
X236622981Y-92298085D01*
X236622981Y-92298085D02*
X236622981Y-92440942D01*
X236622981Y-92440942D02*
X236670600Y-92536180D01*
X236670600Y-92536180D02*
X236718219Y-92583800D01*
X236718219Y-92583800D02*
X236813457Y-92631419D01*
X236813457Y-92631419D02*
X237194409Y-92631419D01*
X237194409Y-92631419D02*
X237194409Y-91631419D01*
X237194409Y-91631419D02*
X236861076Y-91631419D01*
X236861076Y-91631419D02*
X236765838Y-91679038D01*
X236765838Y-91679038D02*
X236718219Y-91726657D01*
X236718219Y-91726657D02*
X236670600Y-91821895D01*
X236670600Y-91821895D02*
X236670600Y-91917133D01*
X236670600Y-91917133D02*
X236718219Y-92012371D01*
X236718219Y-92012371D02*
X236765838Y-92059990D01*
X236765838Y-92059990D02*
X236861076Y-92107609D01*
X236861076Y-92107609D02*
X237194409Y-92107609D01*
X236432505Y-92726657D02*
X235670600Y-92726657D01*
X235099171Y-92107609D02*
X234956314Y-92155228D01*
X234956314Y-92155228D02*
X234908695Y-92202847D01*
X234908695Y-92202847D02*
X234861076Y-92298085D01*
X234861076Y-92298085D02*
X234861076Y-92440942D01*
X234861076Y-92440942D02*
X234908695Y-92536180D01*
X234908695Y-92536180D02*
X234956314Y-92583800D01*
X234956314Y-92583800D02*
X235051552Y-92631419D01*
X235051552Y-92631419D02*
X235432504Y-92631419D01*
X235432504Y-92631419D02*
X235432504Y-91631419D01*
X235432504Y-91631419D02*
X235099171Y-91631419D01*
X235099171Y-91631419D02*
X235003933Y-91679038D01*
X235003933Y-91679038D02*
X234956314Y-91726657D01*
X234956314Y-91726657D02*
X234908695Y-91821895D01*
X234908695Y-91821895D02*
X234908695Y-91917133D01*
X234908695Y-91917133D02*
X234956314Y-92012371D01*
X234956314Y-92012371D02*
X235003933Y-92059990D01*
X235003933Y-92059990D02*
X235099171Y-92107609D01*
X235099171Y-92107609D02*
X235432504Y-92107609D01*
X234670600Y-92726657D02*
X233908695Y-92726657D01*
X233670599Y-92631419D02*
X233670599Y-91631419D01*
X233670599Y-91631419D02*
X233337266Y-92345704D01*
X233337266Y-92345704D02*
X233003933Y-91631419D01*
X233003933Y-91631419D02*
X233003933Y-92631419D01*
X232527742Y-92631419D02*
X232527742Y-91964752D01*
X232527742Y-91631419D02*
X232575361Y-91679038D01*
X232575361Y-91679038D02*
X232527742Y-91726657D01*
X232527742Y-91726657D02*
X232480123Y-91679038D01*
X232480123Y-91679038D02*
X232527742Y-91631419D01*
X232527742Y-91631419D02*
X232527742Y-91726657D01*
X231622981Y-92583800D02*
X231718219Y-92631419D01*
X231718219Y-92631419D02*
X231908695Y-92631419D01*
X231908695Y-92631419D02*
X232003933Y-92583800D01*
X232003933Y-92583800D02*
X232051552Y-92536180D01*
X232051552Y-92536180D02*
X232099171Y-92440942D01*
X232099171Y-92440942D02*
X232099171Y-92155228D01*
X232099171Y-92155228D02*
X232051552Y-92059990D01*
X232051552Y-92059990D02*
X232003933Y-92012371D01*
X232003933Y-92012371D02*
X231908695Y-91964752D01*
X231908695Y-91964752D02*
X231718219Y-91964752D01*
X231718219Y-91964752D02*
X231622981Y-92012371D01*
X231194409Y-92631419D02*
X231194409Y-91964752D01*
X231194409Y-92155228D02*
X231146790Y-92059990D01*
X231146790Y-92059990D02*
X231099171Y-92012371D01*
X231099171Y-92012371D02*
X231003933Y-91964752D01*
X231003933Y-91964752D02*
X230908695Y-91964752D01*
X230432504Y-92631419D02*
X230527742Y-92583800D01*
X230527742Y-92583800D02*
X230575361Y-92536180D01*
X230575361Y-92536180D02*
X230622980Y-92440942D01*
X230622980Y-92440942D02*
X230622980Y-92155228D01*
X230622980Y-92155228D02*
X230575361Y-92059990D01*
X230575361Y-92059990D02*
X230527742Y-92012371D01*
X230527742Y-92012371D02*
X230432504Y-91964752D01*
X230432504Y-91964752D02*
X230289647Y-91964752D01*
X230289647Y-91964752D02*
X230194409Y-92012371D01*
X230194409Y-92012371D02*
X230146790Y-92059990D01*
X230146790Y-92059990D02*
X230099171Y-92155228D01*
X230099171Y-92155228D02*
X230099171Y-92440942D01*
X230099171Y-92440942D02*
X230146790Y-92536180D01*
X230146790Y-92536180D02*
X230194409Y-92583800D01*
X230194409Y-92583800D02*
X230289647Y-92631419D01*
X230289647Y-92631419D02*
X230432504Y-92631419D01*
X192474694Y-81536319D02*
X192474694Y-82345842D01*
X192474694Y-82345842D02*
X192427075Y-82441080D01*
X192427075Y-82441080D02*
X192379456Y-82488700D01*
X192379456Y-82488700D02*
X192284218Y-82536319D01*
X192284218Y-82536319D02*
X192093742Y-82536319D01*
X192093742Y-82536319D02*
X191998504Y-82488700D01*
X191998504Y-82488700D02*
X191950885Y-82441080D01*
X191950885Y-82441080D02*
X191903266Y-82345842D01*
X191903266Y-82345842D02*
X191903266Y-81536319D01*
X191474694Y-81631557D02*
X191427075Y-81583938D01*
X191427075Y-81583938D02*
X191331837Y-81536319D01*
X191331837Y-81536319D02*
X191093742Y-81536319D01*
X191093742Y-81536319D02*
X190998504Y-81583938D01*
X190998504Y-81583938D02*
X190950885Y-81631557D01*
X190950885Y-81631557D02*
X190903266Y-81726795D01*
X190903266Y-81726795D02*
X190903266Y-81822033D01*
X190903266Y-81822033D02*
X190950885Y-81964890D01*
X190950885Y-81964890D02*
X191522313Y-82536319D01*
X191522313Y-82536319D02*
X190903266Y-82536319D01*
X190522313Y-81631557D02*
X190474694Y-81583938D01*
X190474694Y-81583938D02*
X190379456Y-81536319D01*
X190379456Y-81536319D02*
X190141361Y-81536319D01*
X190141361Y-81536319D02*
X190046123Y-81583938D01*
X190046123Y-81583938D02*
X189998504Y-81631557D01*
X189998504Y-81631557D02*
X189950885Y-81726795D01*
X189950885Y-81726795D02*
X189950885Y-81822033D01*
X189950885Y-81822033D02*
X189998504Y-81964890D01*
X189998504Y-81964890D02*
X190569932Y-82536319D01*
X190569932Y-82536319D02*
X189950885Y-82536319D01*
X196782675Y-86856219D02*
X196782675Y-87665742D01*
X196782675Y-87665742D02*
X196735056Y-87760980D01*
X196735056Y-87760980D02*
X196687437Y-87808600D01*
X196687437Y-87808600D02*
X196592199Y-87856219D01*
X196592199Y-87856219D02*
X196401723Y-87856219D01*
X196401723Y-87856219D02*
X196306485Y-87808600D01*
X196306485Y-87808600D02*
X196258866Y-87760980D01*
X196258866Y-87760980D02*
X196211247Y-87665742D01*
X196211247Y-87665742D02*
X196211247Y-86856219D01*
X195782675Y-87808600D02*
X195639818Y-87856219D01*
X195639818Y-87856219D02*
X195401723Y-87856219D01*
X195401723Y-87856219D02*
X195306485Y-87808600D01*
X195306485Y-87808600D02*
X195258866Y-87760980D01*
X195258866Y-87760980D02*
X195211247Y-87665742D01*
X195211247Y-87665742D02*
X195211247Y-87570504D01*
X195211247Y-87570504D02*
X195258866Y-87475266D01*
X195258866Y-87475266D02*
X195306485Y-87427647D01*
X195306485Y-87427647D02*
X195401723Y-87380028D01*
X195401723Y-87380028D02*
X195592199Y-87332409D01*
X195592199Y-87332409D02*
X195687437Y-87284790D01*
X195687437Y-87284790D02*
X195735056Y-87237171D01*
X195735056Y-87237171D02*
X195782675Y-87141933D01*
X195782675Y-87141933D02*
X195782675Y-87046695D01*
X195782675Y-87046695D02*
X195735056Y-86951457D01*
X195735056Y-86951457D02*
X195687437Y-86903838D01*
X195687437Y-86903838D02*
X195592199Y-86856219D01*
X195592199Y-86856219D02*
X195354104Y-86856219D01*
X195354104Y-86856219D02*
X195211247Y-86903838D01*
X194449342Y-87332409D02*
X194306485Y-87380028D01*
X194306485Y-87380028D02*
X194258866Y-87427647D01*
X194258866Y-87427647D02*
X194211247Y-87522885D01*
X194211247Y-87522885D02*
X194211247Y-87665742D01*
X194211247Y-87665742D02*
X194258866Y-87760980D01*
X194258866Y-87760980D02*
X194306485Y-87808600D01*
X194306485Y-87808600D02*
X194401723Y-87856219D01*
X194401723Y-87856219D02*
X194782675Y-87856219D01*
X194782675Y-87856219D02*
X194782675Y-86856219D01*
X194782675Y-86856219D02*
X194449342Y-86856219D01*
X194449342Y-86856219D02*
X194354104Y-86903838D01*
X194354104Y-86903838D02*
X194306485Y-86951457D01*
X194306485Y-86951457D02*
X194258866Y-87046695D01*
X194258866Y-87046695D02*
X194258866Y-87141933D01*
X194258866Y-87141933D02*
X194306485Y-87237171D01*
X194306485Y-87237171D02*
X194354104Y-87284790D01*
X194354104Y-87284790D02*
X194449342Y-87332409D01*
X194449342Y-87332409D02*
X194782675Y-87332409D01*
X193306485Y-87856219D02*
X193782675Y-87856219D01*
X193782675Y-87856219D02*
X193782675Y-86856219D01*
X192401723Y-87760980D02*
X192449342Y-87808600D01*
X192449342Y-87808600D02*
X192592199Y-87856219D01*
X192592199Y-87856219D02*
X192687437Y-87856219D01*
X192687437Y-87856219D02*
X192830294Y-87808600D01*
X192830294Y-87808600D02*
X192925532Y-87713361D01*
X192925532Y-87713361D02*
X192973151Y-87618123D01*
X192973151Y-87618123D02*
X193020770Y-87427647D01*
X193020770Y-87427647D02*
X193020770Y-87284790D01*
X193020770Y-87284790D02*
X192973151Y-87094314D01*
X192973151Y-87094314D02*
X192925532Y-86999076D01*
X192925532Y-86999076D02*
X192830294Y-86903838D01*
X192830294Y-86903838D02*
X192687437Y-86856219D01*
X192687437Y-86856219D02*
X192592199Y-86856219D01*
X192592199Y-86856219D02*
X192449342Y-86903838D01*
X192449342Y-86903838D02*
X192401723Y-86951457D01*
X191544580Y-86856219D02*
X191735056Y-86856219D01*
X191735056Y-86856219D02*
X191830294Y-86903838D01*
X191830294Y-86903838D02*
X191877913Y-86951457D01*
X191877913Y-86951457D02*
X191973151Y-87094314D01*
X191973151Y-87094314D02*
X192020770Y-87284790D01*
X192020770Y-87284790D02*
X192020770Y-87665742D01*
X192020770Y-87665742D02*
X191973151Y-87760980D01*
X191973151Y-87760980D02*
X191925532Y-87808600D01*
X191925532Y-87808600D02*
X191830294Y-87856219D01*
X191830294Y-87856219D02*
X191639818Y-87856219D01*
X191639818Y-87856219D02*
X191544580Y-87808600D01*
X191544580Y-87808600D02*
X191496961Y-87760980D01*
X191496961Y-87760980D02*
X191449342Y-87665742D01*
X191449342Y-87665742D02*
X191449342Y-87427647D01*
X191449342Y-87427647D02*
X191496961Y-87332409D01*
X191496961Y-87332409D02*
X191544580Y-87284790D01*
X191544580Y-87284790D02*
X191639818Y-87237171D01*
X191639818Y-87237171D02*
X191830294Y-87237171D01*
X191830294Y-87237171D02*
X191925532Y-87284790D01*
X191925532Y-87284790D02*
X191973151Y-87332409D01*
X191973151Y-87332409D02*
X192020770Y-87427647D01*
X191020770Y-87475266D02*
X190258866Y-87475266D01*
X189830294Y-86951457D02*
X189782675Y-86903838D01*
X189782675Y-86903838D02*
X189687437Y-86856219D01*
X189687437Y-86856219D02*
X189449342Y-86856219D01*
X189449342Y-86856219D02*
X189354104Y-86903838D01*
X189354104Y-86903838D02*
X189306485Y-86951457D01*
X189306485Y-86951457D02*
X189258866Y-87046695D01*
X189258866Y-87046695D02*
X189258866Y-87141933D01*
X189258866Y-87141933D02*
X189306485Y-87284790D01*
X189306485Y-87284790D02*
X189877913Y-87856219D01*
X189877913Y-87856219D02*
X189258866Y-87856219D01*
X188877913Y-87808600D02*
X188735056Y-87856219D01*
X188735056Y-87856219D02*
X188496961Y-87856219D01*
X188496961Y-87856219D02*
X188401723Y-87808600D01*
X188401723Y-87808600D02*
X188354104Y-87760980D01*
X188354104Y-87760980D02*
X188306485Y-87665742D01*
X188306485Y-87665742D02*
X188306485Y-87570504D01*
X188306485Y-87570504D02*
X188354104Y-87475266D01*
X188354104Y-87475266D02*
X188401723Y-87427647D01*
X188401723Y-87427647D02*
X188496961Y-87380028D01*
X188496961Y-87380028D02*
X188687437Y-87332409D01*
X188687437Y-87332409D02*
X188782675Y-87284790D01*
X188782675Y-87284790D02*
X188830294Y-87237171D01*
X188830294Y-87237171D02*
X188877913Y-87141933D01*
X188877913Y-87141933D02*
X188877913Y-87046695D01*
X188877913Y-87046695D02*
X188830294Y-86951457D01*
X188830294Y-86951457D02*
X188782675Y-86903838D01*
X188782675Y-86903838D02*
X188687437Y-86856219D01*
X188687437Y-86856219D02*
X188449342Y-86856219D01*
X188449342Y-86856219D02*
X188306485Y-86903838D01*
X187306485Y-87760980D02*
X187354104Y-87808600D01*
X187354104Y-87808600D02*
X187496961Y-87856219D01*
X187496961Y-87856219D02*
X187592199Y-87856219D01*
X187592199Y-87856219D02*
X187735056Y-87808600D01*
X187735056Y-87808600D02*
X187830294Y-87713361D01*
X187830294Y-87713361D02*
X187877913Y-87618123D01*
X187877913Y-87618123D02*
X187925532Y-87427647D01*
X187925532Y-87427647D02*
X187925532Y-87284790D01*
X187925532Y-87284790D02*
X187877913Y-87094314D01*
X187877913Y-87094314D02*
X187830294Y-86999076D01*
X187830294Y-86999076D02*
X187735056Y-86903838D01*
X187735056Y-86903838D02*
X187592199Y-86856219D01*
X187592199Y-86856219D02*
X187496961Y-86856219D01*
X187496961Y-86856219D02*
X187354104Y-86903838D01*
X187354104Y-86903838D02*
X187306485Y-86951457D01*
X186449342Y-86856219D02*
X186639818Y-86856219D01*
X186639818Y-86856219D02*
X186735056Y-86903838D01*
X186735056Y-86903838D02*
X186782675Y-86951457D01*
X186782675Y-86951457D02*
X186877913Y-87094314D01*
X186877913Y-87094314D02*
X186925532Y-87284790D01*
X186925532Y-87284790D02*
X186925532Y-87665742D01*
X186925532Y-87665742D02*
X186877913Y-87760980D01*
X186877913Y-87760980D02*
X186830294Y-87808600D01*
X186830294Y-87808600D02*
X186735056Y-87856219D01*
X186735056Y-87856219D02*
X186544580Y-87856219D01*
X186544580Y-87856219D02*
X186449342Y-87808600D01*
X186449342Y-87808600D02*
X186401723Y-87760980D01*
X186401723Y-87760980D02*
X186354104Y-87665742D01*
X186354104Y-87665742D02*
X186354104Y-87427647D01*
X186354104Y-87427647D02*
X186401723Y-87332409D01*
X186401723Y-87332409D02*
X186449342Y-87284790D01*
X186449342Y-87284790D02*
X186544580Y-87237171D01*
X186544580Y-87237171D02*
X186735056Y-87237171D01*
X186735056Y-87237171D02*
X186830294Y-87284790D01*
X186830294Y-87284790D02*
X186877913Y-87332409D01*
X186877913Y-87332409D02*
X186925532Y-87427647D01*
X143838514Y-84081209D02*
X143695657Y-84128828D01*
X143695657Y-84128828D02*
X143648038Y-84176447D01*
X143648038Y-84176447D02*
X143600419Y-84271685D01*
X143600419Y-84271685D02*
X143600419Y-84414542D01*
X143600419Y-84414542D02*
X143648038Y-84509780D01*
X143648038Y-84509780D02*
X143695657Y-84557400D01*
X143695657Y-84557400D02*
X143790895Y-84605019D01*
X143790895Y-84605019D02*
X144171847Y-84605019D01*
X144171847Y-84605019D02*
X144171847Y-83605019D01*
X144171847Y-83605019D02*
X143838514Y-83605019D01*
X143838514Y-83605019D02*
X143743276Y-83652638D01*
X143743276Y-83652638D02*
X143695657Y-83700257D01*
X143695657Y-83700257D02*
X143648038Y-83795495D01*
X143648038Y-83795495D02*
X143648038Y-83890733D01*
X143648038Y-83890733D02*
X143695657Y-83985971D01*
X143695657Y-83985971D02*
X143743276Y-84033590D01*
X143743276Y-84033590D02*
X143838514Y-84081209D01*
X143838514Y-84081209D02*
X144171847Y-84081209D01*
X143314704Y-83605019D02*
X142743276Y-83605019D01*
X143028990Y-84605019D02*
X143028990Y-83605019D01*
X141886133Y-84605019D02*
X142457561Y-84605019D01*
X142171847Y-84605019D02*
X142171847Y-83605019D01*
X142171847Y-83605019D02*
X142267085Y-83747876D01*
X142267085Y-83747876D02*
X142362323Y-83843114D01*
X142362323Y-83843114D02*
X142457561Y-83890733D01*
X121449838Y-101502380D02*
X121497457Y-101550000D01*
X121497457Y-101550000D02*
X121640314Y-101597619D01*
X121640314Y-101597619D02*
X121735552Y-101597619D01*
X121735552Y-101597619D02*
X121878409Y-101550000D01*
X121878409Y-101550000D02*
X121973647Y-101454761D01*
X121973647Y-101454761D02*
X122021266Y-101359523D01*
X122021266Y-101359523D02*
X122068885Y-101169047D01*
X122068885Y-101169047D02*
X122068885Y-101026190D01*
X122068885Y-101026190D02*
X122021266Y-100835714D01*
X122021266Y-100835714D02*
X121973647Y-100740476D01*
X121973647Y-100740476D02*
X121878409Y-100645238D01*
X121878409Y-100645238D02*
X121735552Y-100597619D01*
X121735552Y-100597619D02*
X121640314Y-100597619D01*
X121640314Y-100597619D02*
X121497457Y-100645238D01*
X121497457Y-100645238D02*
X121449838Y-100692857D01*
X120449838Y-101597619D02*
X120783171Y-101121428D01*
X121021266Y-101597619D02*
X121021266Y-100597619D01*
X121021266Y-100597619D02*
X120640314Y-100597619D01*
X120640314Y-100597619D02*
X120545076Y-100645238D01*
X120545076Y-100645238D02*
X120497457Y-100692857D01*
X120497457Y-100692857D02*
X120449838Y-100788095D01*
X120449838Y-100788095D02*
X120449838Y-100930952D01*
X120449838Y-100930952D02*
X120497457Y-101026190D01*
X120497457Y-101026190D02*
X120545076Y-101073809D01*
X120545076Y-101073809D02*
X120640314Y-101121428D01*
X120640314Y-101121428D02*
X121021266Y-101121428D01*
X120068885Y-100692857D02*
X120021266Y-100645238D01*
X120021266Y-100645238D02*
X119926028Y-100597619D01*
X119926028Y-100597619D02*
X119687933Y-100597619D01*
X119687933Y-100597619D02*
X119592695Y-100645238D01*
X119592695Y-100645238D02*
X119545076Y-100692857D01*
X119545076Y-100692857D02*
X119497457Y-100788095D01*
X119497457Y-100788095D02*
X119497457Y-100883333D01*
X119497457Y-100883333D02*
X119545076Y-101026190D01*
X119545076Y-101026190D02*
X120116504Y-101597619D01*
X120116504Y-101597619D02*
X119497457Y-101597619D01*
X118878409Y-100597619D02*
X118783171Y-100597619D01*
X118783171Y-100597619D02*
X118687933Y-100645238D01*
X118687933Y-100645238D02*
X118640314Y-100692857D01*
X118640314Y-100692857D02*
X118592695Y-100788095D01*
X118592695Y-100788095D02*
X118545076Y-100978571D01*
X118545076Y-100978571D02*
X118545076Y-101216666D01*
X118545076Y-101216666D02*
X118592695Y-101407142D01*
X118592695Y-101407142D02*
X118640314Y-101502380D01*
X118640314Y-101502380D02*
X118687933Y-101550000D01*
X118687933Y-101550000D02*
X118783171Y-101597619D01*
X118783171Y-101597619D02*
X118878409Y-101597619D01*
X118878409Y-101597619D02*
X118973647Y-101550000D01*
X118973647Y-101550000D02*
X119021266Y-101502380D01*
X119021266Y-101502380D02*
X119068885Y-101407142D01*
X119068885Y-101407142D02*
X119116504Y-101216666D01*
X119116504Y-101216666D02*
X119116504Y-100978571D01*
X119116504Y-100978571D02*
X119068885Y-100788095D01*
X119068885Y-100788095D02*
X119021266Y-100692857D01*
X119021266Y-100692857D02*
X118973647Y-100645238D01*
X118973647Y-100645238D02*
X118878409Y-100597619D01*
X118211742Y-100597619D02*
X117592695Y-100597619D01*
X117592695Y-100597619D02*
X117926028Y-100978571D01*
X117926028Y-100978571D02*
X117783171Y-100978571D01*
X117783171Y-100978571D02*
X117687933Y-101026190D01*
X117687933Y-101026190D02*
X117640314Y-101073809D01*
X117640314Y-101073809D02*
X117592695Y-101169047D01*
X117592695Y-101169047D02*
X117592695Y-101407142D01*
X117592695Y-101407142D02*
X117640314Y-101502380D01*
X117640314Y-101502380D02*
X117687933Y-101550000D01*
X117687933Y-101550000D02*
X117783171Y-101597619D01*
X117783171Y-101597619D02*
X118068885Y-101597619D01*
X118068885Y-101597619D02*
X118164123Y-101550000D01*
X118164123Y-101550000D02*
X118211742Y-101502380D01*
X117211742Y-100692857D02*
X117164123Y-100645238D01*
X117164123Y-100645238D02*
X117068885Y-100597619D01*
X117068885Y-100597619D02*
X116830790Y-100597619D01*
X116830790Y-100597619D02*
X116735552Y-100645238D01*
X116735552Y-100645238D02*
X116687933Y-100692857D01*
X116687933Y-100692857D02*
X116640314Y-100788095D01*
X116640314Y-100788095D02*
X116640314Y-100883333D01*
X116640314Y-100883333D02*
X116687933Y-101026190D01*
X116687933Y-101026190D02*
X117259361Y-101597619D01*
X117259361Y-101597619D02*
X116640314Y-101597619D01*
X230326235Y-78753619D02*
X230326235Y-79467904D01*
X230326235Y-79467904D02*
X230373854Y-79610761D01*
X230373854Y-79610761D02*
X230469092Y-79706000D01*
X230469092Y-79706000D02*
X230611949Y-79753619D01*
X230611949Y-79753619D02*
X230707187Y-79753619D01*
X229326235Y-79753619D02*
X229897663Y-79753619D01*
X229611949Y-79753619D02*
X229611949Y-78753619D01*
X229611949Y-78753619D02*
X229707187Y-78896476D01*
X229707187Y-78896476D02*
X229802425Y-78991714D01*
X229802425Y-78991714D02*
X229897663Y-79039333D01*
X228008961Y-81065019D02*
X228008961Y-81874542D01*
X228008961Y-81874542D02*
X227961342Y-81969780D01*
X227961342Y-81969780D02*
X227913723Y-82017400D01*
X227913723Y-82017400D02*
X227818485Y-82065019D01*
X227818485Y-82065019D02*
X227628009Y-82065019D01*
X227628009Y-82065019D02*
X227532771Y-82017400D01*
X227532771Y-82017400D02*
X227485152Y-81969780D01*
X227485152Y-81969780D02*
X227437533Y-81874542D01*
X227437533Y-81874542D02*
X227437533Y-81065019D01*
X227008961Y-82017400D02*
X226866104Y-82065019D01*
X226866104Y-82065019D02*
X226628009Y-82065019D01*
X226628009Y-82065019D02*
X226532771Y-82017400D01*
X226532771Y-82017400D02*
X226485152Y-81969780D01*
X226485152Y-81969780D02*
X226437533Y-81874542D01*
X226437533Y-81874542D02*
X226437533Y-81779304D01*
X226437533Y-81779304D02*
X226485152Y-81684066D01*
X226485152Y-81684066D02*
X226532771Y-81636447D01*
X226532771Y-81636447D02*
X226628009Y-81588828D01*
X226628009Y-81588828D02*
X226818485Y-81541209D01*
X226818485Y-81541209D02*
X226913723Y-81493590D01*
X226913723Y-81493590D02*
X226961342Y-81445971D01*
X226961342Y-81445971D02*
X227008961Y-81350733D01*
X227008961Y-81350733D02*
X227008961Y-81255495D01*
X227008961Y-81255495D02*
X226961342Y-81160257D01*
X226961342Y-81160257D02*
X226913723Y-81112638D01*
X226913723Y-81112638D02*
X226818485Y-81065019D01*
X226818485Y-81065019D02*
X226580390Y-81065019D01*
X226580390Y-81065019D02*
X226437533Y-81112638D01*
X225675628Y-81541209D02*
X225532771Y-81588828D01*
X225532771Y-81588828D02*
X225485152Y-81636447D01*
X225485152Y-81636447D02*
X225437533Y-81731685D01*
X225437533Y-81731685D02*
X225437533Y-81874542D01*
X225437533Y-81874542D02*
X225485152Y-81969780D01*
X225485152Y-81969780D02*
X225532771Y-82017400D01*
X225532771Y-82017400D02*
X225628009Y-82065019D01*
X225628009Y-82065019D02*
X226008961Y-82065019D01*
X226008961Y-82065019D02*
X226008961Y-81065019D01*
X226008961Y-81065019D02*
X225675628Y-81065019D01*
X225675628Y-81065019D02*
X225580390Y-81112638D01*
X225580390Y-81112638D02*
X225532771Y-81160257D01*
X225532771Y-81160257D02*
X225485152Y-81255495D01*
X225485152Y-81255495D02*
X225485152Y-81350733D01*
X225485152Y-81350733D02*
X225532771Y-81445971D01*
X225532771Y-81445971D02*
X225580390Y-81493590D01*
X225580390Y-81493590D02*
X225675628Y-81541209D01*
X225675628Y-81541209D02*
X226008961Y-81541209D01*
X225008961Y-81684066D02*
X224247057Y-81684066D01*
X223342295Y-82017400D02*
X223437533Y-82065019D01*
X223437533Y-82065019D02*
X223628009Y-82065019D01*
X223628009Y-82065019D02*
X223723247Y-82017400D01*
X223723247Y-82017400D02*
X223770866Y-81969780D01*
X223770866Y-81969780D02*
X223818485Y-81874542D01*
X223818485Y-81874542D02*
X223818485Y-81588828D01*
X223818485Y-81588828D02*
X223770866Y-81493590D01*
X223770866Y-81493590D02*
X223723247Y-81445971D01*
X223723247Y-81445971D02*
X223628009Y-81398352D01*
X223628009Y-81398352D02*
X223437533Y-81398352D01*
X223437533Y-81398352D02*
X223342295Y-81445971D01*
X222485152Y-82065019D02*
X222485152Y-81541209D01*
X222485152Y-81541209D02*
X222532771Y-81445971D01*
X222532771Y-81445971D02*
X222628009Y-81398352D01*
X222628009Y-81398352D02*
X222818485Y-81398352D01*
X222818485Y-81398352D02*
X222913723Y-81445971D01*
X222485152Y-82017400D02*
X222580390Y-82065019D01*
X222580390Y-82065019D02*
X222818485Y-82065019D01*
X222818485Y-82065019D02*
X222913723Y-82017400D01*
X222913723Y-82017400D02*
X222961342Y-81922161D01*
X222961342Y-81922161D02*
X222961342Y-81826923D01*
X222961342Y-81826923D02*
X222913723Y-81731685D01*
X222913723Y-81731685D02*
X222818485Y-81684066D01*
X222818485Y-81684066D02*
X222580390Y-81684066D01*
X222580390Y-81684066D02*
X222485152Y-81636447D01*
X222008961Y-82065019D02*
X222008961Y-81065019D01*
X222008961Y-81445971D02*
X221913723Y-81398352D01*
X221913723Y-81398352D02*
X221723247Y-81398352D01*
X221723247Y-81398352D02*
X221628009Y-81445971D01*
X221628009Y-81445971D02*
X221580390Y-81493590D01*
X221580390Y-81493590D02*
X221532771Y-81588828D01*
X221532771Y-81588828D02*
X221532771Y-81874542D01*
X221532771Y-81874542D02*
X221580390Y-81969780D01*
X221580390Y-81969780D02*
X221628009Y-82017400D01*
X221628009Y-82017400D02*
X221723247Y-82065019D01*
X221723247Y-82065019D02*
X221913723Y-82065019D01*
X221913723Y-82065019D02*
X222008961Y-82017400D01*
X220961342Y-82065019D02*
X221056580Y-82017400D01*
X221056580Y-82017400D02*
X221104199Y-81922161D01*
X221104199Y-81922161D02*
X221104199Y-81065019D01*
X220199437Y-82017400D02*
X220294675Y-82065019D01*
X220294675Y-82065019D02*
X220485151Y-82065019D01*
X220485151Y-82065019D02*
X220580389Y-82017400D01*
X220580389Y-82017400D02*
X220628008Y-81922161D01*
X220628008Y-81922161D02*
X220628008Y-81541209D01*
X220628008Y-81541209D02*
X220580389Y-81445971D01*
X220580389Y-81445971D02*
X220485151Y-81398352D01*
X220485151Y-81398352D02*
X220294675Y-81398352D01*
X220294675Y-81398352D02*
X220199437Y-81445971D01*
X220199437Y-81445971D02*
X220151818Y-81541209D01*
X220151818Y-81541209D02*
X220151818Y-81636447D01*
X220151818Y-81636447D02*
X220628008Y-81731685D01*
X207708332Y-70943000D02*
X207565475Y-70990619D01*
X207565475Y-70990619D02*
X207327380Y-70990619D01*
X207327380Y-70990619D02*
X207232142Y-70943000D01*
X207232142Y-70943000D02*
X207184523Y-70895380D01*
X207184523Y-70895380D02*
X207136904Y-70800142D01*
X207136904Y-70800142D02*
X207136904Y-70704904D01*
X207136904Y-70704904D02*
X207184523Y-70609666D01*
X207184523Y-70609666D02*
X207232142Y-70562047D01*
X207232142Y-70562047D02*
X207327380Y-70514428D01*
X207327380Y-70514428D02*
X207517856Y-70466809D01*
X207517856Y-70466809D02*
X207613094Y-70419190D01*
X207613094Y-70419190D02*
X207660713Y-70371571D01*
X207660713Y-70371571D02*
X207708332Y-70276333D01*
X207708332Y-70276333D02*
X207708332Y-70181095D01*
X207708332Y-70181095D02*
X207660713Y-70085857D01*
X207660713Y-70085857D02*
X207613094Y-70038238D01*
X207613094Y-70038238D02*
X207517856Y-69990619D01*
X207517856Y-69990619D02*
X207279761Y-69990619D01*
X207279761Y-69990619D02*
X207136904Y-70038238D01*
X206803570Y-69990619D02*
X206565475Y-70990619D01*
X206565475Y-70990619D02*
X206374999Y-70276333D01*
X206374999Y-70276333D02*
X206184523Y-70990619D01*
X206184523Y-70990619D02*
X205946428Y-69990619D01*
X205613094Y-70085857D02*
X205565475Y-70038238D01*
X205565475Y-70038238D02*
X205470237Y-69990619D01*
X205470237Y-69990619D02*
X205232142Y-69990619D01*
X205232142Y-69990619D02*
X205136904Y-70038238D01*
X205136904Y-70038238D02*
X205089285Y-70085857D01*
X205089285Y-70085857D02*
X205041666Y-70181095D01*
X205041666Y-70181095D02*
X205041666Y-70276333D01*
X205041666Y-70276333D02*
X205089285Y-70419190D01*
X205089285Y-70419190D02*
X205660713Y-70990619D01*
X205660713Y-70990619D02*
X205041666Y-70990619D01*
D11*
X202850714Y-63117742D02*
X202850714Y-63917742D01*
X203364999Y-63117742D02*
X203364999Y-63746314D01*
X203364999Y-63746314D02*
X203307856Y-63860600D01*
X203307856Y-63860600D02*
X203193571Y-63917742D01*
X203193571Y-63917742D02*
X203022142Y-63917742D01*
X203022142Y-63917742D02*
X202907856Y-63860600D01*
X202907856Y-63860600D02*
X202850714Y-63803457D01*
X202279285Y-63117742D02*
X202279285Y-64317742D01*
X202279285Y-63174885D02*
X202165000Y-63117742D01*
X202165000Y-63117742D02*
X201936428Y-63117742D01*
X201936428Y-63117742D02*
X201822142Y-63174885D01*
X201822142Y-63174885D02*
X201765000Y-63232028D01*
X201765000Y-63232028D02*
X201707857Y-63346314D01*
X201707857Y-63346314D02*
X201707857Y-63689171D01*
X201707857Y-63689171D02*
X201765000Y-63803457D01*
X201765000Y-63803457D02*
X201822142Y-63860600D01*
X201822142Y-63860600D02*
X201936428Y-63917742D01*
X201936428Y-63917742D02*
X202165000Y-63917742D01*
X202165000Y-63917742D02*
X202279285Y-63860600D01*
D12*
X153912866Y-66952019D02*
X154246199Y-66475828D01*
X154484294Y-66952019D02*
X154484294Y-65952019D01*
X154484294Y-65952019D02*
X154103342Y-65952019D01*
X154103342Y-65952019D02*
X154008104Y-65999638D01*
X154008104Y-65999638D02*
X153960485Y-66047257D01*
X153960485Y-66047257D02*
X153912866Y-66142495D01*
X153912866Y-66142495D02*
X153912866Y-66285352D01*
X153912866Y-66285352D02*
X153960485Y-66380590D01*
X153960485Y-66380590D02*
X154008104Y-66428209D01*
X154008104Y-66428209D02*
X154103342Y-66475828D01*
X154103342Y-66475828D02*
X154484294Y-66475828D01*
X152960485Y-66952019D02*
X153531913Y-66952019D01*
X153246199Y-66952019D02*
X153246199Y-65952019D01*
X153246199Y-65952019D02*
X153341437Y-66094876D01*
X153341437Y-66094876D02*
X153436675Y-66190114D01*
X153436675Y-66190114D02*
X153531913Y-66237733D01*
X153207885Y-69736619D02*
X152588838Y-69736619D01*
X152588838Y-69736619D02*
X152922171Y-70117571D01*
X152922171Y-70117571D02*
X152779314Y-70117571D01*
X152779314Y-70117571D02*
X152684076Y-70165190D01*
X152684076Y-70165190D02*
X152636457Y-70212809D01*
X152636457Y-70212809D02*
X152588838Y-70308047D01*
X152588838Y-70308047D02*
X152588838Y-70546142D01*
X152588838Y-70546142D02*
X152636457Y-70641380D01*
X152636457Y-70641380D02*
X152684076Y-70689000D01*
X152684076Y-70689000D02*
X152779314Y-70736619D01*
X152779314Y-70736619D02*
X153065028Y-70736619D01*
X153065028Y-70736619D02*
X153160266Y-70689000D01*
X153160266Y-70689000D02*
X153207885Y-70641380D01*
X152160266Y-70736619D02*
X152160266Y-69736619D01*
X152065028Y-70355666D02*
X151779314Y-70736619D01*
X151779314Y-70069952D02*
X152160266Y-70450904D01*
X151445980Y-69736619D02*
X150826933Y-69736619D01*
X150826933Y-69736619D02*
X151160266Y-70117571D01*
X151160266Y-70117571D02*
X151017409Y-70117571D01*
X151017409Y-70117571D02*
X150922171Y-70165190D01*
X150922171Y-70165190D02*
X150874552Y-70212809D01*
X150874552Y-70212809D02*
X150826933Y-70308047D01*
X150826933Y-70308047D02*
X150826933Y-70546142D01*
X150826933Y-70546142D02*
X150874552Y-70641380D01*
X150874552Y-70641380D02*
X150922171Y-70689000D01*
X150922171Y-70689000D02*
X151017409Y-70736619D01*
X151017409Y-70736619D02*
X151303123Y-70736619D01*
X151303123Y-70736619D02*
X151398361Y-70689000D01*
X151398361Y-70689000D02*
X151445980Y-70641380D01*
X195592532Y-70892200D02*
X195449675Y-70939819D01*
X195449675Y-70939819D02*
X195211580Y-70939819D01*
X195211580Y-70939819D02*
X195116342Y-70892200D01*
X195116342Y-70892200D02*
X195068723Y-70844580D01*
X195068723Y-70844580D02*
X195021104Y-70749342D01*
X195021104Y-70749342D02*
X195021104Y-70654104D01*
X195021104Y-70654104D02*
X195068723Y-70558866D01*
X195068723Y-70558866D02*
X195116342Y-70511247D01*
X195116342Y-70511247D02*
X195211580Y-70463628D01*
X195211580Y-70463628D02*
X195402056Y-70416009D01*
X195402056Y-70416009D02*
X195497294Y-70368390D01*
X195497294Y-70368390D02*
X195544913Y-70320771D01*
X195544913Y-70320771D02*
X195592532Y-70225533D01*
X195592532Y-70225533D02*
X195592532Y-70130295D01*
X195592532Y-70130295D02*
X195544913Y-70035057D01*
X195544913Y-70035057D02*
X195497294Y-69987438D01*
X195497294Y-69987438D02*
X195402056Y-69939819D01*
X195402056Y-69939819D02*
X195163961Y-69939819D01*
X195163961Y-69939819D02*
X195021104Y-69987438D01*
X194687770Y-69939819D02*
X194449675Y-70939819D01*
X194449675Y-70939819D02*
X194259199Y-70225533D01*
X194259199Y-70225533D02*
X194068723Y-70939819D01*
X194068723Y-70939819D02*
X193830628Y-69939819D01*
X192925866Y-70939819D02*
X193497294Y-70939819D01*
X193211580Y-70939819D02*
X193211580Y-69939819D01*
X193211580Y-69939819D02*
X193306818Y-70082676D01*
X193306818Y-70082676D02*
X193402056Y-70177914D01*
X193402056Y-70177914D02*
X193497294Y-70225533D01*
D11*
X191547599Y-64165400D02*
X191376171Y-64222542D01*
X191376171Y-64222542D02*
X191090456Y-64222542D01*
X191090456Y-64222542D02*
X190976171Y-64165400D01*
X190976171Y-64165400D02*
X190919028Y-64108257D01*
X190919028Y-64108257D02*
X190861885Y-63993971D01*
X190861885Y-63993971D02*
X190861885Y-63879685D01*
X190861885Y-63879685D02*
X190919028Y-63765400D01*
X190919028Y-63765400D02*
X190976171Y-63708257D01*
X190976171Y-63708257D02*
X191090456Y-63651114D01*
X191090456Y-63651114D02*
X191319028Y-63593971D01*
X191319028Y-63593971D02*
X191433313Y-63536828D01*
X191433313Y-63536828D02*
X191490456Y-63479685D01*
X191490456Y-63479685D02*
X191547599Y-63365400D01*
X191547599Y-63365400D02*
X191547599Y-63251114D01*
X191547599Y-63251114D02*
X191490456Y-63136828D01*
X191490456Y-63136828D02*
X191433313Y-63079685D01*
X191433313Y-63079685D02*
X191319028Y-63022542D01*
X191319028Y-63022542D02*
X191033313Y-63022542D01*
X191033313Y-63022542D02*
X190861885Y-63079685D01*
X189890456Y-64165400D02*
X190004742Y-64222542D01*
X190004742Y-64222542D02*
X190233314Y-64222542D01*
X190233314Y-64222542D02*
X190347599Y-64165400D01*
X190347599Y-64165400D02*
X190404742Y-64051114D01*
X190404742Y-64051114D02*
X190404742Y-63593971D01*
X190404742Y-63593971D02*
X190347599Y-63479685D01*
X190347599Y-63479685D02*
X190233314Y-63422542D01*
X190233314Y-63422542D02*
X190004742Y-63422542D01*
X190004742Y-63422542D02*
X189890456Y-63479685D01*
X189890456Y-63479685D02*
X189833314Y-63593971D01*
X189833314Y-63593971D02*
X189833314Y-63708257D01*
X189833314Y-63708257D02*
X190404742Y-63822542D01*
X189490457Y-63422542D02*
X189033314Y-63422542D01*
X189319028Y-63022542D02*
X189319028Y-64051114D01*
X189319028Y-64051114D02*
X189261885Y-64165400D01*
X189261885Y-64165400D02*
X189147600Y-64222542D01*
X189147600Y-64222542D02*
X189033314Y-64222542D01*
D12*
X231533532Y-70993800D02*
X231390675Y-71041419D01*
X231390675Y-71041419D02*
X231152580Y-71041419D01*
X231152580Y-71041419D02*
X231057342Y-70993800D01*
X231057342Y-70993800D02*
X231009723Y-70946180D01*
X231009723Y-70946180D02*
X230962104Y-70850942D01*
X230962104Y-70850942D02*
X230962104Y-70755704D01*
X230962104Y-70755704D02*
X231009723Y-70660466D01*
X231009723Y-70660466D02*
X231057342Y-70612847D01*
X231057342Y-70612847D02*
X231152580Y-70565228D01*
X231152580Y-70565228D02*
X231343056Y-70517609D01*
X231343056Y-70517609D02*
X231438294Y-70469990D01*
X231438294Y-70469990D02*
X231485913Y-70422371D01*
X231485913Y-70422371D02*
X231533532Y-70327133D01*
X231533532Y-70327133D02*
X231533532Y-70231895D01*
X231533532Y-70231895D02*
X231485913Y-70136657D01*
X231485913Y-70136657D02*
X231438294Y-70089038D01*
X231438294Y-70089038D02*
X231343056Y-70041419D01*
X231343056Y-70041419D02*
X231104961Y-70041419D01*
X231104961Y-70041419D02*
X230962104Y-70089038D01*
X230628770Y-70041419D02*
X230390675Y-71041419D01*
X230390675Y-71041419D02*
X230200199Y-70327133D01*
X230200199Y-70327133D02*
X230009723Y-71041419D01*
X230009723Y-71041419D02*
X229771628Y-70041419D01*
X228962104Y-70374752D02*
X228962104Y-71041419D01*
X229200199Y-69993800D02*
X229438294Y-70708085D01*
X229438294Y-70708085D02*
X228819247Y-70708085D01*
D11*
X227783828Y-63892342D02*
X227898113Y-63835200D01*
X227898113Y-63835200D02*
X227955256Y-63720914D01*
X227955256Y-63720914D02*
X227955256Y-62692342D01*
X227326685Y-63892342D02*
X227326685Y-63092342D01*
X227326685Y-62692342D02*
X227383828Y-62749485D01*
X227383828Y-62749485D02*
X227326685Y-62806628D01*
X227326685Y-62806628D02*
X227269542Y-62749485D01*
X227269542Y-62749485D02*
X227326685Y-62692342D01*
X227326685Y-62692342D02*
X227326685Y-62806628D01*
X226240971Y-63092342D02*
X226240971Y-64063771D01*
X226240971Y-64063771D02*
X226298113Y-64178057D01*
X226298113Y-64178057D02*
X226355256Y-64235200D01*
X226355256Y-64235200D02*
X226469542Y-64292342D01*
X226469542Y-64292342D02*
X226640971Y-64292342D01*
X226640971Y-64292342D02*
X226755256Y-64235200D01*
X226240971Y-63835200D02*
X226355256Y-63892342D01*
X226355256Y-63892342D02*
X226583828Y-63892342D01*
X226583828Y-63892342D02*
X226698113Y-63835200D01*
X226698113Y-63835200D02*
X226755256Y-63778057D01*
X226755256Y-63778057D02*
X226812399Y-63663771D01*
X226812399Y-63663771D02*
X226812399Y-63320914D01*
X226812399Y-63320914D02*
X226755256Y-63206628D01*
X226755256Y-63206628D02*
X226698113Y-63149485D01*
X226698113Y-63149485D02*
X226583828Y-63092342D01*
X226583828Y-63092342D02*
X226355256Y-63092342D01*
X226355256Y-63092342D02*
X226240971Y-63149485D01*
X225669542Y-63892342D02*
X225669542Y-62692342D01*
X225155257Y-63892342D02*
X225155257Y-63263771D01*
X225155257Y-63263771D02*
X225212399Y-63149485D01*
X225212399Y-63149485D02*
X225326685Y-63092342D01*
X225326685Y-63092342D02*
X225498114Y-63092342D01*
X225498114Y-63092342D02*
X225612399Y-63149485D01*
X225612399Y-63149485D02*
X225669542Y-63206628D01*
X224755257Y-63092342D02*
X224298114Y-63092342D01*
X224583828Y-62692342D02*
X224583828Y-63720914D01*
X224583828Y-63720914D02*
X224526685Y-63835200D01*
X224526685Y-63835200D02*
X224412400Y-63892342D01*
X224412400Y-63892342D02*
X224298114Y-63892342D01*
D12*
X176745732Y-94971400D02*
X176602875Y-95019019D01*
X176602875Y-95019019D02*
X176364780Y-95019019D01*
X176364780Y-95019019D02*
X176269542Y-94971400D01*
X176269542Y-94971400D02*
X176221923Y-94923780D01*
X176221923Y-94923780D02*
X176174304Y-94828542D01*
X176174304Y-94828542D02*
X176174304Y-94733304D01*
X176174304Y-94733304D02*
X176221923Y-94638066D01*
X176221923Y-94638066D02*
X176269542Y-94590447D01*
X176269542Y-94590447D02*
X176364780Y-94542828D01*
X176364780Y-94542828D02*
X176555256Y-94495209D01*
X176555256Y-94495209D02*
X176650494Y-94447590D01*
X176650494Y-94447590D02*
X176698113Y-94399971D01*
X176698113Y-94399971D02*
X176745732Y-94304733D01*
X176745732Y-94304733D02*
X176745732Y-94209495D01*
X176745732Y-94209495D02*
X176698113Y-94114257D01*
X176698113Y-94114257D02*
X176650494Y-94066638D01*
X176650494Y-94066638D02*
X176555256Y-94019019D01*
X176555256Y-94019019D02*
X176317161Y-94019019D01*
X176317161Y-94019019D02*
X176174304Y-94066638D01*
X175840970Y-94019019D02*
X175602875Y-95019019D01*
X175602875Y-95019019D02*
X175412399Y-94304733D01*
X175412399Y-94304733D02*
X175221923Y-95019019D01*
X175221923Y-95019019D02*
X174983828Y-94019019D01*
X174126685Y-94019019D02*
X174602875Y-94019019D01*
X174602875Y-94019019D02*
X174650494Y-94495209D01*
X174650494Y-94495209D02*
X174602875Y-94447590D01*
X174602875Y-94447590D02*
X174507637Y-94399971D01*
X174507637Y-94399971D02*
X174269542Y-94399971D01*
X174269542Y-94399971D02*
X174174304Y-94447590D01*
X174174304Y-94447590D02*
X174126685Y-94495209D01*
X174126685Y-94495209D02*
X174079066Y-94590447D01*
X174079066Y-94590447D02*
X174079066Y-94828542D01*
X174079066Y-94828542D02*
X174126685Y-94923780D01*
X174126685Y-94923780D02*
X174174304Y-94971400D01*
X174174304Y-94971400D02*
X174269542Y-95019019D01*
X174269542Y-95019019D02*
X174507637Y-95019019D01*
X174507637Y-95019019D02*
X174602875Y-94971400D01*
X174602875Y-94971400D02*
X174650494Y-94923780D01*
D11*
X176666313Y-101458942D02*
X176666313Y-100258942D01*
X176666313Y-100716085D02*
X176552028Y-100658942D01*
X176552028Y-100658942D02*
X176323456Y-100658942D01*
X176323456Y-100658942D02*
X176209170Y-100716085D01*
X176209170Y-100716085D02*
X176152028Y-100773228D01*
X176152028Y-100773228D02*
X176094885Y-100887514D01*
X176094885Y-100887514D02*
X176094885Y-101230371D01*
X176094885Y-101230371D02*
X176152028Y-101344657D01*
X176152028Y-101344657D02*
X176209170Y-101401800D01*
X176209170Y-101401800D02*
X176323456Y-101458942D01*
X176323456Y-101458942D02*
X176552028Y-101458942D01*
X176552028Y-101458942D02*
X176666313Y-101401800D01*
X175409171Y-101458942D02*
X175523456Y-101401800D01*
X175523456Y-101401800D02*
X175580599Y-101344657D01*
X175580599Y-101344657D02*
X175637742Y-101230371D01*
X175637742Y-101230371D02*
X175637742Y-100887514D01*
X175637742Y-100887514D02*
X175580599Y-100773228D01*
X175580599Y-100773228D02*
X175523456Y-100716085D01*
X175523456Y-100716085D02*
X175409171Y-100658942D01*
X175409171Y-100658942D02*
X175237742Y-100658942D01*
X175237742Y-100658942D02*
X175123456Y-100716085D01*
X175123456Y-100716085D02*
X175066314Y-100773228D01*
X175066314Y-100773228D02*
X175009171Y-100887514D01*
X175009171Y-100887514D02*
X175009171Y-101230371D01*
X175009171Y-101230371D02*
X175066314Y-101344657D01*
X175066314Y-101344657D02*
X175123456Y-101401800D01*
X175123456Y-101401800D02*
X175237742Y-101458942D01*
X175237742Y-101458942D02*
X175409171Y-101458942D01*
X174323457Y-101458942D02*
X174437742Y-101401800D01*
X174437742Y-101401800D02*
X174494885Y-101344657D01*
X174494885Y-101344657D02*
X174552028Y-101230371D01*
X174552028Y-101230371D02*
X174552028Y-100887514D01*
X174552028Y-100887514D02*
X174494885Y-100773228D01*
X174494885Y-100773228D02*
X174437742Y-100716085D01*
X174437742Y-100716085D02*
X174323457Y-100658942D01*
X174323457Y-100658942D02*
X174152028Y-100658942D01*
X174152028Y-100658942D02*
X174037742Y-100716085D01*
X174037742Y-100716085D02*
X173980600Y-100773228D01*
X173980600Y-100773228D02*
X173923457Y-100887514D01*
X173923457Y-100887514D02*
X173923457Y-101230371D01*
X173923457Y-101230371D02*
X173980600Y-101344657D01*
X173980600Y-101344657D02*
X174037742Y-101401800D01*
X174037742Y-101401800D02*
X174152028Y-101458942D01*
X174152028Y-101458942D02*
X174323457Y-101458942D01*
X173580600Y-100658942D02*
X173123457Y-100658942D01*
X173409171Y-100258942D02*
X173409171Y-101287514D01*
X173409171Y-101287514D02*
X173352028Y-101401800D01*
X173352028Y-101401800D02*
X173237743Y-101458942D01*
X173237743Y-101458942D02*
X173123457Y-101458942D01*
%TO.C,U3*%
D13*
X115457600Y-63200800D02*
X115237600Y-63200800D01*
X121037600Y-66860800D02*
X117957600Y-66860800D01*
X121117600Y-63200800D02*
X120657600Y-63200800D01*
X121117600Y-63200800D02*
X121117600Y-64400800D01*
X115457600Y-63200800D02*
G75*
G02*
X120657600Y-63200800I2600000J-1100000D01*
G01*
%TO.C,SW3*%
X210712600Y-65123800D02*
X210712600Y-66433800D01*
X210712600Y-68033800D02*
X210712600Y-69343800D01*
X214725933Y-66598800D02*
X214725933Y-67868800D01*
X217532600Y-65123800D02*
X210712600Y-65123800D01*
X217532600Y-65123800D02*
X217532600Y-66433800D01*
X217532600Y-68033800D02*
X217532600Y-69343800D01*
X217532600Y-69343800D02*
X210712600Y-69343800D01*
X217772600Y-64883800D02*
X216389600Y-64883800D01*
X217772600Y-64883800D02*
X217772600Y-66266800D01*
X212312600Y-66598800D02*
X215932600Y-66598800D01*
X215932600Y-67868800D01*
X212312600Y-67868800D01*
X212312600Y-66598800D01*
X214725933Y-66598800D02*
X215932600Y-66598800D01*
X215932600Y-67868800D01*
X214725933Y-67868800D01*
X214725933Y-66598800D01*
G36*
X214725933Y-66598800D02*
G01*
X215932600Y-66598800D01*
X215932600Y-67868800D01*
X214725933Y-67868800D01*
X214725933Y-66598800D01*
G37*
%TO.C,R3*%
X148413800Y-67851264D02*
X148413800Y-67397136D01*
X149883800Y-67851264D02*
X149883800Y-67397136D01*
%TO.C,R6*%
X124562400Y-68208000D02*
X127212400Y-68208000D01*
X124562400Y-72508000D02*
X127212400Y-72508000D01*
X124536924Y-72492388D02*
G75*
G02*
X124562400Y-68208000I1325476J2134388D01*
G01*
X127240427Y-68225855D02*
G75*
G02*
X127212400Y-72508000I-1378027J-2132145D01*
G01*
%TO.C,J2*%
X234915600Y-82092000D02*
X234915600Y-82512000D01*
X234915600Y-89612000D02*
X234915600Y-89192000D01*
X236895600Y-82092000D02*
X234915600Y-82092000D01*
X236895600Y-89612000D02*
X234915600Y-89612000D01*
X238865600Y-89612000D02*
X239265600Y-89612000D01*
X239265600Y-82092000D02*
X238865600Y-82092000D01*
%TO.C,U22*%
X190148800Y-83276000D02*
X190148800Y-83326000D01*
X190148800Y-86346000D02*
X190148800Y-86396000D01*
X190148800Y-86396000D02*
X191968800Y-86396000D01*
X191968800Y-83276000D02*
X190148800Y-83276000D01*
X191968800Y-83326000D02*
X191968800Y-83276000D01*
X191968800Y-86396000D02*
X191968800Y-86346000D01*
X192508800Y-83326000D02*
X192748800Y-82996000D01*
X192268800Y-82996000D01*
X192508800Y-83326000D01*
G36*
X192508800Y-83326000D02*
G01*
X192268800Y-82996000D01*
X192748800Y-82996000D01*
X192508800Y-83326000D01*
G37*
%TO.C,BT1*%
X141647055Y-90686000D02*
X141647055Y-91686000D01*
X142147055Y-91186000D02*
X141147055Y-91186000D01*
X142647054Y-94286000D02*
G75*
G02*
X142647054Y-88086000I-11499999J3100000D01*
G01*
%TO.C,J1*%
X228612902Y-83235800D02*
X228612902Y-90965800D01*
X231372902Y-80585800D02*
X229992902Y-80585800D01*
X231372902Y-81965800D02*
X231372902Y-80585800D01*
X231372902Y-83235800D02*
X228612902Y-83235800D01*
X231372902Y-83235800D02*
X231372902Y-90965800D01*
X231372902Y-90965800D02*
X228612902Y-90965800D01*
%TO.C,SW2*%
X198597800Y-69583800D02*
X198597800Y-68200800D01*
X198597800Y-69583800D02*
X199980800Y-69583800D01*
X198837800Y-65123800D02*
X205657800Y-65123800D01*
X198837800Y-66433800D02*
X198837800Y-65123800D01*
X198837800Y-69343800D02*
X198837800Y-68033800D01*
X198837800Y-69343800D02*
X205657800Y-69343800D01*
X201644467Y-67868800D02*
X201644467Y-66598800D01*
X205657800Y-66433800D02*
X205657800Y-65123800D01*
X205657800Y-69343800D02*
X205657800Y-68033800D01*
X200437800Y-66598800D02*
X201644467Y-66598800D01*
X201644467Y-67868800D01*
X200437800Y-67868800D01*
X200437800Y-66598800D01*
G36*
X200437800Y-66598800D02*
G01*
X201644467Y-66598800D01*
X201644467Y-67868800D01*
X200437800Y-67868800D01*
X200437800Y-66598800D01*
G37*
X200437800Y-66598800D02*
X204057800Y-66598800D01*
X204057800Y-67868800D01*
X200437800Y-67868800D01*
X200437800Y-66598800D01*
%TO.C,R1*%
X150941206Y-67839648D02*
X150941206Y-67385520D01*
X152411206Y-67839648D02*
X152411206Y-67385520D01*
%TO.C,SW1*%
X186747400Y-65225400D02*
X186747400Y-66535400D01*
X186747400Y-68135400D02*
X186747400Y-69445400D01*
X190760733Y-66700400D02*
X190760733Y-67970400D01*
X193567400Y-65225400D02*
X186747400Y-65225400D01*
X193567400Y-65225400D02*
X193567400Y-66535400D01*
X193567400Y-68135400D02*
X193567400Y-69445400D01*
X193567400Y-69445400D02*
X186747400Y-69445400D01*
X193807400Y-64985400D02*
X192424400Y-64985400D01*
X193807400Y-64985400D02*
X193807400Y-66368400D01*
X188347400Y-66700400D02*
X191967400Y-66700400D01*
X191967400Y-67970400D01*
X188347400Y-67970400D01*
X188347400Y-66700400D01*
X190760733Y-66700400D02*
X191967400Y-66700400D01*
X191967400Y-67970400D01*
X190760733Y-67970400D01*
X190760733Y-66700400D01*
G36*
X190760733Y-66700400D02*
G01*
X191967400Y-66700400D01*
X191967400Y-67970400D01*
X190760733Y-67970400D01*
X190760733Y-66700400D01*
G37*
%TO.C,SW4*%
X222448400Y-69583800D02*
X222448400Y-68200800D01*
X222448400Y-69583800D02*
X223831400Y-69583800D01*
X222688400Y-65123800D02*
X229508400Y-65123800D01*
X222688400Y-66433800D02*
X222688400Y-65123800D01*
X222688400Y-69343800D02*
X222688400Y-68033800D01*
X222688400Y-69343800D02*
X229508400Y-69343800D01*
X225495067Y-67868800D02*
X225495067Y-66598800D01*
X229508400Y-66433800D02*
X229508400Y-65123800D01*
X229508400Y-69343800D02*
X229508400Y-68033800D01*
X224288400Y-66598800D02*
X225495067Y-66598800D01*
X225495067Y-67868800D01*
X224288400Y-67868800D01*
X224288400Y-66598800D01*
G36*
X224288400Y-66598800D02*
G01*
X225495067Y-66598800D01*
X225495067Y-67868800D01*
X224288400Y-67868800D01*
X224288400Y-66598800D01*
G37*
X224288400Y-66598800D02*
X227908400Y-66598800D01*
X227908400Y-67868800D01*
X224288400Y-67868800D01*
X224288400Y-66598800D01*
%TO.C,SW5*%
X171330600Y-100140000D02*
X171330600Y-98757000D01*
X171330600Y-100140000D02*
X172713600Y-100140000D01*
X171570600Y-95680000D02*
X178390600Y-95680000D01*
X171570600Y-96990000D02*
X171570600Y-95680000D01*
X171570600Y-99900000D02*
X171570600Y-98590000D01*
X171570600Y-99900000D02*
X178390600Y-99900000D01*
X174377267Y-98425000D02*
X174377267Y-97155000D01*
X178390600Y-96990000D02*
X178390600Y-95680000D01*
X178390600Y-99900000D02*
X178390600Y-98590000D01*
X173170600Y-97155000D02*
X174377267Y-97155000D01*
X174377267Y-98425000D01*
X173170600Y-98425000D01*
X173170600Y-97155000D01*
G36*
X173170600Y-97155000D02*
G01*
X174377267Y-97155000D01*
X174377267Y-98425000D01*
X173170600Y-98425000D01*
X173170600Y-97155000D01*
G37*
X173170600Y-97155000D02*
X176790600Y-97155000D01*
X176790600Y-98425000D01*
X173170600Y-98425000D01*
X173170600Y-97155000D01*
%TD*%
M02*
