%TF.GenerationSoftware,KiCad,Pcbnew,10.0.0*%
%TF.CreationDate,2026-06-28T23:56:20+02:00*%
%TF.ProjectId,nixieclocklogic_V2-1,6e697869-6563-46c6-9f63-6b6c6f676963,rev?*%
%TF.SameCoordinates,Original*%
%TF.FileFunction,Copper,L2,Bot*%
%TF.FilePolarity,Positive*%
%FSLAX46Y46*%
G04 Gerber Fmt 4.6, Leading zero omitted, Abs format (unit mm)*
G04 Created by KiCad (PCBNEW 10.0.0) date 2026-06-28 23:56:20*
%MOMM*%
%LPD*%
G01*
G04 APERTURE LIST*
G04 Aperture macros list*
%AMRoundRect*
0 Rectangle with rounded corners*
0 $1 Rounding radius*
0 $2 $3 $4 $5 $6 $7 $8 $9 X,Y pos of 4 corners*
0 Add a 4 corners polygon primitive as box body*
4,1,4,$2,$3,$4,$5,$6,$7,$8,$9,$2,$3,0*
0 Add four circle primitives for the rounded corners*
1,1,$1+$1,$2,$3*
1,1,$1+$1,$4,$5*
1,1,$1+$1,$6,$7*
1,1,$1+$1,$8,$9*
0 Add four rect primitives between the rounded corners*
20,1,$1+$1,$2,$3,$4,$5,0*
20,1,$1+$1,$4,$5,$6,$7,0*
20,1,$1+$1,$6,$7,$8,$9,0*
20,1,$1+$1,$8,$9,$2,$3,0*%
G04 Aperture macros list end*
%TA.AperFunction,ComponentPad*%
%ADD10R,1.700000X1.700000*%
%TD*%
%TA.AperFunction,ComponentPad*%
%ADD11C,1.700000*%
%TD*%
%TA.AperFunction,ComponentPad*%
%ADD12RoundRect,0.250000X-0.550000X-0.550000X0.550000X-0.550000X0.550000X0.550000X-0.550000X0.550000X0*%
%TD*%
%TA.AperFunction,ComponentPad*%
%ADD13C,1.600000*%
%TD*%
%TA.AperFunction,HeatsinkPad*%
%ADD14C,0.600000*%
%TD*%
%TA.AperFunction,ComponentPad*%
%ADD15O,3.200000X3.200000*%
%TD*%
%TA.AperFunction,ComponentPad*%
%ADD16RoundRect,0.250000X0.900000X-0.750000X0.900000X0.750000X-0.900000X0.750000X-0.900000X-0.750000X0*%
%TD*%
%TA.AperFunction,ComponentPad*%
%ADD17O,2.300000X2.000000*%
%TD*%
%TA.AperFunction,ComponentPad*%
%ADD18C,1.000000*%
%TD*%
%TA.AperFunction,ComponentPad*%
%ADD19RoundRect,0.250000X-0.550000X0.550000X-0.550000X-0.550000X0.550000X-0.550000X0.550000X0.550000X0*%
%TD*%
%TA.AperFunction,ComponentPad*%
%ADD20RoundRect,0.250000X0.550000X0.550000X-0.550000X0.550000X-0.550000X-0.550000X0.550000X-0.550000X0*%
%TD*%
%TA.AperFunction,ComponentPad*%
%ADD21RoundRect,0.248400X-0.651600X-0.651600X0.651600X-0.651600X0.651600X0.651600X-0.651600X0.651600X0*%
%TD*%
%TA.AperFunction,ComponentPad*%
%ADD22C,1.800000*%
%TD*%
%TA.AperFunction,SMDPad,CuDef*%
%ADD23RoundRect,0.250000X0.970000X0.310000X-0.970000X0.310000X-0.970000X-0.310000X0.970000X-0.310000X0*%
%TD*%
%TA.AperFunction,SMDPad,CuDef*%
%ADD24RoundRect,0.250000X0.450000X-0.350000X0.450000X0.350000X-0.450000X0.350000X-0.450000X-0.350000X0*%
%TD*%
%TA.AperFunction,SMDPad,CuDef*%
%ADD25RoundRect,0.100000X-0.737500X0.100000X-0.737500X-0.100000X0.737500X-0.100000X0.737500X0.100000X0*%
%TD*%
%TA.AperFunction,ComponentPad*%
%ADD26O,1.550000X0.890000*%
%TD*%
%TA.AperFunction,SMDPad,CuDef*%
%ADD27RoundRect,0.250000X-0.525000X0.475000X-0.525000X-0.475000X0.525000X-0.475000X0.525000X0.475000X0*%
%TD*%
%TA.AperFunction,ComponentPad*%
%ADD28O,0.950000X1.250000*%
%TD*%
%TA.AperFunction,SMDPad,CuDef*%
%ADD29RoundRect,0.250000X-0.525000X0.500000X-0.525000X-0.500000X0.525000X-0.500000X0.525000X0.500000X0*%
%TD*%
%TA.AperFunction,SMDPad,CuDef*%
%ADD30RoundRect,0.150000X0.512500X0.150000X-0.512500X0.150000X-0.512500X-0.150000X0.512500X-0.150000X0*%
%TD*%
%TA.AperFunction,ComponentPad*%
%ADD31R,3.000000X3.000000*%
%TD*%
%TA.AperFunction,ComponentPad*%
%ADD32C,3.000000*%
%TD*%
%TA.AperFunction,SMDPad,CuDef*%
%ADD33RoundRect,0.250000X-0.970000X-0.310000X0.970000X-0.310000X0.970000X0.310000X-0.970000X0.310000X0*%
%TD*%
%TA.AperFunction,ViaPad*%
%ADD34C,0.800000*%
%TD*%
%TA.AperFunction,ViaPad*%
%ADD35C,0.600000*%
%TD*%
%TA.AperFunction,Conductor*%
%ADD36C,0.600000*%
%TD*%
%TA.AperFunction,Conductor*%
%ADD37C,0.300000*%
%TD*%
G04 APERTURE END LIST*
D10*
%TO.P,J3,1,Pin_1_1*%
%TO.N,VCC*%
X156730395Y-63756586D03*
D11*
%TO.P,J3,2,Pin_2_2*%
X154190395Y-63756586D03*
%TO.P,J3,3,Pin_3_3*%
%TO.N,/SCL*%
X151650395Y-63756586D03*
%TO.P,J3,4,Pin_4_4*%
%TO.N,/SDA*%
X149110395Y-63756586D03*
%TO.P,J3,5,Pin_5_5*%
%TO.N,unconnected-(J3-Pin_5-Pad5)*%
X146570395Y-63756586D03*
%TO.P,J3,6,Pin_6_6*%
%TO.N,Net-(J3-Pin_6)*%
X144030395Y-63756586D03*
%TO.P,J3,7,Pin_7_7*%
%TO.N,GND*%
X141490395Y-63756586D03*
%TO.P,J3,8,Pin_8_8*%
X138950395Y-63756586D03*
%TD*%
D12*
%TO.P,U2,1,VCC2_1*%
%TO.N,+3.3V*%
X142626000Y-71983600D03*
D13*
%TO.P,U2,2,X1_2*%
%TO.N,Net-(U2-X1)*%
X142626000Y-74523600D03*
%TO.P,U2,3,X2_3*%
%TO.N,Net-(U2-X2)*%
X142626000Y-77063600D03*
%TO.P,U2,4,GND_4*%
%TO.N,GND*%
X142626000Y-79603600D03*
%TO.P,U2,5,CE_5*%
%TO.N,Net-(U1-IO2)*%
X150246000Y-79603600D03*
%TO.P,U2,6,I/O_6*%
%TO.N,Net-(U1-IO4)*%
X150246000Y-77063600D03*
%TO.P,U2,7,SCLK_7*%
%TO.N,Net-(U1-IO5)*%
X150246000Y-74523600D03*
%TO.P,U2,8,VCC1_8*%
%TO.N,Net-(BT1-+)*%
X150246000Y-71983600D03*
%TD*%
%TO.P,C6,1*%
%TO.N,Net-(C6-Pad1)*%
X135148000Y-69418200D03*
%TO.P,C6,2*%
%TO.N,GND*%
X137648000Y-69418200D03*
%TD*%
D14*
%TO.P,U1,41,GND_41*%
%TO.N,GND*%
X169539000Y-76386000D03*
X169539000Y-77786000D03*
X170239000Y-75686000D03*
X170239000Y-77086000D03*
X170239000Y-78486000D03*
X170939000Y-76386000D03*
X170939000Y-77786000D03*
X171639000Y-75686000D03*
X171639000Y-77086000D03*
X171639000Y-78486000D03*
X172339000Y-76386000D03*
X172339000Y-77786000D03*
%TD*%
D15*
%TO.P,U4,*%
%TO.N,*%
X105067000Y-95772200D03*
D16*
%TO.P,U4,1,VIN_1*%
%TO.N,/10V*%
X83693000Y-69907200D03*
D17*
%TO.P,U4,2,GND_2*%
%TO.N,GND*%
X83693000Y-72447200D03*
%TO.P,U4,3,SHDN_3*%
X83693000Y-74987200D03*
%TO.P,U4,4,GNDHV_4*%
%TO.N,/HVgnd*%
X83693000Y-93040200D03*
%TO.P,U4,5,VOUT_5*%
%TO.N,/HV*%
X83693000Y-95580200D03*
%TD*%
D18*
%TO.P,Y1,1,1_1*%
%TO.N,Net-(U2-X1)*%
X136345800Y-74726800D03*
%TO.P,Y1,2,2_2*%
%TO.N,Net-(U2-X2)*%
X136345800Y-77266800D03*
%TD*%
D10*
%TO.P,J1,1,Pin_1_1*%
%TO.N,VCC*%
X228193600Y-81991200D03*
D11*
%TO.P,J1,2,Pin_2_2*%
%TO.N,Net-(J1-Pin_2)*%
X228193600Y-84531200D03*
%TO.P,J1,3,Pin_3_3*%
%TO.N,Net-(J1-Pin_3)*%
X228193600Y-87071200D03*
%TO.P,J1,4,Pin_4_4*%
%TO.N,GND*%
X228193600Y-89611200D03*
%TD*%
D10*
%TO.P,J4,1,Pin_1_1*%
%TO.N,/HV*%
X88203688Y-104622358D03*
D11*
%TO.P,J4,2,Pin_2_2*%
X85663688Y-104622358D03*
%TO.P,J4,3,Pin_3_3*%
%TO.N,/HVgnd*%
X83123688Y-104622358D03*
%TO.P,J4,4,Pin_4_4*%
X80583688Y-104622358D03*
%TD*%
D19*
%TO.P,C4,1*%
%TO.N,+3.3V*%
X200787000Y-94347021D03*
D13*
%TO.P,C4,2*%
%TO.N,GND*%
X200787000Y-96847021D03*
%TD*%
D12*
%TO.P,C5,1*%
%TO.N,VCC*%
X230719620Y-95478600D03*
D13*
%TO.P,C5,2*%
%TO.N,GND*%
X233219620Y-95478600D03*
%TD*%
D20*
%TO.P,C12,1*%
%TO.N,Net-(U3-Vs)*%
X118428779Y-78308200D03*
D13*
%TO.P,C12,2*%
%TO.N,GND*%
X115928779Y-78308200D03*
%TD*%
D21*
%TO.P,U3,1,OUT_1*%
%TO.N,Net-(U1-IO48)*%
X115417600Y-65500800D03*
D22*
%TO.P,U3,2,GND_2*%
%TO.N,GND*%
X117957600Y-65500800D03*
%TO.P,U3,3,Vs_3*%
%TO.N,Net-(U3-Vs)*%
X120497600Y-65500800D03*
%TD*%
D23*
%TO.P,SW3,1,1_1*%
%TO.N,Net-(U1-IO11)*%
X218427600Y-67233800D03*
%TO.P,SW3,2,2_2*%
%TO.N,GND*%
X209817600Y-67233800D03*
%TD*%
D24*
%TO.P,R3,1*%
%TO.N,+3.3V*%
X149148800Y-68624200D03*
%TO.P,R3,2*%
%TO.N,/SDA*%
X149148800Y-66624200D03*
%TD*%
D13*
%TO.P,R6,1*%
%TO.N,+3.3V*%
X124612400Y-70358000D03*
%TO.P,R6,2*%
%TO.N,Net-(C6-Pad1)*%
X127152400Y-70358000D03*
%TD*%
D25*
%TO.P,J2,1,VBUS_1*%
%TO.N,VCC*%
X235013100Y-84552000D03*
%TO.P,J2,2,D-_2*%
%TO.N,Net-(J1-Pin_2)*%
X235013100Y-85202000D03*
%TO.P,J2,3,D+_3*%
%TO.N,Net-(J1-Pin_3)*%
X235013100Y-85852000D03*
%TO.P,J2,4,ID_4*%
%TO.N,unconnected-(J2-ID-Pad4)*%
X235013100Y-86502000D03*
%TO.P,J2,5,GND_5*%
%TO.N,GND*%
X235013100Y-87152000D03*
D26*
%TO.P,J2,SH,Shield_SH*%
X237875600Y-82352000D03*
D27*
X237875600Y-82827000D03*
D28*
X235175600Y-83352000D03*
D29*
X237875600Y-84852000D03*
X237875600Y-86852000D03*
D28*
X235175600Y-88352000D03*
D27*
X237875600Y-88877000D03*
D26*
X237875600Y-89352000D03*
%TD*%
D30*
%TO.P,U22,1,I/O1_1*%
%TO.N,Net-(J1-Pin_2)*%
X221863500Y-84837100D03*
%TO.P,U22,2,GND_2*%
%TO.N,GND*%
X221863500Y-85787100D03*
%TO.P,U22,3,I/O2_3*%
%TO.N,Net-(J1-Pin_3)*%
X221863500Y-86737100D03*
%TO.P,U22,4,I/O2_4*%
%TO.N,Net-(U1-USB_D+)*%
X219588500Y-86737100D03*
%TO.P,U22,5,VBUS_5*%
%TO.N,+3.3V*%
X219588500Y-85787100D03*
%TO.P,U22,6,I/O1_6*%
%TO.N,Net-(U1-USB_D-)*%
X219588500Y-84837100D03*
%TD*%
D31*
%TO.P,BT1,1,+_1*%
%TO.N,Net-(BT1-+)*%
X143547055Y-91186000D03*
D32*
%TO.P,BT1,2,-_2*%
%TO.N,GND*%
X122747055Y-91186000D03*
%TD*%
D33*
%TO.P,SW2,1,1_1*%
%TO.N,Net-(U1-IO12)*%
X197942800Y-67233800D03*
%TO.P,SW2,2,2_2*%
%TO.N,GND*%
X206552800Y-67233800D03*
%TD*%
D16*
%TO.P,U6,1,VIN_1*%
%TO.N,VCC*%
X224279000Y-88253600D03*
D17*
%TO.P,U6,2,GND_2*%
%TO.N,GND*%
X224274000Y-71053600D03*
%TO.P,U6,3,VOUT_3*%
%TO.N,/10V*%
X185074000Y-88353600D03*
%TO.P,U6,4,GND_4*%
%TO.N,GND*%
X185074000Y-71053600D03*
%TD*%
D24*
%TO.P,R1,1*%
%TO.N,+3.3V*%
X151676206Y-68612584D03*
%TO.P,R1,2*%
%TO.N,/SCL*%
X151676206Y-66612584D03*
%TD*%
D23*
%TO.P,SW1,1,1_1*%
%TO.N,Net-(U1-IO13)*%
X194462400Y-67335400D03*
%TO.P,SW1,2,2_2*%
%TO.N,GND*%
X185852400Y-67335400D03*
%TD*%
D33*
%TO.P,SW4,1,1_1*%
%TO.N,Net-(U1-IO10)*%
X221793400Y-67233800D03*
%TO.P,SW4,2,2_2*%
%TO.N,GND*%
X230403400Y-67233800D03*
%TD*%
%TO.P,SW5,1,1_1*%
%TO.N,GND*%
X170675600Y-97790000D03*
%TO.P,SW5,2,2_2*%
%TO.N,Net-(U1-IO0)*%
X179285600Y-97790000D03*
%TD*%
D34*
%TO.N,+3.3V*%
X118059200Y-72974200D03*
X157784800Y-69316600D03*
X217246200Y-85775800D03*
X124612400Y-71983600D03*
%TO.N,VCC*%
X183184800Y-67868800D03*
D35*
%TO.N,GND*%
X188747400Y-85877400D03*
X152120600Y-86283800D03*
X167640000Y-92710000D03*
X159994600Y-87477600D03*
X160070800Y-78282800D03*
X153390600Y-90297000D03*
X205282800Y-85801200D03*
D34*
X224434400Y-85775800D03*
D35*
X166344600Y-78206600D03*
%TO.N,Net-(U1-IO6)*%
X153898600Y-78486000D03*
X160858200Y-75768200D03*
%TO.N,Net-(U1-IO2)*%
X177673000Y-76098400D03*
%TO.N,Net-(U1-IO4)*%
X161442400Y-73355200D03*
%TO.N,Net-(U1-IO5)*%
X158419800Y-74574400D03*
%TO.N,Net-(U1-USB_D-)*%
X165379400Y-84683600D03*
%TO.N,Net-(U1-USB_D+)*%
X161010600Y-85902800D03*
%TO.N,Net-(U1-IO10)*%
X169341800Y-84582000D03*
%TO.N,Net-(U1-IO11)*%
X170586400Y-84912200D03*
%TO.N,Net-(U1-IO12)*%
X171780200Y-84683600D03*
%TO.N,Net-(U1-IO13)*%
X173050200Y-85039200D03*
%TO.N,Net-(U1-IO0)*%
X181432200Y-97790000D03*
%TD*%
%TO.N,VCC*%
D36*
X224279000Y-88253600D02*
X224279000Y-90903600D01*
X224279000Y-90903600D02*
X228854000Y-95478600D01*
X228854000Y-95478600D02*
X230719620Y-95478600D01*
%TO.N,+3.3V*%
X144399000Y-71983600D02*
X147758400Y-68624200D01*
X119049800Y-71983600D02*
X118059200Y-72974200D01*
X200787000Y-94347021D02*
X163130221Y-94347021D01*
X124612400Y-71983600D02*
X119049800Y-71983600D01*
X146837400Y-74422000D02*
X144399000Y-71983600D01*
X144399000Y-71983600D02*
X142626000Y-71983600D01*
X163130221Y-94347021D02*
X156297621Y-94347021D01*
X157080784Y-68612584D02*
X157784800Y-69316600D01*
X142626000Y-71983600D02*
X124612400Y-71983600D01*
X156297621Y-94347021D02*
X146837400Y-84886800D01*
X149148800Y-68624200D02*
X151664590Y-68624200D01*
X151676206Y-68612584D02*
X157080784Y-68612584D01*
X147758400Y-68624200D02*
X149148800Y-68624200D01*
X151664590Y-68624200D02*
X151676206Y-68612584D01*
X146837400Y-84886800D02*
X146837400Y-74422000D01*
X217257500Y-85787100D02*
X217246200Y-85775800D01*
X219588500Y-85787100D02*
X217257500Y-85787100D01*
%TO.N,VCC*%
X231368600Y-81991200D02*
X233879400Y-84502000D01*
X156730395Y-65264995D02*
X163195000Y-71729600D01*
X163195000Y-71729600D02*
X179324000Y-71729600D01*
X227863400Y-81991200D02*
X231368600Y-81991200D01*
X233879400Y-84502000D02*
X235013100Y-84502000D01*
X154190395Y-63756586D02*
X154190395Y-64071805D01*
X179324000Y-71729600D02*
X183184800Y-67868800D01*
X156730395Y-63756586D02*
X156730395Y-65264995D01*
%TO.N,/SCL*%
D37*
X151676206Y-66612584D02*
X151676206Y-63782397D01*
X151676206Y-63782397D02*
X151650395Y-63756586D01*
%TO.N,/SDA*%
X149148800Y-63794991D02*
X149110395Y-63756586D01*
X149148800Y-66624200D02*
X149148800Y-63794991D01*
%TO.N,GND*%
D36*
X235063100Y-87202000D02*
X235013100Y-87202000D01*
X235175600Y-87314500D02*
X235063100Y-87202000D01*
X224423100Y-85787100D02*
X224434400Y-85775800D01*
X235175600Y-88352000D02*
X235175600Y-87314500D01*
X221863500Y-85787100D02*
X224423100Y-85787100D01*
%TO.N,Net-(U1-IO6)*%
D37*
X158140400Y-78486000D02*
X160858200Y-75768200D01*
X153898600Y-78486000D02*
X158140400Y-78486000D01*
%TO.N,Net-(U1-IO2)*%
X150246000Y-79603600D02*
X174167800Y-79603600D01*
X174167800Y-79603600D02*
X177673000Y-76098400D01*
%TO.N,Net-(U1-IO4)*%
X157734000Y-77063600D02*
X161442400Y-73355200D01*
X150246000Y-77063600D02*
X157734000Y-77063600D01*
%TO.N,Net-(U1-IO5)*%
X158369000Y-74523600D02*
X158419800Y-74574400D01*
X150246000Y-74523600D02*
X158369000Y-74523600D01*
%TO.N,Net-(U1-USB_D-)*%
X217576400Y-84837100D02*
X219588500Y-84837100D01*
X179603400Y-88392000D02*
X184099200Y-83896200D01*
X184099200Y-83896200D02*
X216635500Y-83896200D01*
X165379400Y-84683600D02*
X169087800Y-88392000D01*
X169087800Y-88392000D02*
X179603400Y-88392000D01*
X216635500Y-83896200D02*
X217576400Y-84837100D01*
%TO.N,Net-(U1-USB_D+)*%
X213537800Y-84785200D02*
X215489700Y-86737100D01*
X161010600Y-85902800D02*
X164998400Y-89890600D01*
X180416200Y-89763600D02*
X185394600Y-84785200D01*
X185394600Y-84785200D02*
X213537800Y-84785200D01*
X180416200Y-89890600D02*
X180416200Y-89763600D01*
X164998400Y-89890600D02*
X180416200Y-89890600D01*
X215489700Y-86737100D02*
X219588500Y-86737100D01*
%TO.N,Net-(U1-IO10)*%
X170357800Y-87376000D02*
X178663600Y-87376000D01*
X178663600Y-87376000D02*
X194894200Y-71145400D01*
X169341800Y-86360000D02*
X170357800Y-87376000D01*
X194894200Y-71145400D02*
X217881800Y-71145400D01*
X169341800Y-84582000D02*
X169341800Y-86360000D01*
X217881800Y-71145400D02*
X221793400Y-67233800D01*
%TO.N,Net-(U1-IO11)*%
X171373800Y-86487000D02*
X177927000Y-86487000D01*
X215214200Y-67233800D02*
X218427600Y-67233800D01*
X177927000Y-86487000D02*
X194513200Y-69900800D01*
X194513200Y-69900800D02*
X212547200Y-69900800D01*
X170586400Y-84912200D02*
X170637200Y-84963000D01*
X212547200Y-69900800D02*
X215214200Y-67233800D01*
X170637200Y-84963000D02*
X170637200Y-85750400D01*
X170637200Y-85750400D02*
X171373800Y-86487000D01*
%TO.N,Net-(U1-IO12)*%
X190779400Y-65786000D02*
X190728600Y-65735200D01*
X197154800Y-64744600D02*
X191719200Y-64744600D01*
X197942800Y-67233800D02*
X197942800Y-65532600D01*
X172999400Y-83464400D02*
X176250600Y-83464400D01*
X191719200Y-64744600D02*
X190728600Y-65735200D01*
X171780200Y-84683600D02*
X172999400Y-83464400D01*
X190779400Y-68935600D02*
X190779400Y-65786000D01*
X176250600Y-83464400D02*
X190779400Y-68935600D01*
X197942800Y-65532600D02*
X197154800Y-64744600D01*
%TO.N,Net-(U1-IO13)*%
X173050200Y-85039200D02*
X176758600Y-85039200D01*
X176758600Y-85039200D02*
X194462400Y-67335400D01*
%TO.N,Net-(U1-IO0)*%
X181432200Y-97790000D02*
X179285600Y-97790000D01*
%TO.N,GND*%
D36*
X185099400Y-70904400D02*
X185076800Y-70904400D01*
%TO.N,Net-(J1-Pin_2)*%
D37*
X227863400Y-84531200D02*
X222169400Y-84531200D01*
X232217200Y-85202000D02*
X231546400Y-84531200D01*
X235013100Y-85202000D02*
X232217200Y-85202000D01*
X222169400Y-84531200D02*
X221863500Y-84837100D01*
X231546400Y-84531200D02*
X227863400Y-84531200D01*
%TO.N,Net-(J1-Pin_3)*%
X227529300Y-86737100D02*
X227863400Y-87071200D01*
X232232200Y-85852000D02*
X231013000Y-87071200D01*
X231013000Y-87071200D02*
X227863400Y-87071200D01*
X235013100Y-85852000D02*
X232232200Y-85852000D01*
X221863500Y-86737100D02*
X227529300Y-86737100D01*
%TD*%
%TA.AperFunction,Conductor*%
%TO.N,GND*%
G36*
X226938820Y-85183789D02*
G01*
X226949023Y-85185686D01*
X226971870Y-85193175D01*
X226971939Y-85192994D01*
X226971980Y-85192858D01*
X226971991Y-85192861D01*
X226972142Y-85192470D01*
X226981648Y-85196132D01*
X226980894Y-85198088D01*
X227032185Y-85231034D01*
X227038799Y-85239360D01*
X227163496Y-85410992D01*
X227163514Y-85411010D01*
X227313813Y-85561309D01*
X227485782Y-85686250D01*
X227485790Y-85686254D01*
X227486293Y-85686563D01*
X227487774Y-85687696D01*
X227489722Y-85689112D01*
X227489686Y-85689160D01*
X227506634Y-85702134D01*
X227516915Y-85711843D01*
X227552141Y-85772183D01*
X227549152Y-85841989D01*
X227512983Y-85895707D01*
X227505827Y-85901908D01*
X227489414Y-85913923D01*
X227485790Y-85916143D01*
X227313808Y-86041093D01*
X227310110Y-86044253D01*
X227309595Y-86043650D01*
X227288975Y-86058825D01*
X227265890Y-86071431D01*
X227206461Y-86086600D01*
X223141122Y-86086600D01*
X223106187Y-86081577D01*
X223081714Y-86074391D01*
X223025595Y-86039587D01*
X223023296Y-86037100D01*
X222774470Y-86037100D01*
X222741750Y-86032705D01*
X222710759Y-86024227D01*
X222680358Y-86011354D01*
X222636398Y-85985356D01*
X222636399Y-85985356D01*
X222636386Y-85985352D01*
X222478579Y-85939503D01*
X222478573Y-85939502D01*
X222478572Y-85939501D01*
X222478570Y-85939501D01*
X222441708Y-85936600D01*
X222441701Y-85936600D01*
X222441694Y-85936600D01*
X222005330Y-85936600D01*
X221970389Y-85931575D01*
X221955390Y-85927170D01*
X221896644Y-85889427D01*
X221895457Y-85888058D01*
X221867977Y-85833183D01*
X221866332Y-85825621D01*
X221863500Y-85799268D01*
X221863500Y-85779429D01*
X221868523Y-85744493D01*
X221872851Y-85729756D01*
X221872927Y-85729494D01*
X221910672Y-85670744D01*
X221912041Y-85669557D01*
X221966920Y-85642077D01*
X221974479Y-85640433D01*
X222000832Y-85637600D01*
X222441686Y-85637600D01*
X222441694Y-85637600D01*
X222478569Y-85634698D01*
X222478571Y-85634697D01*
X222478573Y-85634697D01*
X222478576Y-85634696D01*
X222478590Y-85634695D01*
X222479290Y-85634497D01*
X222488170Y-85632029D01*
X222489359Y-85631563D01*
X222544080Y-85615665D01*
X222636398Y-85588844D01*
X222680359Y-85562845D01*
X222710759Y-85549973D01*
X222712518Y-85549492D01*
X222741750Y-85541495D01*
X222774470Y-85537100D01*
X223023294Y-85537100D01*
X223023295Y-85537100D01*
X223023295Y-85537098D01*
X223023100Y-85534611D01*
X223023099Y-85534605D01*
X223021928Y-85530575D01*
X222976578Y-85374478D01*
X222974488Y-85367477D01*
X222968083Y-85342232D01*
X222970676Y-85272414D01*
X223003650Y-85221106D01*
X223007692Y-85217331D01*
X223063713Y-85187311D01*
X223073284Y-85185042D01*
X223101883Y-85181700D01*
X226916154Y-85181700D01*
X226938820Y-85183789D01*
G37*
%TD.AperFunction*%
%TA.AperFunction,Conductor*%
G36*
X83591172Y-73089679D02*
G01*
X83628981Y-73097200D01*
X83757019Y-73097200D01*
X83794808Y-73089683D01*
X83864399Y-73095910D01*
X83919577Y-73138772D01*
X83942822Y-73204661D01*
X83943000Y-73211300D01*
X83943000Y-74223099D01*
X83923315Y-74290138D01*
X83870511Y-74335893D01*
X83801353Y-74345837D01*
X83794810Y-74344717D01*
X83775555Y-74340887D01*
X83757019Y-74337200D01*
X83757018Y-74337200D01*
X83628982Y-74337200D01*
X83628981Y-74337200D01*
X83591190Y-74344717D01*
X83521599Y-74338488D01*
X83466422Y-74295625D01*
X83443178Y-74229735D01*
X83443000Y-74223099D01*
X83443000Y-73211300D01*
X83462685Y-73144261D01*
X83515489Y-73098506D01*
X83584647Y-73088562D01*
X83591172Y-73089679D01*
G37*
%TD.AperFunction*%
%TA.AperFunction,Conductor*%
G36*
X238576977Y-62006423D02*
G01*
X238591975Y-62010827D01*
X238650727Y-62048572D01*
X238651927Y-62049956D01*
X238679398Y-62104795D01*
X238681037Y-62112319D01*
X238683878Y-62138641D01*
X238694919Y-81328347D01*
X238689917Y-81363283D01*
X238686015Y-81376601D01*
X238648275Y-81435401D01*
X238584736Y-81464463D01*
X238584736Y-81464464D01*
X238579562Y-81465211D01*
X238514394Y-81457046D01*
X238481240Y-81443314D01*
X238481241Y-81443314D01*
X238481231Y-81443311D01*
X238298680Y-81407000D01*
X238298677Y-81407000D01*
X238125600Y-81407000D01*
X238125600Y-81978000D01*
X238105915Y-82045039D01*
X238053111Y-82090794D01*
X238001600Y-82102000D01*
X237749600Y-82102000D01*
X237682561Y-82082315D01*
X237636806Y-82029511D01*
X237625600Y-81978000D01*
X237625600Y-81407000D01*
X237452523Y-81407000D01*
X237452521Y-81407000D01*
X237269978Y-81443310D01*
X237269951Y-81443316D01*
X237097982Y-81514546D01*
X237097972Y-81514551D01*
X236943195Y-81617971D01*
X236943194Y-81617972D01*
X236943188Y-81617977D01*
X236811577Y-81749588D01*
X236811572Y-81749594D01*
X236811571Y-81749595D01*
X236708159Y-81904361D01*
X236708149Y-81904378D01*
X236708144Y-81904387D01*
X236636918Y-82076345D01*
X236636916Y-82076352D01*
X236636905Y-82076410D01*
X236634045Y-82090794D01*
X236631816Y-82102000D01*
X237197976Y-82102000D01*
X237265015Y-82121685D01*
X237310770Y-82174489D01*
X237320714Y-82243647D01*
X237312537Y-82273452D01*
X237300601Y-82302268D01*
X237300600Y-82302273D01*
X237300600Y-82401726D01*
X237300601Y-82401731D01*
X237338657Y-82493611D01*
X237408988Y-82563942D01*
X237480052Y-82593376D01*
X237500872Y-82602000D01*
X237751600Y-82602000D01*
X237818639Y-82621685D01*
X237864394Y-82674489D01*
X237875600Y-82726000D01*
X237875600Y-82827000D01*
X237983770Y-82827000D01*
X238018706Y-82832023D01*
X238033704Y-82836427D01*
X238092455Y-82874172D01*
X238093642Y-82875541D01*
X238121118Y-82930402D01*
X238122763Y-82937960D01*
X238125600Y-82964331D01*
X238125600Y-88735170D01*
X238120575Y-88770114D01*
X238116170Y-88785112D01*
X238078427Y-88843855D01*
X238077058Y-88845042D01*
X238022197Y-88872518D01*
X238014639Y-88874163D01*
X237988268Y-88877000D01*
X237875600Y-88877000D01*
X237875600Y-88978000D01*
X237855915Y-89045039D01*
X237803111Y-89090794D01*
X237751600Y-89102000D01*
X237500872Y-89102000D01*
X237500870Y-89102000D01*
X237500868Y-89102001D01*
X237408988Y-89140057D01*
X237338657Y-89210388D01*
X237300601Y-89302268D01*
X237300600Y-89302273D01*
X237300600Y-89401726D01*
X237300601Y-89401731D01*
X237312537Y-89430548D01*
X237320006Y-89500017D01*
X237288731Y-89562496D01*
X237228641Y-89598148D01*
X237197976Y-89602000D01*
X236631816Y-89602000D01*
X236636916Y-89627644D01*
X236636918Y-89627652D01*
X236636918Y-89627653D01*
X236708144Y-89799611D01*
X236708149Y-89799620D01*
X236708159Y-89799637D01*
X236811571Y-89954403D01*
X236811572Y-89954404D01*
X236811577Y-89954410D01*
X236943188Y-90086021D01*
X236943194Y-90086026D01*
X236943198Y-90086029D01*
X237097968Y-90189444D01*
X237097973Y-90189447D01*
X237097972Y-90189447D01*
X237097982Y-90189452D01*
X237224331Y-90241786D01*
X237269953Y-90260683D01*
X237269961Y-90260685D01*
X237444889Y-90295480D01*
X237447616Y-90296203D01*
X237452523Y-90297000D01*
X237452524Y-90297000D01*
X237625600Y-90297000D01*
X237625600Y-89726000D01*
X237645285Y-89658961D01*
X237698089Y-89613206D01*
X237749600Y-89602000D01*
X238001600Y-89602000D01*
X238068639Y-89621685D01*
X238114394Y-89674489D01*
X238125600Y-89726000D01*
X238125600Y-90297000D01*
X238298658Y-90297000D01*
X238298676Y-90297000D01*
X238298678Y-90296999D01*
X238481238Y-90260685D01*
X238481246Y-90260683D01*
X238521344Y-90244074D01*
X238530972Y-90241786D01*
X238535150Y-90242004D01*
X238546378Y-90239139D01*
X238560190Y-90237653D01*
X238628944Y-90250060D01*
X238680079Y-90297667D01*
X238682758Y-90302182D01*
X238700118Y-90365387D01*
X238709118Y-106004700D01*
X238704115Y-106039637D01*
X238699720Y-106054637D01*
X238661995Y-106113424D01*
X238660641Y-106114599D01*
X238605771Y-106142103D01*
X238600167Y-106143324D01*
X238598179Y-106143757D01*
X238571779Y-106146600D01*
X228995830Y-106146600D01*
X228960889Y-106141575D01*
X228945890Y-106137170D01*
X228887144Y-106099427D01*
X228885957Y-106098058D01*
X228858477Y-106043183D01*
X228856832Y-106035621D01*
X228854000Y-106009268D01*
X228854000Y-100863400D01*
X183743600Y-100863400D01*
X183743600Y-105979370D01*
X183738575Y-106014314D01*
X183734170Y-106029312D01*
X183696427Y-106088055D01*
X183695058Y-106089242D01*
X183640197Y-106116718D01*
X183632639Y-106118363D01*
X183606268Y-106121200D01*
X110047630Y-106121200D01*
X110012689Y-106116175D01*
X109997690Y-106111770D01*
X109938944Y-106074027D01*
X109937757Y-106072658D01*
X109910277Y-106017783D01*
X109908632Y-106010221D01*
X109905800Y-105983868D01*
X109905800Y-100391117D01*
X233643237Y-100391117D01*
X233643237Y-100668084D01*
X233643237Y-100668098D01*
X233643238Y-100668102D01*
X233643239Y-100668108D01*
X233679387Y-100942689D01*
X233679388Y-100942694D01*
X233679389Y-100942700D01*
X233751077Y-101210243D01*
X233857072Y-101466137D01*
X233857077Y-101466148D01*
X233995563Y-101706012D01*
X233995564Y-101706013D01*
X233995569Y-101706020D01*
X234164170Y-101925747D01*
X234164174Y-101925752D01*
X234164177Y-101925755D01*
X234164183Y-101925762D01*
X234360027Y-102121606D01*
X234360034Y-102121612D01*
X234360037Y-102121614D01*
X234360041Y-102121618D01*
X234551166Y-102268272D01*
X234579777Y-102290226D01*
X234819641Y-102428712D01*
X234819646Y-102428714D01*
X234819649Y-102428716D01*
X235075545Y-102534712D01*
X235343088Y-102606400D01*
X235617699Y-102642553D01*
X235617706Y-102642553D01*
X235894672Y-102642553D01*
X235894679Y-102642553D01*
X236169290Y-102606400D01*
X236436833Y-102534712D01*
X236692729Y-102428716D01*
X236932601Y-102290226D01*
X237152345Y-102121611D01*
X237348199Y-101925757D01*
X237516814Y-101706013D01*
X237655304Y-101466141D01*
X237761300Y-101210245D01*
X237832988Y-100942702D01*
X237869141Y-100668091D01*
X237869141Y-100391111D01*
X237832988Y-100116500D01*
X237761300Y-99848957D01*
X237655304Y-99593061D01*
X237655302Y-99593058D01*
X237655300Y-99593053D01*
X237655296Y-99593047D01*
X237655183Y-99592773D01*
X237654394Y-99591351D01*
X237653314Y-99589613D01*
X237516818Y-99353196D01*
X237516817Y-99353195D01*
X237516814Y-99353189D01*
X237494860Y-99324578D01*
X237348206Y-99133453D01*
X237348202Y-99133449D01*
X237348200Y-99133446D01*
X237348194Y-99133439D01*
X237152350Y-98937595D01*
X237152343Y-98937589D01*
X237152340Y-98937586D01*
X237152335Y-98937582D01*
X236932608Y-98768981D01*
X236932606Y-98768980D01*
X236932600Y-98768975D01*
X236692736Y-98630489D01*
X236692725Y-98630484D01*
X236436831Y-98524489D01*
X236169288Y-98452801D01*
X236169282Y-98452800D01*
X236169277Y-98452799D01*
X235898779Y-98417188D01*
X235896763Y-98416854D01*
X235894689Y-98416649D01*
X235894684Y-98416649D01*
X235894679Y-98416649D01*
X235617699Y-98416649D01*
X235617693Y-98416649D01*
X235617688Y-98416649D01*
X235615611Y-98416854D01*
X235613597Y-98417188D01*
X235343099Y-98452799D01*
X235343092Y-98452800D01*
X235343089Y-98452801D01*
X235075546Y-98524489D01*
X234819652Y-98630484D01*
X234819641Y-98630489D01*
X234731846Y-98681177D01*
X234579783Y-98768971D01*
X234579768Y-98768981D01*
X234360041Y-98937582D01*
X234360026Y-98937596D01*
X234360018Y-98937603D01*
X234164191Y-99133430D01*
X234164184Y-99133438D01*
X234164170Y-99133453D01*
X233995569Y-99353180D01*
X233995559Y-99353195D01*
X233907765Y-99505258D01*
X233857077Y-99593053D01*
X233857072Y-99593064D01*
X233751077Y-99848958D01*
X233679390Y-100116500D01*
X233679387Y-100116511D01*
X233643239Y-100391092D01*
X233643238Y-100391100D01*
X233643237Y-100391117D01*
X109905800Y-100391117D01*
X109905800Y-98149995D01*
X168955601Y-98149995D01*
X168966093Y-98252694D01*
X168966093Y-98252695D01*
X168966094Y-98252697D01*
X168992949Y-98333740D01*
X169020422Y-98416649D01*
X169021241Y-98419119D01*
X169021243Y-98419124D01*
X169113284Y-98568345D01*
X169237254Y-98692315D01*
X169386475Y-98784356D01*
X169386480Y-98784358D01*
X169552899Y-98839504D01*
X169552900Y-98839504D01*
X169552902Y-98839505D01*
X169552909Y-98839506D01*
X169655619Y-98849999D01*
X170425599Y-98849999D01*
X170925600Y-98849999D01*
X171695560Y-98849999D01*
X171695572Y-98849999D01*
X171695586Y-98849998D01*
X171798297Y-98839505D01*
X171964719Y-98784358D01*
X171964724Y-98784356D01*
X172113945Y-98692315D01*
X172237915Y-98568345D01*
X172329956Y-98419124D01*
X172329958Y-98419119D01*
X172385105Y-98252697D01*
X172385106Y-98252690D01*
X172395599Y-98149986D01*
X172395600Y-98149973D01*
X172395600Y-98040000D01*
X170925600Y-98040000D01*
X170925600Y-98849999D01*
X170425599Y-98849999D01*
X170425600Y-98849998D01*
X170425600Y-98040000D01*
X168955601Y-98040000D01*
X168955601Y-98149995D01*
X109905800Y-98149995D01*
X109905800Y-97430007D01*
X168955600Y-97430007D01*
X168955600Y-97430013D01*
X168955600Y-97540000D01*
X170425600Y-97540000D01*
X170925600Y-97540000D01*
X172395599Y-97540000D01*
X172395599Y-97430024D01*
X172395598Y-97430016D01*
X172395594Y-97429973D01*
X177565100Y-97429973D01*
X177565100Y-98149998D01*
X177565103Y-98150045D01*
X177575600Y-98252796D01*
X177575603Y-98252804D01*
X177575601Y-98252804D01*
X177575632Y-98252949D01*
X177575668Y-98253002D01*
X177591338Y-98300288D01*
X177630786Y-98419334D01*
X177722888Y-98568656D01*
X177846944Y-98692712D01*
X177996266Y-98784814D01*
X178162803Y-98839999D01*
X178265591Y-98850500D01*
X180305608Y-98850499D01*
X180408397Y-98839999D01*
X180574934Y-98784814D01*
X180724256Y-98692712D01*
X180848312Y-98568656D01*
X180861442Y-98547367D01*
X180884053Y-98520273D01*
X180895678Y-98509817D01*
X180958679Y-98479622D01*
X180959412Y-98479503D01*
X181022491Y-98485716D01*
X181032203Y-98489335D01*
X181050504Y-98498187D01*
X181050574Y-98498059D01*
X181053016Y-98499391D01*
X181053027Y-98499397D01*
X181132210Y-98532195D01*
X181198703Y-98559737D01*
X181198705Y-98559737D01*
X181198710Y-98559739D01*
X181282479Y-98576401D01*
X181353353Y-98590499D01*
X181353356Y-98590500D01*
X181353358Y-98590500D01*
X181511044Y-98590500D01*
X181511045Y-98590499D01*
X181665697Y-98559737D01*
X181811379Y-98499394D01*
X181942489Y-98411789D01*
X182053989Y-98300289D01*
X182141594Y-98169179D01*
X182201937Y-98023497D01*
X182232700Y-97868842D01*
X182232700Y-97711158D01*
X182232700Y-97711155D01*
X182232700Y-97710973D01*
X182232265Y-97708972D01*
X182202595Y-97559815D01*
X182202183Y-97557403D01*
X182201937Y-97556504D01*
X182190288Y-97528379D01*
X182149541Y-97430007D01*
X182141597Y-97410827D01*
X182141590Y-97410814D01*
X182053989Y-97279711D01*
X182053986Y-97279707D01*
X182053981Y-97279701D01*
X181942494Y-97168214D01*
X181942490Y-97168211D01*
X181811391Y-97080613D01*
X181811386Y-97080610D01*
X181811385Y-97080609D01*
X181811372Y-97080602D01*
X181811365Y-97080598D01*
X181665702Y-97020264D01*
X181665671Y-97020257D01*
X181511047Y-96989500D01*
X181511045Y-96989500D01*
X181511042Y-96989500D01*
X181353358Y-96989500D01*
X181353355Y-96989500D01*
X181353353Y-96989500D01*
X181198727Y-97020257D01*
X181198696Y-97020264D01*
X181053036Y-97080597D01*
X181049503Y-97082330D01*
X181049374Y-97082067D01*
X181029494Y-97090737D01*
X181013293Y-97095809D01*
X180943533Y-97097080D01*
X180942948Y-97096920D01*
X180887948Y-97064963D01*
X180881029Y-97058039D01*
X180863204Y-97035487D01*
X180848314Y-97011347D01*
X180848311Y-97011343D01*
X180724257Y-96887289D01*
X180724256Y-96887288D01*
X180656304Y-96845375D01*
X180656303Y-96845374D01*
X180574940Y-96795189D01*
X180574935Y-96795187D01*
X180574934Y-96795186D01*
X180572441Y-96794360D01*
X180416865Y-96742807D01*
X180414045Y-96741641D01*
X180408392Y-96739999D01*
X180305619Y-96729500D01*
X180305610Y-96729500D01*
X178265598Y-96729500D01*
X178265581Y-96729501D01*
X178260677Y-96730002D01*
X178162798Y-96740000D01*
X178162793Y-96740001D01*
X178162632Y-96740056D01*
X177996267Y-96795185D01*
X177996265Y-96795186D01*
X177996263Y-96795187D01*
X177914897Y-96845374D01*
X177846940Y-96887290D01*
X177722890Y-97011340D01*
X177630786Y-97160664D01*
X177628285Y-97168210D01*
X177628286Y-97168211D01*
X177586645Y-97293870D01*
X177586635Y-97293904D01*
X177575601Y-97327203D01*
X177575601Y-97327204D01*
X177575600Y-97327204D01*
X177574830Y-97334734D01*
X177574830Y-97334737D01*
X177565100Y-97429973D01*
X172395594Y-97429973D01*
X172385105Y-97327302D01*
X172329958Y-97160880D01*
X172329956Y-97160875D01*
X172237915Y-97011654D01*
X172113945Y-96887684D01*
X171964724Y-96795643D01*
X171964719Y-96795641D01*
X171914796Y-96779098D01*
X171798299Y-96740494D01*
X171798294Y-96740493D01*
X171695591Y-96730000D01*
X171695586Y-96730000D01*
X170925600Y-96730000D01*
X170925600Y-97540000D01*
X170425600Y-97540000D01*
X170425600Y-96730000D01*
X169655637Y-96730000D01*
X169655628Y-96730000D01*
X169655612Y-96730001D01*
X169655602Y-96730001D01*
X169655602Y-96730002D01*
X169552904Y-96740493D01*
X169552902Y-96740494D01*
X169386487Y-96795638D01*
X169386479Y-96795641D01*
X169386477Y-96795642D01*
X169386475Y-96795643D01*
X169378481Y-96800574D01*
X169237252Y-96887685D01*
X169113285Y-97011652D01*
X169093743Y-97043335D01*
X169021374Y-97160664D01*
X169021241Y-97160879D01*
X169021238Y-97160888D01*
X168966094Y-97327299D01*
X168966093Y-97327304D01*
X168955600Y-97430007D01*
X109905800Y-97430007D01*
X109905800Y-91054905D01*
X120747055Y-91054905D01*
X120747055Y-91317094D01*
X120781275Y-91577009D01*
X120781277Y-91577020D01*
X120837869Y-91788225D01*
X120849130Y-91830254D01*
X120849133Y-91830264D01*
X120949461Y-92072477D01*
X121080538Y-92299508D01*
X121080546Y-92299521D01*
X121080567Y-92299548D01*
X121167135Y-92412365D01*
X121957882Y-91621617D01*
X122019203Y-91588134D01*
X122088894Y-91593118D01*
X122144828Y-91634990D01*
X122148662Y-91640407D01*
X122164492Y-91664098D01*
X122268954Y-91768560D01*
X122268962Y-91768566D01*
X122292642Y-91784389D01*
X122337448Y-91838001D01*
X122346155Y-91907326D01*
X122316001Y-91970353D01*
X122311433Y-91975172D01*
X121520688Y-92765916D01*
X121520687Y-92765917D01*
X121520688Y-92765917D01*
X121520688Y-92765918D01*
X121520691Y-92765920D01*
X121633532Y-92852507D01*
X121633535Y-92852509D01*
X121633538Y-92852511D01*
X121860572Y-92983590D01*
X121860576Y-92983591D01*
X121860576Y-92983592D01*
X122037984Y-93057077D01*
X122102799Y-93083924D01*
X122356034Y-93151777D01*
X122356045Y-93151779D01*
X122615960Y-93185999D01*
X122615975Y-93186000D01*
X122878123Y-93186000D01*
X122878135Y-93186000D01*
X122878149Y-93185999D01*
X123138064Y-93151779D01*
X123138075Y-93151777D01*
X123391310Y-93083924D01*
X123633526Y-92983595D01*
X123633537Y-92983590D01*
X123860571Y-92852511D01*
X123860589Y-92852499D01*
X123973420Y-92765919D01*
X123973420Y-92765917D01*
X123182674Y-91975172D01*
X123149190Y-91913850D01*
X123154174Y-91844159D01*
X123196046Y-91788225D01*
X123201455Y-91784396D01*
X123225152Y-91768563D01*
X123329618Y-91664097D01*
X123345444Y-91640411D01*
X123399052Y-91595607D01*
X123468377Y-91586897D01*
X123531405Y-91617049D01*
X123536226Y-91621619D01*
X124326972Y-92412365D01*
X124326973Y-92412365D01*
X124326974Y-92412365D01*
X124413554Y-92299534D01*
X124413566Y-92299516D01*
X124544645Y-92072482D01*
X124544650Y-92072471D01*
X124644979Y-91830255D01*
X124712832Y-91577020D01*
X124712834Y-91577009D01*
X124747054Y-91317094D01*
X124747055Y-91317080D01*
X124747055Y-91054919D01*
X124747054Y-91054905D01*
X124712834Y-90794990D01*
X124712832Y-90794979D01*
X124644979Y-90541744D01*
X124544650Y-90299528D01*
X124544645Y-90299517D01*
X124413566Y-90072483D01*
X124413560Y-90072475D01*
X124388250Y-90039491D01*
X124326973Y-89959633D01*
X124326972Y-89959633D01*
X124326971Y-89959633D01*
X123536226Y-90750378D01*
X123474903Y-90783863D01*
X123405211Y-90778879D01*
X123349278Y-90737007D01*
X123345446Y-90731592D01*
X123329618Y-90707903D01*
X123329617Y-90707901D01*
X123225155Y-90603439D01*
X123225151Y-90603436D01*
X123201463Y-90587608D01*
X123156658Y-90533995D01*
X123147951Y-90464670D01*
X123178106Y-90401643D01*
X123182652Y-90396846D01*
X123941360Y-89638140D01*
X141546555Y-89638140D01*
X141546555Y-92733876D01*
X141546714Y-92735806D01*
X141546940Y-92737454D01*
X141552962Y-92793482D01*
X141580745Y-92867971D01*
X141603257Y-92928328D01*
X141603258Y-92928330D01*
X141603259Y-92928332D01*
X141603260Y-92928333D01*
X141689505Y-93043542D01*
X141689511Y-93043548D01*
X141709701Y-93058662D01*
X141804719Y-93129793D01*
X141804726Y-93129797D01*
X141939572Y-93180091D01*
X141939571Y-93180091D01*
X141946499Y-93180835D01*
X141999182Y-93186500D01*
X145094927Y-93186499D01*
X145154538Y-93180091D01*
X145289386Y-93129796D01*
X145404601Y-93043546D01*
X145490851Y-92928331D01*
X145541146Y-92793483D01*
X145547555Y-92733873D01*
X145547554Y-89638128D01*
X145541146Y-89578517D01*
X145541145Y-89578513D01*
X145541145Y-89578512D01*
X145528785Y-89545377D01*
X145528784Y-89545374D01*
X145490852Y-89443671D01*
X145490848Y-89443664D01*
X145406591Y-89331112D01*
X145404603Y-89328456D01*
X145404597Y-89328450D01*
X145312267Y-89259332D01*
X145289390Y-89242206D01*
X145289387Y-89242204D01*
X145289385Y-89242203D01*
X145289383Y-89242202D01*
X145154537Y-89191908D01*
X145154538Y-89191908D01*
X145094938Y-89185501D01*
X145094936Y-89185500D01*
X145094928Y-89185500D01*
X145094919Y-89185500D01*
X145093896Y-89185500D01*
X141999178Y-89185500D01*
X141997247Y-89185659D01*
X141995600Y-89185885D01*
X141939571Y-89191908D01*
X141845520Y-89226987D01*
X141804721Y-89242204D01*
X141804720Y-89242205D01*
X141689511Y-89328450D01*
X141689505Y-89328456D01*
X141603260Y-89443665D01*
X141603258Y-89443668D01*
X141552964Y-89578513D01*
X141552962Y-89578520D01*
X141546689Y-89636864D01*
X141546690Y-89636865D01*
X141546682Y-89636942D01*
X141546556Y-89638123D01*
X141546556Y-89638129D01*
X141546555Y-89638140D01*
X123941360Y-89638140D01*
X123973420Y-89606080D01*
X123973419Y-89606079D01*
X123860576Y-89519491D01*
X123860563Y-89519483D01*
X123778763Y-89472256D01*
X123633537Y-89388409D01*
X123633532Y-89388406D01*
X123391319Y-89288078D01*
X123391312Y-89288076D01*
X123391310Y-89288075D01*
X123138075Y-89220222D01*
X123138069Y-89220221D01*
X123138066Y-89220220D01*
X123138043Y-89220217D01*
X122878150Y-89186000D01*
X122878149Y-89186000D01*
X122615960Y-89186000D01*
X122615959Y-89186000D01*
X122356065Y-89220217D01*
X122356042Y-89220220D01*
X122356036Y-89220221D01*
X122356034Y-89220222D01*
X122102799Y-89288075D01*
X122102789Y-89288078D01*
X121860579Y-89388405D01*
X121860571Y-89388409D01*
X121633526Y-89519496D01*
X121633517Y-89519502D01*
X121520688Y-89606078D01*
X121520688Y-89606080D01*
X122311434Y-90396826D01*
X122344919Y-90458149D01*
X122339935Y-90527841D01*
X122298063Y-90583774D01*
X122292647Y-90587607D01*
X122268959Y-90603435D01*
X122268954Y-90603439D01*
X122164494Y-90707899D01*
X122164490Y-90707904D01*
X122148662Y-90731592D01*
X122095049Y-90776395D01*
X122025724Y-90785101D01*
X121962697Y-90754944D01*
X121957881Y-90750379D01*
X121167135Y-89959633D01*
X121167134Y-89959633D01*
X121167133Y-89959633D01*
X121080557Y-90072462D01*
X121080551Y-90072471D01*
X120949464Y-90299516D01*
X120949460Y-90299524D01*
X120849133Y-90541734D01*
X120849130Y-90541744D01*
X120781277Y-90794979D01*
X120781277Y-90794980D01*
X120781275Y-90794987D01*
X120781272Y-90795010D01*
X120747057Y-91054888D01*
X120747055Y-91054905D01*
X109905800Y-91054905D01*
X109905800Y-85344000D01*
X65419695Y-85344000D01*
X65384754Y-85338975D01*
X65369755Y-85334570D01*
X65311033Y-85296855D01*
X65309821Y-85295458D01*
X65282333Y-85240619D01*
X65280694Y-85233110D01*
X65277850Y-85206840D01*
X65277844Y-85201765D01*
X65272855Y-80635951D01*
X65271439Y-79340551D01*
X65271439Y-79340550D01*
X65270199Y-78205876D01*
X114628779Y-78205876D01*
X114628779Y-78410522D01*
X114660632Y-78611634D01*
X114660788Y-78612617D01*
X114724023Y-78807231D01*
X114777907Y-78912984D01*
X114816923Y-78989557D01*
X114816926Y-78989560D01*
X114849296Y-79034114D01*
X114849300Y-79034119D01*
X114849302Y-79034121D01*
X114849303Y-79034122D01*
X115392282Y-78491142D01*
X115453603Y-78457659D01*
X115523294Y-78462643D01*
X115579228Y-78504514D01*
X115587346Y-78516822D01*
X115608699Y-78553806D01*
X115683173Y-78628280D01*
X115683174Y-78628281D01*
X115683176Y-78628282D01*
X115720152Y-78649630D01*
X115768367Y-78700196D01*
X115781591Y-78768803D01*
X115755623Y-78833668D01*
X115745833Y-78844698D01*
X115202854Y-79387673D01*
X115202855Y-79387673D01*
X115202855Y-79387674D01*
X115247429Y-79420059D01*
X115307981Y-79450912D01*
X115429742Y-79512953D01*
X115429744Y-79512953D01*
X115429747Y-79512955D01*
X115624361Y-79576190D01*
X115826462Y-79608200D01*
X116031095Y-79608200D01*
X116031096Y-79608200D01*
X116233196Y-79576190D01*
X116427810Y-79512955D01*
X116450720Y-79501282D01*
X116610126Y-79420060D01*
X116610125Y-79420060D01*
X116610128Y-79420059D01*
X116654700Y-79387674D01*
X116111724Y-78844698D01*
X116078239Y-78783375D01*
X116083223Y-78713683D01*
X116125095Y-78657750D01*
X116137397Y-78649634D01*
X116174385Y-78628280D01*
X116248859Y-78553806D01*
X116270208Y-78516827D01*
X116320773Y-78468613D01*
X116389379Y-78455388D01*
X116454245Y-78481355D01*
X116465276Y-78491146D01*
X117008249Y-79034119D01*
X117008251Y-79034120D01*
X117008252Y-79034121D01*
X117028290Y-79032544D01*
X117063499Y-79034809D01*
X117078804Y-79038024D01*
X117140362Y-79071067D01*
X117146317Y-79076937D01*
X117176965Y-79126233D01*
X117187517Y-79158076D01*
X117193965Y-79177533D01*
X117193966Y-79177536D01*
X117193967Y-79177538D01*
X117226853Y-79230856D01*
X117226856Y-79230859D01*
X117269000Y-79299187D01*
X117286067Y-79326856D01*
X117410123Y-79450912D01*
X117559445Y-79543014D01*
X117725982Y-79598199D01*
X117828770Y-79608700D01*
X119028787Y-79608699D01*
X119131576Y-79598199D01*
X119298113Y-79543014D01*
X119447435Y-79450912D01*
X119571491Y-79326856D01*
X119663593Y-79177534D01*
X119718778Y-79010997D01*
X119729279Y-78908209D01*
X119729278Y-77708192D01*
X119718778Y-77605403D01*
X119663593Y-77438866D01*
X119618244Y-77365343D01*
X135345299Y-77365343D01*
X135383747Y-77558629D01*
X135383750Y-77558639D01*
X135384116Y-77559523D01*
X135384117Y-77559528D01*
X135459160Y-77740700D01*
X135459165Y-77740709D01*
X135459175Y-77740726D01*
X135568661Y-77904583D01*
X135568662Y-77904584D01*
X135568667Y-77904590D01*
X135708008Y-78043931D01*
X135708014Y-78043936D01*
X135708018Y-78043939D01*
X135871879Y-78153428D01*
X135871892Y-78153435D01*
X135871898Y-78153438D01*
X135998512Y-78205882D01*
X136048349Y-78226525D01*
X136052762Y-78228612D01*
X136247253Y-78267300D01*
X136444343Y-78267300D01*
X136444344Y-78267300D01*
X136472238Y-78261751D01*
X136574382Y-78241432D01*
X136574383Y-78241432D01*
X136587101Y-78238902D01*
X136637635Y-78228851D01*
X136819714Y-78153432D01*
X136983582Y-78043939D01*
X137122939Y-77904582D01*
X137232432Y-77740714D01*
X137307851Y-77558635D01*
X137319387Y-77500638D01*
X137320432Y-77495385D01*
X137320432Y-77495382D01*
X137346300Y-77365343D01*
X137346300Y-77168256D01*
X137346300Y-77168253D01*
X137307612Y-76973762D01*
X137305525Y-76969350D01*
X137263602Y-76868137D01*
X137238608Y-76807795D01*
X137232435Y-76792892D01*
X137232428Y-76792879D01*
X137122939Y-76629018D01*
X137122936Y-76629014D01*
X137122931Y-76629008D01*
X136983590Y-76489667D01*
X136983584Y-76489662D01*
X136983583Y-76489661D01*
X136819726Y-76380175D01*
X136819725Y-76380174D01*
X136819720Y-76380171D01*
X136819707Y-76380164D01*
X136819700Y-76380160D01*
X136637661Y-76304758D01*
X136637647Y-76304753D01*
X136637639Y-76304750D01*
X136637629Y-76304747D01*
X136637626Y-76304746D01*
X136637622Y-76304745D01*
X136444346Y-76266300D01*
X136444343Y-76266300D01*
X136444341Y-76266300D01*
X136247259Y-76266300D01*
X136247257Y-76266300D01*
X136247253Y-76266300D01*
X136053976Y-76304745D01*
X136053970Y-76304747D01*
X136053960Y-76304750D01*
X136053955Y-76304751D01*
X136053937Y-76304758D01*
X135871898Y-76380160D01*
X135871889Y-76380165D01*
X135871872Y-76380175D01*
X135708015Y-76489661D01*
X135708014Y-76489662D01*
X135708008Y-76489667D01*
X135568667Y-76629008D01*
X135568662Y-76629014D01*
X135568661Y-76629015D01*
X135459175Y-76792872D01*
X135459165Y-76792889D01*
X135459160Y-76792898D01*
X135383758Y-76974937D01*
X135383745Y-76974976D01*
X135345300Y-77168251D01*
X135345300Y-77168256D01*
X135345300Y-77168259D01*
X135345300Y-77365341D01*
X135345300Y-77365343D01*
X135345299Y-77365343D01*
X119618244Y-77365343D01*
X119571491Y-77289544D01*
X119447435Y-77165488D01*
X119298113Y-77073386D01*
X119140044Y-77021007D01*
X119137224Y-77019841D01*
X119131571Y-77018199D01*
X119028798Y-77007700D01*
X119028789Y-77007700D01*
X117828777Y-77007700D01*
X117828760Y-77007701D01*
X117814738Y-77009133D01*
X117725977Y-77018200D01*
X117725972Y-77018201D01*
X117725811Y-77018256D01*
X117559446Y-77073385D01*
X117559444Y-77073386D01*
X117559442Y-77073387D01*
X117459894Y-77134788D01*
X117410119Y-77165490D01*
X117286069Y-77289540D01*
X117286068Y-77289542D01*
X117193969Y-77438859D01*
X117193965Y-77438865D01*
X117193956Y-77438891D01*
X117179104Y-77483713D01*
X117163344Y-77515300D01*
X117154445Y-77528152D01*
X117100098Y-77572062D01*
X117100096Y-77572063D01*
X117092386Y-77575268D01*
X117035061Y-77584385D01*
X117008253Y-77582275D01*
X116465276Y-78125253D01*
X116403953Y-78158738D01*
X116334261Y-78153754D01*
X116278328Y-78111882D01*
X116270209Y-78099574D01*
X116248859Y-78062594D01*
X116174385Y-77988120D01*
X116137404Y-77966769D01*
X116089189Y-77916203D01*
X116075965Y-77847596D01*
X116101933Y-77782731D01*
X116111715Y-77771709D01*
X116654701Y-77228724D01*
X116654700Y-77228723D01*
X116654699Y-77228722D01*
X116654698Y-77228721D01*
X116654693Y-77228717D01*
X116610139Y-77196347D01*
X116610136Y-77196344D01*
X116544977Y-77163144D01*
X116427810Y-77103444D01*
X116233196Y-77040209D01*
X116233190Y-77040208D01*
X116031101Y-77008200D01*
X116031096Y-77008200D01*
X115826462Y-77008200D01*
X115826457Y-77008200D01*
X115624366Y-77040208D01*
X115624364Y-77040208D01*
X115624361Y-77040209D01*
X115527054Y-77071826D01*
X115429742Y-77103445D01*
X115247419Y-77196345D01*
X115202856Y-77228722D01*
X115202856Y-77228723D01*
X115202856Y-77228724D01*
X115536957Y-77562825D01*
X115745834Y-77771701D01*
X115779319Y-77833024D01*
X115774335Y-77902715D01*
X115732464Y-77958649D01*
X115720153Y-77966769D01*
X115683176Y-77988117D01*
X115683171Y-77988121D01*
X115608700Y-78062592D01*
X115608694Y-78062600D01*
X115587347Y-78099574D01*
X115536780Y-78147789D01*
X115468172Y-78161011D01*
X115403308Y-78135043D01*
X115392280Y-78125254D01*
X114849303Y-77582277D01*
X114849302Y-77582277D01*
X114849301Y-77582277D01*
X114816924Y-77626840D01*
X114724024Y-77809163D01*
X114708888Y-77855747D01*
X114660788Y-78003782D01*
X114660787Y-78003785D01*
X114660787Y-78003787D01*
X114628779Y-78205876D01*
X65270199Y-78205876D01*
X65270194Y-78201151D01*
X65270166Y-78175896D01*
X65269183Y-77276119D01*
X65266914Y-75200273D01*
X65264138Y-72660273D01*
X65261810Y-70530059D01*
X65261032Y-69818200D01*
X65258322Y-67338917D01*
X65866837Y-67338917D01*
X65866837Y-67615884D01*
X65866837Y-67615898D01*
X65866838Y-67615902D01*
X65866839Y-67615908D01*
X65902987Y-67890489D01*
X65902988Y-67890494D01*
X65902989Y-67890500D01*
X65974677Y-68158043D01*
X66080672Y-68413937D01*
X66080677Y-68413948D01*
X66219163Y-68653812D01*
X66219164Y-68653813D01*
X66219169Y-68653820D01*
X66387770Y-68873547D01*
X66387774Y-68873552D01*
X66387777Y-68873555D01*
X66387783Y-68873562D01*
X66583627Y-69069406D01*
X66583634Y-69069412D01*
X66583637Y-69069414D01*
X66583641Y-69069418D01*
X66701064Y-69159519D01*
X66803377Y-69238026D01*
X66803384Y-69238030D01*
X67025080Y-69366027D01*
X67043241Y-69376512D01*
X67043246Y-69376514D01*
X67043249Y-69376516D01*
X67299145Y-69482512D01*
X67566688Y-69554200D01*
X67841299Y-69590353D01*
X67841306Y-69590353D01*
X68118272Y-69590353D01*
X68118279Y-69590353D01*
X68392890Y-69554200D01*
X68660433Y-69482512D01*
X68916329Y-69376516D01*
X69156201Y-69238026D01*
X69326719Y-69107183D01*
X82042500Y-69107183D01*
X82042500Y-70707201D01*
X82042501Y-70707218D01*
X82043623Y-70718200D01*
X82052346Y-70803599D01*
X82053000Y-70809996D01*
X82053001Y-70809999D01*
X82080433Y-70892781D01*
X82104345Y-70964944D01*
X82108186Y-70976533D01*
X82108187Y-70976536D01*
X82118781Y-70993711D01*
X82200288Y-71125856D01*
X82324344Y-71249912D01*
X82357921Y-71270623D01*
X82385012Y-71293233D01*
X82394294Y-71303552D01*
X82424493Y-71366558D01*
X82415833Y-71435889D01*
X82415832Y-71435893D01*
X82411421Y-71446045D01*
X82389290Y-71480211D01*
X82384622Y-71485326D01*
X82383665Y-71489494D01*
X82375849Y-71501690D01*
X82260089Y-71661021D01*
X82152898Y-71871394D01*
X82079933Y-72095955D01*
X82063898Y-72197200D01*
X82928899Y-72197200D01*
X82995938Y-72216885D01*
X83041693Y-72269689D01*
X83051637Y-72338847D01*
X83050517Y-72345390D01*
X83043000Y-72383181D01*
X83043000Y-72511219D01*
X83046756Y-72530100D01*
X83050517Y-72549010D01*
X83044288Y-72618601D01*
X83001425Y-72673778D01*
X82935535Y-72697022D01*
X82928899Y-72697200D01*
X82063898Y-72697200D01*
X82079896Y-72798212D01*
X82079934Y-72798447D01*
X82146156Y-73002256D01*
X82152898Y-73023004D01*
X82211885Y-73138772D01*
X82260085Y-73233371D01*
X82398866Y-73424386D01*
X82398869Y-73424389D01*
X82565799Y-73591320D01*
X82565819Y-73591338D01*
X82565827Y-73591345D01*
X82586551Y-73606401D01*
X82611864Y-73631001D01*
X82620339Y-73641992D01*
X82645687Y-73707102D01*
X82631811Y-73775580D01*
X82628550Y-73781760D01*
X82591766Y-73824210D01*
X82565815Y-73843063D01*
X82565799Y-73843078D01*
X82398869Y-74010009D01*
X82398869Y-74010010D01*
X82398866Y-74010013D01*
X82342942Y-74086986D01*
X82260085Y-74201027D01*
X82152898Y-74411394D01*
X82152897Y-74411396D01*
X82152897Y-74411397D01*
X82079934Y-74635952D01*
X82063898Y-74737200D01*
X82928899Y-74737200D01*
X82995938Y-74756885D01*
X83041693Y-74809689D01*
X83051637Y-74878847D01*
X83050517Y-74885390D01*
X83043000Y-74923181D01*
X83043000Y-75051219D01*
X83044509Y-75058803D01*
X83050517Y-75089010D01*
X83044288Y-75158601D01*
X83001425Y-75213778D01*
X82935535Y-75237022D01*
X82928899Y-75237200D01*
X82063898Y-75237200D01*
X82078384Y-75328664D01*
X82079934Y-75338447D01*
X82137470Y-75515524D01*
X82152898Y-75563004D01*
X82211885Y-75678772D01*
X82260085Y-75773371D01*
X82398866Y-75964386D01*
X82565813Y-76131333D01*
X82756828Y-76270114D01*
X82967197Y-76377302D01*
X83098782Y-76420057D01*
X83128252Y-76440207D01*
X83191749Y-76450264D01*
X83191752Y-76450265D01*
X83191751Y-76450265D01*
X83424948Y-76487200D01*
X83443000Y-76487200D01*
X83443000Y-75751300D01*
X83462685Y-75684261D01*
X83515489Y-75638506D01*
X83584647Y-75628562D01*
X83591172Y-75629679D01*
X83628981Y-75637200D01*
X83757019Y-75637200D01*
X83794808Y-75629683D01*
X83864399Y-75635910D01*
X83919577Y-75678772D01*
X83942822Y-75744661D01*
X83943000Y-75751300D01*
X83943000Y-76487200D01*
X83961051Y-76487200D01*
X83961052Y-76487200D01*
X84194247Y-76450265D01*
X84418802Y-76377302D01*
X84629171Y-76270114D01*
X84820186Y-76131333D01*
X84987133Y-75964386D01*
X85125914Y-75773371D01*
X85233102Y-75563002D01*
X85306065Y-75338447D01*
X85322102Y-75237200D01*
X85322101Y-75237200D01*
X84457101Y-75237200D01*
X84390062Y-75217515D01*
X84344307Y-75164711D01*
X84334363Y-75095553D01*
X84335483Y-75089010D01*
X84341491Y-75058803D01*
X84343000Y-75051219D01*
X84343000Y-74923181D01*
X84335483Y-74885390D01*
X84341712Y-74815799D01*
X84354844Y-74798894D01*
X135340037Y-74798894D01*
X135383745Y-75018622D01*
X135383746Y-75018626D01*
X135383747Y-75018629D01*
X135383750Y-75018639D01*
X135383753Y-75018647D01*
X135383758Y-75018661D01*
X135459160Y-75200700D01*
X135459165Y-75200709D01*
X135459175Y-75200726D01*
X135568661Y-75364583D01*
X135568662Y-75364584D01*
X135568667Y-75364590D01*
X135708008Y-75503931D01*
X135708014Y-75503936D01*
X135708018Y-75503939D01*
X135871879Y-75613428D01*
X135871892Y-75613435D01*
X135929267Y-75637200D01*
X136048353Y-75686526D01*
X136052762Y-75688612D01*
X136247253Y-75727300D01*
X136444343Y-75727300D01*
X136444344Y-75727300D01*
X136470207Y-75722155D01*
X136574382Y-75701432D01*
X136574383Y-75701432D01*
X136587101Y-75698902D01*
X136637635Y-75688851D01*
X136819714Y-75613432D01*
X136983582Y-75503939D01*
X137122939Y-75364582D01*
X137208172Y-75237022D01*
X137232430Y-75200718D01*
X137232435Y-75200707D01*
X137291209Y-75058813D01*
X137307851Y-75018635D01*
X137333677Y-74888800D01*
X137346300Y-74825343D01*
X137346300Y-74628256D01*
X137346300Y-74628253D01*
X137307612Y-74433762D01*
X137305524Y-74429348D01*
X137302981Y-74423209D01*
X137297997Y-74411175D01*
X137294601Y-74402976D01*
X137294601Y-74402975D01*
X137250135Y-74295625D01*
X137232435Y-74252892D01*
X137232428Y-74252879D01*
X137232424Y-74252872D01*
X137122939Y-74089017D01*
X137122936Y-74089013D01*
X136983590Y-73949667D01*
X136983584Y-73949662D01*
X136983583Y-73949661D01*
X136819726Y-73840175D01*
X136819725Y-73840174D01*
X136819720Y-73840171D01*
X136819707Y-73840164D01*
X136819700Y-73840160D01*
X136637661Y-73764758D01*
X136637647Y-73764753D01*
X136637639Y-73764750D01*
X136637629Y-73764747D01*
X136637626Y-73764746D01*
X136637622Y-73764745D01*
X136444346Y-73726300D01*
X136444343Y-73726300D01*
X136444341Y-73726300D01*
X136247259Y-73726300D01*
X136247257Y-73726300D01*
X136247253Y-73726300D01*
X136053976Y-73764745D01*
X136053970Y-73764747D01*
X136053960Y-73764750D01*
X136053955Y-73764751D01*
X136053937Y-73764758D01*
X135871898Y-73840160D01*
X135871889Y-73840165D01*
X135871872Y-73840175D01*
X135708015Y-73949661D01*
X135708014Y-73949662D01*
X135708008Y-73949667D01*
X135568667Y-74089008D01*
X135568663Y-74089013D01*
X135568661Y-74089017D01*
X135459175Y-74252872D01*
X135459165Y-74252889D01*
X135459160Y-74252898D01*
X135383758Y-74434937D01*
X135383745Y-74434976D01*
X135345300Y-74628251D01*
X135345300Y-74780974D01*
X135340037Y-74798894D01*
X84354844Y-74798894D01*
X84384575Y-74760622D01*
X84450465Y-74737378D01*
X84457101Y-74737200D01*
X85311201Y-74737200D01*
X85322102Y-74737200D01*
X85306956Y-74641573D01*
X85306955Y-74641569D01*
X85306064Y-74635949D01*
X85233102Y-74411397D01*
X85125914Y-74201028D01*
X84987133Y-74010013D01*
X84926780Y-73949660D01*
X84820183Y-73843062D01*
X84820181Y-73843061D01*
X84818701Y-73841986D01*
X84806311Y-73832984D01*
X84799446Y-73827996D01*
X84774140Y-73803405D01*
X84765662Y-73792411D01*
X84740311Y-73727307D01*
X84754182Y-73658830D01*
X84757449Y-73652637D01*
X84794233Y-73610190D01*
X84820180Y-73591339D01*
X84987133Y-73424386D01*
X85125914Y-73233371D01*
X85233102Y-73023002D01*
X85306065Y-72798447D01*
X85322102Y-72697200D01*
X85322101Y-72697200D01*
X84457101Y-72697200D01*
X84390062Y-72677515D01*
X84344307Y-72624711D01*
X84334363Y-72555553D01*
X84335483Y-72549010D01*
X84339244Y-72530100D01*
X84343000Y-72511219D01*
X84343000Y-72383181D01*
X84335483Y-72345390D01*
X84341712Y-72275799D01*
X84384575Y-72220622D01*
X84450465Y-72197378D01*
X84457101Y-72197200D01*
X85322102Y-72197200D01*
X85306065Y-72095952D01*
X85233102Y-71871397D01*
X85125914Y-71661028D01*
X84997641Y-71484476D01*
X84989128Y-71471019D01*
X84985735Y-71464805D01*
X84985736Y-71464805D01*
X84975123Y-71445369D01*
X84960273Y-71377099D01*
X84984690Y-71311636D01*
X84990392Y-71304019D01*
X85024563Y-71272790D01*
X85061656Y-71249912D01*
X85185712Y-71125856D01*
X85277814Y-70976534D01*
X85332999Y-70809997D01*
X85343500Y-70707209D01*
X85343499Y-69107192D01*
X85342572Y-69098121D01*
X85332999Y-69004403D01*
X85332998Y-69004400D01*
X85322700Y-68973323D01*
X85277814Y-68837866D01*
X85185712Y-68688544D01*
X85061656Y-68564488D01*
X84968888Y-68507269D01*
X84912336Y-68472387D01*
X84912331Y-68472385D01*
X84854413Y-68453193D01*
X84847317Y-68450841D01*
X84847316Y-68450841D01*
X84754265Y-68420007D01*
X84751445Y-68418841D01*
X84745792Y-68417199D01*
X84643019Y-68406700D01*
X84643010Y-68406700D01*
X82742998Y-68406700D01*
X82742981Y-68406701D01*
X82728959Y-68408133D01*
X82640198Y-68417200D01*
X82640193Y-68417201D01*
X82640032Y-68417256D01*
X82473667Y-68472385D01*
X82473665Y-68472386D01*
X82473663Y-68472387D01*
X82398764Y-68518585D01*
X82324340Y-68564490D01*
X82200290Y-68688540D01*
X82200289Y-68688542D01*
X82123553Y-68812952D01*
X82108185Y-68837867D01*
X82108178Y-68837885D01*
X82101458Y-68858168D01*
X82101458Y-68858170D01*
X82063299Y-68973323D01*
X82054852Y-68986267D01*
X82053365Y-69000830D01*
X82052968Y-69003844D01*
X82052962Y-69004773D01*
X82042500Y-69107183D01*
X69326719Y-69107183D01*
X69375945Y-69069411D01*
X69399897Y-69045459D01*
X69429004Y-69016353D01*
X69571794Y-68873562D01*
X69571799Y-68873557D01*
X69740414Y-68653813D01*
X69878904Y-68413941D01*
X69984900Y-68158045D01*
X70056588Y-67890502D01*
X70092741Y-67615891D01*
X70092741Y-67338911D01*
X70056588Y-67064300D01*
X69984900Y-66796757D01*
X69878904Y-66540861D01*
X69878902Y-66540858D01*
X69878900Y-66540853D01*
X69878896Y-66540847D01*
X69878783Y-66540573D01*
X69877994Y-66539151D01*
X69876914Y-66537413D01*
X69760102Y-66335090D01*
X69740414Y-66300989D01*
X69693187Y-66239441D01*
X69571806Y-66081253D01*
X69571802Y-66081249D01*
X69571800Y-66081246D01*
X69571794Y-66081239D01*
X69375950Y-65885395D01*
X69375943Y-65885389D01*
X69375940Y-65885386D01*
X69375935Y-65885382D01*
X69156208Y-65716781D01*
X69156206Y-65716780D01*
X69156200Y-65716775D01*
X68916336Y-65578289D01*
X68916325Y-65578284D01*
X68660431Y-65472289D01*
X68392888Y-65400601D01*
X68392882Y-65400600D01*
X68392877Y-65400599D01*
X68122379Y-65364988D01*
X68120363Y-65364654D01*
X68118289Y-65364449D01*
X68118284Y-65364449D01*
X68118279Y-65364449D01*
X67841299Y-65364449D01*
X67841293Y-65364449D01*
X67841288Y-65364449D01*
X67839211Y-65364654D01*
X67837197Y-65364988D01*
X67566699Y-65400599D01*
X67566692Y-65400600D01*
X67566689Y-65400601D01*
X67299146Y-65472289D01*
X67043252Y-65578284D01*
X67043241Y-65578289D01*
X66986548Y-65611021D01*
X66803383Y-65716771D01*
X66803368Y-65716781D01*
X66583641Y-65885382D01*
X66583626Y-65885396D01*
X66583618Y-65885403D01*
X66387791Y-66081230D01*
X66387784Y-66081238D01*
X66387770Y-66081253D01*
X66219169Y-66300980D01*
X66219159Y-66300995D01*
X66143126Y-66432688D01*
X66080677Y-66540853D01*
X66080672Y-66540864D01*
X65974677Y-66796758D01*
X65902990Y-67064300D01*
X65902987Y-67064311D01*
X65872648Y-67294765D01*
X65866838Y-67338900D01*
X65866837Y-67338917D01*
X65258322Y-67338917D01*
X65255546Y-64799285D01*
X114017100Y-64799285D01*
X114017100Y-64799291D01*
X114017100Y-66202293D01*
X114017101Y-66202301D01*
X114017102Y-66202318D01*
X114027578Y-66304870D01*
X114027578Y-66304871D01*
X114027579Y-66304873D01*
X114043592Y-66353196D01*
X114069933Y-66432688D01*
X114081881Y-66468746D01*
X114082646Y-66471053D01*
X114174552Y-66620056D01*
X114298344Y-66743848D01*
X114447347Y-66835754D01*
X114613528Y-66890821D01*
X114716099Y-66901300D01*
X116119100Y-66901299D01*
X116221672Y-66890821D01*
X116387853Y-66835754D01*
X116536856Y-66743848D01*
X116660648Y-66620056D01*
X116752554Y-66471053D01*
X116797611Y-66335076D01*
X116809774Y-66308994D01*
X116824295Y-66285456D01*
X116824587Y-66284982D01*
X116842437Y-66262407D01*
X117384498Y-65720344D01*
X117445821Y-65686860D01*
X117515512Y-65691844D01*
X117571446Y-65733715D01*
X117579565Y-65746025D01*
X117592819Y-65768981D01*
X117597510Y-65777106D01*
X117681294Y-65860890D01*
X117712371Y-65878832D01*
X117760585Y-65929398D01*
X117773809Y-65998005D01*
X117747841Y-66062869D01*
X117738051Y-66073899D01*
X117160085Y-66651864D01*
X117160084Y-66651865D01*
X117160085Y-66651866D01*
X117223843Y-66698188D01*
X117283402Y-66728535D01*
X117420188Y-66798232D01*
X117420191Y-66798233D01*
X117524976Y-66832279D01*
X117629764Y-66866326D01*
X117847419Y-66900800D01*
X118067780Y-66900800D01*
X118067781Y-66900800D01*
X118285435Y-66866326D01*
X118495010Y-66798232D01*
X118691360Y-66698186D01*
X118722518Y-66675547D01*
X118749256Y-66666007D01*
X118755114Y-66651865D01*
X118177147Y-66073900D01*
X118143662Y-66012577D01*
X118148646Y-65942886D01*
X118190517Y-65886952D01*
X118202825Y-65878834D01*
X118233906Y-65860890D01*
X118317690Y-65777106D01*
X118335635Y-65746025D01*
X118386196Y-65697814D01*
X118454803Y-65684590D01*
X118519668Y-65710557D01*
X118530699Y-65720348D01*
X119108665Y-66298314D01*
X119108665Y-66298313D01*
X119108666Y-66298314D01*
X119108666Y-66298313D01*
X119127455Y-66290531D01*
X119128351Y-66287480D01*
X119181155Y-66241725D01*
X119250313Y-66231781D01*
X119290575Y-66244872D01*
X119291139Y-66245170D01*
X119291891Y-66245567D01*
X119334298Y-66282328D01*
X119429347Y-66413152D01*
X119429352Y-66413159D01*
X119429354Y-66413161D01*
X119429363Y-66413171D01*
X119585227Y-66569035D01*
X119585236Y-66569043D01*
X119585260Y-66569061D01*
X119671701Y-66631864D01*
X119671705Y-66631866D01*
X119763578Y-66698615D01*
X119852348Y-66743846D01*
X119882120Y-66759016D01*
X119891975Y-66764037D01*
X119959993Y-66798695D01*
X119959996Y-66798696D01*
X120064821Y-66832755D01*
X120169649Y-66866815D01*
X120387378Y-66901300D01*
X120387379Y-66901300D01*
X120607821Y-66901300D01*
X120607822Y-66901300D01*
X120825551Y-66866815D01*
X121035206Y-66798695D01*
X121231622Y-66698615D01*
X121409965Y-66569042D01*
X121565842Y-66413165D01*
X121695415Y-66234822D01*
X121795495Y-66038406D01*
X121863615Y-65828751D01*
X121898100Y-65611022D01*
X121898100Y-65390578D01*
X121863615Y-65172849D01*
X121829555Y-65068021D01*
X121810100Y-65008143D01*
X121795504Y-64963219D01*
X121795497Y-64963200D01*
X121795497Y-64963199D01*
X121795496Y-64963198D01*
X121795496Y-64963196D01*
X121795495Y-64963193D01*
X121753560Y-64880892D01*
X121753559Y-64880890D01*
X121748955Y-64871855D01*
X121695413Y-64766774D01*
X121613819Y-64654469D01*
X121565847Y-64588441D01*
X121565843Y-64588436D01*
X121565840Y-64588433D01*
X121565837Y-64588429D01*
X121409969Y-64432561D01*
X121409964Y-64432557D01*
X121409963Y-64432556D01*
X121409958Y-64432552D01*
X121371822Y-64404845D01*
X121242230Y-64310691D01*
X121242218Y-64310683D01*
X121231625Y-64302987D01*
X121231624Y-64302986D01*
X121231622Y-64302985D01*
X121225509Y-64299870D01*
X121225498Y-64299863D01*
X121168698Y-64270923D01*
X121168696Y-64270922D01*
X121035206Y-64202904D01*
X121035202Y-64202902D01*
X121035179Y-64202894D01*
X120825554Y-64134785D01*
X120825555Y-64134785D01*
X120716686Y-64117542D01*
X120607827Y-64100300D01*
X120607822Y-64100300D01*
X120387378Y-64100300D01*
X120387374Y-64100300D01*
X120329316Y-64109496D01*
X120314801Y-64111795D01*
X120169643Y-64134785D01*
X119960019Y-64202894D01*
X119959996Y-64202902D01*
X119959992Y-64202904D01*
X119763572Y-64302987D01*
X119585258Y-64432539D01*
X119585232Y-64432559D01*
X119429353Y-64588439D01*
X119379808Y-64656632D01*
X119338086Y-64714058D01*
X119313483Y-64739373D01*
X119302492Y-64747847D01*
X119237381Y-64773191D01*
X119168911Y-64759314D01*
X119162729Y-64756052D01*
X119120280Y-64719269D01*
X119108667Y-64703285D01*
X119108666Y-64703285D01*
X119108665Y-64703285D01*
X119108664Y-64703285D01*
X118530699Y-65281250D01*
X118469376Y-65314735D01*
X118399684Y-65309751D01*
X118343751Y-65267879D01*
X118335634Y-65255574D01*
X118317690Y-65224494D01*
X118233906Y-65140710D01*
X118215922Y-65130327D01*
X118202825Y-65122765D01*
X118154610Y-65072198D01*
X118141388Y-65003591D01*
X118167356Y-64938726D01*
X118177135Y-64927708D01*
X118755113Y-64349732D01*
X118691356Y-64303411D01*
X118665811Y-64290395D01*
X118495010Y-64203366D01*
X118495007Y-64203365D01*
X118285436Y-64135273D01*
X118173486Y-64117542D01*
X118067781Y-64100800D01*
X118067780Y-64100800D01*
X117847414Y-64100800D01*
X117629762Y-64135273D01*
X117420191Y-64203365D01*
X117420188Y-64203366D01*
X117223834Y-64303415D01*
X117223830Y-64303417D01*
X117160085Y-64349731D01*
X117160085Y-64349732D01*
X117738052Y-64927699D01*
X117771537Y-64989022D01*
X117766553Y-65058714D01*
X117724681Y-65114647D01*
X117712374Y-65122766D01*
X117681291Y-65140712D01*
X117597511Y-65224492D01*
X117579566Y-65255574D01*
X117528999Y-65303788D01*
X117460391Y-65317010D01*
X117395527Y-65291042D01*
X117384499Y-65281253D01*
X116842441Y-64739195D01*
X116824585Y-64716613D01*
X116809776Y-64692605D01*
X116797607Y-64666509D01*
X116793617Y-64654469D01*
X116771738Y-64588441D01*
X116771738Y-64588440D01*
X116752557Y-64530554D01*
X116752553Y-64530545D01*
X116745002Y-64518303D01*
X116711785Y-64464449D01*
X116711777Y-64464435D01*
X116678561Y-64410585D01*
X116660650Y-64381547D01*
X116660647Y-64381543D01*
X116536857Y-64257753D01*
X116536856Y-64257752D01*
X116391564Y-64168135D01*
X116387855Y-64165847D01*
X116387852Y-64165845D01*
X116387841Y-64165842D01*
X116221674Y-64110779D01*
X116221679Y-64110779D01*
X116119109Y-64100300D01*
X116119102Y-64100300D01*
X114716106Y-64100300D01*
X114716090Y-64100301D01*
X114716080Y-64100301D01*
X114716080Y-64100302D01*
X114613528Y-64110778D01*
X114613526Y-64110779D01*
X114447356Y-64165842D01*
X114447348Y-64165845D01*
X114447346Y-64165846D01*
X114447344Y-64165847D01*
X114387266Y-64202904D01*
X114298340Y-64257754D01*
X114174554Y-64381540D01*
X114166522Y-64394562D01*
X114090198Y-64518303D01*
X114082645Y-64530548D01*
X114082642Y-64530557D01*
X114027579Y-64696723D01*
X114027578Y-64696728D01*
X114017100Y-64799285D01*
X65255546Y-64799285D01*
X65252754Y-62244892D01*
X65257740Y-62209952D01*
X65262127Y-62194952D01*
X65299835Y-62136137D01*
X65301188Y-62134962D01*
X65356041Y-62107439D01*
X65363633Y-62105781D01*
X65390017Y-62102928D01*
X162316509Y-62052273D01*
X162351448Y-62057279D01*
X162366447Y-62061675D01*
X162425219Y-62099392D01*
X162426395Y-62100747D01*
X162453905Y-62155630D01*
X162455558Y-62163218D01*
X162458400Y-62189612D01*
X162458400Y-68224400D01*
X181379929Y-68224400D01*
X181414856Y-68229421D01*
X181425709Y-68232607D01*
X181484490Y-68270377D01*
X181513519Y-68333931D01*
X181503580Y-68403090D01*
X181503579Y-68403092D01*
X181500394Y-68410067D01*
X181475278Y-68446242D01*
X179041348Y-70880173D01*
X179013097Y-70901322D01*
X178990009Y-70913930D01*
X178930579Y-70929100D01*
X163595770Y-70929100D01*
X163560834Y-70924077D01*
X163535592Y-70916665D01*
X163482847Y-70885369D01*
X157836518Y-65239040D01*
X157815365Y-65210783D01*
X157814682Y-65209533D01*
X157808713Y-65198600D01*
X157793863Y-65130327D01*
X157818274Y-65064874D01*
X157826598Y-65053754D01*
X157851546Y-65028806D01*
X157937941Y-64964132D01*
X158024191Y-64848917D01*
X158074486Y-64714069D01*
X158080895Y-64654459D01*
X158080894Y-62858714D01*
X158074486Y-62799103D01*
X158073205Y-62795669D01*
X158024192Y-62664257D01*
X158024188Y-62664250D01*
X157937942Y-62549041D01*
X157937939Y-62549038D01*
X157937937Y-62549036D01*
X157869036Y-62497457D01*
X157822730Y-62462792D01*
X157822727Y-62462790D01*
X157822725Y-62462789D01*
X157822723Y-62462788D01*
X157687877Y-62412494D01*
X157687878Y-62412494D01*
X157628278Y-62406087D01*
X157628276Y-62406086D01*
X157628268Y-62406086D01*
X157628259Y-62406086D01*
X157627236Y-62406086D01*
X155832518Y-62406086D01*
X155830587Y-62406245D01*
X155828940Y-62406471D01*
X155772911Y-62412494D01*
X155638061Y-62462790D01*
X155638060Y-62462791D01*
X155522851Y-62549036D01*
X155522845Y-62549042D01*
X155436603Y-62664247D01*
X155436595Y-62664259D01*
X155393814Y-62778963D01*
X155376898Y-62809941D01*
X155368581Y-62821051D01*
X155312647Y-62862922D01*
X155242963Y-62867907D01*
X155238480Y-62866932D01*
X155177155Y-62833450D01*
X155070183Y-62726478D01*
X155070181Y-62726476D01*
X154898215Y-62601537D01*
X154795176Y-62549036D01*
X154730640Y-62516153D01*
X154730635Y-62516151D01*
X154708809Y-62505030D01*
X154708808Y-62505029D01*
X154708807Y-62505029D01*
X154611945Y-62473556D01*
X154515469Y-62442209D01*
X154510947Y-62440356D01*
X154501757Y-62438186D01*
X154496994Y-62437812D01*
X154345352Y-62413794D01*
X154325884Y-62410710D01*
X154296685Y-62406086D01*
X154296682Y-62406086D01*
X154084108Y-62406086D01*
X154084104Y-62406086D01*
X154045171Y-62412252D01*
X154035437Y-62413794D01*
X153998049Y-62419715D01*
X153874158Y-62439338D01*
X153671977Y-62505031D01*
X153482577Y-62601535D01*
X153482574Y-62601536D01*
X153482574Y-62601537D01*
X153481984Y-62601966D01*
X153310605Y-62726478D01*
X153160287Y-62876796D01*
X153035340Y-63048774D01*
X153035029Y-63049282D01*
X153033894Y-63050763D01*
X153032480Y-63052711D01*
X153032431Y-63052675D01*
X153019455Y-63069627D01*
X153009748Y-63079905D01*
X152949406Y-63115128D01*
X152879600Y-63112136D01*
X152825883Y-63075964D01*
X152819680Y-63068805D01*
X152807669Y-63052397D01*
X152805448Y-63048773D01*
X152805446Y-63048770D01*
X152805445Y-63048768D01*
X152680504Y-62876799D01*
X152530181Y-62726476D01*
X152358215Y-62601537D01*
X152255176Y-62549036D01*
X152190640Y-62516153D01*
X152190635Y-62516151D01*
X152168809Y-62505030D01*
X152168808Y-62505029D01*
X152168807Y-62505029D01*
X152071945Y-62473556D01*
X151975469Y-62442209D01*
X151970947Y-62440356D01*
X151961757Y-62438186D01*
X151956994Y-62437812D01*
X151805352Y-62413794D01*
X151785884Y-62410710D01*
X151756685Y-62406086D01*
X151756682Y-62406086D01*
X151544108Y-62406086D01*
X151544104Y-62406086D01*
X151505171Y-62412252D01*
X151495437Y-62413794D01*
X151458049Y-62419715D01*
X151334158Y-62439338D01*
X151131977Y-62505031D01*
X150942577Y-62601535D01*
X150942574Y-62601536D01*
X150942574Y-62601537D01*
X150941984Y-62601966D01*
X150770605Y-62726478D01*
X150620287Y-62876796D01*
X150495340Y-63048774D01*
X150495029Y-63049282D01*
X150493894Y-63050763D01*
X150492480Y-63052711D01*
X150492431Y-63052675D01*
X150479455Y-63069627D01*
X150469748Y-63079905D01*
X150409406Y-63115128D01*
X150339600Y-63112136D01*
X150285883Y-63075964D01*
X150279680Y-63068805D01*
X150267669Y-63052397D01*
X150265448Y-63048773D01*
X150265446Y-63048770D01*
X150265445Y-63048768D01*
X150140504Y-62876799D01*
X149990181Y-62726476D01*
X149818215Y-62601537D01*
X149715176Y-62549036D01*
X149650640Y-62516153D01*
X149650635Y-62516151D01*
X149628809Y-62505030D01*
X149628808Y-62505029D01*
X149628807Y-62505029D01*
X149531945Y-62473556D01*
X149435469Y-62442209D01*
X149430947Y-62440356D01*
X149421757Y-62438186D01*
X149416994Y-62437812D01*
X149265352Y-62413794D01*
X149245884Y-62410710D01*
X149216685Y-62406086D01*
X149216682Y-62406086D01*
X149004108Y-62406086D01*
X149004104Y-62406086D01*
X148965171Y-62412252D01*
X148955437Y-62413794D01*
X148918049Y-62419715D01*
X148794158Y-62439338D01*
X148591977Y-62505031D01*
X148402577Y-62601535D01*
X148402574Y-62601536D01*
X148402574Y-62601537D01*
X148401984Y-62601966D01*
X148230605Y-62726478D01*
X148080287Y-62876796D01*
X147955340Y-63048774D01*
X147955029Y-63049282D01*
X147953894Y-63050763D01*
X147952480Y-63052711D01*
X147952431Y-63052675D01*
X147939455Y-63069627D01*
X147929748Y-63079905D01*
X147869406Y-63115128D01*
X147799600Y-63112136D01*
X147745883Y-63075964D01*
X147739680Y-63068805D01*
X147727669Y-63052397D01*
X147725448Y-63048773D01*
X147725446Y-63048770D01*
X147725445Y-63048768D01*
X147600504Y-62876799D01*
X147450181Y-62726476D01*
X147278215Y-62601537D01*
X147175176Y-62549036D01*
X147110640Y-62516153D01*
X147110635Y-62516151D01*
X147088809Y-62505030D01*
X147088808Y-62505029D01*
X147088807Y-62505029D01*
X146991945Y-62473556D01*
X146895469Y-62442209D01*
X146890947Y-62440356D01*
X146881757Y-62438186D01*
X146876994Y-62437812D01*
X146725352Y-62413794D01*
X146705884Y-62410710D01*
X146676685Y-62406086D01*
X146676682Y-62406086D01*
X146464108Y-62406086D01*
X146464104Y-62406086D01*
X146425171Y-62412252D01*
X146415437Y-62413794D01*
X146378049Y-62419715D01*
X146254158Y-62439338D01*
X146051977Y-62505031D01*
X145862577Y-62601535D01*
X145862574Y-62601536D01*
X145862574Y-62601537D01*
X145861984Y-62601966D01*
X145690605Y-62726478D01*
X145540287Y-62876796D01*
X145415340Y-63048774D01*
X145415029Y-63049282D01*
X145413894Y-63050763D01*
X145412480Y-63052711D01*
X145412431Y-63052675D01*
X145399455Y-63069627D01*
X145389748Y-63079905D01*
X145329406Y-63115128D01*
X145259600Y-63112136D01*
X145205883Y-63075964D01*
X145199680Y-63068805D01*
X145187669Y-63052397D01*
X145185448Y-63048773D01*
X145185446Y-63048770D01*
X145185445Y-63048768D01*
X145060504Y-62876799D01*
X144910181Y-62726476D01*
X144738215Y-62601537D01*
X144635176Y-62549036D01*
X144570640Y-62516153D01*
X144570635Y-62516151D01*
X144548809Y-62505030D01*
X144548808Y-62505029D01*
X144548807Y-62505029D01*
X144451945Y-62473556D01*
X144355469Y-62442209D01*
X144350947Y-62440356D01*
X144341757Y-62438186D01*
X144336994Y-62437812D01*
X144185352Y-62413794D01*
X144165884Y-62410710D01*
X144136685Y-62406086D01*
X144136682Y-62406086D01*
X143924108Y-62406086D01*
X143924104Y-62406086D01*
X143885171Y-62412252D01*
X143875437Y-62413794D01*
X143838049Y-62419715D01*
X143714158Y-62439338D01*
X143511977Y-62505031D01*
X143322577Y-62601535D01*
X143322574Y-62601536D01*
X143322574Y-62601537D01*
X143321984Y-62601966D01*
X143150605Y-62726478D01*
X143000281Y-62876802D01*
X142875338Y-63048773D01*
X142874583Y-63050007D01*
X142859008Y-63070354D01*
X142849465Y-63080458D01*
X142789123Y-63115680D01*
X142719317Y-63112686D01*
X142665606Y-63076520D01*
X142663667Y-63074282D01*
X142659499Y-63069472D01*
X142647481Y-63053053D01*
X142645023Y-63049043D01*
X142645021Y-63049038D01*
X142605665Y-62994868D01*
X142605663Y-62994868D01*
X142100097Y-63500435D01*
X142038774Y-63533920D01*
X141969082Y-63528936D01*
X141913149Y-63487064D01*
X141905029Y-63474755D01*
X141890494Y-63449579D01*
X141797402Y-63356487D01*
X141797399Y-63356485D01*
X141797395Y-63356482D01*
X141772223Y-63341949D01*
X141724008Y-63291382D01*
X141710786Y-63222775D01*
X141736754Y-63157910D01*
X141746530Y-63146896D01*
X142252111Y-62641314D01*
X142197945Y-62601961D01*
X142094075Y-62549036D01*
X142008609Y-62505488D01*
X141806525Y-62439828D01*
X141596646Y-62406586D01*
X141596641Y-62406586D01*
X141384149Y-62406586D01*
X141384144Y-62406586D01*
X141183908Y-62438301D01*
X141183900Y-62438301D01*
X141183901Y-62438302D01*
X141174260Y-62439828D01*
X140972179Y-62505489D01*
X140782833Y-62601966D01*
X140728677Y-62641313D01*
X140728677Y-62641314D01*
X141234245Y-63146882D01*
X141267730Y-63208205D01*
X141262746Y-63277897D01*
X141220874Y-63333830D01*
X141208568Y-63341948D01*
X141183391Y-63356484D01*
X141183385Y-63356489D01*
X141090298Y-63449576D01*
X141090293Y-63449582D01*
X141075757Y-63474759D01*
X141025188Y-63522973D01*
X140956580Y-63536193D01*
X140891717Y-63510223D01*
X140880691Y-63500436D01*
X140375123Y-62994868D01*
X140375122Y-62994868D01*
X140335771Y-63049029D01*
X140334781Y-63050646D01*
X140319205Y-63070994D01*
X140309745Y-63081010D01*
X140249402Y-63116232D01*
X140179596Y-63113238D01*
X140125887Y-63077072D01*
X140119810Y-63070058D01*
X140108209Y-63052802D01*
X140107569Y-63053195D01*
X140105025Y-63049044D01*
X140105011Y-63049025D01*
X140065665Y-62994868D01*
X140065663Y-62994868D01*
X139560097Y-63500435D01*
X139498774Y-63533920D01*
X139429082Y-63528936D01*
X139373149Y-63487064D01*
X139365029Y-63474755D01*
X139350494Y-63449579D01*
X139257402Y-63356487D01*
X139257399Y-63356485D01*
X139257395Y-63356482D01*
X139232223Y-63341949D01*
X139184008Y-63291382D01*
X139170786Y-63222775D01*
X139196754Y-63157910D01*
X139206530Y-63146896D01*
X139712111Y-62641314D01*
X139657945Y-62601961D01*
X139554075Y-62549036D01*
X139468609Y-62505488D01*
X139266525Y-62439828D01*
X139056646Y-62406586D01*
X139056641Y-62406586D01*
X138844149Y-62406586D01*
X138844144Y-62406586D01*
X138643908Y-62438301D01*
X138643900Y-62438301D01*
X138643901Y-62438302D01*
X138634260Y-62439828D01*
X138432179Y-62505489D01*
X138242833Y-62601966D01*
X138188677Y-62641313D01*
X138188677Y-62641314D01*
X138694245Y-63146882D01*
X138727730Y-63208205D01*
X138722746Y-63277897D01*
X138680874Y-63333830D01*
X138668568Y-63341948D01*
X138643391Y-63356484D01*
X138643385Y-63356489D01*
X138550298Y-63449576D01*
X138550293Y-63449582D01*
X138535757Y-63474759D01*
X138485188Y-63522973D01*
X138416580Y-63536193D01*
X138351717Y-63510223D01*
X138340691Y-63500436D01*
X137835123Y-62994868D01*
X137835122Y-62994868D01*
X137795775Y-63049024D01*
X137699298Y-63238370D01*
X137633637Y-63440451D01*
X137632193Y-63449576D01*
X137600395Y-63650339D01*
X137600395Y-63862832D01*
X137626255Y-64026105D01*
X137632110Y-64063071D01*
X137632111Y-64063079D01*
X137633637Y-64072719D01*
X137676088Y-64203367D01*
X137699299Y-64274803D01*
X137790800Y-64454381D01*
X137795769Y-64464134D01*
X137795770Y-64464136D01*
X137831069Y-64512723D01*
X137835123Y-64518302D01*
X138340692Y-64012733D01*
X138402014Y-63979249D01*
X138471706Y-63984233D01*
X138527639Y-64026105D01*
X138535758Y-64038414D01*
X138550291Y-64063586D01*
X138550294Y-64063590D01*
X138550296Y-64063593D01*
X138643388Y-64156685D01*
X138668564Y-64171220D01*
X138716779Y-64221788D01*
X138730001Y-64290395D01*
X138704033Y-64355259D01*
X138694244Y-64366288D01*
X138188677Y-64871854D01*
X138188677Y-64871855D01*
X138188677Y-64871856D01*
X138242844Y-64911210D01*
X138432091Y-65007637D01*
X138432179Y-65007682D01*
X138634261Y-65073342D01*
X138634262Y-65073342D01*
X138634265Y-65073343D01*
X138844149Y-65106586D01*
X139056640Y-65106586D01*
X139056641Y-65106586D01*
X139215231Y-65081467D01*
X139256882Y-65074870D01*
X139256888Y-65074869D01*
X139266522Y-65073343D01*
X139266525Y-65073343D01*
X139468612Y-65007681D01*
X139657949Y-64911208D01*
X139665417Y-64905782D01*
X139679516Y-64895539D01*
X139706253Y-64885998D01*
X139712112Y-64871855D01*
X139206544Y-64366288D01*
X139173059Y-64304965D01*
X139178043Y-64235274D01*
X139219914Y-64179340D01*
X139232217Y-64171225D01*
X139257402Y-64156685D01*
X139350494Y-64063593D01*
X139365029Y-64038416D01*
X139415594Y-63990202D01*
X139484200Y-63976977D01*
X139549066Y-64002944D01*
X139560097Y-64012735D01*
X140065664Y-64518303D01*
X140065664Y-64518302D01*
X140065665Y-64518303D01*
X140065665Y-64518302D01*
X140079133Y-64512723D01*
X140085350Y-64491553D01*
X140088347Y-64487103D01*
X140088818Y-64486434D01*
X140105017Y-64464140D01*
X140106232Y-64461755D01*
X140110411Y-64455833D01*
X140112240Y-64454381D01*
X140121567Y-64442195D01*
X140131043Y-64432161D01*
X140191379Y-64396941D01*
X140261185Y-64399931D01*
X140314902Y-64436100D01*
X140320972Y-64443105D01*
X140332602Y-64460356D01*
X140333221Y-64459977D01*
X140335768Y-64464134D01*
X140375122Y-64518301D01*
X140375123Y-64518302D01*
X140880692Y-64012733D01*
X140942014Y-63979249D01*
X141011706Y-63984233D01*
X141067639Y-64026105D01*
X141075758Y-64038414D01*
X141090291Y-64063586D01*
X141090294Y-64063590D01*
X141090296Y-64063593D01*
X141183388Y-64156685D01*
X141208564Y-64171220D01*
X141256779Y-64221788D01*
X141270001Y-64290395D01*
X141244033Y-64355259D01*
X141234244Y-64366288D01*
X140728677Y-64871854D01*
X140728677Y-64871855D01*
X140728677Y-64871856D01*
X140782844Y-64911210D01*
X140972091Y-65007637D01*
X140972179Y-65007682D01*
X141174261Y-65073342D01*
X141174262Y-65073342D01*
X141174265Y-65073343D01*
X141384149Y-65106586D01*
X141596640Y-65106586D01*
X141596641Y-65106586D01*
X141755231Y-65081467D01*
X141796882Y-65074870D01*
X141796888Y-65074869D01*
X141806522Y-65073343D01*
X141806525Y-65073343D01*
X142008612Y-65007681D01*
X142197949Y-64911208D01*
X142205417Y-64905782D01*
X142219516Y-64895539D01*
X142246253Y-64885998D01*
X142252112Y-64871855D01*
X141746544Y-64366288D01*
X141713059Y-64304965D01*
X141718043Y-64235274D01*
X141759914Y-64179340D01*
X141772217Y-64171225D01*
X141797402Y-64156685D01*
X141890494Y-64063593D01*
X141905029Y-64038416D01*
X141955594Y-63990202D01*
X142024200Y-63976977D01*
X142089066Y-64002944D01*
X142100097Y-64012735D01*
X142605664Y-64518303D01*
X142605664Y-64518302D01*
X142605665Y-64518303D01*
X142605665Y-64518302D01*
X142619133Y-64512723D01*
X142625350Y-64491554D01*
X142628452Y-64486955D01*
X142628869Y-64486365D01*
X142645017Y-64464141D01*
X142646089Y-64462036D01*
X142650071Y-64456411D01*
X142651916Y-64454951D01*
X142661128Y-64442913D01*
X142670758Y-64432717D01*
X142731098Y-64397493D01*
X142800903Y-64400483D01*
X142854622Y-64436652D01*
X142860692Y-64443657D01*
X142872147Y-64460642D01*
X142872796Y-64460245D01*
X142875339Y-64464395D01*
X142875342Y-64464399D01*
X142875344Y-64464403D01*
X143000285Y-64636372D01*
X143000287Y-64636374D01*
X143150611Y-64786698D01*
X143322564Y-64911628D01*
X143322595Y-64911646D01*
X143322837Y-64911768D01*
X143511983Y-65008143D01*
X143714152Y-65073832D01*
X143924108Y-65107086D01*
X143924109Y-65107086D01*
X144136681Y-65107086D01*
X144136682Y-65107086D01*
X144346638Y-65073832D01*
X144548807Y-65008143D01*
X144738211Y-64911637D01*
X144824533Y-64848921D01*
X144910181Y-64786695D01*
X144910183Y-64786692D01*
X144910187Y-64786690D01*
X144910194Y-64786682D01*
X144910244Y-64786647D01*
X144911000Y-64785876D01*
X145060499Y-64636378D01*
X145060501Y-64636374D01*
X145060504Y-64636372D01*
X145169481Y-64486375D01*
X145185446Y-64464402D01*
X145186445Y-64462440D01*
X145190339Y-64456950D01*
X145192194Y-64455484D01*
X145201335Y-64443541D01*
X145211045Y-64433260D01*
X145271389Y-64398041D01*
X145341194Y-64401036D01*
X145394904Y-64437204D01*
X145401096Y-64444350D01*
X145413081Y-64460714D01*
X145415348Y-64464410D01*
X145540281Y-64636368D01*
X145690611Y-64786698D01*
X145862564Y-64911628D01*
X145862595Y-64911646D01*
X145862837Y-64911768D01*
X146051983Y-65008143D01*
X146254152Y-65073832D01*
X146464108Y-65107086D01*
X146464109Y-65107086D01*
X146676681Y-65107086D01*
X146676682Y-65107086D01*
X146886638Y-65073832D01*
X147088807Y-65008143D01*
X147278211Y-64911637D01*
X147364533Y-64848921D01*
X147450181Y-64786695D01*
X147450183Y-64786692D01*
X147450187Y-64786690D01*
X147450194Y-64786682D01*
X147450244Y-64786647D01*
X147451000Y-64785876D01*
X147600499Y-64636378D01*
X147600501Y-64636374D01*
X147600504Y-64636372D01*
X147709481Y-64486375D01*
X147725446Y-64464402D01*
X147726445Y-64462440D01*
X147730339Y-64456950D01*
X147732194Y-64455484D01*
X147741335Y-64443541D01*
X147751045Y-64433260D01*
X147811389Y-64398041D01*
X147881194Y-64401036D01*
X147934904Y-64437204D01*
X147941096Y-64444350D01*
X147953081Y-64460714D01*
X147955348Y-64464410D01*
X148080281Y-64636368D01*
X148080285Y-64636372D01*
X148230608Y-64786695D01*
X148382967Y-64897388D01*
X148402579Y-64911637D01*
X148419863Y-64920443D01*
X148424739Y-64923530D01*
X148427871Y-64927095D01*
X148443552Y-64938149D01*
X148455968Y-64949875D01*
X148490520Y-65007636D01*
X148493997Y-65020491D01*
X148498300Y-65052869D01*
X148498300Y-65442637D01*
X148493275Y-65477581D01*
X148488870Y-65492579D01*
X148451099Y-65551347D01*
X148443082Y-65558294D01*
X148400889Y-65582286D01*
X148379467Y-65589385D01*
X148379464Y-65589386D01*
X148379463Y-65589387D01*
X148379460Y-65589389D01*
X148230140Y-65681490D01*
X148106090Y-65805540D01*
X148091773Y-65828752D01*
X148021343Y-65942938D01*
X148013986Y-65954865D01*
X148013977Y-65954891D01*
X148004727Y-65982807D01*
X148004727Y-65982809D01*
X147969099Y-66090323D01*
X147960652Y-66103267D01*
X147959165Y-66117830D01*
X147958342Y-66124081D01*
X147958159Y-66127676D01*
X147948300Y-66224173D01*
X147948300Y-67024198D01*
X147948303Y-67024245D01*
X147953058Y-67070788D01*
X147958800Y-67126996D01*
X147958801Y-67126999D01*
X148010137Y-67281918D01*
X148013986Y-67293534D01*
X148074172Y-67391112D01*
X148105691Y-67442213D01*
X148106088Y-67442856D01*
X148187142Y-67523910D01*
X148208294Y-67552166D01*
X148215786Y-67565887D01*
X148230638Y-67634147D01*
X148230509Y-67635953D01*
X148211138Y-67694160D01*
X148206956Y-67700667D01*
X148190324Y-67721305D01*
X148136856Y-67774774D01*
X148108603Y-67795925D01*
X148085518Y-67808531D01*
X148026089Y-67823700D01*
X147679553Y-67823700D01*
X147524927Y-67854457D01*
X147524896Y-67854464D01*
X147379233Y-67914798D01*
X147379224Y-67914803D01*
X147379207Y-67914813D01*
X147248108Y-68002411D01*
X147248107Y-68002412D01*
X147248101Y-68002417D01*
X144116348Y-71134173D01*
X144088097Y-71155322D01*
X144065009Y-71167930D01*
X144005579Y-71183100D01*
X143989738Y-71183100D01*
X143954803Y-71178077D01*
X143939549Y-71173598D01*
X143881089Y-71136188D01*
X143872656Y-71126533D01*
X143864857Y-71117603D01*
X143852714Y-71101133D01*
X143802871Y-71020325D01*
X143768712Y-70964944D01*
X143644656Y-70840888D01*
X143495334Y-70748786D01*
X143337265Y-70696407D01*
X143334445Y-70695241D01*
X143328792Y-70693599D01*
X143226019Y-70683100D01*
X143226010Y-70683100D01*
X142025998Y-70683100D01*
X142025981Y-70683101D01*
X142011959Y-70684533D01*
X141923198Y-70693600D01*
X141923193Y-70693601D01*
X141923032Y-70693656D01*
X141756667Y-70748785D01*
X141756665Y-70748786D01*
X141756663Y-70748787D01*
X141657429Y-70809995D01*
X141607340Y-70840890D01*
X141483288Y-70964942D01*
X141459935Y-71002805D01*
X141399398Y-71100952D01*
X141386936Y-71117787D01*
X141370197Y-71136803D01*
X141311592Y-71173984D01*
X141296983Y-71178212D01*
X141262511Y-71183100D01*
X128411755Y-71183100D01*
X128376816Y-71178076D01*
X128363498Y-71174165D01*
X128304721Y-71136389D01*
X128275699Y-71072834D01*
X128275503Y-71071474D01*
X128275224Y-71069529D01*
X128279764Y-71014397D01*
X128280363Y-71012509D01*
X128288070Y-70993717D01*
X128354336Y-70863662D01*
X128355272Y-70862065D01*
X128357071Y-70858352D01*
X128358060Y-70856360D01*
X128359121Y-70852598D01*
X128362926Y-70840890D01*
X128420877Y-70662534D01*
X128452900Y-70460352D01*
X128452900Y-70255648D01*
X128420877Y-70053465D01*
X128376674Y-69917423D01*
X128359123Y-69863406D01*
X128358060Y-69859639D01*
X128357052Y-69857610D01*
X128355266Y-69853923D01*
X128354333Y-69852329D01*
X128311915Y-69769080D01*
X128298708Y-69743160D01*
X128264687Y-69676390D01*
X128240102Y-69642551D01*
X128213839Y-69606402D01*
X128213836Y-69606399D01*
X128210018Y-69601144D01*
X128144371Y-69510786D01*
X127999613Y-69366028D01*
X127999612Y-69366027D01*
X127999611Y-69366026D01*
X127930537Y-69315842D01*
X133847500Y-69315842D01*
X133847500Y-69520556D01*
X133879503Y-69722617D01*
X133879522Y-69722734D01*
X133898794Y-69782046D01*
X133942780Y-69917421D01*
X133942781Y-69917423D01*
X133993041Y-70016062D01*
X133993041Y-70016064D01*
X133993042Y-70016064D01*
X134035537Y-70099465D01*
X134035715Y-70099814D01*
X134156026Y-70265411D01*
X134156028Y-70265413D01*
X134300786Y-70410171D01*
X134417407Y-70494899D01*
X134417410Y-70494902D01*
X134465801Y-70530059D01*
X134466390Y-70530487D01*
X134582607Y-70589703D01*
X134642327Y-70620132D01*
X134642326Y-70620132D01*
X134646600Y-70622309D01*
X134647867Y-70622955D01*
X134649650Y-70623863D01*
X134653403Y-70624922D01*
X134693488Y-70637946D01*
X134753135Y-70657326D01*
X134753136Y-70657327D01*
X134769162Y-70662534D01*
X134843465Y-70686677D01*
X134942432Y-70702352D01*
X135045648Y-70718700D01*
X135045649Y-70718700D01*
X135250351Y-70718700D01*
X135250352Y-70718700D01*
X135452534Y-70686677D01*
X135647219Y-70623420D01*
X135829610Y-70530487D01*
X135926138Y-70460356D01*
X135928580Y-70458582D01*
X135928580Y-70458581D01*
X135928581Y-70458581D01*
X135995213Y-70410171D01*
X135995215Y-70410168D01*
X135995219Y-70410166D01*
X135995221Y-70410163D01*
X135995274Y-70410125D01*
X135996032Y-70409352D01*
X136139966Y-70265419D01*
X136139968Y-70265415D01*
X136139971Y-70265413D01*
X136212544Y-70165523D01*
X136260283Y-70099816D01*
X136260283Y-70099815D01*
X136260284Y-70099814D01*
X136260286Y-70099811D01*
X136260415Y-70099559D01*
X136279701Y-70061705D01*
X136300038Y-70032857D01*
X136308932Y-70023440D01*
X136369276Y-69988221D01*
X136439081Y-69991217D01*
X136492787Y-70027382D01*
X136498862Y-70034392D01*
X136515631Y-70059297D01*
X136536142Y-70099553D01*
X136536143Y-70099554D01*
X136536147Y-70099560D01*
X136568517Y-70144114D01*
X136568521Y-70144119D01*
X136568523Y-70144121D01*
X136568524Y-70144122D01*
X137111503Y-69601142D01*
X137172824Y-69567659D01*
X137242515Y-69572643D01*
X137298449Y-69614514D01*
X137306567Y-69626822D01*
X137327920Y-69663806D01*
X137402394Y-69738280D01*
X137402395Y-69738281D01*
X137402397Y-69738282D01*
X137439373Y-69759630D01*
X137487588Y-69810196D01*
X137500812Y-69878803D01*
X137474844Y-69943668D01*
X137465054Y-69954698D01*
X136922075Y-70497673D01*
X136922076Y-70497673D01*
X136922076Y-70497674D01*
X136966650Y-70530059D01*
X137052786Y-70573947D01*
X137148963Y-70622953D01*
X137148965Y-70622953D01*
X137148968Y-70622955D01*
X137343582Y-70686190D01*
X137545683Y-70718200D01*
X137750316Y-70718200D01*
X137750317Y-70718200D01*
X137952417Y-70686190D01*
X138147031Y-70622955D01*
X138152572Y-70620132D01*
X138329347Y-70530060D01*
X138329346Y-70530060D01*
X138329349Y-70530059D01*
X138373921Y-70497674D01*
X137830945Y-69954698D01*
X137797460Y-69893375D01*
X137802444Y-69823683D01*
X137844316Y-69767750D01*
X137856618Y-69759634D01*
X137893606Y-69738280D01*
X137968080Y-69663806D01*
X137989429Y-69626827D01*
X138039994Y-69578613D01*
X138108600Y-69565388D01*
X138173466Y-69591355D01*
X138184497Y-69601146D01*
X138727473Y-70144122D01*
X138727473Y-70144121D01*
X138727474Y-70144122D01*
X138727474Y-70144121D01*
X138740943Y-70138542D01*
X138747159Y-70117374D01*
X138751159Y-70111524D01*
X138759857Y-70099552D01*
X138759902Y-70099465D01*
X138852755Y-69917231D01*
X138915990Y-69722617D01*
X138948000Y-69520517D01*
X138948000Y-69315882D01*
X138915990Y-69113782D01*
X138852755Y-68919168D01*
X138852753Y-68919165D01*
X138852753Y-68919163D01*
X138759859Y-68736850D01*
X138759659Y-68736575D01*
X138751155Y-68724871D01*
X138741615Y-68698133D01*
X138727473Y-68692275D01*
X138184497Y-69235253D01*
X138123174Y-69268738D01*
X138053483Y-69263754D01*
X137997549Y-69221883D01*
X137989430Y-69209574D01*
X137968080Y-69172594D01*
X137893606Y-69098120D01*
X137856625Y-69076769D01*
X137808410Y-69026203D01*
X137795186Y-68957596D01*
X137821154Y-68892731D01*
X137830936Y-68881709D01*
X138373922Y-68338724D01*
X138373921Y-68338723D01*
X138373920Y-68338722D01*
X138373919Y-68338721D01*
X138373914Y-68338717D01*
X138329360Y-68306347D01*
X138329357Y-68306344D01*
X138258767Y-68270377D01*
X138147031Y-68213444D01*
X137952417Y-68150209D01*
X137952411Y-68150208D01*
X137750322Y-68118200D01*
X137750317Y-68118200D01*
X137545683Y-68118200D01*
X137545678Y-68118200D01*
X137343587Y-68150208D01*
X137343585Y-68150208D01*
X137343582Y-68150209D01*
X137246275Y-68181826D01*
X137148963Y-68213445D01*
X136966640Y-68306345D01*
X136922077Y-68338722D01*
X136922077Y-68338723D01*
X136922077Y-68338724D01*
X137250166Y-68666813D01*
X137465055Y-68881701D01*
X137498540Y-68943024D01*
X137493556Y-69012715D01*
X137451685Y-69068649D01*
X137439374Y-69076769D01*
X137402397Y-69098117D01*
X137402392Y-69098121D01*
X137327921Y-69172592D01*
X137327915Y-69172600D01*
X137306568Y-69209574D01*
X137256001Y-69257789D01*
X137187393Y-69271011D01*
X137122529Y-69245043D01*
X137111501Y-69235254D01*
X136568524Y-68692277D01*
X136568523Y-68692277D01*
X136568522Y-68692277D01*
X136536143Y-68736842D01*
X136536140Y-68736847D01*
X136516858Y-68774692D01*
X136496523Y-68803539D01*
X136487633Y-68812952D01*
X136427291Y-68848175D01*
X136357486Y-68845183D01*
X136303766Y-68809009D01*
X136297695Y-68802002D01*
X136280927Y-68777099D01*
X136279701Y-68774692D01*
X136260415Y-68736842D01*
X136260296Y-68736606D01*
X136260285Y-68736587D01*
X136260284Y-68736585D01*
X136260283Y-68736583D01*
X136260278Y-68736575D01*
X136139974Y-68570989D01*
X135995211Y-68426226D01*
X135840209Y-68313613D01*
X135840205Y-68313610D01*
X135829613Y-68305915D01*
X135829612Y-68305914D01*
X135829610Y-68305913D01*
X135794753Y-68288152D01*
X135772654Y-68276891D01*
X135772653Y-68276891D01*
X135647223Y-68212981D01*
X135452534Y-68149722D01*
X135452532Y-68149721D01*
X135452530Y-68149721D01*
X135452529Y-68149720D01*
X135277995Y-68122078D01*
X135261409Y-68119451D01*
X135250354Y-68117700D01*
X135250352Y-68117700D01*
X135045648Y-68117700D01*
X135045647Y-68117700D01*
X135021327Y-68121551D01*
X135021326Y-68121550D01*
X134843468Y-68149721D01*
X134648777Y-68212980D01*
X134648764Y-68212986D01*
X134466397Y-68305908D01*
X134466385Y-68305915D01*
X134300787Y-68426227D01*
X134300784Y-68426229D01*
X134156029Y-68570984D01*
X134156027Y-68570987D01*
X134035715Y-68736585D01*
X134035708Y-68736597D01*
X133942786Y-68918964D01*
X133942780Y-68918977D01*
X133879521Y-69113668D01*
X133847500Y-69315842D01*
X127930537Y-69315842D01*
X127844602Y-69253408D01*
X127844599Y-69253406D01*
X127834013Y-69245715D01*
X127834012Y-69245714D01*
X127834010Y-69245713D01*
X127827935Y-69242617D01*
X127827931Y-69242615D01*
X127742547Y-69199110D01*
X127742547Y-69199109D01*
X127742545Y-69199109D01*
X127651628Y-69152783D01*
X127651621Y-69152780D01*
X127531238Y-69113665D01*
X127456934Y-69089522D01*
X127456932Y-69089521D01*
X127456930Y-69089521D01*
X127456929Y-69089520D01*
X127282395Y-69061878D01*
X127265809Y-69059251D01*
X127254754Y-69057500D01*
X127254752Y-69057500D01*
X127050048Y-69057500D01*
X127050047Y-69057500D01*
X127025727Y-69061351D01*
X127025726Y-69061350D01*
X126847868Y-69089521D01*
X126653177Y-69152780D01*
X126653164Y-69152786D01*
X126470797Y-69245708D01*
X126470785Y-69245715D01*
X126305187Y-69366027D01*
X126305184Y-69366029D01*
X126160429Y-69510784D01*
X126160427Y-69510787D01*
X126040115Y-69676385D01*
X126040111Y-69676392D01*
X126000977Y-69753196D01*
X125980638Y-69782046D01*
X125971747Y-69791459D01*
X125911403Y-69826679D01*
X125841598Y-69823683D01*
X125787889Y-69787516D01*
X125781817Y-69780508D01*
X125765049Y-69755605D01*
X125749302Y-69724700D01*
X125724687Y-69676390D01*
X125700102Y-69642551D01*
X125673839Y-69606402D01*
X125673836Y-69606399D01*
X125670018Y-69601144D01*
X125604371Y-69510786D01*
X125459613Y-69366028D01*
X125459612Y-69366027D01*
X125459611Y-69366026D01*
X125304602Y-69253408D01*
X125304599Y-69253406D01*
X125294013Y-69245715D01*
X125294012Y-69245714D01*
X125294010Y-69245713D01*
X125287935Y-69242617D01*
X125287931Y-69242615D01*
X125202547Y-69199110D01*
X125202547Y-69199109D01*
X125202545Y-69199109D01*
X125111628Y-69152783D01*
X125111621Y-69152780D01*
X124991238Y-69113665D01*
X124916934Y-69089522D01*
X124916932Y-69089521D01*
X124916930Y-69089521D01*
X124916929Y-69089520D01*
X124742395Y-69061878D01*
X124725809Y-69059251D01*
X124714754Y-69057500D01*
X124714752Y-69057500D01*
X124510048Y-69057500D01*
X124510047Y-69057500D01*
X124485727Y-69061351D01*
X124485726Y-69061350D01*
X124307868Y-69089521D01*
X124113177Y-69152780D01*
X124113164Y-69152786D01*
X123930797Y-69245708D01*
X123930785Y-69245715D01*
X123765187Y-69366027D01*
X123765184Y-69366029D01*
X123620429Y-69510784D01*
X123620427Y-69510787D01*
X123500115Y-69676385D01*
X123500108Y-69676397D01*
X123407186Y-69858764D01*
X123407180Y-69858777D01*
X123343921Y-70053468D01*
X123311900Y-70255642D01*
X123311900Y-70460356D01*
X123337727Y-70623420D01*
X123343922Y-70662534D01*
X123361009Y-70715121D01*
X123407180Y-70857221D01*
X123407183Y-70857229D01*
X123473264Y-70986916D01*
X123484649Y-71020325D01*
X123487211Y-71033967D01*
X123480239Y-71103488D01*
X123436787Y-71158203D01*
X123436785Y-71158204D01*
X123434057Y-71160127D01*
X123382938Y-71181100D01*
X123380994Y-71181423D01*
X123360670Y-71183100D01*
X118970953Y-71183100D01*
X118816327Y-71213857D01*
X118816296Y-71213864D01*
X118670633Y-71274198D01*
X118670624Y-71274203D01*
X118670607Y-71274213D01*
X118539508Y-71361811D01*
X118539507Y-71361812D01*
X118539501Y-71361817D01*
X117816607Y-72084712D01*
X117797816Y-72100134D01*
X117777890Y-72113448D01*
X117756453Y-72124906D01*
X117632657Y-72176183D01*
X117632649Y-72176188D01*
X117485158Y-72274740D01*
X117485155Y-72274742D01*
X117359742Y-72400155D01*
X117359737Y-72400161D01*
X117359736Y-72400162D01*
X117261194Y-72547639D01*
X117261185Y-72547654D01*
X117261177Y-72547672D01*
X117193309Y-72711522D01*
X117193301Y-72711545D01*
X117193299Y-72711552D01*
X117158700Y-72885499D01*
X117158700Y-73062896D01*
X117193299Y-73236846D01*
X117193301Y-73236853D01*
X117193309Y-73236876D01*
X117250111Y-73374009D01*
X117261183Y-73400740D01*
X117261189Y-73400752D01*
X117261194Y-73400759D01*
X117359736Y-73548236D01*
X117359737Y-73548237D01*
X117359742Y-73548243D01*
X117485155Y-73673656D01*
X117485161Y-73673661D01*
X117485165Y-73673664D01*
X117632646Y-73772209D01*
X117632659Y-73772216D01*
X117752815Y-73821985D01*
X117796534Y-73840094D01*
X117796536Y-73840094D01*
X117796541Y-73840096D01*
X117962880Y-73873182D01*
X117965603Y-73873904D01*
X117970506Y-73874700D01*
X118147893Y-73874700D01*
X118152014Y-73874700D01*
X118159867Y-73872317D01*
X118205882Y-73863164D01*
X118205883Y-73863164D01*
X118321853Y-73840097D01*
X118321853Y-73840096D01*
X118321858Y-73840096D01*
X118321861Y-73840094D01*
X118321866Y-73840094D01*
X118325054Y-73838773D01*
X118333035Y-73835473D01*
X118333076Y-73835451D01*
X118485740Y-73772216D01*
X118485740Y-73772215D01*
X118485747Y-73772213D01*
X118633235Y-73673664D01*
X118758664Y-73548235D01*
X118857213Y-73400747D01*
X118908494Y-73276936D01*
X118919952Y-73255501D01*
X118933262Y-73235580D01*
X118948677Y-73216798D01*
X119332454Y-72833023D01*
X119360704Y-72811875D01*
X119383796Y-72799267D01*
X119443221Y-72784100D01*
X124154981Y-72784100D01*
X124179165Y-72786481D01*
X124202674Y-72791157D01*
X124225920Y-72798209D01*
X124349734Y-72849494D01*
X124349735Y-72849494D01*
X124349736Y-72849494D01*
X124349741Y-72849496D01*
X124516080Y-72882582D01*
X124518803Y-72883304D01*
X124523706Y-72884100D01*
X124701093Y-72884100D01*
X124705214Y-72884100D01*
X124713067Y-72881717D01*
X124759082Y-72872564D01*
X124759083Y-72872564D01*
X124788076Y-72866797D01*
X124875058Y-72849496D01*
X124875061Y-72849494D01*
X124875066Y-72849494D01*
X124877280Y-72848577D01*
X124886228Y-72844876D01*
X124886270Y-72844853D01*
X124998879Y-72798209D01*
X125022125Y-72791157D01*
X125045633Y-72786481D01*
X125069819Y-72784100D01*
X141262262Y-72784100D01*
X141297190Y-72789120D01*
X141312447Y-72793600D01*
X141370906Y-72831006D01*
X141385636Y-72847871D01*
X141385636Y-72847870D01*
X141387142Y-72849594D01*
X141399287Y-72866068D01*
X141483288Y-73002256D01*
X141607344Y-73126312D01*
X141756666Y-73218414D01*
X141821646Y-73239946D01*
X141853227Y-73255703D01*
X141863957Y-73263132D01*
X141907870Y-73317477D01*
X141915431Y-73386936D01*
X141888001Y-73445214D01*
X141882108Y-73452173D01*
X141860364Y-73472358D01*
X141778806Y-73531613D01*
X141778782Y-73531631D01*
X141634025Y-73676389D01*
X141513715Y-73841985D01*
X141513708Y-73841997D01*
X141420786Y-74024364D01*
X141420780Y-74024377D01*
X141357521Y-74219068D01*
X141357520Y-74219069D01*
X141327095Y-74411174D01*
X141327095Y-74411178D01*
X141325500Y-74421248D01*
X141325500Y-74421249D01*
X141325500Y-74421252D01*
X141325500Y-74625955D01*
X141327082Y-74635947D01*
X141357080Y-74825343D01*
X141357522Y-74828134D01*
X141377234Y-74888800D01*
X141420780Y-75022821D01*
X141420783Y-75022828D01*
X141483753Y-75146410D01*
X141511425Y-75200720D01*
X141513714Y-75205211D01*
X141513717Y-75205216D01*
X141536825Y-75237022D01*
X141634028Y-75370813D01*
X141778786Y-75515571D01*
X141913483Y-75613432D01*
X141944390Y-75635887D01*
X141944392Y-75635888D01*
X141944395Y-75635890D01*
X142021193Y-75675020D01*
X142050045Y-75695360D01*
X142059459Y-75704252D01*
X142094679Y-75764596D01*
X142091683Y-75834401D01*
X142055521Y-75888105D01*
X142048519Y-75894173D01*
X142023606Y-75910950D01*
X141944387Y-75951314D01*
X141944385Y-75951315D01*
X141778787Y-76071627D01*
X141778784Y-76071629D01*
X141634029Y-76216384D01*
X141634027Y-76216387D01*
X141513715Y-76381985D01*
X141513708Y-76381997D01*
X141420786Y-76564364D01*
X141420781Y-76564374D01*
X141420781Y-76564376D01*
X141418167Y-76572422D01*
X141357523Y-76759060D01*
X141357521Y-76759067D01*
X141336972Y-76888816D01*
X141336972Y-76888817D01*
X141325500Y-76961248D01*
X141325500Y-77165953D01*
X141329878Y-77193592D01*
X141329878Y-77193595D01*
X141357520Y-77368129D01*
X141357521Y-77368130D01*
X141357522Y-77368134D01*
X141419710Y-77559528D01*
X141420782Y-77562825D01*
X141484691Y-77688253D01*
X141511422Y-77740714D01*
X141513713Y-77745211D01*
X141513715Y-77745213D01*
X141634006Y-77910783D01*
X141634027Y-77910811D01*
X141634029Y-77910814D01*
X141778789Y-78055574D01*
X141944375Y-78175878D01*
X141944383Y-78175883D01*
X141944385Y-78175884D01*
X141944387Y-78175885D01*
X141944388Y-78175886D01*
X141944406Y-78175896D01*
X141944650Y-78176019D01*
X141993697Y-78201010D01*
X142021746Y-78215302D01*
X142050597Y-78235642D01*
X142060009Y-78244532D01*
X142095228Y-78304875D01*
X142092233Y-78374681D01*
X142056066Y-78428390D01*
X142049062Y-78434459D01*
X142024154Y-78451231D01*
X141944642Y-78491744D01*
X141944633Y-78491750D01*
X141900077Y-78524122D01*
X141900077Y-78524123D01*
X141900077Y-78524124D01*
X142227070Y-78851117D01*
X142443055Y-79067101D01*
X142476540Y-79128424D01*
X142471556Y-79198115D01*
X142429685Y-79254049D01*
X142417374Y-79262169D01*
X142380397Y-79283517D01*
X142380392Y-79283521D01*
X142305921Y-79357992D01*
X142305915Y-79358000D01*
X142284568Y-79394974D01*
X142234001Y-79443189D01*
X142165393Y-79456411D01*
X142100529Y-79430443D01*
X142089501Y-79420654D01*
X141546524Y-78877677D01*
X141546523Y-78877677D01*
X141546522Y-78877677D01*
X141514145Y-78922240D01*
X141421245Y-79104563D01*
X141397535Y-79177536D01*
X141358009Y-79299182D01*
X141358008Y-79299185D01*
X141358008Y-79299187D01*
X141326000Y-79501276D01*
X141326000Y-79705922D01*
X141358008Y-79908011D01*
X141358009Y-79908017D01*
X141421244Y-80102631D01*
X141460699Y-80180065D01*
X141514144Y-80284957D01*
X141514147Y-80284960D01*
X141546517Y-80329514D01*
X141546521Y-80329519D01*
X141546523Y-80329521D01*
X141546524Y-80329522D01*
X142089503Y-79786542D01*
X142150824Y-79753059D01*
X142220515Y-79758043D01*
X142276449Y-79799914D01*
X142284567Y-79812222D01*
X142305920Y-79849206D01*
X142380394Y-79923680D01*
X142380395Y-79923681D01*
X142380397Y-79923682D01*
X142417373Y-79945030D01*
X142465588Y-79995596D01*
X142478812Y-80064203D01*
X142452844Y-80129068D01*
X142443054Y-80140098D01*
X141900075Y-80683073D01*
X141900076Y-80683073D01*
X141900076Y-80683074D01*
X141944650Y-80715459D01*
X142030786Y-80759347D01*
X142126963Y-80808353D01*
X142126965Y-80808353D01*
X142126968Y-80808355D01*
X142321582Y-80871590D01*
X142523683Y-80903600D01*
X142728316Y-80903600D01*
X142728317Y-80903600D01*
X142930417Y-80871590D01*
X143125031Y-80808355D01*
X143130572Y-80805532D01*
X143307347Y-80715460D01*
X143307346Y-80715460D01*
X143307349Y-80715459D01*
X143351921Y-80683074D01*
X142808945Y-80140098D01*
X142775460Y-80078775D01*
X142780444Y-80009083D01*
X142822316Y-79953150D01*
X142834618Y-79945034D01*
X142871606Y-79923680D01*
X142946080Y-79849206D01*
X142967429Y-79812227D01*
X143017994Y-79764013D01*
X143086600Y-79750788D01*
X143151466Y-79776755D01*
X143162497Y-79786546D01*
X143705473Y-80329522D01*
X143705473Y-80329521D01*
X143705474Y-80329522D01*
X143705474Y-80329521D01*
X143718943Y-80323942D01*
X143725159Y-80302774D01*
X143729159Y-80296924D01*
X143737857Y-80284952D01*
X143737897Y-80284875D01*
X143823805Y-80116271D01*
X143830753Y-80102635D01*
X143830753Y-80102634D01*
X143830755Y-80102631D01*
X143893990Y-79908017D01*
X143926000Y-79705917D01*
X143926000Y-79501282D01*
X143893990Y-79299182D01*
X143830755Y-79104568D01*
X143830753Y-79104565D01*
X143830753Y-79104563D01*
X143737859Y-78922250D01*
X143731571Y-78913596D01*
X143729155Y-78910271D01*
X143719615Y-78883533D01*
X143705473Y-78877675D01*
X143162497Y-79420653D01*
X143101174Y-79454138D01*
X143031483Y-79449154D01*
X142975549Y-79407283D01*
X142967430Y-79394974D01*
X142946080Y-79357994D01*
X142871606Y-79283520D01*
X142834625Y-79262169D01*
X142786410Y-79211603D01*
X142773186Y-79142996D01*
X142799154Y-79078131D01*
X142808936Y-79067109D01*
X143351922Y-78524124D01*
X143351921Y-78524123D01*
X143351920Y-78524122D01*
X143351919Y-78524121D01*
X143351914Y-78524117D01*
X143307360Y-78491747D01*
X143307357Y-78491744D01*
X143230253Y-78452458D01*
X143201407Y-78432123D01*
X143201105Y-78431838D01*
X143191993Y-78423232D01*
X143156771Y-78362891D01*
X143159763Y-78293086D01*
X143195925Y-78239376D01*
X143202937Y-78233301D01*
X143227840Y-78216531D01*
X143307610Y-78175887D01*
X143382265Y-78121647D01*
X143402681Y-78106815D01*
X143419142Y-78094854D01*
X143473213Y-78055571D01*
X143473214Y-78055568D01*
X143473216Y-78055567D01*
X143473219Y-78055566D01*
X143473221Y-78055563D01*
X143473275Y-78055524D01*
X143474032Y-78054752D01*
X143617966Y-77910819D01*
X143617968Y-77910815D01*
X143617971Y-77910813D01*
X143691819Y-77809168D01*
X143738287Y-77745210D01*
X143831220Y-77562819D01*
X143894477Y-77368134D01*
X143926500Y-77165952D01*
X143926500Y-76961248D01*
X143913937Y-76881930D01*
X143894477Y-76759065D01*
X143852222Y-76629018D01*
X143845616Y-76608688D01*
X143833833Y-76572422D01*
X143833831Y-76572417D01*
X143831220Y-76564381D01*
X143831218Y-76564378D01*
X143831218Y-76564376D01*
X143828971Y-76559967D01*
X143828662Y-76559174D01*
X143827936Y-76557934D01*
X143786992Y-76477579D01*
X143786991Y-76477577D01*
X143738290Y-76381995D01*
X143738286Y-76381989D01*
X143734879Y-76377300D01*
X143701893Y-76331897D01*
X143701889Y-76331891D01*
X143701886Y-76331888D01*
X143617971Y-76216386D01*
X143473213Y-76071628D01*
X143307614Y-75951315D01*
X143269665Y-75931979D01*
X143269665Y-75931978D01*
X143269663Y-75931978D01*
X143230799Y-75912175D01*
X143201956Y-75891842D01*
X143192544Y-75882953D01*
X143157321Y-75822612D01*
X143160313Y-75752806D01*
X143196474Y-75699098D01*
X143203479Y-75693027D01*
X143228386Y-75676252D01*
X143307610Y-75635887D01*
X143407626Y-75563222D01*
X143473213Y-75515571D01*
X143473214Y-75515568D01*
X143473216Y-75515567D01*
X143473219Y-75515566D01*
X143473221Y-75515563D01*
X143473275Y-75515524D01*
X143474032Y-75514752D01*
X143617966Y-75370819D01*
X143617968Y-75370815D01*
X143617971Y-75370813D01*
X143681193Y-75283794D01*
X143738287Y-75205210D01*
X143831220Y-75022819D01*
X143894477Y-74828134D01*
X143926500Y-74625952D01*
X143926500Y-74421248D01*
X143913774Y-74340903D01*
X143913771Y-74340887D01*
X143906603Y-74295625D01*
X143894477Y-74219065D01*
X143852222Y-74089018D01*
X143851561Y-74086985D01*
X143832722Y-74029003D01*
X143831659Y-74025236D01*
X143830656Y-74023217D01*
X143828866Y-74019523D01*
X143827936Y-74017934D01*
X143793148Y-73949660D01*
X143773812Y-73911712D01*
X143738287Y-73841990D01*
X143728120Y-73827996D01*
X143720507Y-73817517D01*
X143720506Y-73817516D01*
X143617973Y-73676389D01*
X143617971Y-73676386D01*
X143473219Y-73531634D01*
X143473211Y-73531628D01*
X143473166Y-73531595D01*
X143393969Y-73474055D01*
X143368655Y-73449453D01*
X143360687Y-73439119D01*
X143335340Y-73374009D01*
X143349219Y-73305532D01*
X143393031Y-73258337D01*
X143400767Y-73253488D01*
X143427602Y-73240857D01*
X143495334Y-73218414D01*
X143644656Y-73126312D01*
X143768712Y-73002256D01*
X143852611Y-72866231D01*
X143865076Y-72849394D01*
X143866397Y-72847892D01*
X143866399Y-72847893D01*
X143881806Y-72830391D01*
X143940409Y-72793215D01*
X143955024Y-72788985D01*
X143989489Y-72784100D01*
X143998230Y-72784100D01*
X144033162Y-72789121D01*
X144058406Y-72796534D01*
X144111152Y-72827830D01*
X145987973Y-74704651D01*
X146009123Y-74732903D01*
X146021731Y-74755992D01*
X146036900Y-74815421D01*
X146036900Y-84965646D01*
X146036900Y-84965648D01*
X146036899Y-84965648D01*
X146067657Y-85120271D01*
X146067664Y-85120302D01*
X146127998Y-85265965D01*
X146128003Y-85265974D01*
X146128013Y-85265991D01*
X146215611Y-85397090D01*
X146215612Y-85397091D01*
X146215617Y-85397097D01*
X155787322Y-94968802D01*
X155787328Y-94968807D01*
X155787332Y-94968810D01*
X155918435Y-95056411D01*
X155918448Y-95056418D01*
X156012966Y-95095568D01*
X156064124Y-95116758D01*
X156064126Y-95116758D01*
X156064131Y-95116760D01*
X156166736Y-95137169D01*
X156211134Y-95146000D01*
X156213868Y-95146724D01*
X156218776Y-95147521D01*
X156218777Y-95147521D01*
X156218779Y-95147521D01*
X156376464Y-95147521D01*
X163051379Y-95147521D01*
X199423262Y-95147521D01*
X199458190Y-95152541D01*
X199473447Y-95157021D01*
X199531906Y-95194427D01*
X199546636Y-95211292D01*
X199546636Y-95211291D01*
X199548142Y-95213015D01*
X199560287Y-95229489D01*
X199644288Y-95365677D01*
X199768344Y-95489733D01*
X199917666Y-95581835D01*
X199962518Y-95596697D01*
X199994093Y-95612450D01*
X200006950Y-95621351D01*
X200050860Y-95675693D01*
X200054068Y-95683408D01*
X200063187Y-95740740D01*
X200061077Y-95767545D01*
X200393923Y-96100391D01*
X200604055Y-96310522D01*
X200637540Y-96371845D01*
X200632556Y-96441536D01*
X200590685Y-96497470D01*
X200578374Y-96505590D01*
X200541397Y-96526938D01*
X200541392Y-96526942D01*
X200466921Y-96601413D01*
X200466915Y-96601421D01*
X200445568Y-96638395D01*
X200395001Y-96686610D01*
X200326393Y-96699832D01*
X200261529Y-96673864D01*
X200250501Y-96664075D01*
X199707524Y-96121098D01*
X199707523Y-96121098D01*
X199707522Y-96121098D01*
X199675145Y-96165661D01*
X199582245Y-96347984D01*
X199551848Y-96441536D01*
X199519009Y-96542603D01*
X199519008Y-96542606D01*
X199519008Y-96542608D01*
X199487000Y-96744697D01*
X199487000Y-96949343D01*
X199511921Y-97106688D01*
X199519009Y-97151438D01*
X199582244Y-97346052D01*
X199625692Y-97431322D01*
X199675144Y-97528378D01*
X199675145Y-97528379D01*
X199707517Y-97572935D01*
X199707521Y-97572940D01*
X199707523Y-97572942D01*
X199707524Y-97572943D01*
X200250503Y-97029963D01*
X200311824Y-96996480D01*
X200381515Y-97001464D01*
X200437449Y-97043335D01*
X200445567Y-97055643D01*
X200466920Y-97092627D01*
X200541394Y-97167101D01*
X200541395Y-97167102D01*
X200541397Y-97167103D01*
X200578373Y-97188451D01*
X200626588Y-97239017D01*
X200639812Y-97307624D01*
X200613844Y-97372489D01*
X200604054Y-97383519D01*
X200061075Y-97926494D01*
X200061076Y-97926494D01*
X200061076Y-97926495D01*
X200105650Y-97958880D01*
X200191786Y-98002768D01*
X200287963Y-98051774D01*
X200287965Y-98051774D01*
X200287968Y-98051776D01*
X200482582Y-98115011D01*
X200684683Y-98147021D01*
X200889316Y-98147021D01*
X200889317Y-98147021D01*
X201091417Y-98115011D01*
X201286031Y-98051776D01*
X201341532Y-98023497D01*
X201468347Y-97958881D01*
X201468346Y-97958881D01*
X201468349Y-97958880D01*
X201512921Y-97926495D01*
X200969945Y-97383519D01*
X200936460Y-97322196D01*
X200941444Y-97252504D01*
X200983316Y-97196571D01*
X200995618Y-97188455D01*
X201032606Y-97167101D01*
X201107080Y-97092627D01*
X201128430Y-97055646D01*
X201178995Y-97007432D01*
X201247602Y-96994208D01*
X201312467Y-97020175D01*
X201323498Y-97029966D01*
X201866473Y-97572941D01*
X201866474Y-97572942D01*
X201898859Y-97528370D01*
X201991755Y-97346052D01*
X202054990Y-97151438D01*
X202087000Y-96949338D01*
X202087000Y-96744703D01*
X202054990Y-96542603D01*
X201991755Y-96347989D01*
X201991753Y-96347986D01*
X201991753Y-96347984D01*
X201898859Y-96165671D01*
X201898852Y-96165661D01*
X201890155Y-96153692D01*
X201880615Y-96126954D01*
X201866473Y-96121096D01*
X201323497Y-96664074D01*
X201262174Y-96697559D01*
X201192483Y-96692575D01*
X201136549Y-96650704D01*
X201128430Y-96638395D01*
X201107080Y-96601415D01*
X201032606Y-96526941D01*
X200995625Y-96505590D01*
X200947410Y-96455024D01*
X200934186Y-96386417D01*
X200960154Y-96321552D01*
X200969936Y-96310530D01*
X201512921Y-95767546D01*
X201511344Y-95747508D01*
X201513609Y-95712299D01*
X201516825Y-95696993D01*
X201549866Y-95635437D01*
X201555736Y-95629482D01*
X201605034Y-95598833D01*
X201656334Y-95581835D01*
X201805656Y-95489733D01*
X201929712Y-95365677D01*
X202021814Y-95216355D01*
X202076999Y-95049818D01*
X202087500Y-94947030D01*
X202087499Y-93747013D01*
X202076999Y-93644224D01*
X202021814Y-93477687D01*
X201929712Y-93328365D01*
X201805656Y-93204309D01*
X201805655Y-93204308D01*
X201687928Y-93131694D01*
X201687924Y-93131692D01*
X201684852Y-93129797D01*
X201656336Y-93112208D01*
X201656331Y-93112206D01*
X201654862Y-93111719D01*
X201498265Y-93059828D01*
X201495445Y-93058662D01*
X201489792Y-93057020D01*
X201387019Y-93046521D01*
X201387010Y-93046521D01*
X200186998Y-93046521D01*
X200186981Y-93046522D01*
X200172959Y-93047954D01*
X200084198Y-93057021D01*
X200084193Y-93057022D01*
X200084032Y-93057077D01*
X199917667Y-93112206D01*
X199917665Y-93112207D01*
X199917663Y-93112208D01*
X199853505Y-93151781D01*
X199768340Y-93204311D01*
X199644290Y-93328361D01*
X199644288Y-93328364D01*
X199560396Y-93464374D01*
X199547937Y-93481206D01*
X199531199Y-93500222D01*
X199472592Y-93537405D01*
X199457983Y-93541633D01*
X199423511Y-93546521D01*
X156698391Y-93546521D01*
X156663455Y-93541498D01*
X156638213Y-93534086D01*
X156585468Y-93502790D01*
X149064326Y-85981648D01*
X160210099Y-85981648D01*
X160240857Y-86136271D01*
X160240864Y-86136302D01*
X160301198Y-86281965D01*
X160301203Y-86281974D01*
X160301213Y-86281991D01*
X160388811Y-86413090D01*
X160388812Y-86413091D01*
X160388817Y-86413097D01*
X160500301Y-86524581D01*
X160500307Y-86524586D01*
X160500311Y-86524589D01*
X160631414Y-86612190D01*
X160631427Y-86612197D01*
X160701834Y-86641360D01*
X160777103Y-86672537D01*
X160833856Y-86683825D01*
X160840799Y-86686080D01*
X160844717Y-86688758D01*
X160859973Y-86694140D01*
X160889346Y-86709504D01*
X160919553Y-86731699D01*
X164583725Y-90395872D01*
X164583727Y-90395874D01*
X164583730Y-90395876D01*
X164583731Y-90395877D01*
X164690273Y-90467065D01*
X164808656Y-90516101D01*
X164934327Y-90541100D01*
X180480271Y-90541100D01*
X180480272Y-90541100D01*
X180546925Y-90527841D01*
X180583025Y-90520660D01*
X180605944Y-90516101D01*
X180724327Y-90467065D01*
X180830869Y-90395876D01*
X180830872Y-90395873D01*
X180830874Y-90395872D01*
X180921473Y-90305272D01*
X180921476Y-90305269D01*
X180992665Y-90198727D01*
X181039716Y-90085135D01*
X181047911Y-90068852D01*
X181065513Y-90039484D01*
X181084184Y-90015559D01*
X183257307Y-87842437D01*
X183285549Y-87821294D01*
X183294938Y-87816167D01*
X183363207Y-87801316D01*
X183428672Y-87825732D01*
X183470544Y-87881664D01*
X183477451Y-87940009D01*
X183476973Y-87943929D01*
X183471816Y-87967239D01*
X183460447Y-88002227D01*
X183458920Y-88011868D01*
X183458920Y-88011871D01*
X183423500Y-88235502D01*
X183423500Y-88471702D01*
X183446522Y-88617056D01*
X183460446Y-88704968D01*
X183533433Y-88929596D01*
X183596625Y-89053616D01*
X183640657Y-89140033D01*
X183779483Y-89331110D01*
X183946490Y-89498117D01*
X184137567Y-89636943D01*
X184236991Y-89687602D01*
X184348003Y-89744166D01*
X184348004Y-89744166D01*
X184348875Y-89744610D01*
X184352628Y-89745669D01*
X184413061Y-89765305D01*
X184572631Y-89817153D01*
X184805903Y-89854100D01*
X184805908Y-89854100D01*
X185342096Y-89854100D01*
X185342097Y-89854100D01*
X185575368Y-89817153D01*
X185594120Y-89811060D01*
X185799992Y-89744168D01*
X186010433Y-89636943D01*
X186201510Y-89498117D01*
X186368517Y-89331110D01*
X186507343Y-89140033D01*
X186614568Y-88929592D01*
X186687553Y-88704968D01*
X186699902Y-88627000D01*
X186724500Y-88471697D01*
X186724500Y-88235502D01*
X186687553Y-88002231D01*
X186653689Y-87898012D01*
X186652772Y-87895191D01*
X186616070Y-87782231D01*
X186615007Y-87778463D01*
X186614010Y-87776456D01*
X186612218Y-87772757D01*
X186611280Y-87771154D01*
X186596170Y-87741500D01*
X186548359Y-87647665D01*
X186507343Y-87567167D01*
X186368517Y-87376090D01*
X186201510Y-87209083D01*
X186010433Y-87070257D01*
X185931978Y-87030282D01*
X185799996Y-86963033D01*
X185575368Y-86890046D01*
X185575362Y-86890045D01*
X185342102Y-86853100D01*
X185342097Y-86853100D01*
X185342092Y-86853100D01*
X184805908Y-86853100D01*
X184805903Y-86853100D01*
X184770440Y-86858716D01*
X184588788Y-86887487D01*
X184588780Y-86887488D01*
X184572630Y-86890047D01*
X184572627Y-86890047D01*
X184540181Y-86900590D01*
X184537143Y-86901409D01*
X184533301Y-86901323D01*
X184508409Y-86905631D01*
X184497728Y-86905936D01*
X184475251Y-86900027D01*
X184467291Y-86899850D01*
X184462640Y-86896712D01*
X184430154Y-86888173D01*
X184382911Y-86836697D01*
X184370997Y-86767851D01*
X184391335Y-86712727D01*
X184393541Y-86709451D01*
X184408709Y-86691035D01*
X185615122Y-85484623D01*
X185643372Y-85463475D01*
X185666464Y-85450867D01*
X185725889Y-85435700D01*
X213199162Y-85435700D01*
X213234094Y-85440721D01*
X213259338Y-85448134D01*
X213312083Y-85479429D01*
X215075024Y-87242371D01*
X215075027Y-87242374D01*
X215075030Y-87242376D01*
X215144756Y-87288965D01*
X215181573Y-87313565D01*
X215299956Y-87362601D01*
X215425627Y-87387600D01*
X215425628Y-87387600D01*
X215425631Y-87387600D01*
X218593829Y-87387600D01*
X218626549Y-87391995D01*
X218657540Y-87400473D01*
X218687939Y-87413345D01*
X218734164Y-87440681D01*
X218734166Y-87440683D01*
X218764429Y-87458580D01*
X218815602Y-87488844D01*
X218823489Y-87491135D01*
X218823496Y-87491140D01*
X218823497Y-87491138D01*
X218835042Y-87494492D01*
X218973426Y-87534697D01*
X218973429Y-87534697D01*
X218973431Y-87534698D01*
X219010306Y-87537600D01*
X219010314Y-87537600D01*
X220166686Y-87537600D01*
X220166694Y-87537600D01*
X220203569Y-87534698D01*
X220203571Y-87534697D01*
X220203573Y-87534697D01*
X220203576Y-87534696D01*
X220203590Y-87534695D01*
X220204292Y-87534496D01*
X220213177Y-87532027D01*
X220214364Y-87531561D01*
X220283072Y-87511600D01*
X220361398Y-87488844D01*
X220502865Y-87405181D01*
X220619081Y-87288965D01*
X220619083Y-87288960D01*
X220619702Y-87288342D01*
X220622700Y-87285443D01*
X220623038Y-87285127D01*
X220623048Y-87285121D01*
X220623095Y-87285074D01*
X220624771Y-87283508D01*
X220624772Y-87283509D01*
X220642443Y-87267009D01*
X220704874Y-87235646D01*
X220774329Y-87243004D01*
X220775166Y-87243349D01*
X220776467Y-87243885D01*
X220822921Y-87277327D01*
X220829971Y-87285464D01*
X220832002Y-87287869D01*
X220834099Y-87290418D01*
X220836474Y-87292968D01*
X220846229Y-87304226D01*
X220847584Y-87304776D01*
X220858159Y-87314207D01*
X220949131Y-87405179D01*
X221015723Y-87444561D01*
X221090602Y-87488844D01*
X221098498Y-87491138D01*
X221237633Y-87531561D01*
X221237634Y-87531562D01*
X221238825Y-87532028D01*
X221247684Y-87534490D01*
X221248405Y-87534695D01*
X221248424Y-87534696D01*
X221248426Y-87534697D01*
X221248429Y-87534697D01*
X221248431Y-87534698D01*
X221285306Y-87537600D01*
X221285314Y-87537600D01*
X222441686Y-87537600D01*
X222441689Y-87537600D01*
X222441694Y-87537600D01*
X222447763Y-87537122D01*
X222472900Y-87535144D01*
X222495616Y-87535443D01*
X222513747Y-87537352D01*
X222578357Y-87563948D01*
X222618328Y-87621243D01*
X222619139Y-87623661D01*
X222622065Y-87632389D01*
X222628500Y-87671813D01*
X222628500Y-89053601D01*
X222628501Y-89053618D01*
X222639000Y-89156396D01*
X222639001Y-89156399D01*
X222660150Y-89220222D01*
X222694182Y-89322922D01*
X222694186Y-89322935D01*
X222694187Y-89322936D01*
X222699229Y-89331112D01*
X222699230Y-89331112D01*
X222786288Y-89472256D01*
X222910344Y-89596312D01*
X223059666Y-89688414D01*
X223226203Y-89743599D01*
X223328991Y-89754100D01*
X223336667Y-89754099D01*
X223371604Y-89759121D01*
X223386604Y-89763525D01*
X223445361Y-89801275D01*
X223446547Y-89802643D01*
X223474020Y-89857507D01*
X223474778Y-89860992D01*
X223475666Y-89865070D01*
X223478500Y-89891431D01*
X223478500Y-90982446D01*
X223478500Y-90982448D01*
X223478499Y-90982448D01*
X223509257Y-91137071D01*
X223509264Y-91137102D01*
X223569598Y-91282765D01*
X223569603Y-91282774D01*
X223569613Y-91282791D01*
X223657211Y-91413890D01*
X223657212Y-91413891D01*
X223657217Y-91413897D01*
X227185423Y-94942101D01*
X228232211Y-95988889D01*
X228321931Y-96078609D01*
X228343712Y-96100390D01*
X228343713Y-96100391D01*
X228410170Y-96144796D01*
X228474814Y-96187990D01*
X228474827Y-96187997D01*
X228564659Y-96225206D01*
X228620503Y-96248337D01*
X228771213Y-96278315D01*
X228772654Y-96278694D01*
X228775155Y-96279100D01*
X228775156Y-96279100D01*
X228775158Y-96279100D01*
X229355882Y-96279100D01*
X229390810Y-96284120D01*
X229406067Y-96288600D01*
X229464526Y-96326006D01*
X229479256Y-96342871D01*
X229479256Y-96342870D01*
X229480762Y-96344594D01*
X229492907Y-96361068D01*
X229576908Y-96497256D01*
X229700964Y-96621312D01*
X229850286Y-96713414D01*
X230016823Y-96768599D01*
X230119611Y-96779100D01*
X231319628Y-96779099D01*
X231422417Y-96768599D01*
X231588954Y-96713414D01*
X231738276Y-96621312D01*
X231862332Y-96497256D01*
X231954434Y-96347934D01*
X231971113Y-96297597D01*
X231996200Y-96254153D01*
X231997082Y-96253161D01*
X231999680Y-96250372D01*
X232000079Y-96249795D01*
X232002792Y-96246748D01*
X232029909Y-96229828D01*
X232051252Y-96214982D01*
X232050729Y-96213725D01*
X232054864Y-96212005D01*
X232054869Y-96212004D01*
X232055998Y-96211534D01*
X232056526Y-96211450D01*
X232059132Y-96210582D01*
X232059275Y-96211013D01*
X232060337Y-96210844D01*
X232062070Y-96209763D01*
X232066739Y-96209825D01*
X232113335Y-96202411D01*
X232140145Y-96204521D01*
X232683123Y-95661542D01*
X232744444Y-95628059D01*
X232814135Y-95633043D01*
X232870069Y-95674914D01*
X232878187Y-95687222D01*
X232899540Y-95724206D01*
X232974014Y-95798680D01*
X232974015Y-95798681D01*
X232974017Y-95798682D01*
X233010993Y-95820030D01*
X233059208Y-95870596D01*
X233072432Y-95939203D01*
X233046464Y-96004068D01*
X233036674Y-96015098D01*
X232493695Y-96558073D01*
X232493696Y-96558073D01*
X232493696Y-96558074D01*
X232538270Y-96590459D01*
X232598822Y-96621312D01*
X232720583Y-96683353D01*
X232720585Y-96683353D01*
X232720588Y-96683355D01*
X232915202Y-96746590D01*
X233117303Y-96778600D01*
X233321936Y-96778600D01*
X233321937Y-96778600D01*
X233524037Y-96746590D01*
X233718651Y-96683355D01*
X233900969Y-96590459D01*
X233945541Y-96558074D01*
X233402565Y-96015098D01*
X233369080Y-95953775D01*
X233374064Y-95884083D01*
X233415936Y-95828150D01*
X233428238Y-95820034D01*
X233465226Y-95798680D01*
X233539700Y-95724206D01*
X233561050Y-95687225D01*
X233611615Y-95639011D01*
X233680222Y-95625787D01*
X233745087Y-95651754D01*
X233756118Y-95661545D01*
X234299093Y-96204520D01*
X234299094Y-96204521D01*
X234331479Y-96159949D01*
X234424375Y-95977631D01*
X234487610Y-95783017D01*
X234519620Y-95580917D01*
X234519620Y-95376282D01*
X234487610Y-95174182D01*
X234424375Y-94979568D01*
X234424373Y-94979565D01*
X234424373Y-94979563D01*
X234331479Y-94797250D01*
X234322776Y-94785272D01*
X234313235Y-94758533D01*
X234299093Y-94752675D01*
X233756117Y-95295653D01*
X233694794Y-95329138D01*
X233625103Y-95324154D01*
X233569169Y-95282283D01*
X233561050Y-95269974D01*
X233539700Y-95232994D01*
X233465226Y-95158520D01*
X233428245Y-95137169D01*
X233380030Y-95086603D01*
X233366806Y-95017996D01*
X233392774Y-94953131D01*
X233402556Y-94942109D01*
X233945542Y-94399124D01*
X233945541Y-94399123D01*
X233945540Y-94399122D01*
X233945539Y-94399121D01*
X233945534Y-94399117D01*
X233900980Y-94366747D01*
X233900977Y-94366744D01*
X233835818Y-94333544D01*
X233718651Y-94273844D01*
X233524037Y-94210609D01*
X233524031Y-94210608D01*
X233321942Y-94178600D01*
X233321937Y-94178600D01*
X233117303Y-94178600D01*
X233117298Y-94178600D01*
X232915207Y-94210608D01*
X232915205Y-94210608D01*
X232915202Y-94210609D01*
X232817895Y-94242226D01*
X232720583Y-94273845D01*
X232538260Y-94366745D01*
X232493697Y-94399122D01*
X232493697Y-94399123D01*
X232493697Y-94399124D01*
X232810300Y-94715727D01*
X233036675Y-94942101D01*
X233070160Y-95003424D01*
X233065176Y-95073115D01*
X233023305Y-95129049D01*
X233010994Y-95137169D01*
X232974017Y-95158517D01*
X232974012Y-95158521D01*
X232899541Y-95232992D01*
X232899535Y-95233000D01*
X232878188Y-95269974D01*
X232827621Y-95318189D01*
X232759013Y-95331411D01*
X232694149Y-95305443D01*
X232683121Y-95295654D01*
X232140144Y-94752676D01*
X232120110Y-94754254D01*
X232084888Y-94751987D01*
X232069590Y-94748773D01*
X232008031Y-94715727D01*
X232008030Y-94715726D01*
X232002083Y-94709863D01*
X231971432Y-94660564D01*
X231961902Y-94631804D01*
X231954434Y-94609266D01*
X231862332Y-94459944D01*
X231738276Y-94335888D01*
X231588954Y-94243786D01*
X231430885Y-94191407D01*
X231428065Y-94190241D01*
X231422412Y-94188599D01*
X231319639Y-94178100D01*
X231319630Y-94178100D01*
X230119618Y-94178100D01*
X230119601Y-94178101D01*
X230105579Y-94179533D01*
X230016818Y-94188600D01*
X230016813Y-94188601D01*
X230016652Y-94188656D01*
X229850287Y-94243785D01*
X229850285Y-94243786D01*
X229850283Y-94243787D01*
X229750735Y-94305188D01*
X229700960Y-94335890D01*
X229576909Y-94459941D01*
X229575668Y-94461663D01*
X229574007Y-94464646D01*
X229493019Y-94595951D01*
X229480556Y-94612787D01*
X229463816Y-94631804D01*
X229405212Y-94668984D01*
X229390603Y-94673212D01*
X229356131Y-94678100D01*
X229254770Y-94678100D01*
X229219834Y-94673077D01*
X229194592Y-94665665D01*
X229141847Y-94634369D01*
X225128426Y-90620948D01*
X225107274Y-90592692D01*
X225094667Y-90569603D01*
X225079500Y-90510178D01*
X225079500Y-89895928D01*
X225084523Y-89860992D01*
X225085532Y-89857558D01*
X225088927Y-89845993D01*
X225126672Y-89787243D01*
X225128041Y-89786056D01*
X225182920Y-89758576D01*
X225190479Y-89756932D01*
X225216832Y-89754099D01*
X225229002Y-89754099D01*
X225229008Y-89754099D01*
X225331797Y-89743599D01*
X225498334Y-89688414D01*
X225647656Y-89596312D01*
X225771712Y-89472256D01*
X225863814Y-89322934D01*
X225918999Y-89156397D01*
X225929500Y-89053609D01*
X225929499Y-87529427D01*
X225934522Y-87494492D01*
X225938926Y-87479493D01*
X225976699Y-87420718D01*
X225978079Y-87419523D01*
X226032919Y-87392077D01*
X226040478Y-87390433D01*
X226066831Y-87387600D01*
X226768484Y-87387600D01*
X226803420Y-87392623D01*
X226818418Y-87397027D01*
X226877192Y-87434798D01*
X226884011Y-87442667D01*
X226908232Y-87485555D01*
X226940564Y-87585063D01*
X226942039Y-87589602D01*
X226942044Y-87589614D01*
X227038551Y-87779020D01*
X227163490Y-87950986D01*
X227163492Y-87950988D01*
X227313816Y-88101312D01*
X227485778Y-88226248D01*
X227486631Y-88226767D01*
X227486903Y-88227065D01*
X227489911Y-88229251D01*
X227489795Y-88229409D01*
X227507341Y-88242561D01*
X227517465Y-88252121D01*
X227531265Y-88275760D01*
X227533685Y-88278416D01*
X227534039Y-88280512D01*
X227552691Y-88312459D01*
X227549705Y-88382265D01*
X227513538Y-88435985D01*
X227506214Y-88442332D01*
X227487659Y-88455632D01*
X227486040Y-88456579D01*
X227431882Y-88495926D01*
X227431881Y-88495927D01*
X227937450Y-89001496D01*
X227970935Y-89062819D01*
X227965951Y-89132511D01*
X227924079Y-89188444D01*
X227911773Y-89196562D01*
X227886596Y-89211098D01*
X227886590Y-89211103D01*
X227793503Y-89304190D01*
X227793498Y-89304196D01*
X227778962Y-89329373D01*
X227728393Y-89377587D01*
X227659785Y-89390807D01*
X227594922Y-89364837D01*
X227583896Y-89355050D01*
X227078328Y-88849482D01*
X227078327Y-88849482D01*
X227038980Y-88903638D01*
X226942503Y-89092984D01*
X226876842Y-89295065D01*
X226875701Y-89302273D01*
X226843600Y-89504953D01*
X226843600Y-89717446D01*
X226869045Y-89878099D01*
X226875315Y-89917685D01*
X226875316Y-89917693D01*
X226876842Y-89927333D01*
X226924770Y-90074837D01*
X226942504Y-90129417D01*
X227009388Y-90260682D01*
X227038974Y-90318748D01*
X227038975Y-90318750D01*
X227074274Y-90367337D01*
X227078328Y-90372916D01*
X227583897Y-89867347D01*
X227645219Y-89833863D01*
X227714911Y-89838847D01*
X227770844Y-89880719D01*
X227778963Y-89893028D01*
X227793496Y-89918200D01*
X227793499Y-89918204D01*
X227793501Y-89918207D01*
X227886593Y-90011299D01*
X227911769Y-90025834D01*
X227959984Y-90076402D01*
X227973206Y-90145009D01*
X227947238Y-90209873D01*
X227937449Y-90220902D01*
X227431882Y-90726468D01*
X227431882Y-90726469D01*
X227431882Y-90726470D01*
X227486049Y-90765824D01*
X227674750Y-90861973D01*
X227675384Y-90862296D01*
X227877466Y-90927956D01*
X227877467Y-90927956D01*
X227877470Y-90927957D01*
X228087354Y-90961200D01*
X228299845Y-90961200D01*
X228299846Y-90961200D01*
X228412650Y-90943332D01*
X228500087Y-90929484D01*
X228500093Y-90929483D01*
X228509727Y-90927957D01*
X228509730Y-90927957D01*
X228711817Y-90862295D01*
X228901154Y-90765822D01*
X228903576Y-90764062D01*
X228922721Y-90750153D01*
X228949458Y-90740612D01*
X228955317Y-90726469D01*
X228449749Y-90220902D01*
X228416264Y-90159579D01*
X228421248Y-90089888D01*
X228463119Y-90033954D01*
X228475422Y-90025839D01*
X228500607Y-90011299D01*
X228593699Y-89918207D01*
X228608234Y-89893030D01*
X228658799Y-89844816D01*
X228727405Y-89831591D01*
X228792271Y-89857558D01*
X228803302Y-89867349D01*
X229308869Y-90372917D01*
X229308869Y-90372916D01*
X229308870Y-90372917D01*
X229308870Y-90372916D01*
X229322338Y-90367337D01*
X229328555Y-90346167D01*
X229332554Y-90340318D01*
X229348221Y-90318755D01*
X229355091Y-90305272D01*
X229444695Y-90129417D01*
X229510357Y-89927330D01*
X229510357Y-89927327D01*
X229543600Y-89717446D01*
X229543600Y-89504953D01*
X229527250Y-89401726D01*
X229511884Y-89304711D01*
X229511883Y-89304705D01*
X229511883Y-89304706D01*
X229510356Y-89295065D01*
X229483073Y-89211098D01*
X229444695Y-89092982D01*
X229348224Y-88903649D01*
X229308870Y-88849482D01*
X229308869Y-88849482D01*
X229308868Y-88849482D01*
X228803302Y-89355049D01*
X228741979Y-89388534D01*
X228672287Y-89383550D01*
X228616354Y-89341678D01*
X228608234Y-89329369D01*
X228607707Y-89328456D01*
X228593699Y-89304193D01*
X228500607Y-89211101D01*
X228500604Y-89211099D01*
X228500600Y-89211096D01*
X228475428Y-89196563D01*
X228427213Y-89145996D01*
X228413991Y-89077389D01*
X228439959Y-89012524D01*
X228449735Y-89001509D01*
X228910639Y-88540605D01*
X228858474Y-88420203D01*
X228858472Y-88420201D01*
X228852893Y-88412242D01*
X228830530Y-88346047D01*
X228847505Y-88278271D01*
X228873228Y-88247351D01*
X228880676Y-88240897D01*
X228897677Y-88229486D01*
X228897257Y-88228800D01*
X228901410Y-88226254D01*
X228901416Y-88226251D01*
X229010085Y-88147299D01*
X229073386Y-88101309D01*
X229073386Y-88101307D01*
X229073446Y-88101264D01*
X229074205Y-88100490D01*
X229223704Y-87950992D01*
X229223706Y-87950988D01*
X229223709Y-87950986D01*
X229339297Y-87791891D01*
X229356419Y-87772829D01*
X229375313Y-87755737D01*
X229430849Y-87726817D01*
X229439576Y-87724820D01*
X229467221Y-87721700D01*
X231077073Y-87721700D01*
X231161615Y-87704882D01*
X231202744Y-87696701D01*
X231321127Y-87647665D01*
X231427669Y-87576477D01*
X232452721Y-86551422D01*
X232480975Y-86530273D01*
X232504065Y-86517666D01*
X232563488Y-86502500D01*
X233533271Y-86502500D01*
X233568207Y-86507523D01*
X233583205Y-86511927D01*
X233641966Y-86549683D01*
X233644798Y-86552950D01*
X233673835Y-86616500D01*
X233675101Y-86634171D01*
X233675101Y-86641360D01*
X233690554Y-86758758D01*
X233690556Y-86758762D01*
X233695422Y-86770511D01*
X233695512Y-86770727D01*
X233697724Y-86781983D01*
X233699205Y-86784227D01*
X233702279Y-86805159D01*
X233704949Y-86818741D01*
X233704916Y-86825865D01*
X233704615Y-86828382D01*
X233704893Y-86830972D01*
X233704862Y-86837901D01*
X233699670Y-86855288D01*
X233695426Y-86884786D01*
X233691044Y-86895365D01*
X233691043Y-86895370D01*
X233683586Y-86952000D01*
X233683587Y-86952000D01*
X233708270Y-86952000D01*
X233743204Y-86957023D01*
X233766220Y-86963781D01*
X233824999Y-87001555D01*
X233829645Y-87007251D01*
X233847318Y-87030282D01*
X233899415Y-87070257D01*
X233965023Y-87120600D01*
X233993892Y-87152000D01*
X233998477Y-87159144D01*
X234018121Y-87226196D01*
X233998395Y-87293223D01*
X233952281Y-87335634D01*
X233948741Y-87337514D01*
X233890581Y-87352000D01*
X233683590Y-87352000D01*
X233683587Y-87352001D01*
X233691039Y-87408615D01*
X233691041Y-87408625D01*
X233691042Y-87408627D01*
X233691044Y-87408633D01*
X233705141Y-87442667D01*
X233747719Y-87545461D01*
X233751499Y-87554585D01*
X233847675Y-87679924D01*
X233973013Y-87776100D01*
X234118963Y-87836553D01*
X234118966Y-87836553D01*
X234123154Y-87838288D01*
X234125861Y-87839447D01*
X234126528Y-87839742D01*
X234126528Y-87839743D01*
X234149883Y-87850072D01*
X234203229Y-87895191D01*
X234223564Y-87957194D01*
X234224131Y-87968375D01*
X234221907Y-87998846D01*
X234201388Y-88101998D01*
X234201389Y-88101999D01*
X234201390Y-88102000D01*
X234776600Y-88102000D01*
X234843639Y-88121685D01*
X234889394Y-88174489D01*
X234900600Y-88226000D01*
X234900600Y-88478000D01*
X234880915Y-88545039D01*
X234828111Y-88590794D01*
X234776600Y-88602000D01*
X234201389Y-88602000D01*
X234238060Y-88786363D01*
X234238068Y-88786398D01*
X234311560Y-88963827D01*
X234311565Y-88963837D01*
X234418268Y-89123528D01*
X234418269Y-89123529D01*
X234418274Y-89123535D01*
X234554063Y-89259324D01*
X234554069Y-89259329D01*
X234554070Y-89259330D01*
X234713749Y-89366025D01*
X234713754Y-89366028D01*
X234713757Y-89366030D01*
X234713767Y-89366035D01*
X234890556Y-89439263D01*
X234891164Y-89439520D01*
X234891201Y-89439531D01*
X234891206Y-89439533D01*
X234914135Y-89444093D01*
X234925599Y-89446373D01*
X234925599Y-89446372D01*
X234925600Y-89446373D01*
X234925600Y-88881683D01*
X234945285Y-88814644D01*
X234998089Y-88768889D01*
X235067247Y-88758945D01*
X235097051Y-88767121D01*
X235120899Y-88777000D01*
X235230299Y-88777000D01*
X235230301Y-88777000D01*
X235254146Y-88767122D01*
X235323615Y-88759653D01*
X235386094Y-88790927D01*
X235421748Y-88851015D01*
X235425600Y-88881683D01*
X235425600Y-89446372D01*
X235425600Y-89446373D01*
X235459993Y-89439532D01*
X235460000Y-89439530D01*
X235637432Y-89366035D01*
X235637442Y-89366030D01*
X235797126Y-89259332D01*
X235797130Y-89259329D01*
X235932929Y-89123530D01*
X235932932Y-89123526D01*
X236039630Y-88963842D01*
X236039635Y-88963833D01*
X236039638Y-88963827D01*
X236087000Y-88849482D01*
X236113131Y-88786397D01*
X236113133Y-88786389D01*
X236149810Y-88602000D01*
X235574600Y-88602000D01*
X235507561Y-88582315D01*
X235461806Y-88529511D01*
X235450600Y-88478000D01*
X235450600Y-88352007D01*
X236600600Y-88352007D01*
X236600600Y-88352013D01*
X236600600Y-88627000D01*
X237625600Y-88627000D01*
X237625600Y-87102000D01*
X236600601Y-87102000D01*
X236600601Y-87401995D01*
X236611093Y-87504694D01*
X236611093Y-87504695D01*
X236611094Y-87504697D01*
X236630728Y-87563948D01*
X236666238Y-87671111D01*
X236666242Y-87671123D01*
X236666243Y-87671124D01*
X236743715Y-87796725D01*
X236757780Y-87829095D01*
X236762235Y-87845376D01*
X236761609Y-87913039D01*
X236757770Y-87926113D01*
X236744331Y-87956274D01*
X236666246Y-88082867D01*
X236666244Y-88082871D01*
X236666237Y-88082890D01*
X236611094Y-88249299D01*
X236611093Y-88249304D01*
X236600600Y-88352007D01*
X235450600Y-88352007D01*
X235450600Y-88226000D01*
X235470285Y-88158961D01*
X235523089Y-88113206D01*
X235574600Y-88102000D01*
X236149810Y-88102000D01*
X236149810Y-88101998D01*
X236149809Y-88101995D01*
X236131882Y-88011871D01*
X236113133Y-87917610D01*
X236113132Y-87917606D01*
X236097431Y-87879700D01*
X236088703Y-87845504D01*
X236087032Y-87829963D01*
X236099433Y-87761210D01*
X236103404Y-87753276D01*
X236138802Y-87710404D01*
X236178523Y-87679926D01*
X236178526Y-87679923D01*
X236223552Y-87621243D01*
X236274700Y-87554586D01*
X236335155Y-87408631D01*
X236342612Y-87352000D01*
X236142733Y-87352000D01*
X236107798Y-87346977D01*
X236096944Y-87343790D01*
X236038166Y-87306016D01*
X236009141Y-87242460D01*
X236019083Y-87173306D01*
X236020609Y-87169964D01*
X236057916Y-87123102D01*
X236178882Y-87030282D01*
X236178883Y-87030281D01*
X236195193Y-87009023D01*
X236205481Y-87000135D01*
X236206486Y-86998147D01*
X236223561Y-86984515D01*
X236233171Y-86976214D01*
X236237489Y-86973805D01*
X236239659Y-86972813D01*
X236240920Y-86971892D01*
X236247526Y-86968208D01*
X236261652Y-86965002D01*
X236286663Y-86954340D01*
X236288094Y-86954090D01*
X236288096Y-86954091D01*
X236289560Y-86953835D01*
X236310820Y-86952000D01*
X236342609Y-86952000D01*
X236342610Y-86952000D01*
X236342611Y-86951998D01*
X236336703Y-86907117D01*
X236335159Y-86895383D01*
X236335158Y-86895381D01*
X236335158Y-86895377D01*
X236335154Y-86895365D01*
X236333585Y-86891576D01*
X236324857Y-86857380D01*
X236324397Y-86853100D01*
X236322045Y-86831226D01*
X236330775Y-86770515D01*
X236335644Y-86758762D01*
X236351100Y-86641361D01*
X236351099Y-86362640D01*
X236349867Y-86353285D01*
X236344833Y-86315040D01*
X236343117Y-86302007D01*
X236600600Y-86302007D01*
X236600600Y-86302013D01*
X236600600Y-86602000D01*
X237625600Y-86602000D01*
X237625600Y-85102000D01*
X236600601Y-85102000D01*
X236600601Y-85401985D01*
X236611093Y-85504694D01*
X236611093Y-85504695D01*
X236611094Y-85504697D01*
X236617366Y-85523624D01*
X236666238Y-85671113D01*
X236666239Y-85671114D01*
X236666245Y-85671129D01*
X236728298Y-85771732D01*
X236742361Y-85804102D01*
X236745840Y-85816815D01*
X236746815Y-85820377D01*
X236746188Y-85888037D01*
X236742349Y-85901111D01*
X236728911Y-85931271D01*
X236666247Y-86032866D01*
X236666239Y-86032884D01*
X236666238Y-86032885D01*
X236611094Y-86199299D01*
X236611093Y-86199304D01*
X236600600Y-86302007D01*
X236343117Y-86302007D01*
X236340479Y-86281965D01*
X236335644Y-86245238D01*
X236333857Y-86240926D01*
X236325128Y-86206732D01*
X236322315Y-86180567D01*
X236331045Y-86119863D01*
X236335644Y-86108762D01*
X236351100Y-85991361D01*
X236351099Y-85712640D01*
X236348757Y-85694853D01*
X236347611Y-85686142D01*
X236335644Y-85595238D01*
X236332995Y-85588844D01*
X236328561Y-85578140D01*
X236326215Y-85564512D01*
X236326495Y-85562084D01*
X236325129Y-85556731D01*
X236322316Y-85530572D01*
X236331045Y-85469863D01*
X236335644Y-85458762D01*
X236351100Y-85341361D01*
X236351099Y-85062640D01*
X236335644Y-84945238D01*
X236335643Y-84945235D01*
X236334006Y-84941283D01*
X236334007Y-84941282D01*
X236333957Y-84941167D01*
X236333812Y-84940816D01*
X236325129Y-84906732D01*
X236323933Y-84895609D01*
X236322316Y-84880574D01*
X236331045Y-84819863D01*
X236335644Y-84808762D01*
X236351100Y-84691361D01*
X236351099Y-84412640D01*
X236347947Y-84388700D01*
X236347946Y-84388699D01*
X236347257Y-84362924D01*
X236348266Y-84349912D01*
X236341253Y-84325494D01*
X236340788Y-84325621D01*
X236340785Y-84325610D01*
X236339609Y-84319769D01*
X236338253Y-84315046D01*
X236337484Y-84309209D01*
X236337479Y-84309183D01*
X236337217Y-84307195D01*
X236336854Y-84304436D01*
X236336855Y-84304428D01*
X236336851Y-84304412D01*
X236336535Y-84302007D01*
X236600600Y-84302007D01*
X236600600Y-84302013D01*
X236600600Y-84602000D01*
X237625600Y-84602000D01*
X237625600Y-83077000D01*
X236600601Y-83077000D01*
X236600601Y-83351995D01*
X236611093Y-83454694D01*
X236611093Y-83454695D01*
X236611094Y-83454697D01*
X236619030Y-83478645D01*
X236666238Y-83621111D01*
X236666242Y-83621123D01*
X236666243Y-83621124D01*
X236743715Y-83746725D01*
X236757780Y-83779095D01*
X236762235Y-83795376D01*
X236761609Y-83863039D01*
X236757770Y-83876113D01*
X236744331Y-83906274D01*
X236666246Y-84032867D01*
X236666244Y-84032871D01*
X236666237Y-84032890D01*
X236611094Y-84199299D01*
X236611093Y-84199304D01*
X236600600Y-84302007D01*
X236336535Y-84302007D01*
X236335644Y-84295238D01*
X236275136Y-84149159D01*
X236178882Y-84023718D01*
X236144022Y-83996969D01*
X236119371Y-83971725D01*
X236110149Y-83959095D01*
X236086515Y-83893351D01*
X236085987Y-83884486D01*
X236095207Y-83829667D01*
X236113132Y-83786393D01*
X236113133Y-83786389D01*
X236149810Y-83602000D01*
X235574600Y-83602000D01*
X235507561Y-83582315D01*
X235461806Y-83529511D01*
X235450600Y-83478000D01*
X235450600Y-83226000D01*
X235470285Y-83158961D01*
X235523089Y-83113206D01*
X235574600Y-83102000D01*
X236149810Y-83102000D01*
X236149810Y-83101998D01*
X236149809Y-83101995D01*
X236147634Y-83091062D01*
X236113133Y-82917610D01*
X236113131Y-82917602D01*
X236086364Y-82852981D01*
X236039638Y-82740171D01*
X236039633Y-82740161D01*
X235932930Y-82580470D01*
X235932929Y-82580469D01*
X235932924Y-82580463D01*
X235797135Y-82444674D01*
X235797129Y-82444669D01*
X235797128Y-82444668D01*
X235637436Y-82337965D01*
X235637437Y-82337965D01*
X235637427Y-82337960D01*
X235548077Y-82300951D01*
X235468827Y-82858193D01*
X235439899Y-82921793D01*
X235381178Y-82959657D01*
X235311309Y-82959763D01*
X235298609Y-82955294D01*
X235230302Y-82927000D01*
X235230301Y-82927000D01*
X235120899Y-82927000D01*
X235120897Y-82927000D01*
X235120895Y-82927001D01*
X235097052Y-82936877D01*
X235027582Y-82944346D01*
X234965103Y-82913070D01*
X234929452Y-82852981D01*
X234925600Y-82822316D01*
X234925600Y-82257625D01*
X234925599Y-82257625D01*
X234891231Y-82264461D01*
X234891200Y-82264468D01*
X234713771Y-82337960D01*
X234713761Y-82337965D01*
X234554070Y-82444668D01*
X234554069Y-82444669D01*
X234554063Y-82444674D01*
X234418274Y-82580463D01*
X234418269Y-82580469D01*
X234418268Y-82580470D01*
X234311565Y-82740161D01*
X234311560Y-82740171D01*
X234238068Y-82917600D01*
X234238060Y-82917635D01*
X234201388Y-83101998D01*
X234201389Y-83101999D01*
X234201390Y-83102000D01*
X234776600Y-83102000D01*
X234843639Y-83121685D01*
X234889394Y-83174489D01*
X234900600Y-83226000D01*
X234900600Y-83478000D01*
X234880915Y-83545039D01*
X234828111Y-83590794D01*
X234776600Y-83602000D01*
X234180670Y-83602000D01*
X234145734Y-83596977D01*
X234120492Y-83589565D01*
X234067747Y-83558269D01*
X233732489Y-83223011D01*
X231878897Y-81369417D01*
X231878891Y-81369412D01*
X231878890Y-81369411D01*
X231747791Y-81281813D01*
X231747790Y-81281812D01*
X231747785Y-81281809D01*
X231747772Y-81281802D01*
X231747765Y-81281798D01*
X231602102Y-81221464D01*
X231602071Y-81221457D01*
X231447447Y-81190700D01*
X231447445Y-81190700D01*
X231447442Y-81190700D01*
X229683781Y-81190700D01*
X229648840Y-81185675D01*
X229633841Y-81181270D01*
X229575071Y-81143500D01*
X229571584Y-81139476D01*
X229545709Y-81091060D01*
X229545298Y-81089561D01*
X229541594Y-81070025D01*
X229537691Y-81033717D01*
X229537691Y-81033716D01*
X229487397Y-80898871D01*
X229487393Y-80898864D01*
X229401147Y-80783655D01*
X229401144Y-80783652D01*
X229401142Y-80783650D01*
X229310618Y-80715884D01*
X229285935Y-80697406D01*
X229285932Y-80697404D01*
X229285930Y-80697403D01*
X229285928Y-80697402D01*
X229151082Y-80647108D01*
X229151083Y-80647108D01*
X229091483Y-80640701D01*
X229091481Y-80640700D01*
X229091473Y-80640700D01*
X229091464Y-80640700D01*
X229090441Y-80640700D01*
X227295723Y-80640700D01*
X227293792Y-80640859D01*
X227292145Y-80641085D01*
X227236116Y-80647108D01*
X227139687Y-80683074D01*
X227101266Y-80697404D01*
X227101265Y-80697405D01*
X226986056Y-80783650D01*
X226986050Y-80783656D01*
X226899805Y-80898865D01*
X226899803Y-80898868D01*
X226849507Y-81033716D01*
X226843101Y-81093316D01*
X226843100Y-81093339D01*
X226843100Y-82889076D01*
X226843259Y-82891006D01*
X226843485Y-82892654D01*
X226849507Y-82948682D01*
X226877290Y-83023171D01*
X226899802Y-83083528D01*
X226899806Y-83083535D01*
X226935138Y-83130732D01*
X226986050Y-83198742D01*
X226986052Y-83198744D01*
X226986055Y-83198747D01*
X227101264Y-83284993D01*
X227101271Y-83284997D01*
X227194406Y-83319734D01*
X227215976Y-83327779D01*
X227246950Y-83344691D01*
X227258061Y-83353008D01*
X227299934Y-83408940D01*
X227304921Y-83478632D01*
X227304918Y-83478645D01*
X227303942Y-83483130D01*
X227270460Y-83544444D01*
X227163485Y-83651419D01*
X227047907Y-83810501D01*
X227030777Y-83829571D01*
X227011888Y-83846659D01*
X226956365Y-83875579D01*
X226954032Y-83876113D01*
X226947639Y-83877575D01*
X226919979Y-83880700D01*
X222105326Y-83880700D01*
X221979673Y-83905693D01*
X221979665Y-83905695D01*
X221979645Y-83905702D01*
X221861277Y-83954731D01*
X221861264Y-83954738D01*
X221784852Y-84005796D01*
X221753015Y-84021028D01*
X221721380Y-84030934D01*
X221684326Y-84036600D01*
X221285290Y-84036600D01*
X221248428Y-84039501D01*
X221248426Y-84039501D01*
X221248425Y-84039502D01*
X221248419Y-84039503D01*
X221090612Y-84085352D01*
X221090599Y-84085356D01*
X220949141Y-84169014D01*
X220949134Y-84169018D01*
X220949123Y-84169027D01*
X220832502Y-84285649D01*
X220831035Y-84287092D01*
X220830545Y-84287566D01*
X220830354Y-84287666D01*
X220828949Y-84289083D01*
X220809548Y-84307195D01*
X220747112Y-84338554D01*
X220677642Y-84331183D01*
X220675504Y-84330301D01*
X220629082Y-84296878D01*
X220627562Y-84295124D01*
X220624143Y-84291178D01*
X220621724Y-84288387D01*
X220621717Y-84288379D01*
X220619830Y-84286201D01*
X220619823Y-84286192D01*
X220619271Y-84285555D01*
X220619085Y-84285240D01*
X220619076Y-84285229D01*
X220618415Y-84284568D01*
X220616133Y-84281934D01*
X220616132Y-84281932D01*
X220605784Y-84269990D01*
X220604532Y-84269486D01*
X220593704Y-84259857D01*
X220502870Y-84169023D01*
X220502868Y-84169022D01*
X220502864Y-84169018D01*
X220502857Y-84169014D01*
X220381803Y-84097423D01*
X220381799Y-84097421D01*
X220369083Y-84089901D01*
X220361398Y-84085356D01*
X220361397Y-84085355D01*
X220361396Y-84085355D01*
X220361393Y-84085354D01*
X220314435Y-84071711D01*
X220203579Y-84039503D01*
X220203573Y-84039502D01*
X220203572Y-84039501D01*
X220203570Y-84039501D01*
X220166708Y-84036600D01*
X220166701Y-84036600D01*
X220166694Y-84036600D01*
X219010306Y-84036600D01*
X219010298Y-84036600D01*
X219010290Y-84036600D01*
X218973428Y-84039501D01*
X218973426Y-84039501D01*
X218973425Y-84039502D01*
X218973419Y-84039503D01*
X218815612Y-84085352D01*
X218815599Y-84085356D01*
X218687940Y-84160854D01*
X218657540Y-84173726D01*
X218626548Y-84182205D01*
X218593829Y-84186600D01*
X217915038Y-84186600D01*
X217880102Y-84181577D01*
X217854860Y-84174165D01*
X217802115Y-84142869D01*
X217050174Y-83390927D01*
X217050173Y-83390926D01*
X217050169Y-83390923D01*
X216943627Y-83319735D01*
X216943625Y-83319734D01*
X216825253Y-83270702D01*
X216825233Y-83270695D01*
X216825225Y-83270693D01*
X216699574Y-83245700D01*
X216699571Y-83245700D01*
X216699569Y-83245700D01*
X184040190Y-83245700D01*
X184016787Y-83243471D01*
X183994153Y-83239121D01*
X183994549Y-83237060D01*
X183971576Y-83234996D01*
X183916414Y-83192113D01*
X183893193Y-83126215D01*
X183896351Y-83091069D01*
X183896890Y-83088787D01*
X183929873Y-83029671D01*
X195114722Y-71844823D01*
X195142972Y-71823675D01*
X195166064Y-71811067D01*
X195225489Y-71795900D01*
X217945873Y-71795900D01*
X217982090Y-71788695D01*
X218030415Y-71779082D01*
X218071544Y-71770901D01*
X218189927Y-71721865D01*
X218190402Y-71721547D01*
X218195511Y-71719752D01*
X218195976Y-71719727D01*
X218200153Y-71718224D01*
X218209721Y-71715279D01*
X218218585Y-71703065D01*
X218225465Y-71698119D01*
X218296469Y-71650677D01*
X219143546Y-70803600D01*
X222644898Y-70803600D01*
X223509899Y-70803600D01*
X223576938Y-70823285D01*
X223622693Y-70876089D01*
X223632637Y-70945247D01*
X223631517Y-70951790D01*
X223624000Y-70989581D01*
X223624000Y-71117619D01*
X223625639Y-71125857D01*
X223631517Y-71155410D01*
X223625288Y-71225001D01*
X223582425Y-71280178D01*
X223516535Y-71303422D01*
X223509899Y-71303600D01*
X222644898Y-71303600D01*
X222654869Y-71366558D01*
X222660934Y-71404847D01*
X222733897Y-71629402D01*
X222841085Y-71839771D01*
X222979866Y-72030786D01*
X223146813Y-72197733D01*
X223337828Y-72336514D01*
X223548197Y-72443702D01*
X223679782Y-72486457D01*
X223709252Y-72506607D01*
X223772749Y-72516664D01*
X223772752Y-72516665D01*
X223772751Y-72516665D01*
X224005948Y-72553600D01*
X224024000Y-72553600D01*
X224024000Y-71817700D01*
X224043685Y-71750661D01*
X224096489Y-71704906D01*
X224165647Y-71694962D01*
X224172172Y-71696079D01*
X224209981Y-71703600D01*
X224338019Y-71703600D01*
X224375808Y-71696083D01*
X224445399Y-71702310D01*
X224500577Y-71745172D01*
X224523822Y-71811061D01*
X224524000Y-71817700D01*
X224524000Y-72553600D01*
X224542051Y-72553600D01*
X224542052Y-72553600D01*
X224775247Y-72516665D01*
X224999802Y-72443702D01*
X225210171Y-72336514D01*
X225401186Y-72197733D01*
X225568133Y-72030786D01*
X225706914Y-71839771D01*
X225814102Y-71629402D01*
X225887065Y-71404847D01*
X225903102Y-71303600D01*
X225903101Y-71303600D01*
X225038101Y-71303600D01*
X224971062Y-71283915D01*
X224925307Y-71231111D01*
X224915363Y-71161953D01*
X224916483Y-71155410D01*
X224922361Y-71125857D01*
X224924000Y-71117619D01*
X224924000Y-70989581D01*
X224916483Y-70951790D01*
X224922712Y-70882199D01*
X224965575Y-70827022D01*
X225031465Y-70803778D01*
X225038101Y-70803600D01*
X225903102Y-70803600D01*
X225887065Y-70702352D01*
X225814102Y-70477797D01*
X225706914Y-70267428D01*
X225568133Y-70076413D01*
X225401186Y-69909466D01*
X225210171Y-69770685D01*
X225188474Y-69759630D01*
X224999806Y-69663498D01*
X224930399Y-69640946D01*
X224868215Y-69620741D01*
X224838746Y-69600591D01*
X224542057Y-69553600D01*
X224542052Y-69553600D01*
X224524000Y-69553600D01*
X224524000Y-70289499D01*
X224504315Y-70356538D01*
X224451511Y-70402293D01*
X224382353Y-70412237D01*
X224375810Y-70411117D01*
X224366660Y-70409297D01*
X224338019Y-70403600D01*
X224338018Y-70403600D01*
X224209982Y-70403600D01*
X224209981Y-70403600D01*
X224172190Y-70411117D01*
X224102599Y-70404888D01*
X224047422Y-70362025D01*
X224024178Y-70296135D01*
X224024000Y-70289499D01*
X224024000Y-69553600D01*
X224005948Y-69553600D01*
X224005943Y-69553600D01*
X223772755Y-69590533D01*
X223548194Y-69663498D01*
X223337827Y-69770685D01*
X223260759Y-69826679D01*
X223146813Y-69909466D01*
X223146811Y-69909468D01*
X223146810Y-69909468D01*
X222979868Y-70076410D01*
X222979868Y-70076411D01*
X222979866Y-70076413D01*
X222930678Y-70144114D01*
X222841085Y-70267427D01*
X222733898Y-70477794D01*
X222733897Y-70477796D01*
X222733897Y-70477797D01*
X222660934Y-70702352D01*
X222644898Y-70803600D01*
X219143546Y-70803600D01*
X220029723Y-69917423D01*
X221603923Y-68343221D01*
X221632172Y-68322074D01*
X221655264Y-68309466D01*
X221714689Y-68294299D01*
X222813402Y-68294299D01*
X222813408Y-68294299D01*
X222916197Y-68283799D01*
X223082734Y-68228614D01*
X223232056Y-68136512D01*
X223356112Y-68012456D01*
X223448214Y-67863134D01*
X223503399Y-67696597D01*
X223513900Y-67593809D01*
X223513900Y-67593795D01*
X228683401Y-67593795D01*
X228693893Y-67696494D01*
X228693893Y-67696495D01*
X228693894Y-67696497D01*
X228699320Y-67712871D01*
X228734380Y-67818677D01*
X228749041Y-67862919D01*
X228749043Y-67862924D01*
X228841084Y-68012145D01*
X228965054Y-68136115D01*
X229114275Y-68228156D01*
X229114280Y-68228158D01*
X229280699Y-68283304D01*
X229280700Y-68283304D01*
X229280702Y-68283305D01*
X229280709Y-68283306D01*
X229383419Y-68293799D01*
X230153399Y-68293799D01*
X230653400Y-68293799D01*
X231423360Y-68293799D01*
X231423372Y-68293799D01*
X231423386Y-68293798D01*
X231526097Y-68283305D01*
X231692519Y-68228158D01*
X231692524Y-68228156D01*
X231841745Y-68136115D01*
X231965715Y-68012145D01*
X232057756Y-67862924D01*
X232057758Y-67862919D01*
X232112905Y-67696497D01*
X232112906Y-67696490D01*
X232123399Y-67593786D01*
X232123400Y-67593773D01*
X232123400Y-67483800D01*
X230653400Y-67483800D01*
X230653400Y-68293799D01*
X230153399Y-68293799D01*
X230153400Y-68293798D01*
X230153400Y-67483800D01*
X228683401Y-67483800D01*
X228683401Y-67593795D01*
X223513900Y-67593795D01*
X223513899Y-67391122D01*
X223513899Y-67391117D01*
X233677237Y-67391117D01*
X233677237Y-67668084D01*
X233677237Y-67668098D01*
X233677238Y-67668102D01*
X233677239Y-67668108D01*
X233713387Y-67942689D01*
X233713388Y-67942694D01*
X233713389Y-67942700D01*
X233785077Y-68210243D01*
X233891072Y-68466137D01*
X233891077Y-68466148D01*
X234029563Y-68706012D01*
X234029564Y-68706013D01*
X234029569Y-68706020D01*
X234198170Y-68925747D01*
X234198174Y-68925752D01*
X234198177Y-68925755D01*
X234198183Y-68925762D01*
X234394027Y-69121606D01*
X234394034Y-69121612D01*
X234394037Y-69121614D01*
X234394041Y-69121618D01*
X234581341Y-69265337D01*
X234613777Y-69290226D01*
X234613784Y-69290230D01*
X234826572Y-69413084D01*
X234853641Y-69428712D01*
X234853646Y-69428714D01*
X234853649Y-69428716D01*
X235109545Y-69534712D01*
X235377088Y-69606400D01*
X235651699Y-69642553D01*
X235651706Y-69642553D01*
X235928672Y-69642553D01*
X235928679Y-69642553D01*
X236203290Y-69606400D01*
X236470833Y-69534712D01*
X236726729Y-69428716D01*
X236966601Y-69290226D01*
X237186345Y-69121611D01*
X237382199Y-68925757D01*
X237550814Y-68706013D01*
X237689304Y-68466141D01*
X237795300Y-68210245D01*
X237866988Y-67942702D01*
X237903141Y-67668091D01*
X237903141Y-67391111D01*
X237866988Y-67116500D01*
X237795300Y-66848957D01*
X237689304Y-66593061D01*
X237689302Y-66593058D01*
X237689300Y-66593053D01*
X237689298Y-66593050D01*
X237689185Y-66592776D01*
X237688392Y-66591349D01*
X237687314Y-66589613D01*
X237550818Y-66353196D01*
X237550817Y-66353195D01*
X237550814Y-66353189D01*
X237491126Y-66275402D01*
X237382206Y-66133453D01*
X237382202Y-66133449D01*
X237382200Y-66133446D01*
X237382194Y-66133439D01*
X237186350Y-65937595D01*
X237186343Y-65937589D01*
X237186340Y-65937586D01*
X237186335Y-65937582D01*
X236966608Y-65768981D01*
X236966606Y-65768980D01*
X236966600Y-65768975D01*
X236726736Y-65630489D01*
X236726725Y-65630484D01*
X236470831Y-65524489D01*
X236203288Y-65452801D01*
X236203282Y-65452800D01*
X236203277Y-65452799D01*
X235932779Y-65417188D01*
X235930763Y-65416854D01*
X235928689Y-65416649D01*
X235928684Y-65416649D01*
X235928679Y-65416649D01*
X235651699Y-65416649D01*
X235651693Y-65416649D01*
X235651688Y-65416649D01*
X235649611Y-65416854D01*
X235647597Y-65417188D01*
X235377099Y-65452799D01*
X235377092Y-65452800D01*
X235377089Y-65452801D01*
X235109546Y-65524489D01*
X234853652Y-65630484D01*
X234853641Y-65630489D01*
X234783261Y-65671123D01*
X234613783Y-65768971D01*
X234613768Y-65768981D01*
X234394041Y-65937582D01*
X234394026Y-65937596D01*
X234394018Y-65937603D01*
X234198191Y-66133430D01*
X234198184Y-66133438D01*
X234198170Y-66133453D01*
X234029569Y-66353180D01*
X234029559Y-66353195D01*
X233950101Y-66490820D01*
X233891077Y-66593053D01*
X233891072Y-66593064D01*
X233785077Y-66848958D01*
X233713390Y-67116500D01*
X233713387Y-67116511D01*
X233688965Y-67302020D01*
X233677238Y-67391100D01*
X233677237Y-67391117D01*
X223513899Y-67391117D01*
X223513899Y-67229565D01*
X223513899Y-66878464D01*
X223513899Y-66873807D01*
X228683400Y-66873807D01*
X228683400Y-66873810D01*
X228683400Y-66873813D01*
X228683400Y-66983800D01*
X230153400Y-66983800D01*
X230653400Y-66983800D01*
X232123399Y-66983800D01*
X232123399Y-66873828D01*
X232123398Y-66873813D01*
X232112905Y-66771102D01*
X232057758Y-66604680D01*
X232057756Y-66604675D01*
X231965715Y-66455454D01*
X231841745Y-66331484D01*
X231692524Y-66239443D01*
X231692519Y-66239441D01*
X231646474Y-66224183D01*
X231526099Y-66184294D01*
X231526094Y-66184293D01*
X231423391Y-66173800D01*
X231423386Y-66173800D01*
X230653400Y-66173800D01*
X230653400Y-66983800D01*
X230153400Y-66983800D01*
X230153400Y-66173800D01*
X229383437Y-66173800D01*
X229383428Y-66173800D01*
X229383412Y-66173801D01*
X229383402Y-66173801D01*
X229383402Y-66173802D01*
X229280704Y-66184293D01*
X229280702Y-66184294D01*
X229114287Y-66239438D01*
X229114279Y-66239441D01*
X229114277Y-66239442D01*
X229114275Y-66239443D01*
X229039766Y-66285401D01*
X228965052Y-66331485D01*
X228841085Y-66455452D01*
X228810403Y-66505194D01*
X228756209Y-66593058D01*
X228749041Y-66604679D01*
X228749038Y-66604688D01*
X228693894Y-66771099D01*
X228693893Y-66771104D01*
X228683400Y-66873807D01*
X223513899Y-66873807D01*
X223513899Y-66873798D01*
X223513898Y-66873780D01*
X223503399Y-66771003D01*
X223503398Y-66771000D01*
X223481950Y-66706275D01*
X223448214Y-66604466D01*
X223356112Y-66455144D01*
X223232056Y-66331088D01*
X223093404Y-66245567D01*
X223082736Y-66238987D01*
X223082731Y-66238985D01*
X222924665Y-66186607D01*
X222921845Y-66185441D01*
X222916192Y-66183799D01*
X222813419Y-66173300D01*
X222813410Y-66173300D01*
X220773398Y-66173300D01*
X220773381Y-66173301D01*
X220759359Y-66174733D01*
X220670598Y-66183800D01*
X220670593Y-66183801D01*
X220670432Y-66183856D01*
X220504067Y-66238985D01*
X220504065Y-66238986D01*
X220504063Y-66238987D01*
X220445839Y-66274900D01*
X220354743Y-66331088D01*
X220230686Y-66455144D01*
X220225395Y-66463723D01*
X220202779Y-66490820D01*
X220192462Y-66500099D01*
X220129453Y-66530294D01*
X220060123Y-66521630D01*
X220056885Y-66520223D01*
X220012584Y-66487692D01*
X220011514Y-66486457D01*
X219999702Y-66470368D01*
X219990312Y-66455144D01*
X219866257Y-66331089D01*
X219866256Y-66331088D01*
X219727604Y-66245567D01*
X219716936Y-66238987D01*
X219716931Y-66238985D01*
X219558865Y-66186607D01*
X219556045Y-66185441D01*
X219550392Y-66183799D01*
X219447619Y-66173300D01*
X219447610Y-66173300D01*
X217407598Y-66173300D01*
X217407581Y-66173301D01*
X217393559Y-66174733D01*
X217304798Y-66183800D01*
X217304793Y-66183801D01*
X217304632Y-66183856D01*
X217138267Y-66238985D01*
X217138265Y-66238986D01*
X217138263Y-66238987D01*
X217058465Y-66288207D01*
X216988940Y-66331090D01*
X216864887Y-66455143D01*
X216831532Y-66509222D01*
X216808916Y-66536320D01*
X216803877Y-66540853D01*
X216794210Y-66549548D01*
X216738770Y-66578269D01*
X216730204Y-66580216D01*
X216702721Y-66583300D01*
X215150127Y-66583300D01*
X215024466Y-66608295D01*
X215024450Y-66608300D01*
X215024447Y-66608301D01*
X214996070Y-66620056D01*
X214975420Y-66628610D01*
X214906079Y-66657330D01*
X214906061Y-66657341D01*
X214799529Y-66728523D01*
X214799516Y-66728535D01*
X212326680Y-69201373D01*
X212298429Y-69222522D01*
X212275341Y-69235130D01*
X212215911Y-69250300D01*
X194449126Y-69250300D01*
X194323473Y-69275293D01*
X194323465Y-69275295D01*
X194323445Y-69275302D01*
X194205075Y-69324333D01*
X194098523Y-69395528D01*
X177706480Y-85787573D01*
X177678229Y-85808722D01*
X177655141Y-85821330D01*
X177595711Y-85836500D01*
X177162828Y-85836500D01*
X177127893Y-85831477D01*
X177117039Y-85828290D01*
X177058261Y-85790516D01*
X177029236Y-85726960D01*
X177039168Y-85657828D01*
X177040141Y-85655697D01*
X177084052Y-85604089D01*
X177128403Y-85574455D01*
X177132968Y-85571405D01*
X177154935Y-85556727D01*
X177173269Y-85544477D01*
X194272921Y-68444822D01*
X194301176Y-68423672D01*
X194324266Y-68411065D01*
X194383689Y-68395899D01*
X195482402Y-68395899D01*
X195482408Y-68395899D01*
X195585197Y-68385399D01*
X195751734Y-68330214D01*
X195901056Y-68238112D01*
X196025112Y-68114056D01*
X196096228Y-67998757D01*
X196115310Y-67974965D01*
X196125641Y-67964916D01*
X196155094Y-67921575D01*
X196219373Y-67894192D01*
X196288254Y-67905907D01*
X196317439Y-67925739D01*
X196325564Y-67933153D01*
X196347515Y-67959648D01*
X196380085Y-68012452D01*
X196380087Y-68012455D01*
X196380088Y-68012456D01*
X196504144Y-68136512D01*
X196653466Y-68228614D01*
X196820003Y-68283799D01*
X196922791Y-68294300D01*
X198962808Y-68294299D01*
X199065597Y-68283799D01*
X199232134Y-68228614D01*
X199381456Y-68136512D01*
X199505512Y-68012456D01*
X199597614Y-67863134D01*
X199652799Y-67696597D01*
X199663300Y-67593809D01*
X199663300Y-67593795D01*
X204832801Y-67593795D01*
X204843293Y-67696494D01*
X204843293Y-67696495D01*
X204843294Y-67696497D01*
X204848720Y-67712871D01*
X204883780Y-67818677D01*
X204898441Y-67862919D01*
X204898443Y-67862924D01*
X204990484Y-68012145D01*
X205114454Y-68136115D01*
X205263675Y-68228156D01*
X205263680Y-68228158D01*
X205430099Y-68283304D01*
X205430100Y-68283304D01*
X205430102Y-68283305D01*
X205430109Y-68283306D01*
X205532819Y-68293799D01*
X206302799Y-68293799D01*
X206802800Y-68293799D01*
X207572760Y-68293799D01*
X207572772Y-68293799D01*
X207572786Y-68293798D01*
X207675497Y-68283305D01*
X207841919Y-68228158D01*
X207841924Y-68228156D01*
X207991145Y-68136115D01*
X208084916Y-68042344D01*
X208113163Y-68021199D01*
X208126889Y-68013704D01*
X208195146Y-67998853D01*
X208196956Y-67998982D01*
X208255153Y-68018348D01*
X208261671Y-68022537D01*
X208282306Y-68039167D01*
X208379254Y-68136115D01*
X208528475Y-68228156D01*
X208528480Y-68228158D01*
X208694899Y-68283304D01*
X208694900Y-68283304D01*
X208694902Y-68283305D01*
X208694909Y-68283306D01*
X208797619Y-68293799D01*
X209567599Y-68293799D01*
X210067600Y-68293799D01*
X210837560Y-68293799D01*
X210837572Y-68293799D01*
X210837586Y-68293798D01*
X210940297Y-68283305D01*
X211106719Y-68228158D01*
X211106724Y-68228156D01*
X211255945Y-68136115D01*
X211379915Y-68012145D01*
X211471956Y-67862924D01*
X211471958Y-67862919D01*
X211527105Y-67696497D01*
X211527106Y-67696490D01*
X211537599Y-67593786D01*
X211537600Y-67593773D01*
X211537600Y-67483800D01*
X210067600Y-67483800D01*
X210067600Y-68293799D01*
X209567599Y-68293799D01*
X209567600Y-68293798D01*
X209567600Y-67483800D01*
X206802800Y-67483800D01*
X206802800Y-68293799D01*
X206302799Y-68293799D01*
X206302800Y-68293798D01*
X206302800Y-67483800D01*
X204832801Y-67483800D01*
X204832801Y-67593795D01*
X199663300Y-67593795D01*
X199663299Y-67391122D01*
X199663299Y-67229565D01*
X199663299Y-66878464D01*
X199663299Y-66873807D01*
X204832800Y-66873807D01*
X204832800Y-66873810D01*
X204832800Y-66873813D01*
X204832800Y-66983800D01*
X206302800Y-66983800D01*
X206802800Y-66983800D01*
X209567600Y-66983800D01*
X210067600Y-66983800D01*
X211537599Y-66983800D01*
X211537599Y-66873828D01*
X211537598Y-66873813D01*
X211527105Y-66771102D01*
X211471958Y-66604680D01*
X211471956Y-66604675D01*
X211379915Y-66455454D01*
X211255945Y-66331484D01*
X211106724Y-66239443D01*
X211106719Y-66239441D01*
X211060674Y-66224183D01*
X210940299Y-66184294D01*
X210940294Y-66184293D01*
X210837591Y-66173800D01*
X210837586Y-66173800D01*
X210067600Y-66173800D01*
X210067600Y-66983800D01*
X209567600Y-66983800D01*
X209567600Y-66173800D01*
X208797637Y-66173800D01*
X208797628Y-66173800D01*
X208797612Y-66173801D01*
X208797602Y-66173801D01*
X208797602Y-66173802D01*
X208694904Y-66184293D01*
X208694902Y-66184294D01*
X208528487Y-66239438D01*
X208528479Y-66239441D01*
X208528477Y-66239442D01*
X208528475Y-66239443D01*
X208473878Y-66273119D01*
X208379250Y-66331486D01*
X208285485Y-66425252D01*
X208257227Y-66446405D01*
X208243509Y-66453895D01*
X208175251Y-66468746D01*
X208173445Y-66468617D01*
X208115244Y-66449249D01*
X208108729Y-66445062D01*
X208088093Y-66428432D01*
X207991146Y-66331485D01*
X207991145Y-66331484D01*
X207841924Y-66239443D01*
X207841919Y-66239441D01*
X207795874Y-66224183D01*
X207675499Y-66184294D01*
X207675494Y-66184293D01*
X207572791Y-66173800D01*
X207572786Y-66173800D01*
X206802800Y-66173800D01*
X206802800Y-66983800D01*
X206302800Y-66983800D01*
X206302800Y-66173800D01*
X205532837Y-66173800D01*
X205532828Y-66173800D01*
X205532812Y-66173801D01*
X205532802Y-66173801D01*
X205532802Y-66173802D01*
X205430104Y-66184293D01*
X205430102Y-66184294D01*
X205263687Y-66239438D01*
X205263679Y-66239441D01*
X205263677Y-66239442D01*
X205263675Y-66239443D01*
X205189166Y-66285401D01*
X205114452Y-66331485D01*
X204990485Y-66455452D01*
X204959803Y-66505194D01*
X204905609Y-66593058D01*
X204898441Y-66604679D01*
X204898438Y-66604688D01*
X204843294Y-66771099D01*
X204843293Y-66771104D01*
X204832800Y-66873807D01*
X199663299Y-66873807D01*
X199663299Y-66873798D01*
X199663298Y-66873780D01*
X199652799Y-66771003D01*
X199652798Y-66771000D01*
X199631350Y-66706275D01*
X199597614Y-66604466D01*
X199505512Y-66455144D01*
X199381456Y-66331088D01*
X199242804Y-66245567D01*
X199232136Y-66238987D01*
X199232131Y-66238985D01*
X199074065Y-66186607D01*
X199071239Y-66185439D01*
X199065596Y-66183799D01*
X198962825Y-66173300D01*
X198962816Y-66173300D01*
X198962809Y-66173300D01*
X198735130Y-66173300D01*
X198700189Y-66168275D01*
X198685190Y-66163870D01*
X198626444Y-66126127D01*
X198625257Y-66124758D01*
X198597777Y-66069883D01*
X198596132Y-66062321D01*
X198593300Y-66035968D01*
X198593300Y-65468525D01*
X198568107Y-65341880D01*
X198566737Y-65339041D01*
X198566359Y-65338168D01*
X198521523Y-65229924D01*
X198519266Y-65224475D01*
X198509283Y-65209534D01*
X198509283Y-65209533D01*
X198448079Y-65117934D01*
X198448073Y-65117926D01*
X198448071Y-65117924D01*
X198448069Y-65117921D01*
X197569477Y-64239329D01*
X197569473Y-64239326D01*
X197569469Y-64239323D01*
X197462927Y-64168135D01*
X197462925Y-64168134D01*
X197462922Y-64168132D01*
X197457404Y-64165847D01*
X197457401Y-64165846D01*
X197344553Y-64119102D01*
X197344533Y-64119095D01*
X197344525Y-64119093D01*
X197218874Y-64094100D01*
X197218871Y-64094100D01*
X197218869Y-64094100D01*
X191655131Y-64094100D01*
X191655129Y-64094100D01*
X191655126Y-64094100D01*
X191529473Y-64119093D01*
X191529465Y-64119095D01*
X191529445Y-64119102D01*
X191411075Y-64168133D01*
X191304523Y-64239328D01*
X190555297Y-64988557D01*
X190223323Y-65320530D01*
X190210955Y-65339041D01*
X190193979Y-65364449D01*
X190193978Y-65364450D01*
X190152137Y-65427068D01*
X190152130Y-65427080D01*
X190103099Y-65545453D01*
X190103093Y-65545480D01*
X190078101Y-65671123D01*
X190078101Y-65671126D01*
X190078101Y-65799273D01*
X190078101Y-65799275D01*
X190078100Y-65799275D01*
X190100149Y-65910115D01*
X190102142Y-65920133D01*
X190103099Y-65924944D01*
X190116120Y-65956382D01*
X190117265Y-65959651D01*
X190117368Y-65961668D01*
X190121842Y-65976418D01*
X190123113Y-65982807D01*
X190126517Y-65999915D01*
X190128900Y-66024109D01*
X190128900Y-68596962D01*
X190123876Y-68631899D01*
X190116464Y-68657140D01*
X190085169Y-68709884D01*
X176030080Y-82764973D01*
X176001829Y-82786122D01*
X175978741Y-82798730D01*
X175919311Y-82813900D01*
X172935326Y-82813900D01*
X172809673Y-82838893D01*
X172809665Y-82838895D01*
X172809645Y-82838902D01*
X172691280Y-82887929D01*
X172691270Y-82887934D01*
X172584728Y-82959124D01*
X172584727Y-82959125D01*
X172584721Y-82959130D01*
X171689876Y-83853976D01*
X171661622Y-83875127D01*
X171632529Y-83891013D01*
X171597295Y-83903798D01*
X171546708Y-83913860D01*
X171546707Y-83913861D01*
X171546705Y-83913861D01*
X171546675Y-83913872D01*
X171401033Y-83974198D01*
X171401024Y-83974203D01*
X171401007Y-83974213D01*
X171269908Y-84061811D01*
X171158418Y-84173302D01*
X171158405Y-84173316D01*
X171156606Y-84175415D01*
X171141992Y-84189844D01*
X171128481Y-84201135D01*
X171064418Y-84229019D01*
X171062613Y-84229245D01*
X171001755Y-84221597D01*
X170994559Y-84218765D01*
X170971085Y-84206485D01*
X170965579Y-84202806D01*
X170965578Y-84202805D01*
X170965576Y-84202804D01*
X170965571Y-84202802D01*
X170934287Y-84189844D01*
X170819902Y-84142464D01*
X170819871Y-84142457D01*
X170665247Y-84111700D01*
X170665245Y-84111700D01*
X170665242Y-84111700D01*
X170507558Y-84111700D01*
X170507555Y-84111700D01*
X170507553Y-84111700D01*
X170352927Y-84142457D01*
X170352896Y-84142464D01*
X170207228Y-84202801D01*
X170205412Y-84203678D01*
X170188543Y-84210349D01*
X170170506Y-84215995D01*
X170100663Y-84217240D01*
X170098913Y-84216760D01*
X170045604Y-84186402D01*
X170040040Y-84181033D01*
X170023052Y-84160703D01*
X169963587Y-84071707D01*
X169852097Y-83960217D01*
X169852091Y-83960212D01*
X169852090Y-83960211D01*
X169720991Y-83872613D01*
X169720990Y-83872612D01*
X169720985Y-83872609D01*
X169720972Y-83872602D01*
X169720965Y-83872598D01*
X169575302Y-83812264D01*
X169575271Y-83812257D01*
X169420647Y-83781500D01*
X169420645Y-83781500D01*
X169420642Y-83781500D01*
X169262958Y-83781500D01*
X169262955Y-83781500D01*
X169262953Y-83781500D01*
X169108327Y-83812257D01*
X169108296Y-83812264D01*
X168962633Y-83872598D01*
X168962624Y-83872603D01*
X168962607Y-83872613D01*
X168831508Y-83960211D01*
X168831507Y-83960212D01*
X168831501Y-83960217D01*
X168720017Y-84071701D01*
X168720012Y-84071707D01*
X168720011Y-84071708D01*
X168632413Y-84202807D01*
X168632403Y-84202824D01*
X168632398Y-84202833D01*
X168572064Y-84348496D01*
X168572057Y-84348527D01*
X168541300Y-84503150D01*
X168541300Y-84503153D01*
X168541300Y-84660846D01*
X168541300Y-84660848D01*
X168541299Y-84660848D01*
X168572057Y-84815471D01*
X168572064Y-84815502D01*
X168632397Y-84961162D01*
X168632403Y-84961175D01*
X168660496Y-85003218D01*
X168675728Y-85035056D01*
X168685634Y-85066692D01*
X168691300Y-85103745D01*
X168691300Y-86424069D01*
X168710662Y-86521406D01*
X168716299Y-86549744D01*
X168765335Y-86668127D01*
X168831967Y-86767851D01*
X168836517Y-86774660D01*
X168836518Y-86774663D01*
X168836523Y-86774669D01*
X168836526Y-86774673D01*
X168836527Y-86774674D01*
X169213853Y-87152000D01*
X169579065Y-87517211D01*
X169600214Y-87545461D01*
X169605635Y-87555388D01*
X169620489Y-87623661D01*
X169596075Y-87689126D01*
X169540143Y-87730999D01*
X169540139Y-87731001D01*
X169532951Y-87733682D01*
X169489617Y-87741500D01*
X169426438Y-87741500D01*
X169391502Y-87736477D01*
X169366260Y-87729065D01*
X169313515Y-87697769D01*
X166209022Y-84593276D01*
X166187871Y-84565022D01*
X166171985Y-84535929D01*
X166159200Y-84500693D01*
X166149138Y-84450108D01*
X166149137Y-84450107D01*
X166149137Y-84450103D01*
X166105908Y-84345737D01*
X166088797Y-84304427D01*
X166088790Y-84304414D01*
X166001189Y-84173311D01*
X166001186Y-84173307D01*
X166001181Y-84173301D01*
X165889697Y-84061817D01*
X165889691Y-84061812D01*
X165889690Y-84061811D01*
X165758591Y-83974213D01*
X165758590Y-83974212D01*
X165758585Y-83974209D01*
X165758572Y-83974202D01*
X165758565Y-83974198D01*
X165612902Y-83913864D01*
X165612871Y-83913857D01*
X165458247Y-83883100D01*
X165458245Y-83883100D01*
X165458242Y-83883100D01*
X165300558Y-83883100D01*
X165300555Y-83883100D01*
X165300553Y-83883100D01*
X165145927Y-83913857D01*
X165145896Y-83913864D01*
X165000233Y-83974198D01*
X165000224Y-83974203D01*
X165000207Y-83974213D01*
X164869108Y-84061811D01*
X164869107Y-84061812D01*
X164869101Y-84061817D01*
X164757617Y-84173301D01*
X164757612Y-84173307D01*
X164757611Y-84173308D01*
X164670013Y-84304407D01*
X164670003Y-84304424D01*
X164669998Y-84304433D01*
X164609664Y-84450096D01*
X164609657Y-84450127D01*
X164578900Y-84604750D01*
X164578900Y-84604753D01*
X164578900Y-84762446D01*
X164578900Y-84762448D01*
X164578899Y-84762448D01*
X164609657Y-84917071D01*
X164609664Y-84917102D01*
X164669998Y-85062765D01*
X164670003Y-85062774D01*
X164670013Y-85062791D01*
X164757611Y-85193890D01*
X164757612Y-85193891D01*
X164757617Y-85193897D01*
X164869101Y-85305381D01*
X164869107Y-85305386D01*
X164869111Y-85305389D01*
X165000214Y-85392990D01*
X165000227Y-85392997D01*
X165087630Y-85429199D01*
X165145903Y-85453337D01*
X165202011Y-85464497D01*
X165208356Y-85466484D01*
X165212330Y-85469139D01*
X165228773Y-85474940D01*
X165258146Y-85490304D01*
X165288352Y-85512498D01*
X168673125Y-88897272D01*
X168673132Y-88897278D01*
X168682667Y-88903649D01*
X168779674Y-88968466D01*
X168828034Y-88988496D01*
X168848256Y-88997607D01*
X168854119Y-89002635D01*
X168875131Y-89014116D01*
X168880422Y-89018380D01*
X168892108Y-89035215D01*
X168901293Y-89043092D01*
X168904108Y-89052502D01*
X168920263Y-89075775D01*
X168922750Y-89145600D01*
X168887092Y-89205685D01*
X168831127Y-89235597D01*
X168828094Y-89236313D01*
X168826141Y-89236775D01*
X168797621Y-89240100D01*
X165337038Y-89240100D01*
X165302102Y-89235077D01*
X165276860Y-89227665D01*
X165224115Y-89196369D01*
X161840222Y-85812476D01*
X161819071Y-85784222D01*
X161803185Y-85755129D01*
X161790400Y-85719893D01*
X161780697Y-85671113D01*
X161780337Y-85669303D01*
X161761911Y-85624819D01*
X161749657Y-85595234D01*
X161719997Y-85523627D01*
X161719990Y-85523614D01*
X161632389Y-85392511D01*
X161632386Y-85392507D01*
X161632381Y-85392501D01*
X161520897Y-85281017D01*
X161520891Y-85281012D01*
X161520890Y-85281011D01*
X161389791Y-85193413D01*
X161389790Y-85193412D01*
X161389785Y-85193409D01*
X161389772Y-85193402D01*
X161389765Y-85193398D01*
X161244102Y-85133064D01*
X161244071Y-85133057D01*
X161089447Y-85102300D01*
X161089445Y-85102300D01*
X161089442Y-85102300D01*
X160931758Y-85102300D01*
X160931755Y-85102300D01*
X160931753Y-85102300D01*
X160777127Y-85133057D01*
X160777096Y-85133064D01*
X160631433Y-85193398D01*
X160631424Y-85193403D01*
X160631407Y-85193413D01*
X160500308Y-85281011D01*
X160500307Y-85281012D01*
X160500301Y-85281017D01*
X160388817Y-85392501D01*
X160388812Y-85392507D01*
X160388811Y-85392508D01*
X160301213Y-85523607D01*
X160301203Y-85523624D01*
X160301198Y-85523633D01*
X160240864Y-85669296D01*
X160240857Y-85669327D01*
X160210100Y-85823950D01*
X160210100Y-85823953D01*
X160210100Y-85981646D01*
X160210100Y-85981648D01*
X160210099Y-85981648D01*
X149064326Y-85981648D01*
X147686826Y-84604148D01*
X147665674Y-84575892D01*
X147653067Y-84552803D01*
X147637900Y-84493378D01*
X147637900Y-74343579D01*
X147637900Y-74343159D01*
X147637899Y-74343153D01*
X147637451Y-74340897D01*
X147637451Y-74340896D01*
X147619943Y-74252879D01*
X147615339Y-74229735D01*
X147607139Y-74188508D01*
X147607137Y-74188503D01*
X147600389Y-74172213D01*
X147565929Y-74089018D01*
X147565927Y-74089014D01*
X147548474Y-74046878D01*
X147547170Y-74043384D01*
X147524872Y-74010012D01*
X147459188Y-73911709D01*
X147459185Y-73911706D01*
X147411140Y-73863662D01*
X145631366Y-72083888D01*
X145610214Y-72055632D01*
X145602722Y-72041911D01*
X145587870Y-71973651D01*
X145587999Y-71971842D01*
X145607365Y-71913647D01*
X145611558Y-71907123D01*
X145628175Y-71886502D01*
X145633429Y-71881248D01*
X148945500Y-71881248D01*
X148945500Y-72085952D01*
X148945668Y-72087013D01*
X148945668Y-72087020D01*
X148949878Y-72113592D01*
X148949878Y-72113595D01*
X148977520Y-72288129D01*
X148977521Y-72288130D01*
X148977522Y-72288134D01*
X148994000Y-72338847D01*
X149040779Y-72482819D01*
X149040781Y-72482823D01*
X149049195Y-72499337D01*
X149077404Y-72554698D01*
X149077404Y-72554700D01*
X149077405Y-72554700D01*
X149131191Y-72660262D01*
X149133713Y-72665211D01*
X149183259Y-72733406D01*
X149254028Y-72830813D01*
X149398786Y-72975571D01*
X149518980Y-73062895D01*
X149564390Y-73095887D01*
X149644735Y-73136825D01*
X149648136Y-73138841D01*
X149651050Y-73141969D01*
X149670045Y-73155360D01*
X149679459Y-73164252D01*
X149692285Y-73186228D01*
X149695764Y-73189962D01*
X149696346Y-73193186D01*
X149714679Y-73224596D01*
X149711683Y-73294401D01*
X149675521Y-73348105D01*
X149668519Y-73354173D01*
X149643606Y-73370950D01*
X149564387Y-73411314D01*
X149564385Y-73411315D01*
X149398787Y-73531627D01*
X149398784Y-73531629D01*
X149254029Y-73676384D01*
X149254027Y-73676387D01*
X149133715Y-73841985D01*
X149133708Y-73841997D01*
X149040786Y-74024364D01*
X149040780Y-74024377D01*
X148977521Y-74219068D01*
X148977520Y-74219069D01*
X148947095Y-74411174D01*
X148947095Y-74411178D01*
X148945500Y-74421248D01*
X148945500Y-74421249D01*
X148945500Y-74421252D01*
X148945500Y-74625955D01*
X148947082Y-74635947D01*
X148977080Y-74825343D01*
X148977522Y-74828134D01*
X148997234Y-74888800D01*
X149040780Y-75022821D01*
X149040783Y-75022828D01*
X149103753Y-75146410D01*
X149131425Y-75200720D01*
X149133714Y-75205211D01*
X149133717Y-75205216D01*
X149156825Y-75237022D01*
X149254028Y-75370813D01*
X149398786Y-75515571D01*
X149533483Y-75613432D01*
X149564390Y-75635887D01*
X149564392Y-75635888D01*
X149564395Y-75635890D01*
X149641193Y-75675020D01*
X149670045Y-75695360D01*
X149679459Y-75704252D01*
X149714679Y-75764596D01*
X149711683Y-75834401D01*
X149675521Y-75888105D01*
X149668519Y-75894173D01*
X149643606Y-75910950D01*
X149564387Y-75951314D01*
X149564385Y-75951315D01*
X149398787Y-76071627D01*
X149398784Y-76071629D01*
X149254029Y-76216384D01*
X149254027Y-76216387D01*
X149133715Y-76381985D01*
X149133708Y-76381997D01*
X149040786Y-76564364D01*
X149040781Y-76564374D01*
X149040781Y-76564376D01*
X149038167Y-76572422D01*
X148977523Y-76759060D01*
X148977521Y-76759067D01*
X148956972Y-76888816D01*
X148956972Y-76888817D01*
X148945500Y-76961248D01*
X148945500Y-77165953D01*
X148949878Y-77193592D01*
X148949878Y-77193595D01*
X148977520Y-77368129D01*
X148977521Y-77368130D01*
X148977522Y-77368134D01*
X149039710Y-77559528D01*
X149040782Y-77562825D01*
X149104691Y-77688253D01*
X149131422Y-77740714D01*
X149133713Y-77745211D01*
X149133715Y-77745213D01*
X149254028Y-77910813D01*
X149398786Y-78055571D01*
X149533483Y-78153432D01*
X149564390Y-78175887D01*
X149564392Y-78175888D01*
X149564395Y-78175890D01*
X149641193Y-78215020D01*
X149670045Y-78235360D01*
X149679459Y-78244252D01*
X149714679Y-78304596D01*
X149711683Y-78374401D01*
X149675521Y-78428105D01*
X149668519Y-78434173D01*
X149643606Y-78450950D01*
X149564387Y-78491314D01*
X149564385Y-78491315D01*
X149398787Y-78611627D01*
X149398784Y-78611629D01*
X149254029Y-78756384D01*
X149254027Y-78756387D01*
X149133715Y-78921985D01*
X149133708Y-78921997D01*
X149040786Y-79104364D01*
X149040780Y-79104377D01*
X148977521Y-79299068D01*
X148945500Y-79501242D01*
X148945500Y-79705956D01*
X148977503Y-79908017D01*
X148977522Y-79908134D01*
X149032967Y-80078775D01*
X149040782Y-80102825D01*
X149104691Y-80228253D01*
X149133542Y-80284875D01*
X149133715Y-80285213D01*
X149254026Y-80450811D01*
X149254028Y-80450813D01*
X149398786Y-80595571D01*
X149519226Y-80683074D01*
X149564390Y-80715887D01*
X149680607Y-80775103D01*
X149740327Y-80805532D01*
X149740326Y-80805532D01*
X149744600Y-80807709D01*
X149745867Y-80808355D01*
X149747650Y-80809263D01*
X149751403Y-80810322D01*
X149791488Y-80823346D01*
X149851135Y-80842726D01*
X149851136Y-80842727D01*
X149894612Y-80856853D01*
X149941465Y-80872077D01*
X150042557Y-80888088D01*
X150143648Y-80904100D01*
X150143649Y-80904100D01*
X150348351Y-80904100D01*
X150348352Y-80904100D01*
X150550534Y-80872077D01*
X150745219Y-80808820D01*
X150927610Y-80715887D01*
X151022277Y-80647108D01*
X151093213Y-80595571D01*
X151093215Y-80595568D01*
X151093219Y-80595566D01*
X151093223Y-80595561D01*
X151093276Y-80595523D01*
X151093985Y-80594799D01*
X151237966Y-80450819D01*
X151333275Y-80319634D01*
X151357868Y-80294328D01*
X151375510Y-80280724D01*
X151428344Y-80257053D01*
X151432737Y-80256228D01*
X151455611Y-80254100D01*
X174231873Y-80254100D01*
X174253342Y-80249828D01*
X174316415Y-80237282D01*
X174357544Y-80229101D01*
X174475927Y-80180065D01*
X174478636Y-80178254D01*
X174479572Y-80177630D01*
X174514791Y-80154097D01*
X174582469Y-80108877D01*
X177763326Y-76928017D01*
X177791572Y-76906872D01*
X177820673Y-76890982D01*
X177855903Y-76878200D01*
X177906497Y-76868137D01*
X178052179Y-76807794D01*
X178183289Y-76720189D01*
X178294789Y-76608689D01*
X178382394Y-76477579D01*
X178442737Y-76331897D01*
X178455027Y-76270114D01*
X178458320Y-76253552D01*
X178473500Y-76177242D01*
X178473500Y-76019558D01*
X178473500Y-76019555D01*
X178473500Y-76019371D01*
X178473070Y-76017394D01*
X178463418Y-75968873D01*
X178463418Y-75968871D01*
X178442738Y-75864908D01*
X178442736Y-75864901D01*
X178439097Y-75856116D01*
X178439094Y-75856108D01*
X178401189Y-75764596D01*
X178382397Y-75719227D01*
X178382390Y-75719214D01*
X178294789Y-75588111D01*
X178294786Y-75588107D01*
X178294781Y-75588101D01*
X178183297Y-75476617D01*
X178183291Y-75476612D01*
X178183290Y-75476611D01*
X178052191Y-75389013D01*
X178052190Y-75389012D01*
X178052185Y-75389009D01*
X178052172Y-75389002D01*
X178052165Y-75388998D01*
X177906502Y-75328664D01*
X177906471Y-75328657D01*
X177751847Y-75297900D01*
X177751845Y-75297900D01*
X177751842Y-75297900D01*
X177594158Y-75297900D01*
X177594155Y-75297900D01*
X177594153Y-75297900D01*
X177439527Y-75328657D01*
X177439496Y-75328664D01*
X177293833Y-75388998D01*
X177293824Y-75389003D01*
X177293807Y-75389013D01*
X177162708Y-75476611D01*
X177162707Y-75476612D01*
X177162701Y-75476617D01*
X177051217Y-75588101D01*
X177051212Y-75588107D01*
X177051211Y-75588108D01*
X176963613Y-75719207D01*
X176963603Y-75719224D01*
X176963598Y-75719233D01*
X176903272Y-75864875D01*
X176903264Y-75864899D01*
X176903259Y-75864913D01*
X176893398Y-75914491D01*
X176881657Y-75947773D01*
X176866292Y-75977147D01*
X176844097Y-76007354D01*
X173947280Y-78904173D01*
X173919029Y-78925322D01*
X173895941Y-78937930D01*
X173836511Y-78953100D01*
X158910438Y-78953100D01*
X158875503Y-78948077D01*
X158864649Y-78944890D01*
X158805871Y-78907116D01*
X158776846Y-78843560D01*
X158786786Y-78774411D01*
X158789976Y-78767424D01*
X158815085Y-78731260D01*
X159340464Y-78205882D01*
X160948526Y-76597817D01*
X160976772Y-76576672D01*
X161005873Y-76560782D01*
X161041103Y-76548000D01*
X161091697Y-76537937D01*
X161237379Y-76477594D01*
X161368489Y-76389989D01*
X161479989Y-76278489D01*
X161567594Y-76147379D01*
X161627937Y-76001697D01*
X161658700Y-75847042D01*
X161658700Y-75689358D01*
X161658700Y-75689355D01*
X161658700Y-75689173D01*
X161658265Y-75687172D01*
X161646829Y-75629683D01*
X161643356Y-75612221D01*
X161627937Y-75534703D01*
X161615193Y-75503936D01*
X161567597Y-75389027D01*
X161567590Y-75389014D01*
X161479989Y-75257911D01*
X161479986Y-75257907D01*
X161479981Y-75257901D01*
X161368497Y-75146417D01*
X161368490Y-75146411D01*
X161368488Y-75146410D01*
X161237391Y-75058813D01*
X161237390Y-75058812D01*
X161237385Y-75058809D01*
X161237372Y-75058802D01*
X161237365Y-75058798D01*
X161091702Y-74998464D01*
X161091671Y-74998457D01*
X161025919Y-74985378D01*
X160992637Y-74973637D01*
X160980568Y-74967324D01*
X160930289Y-74918809D01*
X160914220Y-74850812D01*
X160933133Y-74791341D01*
X160937537Y-74784352D01*
X160954761Y-74762782D01*
X161532725Y-74184818D01*
X161560972Y-74163672D01*
X161590073Y-74147782D01*
X161625303Y-74135000D01*
X161675897Y-74124937D01*
X161821579Y-74064594D01*
X161952689Y-73976989D01*
X162064189Y-73865489D01*
X162151794Y-73734379D01*
X162212137Y-73588697D01*
X162242900Y-73434042D01*
X162242900Y-73276358D01*
X162242900Y-73276355D01*
X162242900Y-73276171D01*
X162242470Y-73274194D01*
X162234464Y-73233947D01*
X162232818Y-73225671D01*
X162212137Y-73121703D01*
X162201444Y-73095887D01*
X162187778Y-73062894D01*
X162151802Y-72976040D01*
X162151799Y-72976033D01*
X162151797Y-72976027D01*
X162151790Y-72976014D01*
X162064189Y-72844911D01*
X162064186Y-72844907D01*
X162064181Y-72844901D01*
X161952697Y-72733417D01*
X161952691Y-72733412D01*
X161952687Y-72733409D01*
X161821591Y-72645813D01*
X161821590Y-72645812D01*
X161821585Y-72645809D01*
X161821572Y-72645802D01*
X161821565Y-72645798D01*
X161675902Y-72585464D01*
X161675871Y-72585457D01*
X161521247Y-72554700D01*
X161521245Y-72554700D01*
X161521242Y-72554700D01*
X161363558Y-72554700D01*
X161363555Y-72554700D01*
X161363553Y-72554700D01*
X161208927Y-72585457D01*
X161208896Y-72585464D01*
X161063233Y-72645798D01*
X161063224Y-72645803D01*
X161063207Y-72645813D01*
X160932112Y-72733409D01*
X160932107Y-72733412D01*
X160932101Y-72733417D01*
X160820617Y-72844901D01*
X160820612Y-72844907D01*
X160820611Y-72844908D01*
X160733013Y-72976007D01*
X160733003Y-72976024D01*
X160732998Y-72976033D01*
X160672672Y-73121675D01*
X160672664Y-73121699D01*
X160672659Y-73121713D01*
X160662798Y-73171291D01*
X160651057Y-73204573D01*
X160635692Y-73233947D01*
X160613497Y-73264154D01*
X159423790Y-74453861D01*
X159395537Y-74475012D01*
X159383584Y-74481539D01*
X159315311Y-74496391D01*
X159249847Y-74471975D01*
X159210906Y-74423209D01*
X159210033Y-74421252D01*
X159207540Y-74415660D01*
X159199175Y-74389360D01*
X159193769Y-74362179D01*
X159189537Y-74340903D01*
X159189535Y-74340897D01*
X159153085Y-74252898D01*
X159129200Y-74195233D01*
X159129195Y-74195224D01*
X159129190Y-74195214D01*
X159041589Y-74064111D01*
X159041586Y-74064107D01*
X159041581Y-74064101D01*
X158930097Y-73952617D01*
X158930091Y-73952612D01*
X158930090Y-73952611D01*
X158798991Y-73865013D01*
X158798990Y-73865012D01*
X158798985Y-73865009D01*
X158798972Y-73865002D01*
X158798965Y-73864998D01*
X158653302Y-73804664D01*
X158653271Y-73804657D01*
X158498647Y-73773900D01*
X158498645Y-73773900D01*
X158498642Y-73773900D01*
X158340958Y-73773900D01*
X158340955Y-73773900D01*
X158340953Y-73773900D01*
X158186327Y-73804657D01*
X158186299Y-73804663D01*
X158139110Y-73824210D01*
X158109642Y-73836416D01*
X158093595Y-73843063D01*
X158055147Y-73858988D01*
X158031893Y-73866042D01*
X158008401Y-73870716D01*
X157984204Y-73873100D01*
X151461901Y-73873100D01*
X151426962Y-73868076D01*
X151405591Y-73861800D01*
X151355399Y-73832984D01*
X151352150Y-73829915D01*
X151336967Y-73812645D01*
X151331168Y-73804664D01*
X151237966Y-73676381D01*
X151093219Y-73531634D01*
X151093213Y-73531628D01*
X150927614Y-73411315D01*
X150906859Y-73400740D01*
X150879768Y-73386936D01*
X150850801Y-73372176D01*
X150821956Y-73351842D01*
X150812544Y-73342953D01*
X150777321Y-73282612D01*
X150780313Y-73212806D01*
X150816474Y-73159098D01*
X150823479Y-73153027D01*
X150848386Y-73136252D01*
X150927610Y-73095887D01*
X150973020Y-73062895D01*
X151093213Y-72975571D01*
X151093215Y-72975568D01*
X151093219Y-72975566D01*
X151093222Y-72975562D01*
X151093273Y-72975526D01*
X151094032Y-72974752D01*
X151237966Y-72830819D01*
X151237968Y-72830815D01*
X151237971Y-72830813D01*
X151308737Y-72733410D01*
X151358287Y-72665210D01*
X151451220Y-72482819D01*
X151514477Y-72288134D01*
X151546500Y-72085952D01*
X151546500Y-71881248D01*
X151546500Y-71881243D01*
X151531841Y-71788692D01*
X151529023Y-71770902D01*
X151514477Y-71679065D01*
X151451218Y-71484376D01*
X151451216Y-71484373D01*
X151451215Y-71484369D01*
X151412816Y-71409009D01*
X151412815Y-71409008D01*
X151412149Y-71407700D01*
X151358287Y-71301990D01*
X151350556Y-71291349D01*
X151237971Y-71136386D01*
X151093213Y-70991628D01*
X151093212Y-70991627D01*
X151093211Y-70991626D01*
X150938202Y-70879008D01*
X150938199Y-70879006D01*
X150927613Y-70871315D01*
X150927612Y-70871314D01*
X150927610Y-70871313D01*
X150921535Y-70868217D01*
X150921531Y-70868215D01*
X150867898Y-70840888D01*
X150745223Y-70778381D01*
X150550534Y-70715122D01*
X150550532Y-70715121D01*
X150550530Y-70715121D01*
X150550529Y-70715120D01*
X150367862Y-70686190D01*
X150367861Y-70686190D01*
X150348352Y-70683100D01*
X150348351Y-70683100D01*
X150143649Y-70683100D01*
X150143648Y-70683100D01*
X150124139Y-70686190D01*
X150124138Y-70686190D01*
X149941469Y-70715120D01*
X149941468Y-70715121D01*
X149746777Y-70778380D01*
X149746764Y-70778386D01*
X149564397Y-70871308D01*
X149564385Y-70871315D01*
X149398787Y-70991627D01*
X149398784Y-70991629D01*
X149254029Y-71136384D01*
X149254027Y-71136387D01*
X149133715Y-71301985D01*
X149133708Y-71301997D01*
X149040786Y-71484364D01*
X149040780Y-71484377D01*
X148977521Y-71679068D01*
X148977520Y-71679069D01*
X148953303Y-71831974D01*
X148953302Y-71831981D01*
X148952069Y-71839771D01*
X148945500Y-71881248D01*
X145633429Y-71881248D01*
X145725983Y-71788695D01*
X146861760Y-70652918D01*
X147988670Y-69526006D01*
X148016924Y-69504857D01*
X148030644Y-69497366D01*
X148098900Y-69482515D01*
X148100710Y-69482644D01*
X148158913Y-69502014D01*
X148165424Y-69506198D01*
X148186056Y-69522824D01*
X148216832Y-69553600D01*
X148230144Y-69566912D01*
X148379466Y-69659014D01*
X148546003Y-69714199D01*
X148648791Y-69724700D01*
X149648808Y-69724699D01*
X149648816Y-69724698D01*
X149648819Y-69724698D01*
X149648827Y-69724697D01*
X149649117Y-69724679D01*
X149650133Y-69724563D01*
X149695259Y-69719953D01*
X149705103Y-69718948D01*
X149705103Y-69718947D01*
X149751597Y-69714199D01*
X149918134Y-69659014D01*
X150067456Y-69566912D01*
X150160747Y-69473620D01*
X150188999Y-69452473D01*
X150212089Y-69439866D01*
X150271512Y-69424700D01*
X150557761Y-69424700D01*
X150592696Y-69429723D01*
X150617939Y-69437135D01*
X150670685Y-69468431D01*
X150757550Y-69555296D01*
X150906872Y-69647398D01*
X151073409Y-69702583D01*
X151176197Y-69713084D01*
X152176214Y-69713083D01*
X152176222Y-69713082D01*
X152176225Y-69713082D01*
X152176233Y-69713081D01*
X152176523Y-69713063D01*
X152177539Y-69712947D01*
X152222665Y-69708337D01*
X152232509Y-69707332D01*
X152232509Y-69707331D01*
X152279003Y-69702583D01*
X152445540Y-69647398D01*
X152594862Y-69555296D01*
X152688153Y-69462004D01*
X152716405Y-69440857D01*
X152739495Y-69428250D01*
X152798918Y-69413084D01*
X156680014Y-69413084D01*
X156714946Y-69418105D01*
X156740190Y-69425518D01*
X156792936Y-69456814D01*
X156895312Y-69559190D01*
X156910732Y-69577978D01*
X156924046Y-69597903D01*
X156935503Y-69619336D01*
X156959136Y-69676392D01*
X156986783Y-69743140D01*
X156986794Y-69743160D01*
X157085339Y-69890640D01*
X157210755Y-70016056D01*
X157210761Y-70016061D01*
X157210765Y-70016064D01*
X157358246Y-70114609D01*
X157358259Y-70114616D01*
X157364918Y-70117374D01*
X157479944Y-70165019D01*
X157479982Y-70165034D01*
X157481163Y-70165523D01*
X157522134Y-70182494D01*
X157522136Y-70182494D01*
X157522141Y-70182496D01*
X157688480Y-70215582D01*
X157691203Y-70216304D01*
X157696106Y-70217100D01*
X157873493Y-70217100D01*
X157877614Y-70217100D01*
X157885467Y-70214717D01*
X157931482Y-70205564D01*
X157931483Y-70205564D01*
X158047453Y-70182497D01*
X158047453Y-70182496D01*
X158047458Y-70182496D01*
X158047461Y-70182494D01*
X158047466Y-70182494D01*
X158050654Y-70181173D01*
X158058635Y-70177873D01*
X158058676Y-70177851D01*
X158211340Y-70114616D01*
X158211340Y-70114615D01*
X158211347Y-70114613D01*
X158358835Y-70016064D01*
X158484264Y-69890635D01*
X158582813Y-69743147D01*
X158592837Y-69718948D01*
X158636094Y-69614514D01*
X158650694Y-69579266D01*
X158652022Y-69572594D01*
X158666985Y-69497366D01*
X158674215Y-69461021D01*
X158674215Y-69461018D01*
X158685300Y-69405291D01*
X158685300Y-69227909D01*
X158685300Y-69227906D01*
X158685300Y-69227820D01*
X158685113Y-69226973D01*
X158650696Y-69053941D01*
X158650693Y-69053932D01*
X158647183Y-69045459D01*
X158594873Y-68919168D01*
X158594793Y-68918976D01*
X158591341Y-68910641D01*
X158582816Y-68890059D01*
X158582809Y-68890046D01*
X158484264Y-68742565D01*
X158484261Y-68742561D01*
X158484256Y-68742555D01*
X158358840Y-68617139D01*
X158211360Y-68518594D01*
X158211340Y-68518583D01*
X158164522Y-68499191D01*
X158087536Y-68467303D01*
X158066103Y-68455846D01*
X158046178Y-68442532D01*
X158027390Y-68427112D01*
X157591080Y-67990800D01*
X157591075Y-67990796D01*
X157591074Y-67990795D01*
X157459975Y-67903197D01*
X157459974Y-67903196D01*
X157459969Y-67903193D01*
X157459956Y-67903186D01*
X157459949Y-67903182D01*
X157314286Y-67842848D01*
X157314255Y-67842841D01*
X157159631Y-67812084D01*
X157159629Y-67812084D01*
X157159626Y-67812084D01*
X152806267Y-67812084D01*
X152771331Y-67807061D01*
X152746089Y-67799649D01*
X152693344Y-67768353D01*
X152637862Y-67712871D01*
X152616710Y-67684615D01*
X152609218Y-67670894D01*
X152594366Y-67602634D01*
X152594495Y-67600825D01*
X152613859Y-67542632D01*
X152618043Y-67536120D01*
X152634678Y-67515479D01*
X152718915Y-67431243D01*
X152718915Y-67431242D01*
X152718918Y-67431240D01*
X152811020Y-67281918D01*
X152866205Y-67115381D01*
X152876706Y-67012593D01*
X152876705Y-66212576D01*
X152875655Y-66202301D01*
X152866205Y-66109787D01*
X152866204Y-66109784D01*
X152856745Y-66081239D01*
X152811020Y-65943250D01*
X152718918Y-65793928D01*
X152594862Y-65669872D01*
X152499449Y-65611021D01*
X152464173Y-65589262D01*
X152464168Y-65589260D01*
X152445542Y-65577771D01*
X152445541Y-65577770D01*
X152445540Y-65577770D01*
X152431933Y-65573261D01*
X152423684Y-65570527D01*
X152414561Y-65566306D01*
X152407982Y-65560547D01*
X152399595Y-65558085D01*
X152396078Y-65555739D01*
X152384190Y-65547509D01*
X152362697Y-65520911D01*
X152361986Y-65520288D01*
X152361870Y-65519887D01*
X152340281Y-65493170D01*
X152336204Y-65483361D01*
X152326706Y-65435767D01*
X152326706Y-65015536D01*
X152331729Y-64980602D01*
X152338004Y-64959231D01*
X152366830Y-64909024D01*
X152369896Y-64905779D01*
X152387152Y-64890608D01*
X152530187Y-64786690D01*
X152680499Y-64636378D01*
X152680501Y-64636374D01*
X152680504Y-64636372D01*
X152789481Y-64486375D01*
X152805446Y-64464402D01*
X152806445Y-64462440D01*
X152810339Y-64456950D01*
X152812194Y-64455484D01*
X152821335Y-64443541D01*
X152831045Y-64433260D01*
X152891389Y-64398041D01*
X152961194Y-64401036D01*
X153014904Y-64437204D01*
X153021096Y-64444350D01*
X153033081Y-64460714D01*
X153035348Y-64464410D01*
X153160281Y-64636368D01*
X153310611Y-64786698D01*
X153482564Y-64911628D01*
X153482595Y-64911646D01*
X153482837Y-64911768D01*
X153671983Y-65008143D01*
X153874152Y-65073832D01*
X154084108Y-65107086D01*
X154084109Y-65107086D01*
X154296681Y-65107086D01*
X154296682Y-65107086D01*
X154506638Y-65073832D01*
X154708807Y-65008143D01*
X154898211Y-64911637D01*
X155052843Y-64799291D01*
X155070179Y-64786696D01*
X155070179Y-64786695D01*
X155070187Y-64786690D01*
X155171120Y-64685755D01*
X155199368Y-64664609D01*
X155211551Y-64657957D01*
X155279822Y-64643107D01*
X155345286Y-64667525D01*
X155345293Y-64667529D01*
X155348966Y-64670279D01*
X155390830Y-64726207D01*
X155410212Y-64778172D01*
X155436597Y-64848914D01*
X155436601Y-64848921D01*
X155471974Y-64896173D01*
X155522845Y-64964128D01*
X155522846Y-64964129D01*
X155522847Y-64964130D01*
X155522850Y-64964133D01*
X155638059Y-65050379D01*
X155638066Y-65050383D01*
X155772911Y-65100677D01*
X155801429Y-65103743D01*
X155835618Y-65112469D01*
X155850066Y-65118454D01*
X155904461Y-65162287D01*
X155907497Y-65166659D01*
X155928048Y-65217543D01*
X155928297Y-65219079D01*
X155929895Y-65238922D01*
X155929895Y-65343841D01*
X155929895Y-65343843D01*
X155929894Y-65343843D01*
X155960652Y-65498466D01*
X155960659Y-65498497D01*
X156020993Y-65644160D01*
X156020998Y-65644169D01*
X156021008Y-65644186D01*
X156108606Y-65775285D01*
X156108607Y-65775286D01*
X156108612Y-65775292D01*
X160957185Y-70623863D01*
X162573211Y-72239889D01*
X162669836Y-72336514D01*
X162684712Y-72351390D01*
X162815814Y-72438990D01*
X162815827Y-72438997D01*
X162921634Y-72482823D01*
X162961503Y-72499337D01*
X162961505Y-72499337D01*
X162961510Y-72499339D01*
X163087630Y-72524425D01*
X163108513Y-72528579D01*
X163111247Y-72529303D01*
X163116155Y-72530100D01*
X179402844Y-72530100D01*
X179406964Y-72530100D01*
X179414814Y-72527718D01*
X179557497Y-72499337D01*
X179703179Y-72438994D01*
X179834289Y-72351389D01*
X181382078Y-70803600D01*
X183444898Y-70803600D01*
X184309899Y-70803600D01*
X184376938Y-70823285D01*
X184422693Y-70876089D01*
X184432637Y-70945247D01*
X184431517Y-70951790D01*
X184424000Y-70989581D01*
X184424000Y-71117619D01*
X184425639Y-71125857D01*
X184431517Y-71155410D01*
X184425288Y-71225001D01*
X184382425Y-71280178D01*
X184316535Y-71303422D01*
X184309899Y-71303600D01*
X183444898Y-71303600D01*
X183454869Y-71366558D01*
X183460934Y-71404847D01*
X183533897Y-71629402D01*
X183641085Y-71839771D01*
X183779866Y-72030786D01*
X183946813Y-72197733D01*
X184137828Y-72336514D01*
X184348197Y-72443702D01*
X184479782Y-72486457D01*
X184509252Y-72506607D01*
X184572749Y-72516664D01*
X184572752Y-72516665D01*
X184572751Y-72516665D01*
X184805948Y-72553600D01*
X184824000Y-72553600D01*
X184824000Y-71817700D01*
X184843685Y-71750661D01*
X184896489Y-71704906D01*
X184965647Y-71694962D01*
X184972172Y-71696079D01*
X185009981Y-71703600D01*
X185138019Y-71703600D01*
X185175808Y-71696083D01*
X185245399Y-71702310D01*
X185300577Y-71745172D01*
X185323822Y-71811061D01*
X185324000Y-71817700D01*
X185324000Y-72553600D01*
X185342051Y-72553600D01*
X185342052Y-72553600D01*
X185575247Y-72516665D01*
X185799802Y-72443702D01*
X186010171Y-72336514D01*
X186201186Y-72197733D01*
X186368133Y-72030786D01*
X186506914Y-71839771D01*
X186614102Y-71629402D01*
X186687065Y-71404847D01*
X186703102Y-71303600D01*
X186703101Y-71303600D01*
X185838101Y-71303600D01*
X185771062Y-71283915D01*
X185725307Y-71231111D01*
X185715363Y-71161953D01*
X185716483Y-71155410D01*
X185722361Y-71125857D01*
X185724000Y-71117619D01*
X185724000Y-70989581D01*
X185716483Y-70951790D01*
X185722712Y-70882199D01*
X185765575Y-70827022D01*
X185831465Y-70803778D01*
X185838101Y-70803600D01*
X186703102Y-70803600D01*
X186687065Y-70702352D01*
X186614102Y-70477797D01*
X186506914Y-70267428D01*
X186368133Y-70076413D01*
X186201186Y-69909466D01*
X186010171Y-69770685D01*
X185988474Y-69759630D01*
X185799806Y-69663498D01*
X185730399Y-69640946D01*
X185668215Y-69620741D01*
X185638746Y-69600591D01*
X185342057Y-69553600D01*
X185342052Y-69553600D01*
X185324000Y-69553600D01*
X185324000Y-70289499D01*
X185304315Y-70356538D01*
X185251511Y-70402293D01*
X185182353Y-70412237D01*
X185175810Y-70411117D01*
X185166660Y-70409297D01*
X185138019Y-70403600D01*
X185138018Y-70403600D01*
X185009982Y-70403600D01*
X185009981Y-70403600D01*
X184972190Y-70411117D01*
X184902599Y-70404888D01*
X184847422Y-70362025D01*
X184824178Y-70296135D01*
X184824000Y-70289499D01*
X184824000Y-69553600D01*
X184805948Y-69553600D01*
X184805943Y-69553600D01*
X184572755Y-69590533D01*
X184348194Y-69663498D01*
X184137827Y-69770685D01*
X184060759Y-69826679D01*
X183946813Y-69909466D01*
X183946811Y-69909468D01*
X183946810Y-69909468D01*
X183779868Y-70076410D01*
X183779868Y-70076411D01*
X183779866Y-70076413D01*
X183730678Y-70144114D01*
X183641085Y-70267427D01*
X183533898Y-70477794D01*
X183533897Y-70477796D01*
X183533897Y-70477797D01*
X183460934Y-70702352D01*
X183444898Y-70803600D01*
X181382078Y-70803600D01*
X181655191Y-70530487D01*
X182921871Y-69263806D01*
X183427398Y-68758277D01*
X183446180Y-68742862D01*
X183466102Y-68729551D01*
X183487536Y-68718094D01*
X183611347Y-68666813D01*
X183758835Y-68568264D01*
X183884264Y-68442835D01*
X183982813Y-68295347D01*
X183987801Y-68283306D01*
X184018064Y-68210243D01*
X184045437Y-68144156D01*
X184065003Y-68111912D01*
X184071397Y-68104290D01*
X184084328Y-68079564D01*
X184145039Y-68044982D01*
X184214809Y-68048713D01*
X184246085Y-68065068D01*
X184251198Y-68068754D01*
X184284221Y-68104242D01*
X184290079Y-68113739D01*
X184290082Y-68113743D01*
X184414054Y-68237715D01*
X184563275Y-68329756D01*
X184563280Y-68329758D01*
X184729699Y-68384904D01*
X184729700Y-68384904D01*
X184729702Y-68384905D01*
X184729709Y-68384906D01*
X184832419Y-68395399D01*
X185602399Y-68395399D01*
X186102400Y-68395399D01*
X186872360Y-68395399D01*
X186872372Y-68395399D01*
X186872386Y-68395398D01*
X186975097Y-68384905D01*
X187141519Y-68329758D01*
X187141524Y-68329756D01*
X187290745Y-68237715D01*
X187414715Y-68113745D01*
X187506756Y-67964524D01*
X187506758Y-67964519D01*
X187561905Y-67798097D01*
X187561906Y-67798090D01*
X187572399Y-67695386D01*
X187572400Y-67695373D01*
X187572400Y-67585400D01*
X186102400Y-67585400D01*
X186102400Y-68395399D01*
X185602399Y-68395399D01*
X185602400Y-68395398D01*
X185602400Y-67585400D01*
X184142790Y-67585400D01*
X184107849Y-67580375D01*
X184092850Y-67575970D01*
X184034078Y-67538198D01*
X184025159Y-67527905D01*
X184004310Y-67494153D01*
X183982814Y-67442255D01*
X183982810Y-67442248D01*
X183975455Y-67431241D01*
X183884264Y-67294765D01*
X183884261Y-67294761D01*
X183884256Y-67294755D01*
X183758843Y-67169342D01*
X183758837Y-67169337D01*
X183758836Y-67169336D01*
X183618201Y-67075366D01*
X183611353Y-67070790D01*
X183611340Y-67070783D01*
X183595691Y-67064301D01*
X183447476Y-67002909D01*
X183447453Y-67002901D01*
X183447446Y-67002899D01*
X183309229Y-66975407D01*
X184132400Y-66975407D01*
X184132400Y-66975410D01*
X184132400Y-66975413D01*
X184132400Y-67085400D01*
X185602400Y-67085400D01*
X186102400Y-67085400D01*
X187572399Y-67085400D01*
X187572399Y-66975428D01*
X187572398Y-66975413D01*
X187561905Y-66872702D01*
X187506758Y-66706280D01*
X187506756Y-66706275D01*
X187414715Y-66557054D01*
X187290745Y-66433084D01*
X187141524Y-66341043D01*
X187141519Y-66341041D01*
X187111483Y-66331088D01*
X186975099Y-66285894D01*
X186975094Y-66285893D01*
X186872391Y-66275400D01*
X186872386Y-66275400D01*
X186102400Y-66275400D01*
X186102400Y-67085400D01*
X185602400Y-67085400D01*
X185602400Y-66275400D01*
X184832437Y-66275400D01*
X184832428Y-66275400D01*
X184832412Y-66275401D01*
X184832402Y-66275401D01*
X184832402Y-66275402D01*
X184729704Y-66285893D01*
X184729702Y-66285894D01*
X184563287Y-66341038D01*
X184563279Y-66341041D01*
X184563277Y-66341042D01*
X184563275Y-66341043D01*
X184463794Y-66402403D01*
X184414052Y-66433085D01*
X184290085Y-66557052D01*
X184267873Y-66593064D01*
X184198043Y-66706275D01*
X184198041Y-66706280D01*
X184185593Y-66743846D01*
X184142894Y-66872699D01*
X184142893Y-66872704D01*
X184132400Y-66975407D01*
X183309229Y-66975407D01*
X183273498Y-66968300D01*
X183273494Y-66968300D01*
X183273491Y-66968300D01*
X183096109Y-66968300D01*
X183096104Y-66968300D01*
X183096101Y-66968300D01*
X183045677Y-66978330D01*
X183010434Y-66980220D01*
X182996610Y-66978983D01*
X182931592Y-66953401D01*
X182890726Y-66896730D01*
X182887060Y-66886337D01*
X182880000Y-66845093D01*
X182880000Y-62143229D01*
X182885023Y-62108293D01*
X182885761Y-62105782D01*
X182889427Y-62093294D01*
X182927172Y-62034544D01*
X182928541Y-62033357D01*
X182983420Y-62005877D01*
X182990979Y-62004233D01*
X183017332Y-62001400D01*
X238542041Y-62001400D01*
X238576977Y-62006423D01*
G37*
%TD.AperFunction*%
%TD*%
M02*
