%TF.GenerationSoftware,KiCad,Pcbnew,10.0.4*%
%TF.CreationDate,2026-07-31T15:30:24+02:00*%
%TF.ProjectId,nixieclocklogic_V2-2,6e697869-6563-46c6-9f63-6b6c6f676963,2.2*%
%TF.SameCoordinates,Original*%
%TF.FileFunction,Copper,L2,Bot*%
%TF.FilePolarity,Positive*%
%FSLAX46Y46*%
G04 Gerber Fmt 4.6, Leading zero omitted, Abs format (unit mm)*
G04 Created by KiCad (PCBNEW 10.0.4) date 2026-07-31 15:30:24*
%MOMM*%
%LPD*%
G01*
G04 APERTURE LIST*
G04 Aperture macros list*
%AMRoundRect*
0 Rectangle with rounded corners*
0 $1 Rounding radius*
0 $2 $3 $4 $5 $6 $7 $8 $9 X,Y pos of 4 corners*
0 Add a 4 corners polygon primitive as box body*
4,1,4,$2,$3,$4,$5,$6,$7,$8,$9,$2,$3,0*
0 Add four circle primitives for the rounded corners*
1,1,$1+$1,$2,$3*
1,1,$1+$1,$4,$5*
1,1,$1+$1,$6,$7*
1,1,$1+$1,$8,$9*
0 Add four rect primitives between the rounded corners*
20,1,$1+$1,$2,$3,$4,$5,0*
20,1,$1+$1,$4,$5,$6,$7,0*
20,1,$1+$1,$6,$7,$8,$9,0*
20,1,$1+$1,$8,$9,$2,$3,0*%
G04 Aperture macros list end*
%TA.AperFunction,ComponentPad*%
%ADD10R,1.700000X1.700000*%
%TD*%
%TA.AperFunction,ComponentPad*%
%ADD11C,1.700000*%
%TD*%
%TA.AperFunction,ComponentPad*%
%ADD12RoundRect,0.250000X-0.550000X-0.550000X0.550000X-0.550000X0.550000X0.550000X-0.550000X0.550000X0*%
%TD*%
%TA.AperFunction,ComponentPad*%
%ADD13C,1.600000*%
%TD*%
%TA.AperFunction,HeatsinkPad*%
%ADD14C,0.600000*%
%TD*%
%TA.AperFunction,ComponentPad*%
%ADD15O,3.200000X3.200000*%
%TD*%
%TA.AperFunction,ComponentPad*%
%ADD16RoundRect,0.250000X0.900000X-0.750000X0.900000X0.750000X-0.900000X0.750000X-0.900000X-0.750000X0*%
%TD*%
%TA.AperFunction,ComponentPad*%
%ADD17O,2.300000X2.000000*%
%TD*%
%TA.AperFunction,ComponentPad*%
%ADD18C,1.000000*%
%TD*%
%TA.AperFunction,ComponentPad*%
%ADD19RoundRect,0.250000X-0.550000X0.550000X-0.550000X-0.550000X0.550000X-0.550000X0.550000X0.550000X0*%
%TD*%
%TA.AperFunction,ComponentPad*%
%ADD20RoundRect,0.250000X0.550000X0.550000X-0.550000X0.550000X-0.550000X-0.550000X0.550000X-0.550000X0*%
%TD*%
%TA.AperFunction,ComponentPad*%
%ADD21RoundRect,0.248400X-0.651600X-0.651600X0.651600X-0.651600X0.651600X0.651600X-0.651600X0.651600X0*%
%TD*%
%TA.AperFunction,ComponentPad*%
%ADD22C,1.800000*%
%TD*%
%TA.AperFunction,SMDPad,CuDef*%
%ADD23RoundRect,0.250000X0.970000X0.310000X-0.970000X0.310000X-0.970000X-0.310000X0.970000X-0.310000X0*%
%TD*%
%TA.AperFunction,SMDPad,CuDef*%
%ADD24RoundRect,0.250000X0.450000X-0.350000X0.450000X0.350000X-0.450000X0.350000X-0.450000X-0.350000X0*%
%TD*%
%TA.AperFunction,SMDPad,CuDef*%
%ADD25RoundRect,0.100000X-0.737500X0.100000X-0.737500X-0.100000X0.737500X-0.100000X0.737500X0.100000X0*%
%TD*%
%TA.AperFunction,ComponentPad*%
%ADD26O,1.550000X0.890000*%
%TD*%
%TA.AperFunction,SMDPad,CuDef*%
%ADD27RoundRect,0.250000X-0.525000X0.475000X-0.525000X-0.475000X0.525000X-0.475000X0.525000X0.475000X0*%
%TD*%
%TA.AperFunction,ComponentPad*%
%ADD28O,0.950000X1.250000*%
%TD*%
%TA.AperFunction,SMDPad,CuDef*%
%ADD29RoundRect,0.250000X-0.525000X0.500000X-0.525000X-0.500000X0.525000X-0.500000X0.525000X0.500000X0*%
%TD*%
%TA.AperFunction,SMDPad,CuDef*%
%ADD30RoundRect,0.150000X0.512500X0.150000X-0.512500X0.150000X-0.512500X-0.150000X0.512500X-0.150000X0*%
%TD*%
%TA.AperFunction,ComponentPad*%
%ADD31R,3.000000X3.000000*%
%TD*%
%TA.AperFunction,ComponentPad*%
%ADD32C,3.000000*%
%TD*%
%TA.AperFunction,SMDPad,CuDef*%
%ADD33RoundRect,0.250000X-0.970000X-0.310000X0.970000X-0.310000X0.970000X0.310000X-0.970000X0.310000X0*%
%TD*%
%TA.AperFunction,ViaPad*%
%ADD34C,0.600000*%
%TD*%
%TA.AperFunction,ViaPad*%
%ADD35C,0.800000*%
%TD*%
%TA.AperFunction,Conductor*%
%ADD36C,0.600000*%
%TD*%
%TA.AperFunction,Conductor*%
%ADD37C,0.300000*%
%TD*%
G04 APERTURE END LIST*
D10*
%TO.P,J3,1,Pin_1_1*%
%TO.N,VCC*%
X156730395Y-63756586D03*
D11*
%TO.P,J3,2,Pin_2_2*%
X154190395Y-63756586D03*
%TO.P,J3,3,Pin_3_3*%
%TO.N,/SCL*%
X151650395Y-63756586D03*
%TO.P,J3,4,Pin_4_4*%
%TO.N,/SDA*%
X149110395Y-63756586D03*
%TO.P,J3,5,Pin_5_5*%
%TO.N,unconnected-(J3-Pin_5-Pad5)*%
X146570395Y-63756586D03*
%TO.P,J3,6,Pin_6_6*%
%TO.N,Net-(J3-Pin_6)*%
X144030395Y-63756586D03*
%TO.P,J3,7,Pin_7_7*%
%TO.N,GND*%
X141490395Y-63756586D03*
%TO.P,J3,8,Pin_8_8*%
X138950395Y-63756586D03*
%TD*%
D12*
%TO.P,U2,1,VCC2_1*%
%TO.N,+3.3V*%
X142626000Y-71983600D03*
D13*
%TO.P,U2,2,X1_2*%
%TO.N,Net-(U2-X1)*%
X142626000Y-74523600D03*
%TO.P,U2,3,X2_3*%
%TO.N,Net-(U2-X2)*%
X142626000Y-77063600D03*
%TO.P,U2,4,GND_4*%
%TO.N,GND*%
X142626000Y-79603600D03*
%TO.P,U2,5,CE_5*%
%TO.N,Net-(U1-IO2)*%
X150246000Y-79603600D03*
%TO.P,U2,6,I/O_6*%
%TO.N,Net-(U1-IO4)*%
X150246000Y-77063600D03*
%TO.P,U2,7,SCLK_7*%
%TO.N,Net-(U1-IO5)*%
X150246000Y-74523600D03*
%TO.P,U2,8,VCC1_8*%
%TO.N,Net-(BT1-+)*%
X150246000Y-71983600D03*
%TD*%
D10*
%TO.P,J5,1,Pin_1_1*%
%TO.N,Net-(J5-Pin_1)*%
X133502400Y-104368600D03*
D11*
%TO.P,J5,2,Pin_2_2*%
%TO.N,Net-(J5-Pin_2)*%
X136042400Y-104368600D03*
%TO.P,J5,3,Pin_3_3*%
%TO.N,Net-(J5-Pin_3)*%
X138582400Y-104368600D03*
%TO.P,J5,4,Pin_4_4*%
%TO.N,Net-(J5-Pin_4)*%
X141122400Y-104368600D03*
%TO.P,J5,5,Pin_5_5*%
%TO.N,Net-(J5-Pin_5)*%
X143662400Y-104368600D03*
%TO.P,J5,6,Pin_6_6*%
%TO.N,Net-(J5-Pin_6)*%
X146202400Y-104368600D03*
%TO.P,J5,7,Pin_7_7*%
%TO.N,GND*%
X148742400Y-104368600D03*
%TO.P,J5,8,Pin_8_8*%
X151282400Y-104368600D03*
%TD*%
D14*
%TO.P,U1,41,GND_41*%
%TO.N,GND*%
X169539000Y-76386000D03*
X169539000Y-77786000D03*
X170239000Y-75686000D03*
X170239000Y-77086000D03*
X170239000Y-78486000D03*
X170939000Y-76386000D03*
X170939000Y-77786000D03*
X171639000Y-75686000D03*
X171639000Y-77086000D03*
X171639000Y-78486000D03*
X172339000Y-76386000D03*
X172339000Y-77786000D03*
%TD*%
D15*
%TO.P,U4,*%
%TO.N,*%
X105016200Y-93356408D03*
D16*
%TO.P,U4,1,VIN_1*%
%TO.N,/10V*%
X83642200Y-67491408D03*
D17*
%TO.P,U4,2,GND_2*%
%TO.N,GND*%
X83642200Y-70031408D03*
%TO.P,U4,3,SHDN_3*%
X83642200Y-72571408D03*
%TO.P,U4,4,GNDHV_4*%
%TO.N,/HVgnd*%
X83642200Y-90624408D03*
%TO.P,U4,5,VOUT_5*%
%TO.N,/HV*%
X83642200Y-93164408D03*
%TD*%
D18*
%TO.P,Y1,1,1_1*%
%TO.N,Net-(U2-X1)*%
X136345800Y-74726800D03*
%TO.P,Y1,2,2_2*%
%TO.N,Net-(U2-X2)*%
X136345800Y-77266800D03*
%TD*%
D10*
%TO.P,J4,1,Pin_1_1*%
%TO.N,/HV2*%
X88203688Y-104622358D03*
D11*
%TO.P,J4,2,Pin_2_2*%
X85663688Y-104622358D03*
%TO.P,J4,3,Pin_3_3*%
%TO.N,/HVgnd*%
X83123688Y-104622358D03*
%TO.P,J4,4,Pin_4_4*%
X80583688Y-104622358D03*
%TD*%
D16*
%TO.P,U6,1,VIN_1*%
%TO.N,VCC*%
X224279000Y-88253600D03*
D17*
%TO.P,U6,2,GND_2*%
%TO.N,GND*%
X224274000Y-71053600D03*
%TO.P,U6,3,VOUT_3*%
%TO.N,/10V*%
X185074000Y-88353600D03*
%TO.P,U6,4,GND_4*%
%TO.N,GND*%
X185074000Y-71053600D03*
%TD*%
D13*
%TO.P,C6,2*%
%TO.N,GND*%
X137652241Y-69414200D03*
D12*
%TO.P,C6,1*%
%TO.N,Net-(C6-Pad1)*%
X135152241Y-69414200D03*
%TD*%
D19*
%TO.P,C4,1*%
%TO.N,+3.3V*%
X200787000Y-94347021D03*
D13*
%TO.P,C4,2*%
%TO.N,GND*%
X200787000Y-96847021D03*
%TD*%
D12*
%TO.P,C5,1*%
%TO.N,VCC*%
X230719620Y-95478600D03*
D13*
%TO.P,C5,2*%
%TO.N,GND*%
X233219620Y-95478600D03*
%TD*%
D12*
%TO.P,U7,1*%
%TO.N,Net-(R7-Pad2)*%
X77221000Y-98597800D03*
D13*
%TO.P,U7,2*%
%TO.N,GND*%
X77221000Y-101137800D03*
%TO.P,U7,3*%
%TO.N,/HV2*%
X84841000Y-101137800D03*
%TO.P,U7,4*%
%TO.N,/HV*%
X84841000Y-98597800D03*
%TD*%
D20*
%TO.P,C12,1*%
%TO.N,Net-(U3-Vs)*%
X118400200Y-80791979D03*
D13*
%TO.P,C12,2*%
%TO.N,GND*%
X115900200Y-80791979D03*
%TD*%
D21*
%TO.P,U3,1,OUT_1*%
%TO.N,Net-(U1-IO48)*%
X115417600Y-65500800D03*
D22*
%TO.P,U3,2,GND_2*%
%TO.N,GND*%
X117957600Y-65500800D03*
%TO.P,U3,3,Vs_3*%
%TO.N,Net-(U3-Vs)*%
X120497600Y-65500800D03*
%TD*%
D23*
%TO.P,SW3,1,1_1*%
%TO.N,Net-(U1-IO11)*%
X218427600Y-67233800D03*
%TO.P,SW3,2,2_2*%
%TO.N,GND*%
X209817600Y-67233800D03*
%TD*%
D24*
%TO.P,R3,1*%
%TO.N,+3.3V*%
X149148800Y-68624200D03*
%TO.P,R3,2*%
%TO.N,/SDA*%
X149148800Y-66624200D03*
%TD*%
D13*
%TO.P,R6,1*%
%TO.N,+3.3V*%
X124612400Y-70358000D03*
%TO.P,R6,2*%
%TO.N,Net-(C6-Pad1)*%
X127152400Y-70358000D03*
%TD*%
D25*
%TO.P,J2,1,VBUS_1*%
%TO.N,VCC*%
X235013100Y-84552000D03*
%TO.P,J2,2,D-_2*%
%TO.N,Net-(J1-Pin_2)*%
X235013100Y-85202000D03*
%TO.P,J2,3,D+_3*%
%TO.N,Net-(J1-Pin_3)*%
X235013100Y-85852000D03*
%TO.P,J2,4,ID_4*%
%TO.N,unconnected-(J2-ID-Pad4)*%
X235013100Y-86502000D03*
%TO.P,J2,5,GND_5*%
%TO.N,GND*%
X235013100Y-87152000D03*
D26*
%TO.P,J2,SH,Shield_SH*%
X237875600Y-82352000D03*
D27*
X237875600Y-82827000D03*
D28*
X235175600Y-83352000D03*
D29*
X237875600Y-84852000D03*
X237875600Y-86852000D03*
D28*
X235175600Y-88352000D03*
D27*
X237875600Y-88877000D03*
D26*
X237875600Y-89352000D03*
%TD*%
D30*
%TO.P,U22,1,I/O1_1*%
%TO.N,Net-(J1-Pin_2)*%
X192196300Y-83886000D03*
%TO.P,U22,2,GND_2*%
%TO.N,GND*%
X192196300Y-84836000D03*
%TO.P,U22,3,I/O2_3*%
%TO.N,Net-(J1-Pin_3)*%
X192196300Y-85786000D03*
%TO.P,U22,4,I/O2_4*%
%TO.N,Net-(U1-USB_D+)*%
X189921300Y-85786000D03*
%TO.P,U22,5,VBUS_5*%
%TO.N,+3.3V*%
X189921300Y-84836000D03*
%TO.P,U22,6,I/O1_6*%
%TO.N,Net-(U1-USB_D-)*%
X189921300Y-83886000D03*
%TD*%
D31*
%TO.P,BT1,1,+_1*%
%TO.N,Net-(BT1-+)*%
X143351224Y-88776870D03*
D32*
%TO.P,BT1,2,-_2*%
%TO.N,GND*%
X122551224Y-88776870D03*
%TD*%
D10*
%TO.P,J1,1,Pin_1_1*%
%TO.N,VCC*%
X229992902Y-81965800D03*
D11*
%TO.P,J1,2,Pin_2_2*%
%TO.N,Net-(J1-Pin_2)*%
X229992902Y-84505800D03*
%TO.P,J1,3,Pin_3_3*%
%TO.N,Net-(J1-Pin_3)*%
X229992902Y-87045800D03*
%TO.P,J1,4,Pin_4_4*%
%TO.N,GND*%
X229992902Y-89585800D03*
%TD*%
D33*
%TO.P,SW2,1,1_1*%
%TO.N,Net-(U1-IO12)*%
X197942800Y-67233800D03*
%TO.P,SW2,2,2_2*%
%TO.N,GND*%
X206552800Y-67233800D03*
%TD*%
D24*
%TO.P,R1,1*%
%TO.N,+3.3V*%
X151676206Y-68612584D03*
%TO.P,R1,2*%
%TO.N,/SCL*%
X151676206Y-66612584D03*
%TD*%
D23*
%TO.P,SW1,1,1_1*%
%TO.N,Net-(U1-IO13)*%
X194462400Y-67335400D03*
%TO.P,SW1,2,2_2*%
%TO.N,GND*%
X185852400Y-67335400D03*
%TD*%
D33*
%TO.P,SW4,1,1_1*%
%TO.N,Net-(U1-IO10)*%
X221793400Y-67233800D03*
%TO.P,SW4,2,2_2*%
%TO.N,GND*%
X230403400Y-67233800D03*
%TD*%
%TO.P,SW5,1,1_1*%
%TO.N,GND*%
X170675600Y-97790000D03*
%TO.P,SW5,2,2_2*%
%TO.N,Net-(U1-IO0)*%
X179285600Y-97790000D03*
%TD*%
D34*
%TO.N,*%
X187909200Y-89230200D03*
X204444600Y-89255600D03*
D35*
%TO.N,+3.3V*%
X118059200Y-72974200D03*
X157784800Y-69316600D03*
X166674800Y-96062800D03*
X187426600Y-84810600D03*
X147066000Y-97002600D03*
X124612400Y-71983600D03*
%TO.N,VCC*%
X184023000Y-73507600D03*
D34*
%TO.N,GND*%
X152120600Y-86283800D03*
D35*
X194259200Y-84836000D03*
D34*
X153390600Y-90297000D03*
D35*
X73837800Y-83413600D03*
D34*
X166344600Y-78206600D03*
%TO.N,Net-(U1-IO6)*%
X153898600Y-76530200D03*
X160858200Y-75768200D03*
%TO.N,Net-(U1-IO2)*%
X177673000Y-74066400D03*
%TO.N,Net-(U1-IO4)*%
X161442400Y-73355200D03*
%TO.N,Net-(U1-IO5)*%
X158419800Y-74574400D03*
%TO.N,Net-(U1-IO7)*%
X158470600Y-80568800D03*
X157099000Y-92024200D03*
%TO.N,Net-(J5-Pin_1)*%
X166420800Y-101396800D03*
X183007000Y-92557600D03*
%TO.N,Net-(J5-Pin_2)*%
X177647600Y-91643200D03*
X163296600Y-101752400D03*
%TO.N,Net-(J5-Pin_3)*%
X160020000Y-78232000D03*
%TO.N,Net-(J5-Pin_4)*%
X160655000Y-79476600D03*
%TO.N,Net-(J5-Pin_5)*%
X159918400Y-80822800D03*
%TO.N,Net-(J5-Pin_6)*%
X160020000Y-81991200D03*
%TO.N,Net-(U1-USB_D-)*%
X165379400Y-84683600D03*
%TO.N,Net-(U1-USB_D+)*%
X161010600Y-85902800D03*
%TO.N,Net-(U1-IO10)*%
X169341800Y-84582000D03*
%TO.N,Net-(U1-IO11)*%
X170586400Y-84912200D03*
%TO.N,Net-(U1-IO12)*%
X171780200Y-84683600D03*
%TO.N,Net-(U1-IO13)*%
X173050200Y-85039200D03*
%TO.N,Net-(U1-IO0)*%
X181432200Y-97790000D03*
%TD*%
%TO.N,+3.3V*%
D36*
X144399000Y-71983600D02*
X147758400Y-68624200D01*
X119049800Y-71983600D02*
X118059200Y-72974200D01*
X187452000Y-84836000D02*
X187426600Y-84810600D01*
X168198800Y-94347021D02*
X168198800Y-94538800D01*
X200787000Y-94347021D02*
X168198800Y-94347021D01*
X124612400Y-71983600D02*
X119049800Y-71983600D01*
X189921300Y-84836000D02*
X187452000Y-84836000D01*
X146837400Y-74422000D02*
X144399000Y-71983600D01*
X144399000Y-71983600D02*
X142626000Y-71983600D01*
X157080784Y-68612584D02*
X157784800Y-69316600D01*
X142626000Y-71983600D02*
X124612400Y-71983600D01*
X146837400Y-84886800D02*
X146837400Y-74422000D01*
X149148800Y-68624200D02*
X151664590Y-68624200D01*
X151676206Y-68612584D02*
X157080784Y-68612584D01*
X147758400Y-68624200D02*
X149148800Y-68624200D01*
X151664590Y-68624200D02*
X151676206Y-68612584D01*
X147066000Y-85115400D02*
X146837400Y-84886800D01*
X147066000Y-97002600D02*
X147066000Y-85115400D01*
X168198800Y-94538800D02*
X166674800Y-96062800D01*
%TO.N,VCC*%
X231368600Y-81991200D02*
X233879400Y-84502000D01*
X156730395Y-65264995D02*
X163195000Y-71729600D01*
X224279000Y-88253600D02*
X224279000Y-90903600D01*
X163195000Y-71729600D02*
X179324000Y-71729600D01*
X228854000Y-95478600D02*
X230719620Y-95478600D01*
X179324000Y-71729600D02*
X181102000Y-73507600D01*
X233879400Y-84502000D02*
X235013100Y-84502000D01*
X181102000Y-73507600D02*
X184023000Y-73507600D01*
X154190395Y-63756586D02*
X154190395Y-64071805D01*
X224279000Y-90903600D02*
X228854000Y-95478600D01*
X231368600Y-81991200D02*
X230018302Y-81991200D01*
X230018302Y-81991200D02*
X229992902Y-81965800D01*
X156730395Y-63756586D02*
X156730395Y-65264995D01*
%TO.N,/SCL*%
D37*
X151676206Y-66612584D02*
X151676206Y-63782397D01*
X151676206Y-63782397D02*
X151650395Y-63756586D01*
%TO.N,/SDA*%
X149148800Y-63794991D02*
X149110395Y-63756586D01*
X149148800Y-66624200D02*
X149148800Y-63794991D01*
%TO.N,GND*%
D36*
X235063100Y-87202000D02*
X235013100Y-87202000D01*
X235175600Y-87314500D02*
X235063100Y-87202000D01*
X235175600Y-88352000D02*
X235175600Y-87314500D01*
X185099400Y-70904400D02*
X185076800Y-70904400D01*
X192196300Y-84836000D02*
X194259200Y-84836000D01*
%TO.N,Net-(U1-IO6)*%
D37*
X160134300Y-76492100D02*
X160858200Y-75768200D01*
X160134300Y-76492100D02*
X153936700Y-76492100D01*
X153936700Y-76492100D02*
X153898600Y-76530200D01*
%TO.N,Net-(U1-IO2)*%
X154940000Y-77419200D02*
X154279600Y-78079600D01*
X151770000Y-78079600D02*
X150246000Y-79603600D01*
X154279600Y-78079600D02*
X151770000Y-78079600D01*
X168046400Y-74117200D02*
X164744400Y-77419200D01*
X177622200Y-74117200D02*
X168046400Y-74117200D01*
X164744400Y-77419200D02*
X154940000Y-77419200D01*
X177673000Y-74066400D02*
X177622200Y-74117200D01*
%TO.N,Net-(U1-IO4)*%
X159372300Y-75425300D02*
X151884300Y-75425300D01*
X151884300Y-75425300D02*
X150246000Y-77063600D01*
X161442400Y-73355200D02*
X159372300Y-75425300D01*
%TO.N,Net-(U1-IO5)*%
X158369000Y-74523600D02*
X158419800Y-74574400D01*
X150246000Y-74523600D02*
X158369000Y-74523600D01*
%TO.N,Net-(U1-IO7)*%
X157099000Y-81940400D02*
X158470600Y-80568800D01*
X157099000Y-92024200D02*
X157099000Y-81940400D01*
%TO.N,Net-(J5-Pin_1)*%
X167157400Y-92532200D02*
X182981600Y-92532200D01*
X165074600Y-94615000D02*
X167157400Y-92532200D01*
X165074600Y-100050600D02*
X165074600Y-94615000D01*
X166420800Y-101396800D02*
X165074600Y-100050600D01*
X182981600Y-92532200D02*
X183007000Y-92557600D01*
%TO.N,Net-(J5-Pin_2)*%
X177647600Y-91617800D02*
X177647600Y-91643200D01*
X163296600Y-101752400D02*
X163296600Y-94284800D01*
X165963600Y-91617800D02*
X177647600Y-91617800D01*
X163296600Y-94284800D02*
X165963600Y-91617800D01*
%TO.N,Net-(J5-Pin_3)*%
X154457400Y-97231200D02*
X154457400Y-80137000D01*
X144526000Y-98425000D02*
X153263600Y-98425000D01*
X153263600Y-98425000D02*
X154457400Y-97231200D01*
X138582400Y-104368600D02*
X144526000Y-98425000D01*
X156362400Y-78232000D02*
X160020000Y-78232000D01*
X154457400Y-80137000D02*
X156362400Y-78232000D01*
%TO.N,Net-(J5-Pin_4)*%
X141122400Y-104368600D02*
X145694400Y-99796600D01*
X145694400Y-99796600D02*
X154838400Y-99796600D01*
X155727400Y-98907600D02*
X155727400Y-81305400D01*
X154838400Y-99796600D02*
X155727400Y-98907600D01*
X157556200Y-79476600D02*
X160655000Y-79476600D01*
X155727400Y-81305400D02*
X157556200Y-79476600D01*
%TO.N,Net-(J5-Pin_5)*%
X147015200Y-101015800D02*
X157556200Y-101015800D01*
X157556200Y-101015800D02*
X159156400Y-99415600D01*
X159156400Y-81584800D02*
X159918400Y-80822800D01*
X143662400Y-104368600D02*
X147015200Y-101015800D01*
X159156400Y-99415600D02*
X159156400Y-81584800D01*
%TO.N,Net-(J5-Pin_6)*%
X160934400Y-99187000D02*
X160934400Y-87147400D01*
X148539200Y-102031800D02*
X158089600Y-102031800D01*
X158089600Y-102031800D02*
X160934400Y-99187000D01*
X159969200Y-82042000D02*
X160020000Y-81991200D01*
X160934400Y-87147400D02*
X159969200Y-86182200D01*
X146202400Y-104368600D02*
X148539200Y-102031800D01*
X159969200Y-86182200D02*
X159969200Y-82042000D01*
%TO.N,Net-(U1-USB_D-)*%
X169087800Y-88392000D02*
X165379400Y-84683600D01*
X189921300Y-83886000D02*
X184109400Y-83886000D01*
X184109400Y-83886000D02*
X179603400Y-88392000D01*
X179603400Y-88392000D02*
X169087800Y-88392000D01*
%TO.N,Net-(U1-USB_D+)*%
X161010600Y-85902800D02*
X164998400Y-89890600D01*
X164998400Y-89890600D02*
X179882800Y-89890600D01*
X180060600Y-89890600D02*
X184165200Y-85786000D01*
X184165200Y-85786000D02*
X189921300Y-85786000D01*
X179882800Y-89890600D02*
X180060600Y-89890600D01*
%TO.N,Net-(U1-IO10)*%
X170357800Y-87376000D02*
X178663600Y-87376000D01*
X178663600Y-87376000D02*
X194894200Y-71145400D01*
X169341800Y-86360000D02*
X170357800Y-87376000D01*
X194894200Y-71145400D02*
X217881800Y-71145400D01*
X169341800Y-84582000D02*
X169341800Y-86360000D01*
X217881800Y-71145400D02*
X221793400Y-67233800D01*
%TO.N,Net-(U1-IO11)*%
X171373800Y-86487000D02*
X177927000Y-86487000D01*
X215214200Y-67233800D02*
X218427600Y-67233800D01*
X177927000Y-86487000D02*
X194513200Y-69900800D01*
X194513200Y-69900800D02*
X212547200Y-69900800D01*
X170586400Y-84912200D02*
X170637200Y-84963000D01*
X212547200Y-69900800D02*
X215214200Y-67233800D01*
X170637200Y-84963000D02*
X170637200Y-85750400D01*
X170637200Y-85750400D02*
X171373800Y-86487000D01*
%TO.N,Net-(U1-IO12)*%
X190779400Y-65786000D02*
X190728600Y-65735200D01*
X197154800Y-64744600D02*
X191719200Y-64744600D01*
X197942800Y-67233800D02*
X197942800Y-65532600D01*
X172999400Y-83464400D02*
X176250600Y-83464400D01*
X191719200Y-64744600D02*
X190728600Y-65735200D01*
X171780200Y-84683600D02*
X172999400Y-83464400D01*
X190779400Y-68935600D02*
X190779400Y-65786000D01*
X176250600Y-83464400D02*
X190779400Y-68935600D01*
X197942800Y-65532600D02*
X197154800Y-64744600D01*
%TO.N,Net-(U1-IO13)*%
X173050200Y-85039200D02*
X176758600Y-85039200D01*
X176758600Y-85039200D02*
X194462400Y-67335400D01*
%TO.N,Net-(U1-IO0)*%
X181432200Y-97790000D02*
X179285600Y-97790000D01*
%TO.N,Net-(J1-Pin_2)*%
X223890800Y-83886000D02*
X224536000Y-84531200D01*
X232217200Y-85202000D02*
X231546400Y-84531200D01*
X224536000Y-84531200D02*
X228193600Y-84531200D01*
X235013100Y-85202000D02*
X232217200Y-85202000D01*
X192196300Y-83886000D02*
X223890800Y-83886000D01*
X231546400Y-84531200D02*
X227863400Y-84531200D01*
%TO.N,Net-(J1-Pin_3)*%
X227025200Y-87071200D02*
X228193600Y-87071200D01*
X232232200Y-85852000D02*
X231013000Y-87071200D01*
X231013000Y-87071200D02*
X227863400Y-87071200D01*
X225740000Y-85786000D02*
X227025200Y-87071200D01*
X235013100Y-85852000D02*
X232232200Y-85852000D01*
X192196300Y-85786000D02*
X225740000Y-85786000D01*
%TD*%
%TA.AperFunction,Conductor*%
%TO.N,GND*%
G36*
X152937621Y-64392110D02*
G01*
X152950205Y-64391571D01*
X152970069Y-64403167D01*
X152991839Y-64410585D01*
X153001114Y-64421289D01*
X153010546Y-64426795D01*
X153030879Y-64455639D01*
X153034986Y-64463701D01*
X153035346Y-64464406D01*
X153160285Y-64636372D01*
X153310608Y-64786695D01*
X153482574Y-64911634D01*
X153482576Y-64911635D01*
X153482579Y-64911637D01*
X153671983Y-65008143D01*
X153874152Y-65073832D01*
X154084108Y-65107086D01*
X154084109Y-65107086D01*
X154296681Y-65107086D01*
X154296682Y-65107086D01*
X154506638Y-65073832D01*
X154708807Y-65008143D01*
X154898211Y-64911637D01*
X155070187Y-64786690D01*
X155183724Y-64673152D01*
X155245043Y-64639670D01*
X155314735Y-64644654D01*
X155370669Y-64686525D01*
X155387584Y-64717503D01*
X155436597Y-64848914D01*
X155436601Y-64848921D01*
X155522847Y-64964130D01*
X155522850Y-64964133D01*
X155638059Y-65050379D01*
X155638066Y-65050383D01*
X155772911Y-65100677D01*
X155819152Y-65105649D01*
X155883702Y-65132387D01*
X155923550Y-65189780D01*
X155929895Y-65228938D01*
X155929895Y-65343841D01*
X155960656Y-65498484D01*
X155960659Y-65498496D01*
X156020997Y-65644167D01*
X156021004Y-65644180D01*
X156108605Y-65775283D01*
X156108608Y-65775287D01*
X162573211Y-72239889D01*
X162654730Y-72321408D01*
X162684712Y-72351390D01*
X162815814Y-72438990D01*
X162815827Y-72438997D01*
X162921634Y-72482823D01*
X162961503Y-72499337D01*
X163116153Y-72530099D01*
X163116156Y-72530100D01*
X163116158Y-72530100D01*
X178941060Y-72530100D01*
X179008099Y-72549785D01*
X179028741Y-72566419D01*
X180591707Y-74129386D01*
X180591711Y-74129389D01*
X180722814Y-74216990D01*
X180722818Y-74216992D01*
X180722821Y-74216994D01*
X180868503Y-74277338D01*
X180981918Y-74299897D01*
X181023153Y-74308099D01*
X181023157Y-74308100D01*
X181023158Y-74308100D01*
X183577793Y-74308100D01*
X183625245Y-74317539D01*
X183760334Y-74373494D01*
X183760336Y-74373494D01*
X183760341Y-74373496D01*
X183934304Y-74408099D01*
X183934307Y-74408100D01*
X184087591Y-74408100D01*
X184154630Y-74427785D01*
X184200385Y-74480589D01*
X184210329Y-74549747D01*
X184181304Y-74613303D01*
X184175272Y-74619781D01*
X176017473Y-82777581D01*
X175956150Y-82811066D01*
X175929792Y-82813900D01*
X172935329Y-82813900D01*
X172809661Y-82838897D01*
X172809655Y-82838899D01*
X172691275Y-82887933D01*
X172691266Y-82887938D01*
X172584731Y-82959123D01*
X172584727Y-82959126D01*
X171677269Y-83866584D01*
X171615946Y-83900069D01*
X171613780Y-83900520D01*
X171546708Y-83913861D01*
X171546698Y-83913864D01*
X171401027Y-83974202D01*
X171401014Y-83974209D01*
X171269911Y-84061810D01*
X171269907Y-84061813D01*
X171158417Y-84173304D01*
X171158411Y-84173311D01*
X171154153Y-84179683D01*
X171100538Y-84224485D01*
X171031212Y-84233188D01*
X170982166Y-84213889D01*
X170965579Y-84202806D01*
X170965575Y-84202804D01*
X170965571Y-84202802D01*
X170819901Y-84142464D01*
X170819889Y-84142461D01*
X170665245Y-84111700D01*
X170665242Y-84111700D01*
X170507558Y-84111700D01*
X170507555Y-84111700D01*
X170352910Y-84142461D01*
X170352898Y-84142464D01*
X170207228Y-84202802D01*
X170207210Y-84202812D01*
X170202439Y-84206000D01*
X170135760Y-84226872D01*
X170068381Y-84208382D01*
X170030455Y-84171783D01*
X169963589Y-84071710D01*
X169852092Y-83960213D01*
X169852088Y-83960210D01*
X169720985Y-83872609D01*
X169720972Y-83872602D01*
X169575301Y-83812264D01*
X169575289Y-83812261D01*
X169420645Y-83781500D01*
X169420642Y-83781500D01*
X169262958Y-83781500D01*
X169262955Y-83781500D01*
X169108310Y-83812261D01*
X169108298Y-83812264D01*
X168962627Y-83872602D01*
X168962614Y-83872609D01*
X168831511Y-83960210D01*
X168831507Y-83960213D01*
X168720013Y-84071707D01*
X168720010Y-84071711D01*
X168632409Y-84202814D01*
X168632402Y-84202827D01*
X168572064Y-84348498D01*
X168572061Y-84348510D01*
X168541300Y-84503153D01*
X168541300Y-84660846D01*
X168572061Y-84815489D01*
X168572064Y-84815501D01*
X168632402Y-84961172D01*
X168632406Y-84961179D01*
X168670402Y-85018044D01*
X168691280Y-85084721D01*
X168691300Y-85086935D01*
X168691300Y-86424071D01*
X168697269Y-86454076D01*
X168710760Y-86521899D01*
X168716299Y-86549744D01*
X168765335Y-86668127D01*
X168829127Y-86763600D01*
X168836526Y-86774673D01*
X168836527Y-86774674D01*
X169591673Y-87529819D01*
X169602285Y-87549255D01*
X169616786Y-87565989D01*
X169618702Y-87579320D01*
X169625158Y-87591142D01*
X169623578Y-87613228D01*
X169626730Y-87635147D01*
X169621134Y-87647398D01*
X169620174Y-87660833D01*
X169606904Y-87678558D01*
X169597705Y-87698703D01*
X169586372Y-87705985D01*
X169578302Y-87716767D01*
X169557556Y-87724504D01*
X169538927Y-87736477D01*
X169517008Y-87739628D01*
X169512838Y-87741184D01*
X169503992Y-87741500D01*
X169408608Y-87741500D01*
X169341569Y-87721815D01*
X169320927Y-87705181D01*
X166196415Y-84580669D01*
X166162930Y-84519346D01*
X166162493Y-84517252D01*
X166149137Y-84450103D01*
X166121356Y-84383034D01*
X166088797Y-84304427D01*
X166088790Y-84304414D01*
X166001189Y-84173311D01*
X166001186Y-84173307D01*
X165889692Y-84061813D01*
X165889688Y-84061810D01*
X165758585Y-83974209D01*
X165758572Y-83974202D01*
X165612901Y-83913864D01*
X165612889Y-83913861D01*
X165458245Y-83883100D01*
X165458242Y-83883100D01*
X165300558Y-83883100D01*
X165300555Y-83883100D01*
X165145910Y-83913861D01*
X165145898Y-83913864D01*
X165000227Y-83974202D01*
X165000214Y-83974209D01*
X164869111Y-84061810D01*
X164869107Y-84061813D01*
X164757613Y-84173307D01*
X164757610Y-84173311D01*
X164670009Y-84304414D01*
X164670002Y-84304427D01*
X164609664Y-84450098D01*
X164609661Y-84450110D01*
X164578900Y-84604753D01*
X164578900Y-84762446D01*
X164609661Y-84917089D01*
X164609664Y-84917101D01*
X164670002Y-85062772D01*
X164670009Y-85062785D01*
X164757610Y-85193888D01*
X164757613Y-85193892D01*
X164869107Y-85305386D01*
X164869111Y-85305389D01*
X165000214Y-85392990D01*
X165000227Y-85392997D01*
X165087630Y-85429199D01*
X165145903Y-85453337D01*
X165212980Y-85466679D01*
X165274888Y-85499061D01*
X165276468Y-85500614D01*
X168673125Y-88897272D01*
X168673132Y-88897278D01*
X168779663Y-88968459D01*
X168779667Y-88968461D01*
X168779674Y-88968466D01*
X168847845Y-88996703D01*
X168856353Y-89000227D01*
X168859520Y-89001539D01*
X168859529Y-89001543D01*
X168884000Y-89021266D01*
X168913923Y-89045380D01*
X168913924Y-89045384D01*
X168913929Y-89045388D01*
X168922757Y-89071921D01*
X168935988Y-89111675D01*
X168935986Y-89111680D01*
X168935988Y-89111684D01*
X168928433Y-89141275D01*
X168918709Y-89179374D01*
X168918705Y-89179377D01*
X168918704Y-89179382D01*
X168895836Y-89200669D01*
X168867571Y-89226984D01*
X168867566Y-89226985D01*
X168867563Y-89226988D01*
X168867525Y-89226994D01*
X168812067Y-89240100D01*
X165319208Y-89240100D01*
X165252169Y-89220415D01*
X165231527Y-89203781D01*
X161827615Y-85799869D01*
X161794130Y-85738546D01*
X161793693Y-85736452D01*
X161780337Y-85669303D01*
X161730709Y-85549489D01*
X161719997Y-85523627D01*
X161719990Y-85523614D01*
X161632389Y-85392511D01*
X161632386Y-85392507D01*
X161520892Y-85281013D01*
X161520888Y-85281010D01*
X161389785Y-85193409D01*
X161389772Y-85193402D01*
X161244101Y-85133064D01*
X161244089Y-85133061D01*
X161089445Y-85102300D01*
X161089442Y-85102300D01*
X160931758Y-85102300D01*
X160931755Y-85102300D01*
X160771128Y-85134251D01*
X160770751Y-85132356D01*
X160709831Y-85132901D01*
X160650717Y-85095654D01*
X160621125Y-85032360D01*
X160619700Y-85013616D01*
X160619700Y-82572162D01*
X160639385Y-82505123D01*
X160640598Y-82503271D01*
X160708447Y-82401728D01*
X160729394Y-82370379D01*
X160789737Y-82224697D01*
X160820500Y-82070042D01*
X160820500Y-81912358D01*
X160820500Y-81912355D01*
X160820499Y-81912353D01*
X160789738Y-81757710D01*
X160789737Y-81757703D01*
X160749812Y-81661315D01*
X160729397Y-81612027D01*
X160729390Y-81612014D01*
X160641789Y-81480911D01*
X160641786Y-81480907D01*
X160593633Y-81432754D01*
X160560148Y-81371431D01*
X160565132Y-81301739D01*
X160578210Y-81276185D01*
X160627794Y-81201979D01*
X160688137Y-81056297D01*
X160718900Y-80901642D01*
X160718900Y-80743958D01*
X160718900Y-80743955D01*
X160718899Y-80743953D01*
X160711268Y-80705591D01*
X160688137Y-80589303D01*
X160670355Y-80546373D01*
X160629662Y-80448129D01*
X160622193Y-80378660D01*
X160653469Y-80316181D01*
X160713558Y-80280529D01*
X160732081Y-80277273D01*
X160733831Y-80277100D01*
X160733842Y-80277100D01*
X160888497Y-80246337D01*
X161034179Y-80185994D01*
X161165289Y-80098389D01*
X161276789Y-79986889D01*
X161364394Y-79855779D01*
X161424737Y-79710097D01*
X161455500Y-79555442D01*
X161455500Y-79397758D01*
X161455500Y-79397755D01*
X161455499Y-79397753D01*
X161435869Y-79299066D01*
X161424737Y-79243103D01*
X161424735Y-79243098D01*
X161364397Y-79097427D01*
X161364390Y-79097414D01*
X161276789Y-78966311D01*
X161276786Y-78966307D01*
X161165292Y-78854813D01*
X161165288Y-78854810D01*
X161034185Y-78767209D01*
X161034172Y-78767202D01*
X160888501Y-78706864D01*
X160888491Y-78706861D01*
X160853078Y-78699817D01*
X160791167Y-78667431D01*
X160756593Y-78606715D01*
X160760334Y-78536946D01*
X160762699Y-78530771D01*
X160789737Y-78465497D01*
X160820500Y-78310842D01*
X160820500Y-78193700D01*
X160840185Y-78126661D01*
X160892989Y-78080906D01*
X160944500Y-78069700D01*
X164808471Y-78069700D01*
X164893015Y-78052882D01*
X164934144Y-78044701D01*
X165052527Y-77995665D01*
X165056060Y-77993304D01*
X165063311Y-77988460D01*
X165063313Y-77988459D01*
X165134967Y-77940581D01*
X165159069Y-77924477D01*
X168279526Y-74804018D01*
X168340849Y-74770534D01*
X168367207Y-74767700D01*
X177249616Y-74767700D01*
X177297067Y-74777138D01*
X177439503Y-74836137D01*
X177594153Y-74866899D01*
X177594156Y-74866900D01*
X177594158Y-74866900D01*
X177751844Y-74866900D01*
X177751845Y-74866899D01*
X177906497Y-74836137D01*
X178052179Y-74775794D01*
X178183289Y-74688189D01*
X178294789Y-74576689D01*
X178382394Y-74445579D01*
X178389765Y-74427785D01*
X178400039Y-74402979D01*
X178442737Y-74299897D01*
X178473500Y-74145242D01*
X178473500Y-73987558D01*
X178473500Y-73987555D01*
X178473499Y-73987553D01*
X178466549Y-73952613D01*
X178442737Y-73832903D01*
X178429196Y-73800211D01*
X178382397Y-73687227D01*
X178382390Y-73687214D01*
X178294789Y-73556111D01*
X178294786Y-73556107D01*
X178183292Y-73444613D01*
X178183288Y-73444610D01*
X178052185Y-73357009D01*
X178052172Y-73357002D01*
X177906501Y-73296664D01*
X177906489Y-73296661D01*
X177751845Y-73265900D01*
X177751842Y-73265900D01*
X177594158Y-73265900D01*
X177594155Y-73265900D01*
X177439510Y-73296661D01*
X177439498Y-73296664D01*
X177293827Y-73357002D01*
X177293814Y-73357009D01*
X177160928Y-73445802D01*
X177094251Y-73466680D01*
X177092037Y-73466700D01*
X167982329Y-73466700D01*
X167865524Y-73489935D01*
X167856656Y-73491699D01*
X167856655Y-73491699D01*
X167738275Y-73540733D01*
X167738266Y-73540738D01*
X167631731Y-73611923D01*
X167631727Y-73611926D01*
X164511273Y-76732381D01*
X164449950Y-76765866D01*
X164423592Y-76768700D01*
X161157975Y-76768700D01*
X161090936Y-76749015D01*
X161045181Y-76696211D01*
X161035237Y-76627053D01*
X161064262Y-76563497D01*
X161110523Y-76530139D01*
X161237372Y-76477597D01*
X161237372Y-76477596D01*
X161237379Y-76477594D01*
X161368489Y-76389989D01*
X161479989Y-76278489D01*
X161567594Y-76147379D01*
X161627937Y-76001697D01*
X161658700Y-75847042D01*
X161658700Y-75689358D01*
X161658700Y-75689355D01*
X161658699Y-75689353D01*
X161627938Y-75534710D01*
X161627937Y-75534703D01*
X161615193Y-75503936D01*
X161567597Y-75389027D01*
X161567590Y-75389014D01*
X161479989Y-75257911D01*
X161479986Y-75257907D01*
X161368492Y-75146413D01*
X161368488Y-75146410D01*
X161237385Y-75058809D01*
X161237372Y-75058802D01*
X161091701Y-74998464D01*
X161091689Y-74998461D01*
X161008432Y-74981900D01*
X160946521Y-74949515D01*
X160911947Y-74888800D01*
X160915686Y-74819030D01*
X160944940Y-74772604D01*
X161545331Y-74172213D01*
X161606652Y-74138730D01*
X161608717Y-74138299D01*
X161675897Y-74124937D01*
X161821579Y-74064594D01*
X161952689Y-73976989D01*
X162064189Y-73865489D01*
X162151794Y-73734379D01*
X162212137Y-73588697D01*
X162242900Y-73434042D01*
X162242900Y-73276358D01*
X162242900Y-73276355D01*
X162242899Y-73276353D01*
X162232818Y-73225671D01*
X162212137Y-73121703D01*
X162195302Y-73081059D01*
X162151797Y-72976027D01*
X162151790Y-72976014D01*
X162064189Y-72844911D01*
X162064186Y-72844907D01*
X161952692Y-72733413D01*
X161952688Y-72733410D01*
X161821585Y-72645809D01*
X161821572Y-72645802D01*
X161675901Y-72585464D01*
X161675889Y-72585461D01*
X161521245Y-72554700D01*
X161521242Y-72554700D01*
X161363558Y-72554700D01*
X161363555Y-72554700D01*
X161208910Y-72585461D01*
X161208898Y-72585464D01*
X161063227Y-72645802D01*
X161063214Y-72645809D01*
X160932111Y-72733410D01*
X160932107Y-72733413D01*
X160820613Y-72844907D01*
X160820610Y-72844911D01*
X160733009Y-72976014D01*
X160733002Y-72976027D01*
X160672664Y-73121698D01*
X160672661Y-73121708D01*
X160659320Y-73188779D01*
X160626935Y-73250690D01*
X160625384Y-73252268D01*
X159411183Y-74466469D01*
X159349860Y-74499954D01*
X159280168Y-74494970D01*
X159224235Y-74453098D01*
X159201885Y-74402979D01*
X159196020Y-74373493D01*
X159189537Y-74340903D01*
X159189535Y-74340897D01*
X159129197Y-74195227D01*
X159129190Y-74195214D01*
X159041589Y-74064111D01*
X159041586Y-74064107D01*
X158930092Y-73952613D01*
X158930088Y-73952610D01*
X158798985Y-73865009D01*
X158798972Y-73865002D01*
X158653301Y-73804664D01*
X158653289Y-73804661D01*
X158498645Y-73773900D01*
X158498642Y-73773900D01*
X158340958Y-73773900D01*
X158340955Y-73773900D01*
X158186310Y-73804661D01*
X158186302Y-73804663D01*
X158118137Y-73832898D01*
X158043867Y-73863661D01*
X157996416Y-73873100D01*
X151444071Y-73873100D01*
X151377032Y-73853415D01*
X151343754Y-73821986D01*
X151237966Y-73676381D01*
X151093219Y-73531634D01*
X151093213Y-73531628D01*
X150927614Y-73411315D01*
X150906859Y-73400740D01*
X150834917Y-73364083D01*
X150784123Y-73316111D01*
X150767328Y-73248290D01*
X150789865Y-73182155D01*
X150834917Y-73143116D01*
X150927610Y-73095887D01*
X150973020Y-73062895D01*
X151093213Y-72975571D01*
X151093215Y-72975568D01*
X151093219Y-72975566D01*
X151237966Y-72830819D01*
X151237968Y-72830815D01*
X151237971Y-72830813D01*
X151308737Y-72733410D01*
X151358287Y-72665210D01*
X151451220Y-72482819D01*
X151514477Y-72288134D01*
X151546500Y-72085952D01*
X151546500Y-71881248D01*
X151529023Y-71770902D01*
X151514477Y-71679065D01*
X151451218Y-71484376D01*
X151410695Y-71404847D01*
X151358287Y-71301990D01*
X151325179Y-71256420D01*
X151237971Y-71136386D01*
X151093213Y-70991628D01*
X150927613Y-70871315D01*
X150927612Y-70871314D01*
X150927610Y-70871313D01*
X150867898Y-70840888D01*
X150745223Y-70778381D01*
X150550534Y-70715122D01*
X150375995Y-70687478D01*
X150348352Y-70683100D01*
X150143648Y-70683100D01*
X150119329Y-70686951D01*
X149941465Y-70715122D01*
X149746776Y-70778381D01*
X149564386Y-70871315D01*
X149398786Y-70991628D01*
X149254028Y-71136386D01*
X149133715Y-71301986D01*
X149040781Y-71484376D01*
X148977522Y-71679065D01*
X148952069Y-71839771D01*
X148945500Y-71881248D01*
X148945500Y-72085952D01*
X148949878Y-72113595D01*
X148977522Y-72288134D01*
X149040781Y-72482823D01*
X149133715Y-72665213D01*
X149254028Y-72830813D01*
X149398786Y-72975571D01*
X149543981Y-73081059D01*
X149564390Y-73095887D01*
X149655840Y-73142483D01*
X149657080Y-73143115D01*
X149707876Y-73191090D01*
X149724671Y-73258911D01*
X149702134Y-73325046D01*
X149657080Y-73364085D01*
X149564386Y-73411315D01*
X149398786Y-73531628D01*
X149254028Y-73676386D01*
X149133715Y-73841986D01*
X149040781Y-74024376D01*
X148977522Y-74219065D01*
X148947583Y-74408099D01*
X148945500Y-74421248D01*
X148945500Y-74625952D01*
X148949822Y-74653242D01*
X148977522Y-74828134D01*
X149040781Y-75022823D01*
X149103753Y-75146410D01*
X149131425Y-75200720D01*
X149133715Y-75205213D01*
X149254028Y-75370813D01*
X149398786Y-75515571D01*
X149533483Y-75613432D01*
X149564390Y-75635887D01*
X149655840Y-75682483D01*
X149657080Y-75683115D01*
X149707876Y-75731090D01*
X149724671Y-75798911D01*
X149702134Y-75865046D01*
X149657080Y-75904085D01*
X149564386Y-75951315D01*
X149398786Y-76071628D01*
X149254028Y-76216386D01*
X149133715Y-76381986D01*
X149040781Y-76564376D01*
X148977522Y-76759065D01*
X148953716Y-76909372D01*
X148945500Y-76961248D01*
X148945500Y-77165952D01*
X148949878Y-77193595D01*
X148977522Y-77368134D01*
X149040781Y-77562823D01*
X149104691Y-77688253D01*
X149131425Y-77740720D01*
X149133715Y-77745213D01*
X149254028Y-77910813D01*
X149398786Y-78055571D01*
X149533483Y-78153432D01*
X149564390Y-78175887D01*
X149655840Y-78222483D01*
X149657080Y-78223115D01*
X149707876Y-78271090D01*
X149724671Y-78338911D01*
X149702134Y-78405046D01*
X149657080Y-78444085D01*
X149564386Y-78491315D01*
X149398786Y-78611628D01*
X149254028Y-78756386D01*
X149133715Y-78921986D01*
X149040781Y-79104376D01*
X148977522Y-79299065D01*
X148947047Y-79491479D01*
X148945500Y-79501248D01*
X148945500Y-79705952D01*
X148946538Y-79712503D01*
X148977522Y-79908134D01*
X149040781Y-80102823D01*
X149090811Y-80201011D01*
X149133585Y-80284959D01*
X149133715Y-80285213D01*
X149254028Y-80450813D01*
X149398786Y-80595571D01*
X149550219Y-80705591D01*
X149564390Y-80715887D01*
X149680607Y-80775103D01*
X149746776Y-80808818D01*
X149746778Y-80808818D01*
X149746781Y-80808820D01*
X149806824Y-80828329D01*
X149941465Y-80872077D01*
X150042557Y-80888088D01*
X150143648Y-80904100D01*
X150143649Y-80904100D01*
X150348351Y-80904100D01*
X150348352Y-80904100D01*
X150550534Y-80872077D01*
X150745219Y-80808820D01*
X150927610Y-80715887D01*
X151020590Y-80648332D01*
X151093213Y-80595571D01*
X151093215Y-80595568D01*
X151093219Y-80595566D01*
X151237966Y-80450819D01*
X151237968Y-80450815D01*
X151237971Y-80450813D01*
X151296592Y-80370127D01*
X151358287Y-80285210D01*
X151451220Y-80102819D01*
X151514477Y-79908134D01*
X151546500Y-79705952D01*
X151546500Y-79501248D01*
X151518345Y-79323487D01*
X151527300Y-79254194D01*
X151553137Y-79216408D01*
X152003127Y-78766419D01*
X152064450Y-78732934D01*
X152090808Y-78730100D01*
X154343671Y-78730100D01*
X154428215Y-78713282D01*
X154469344Y-78705101D01*
X154587727Y-78656065D01*
X154601789Y-78646669D01*
X154694269Y-78584877D01*
X155173127Y-78106019D01*
X155200054Y-78091315D01*
X155225873Y-78074723D01*
X155232073Y-78073831D01*
X155234450Y-78072534D01*
X155260808Y-78069700D01*
X155305392Y-78069700D01*
X155372431Y-78089385D01*
X155418186Y-78142189D01*
X155428130Y-78211347D01*
X155399105Y-78274903D01*
X155393073Y-78281381D01*
X153952127Y-79722325D01*
X153952124Y-79722328D01*
X153900852Y-79799064D01*
X153880935Y-79828871D01*
X153831899Y-79947255D01*
X153831897Y-79947261D01*
X153806900Y-80072928D01*
X153806900Y-96910392D01*
X153787215Y-96977431D01*
X153770581Y-96998073D01*
X153030473Y-97738181D01*
X152969150Y-97771666D01*
X152942792Y-97774500D01*
X147865243Y-97774500D01*
X147798204Y-97754815D01*
X147752449Y-97702011D01*
X147742505Y-97632853D01*
X147762141Y-97581609D01*
X147864009Y-97429153D01*
X147864009Y-97429152D01*
X147864013Y-97429147D01*
X147931894Y-97265266D01*
X147935524Y-97247021D01*
X147966499Y-97091295D01*
X147966500Y-97091293D01*
X147966500Y-96913906D01*
X147966499Y-96913904D01*
X147931896Y-96739941D01*
X147931893Y-96739932D01*
X147927572Y-96729501D01*
X147875939Y-96604845D01*
X147866500Y-96557393D01*
X147866500Y-85036558D01*
X147865665Y-85032360D01*
X147862197Y-85014928D01*
X147835737Y-84881903D01*
X147821748Y-84848131D01*
X147775394Y-84736221D01*
X147775392Y-84736219D01*
X147775392Y-84736217D01*
X147687789Y-84605111D01*
X147687786Y-84605107D01*
X147674219Y-84591540D01*
X147640734Y-84530217D01*
X147637900Y-84503859D01*
X147637900Y-74343159D01*
X147637899Y-74343153D01*
X147637451Y-74340897D01*
X147637451Y-74340896D01*
X147614452Y-74225278D01*
X147607137Y-74188502D01*
X147562871Y-74081635D01*
X147546794Y-74042821D01*
X147546793Y-74042819D01*
X147546792Y-74042817D01*
X147459190Y-73911712D01*
X147411139Y-73863661D01*
X147347689Y-73800211D01*
X145618759Y-72071281D01*
X145585274Y-72009958D01*
X145590258Y-71940266D01*
X145618759Y-71895919D01*
X146800478Y-70714200D01*
X148001275Y-69513402D01*
X148062596Y-69479919D01*
X148132288Y-69484903D01*
X148176634Y-69513403D01*
X148216832Y-69553600D01*
X148230144Y-69566912D01*
X148379466Y-69659014D01*
X148546003Y-69714199D01*
X148648791Y-69724700D01*
X149648808Y-69724699D01*
X149648816Y-69724698D01*
X149648819Y-69724698D01*
X149708347Y-69718617D01*
X149751597Y-69714199D01*
X149918134Y-69659014D01*
X150067456Y-69566912D01*
X150173350Y-69461018D01*
X150234673Y-69427534D01*
X150261031Y-69424700D01*
X150575591Y-69424700D01*
X150642630Y-69444385D01*
X150663272Y-69461018D01*
X150757550Y-69555296D01*
X150906872Y-69647398D01*
X151073409Y-69702583D01*
X151176197Y-69713084D01*
X152176214Y-69713083D01*
X152176222Y-69713082D01*
X152176225Y-69713082D01*
X152232508Y-69707332D01*
X152279003Y-69702583D01*
X152445540Y-69647398D01*
X152594862Y-69555296D01*
X152700756Y-69449402D01*
X152762079Y-69415918D01*
X152788437Y-69413084D01*
X156697844Y-69413084D01*
X156727284Y-69421728D01*
X156757271Y-69428252D01*
X156762286Y-69432006D01*
X156764883Y-69432769D01*
X156785524Y-69449402D01*
X156903951Y-69567829D01*
X156930831Y-69608057D01*
X156986785Y-69743144D01*
X156986790Y-69743153D01*
X157085335Y-69890634D01*
X157085338Y-69890638D01*
X157210761Y-70016061D01*
X157210765Y-70016064D01*
X157358246Y-70114609D01*
X157358259Y-70114616D01*
X157437901Y-70147604D01*
X157522134Y-70182494D01*
X157522136Y-70182494D01*
X157522141Y-70182496D01*
X157696104Y-70217099D01*
X157696107Y-70217100D01*
X157696109Y-70217100D01*
X157873493Y-70217100D01*
X157873494Y-70217099D01*
X157933065Y-70205250D01*
X158047458Y-70182496D01*
X158047461Y-70182494D01*
X158047466Y-70182494D01*
X158205587Y-70116999D01*
X158211340Y-70114616D01*
X158211340Y-70114615D01*
X158211347Y-70114613D01*
X158358835Y-70016064D01*
X158484264Y-69890635D01*
X158582813Y-69743147D01*
X158650694Y-69579266D01*
X158653152Y-69566912D01*
X158680733Y-69428252D01*
X158685300Y-69405291D01*
X158685300Y-69227909D01*
X158685300Y-69227906D01*
X158685299Y-69227904D01*
X158650696Y-69053941D01*
X158650693Y-69053932D01*
X158649269Y-69050495D01*
X158597601Y-68925755D01*
X158582816Y-68890059D01*
X158582809Y-68890046D01*
X158484264Y-68742565D01*
X158484261Y-68742561D01*
X158358838Y-68617138D01*
X158358834Y-68617135D01*
X158211353Y-68518590D01*
X158211344Y-68518585D01*
X158076257Y-68462631D01*
X158036029Y-68435751D01*
X157591076Y-67990797D01*
X157591072Y-67990794D01*
X157459969Y-67903193D01*
X157459956Y-67903186D01*
X157314285Y-67842848D01*
X157314273Y-67842845D01*
X157159629Y-67812084D01*
X157159626Y-67812084D01*
X152788437Y-67812084D01*
X152758996Y-67803439D01*
X152729010Y-67796916D01*
X152723994Y-67793161D01*
X152721398Y-67792399D01*
X152700756Y-67775765D01*
X152625255Y-67700264D01*
X152591770Y-67638941D01*
X152596754Y-67569249D01*
X152625251Y-67524906D01*
X152718918Y-67431240D01*
X152811020Y-67281918D01*
X152866205Y-67115381D01*
X152876706Y-67012593D01*
X152876705Y-66212576D01*
X152875655Y-66202301D01*
X152866205Y-66109787D01*
X152866204Y-66109784D01*
X152856745Y-66081239D01*
X152811020Y-65943250D01*
X152718918Y-65793928D01*
X152594862Y-65669872D01*
X152499449Y-65611021D01*
X152445542Y-65577771D01*
X152445541Y-65577770D01*
X152445540Y-65577770D01*
X152431933Y-65573261D01*
X152411700Y-65566556D01*
X152354256Y-65526783D01*
X152327434Y-65462267D01*
X152326706Y-65448851D01*
X152326706Y-64997707D01*
X152346391Y-64930668D01*
X152377819Y-64897390D01*
X152530187Y-64786690D01*
X152680499Y-64636378D01*
X152680501Y-64636374D01*
X152680504Y-64636372D01*
X152805443Y-64464406D01*
X152805445Y-64464403D01*
X152805446Y-64464402D01*
X152809909Y-64455640D01*
X152818555Y-64446486D01*
X152823292Y-64434818D01*
X152842091Y-64421565D01*
X152857883Y-64404845D01*
X152870105Y-64401817D01*
X152880399Y-64394562D01*
X152903380Y-64393577D01*
X152925703Y-64388049D01*
X152937621Y-64392110D01*
G37*
%TD.AperFunction*%
%TA.AperFunction,Conductor*%
G36*
X223637031Y-84556185D02*
G01*
X223657673Y-84572819D01*
X224008672Y-84923819D01*
X224042157Y-84985142D01*
X224037173Y-85054834D01*
X223995301Y-85110767D01*
X223929837Y-85135184D01*
X223920991Y-85135500D01*
X193456092Y-85135500D01*
X193389053Y-85115815D01*
X193365037Y-85095672D01*
X193356096Y-85086000D01*
X193090615Y-85086000D01*
X193027494Y-85068732D01*
X192973090Y-85036558D01*
X192969198Y-85034256D01*
X192969197Y-85034255D01*
X192969196Y-85034255D01*
X192969193Y-85034254D01*
X192811373Y-84988402D01*
X192811367Y-84988401D01*
X192774501Y-84985500D01*
X192774494Y-84985500D01*
X192320300Y-84985500D01*
X192311614Y-84982949D01*
X192302653Y-84984238D01*
X192278612Y-84973259D01*
X192253261Y-84965815D01*
X192247333Y-84958974D01*
X192239097Y-84955213D01*
X192224807Y-84932978D01*
X192207506Y-84913011D01*
X192205218Y-84902496D01*
X192201323Y-84896435D01*
X192196300Y-84861500D01*
X192196300Y-84810500D01*
X192215985Y-84743461D01*
X192268789Y-84697706D01*
X192320300Y-84686500D01*
X192774486Y-84686500D01*
X192774494Y-84686500D01*
X192811369Y-84683598D01*
X192811371Y-84683597D01*
X192811373Y-84683597D01*
X192889681Y-84660846D01*
X192969198Y-84637744D01*
X193027494Y-84603268D01*
X193090615Y-84586000D01*
X193356096Y-84586000D01*
X193365037Y-84576328D01*
X193424998Y-84540462D01*
X193456092Y-84536500D01*
X223569992Y-84536500D01*
X223637031Y-84556185D01*
G37*
%TD.AperFunction*%
%TA.AperFunction,Conductor*%
G36*
X83892200Y-71971406D02*
G01*
X83831798Y-71946387D01*
X83706219Y-71921408D01*
X83578181Y-71921408D01*
X83452602Y-71946387D01*
X83392200Y-71971406D01*
X83392200Y-70631409D01*
X83452602Y-70656429D01*
X83578181Y-70681408D01*
X83706219Y-70681408D01*
X83831798Y-70656429D01*
X83892200Y-70631409D01*
X83892200Y-71971406D01*
G37*
%TD.AperFunction*%
%TA.AperFunction,Conductor*%
G36*
X238626910Y-62021085D02*
G01*
X238672665Y-62073889D01*
X238683871Y-62125329D01*
X238694930Y-81346176D01*
X238675284Y-81413226D01*
X238622506Y-81459012D01*
X238553354Y-81468995D01*
X238523479Y-81460809D01*
X238481245Y-81443316D01*
X238481238Y-81443314D01*
X238298677Y-81407000D01*
X238125600Y-81407000D01*
X238125600Y-82102000D01*
X237625600Y-82102000D01*
X237625600Y-81407000D01*
X237452523Y-81407000D01*
X237269961Y-81443314D01*
X237269953Y-81443316D01*
X237097977Y-81514550D01*
X237097968Y-81514555D01*
X236943198Y-81617970D01*
X236943194Y-81617973D01*
X236811573Y-81749594D01*
X236811570Y-81749598D01*
X236708155Y-81904368D01*
X236708148Y-81904381D01*
X236636917Y-82076350D01*
X236636916Y-82076355D01*
X236631816Y-82102000D01*
X237500872Y-82102000D01*
X237408986Y-82140060D01*
X237338660Y-82210386D01*
X237300600Y-82302272D01*
X237300600Y-82401728D01*
X237338660Y-82493614D01*
X237408986Y-82563940D01*
X237500872Y-82602000D01*
X237875600Y-82602000D01*
X237875600Y-82827000D01*
X238001600Y-82827000D01*
X238068639Y-82846685D01*
X238114394Y-82899489D01*
X238125600Y-82951000D01*
X238125600Y-88753000D01*
X238105915Y-88820039D01*
X238053111Y-88865794D01*
X238001600Y-88877000D01*
X237875600Y-88877000D01*
X237875600Y-89102000D01*
X237500872Y-89102000D01*
X237408986Y-89140060D01*
X237338660Y-89210386D01*
X237300600Y-89302272D01*
X237300600Y-89401728D01*
X237338660Y-89493614D01*
X237408986Y-89563940D01*
X237500872Y-89602000D01*
X236631816Y-89602000D01*
X236636916Y-89627644D01*
X236636917Y-89627649D01*
X236708148Y-89799618D01*
X236708155Y-89799631D01*
X236811570Y-89954401D01*
X236811573Y-89954405D01*
X236943194Y-90086026D01*
X236943198Y-90086029D01*
X237097968Y-90189444D01*
X237097977Y-90189449D01*
X237269953Y-90260683D01*
X237269961Y-90260685D01*
X237452521Y-90296999D01*
X237452524Y-90297000D01*
X237625600Y-90297000D01*
X237625600Y-89602000D01*
X238125600Y-89602000D01*
X238125600Y-90297000D01*
X238298676Y-90297000D01*
X238298678Y-90296999D01*
X238481238Y-90260685D01*
X238481246Y-90260683D01*
X238528660Y-90241044D01*
X238598129Y-90233575D01*
X238660608Y-90264850D01*
X238696261Y-90324938D01*
X238700113Y-90355534D01*
X238706454Y-101373407D01*
X238708950Y-105712691D01*
X238709129Y-106022529D01*
X238689483Y-106089579D01*
X238636705Y-106135365D01*
X238585129Y-106146600D01*
X228978000Y-106146600D01*
X228910961Y-106126915D01*
X228865206Y-106074111D01*
X228854000Y-106022600D01*
X228854000Y-100863400D01*
X183743600Y-100863400D01*
X183743600Y-105997200D01*
X183723915Y-106064239D01*
X183671111Y-106109994D01*
X183619600Y-106121200D01*
X110029800Y-106121200D01*
X109962761Y-106101515D01*
X109917006Y-106048711D01*
X109905800Y-105997200D01*
X109905800Y-88645775D01*
X120551224Y-88645775D01*
X120551224Y-88907964D01*
X120585444Y-89167879D01*
X120585446Y-89167890D01*
X120653299Y-89421125D01*
X120753628Y-89663341D01*
X120753633Y-89663352D01*
X120884712Y-89890386D01*
X120884718Y-89890394D01*
X120971304Y-90003235D01*
X121873645Y-89100894D01*
X121886583Y-89132128D01*
X121968661Y-89254967D01*
X122073127Y-89359433D01*
X122195966Y-89441511D01*
X122227198Y-89454447D01*
X121324857Y-90356787D01*
X121324857Y-90356788D01*
X121437699Y-90443375D01*
X121437707Y-90443381D01*
X121664741Y-90574460D01*
X121664752Y-90574465D01*
X121906968Y-90674794D01*
X122160203Y-90742647D01*
X122160214Y-90742649D01*
X122420129Y-90776869D01*
X122420144Y-90776870D01*
X122682304Y-90776870D01*
X122682318Y-90776869D01*
X122942233Y-90742649D01*
X122942244Y-90742647D01*
X123195479Y-90674794D01*
X123437695Y-90574465D01*
X123437706Y-90574460D01*
X123664740Y-90443381D01*
X123664758Y-90443369D01*
X123777589Y-90356789D01*
X123777589Y-90356787D01*
X122875249Y-89454448D01*
X122906482Y-89441511D01*
X123029321Y-89359433D01*
X123133787Y-89254967D01*
X123215865Y-89132128D01*
X123228801Y-89100895D01*
X124131141Y-90003235D01*
X124131143Y-90003235D01*
X124217723Y-89890404D01*
X124217735Y-89890386D01*
X124348814Y-89663352D01*
X124348819Y-89663341D01*
X124449148Y-89421125D01*
X124517001Y-89167890D01*
X124517003Y-89167879D01*
X124551223Y-88907964D01*
X124551224Y-88907950D01*
X124551224Y-88645789D01*
X124551223Y-88645775D01*
X124517003Y-88385860D01*
X124517001Y-88385849D01*
X124449148Y-88132614D01*
X124348819Y-87890398D01*
X124348814Y-87890387D01*
X124217735Y-87663353D01*
X124217729Y-87663345D01*
X124131142Y-87550503D01*
X124131141Y-87550503D01*
X123228801Y-88452843D01*
X123215865Y-88421612D01*
X123133787Y-88298773D01*
X123029321Y-88194307D01*
X122906482Y-88112229D01*
X122875247Y-88099291D01*
X123745534Y-87229005D01*
X141350724Y-87229005D01*
X141350724Y-90324740D01*
X141350725Y-90324746D01*
X141357132Y-90384353D01*
X141407426Y-90519198D01*
X141407430Y-90519205D01*
X141493676Y-90634414D01*
X141493679Y-90634417D01*
X141608888Y-90720663D01*
X141608895Y-90720667D01*
X141743741Y-90770961D01*
X141743740Y-90770961D01*
X141750668Y-90771705D01*
X141803351Y-90777370D01*
X144899096Y-90777369D01*
X144958707Y-90770961D01*
X145093555Y-90720666D01*
X145208770Y-90634416D01*
X145295020Y-90519201D01*
X145345315Y-90384353D01*
X145351724Y-90324743D01*
X145351723Y-87228998D01*
X145345315Y-87169387D01*
X145342196Y-87161025D01*
X145295021Y-87034541D01*
X145295017Y-87034534D01*
X145208771Y-86919325D01*
X145208768Y-86919322D01*
X145093559Y-86833076D01*
X145093552Y-86833072D01*
X144958706Y-86782778D01*
X144958707Y-86782778D01*
X144899107Y-86776371D01*
X144899105Y-86776370D01*
X144899097Y-86776370D01*
X144899088Y-86776370D01*
X141803353Y-86776370D01*
X141803347Y-86776371D01*
X141743740Y-86782778D01*
X141608895Y-86833072D01*
X141608888Y-86833076D01*
X141493679Y-86919322D01*
X141493676Y-86919325D01*
X141407430Y-87034534D01*
X141407426Y-87034541D01*
X141357132Y-87169387D01*
X141351761Y-87219352D01*
X141350725Y-87228993D01*
X141350724Y-87229005D01*
X123745534Y-87229005D01*
X123777589Y-87196950D01*
X123664748Y-87110364D01*
X123664740Y-87110358D01*
X123437706Y-86979279D01*
X123437695Y-86979274D01*
X123195479Y-86878945D01*
X122942244Y-86811092D01*
X122942233Y-86811090D01*
X122682318Y-86776870D01*
X122420129Y-86776870D01*
X122160214Y-86811090D01*
X122160203Y-86811092D01*
X121906968Y-86878945D01*
X121664752Y-86979274D01*
X121664741Y-86979279D01*
X121437695Y-87110366D01*
X121324857Y-87196949D01*
X121324857Y-87196950D01*
X122227198Y-88099291D01*
X122195966Y-88112229D01*
X122073127Y-88194307D01*
X121968661Y-88298773D01*
X121886583Y-88421612D01*
X121873645Y-88452844D01*
X120971304Y-87550503D01*
X120971303Y-87550503D01*
X120884720Y-87663341D01*
X120753633Y-87890387D01*
X120753628Y-87890398D01*
X120653299Y-88132614D01*
X120585446Y-88385849D01*
X120585444Y-88385860D01*
X120551224Y-88645775D01*
X109905800Y-88645775D01*
X109905800Y-85344000D01*
X65401865Y-85344000D01*
X65334826Y-85324315D01*
X65289071Y-85271511D01*
X65277865Y-85220136D01*
X65275794Y-83325525D01*
X65272913Y-80689661D01*
X114600200Y-80689661D01*
X114600200Y-80894296D01*
X114632209Y-81096396D01*
X114695444Y-81291010D01*
X114788341Y-81473329D01*
X114788347Y-81473338D01*
X114820723Y-81517900D01*
X114820724Y-81517901D01*
X115500200Y-80838425D01*
X115500200Y-80844640D01*
X115527459Y-80946373D01*
X115580120Y-81037585D01*
X115654594Y-81112059D01*
X115745806Y-81164720D01*
X115847539Y-81191979D01*
X115853753Y-81191979D01*
X115174276Y-81871453D01*
X115218850Y-81903838D01*
X115401168Y-81996734D01*
X115595782Y-82059969D01*
X115797883Y-82091979D01*
X116002517Y-82091979D01*
X116204617Y-82059969D01*
X116399231Y-81996734D01*
X116581549Y-81903838D01*
X116626121Y-81871453D01*
X115946647Y-81191979D01*
X115952861Y-81191979D01*
X116054594Y-81164720D01*
X116145806Y-81112059D01*
X116220280Y-81037585D01*
X116272941Y-80946373D01*
X116300200Y-80844640D01*
X116300200Y-80838426D01*
X116979673Y-81517900D01*
X117017480Y-81514925D01*
X117085858Y-81529289D01*
X117135615Y-81578340D01*
X117144914Y-81599535D01*
X117165386Y-81661313D01*
X117257488Y-81810635D01*
X117381544Y-81934691D01*
X117530866Y-82026793D01*
X117697403Y-82081978D01*
X117800191Y-82092479D01*
X119000208Y-82092478D01*
X119102997Y-82081978D01*
X119269534Y-82026793D01*
X119418856Y-81934691D01*
X119542912Y-81810635D01*
X119635014Y-81661313D01*
X119690199Y-81494776D01*
X119700700Y-81391988D01*
X119700699Y-80191971D01*
X119700088Y-80185994D01*
X119690199Y-80089182D01*
X119690198Y-80089179D01*
X119682535Y-80066055D01*
X119635014Y-79922645D01*
X119542912Y-79773323D01*
X119418856Y-79649267D01*
X119342149Y-79601954D01*
X119342148Y-79601953D01*
X119269540Y-79557168D01*
X119269535Y-79557166D01*
X119269534Y-79557165D01*
X119102997Y-79501980D01*
X119102995Y-79501979D01*
X119000210Y-79491479D01*
X117800198Y-79491479D01*
X117800181Y-79491480D01*
X117697403Y-79501979D01*
X117697400Y-79501980D01*
X117530868Y-79557164D01*
X117530863Y-79557166D01*
X117381542Y-79649268D01*
X117257489Y-79773321D01*
X117165387Y-79922642D01*
X117165385Y-79922647D01*
X117144917Y-79984417D01*
X117105144Y-80041862D01*
X117040628Y-80068685D01*
X117017483Y-80069031D01*
X116979674Y-80066055D01*
X116300200Y-80745530D01*
X116300200Y-80739318D01*
X116272941Y-80637585D01*
X116220280Y-80546373D01*
X116145806Y-80471899D01*
X116054594Y-80419238D01*
X115952861Y-80391979D01*
X115946646Y-80391979D01*
X116626122Y-79712503D01*
X116626121Y-79712502D01*
X116581559Y-79680126D01*
X116581550Y-79680120D01*
X116399231Y-79587223D01*
X116204617Y-79523988D01*
X116002517Y-79491979D01*
X115797883Y-79491979D01*
X115595782Y-79523988D01*
X115401168Y-79587223D01*
X115218844Y-79680122D01*
X115174277Y-79712502D01*
X115174277Y-79712503D01*
X115853754Y-80391979D01*
X115847539Y-80391979D01*
X115745806Y-80419238D01*
X115654594Y-80471899D01*
X115580120Y-80546373D01*
X115527459Y-80637585D01*
X115500200Y-80739318D01*
X115500200Y-80745532D01*
X114820724Y-80066056D01*
X114820723Y-80066056D01*
X114788343Y-80110623D01*
X114695444Y-80292947D01*
X114632209Y-80487561D01*
X114600200Y-80689661D01*
X65272913Y-80689661D01*
X65269280Y-77365343D01*
X135345299Y-77365343D01*
X135383747Y-77558629D01*
X135383750Y-77558639D01*
X135459164Y-77740707D01*
X135459171Y-77740720D01*
X135568660Y-77904581D01*
X135568663Y-77904585D01*
X135708014Y-78043936D01*
X135708018Y-78043939D01*
X135871879Y-78153428D01*
X135871892Y-78153435D01*
X135969102Y-78193700D01*
X136053965Y-78228851D01*
X136053969Y-78228851D01*
X136053970Y-78228852D01*
X136247256Y-78267300D01*
X136247259Y-78267300D01*
X136444343Y-78267300D01*
X136574382Y-78241432D01*
X136637635Y-78228851D01*
X136819714Y-78153432D01*
X136983582Y-78043939D01*
X137122939Y-77904582D01*
X137232432Y-77740714D01*
X137307851Y-77558635D01*
X137333545Y-77429466D01*
X137346300Y-77365343D01*
X137346300Y-77168256D01*
X137307852Y-76974970D01*
X137307851Y-76974969D01*
X137307851Y-76974965D01*
X137280682Y-76909372D01*
X137232435Y-76792892D01*
X137232428Y-76792879D01*
X137122939Y-76629018D01*
X137122936Y-76629014D01*
X136983585Y-76489663D01*
X136983581Y-76489660D01*
X136819720Y-76380171D01*
X136819707Y-76380164D01*
X136637639Y-76304750D01*
X136637629Y-76304747D01*
X136444343Y-76266300D01*
X136444341Y-76266300D01*
X136247259Y-76266300D01*
X136247257Y-76266300D01*
X136053970Y-76304747D01*
X136053960Y-76304750D01*
X135871892Y-76380164D01*
X135871879Y-76380171D01*
X135708018Y-76489660D01*
X135708014Y-76489663D01*
X135568663Y-76629014D01*
X135568660Y-76629018D01*
X135459171Y-76792879D01*
X135459164Y-76792892D01*
X135383750Y-76974960D01*
X135383747Y-76974970D01*
X135345300Y-77168256D01*
X135345300Y-77168259D01*
X135345300Y-77365341D01*
X135345300Y-77365343D01*
X135345299Y-77365343D01*
X65269280Y-77365343D01*
X65266504Y-74825343D01*
X135345299Y-74825343D01*
X135383747Y-75018629D01*
X135383750Y-75018639D01*
X135459164Y-75200707D01*
X135459171Y-75200720D01*
X135568660Y-75364581D01*
X135568663Y-75364585D01*
X135708014Y-75503936D01*
X135708018Y-75503939D01*
X135871879Y-75613428D01*
X135871892Y-75613435D01*
X136040117Y-75683115D01*
X136053965Y-75688851D01*
X136053969Y-75688851D01*
X136053970Y-75688852D01*
X136247256Y-75727300D01*
X136247259Y-75727300D01*
X136444343Y-75727300D01*
X136574382Y-75701432D01*
X136637635Y-75688851D01*
X136819714Y-75613432D01*
X136983582Y-75503939D01*
X137122939Y-75364582D01*
X137232432Y-75200714D01*
X137307851Y-75018635D01*
X137333677Y-74888800D01*
X137346300Y-74825343D01*
X137346300Y-74628256D01*
X137307852Y-74434970D01*
X137307851Y-74434969D01*
X137307851Y-74434965D01*
X137269822Y-74343153D01*
X137232435Y-74252892D01*
X137232428Y-74252879D01*
X137122939Y-74089018D01*
X137122936Y-74089014D01*
X136983585Y-73949663D01*
X136983581Y-73949660D01*
X136819720Y-73840171D01*
X136819707Y-73840164D01*
X136637639Y-73764750D01*
X136637629Y-73764747D01*
X136444343Y-73726300D01*
X136444341Y-73726300D01*
X136247259Y-73726300D01*
X136247257Y-73726300D01*
X136053970Y-73764747D01*
X136053960Y-73764750D01*
X135871892Y-73840164D01*
X135871879Y-73840171D01*
X135708018Y-73949660D01*
X135708014Y-73949663D01*
X135568663Y-74089014D01*
X135568660Y-74089018D01*
X135459171Y-74252879D01*
X135459164Y-74252892D01*
X135383750Y-74434960D01*
X135383747Y-74434970D01*
X135345300Y-74628256D01*
X135345300Y-74628259D01*
X135345300Y-74825341D01*
X135345300Y-74825343D01*
X135345299Y-74825343D01*
X65266504Y-74825343D01*
X65264959Y-73411315D01*
X65264274Y-72784480D01*
X65261498Y-70244481D01*
X65258322Y-67338917D01*
X65866837Y-67338917D01*
X65866837Y-67615884D01*
X65866838Y-67615901D01*
X65902989Y-67890500D01*
X65974677Y-68158043D01*
X66080672Y-68413937D01*
X66080677Y-68413948D01*
X66219163Y-68653812D01*
X66387777Y-68873555D01*
X66387783Y-68873562D01*
X66583627Y-69069406D01*
X66583634Y-69069412D01*
X66803377Y-69238026D01*
X67043241Y-69376512D01*
X67043246Y-69376514D01*
X67043249Y-69376516D01*
X67299145Y-69482512D01*
X67566688Y-69554200D01*
X67841299Y-69590353D01*
X67841306Y-69590353D01*
X68118272Y-69590353D01*
X68118279Y-69590353D01*
X68392890Y-69554200D01*
X68660433Y-69482512D01*
X68916329Y-69376516D01*
X69156201Y-69238026D01*
X69375945Y-69069411D01*
X69571799Y-68873557D01*
X69740414Y-68653813D01*
X69878904Y-68413941D01*
X69984900Y-68158045D01*
X70056588Y-67890502D01*
X70092741Y-67615891D01*
X70092741Y-67338911D01*
X70056588Y-67064300D01*
X69984900Y-66796757D01*
X69941256Y-66691391D01*
X81991700Y-66691391D01*
X81991700Y-68291409D01*
X81991701Y-68291426D01*
X82002200Y-68394204D01*
X82002201Y-68394207D01*
X82043417Y-68518587D01*
X82057386Y-68560742D01*
X82149488Y-68710064D01*
X82273544Y-68834120D01*
X82322293Y-68864189D01*
X82369018Y-68916135D01*
X82380241Y-68985098D01*
X82352398Y-69049180D01*
X82351198Y-69050495D01*
X82351227Y-69050520D01*
X82348060Y-69054227D01*
X82209287Y-69245233D01*
X82102097Y-69455605D01*
X82029134Y-69680160D01*
X82013098Y-69781408D01*
X83042199Y-69781408D01*
X83017179Y-69841810D01*
X82992200Y-69967389D01*
X82992200Y-70095427D01*
X83017179Y-70221006D01*
X83042199Y-70281408D01*
X82013098Y-70281408D01*
X82029134Y-70382655D01*
X82102097Y-70607210D01*
X82209285Y-70817579D01*
X82348066Y-71008594D01*
X82515013Y-71175541D01*
X82515019Y-71175546D01*
X82550177Y-71201090D01*
X82592843Y-71256420D01*
X82598822Y-71326033D01*
X82566216Y-71387828D01*
X82550177Y-71401726D01*
X82515019Y-71427269D01*
X82515013Y-71427274D01*
X82348066Y-71594221D01*
X82209285Y-71785236D01*
X82102097Y-71995605D01*
X82029134Y-72220160D01*
X82013098Y-72321408D01*
X83042199Y-72321408D01*
X83017179Y-72381810D01*
X82992200Y-72507389D01*
X82992200Y-72635427D01*
X83017179Y-72761006D01*
X83042199Y-72821408D01*
X82013098Y-72821408D01*
X82029134Y-72922655D01*
X82102097Y-73147210D01*
X82209285Y-73357579D01*
X82348066Y-73548594D01*
X82515013Y-73715541D01*
X82706028Y-73854322D01*
X82916397Y-73961510D01*
X83140952Y-74034473D01*
X83140951Y-74034473D01*
X83374148Y-74071408D01*
X83392200Y-74071408D01*
X83392200Y-73171409D01*
X83452602Y-73196429D01*
X83578181Y-73221408D01*
X83706219Y-73221408D01*
X83831798Y-73196429D01*
X83892200Y-73171409D01*
X83892200Y-74071408D01*
X83910252Y-74071408D01*
X84143447Y-74034473D01*
X84368002Y-73961510D01*
X84578371Y-73854322D01*
X84769386Y-73715541D01*
X84936333Y-73548594D01*
X85075114Y-73357579D01*
X85182302Y-73147210D01*
X85255265Y-72922656D01*
X85261150Y-72885504D01*
X117158700Y-72885504D01*
X117158700Y-73062895D01*
X117193303Y-73236858D01*
X117193306Y-73236867D01*
X117261183Y-73400740D01*
X117261190Y-73400753D01*
X117359735Y-73548234D01*
X117359738Y-73548238D01*
X117485161Y-73673661D01*
X117485165Y-73673664D01*
X117632646Y-73772209D01*
X117632659Y-73772216D01*
X117700249Y-73800212D01*
X117796534Y-73840094D01*
X117796536Y-73840094D01*
X117796541Y-73840096D01*
X117970504Y-73874699D01*
X117970507Y-73874700D01*
X117970509Y-73874700D01*
X118147893Y-73874700D01*
X118147894Y-73874699D01*
X118205882Y-73863164D01*
X118321858Y-73840096D01*
X118321861Y-73840094D01*
X118321866Y-73840094D01*
X118485747Y-73772213D01*
X118633235Y-73673664D01*
X118758664Y-73548235D01*
X118857213Y-73400747D01*
X118913168Y-73265654D01*
X118940044Y-73225432D01*
X119345059Y-72820419D01*
X119406382Y-72786934D01*
X119432740Y-72784100D01*
X124167193Y-72784100D01*
X124214645Y-72793539D01*
X124349734Y-72849494D01*
X124349736Y-72849494D01*
X124349741Y-72849496D01*
X124523704Y-72884099D01*
X124523707Y-72884100D01*
X124523709Y-72884100D01*
X124701093Y-72884100D01*
X124701094Y-72884099D01*
X124759082Y-72872564D01*
X124875058Y-72849496D01*
X124875061Y-72849494D01*
X124875066Y-72849494D01*
X125010155Y-72793539D01*
X125057607Y-72784100D01*
X141280092Y-72784100D01*
X141347131Y-72803785D01*
X141385636Y-72847871D01*
X141387395Y-72846787D01*
X141391185Y-72852932D01*
X141391186Y-72852934D01*
X141483288Y-73002256D01*
X141607344Y-73126312D01*
X141756666Y-73218414D01*
X141838570Y-73245554D01*
X141896015Y-73285327D01*
X141922838Y-73349843D01*
X141910523Y-73418618D01*
X141872451Y-73463578D01*
X141778787Y-73531628D01*
X141778782Y-73531632D01*
X141634028Y-73676386D01*
X141513715Y-73841986D01*
X141420781Y-74024376D01*
X141357522Y-74219065D01*
X141327583Y-74408099D01*
X141325500Y-74421248D01*
X141325500Y-74625952D01*
X141329822Y-74653242D01*
X141357522Y-74828134D01*
X141420781Y-75022823D01*
X141483753Y-75146410D01*
X141511425Y-75200720D01*
X141513715Y-75205213D01*
X141634028Y-75370813D01*
X141778786Y-75515571D01*
X141913483Y-75613432D01*
X141944390Y-75635887D01*
X142035840Y-75682483D01*
X142037080Y-75683115D01*
X142087876Y-75731090D01*
X142104671Y-75798911D01*
X142082134Y-75865046D01*
X142037080Y-75904085D01*
X141944386Y-75951315D01*
X141778786Y-76071628D01*
X141634028Y-76216386D01*
X141513715Y-76381986D01*
X141420781Y-76564376D01*
X141357522Y-76759065D01*
X141333716Y-76909372D01*
X141325500Y-76961248D01*
X141325500Y-77165952D01*
X141329878Y-77193595D01*
X141357522Y-77368134D01*
X141420781Y-77562823D01*
X141484691Y-77688253D01*
X141511425Y-77740720D01*
X141513715Y-77745213D01*
X141634028Y-77910813D01*
X141778786Y-78055571D01*
X141944385Y-78175884D01*
X141944387Y-78175885D01*
X141944390Y-78175887D01*
X142037080Y-78223115D01*
X142037630Y-78223395D01*
X142088426Y-78271370D01*
X142105221Y-78339191D01*
X142082684Y-78405325D01*
X142037630Y-78444365D01*
X141944644Y-78491743D01*
X141900077Y-78524123D01*
X141900077Y-78524124D01*
X142579554Y-79203600D01*
X142573339Y-79203600D01*
X142471606Y-79230859D01*
X142380394Y-79283520D01*
X142305920Y-79357994D01*
X142253259Y-79449206D01*
X142226000Y-79550939D01*
X142226000Y-79557153D01*
X141546524Y-78877677D01*
X141546523Y-78877677D01*
X141514143Y-78922244D01*
X141421244Y-79104568D01*
X141358009Y-79299182D01*
X141326000Y-79501282D01*
X141326000Y-79705917D01*
X141358009Y-79908017D01*
X141421244Y-80102631D01*
X141514141Y-80284950D01*
X141514147Y-80284959D01*
X141546523Y-80329521D01*
X141546524Y-80329522D01*
X142226000Y-79650046D01*
X142226000Y-79656261D01*
X142253259Y-79757994D01*
X142305920Y-79849206D01*
X142380394Y-79923680D01*
X142471606Y-79976341D01*
X142573339Y-80003600D01*
X142579553Y-80003600D01*
X141900076Y-80683074D01*
X141944650Y-80715459D01*
X142126968Y-80808355D01*
X142321582Y-80871590D01*
X142523683Y-80903600D01*
X142728317Y-80903600D01*
X142930417Y-80871590D01*
X143125031Y-80808355D01*
X143307349Y-80715459D01*
X143351921Y-80683074D01*
X142672447Y-80003600D01*
X142678661Y-80003600D01*
X142780394Y-79976341D01*
X142871606Y-79923680D01*
X142946080Y-79849206D01*
X142998741Y-79757994D01*
X143026000Y-79656261D01*
X143026000Y-79650048D01*
X143705474Y-80329522D01*
X143705474Y-80329521D01*
X143737859Y-80284949D01*
X143830755Y-80102631D01*
X143893990Y-79908017D01*
X143926000Y-79705917D01*
X143926000Y-79501282D01*
X143893990Y-79299182D01*
X143830755Y-79104568D01*
X143737859Y-78922250D01*
X143705474Y-78877677D01*
X143705474Y-78877676D01*
X143026000Y-79557151D01*
X143026000Y-79550939D01*
X142998741Y-79449206D01*
X142946080Y-79357994D01*
X142871606Y-79283520D01*
X142780394Y-79230859D01*
X142678661Y-79203600D01*
X142672446Y-79203600D01*
X143351922Y-78524124D01*
X143351921Y-78524123D01*
X143307359Y-78491747D01*
X143307350Y-78491741D01*
X143214369Y-78444365D01*
X143163573Y-78396390D01*
X143146778Y-78328569D01*
X143169315Y-78262435D01*
X143214370Y-78223395D01*
X143214920Y-78223115D01*
X143307610Y-78175887D01*
X143403776Y-78106019D01*
X143473213Y-78055571D01*
X143473215Y-78055568D01*
X143473219Y-78055566D01*
X143617966Y-77910819D01*
X143617968Y-77910815D01*
X143617971Y-77910813D01*
X143670732Y-77838190D01*
X143738287Y-77745210D01*
X143831220Y-77562819D01*
X143894477Y-77368134D01*
X143926500Y-77165952D01*
X143926500Y-76961248D01*
X143895211Y-76763700D01*
X143894477Y-76759065D01*
X143852222Y-76629018D01*
X143831220Y-76564381D01*
X143831218Y-76564378D01*
X143831218Y-76564376D01*
X143786998Y-76477590D01*
X143738287Y-76381990D01*
X143730556Y-76371349D01*
X143617971Y-76216386D01*
X143473213Y-76071628D01*
X143307614Y-75951315D01*
X143301006Y-75947948D01*
X143214917Y-75904083D01*
X143164123Y-75856111D01*
X143147328Y-75788290D01*
X143169865Y-75722155D01*
X143214917Y-75683116D01*
X143307610Y-75635887D01*
X143338522Y-75613428D01*
X143473213Y-75515571D01*
X143473215Y-75515568D01*
X143473219Y-75515566D01*
X143617966Y-75370819D01*
X143617968Y-75370815D01*
X143617971Y-75370813D01*
X143670732Y-75298190D01*
X143738287Y-75205210D01*
X143831220Y-75022819D01*
X143894477Y-74828134D01*
X143926500Y-74625952D01*
X143926500Y-74421248D01*
X143913774Y-74340903D01*
X143894477Y-74219065D01*
X143852222Y-74089018D01*
X143831220Y-74024381D01*
X143831218Y-74024378D01*
X143831218Y-74024376D01*
X143773812Y-73911712D01*
X143738287Y-73841990D01*
X143723753Y-73821985D01*
X143617971Y-73676386D01*
X143473219Y-73531634D01*
X143473211Y-73531628D01*
X143379547Y-73463578D01*
X143336882Y-73408249D01*
X143330903Y-73338636D01*
X143363508Y-73276840D01*
X143413426Y-73245555D01*
X143495334Y-73218414D01*
X143644656Y-73126312D01*
X143768712Y-73002256D01*
X143860814Y-72852934D01*
X143860814Y-72852932D01*
X143864605Y-72846787D01*
X143866399Y-72847893D01*
X143870985Y-72842683D01*
X143878195Y-72826897D01*
X143893593Y-72817001D01*
X143905687Y-72803263D01*
X143922574Y-72798375D01*
X143936973Y-72789123D01*
X143971908Y-72784100D01*
X144016060Y-72784100D01*
X144083099Y-72803785D01*
X144103741Y-72820419D01*
X146000581Y-74717259D01*
X146034066Y-74778582D01*
X146036900Y-74804940D01*
X146036900Y-84965646D01*
X146067661Y-85120289D01*
X146067664Y-85120301D01*
X146128002Y-85265972D01*
X146128009Y-85265985D01*
X146215609Y-85397087D01*
X146215610Y-85397088D01*
X146215611Y-85397089D01*
X146229180Y-85410658D01*
X146262665Y-85471979D01*
X146265500Y-85498340D01*
X146265500Y-96557393D01*
X146256061Y-96604845D01*
X146200106Y-96739932D01*
X146200103Y-96739941D01*
X146165500Y-96913904D01*
X146165500Y-97091295D01*
X146200103Y-97265258D01*
X146200106Y-97265267D01*
X146267983Y-97429140D01*
X146267990Y-97429153D01*
X146369859Y-97581609D01*
X146390737Y-97648286D01*
X146372253Y-97715666D01*
X146320274Y-97762357D01*
X146266757Y-97774500D01*
X144461929Y-97774500D01*
X144336260Y-97799497D01*
X144336254Y-97799499D01*
X144316541Y-97807665D01*
X144217874Y-97848533D01*
X144111326Y-97919726D01*
X139013110Y-103017942D01*
X138951787Y-103051427D01*
X138903645Y-103050915D01*
X138903455Y-103052116D01*
X138798511Y-103035494D01*
X138688687Y-103018100D01*
X138476113Y-103018100D01*
X138427442Y-103025808D01*
X138266160Y-103051353D01*
X138063985Y-103117044D01*
X137874579Y-103213551D01*
X137702613Y-103338490D01*
X137552290Y-103488813D01*
X137427349Y-103660782D01*
X137422884Y-103669546D01*
X137374909Y-103720342D01*
X137307088Y-103737136D01*
X137240953Y-103714598D01*
X137201916Y-103669546D01*
X137197450Y-103660782D01*
X137072509Y-103488813D01*
X136922186Y-103338490D01*
X136750220Y-103213551D01*
X136560814Y-103117044D01*
X136560813Y-103117043D01*
X136560812Y-103117043D01*
X136358643Y-103051354D01*
X136358641Y-103051353D01*
X136358640Y-103051353D01*
X136197357Y-103025808D01*
X136148687Y-103018100D01*
X135936113Y-103018100D01*
X135887442Y-103025808D01*
X135726160Y-103051353D01*
X135523985Y-103117044D01*
X135334579Y-103213551D01*
X135162615Y-103338489D01*
X135049073Y-103452031D01*
X134987750Y-103485515D01*
X134918058Y-103480531D01*
X134862125Y-103438659D01*
X134845210Y-103407682D01*
X134796197Y-103276271D01*
X134796193Y-103276264D01*
X134709947Y-103161055D01*
X134709944Y-103161052D01*
X134594735Y-103074806D01*
X134594728Y-103074802D01*
X134459882Y-103024508D01*
X134459883Y-103024508D01*
X134400283Y-103018101D01*
X134400281Y-103018100D01*
X134400273Y-103018100D01*
X134400264Y-103018100D01*
X132604529Y-103018100D01*
X132604523Y-103018101D01*
X132544916Y-103024508D01*
X132410071Y-103074802D01*
X132410064Y-103074806D01*
X132294855Y-103161052D01*
X132294852Y-103161055D01*
X132208606Y-103276264D01*
X132208602Y-103276271D01*
X132158308Y-103411117D01*
X132151901Y-103470716D01*
X132151900Y-103470735D01*
X132151900Y-105266470D01*
X132151901Y-105266476D01*
X132158308Y-105326083D01*
X132208602Y-105460928D01*
X132208606Y-105460935D01*
X132294852Y-105576144D01*
X132294855Y-105576147D01*
X132410064Y-105662393D01*
X132410071Y-105662397D01*
X132544917Y-105712691D01*
X132544916Y-105712691D01*
X132551844Y-105713435D01*
X132604527Y-105719100D01*
X134400272Y-105719099D01*
X134459883Y-105712691D01*
X134594731Y-105662396D01*
X134709946Y-105576146D01*
X134796196Y-105460931D01*
X134845210Y-105329516D01*
X134887081Y-105273584D01*
X134952545Y-105249166D01*
X135020818Y-105264017D01*
X135049073Y-105285169D01*
X135162613Y-105398709D01*
X135334579Y-105523648D01*
X135334581Y-105523649D01*
X135334584Y-105523651D01*
X135523988Y-105620157D01*
X135726157Y-105685846D01*
X135936113Y-105719100D01*
X135936114Y-105719100D01*
X136148686Y-105719100D01*
X136148687Y-105719100D01*
X136358643Y-105685846D01*
X136560812Y-105620157D01*
X136750216Y-105523651D01*
X136836538Y-105460935D01*
X136922186Y-105398709D01*
X136922188Y-105398706D01*
X136922192Y-105398704D01*
X137072504Y-105248392D01*
X137072506Y-105248388D01*
X137072509Y-105248386D01*
X137197448Y-105076420D01*
X137197447Y-105076420D01*
X137197451Y-105076416D01*
X137201914Y-105067654D01*
X137249888Y-105016859D01*
X137317708Y-105000063D01*
X137383844Y-105022599D01*
X137422886Y-105067656D01*
X137427351Y-105076420D01*
X137552290Y-105248386D01*
X137702613Y-105398709D01*
X137874579Y-105523648D01*
X137874581Y-105523649D01*
X137874584Y-105523651D01*
X138063988Y-105620157D01*
X138266157Y-105685846D01*
X138476113Y-105719100D01*
X138476114Y-105719100D01*
X138688686Y-105719100D01*
X138688687Y-105719100D01*
X138898643Y-105685846D01*
X139100812Y-105620157D01*
X139290216Y-105523651D01*
X139376538Y-105460935D01*
X139462186Y-105398709D01*
X139462188Y-105398706D01*
X139462192Y-105398704D01*
X139612504Y-105248392D01*
X139612506Y-105248388D01*
X139612509Y-105248386D01*
X139737448Y-105076420D01*
X139737447Y-105076420D01*
X139737451Y-105076416D01*
X139741914Y-105067654D01*
X139789888Y-105016859D01*
X139857708Y-105000063D01*
X139923844Y-105022599D01*
X139962886Y-105067656D01*
X139967351Y-105076420D01*
X140092290Y-105248386D01*
X140242613Y-105398709D01*
X140414579Y-105523648D01*
X140414581Y-105523649D01*
X140414584Y-105523651D01*
X140603988Y-105620157D01*
X140806157Y-105685846D01*
X141016113Y-105719100D01*
X141016114Y-105719100D01*
X141228686Y-105719100D01*
X141228687Y-105719100D01*
X141438643Y-105685846D01*
X141640812Y-105620157D01*
X141830216Y-105523651D01*
X141916538Y-105460935D01*
X142002186Y-105398709D01*
X142002188Y-105398706D01*
X142002192Y-105398704D01*
X142152504Y-105248392D01*
X142152506Y-105248388D01*
X142152509Y-105248386D01*
X142277448Y-105076420D01*
X142277447Y-105076420D01*
X142277451Y-105076416D01*
X142281914Y-105067654D01*
X142329888Y-105016859D01*
X142397708Y-105000063D01*
X142463844Y-105022599D01*
X142502886Y-105067656D01*
X142507351Y-105076420D01*
X142632290Y-105248386D01*
X142782613Y-105398709D01*
X142954579Y-105523648D01*
X142954581Y-105523649D01*
X142954584Y-105523651D01*
X143143988Y-105620157D01*
X143346157Y-105685846D01*
X143556113Y-105719100D01*
X143556114Y-105719100D01*
X143768686Y-105719100D01*
X143768687Y-105719100D01*
X143978643Y-105685846D01*
X144180812Y-105620157D01*
X144370216Y-105523651D01*
X144456538Y-105460935D01*
X144542186Y-105398709D01*
X144542188Y-105398706D01*
X144542192Y-105398704D01*
X144692504Y-105248392D01*
X144692506Y-105248388D01*
X144692509Y-105248386D01*
X144817448Y-105076420D01*
X144817447Y-105076420D01*
X144817451Y-105076416D01*
X144821914Y-105067654D01*
X144869888Y-105016859D01*
X144937708Y-105000063D01*
X145003844Y-105022599D01*
X145042886Y-105067656D01*
X145047351Y-105076420D01*
X145172290Y-105248386D01*
X145322613Y-105398709D01*
X145494579Y-105523648D01*
X145494581Y-105523649D01*
X145494584Y-105523651D01*
X145683988Y-105620157D01*
X145886157Y-105685846D01*
X146096113Y-105719100D01*
X146096114Y-105719100D01*
X146308686Y-105719100D01*
X146308687Y-105719100D01*
X146518643Y-105685846D01*
X146720812Y-105620157D01*
X146910216Y-105523651D01*
X146996538Y-105460935D01*
X147082186Y-105398709D01*
X147082188Y-105398706D01*
X147082192Y-105398704D01*
X147232504Y-105248392D01*
X147232506Y-105248388D01*
X147232509Y-105248386D01*
X147318290Y-105130317D01*
X147357451Y-105076416D01*
X147362193Y-105067108D01*
X147410163Y-105016311D01*
X147477983Y-104999511D01*
X147544119Y-105022045D01*
X147583163Y-105067100D01*
X147587773Y-105076147D01*
X147627128Y-105130316D01*
X148259437Y-104498008D01*
X148276475Y-104561593D01*
X148342301Y-104675607D01*
X148435393Y-104768699D01*
X148549407Y-104834525D01*
X148612990Y-104851562D01*
X147980682Y-105483869D01*
X147980682Y-105483870D01*
X148034849Y-105523224D01*
X148224182Y-105619695D01*
X148426270Y-105685357D01*
X148636154Y-105718600D01*
X148848646Y-105718600D01*
X149058527Y-105685357D01*
X149058530Y-105685357D01*
X149260617Y-105619695D01*
X149449954Y-105523222D01*
X149504116Y-105483870D01*
X149504117Y-105483870D01*
X148871808Y-104851562D01*
X148935393Y-104834525D01*
X149049407Y-104768699D01*
X149142499Y-104675607D01*
X149208325Y-104561593D01*
X149225362Y-104498008D01*
X149857670Y-105130317D01*
X149857670Y-105130316D01*
X149897022Y-105076154D01*
X149901914Y-105066554D01*
X149949888Y-105015757D01*
X150017708Y-104998961D01*
X150083844Y-105021497D01*
X150122886Y-105066554D01*
X150127775Y-105076150D01*
X150167128Y-105130316D01*
X150799437Y-104498008D01*
X150816475Y-104561593D01*
X150882301Y-104675607D01*
X150975393Y-104768699D01*
X151089407Y-104834525D01*
X151152990Y-104851562D01*
X150520682Y-105483869D01*
X150520682Y-105483870D01*
X150574849Y-105523224D01*
X150764182Y-105619695D01*
X150966270Y-105685357D01*
X151176154Y-105718600D01*
X151388646Y-105718600D01*
X151598527Y-105685357D01*
X151598530Y-105685357D01*
X151800617Y-105619695D01*
X151989954Y-105523222D01*
X152044116Y-105483870D01*
X152044117Y-105483870D01*
X151411808Y-104851562D01*
X151475393Y-104834525D01*
X151589407Y-104768699D01*
X151682499Y-104675607D01*
X151748325Y-104561593D01*
X151765362Y-104498008D01*
X152397670Y-105130317D01*
X152397670Y-105130316D01*
X152437022Y-105076154D01*
X152533495Y-104886817D01*
X152599157Y-104684730D01*
X152599157Y-104684727D01*
X152632400Y-104474846D01*
X152632400Y-104262353D01*
X152599157Y-104052472D01*
X152599157Y-104052469D01*
X152533495Y-103850382D01*
X152437024Y-103661049D01*
X152397670Y-103606882D01*
X152397669Y-103606882D01*
X151765362Y-104239190D01*
X151748325Y-104175607D01*
X151682499Y-104061593D01*
X151589407Y-103968501D01*
X151475393Y-103902675D01*
X151411809Y-103885637D01*
X152044116Y-103253328D01*
X151989950Y-103213975D01*
X151800617Y-103117504D01*
X151598529Y-103051842D01*
X151388646Y-103018600D01*
X151176154Y-103018600D01*
X150966272Y-103051842D01*
X150966269Y-103051842D01*
X150764182Y-103117504D01*
X150574839Y-103213980D01*
X150520682Y-103253327D01*
X150520682Y-103253328D01*
X151152991Y-103885637D01*
X151089407Y-103902675D01*
X150975393Y-103968501D01*
X150882301Y-104061593D01*
X150816475Y-104175607D01*
X150799437Y-104239191D01*
X150167128Y-103606882D01*
X150167127Y-103606882D01*
X150127780Y-103661040D01*
X150122883Y-103670651D01*
X150074906Y-103721445D01*
X150007084Y-103738238D01*
X149940950Y-103715698D01*
X149901916Y-103670648D01*
X149897026Y-103661052D01*
X149857670Y-103606882D01*
X149857669Y-103606882D01*
X149225362Y-104239190D01*
X149208325Y-104175607D01*
X149142499Y-104061593D01*
X149049407Y-103968501D01*
X148935393Y-103902675D01*
X148871808Y-103885637D01*
X149504116Y-103253328D01*
X149449950Y-103213975D01*
X149260617Y-103117504D01*
X149058529Y-103051842D01*
X148848646Y-103018600D01*
X148771708Y-103018600D01*
X148750462Y-103012361D01*
X148728374Y-103010782D01*
X148717590Y-103002709D01*
X148704669Y-102998915D01*
X148690169Y-102982181D01*
X148672441Y-102968910D01*
X148667733Y-102956289D01*
X148658914Y-102946111D01*
X148655762Y-102924193D01*
X148648024Y-102903446D01*
X148650886Y-102890285D01*
X148648970Y-102876953D01*
X148658169Y-102856809D01*
X148662876Y-102835173D01*
X148676144Y-102817447D01*
X148677995Y-102813397D01*
X148684027Y-102806919D01*
X148772327Y-102718619D01*
X148833650Y-102685134D01*
X148860008Y-102682300D01*
X158153671Y-102682300D01*
X158238215Y-102665482D01*
X158279344Y-102657301D01*
X158397727Y-102608265D01*
X158398640Y-102607654D01*
X158400519Y-102606400D01*
X158480589Y-102552899D01*
X158504269Y-102537077D01*
X158971935Y-102069411D01*
X159367794Y-101673553D01*
X162496100Y-101673553D01*
X162496100Y-101831246D01*
X162526861Y-101985889D01*
X162526864Y-101985901D01*
X162587202Y-102131572D01*
X162587209Y-102131585D01*
X162674810Y-102262688D01*
X162674813Y-102262692D01*
X162786307Y-102374186D01*
X162786311Y-102374189D01*
X162917414Y-102461790D01*
X162917427Y-102461797D01*
X163063098Y-102522135D01*
X163063103Y-102522137D01*
X163217753Y-102552899D01*
X163217756Y-102552900D01*
X163217758Y-102552900D01*
X163375444Y-102552900D01*
X163375445Y-102552899D01*
X163530097Y-102522137D01*
X163675779Y-102461794D01*
X163806889Y-102374189D01*
X163918389Y-102262689D01*
X164005994Y-102131579D01*
X164010123Y-102121612D01*
X164031745Y-102069411D01*
X164066337Y-101985897D01*
X164097100Y-101831242D01*
X164097100Y-101673558D01*
X164097100Y-101673555D01*
X164097099Y-101673553D01*
X164089832Y-101637019D01*
X164066337Y-101518903D01*
X164044485Y-101466148D01*
X164005997Y-101373228D01*
X164005996Y-101373227D01*
X164005994Y-101373221D01*
X163967996Y-101316353D01*
X163947120Y-101249676D01*
X163947100Y-101247464D01*
X163947100Y-94605608D01*
X163966785Y-94538569D01*
X163983419Y-94517927D01*
X164102223Y-94399123D01*
X164272055Y-94229290D01*
X164333376Y-94195807D01*
X164403067Y-94200791D01*
X164459001Y-94242662D01*
X164483418Y-94308127D01*
X164474295Y-94364425D01*
X164449099Y-94425256D01*
X164449098Y-94425259D01*
X164449098Y-94425260D01*
X164449097Y-94425261D01*
X164424100Y-94550928D01*
X164424100Y-94550931D01*
X164424100Y-100114669D01*
X164424100Y-100114671D01*
X164424099Y-100114671D01*
X164449097Y-100240338D01*
X164449099Y-100240344D01*
X164498135Y-100358727D01*
X164519766Y-100391100D01*
X164569326Y-100465273D01*
X164569327Y-100465274D01*
X165603784Y-101499730D01*
X165637269Y-101561053D01*
X165637720Y-101563220D01*
X165651061Y-101630289D01*
X165651064Y-101630301D01*
X165711402Y-101775972D01*
X165711409Y-101775985D01*
X165799010Y-101907088D01*
X165799013Y-101907092D01*
X165910507Y-102018586D01*
X165910511Y-102018589D01*
X166041614Y-102106190D01*
X166041627Y-102106197D01*
X166187298Y-102166535D01*
X166187303Y-102166537D01*
X166341953Y-102197299D01*
X166341956Y-102197300D01*
X166341958Y-102197300D01*
X166499644Y-102197300D01*
X166499645Y-102197299D01*
X166654297Y-102166537D01*
X166799979Y-102106194D01*
X166931089Y-102018589D01*
X167042589Y-101907089D01*
X167130194Y-101775979D01*
X167190537Y-101630297D01*
X167221300Y-101475642D01*
X167221300Y-101317958D01*
X167221300Y-101317955D01*
X167221299Y-101317953D01*
X167214760Y-101285079D01*
X167190537Y-101163303D01*
X167188359Y-101158045D01*
X167130197Y-101017627D01*
X167130190Y-101017614D01*
X167042589Y-100886511D01*
X167042586Y-100886507D01*
X166931092Y-100775013D01*
X166931088Y-100775010D01*
X166799985Y-100687409D01*
X166799972Y-100687402D01*
X166654301Y-100627064D01*
X166654289Y-100627061D01*
X166587220Y-100613720D01*
X166570463Y-100604955D01*
X166551984Y-100600935D01*
X166526945Y-100582190D01*
X166525309Y-100581335D01*
X166523730Y-100579784D01*
X166335063Y-100391117D01*
X233643237Y-100391117D01*
X233643237Y-100668084D01*
X233643238Y-100668101D01*
X233679389Y-100942700D01*
X233751077Y-101210243D01*
X233857072Y-101466137D01*
X233857077Y-101466148D01*
X233995563Y-101706012D01*
X234164177Y-101925755D01*
X234164183Y-101925762D01*
X234360027Y-102121606D01*
X234360034Y-102121612D01*
X234579777Y-102290226D01*
X234819641Y-102428712D01*
X234819646Y-102428714D01*
X234819649Y-102428716D01*
X235075545Y-102534712D01*
X235343088Y-102606400D01*
X235617699Y-102642553D01*
X235617706Y-102642553D01*
X235894672Y-102642553D01*
X235894679Y-102642553D01*
X236169290Y-102606400D01*
X236436833Y-102534712D01*
X236692729Y-102428716D01*
X236932601Y-102290226D01*
X237152345Y-102121611D01*
X237348199Y-101925757D01*
X237516814Y-101706013D01*
X237655304Y-101466141D01*
X237761300Y-101210245D01*
X237832988Y-100942702D01*
X237869141Y-100668091D01*
X237869141Y-100391111D01*
X237832988Y-100116500D01*
X237761300Y-99848957D01*
X237655304Y-99593061D01*
X237655302Y-99593058D01*
X237655300Y-99593053D01*
X237516814Y-99353189D01*
X237348200Y-99133446D01*
X237348194Y-99133439D01*
X237152350Y-98937595D01*
X237152343Y-98937589D01*
X236932600Y-98768975D01*
X236692736Y-98630489D01*
X236692725Y-98630484D01*
X236436831Y-98524489D01*
X236169288Y-98452801D01*
X235894689Y-98416650D01*
X235894684Y-98416649D01*
X235894679Y-98416649D01*
X235617699Y-98416649D01*
X235617693Y-98416649D01*
X235617688Y-98416650D01*
X235343089Y-98452801D01*
X235075546Y-98524489D01*
X234819652Y-98630484D01*
X234819641Y-98630489D01*
X234579777Y-98768975D01*
X234360034Y-98937589D01*
X234360027Y-98937595D01*
X234164183Y-99133439D01*
X234164177Y-99133446D01*
X233995563Y-99353189D01*
X233857077Y-99593053D01*
X233857072Y-99593064D01*
X233751077Y-99848958D01*
X233679389Y-100116501D01*
X233643238Y-100391100D01*
X233643237Y-100391117D01*
X166335063Y-100391117D01*
X165761419Y-99817473D01*
X165727934Y-99756150D01*
X165725100Y-99729792D01*
X165725100Y-98149986D01*
X168955601Y-98149986D01*
X168966094Y-98252697D01*
X169021241Y-98419119D01*
X169021243Y-98419124D01*
X169113284Y-98568345D01*
X169237254Y-98692315D01*
X169386475Y-98784356D01*
X169386480Y-98784358D01*
X169552902Y-98839505D01*
X169552909Y-98839506D01*
X169655619Y-98849999D01*
X170425599Y-98849999D01*
X170925600Y-98849999D01*
X171695572Y-98849999D01*
X171695586Y-98849998D01*
X171798297Y-98839505D01*
X171964719Y-98784358D01*
X171964724Y-98784356D01*
X172113945Y-98692315D01*
X172237915Y-98568345D01*
X172329956Y-98419124D01*
X172329958Y-98419119D01*
X172385105Y-98252697D01*
X172385106Y-98252690D01*
X172395599Y-98149986D01*
X172395600Y-98149973D01*
X172395600Y-98040000D01*
X170925600Y-98040000D01*
X170925600Y-98849999D01*
X170425599Y-98849999D01*
X170425600Y-98849998D01*
X170425600Y-98040000D01*
X168955601Y-98040000D01*
X168955601Y-98149986D01*
X165725100Y-98149986D01*
X165725100Y-97430013D01*
X168955600Y-97430013D01*
X168955600Y-97540000D01*
X170425600Y-97540000D01*
X170925600Y-97540000D01*
X172395599Y-97540000D01*
X172395599Y-97430024D01*
X172395598Y-97430016D01*
X172395595Y-97429983D01*
X177565100Y-97429983D01*
X177565100Y-98150001D01*
X177565101Y-98150019D01*
X177575600Y-98252796D01*
X177575601Y-98252799D01*
X177589011Y-98293266D01*
X177630786Y-98419334D01*
X177722888Y-98568656D01*
X177846944Y-98692712D01*
X177996266Y-98784814D01*
X178162803Y-98839999D01*
X178265591Y-98850500D01*
X180305608Y-98850499D01*
X180408397Y-98839999D01*
X180574934Y-98784814D01*
X180724256Y-98692712D01*
X180848312Y-98568656D01*
X180870801Y-98532194D01*
X180922748Y-98485470D01*
X180991711Y-98474247D01*
X181045234Y-98494191D01*
X181053016Y-98499391D01*
X181053027Y-98499397D01*
X181132210Y-98532195D01*
X181198703Y-98559737D01*
X181334717Y-98586792D01*
X181353353Y-98590499D01*
X181353356Y-98590500D01*
X181353358Y-98590500D01*
X181511044Y-98590500D01*
X181511045Y-98590499D01*
X181665697Y-98559737D01*
X181811379Y-98499394D01*
X181942489Y-98411789D01*
X182053989Y-98300289D01*
X182141594Y-98169179D01*
X182201937Y-98023497D01*
X182232700Y-97868842D01*
X182232700Y-97711158D01*
X182232700Y-97711155D01*
X182232699Y-97711153D01*
X182217124Y-97632853D01*
X182201937Y-97556503D01*
X182190288Y-97528380D01*
X182141597Y-97410827D01*
X182141590Y-97410814D01*
X182053989Y-97279711D01*
X182053986Y-97279707D01*
X181942492Y-97168213D01*
X181942488Y-97168210D01*
X181811385Y-97080609D01*
X181811372Y-97080602D01*
X181665701Y-97020264D01*
X181665689Y-97020261D01*
X181511045Y-96989500D01*
X181511042Y-96989500D01*
X181353358Y-96989500D01*
X181353355Y-96989500D01*
X181198710Y-97020261D01*
X181198698Y-97020264D01*
X181053027Y-97080602D01*
X181053013Y-97080610D01*
X181045228Y-97085812D01*
X180978550Y-97106688D01*
X180911171Y-97088202D01*
X180870802Y-97047805D01*
X180848314Y-97011347D01*
X180848311Y-97011343D01*
X180724257Y-96887289D01*
X180724256Y-96887288D01*
X180656304Y-96845375D01*
X180656303Y-96845374D01*
X180574940Y-96795189D01*
X180574935Y-96795187D01*
X180574934Y-96795186D01*
X180408397Y-96740001D01*
X180408395Y-96740000D01*
X180305610Y-96729500D01*
X178265598Y-96729500D01*
X178265581Y-96729501D01*
X178162803Y-96740000D01*
X178162800Y-96740001D01*
X177996268Y-96795185D01*
X177996263Y-96795187D01*
X177846942Y-96887289D01*
X177722889Y-97011342D01*
X177630787Y-97160663D01*
X177630785Y-97160668D01*
X177628286Y-97168210D01*
X177575601Y-97327203D01*
X177575601Y-97327204D01*
X177575600Y-97327204D01*
X177565100Y-97429983D01*
X172395595Y-97429983D01*
X172385105Y-97327302D01*
X172329958Y-97160880D01*
X172329956Y-97160875D01*
X172237915Y-97011654D01*
X172113945Y-96887684D01*
X171964724Y-96795643D01*
X171964719Y-96795641D01*
X171798297Y-96740494D01*
X171798290Y-96740493D01*
X171695586Y-96730000D01*
X170925600Y-96730000D01*
X170925600Y-97540000D01*
X170425600Y-97540000D01*
X170425600Y-96730000D01*
X169655628Y-96730000D01*
X169655612Y-96730001D01*
X169552902Y-96740494D01*
X169386480Y-96795641D01*
X169386475Y-96795643D01*
X169237254Y-96887684D01*
X169113284Y-97011654D01*
X169021243Y-97160875D01*
X169021241Y-97160880D01*
X168966094Y-97327302D01*
X168966093Y-97327309D01*
X168955600Y-97430013D01*
X165725100Y-97430013D01*
X165725100Y-96671104D01*
X165744785Y-96604065D01*
X165797589Y-96558310D01*
X165866747Y-96548366D01*
X165930303Y-96577391D01*
X165952202Y-96602213D01*
X165975335Y-96636834D01*
X165975338Y-96636838D01*
X166100761Y-96762261D01*
X166100765Y-96762264D01*
X166248246Y-96860809D01*
X166248259Y-96860816D01*
X166342092Y-96899682D01*
X166412134Y-96928694D01*
X166412136Y-96928694D01*
X166412141Y-96928696D01*
X166586104Y-96963299D01*
X166586107Y-96963300D01*
X166586109Y-96963300D01*
X166763493Y-96963300D01*
X166763494Y-96963299D01*
X166833682Y-96949338D01*
X166937458Y-96928696D01*
X166937461Y-96928694D01*
X166937466Y-96928694D01*
X167101347Y-96860813D01*
X167248835Y-96762264D01*
X167374264Y-96636835D01*
X167472813Y-96489347D01*
X167528768Y-96354254D01*
X167555644Y-96314032D01*
X168685838Y-95183840D01*
X168747161Y-95150355D01*
X168773519Y-95147521D01*
X199441092Y-95147521D01*
X199508131Y-95167206D01*
X199546636Y-95211292D01*
X199548395Y-95210208D01*
X199552185Y-95216352D01*
X199552186Y-95216355D01*
X199644288Y-95365677D01*
X199768344Y-95489733D01*
X199917666Y-95581835D01*
X199979440Y-95602305D01*
X200036884Y-95642076D01*
X200063707Y-95706592D01*
X200064053Y-95729740D01*
X200061077Y-95767545D01*
X200740554Y-96447021D01*
X200734339Y-96447021D01*
X200632606Y-96474280D01*
X200541394Y-96526941D01*
X200466920Y-96601415D01*
X200414259Y-96692627D01*
X200387000Y-96794360D01*
X200387000Y-96800574D01*
X199707524Y-96121098D01*
X199707523Y-96121098D01*
X199675143Y-96165665D01*
X199582244Y-96347989D01*
X199519009Y-96542603D01*
X199487000Y-96744703D01*
X199487000Y-96949338D01*
X199519009Y-97151438D01*
X199582244Y-97346052D01*
X199675141Y-97528371D01*
X199675147Y-97528380D01*
X199707523Y-97572942D01*
X199707524Y-97572943D01*
X200387000Y-96893467D01*
X200387000Y-96899682D01*
X200414259Y-97001415D01*
X200466920Y-97092627D01*
X200541394Y-97167101D01*
X200632606Y-97219762D01*
X200734339Y-97247021D01*
X200740553Y-97247021D01*
X200061076Y-97926495D01*
X200105650Y-97958880D01*
X200287968Y-98051776D01*
X200482582Y-98115011D01*
X200684683Y-98147021D01*
X200889317Y-98147021D01*
X201091417Y-98115011D01*
X201286031Y-98051776D01*
X201468349Y-97958880D01*
X201512921Y-97926495D01*
X200833447Y-97247021D01*
X200839661Y-97247021D01*
X200941394Y-97219762D01*
X201032606Y-97167101D01*
X201107080Y-97092627D01*
X201159741Y-97001415D01*
X201187000Y-96899682D01*
X201187000Y-96893468D01*
X201866474Y-97572942D01*
X201898859Y-97528370D01*
X201991755Y-97346052D01*
X202054990Y-97151438D01*
X202087000Y-96949338D01*
X202087000Y-96744703D01*
X202054990Y-96542603D01*
X201991755Y-96347989D01*
X201898859Y-96165671D01*
X201866474Y-96121098D01*
X201866474Y-96121097D01*
X201187000Y-96800572D01*
X201187000Y-96794360D01*
X201159741Y-96692627D01*
X201107080Y-96601415D01*
X201032606Y-96526941D01*
X200941394Y-96474280D01*
X200839661Y-96447021D01*
X200833446Y-96447021D01*
X201512921Y-95767546D01*
X201509946Y-95729740D01*
X201524310Y-95661362D01*
X201573361Y-95611605D01*
X201594555Y-95602306D01*
X201656334Y-95581835D01*
X201805656Y-95489733D01*
X201929712Y-95365677D01*
X202021814Y-95216355D01*
X202076999Y-95049818D01*
X202087500Y-94947030D01*
X202087499Y-93747013D01*
X202086823Y-93740400D01*
X202076999Y-93644224D01*
X202076998Y-93644221D01*
X202074812Y-93637623D01*
X202021814Y-93477687D01*
X201929712Y-93328365D01*
X201805656Y-93204309D01*
X201656334Y-93112207D01*
X201489797Y-93057022D01*
X201489795Y-93057021D01*
X201387010Y-93046521D01*
X200186998Y-93046521D01*
X200186981Y-93046522D01*
X200084203Y-93057021D01*
X200084200Y-93057022D01*
X199917668Y-93112206D01*
X199917663Y-93112208D01*
X199768342Y-93204310D01*
X199644289Y-93328363D01*
X199629833Y-93351800D01*
X199554441Y-93474032D01*
X199548395Y-93483834D01*
X199546600Y-93482727D01*
X199507313Y-93527358D01*
X199441092Y-93546521D01*
X183334730Y-93546521D01*
X183267691Y-93526836D01*
X183221936Y-93474032D01*
X183211992Y-93404874D01*
X183241017Y-93341318D01*
X183287278Y-93307960D01*
X183386172Y-93266997D01*
X183386172Y-93266996D01*
X183386179Y-93266994D01*
X183517289Y-93179389D01*
X183628789Y-93067889D01*
X183716394Y-92936779D01*
X183776737Y-92791097D01*
X183807500Y-92636442D01*
X183807500Y-92478758D01*
X183807500Y-92478755D01*
X183807499Y-92478753D01*
X183792506Y-92403379D01*
X183776737Y-92324103D01*
X183749228Y-92257689D01*
X183716397Y-92178427D01*
X183716390Y-92178414D01*
X183628789Y-92047311D01*
X183628786Y-92047307D01*
X183517292Y-91935813D01*
X183517288Y-91935810D01*
X183386185Y-91848209D01*
X183386172Y-91848202D01*
X183240501Y-91787864D01*
X183240489Y-91787861D01*
X183085845Y-91757100D01*
X183085842Y-91757100D01*
X182928158Y-91757100D01*
X182928155Y-91757100D01*
X182773510Y-91787861D01*
X182773498Y-91787864D01*
X182627827Y-91848202D01*
X182627814Y-91848209D01*
X182608969Y-91860802D01*
X182542292Y-91881680D01*
X182540078Y-91881700D01*
X178567437Y-91881700D01*
X178500398Y-91862015D01*
X178454643Y-91809211D01*
X178444699Y-91740053D01*
X178445819Y-91733510D01*
X178448100Y-91722041D01*
X178448100Y-91564355D01*
X178448099Y-91564353D01*
X178439130Y-91519264D01*
X178417337Y-91409703D01*
X178398039Y-91363113D01*
X178356997Y-91264027D01*
X178356990Y-91264014D01*
X178269389Y-91132911D01*
X178269386Y-91132907D01*
X178157892Y-91021413D01*
X178157888Y-91021410D01*
X178026785Y-90933809D01*
X178026772Y-90933802D01*
X177881101Y-90873464D01*
X177881089Y-90873461D01*
X177726445Y-90842700D01*
X177726442Y-90842700D01*
X177568758Y-90842700D01*
X177568755Y-90842700D01*
X177414110Y-90873461D01*
X177414098Y-90873464D01*
X177268427Y-90933802D01*
X177268414Y-90933809D01*
X177249569Y-90946402D01*
X177182892Y-90967280D01*
X177180678Y-90967300D01*
X165899529Y-90967300D01*
X165773861Y-90992297D01*
X165773851Y-90992300D01*
X165724820Y-91012610D01*
X165655481Y-91041330D01*
X165655463Y-91041340D01*
X165548932Y-91112521D01*
X165548925Y-91112527D01*
X162791324Y-93870128D01*
X162737394Y-93950842D01*
X162720135Y-93976671D01*
X162671099Y-94095055D01*
X162671097Y-94095061D01*
X162646100Y-94220728D01*
X162646100Y-101247464D01*
X162626415Y-101314503D01*
X162625203Y-101316354D01*
X162587208Y-101373217D01*
X162587202Y-101373228D01*
X162526864Y-101518898D01*
X162526861Y-101518910D01*
X162496100Y-101673553D01*
X159367794Y-101673553D01*
X159461562Y-101579785D01*
X161439672Y-99601674D01*
X161439673Y-99601673D01*
X161439677Y-99601669D01*
X161510865Y-99495127D01*
X161510867Y-99495123D01*
X161523885Y-99463695D01*
X161523885Y-99463694D01*
X161559901Y-99376744D01*
X161577717Y-99287181D01*
X161584900Y-99251071D01*
X161584900Y-87696408D01*
X161604585Y-87629369D01*
X161657389Y-87583614D01*
X161726547Y-87573670D01*
X161790103Y-87602695D01*
X161796581Y-87608727D01*
X164583725Y-90395872D01*
X164583726Y-90395873D01*
X164583729Y-90395875D01*
X164583731Y-90395877D01*
X164690273Y-90467065D01*
X164808656Y-90516101D01*
X164808660Y-90516101D01*
X164808661Y-90516102D01*
X164934328Y-90541100D01*
X164934331Y-90541100D01*
X180124671Y-90541100D01*
X180227425Y-90520660D01*
X180250344Y-90516101D01*
X180368727Y-90467065D01*
X180475269Y-90395877D01*
X183436816Y-87434329D01*
X183498137Y-87400846D01*
X183567829Y-87405830D01*
X183623762Y-87447702D01*
X183648179Y-87513166D01*
X183634980Y-87578306D01*
X183533434Y-87777600D01*
X183460446Y-88002231D01*
X183423500Y-88235502D01*
X183423500Y-88471697D01*
X183460446Y-88704968D01*
X183533433Y-88929596D01*
X183614640Y-89088972D01*
X183640657Y-89140033D01*
X183779483Y-89331110D01*
X183946490Y-89498117D01*
X184137567Y-89636943D01*
X184189376Y-89663341D01*
X184348003Y-89744166D01*
X184348005Y-89744166D01*
X184348008Y-89744168D01*
X184468412Y-89783289D01*
X184572631Y-89817153D01*
X184805903Y-89854100D01*
X184805908Y-89854100D01*
X185342097Y-89854100D01*
X185575368Y-89817153D01*
X185594120Y-89811060D01*
X185799992Y-89744168D01*
X186010433Y-89636943D01*
X186201510Y-89498117D01*
X186368517Y-89331110D01*
X186499119Y-89151353D01*
X187108700Y-89151353D01*
X187108700Y-89309046D01*
X187139461Y-89463689D01*
X187139464Y-89463701D01*
X187199802Y-89609372D01*
X187199809Y-89609385D01*
X187287410Y-89740488D01*
X187287413Y-89740492D01*
X187398907Y-89851986D01*
X187398911Y-89851989D01*
X187530014Y-89939590D01*
X187530027Y-89939597D01*
X187641812Y-89985899D01*
X187675703Y-89999937D01*
X187803387Y-90025335D01*
X187830353Y-90030699D01*
X187830356Y-90030700D01*
X187830358Y-90030700D01*
X187988044Y-90030700D01*
X187988045Y-90030699D01*
X188142697Y-89999937D01*
X188288379Y-89939594D01*
X188419489Y-89851989D01*
X188530989Y-89740489D01*
X188618594Y-89609379D01*
X188621651Y-89602000D01*
X188675391Y-89472257D01*
X188678937Y-89463697D01*
X188709700Y-89309042D01*
X188709700Y-89176753D01*
X203644100Y-89176753D01*
X203644100Y-89334446D01*
X203674861Y-89489089D01*
X203674864Y-89489101D01*
X203735202Y-89634772D01*
X203735209Y-89634785D01*
X203822810Y-89765888D01*
X203822813Y-89765892D01*
X203934307Y-89877386D01*
X203934311Y-89877389D01*
X204065414Y-89964990D01*
X204065427Y-89964997D01*
X204211098Y-90025335D01*
X204211103Y-90025337D01*
X204343764Y-90051725D01*
X204365753Y-90056099D01*
X204365756Y-90056100D01*
X204365758Y-90056100D01*
X204523444Y-90056100D01*
X204523445Y-90056099D01*
X204678097Y-90025337D01*
X204823779Y-89964994D01*
X204954889Y-89877389D01*
X205066389Y-89765889D01*
X205153994Y-89634779D01*
X205214337Y-89489097D01*
X205245100Y-89334442D01*
X205245100Y-89176758D01*
X205245100Y-89176755D01*
X205245099Y-89176753D01*
X205241050Y-89156396D01*
X205214337Y-89022103D01*
X205176018Y-88929592D01*
X205153997Y-88876427D01*
X205153990Y-88876414D01*
X205066389Y-88745311D01*
X205066386Y-88745307D01*
X204954892Y-88633813D01*
X204954888Y-88633810D01*
X204823785Y-88546209D01*
X204823772Y-88546202D01*
X204678101Y-88485864D01*
X204678089Y-88485861D01*
X204523445Y-88455100D01*
X204523442Y-88455100D01*
X204365758Y-88455100D01*
X204365755Y-88455100D01*
X204211110Y-88485861D01*
X204211098Y-88485864D01*
X204065427Y-88546202D01*
X204065414Y-88546209D01*
X203934311Y-88633810D01*
X203934307Y-88633813D01*
X203822813Y-88745307D01*
X203822810Y-88745311D01*
X203735209Y-88876414D01*
X203735202Y-88876427D01*
X203674864Y-89022098D01*
X203674861Y-89022110D01*
X203644100Y-89176753D01*
X188709700Y-89176753D01*
X188709700Y-89151358D01*
X188709700Y-89151355D01*
X188709699Y-89151353D01*
X188678938Y-88996706D01*
X188678935Y-88996698D01*
X188618597Y-88851027D01*
X188618590Y-88851014D01*
X188530989Y-88719911D01*
X188530986Y-88719907D01*
X188419492Y-88608413D01*
X188419488Y-88608410D01*
X188288385Y-88520809D01*
X188288372Y-88520802D01*
X188142701Y-88460464D01*
X188142689Y-88460461D01*
X187988045Y-88429700D01*
X187988042Y-88429700D01*
X187830358Y-88429700D01*
X187830355Y-88429700D01*
X187675710Y-88460461D01*
X187675698Y-88460464D01*
X187530027Y-88520802D01*
X187530014Y-88520809D01*
X187398911Y-88608410D01*
X187398907Y-88608413D01*
X187287413Y-88719907D01*
X187287410Y-88719911D01*
X187199809Y-88851014D01*
X187199802Y-88851027D01*
X187139464Y-88996698D01*
X187139462Y-88996706D01*
X187108700Y-89151353D01*
X186499119Y-89151353D01*
X186507343Y-89140033D01*
X186614568Y-88929592D01*
X186687553Y-88704968D01*
X186702846Y-88608410D01*
X186724500Y-88471697D01*
X186724500Y-88235502D01*
X186687553Y-88002231D01*
X186651212Y-87890387D01*
X186614568Y-87777608D01*
X186614566Y-87777605D01*
X186614566Y-87777603D01*
X186548223Y-87647398D01*
X186507343Y-87567167D01*
X186368517Y-87376090D01*
X186201510Y-87209083D01*
X186010433Y-87070257D01*
X185973030Y-87051199D01*
X185799996Y-86963033D01*
X185575368Y-86890046D01*
X185342097Y-86853100D01*
X185342092Y-86853100D01*
X184805908Y-86853100D01*
X184805903Y-86853100D01*
X184572631Y-86890046D01*
X184348000Y-86963034D01*
X184148706Y-87064580D01*
X184080037Y-87077476D01*
X184015297Y-87051199D01*
X183975040Y-86994093D01*
X183972048Y-86924287D01*
X184004729Y-86866416D01*
X184398327Y-86472819D01*
X184459650Y-86439334D01*
X184486008Y-86436500D01*
X188943284Y-86436500D01*
X189006405Y-86453768D01*
X189038619Y-86472819D01*
X189148402Y-86537744D01*
X189189702Y-86549743D01*
X189306226Y-86583597D01*
X189306229Y-86583597D01*
X189306231Y-86583598D01*
X189343106Y-86586500D01*
X189343114Y-86586500D01*
X190499486Y-86586500D01*
X190499494Y-86586500D01*
X190536369Y-86583598D01*
X190536371Y-86583597D01*
X190536373Y-86583597D01*
X190577991Y-86571505D01*
X190694198Y-86537744D01*
X190835665Y-86454081D01*
X190951881Y-86337865D01*
X190952067Y-86337549D01*
X190952277Y-86337353D01*
X190956661Y-86331702D01*
X190957572Y-86332409D01*
X191003136Y-86289866D01*
X191071877Y-86277362D01*
X191136467Y-86304006D01*
X191160655Y-86331921D01*
X191160939Y-86331702D01*
X191164979Y-86336911D01*
X191165532Y-86337548D01*
X191165719Y-86337865D01*
X191165721Y-86337867D01*
X191165723Y-86337870D01*
X191281929Y-86454076D01*
X191281933Y-86454079D01*
X191281935Y-86454081D01*
X191423402Y-86537744D01*
X191464702Y-86549743D01*
X191581226Y-86583597D01*
X191581229Y-86583597D01*
X191581231Y-86583598D01*
X191618106Y-86586500D01*
X191618114Y-86586500D01*
X192774486Y-86586500D01*
X192774494Y-86586500D01*
X192811369Y-86583598D01*
X192811371Y-86583597D01*
X192811373Y-86583597D01*
X192852991Y-86571505D01*
X192969198Y-86537744D01*
X193078981Y-86472819D01*
X193111195Y-86453768D01*
X193174316Y-86436500D01*
X225419192Y-86436500D01*
X225486231Y-86456185D01*
X225506873Y-86472819D01*
X225673315Y-86639261D01*
X225706800Y-86700584D01*
X225701816Y-86770276D01*
X225659944Y-86826209D01*
X225594480Y-86850626D01*
X225526207Y-86835774D01*
X225520538Y-86832481D01*
X225498340Y-86818790D01*
X225498334Y-86818786D01*
X225331797Y-86763601D01*
X225331795Y-86763600D01*
X225229010Y-86753100D01*
X223328998Y-86753100D01*
X223328981Y-86753101D01*
X223226203Y-86763600D01*
X223226200Y-86763601D01*
X223059668Y-86818785D01*
X223059663Y-86818787D01*
X222910342Y-86910889D01*
X222786289Y-87034942D01*
X222694187Y-87184263D01*
X222694185Y-87184268D01*
X222668093Y-87263009D01*
X222639001Y-87350803D01*
X222639001Y-87350804D01*
X222639000Y-87350804D01*
X222628500Y-87453583D01*
X222628500Y-89053601D01*
X222628501Y-89053618D01*
X222639000Y-89156396D01*
X222639001Y-89156399D01*
X222694185Y-89322931D01*
X222694187Y-89322936D01*
X222705369Y-89341065D01*
X222786288Y-89472256D01*
X222910344Y-89596312D01*
X223059666Y-89688414D01*
X223226203Y-89743599D01*
X223328991Y-89754100D01*
X223354498Y-89754099D01*
X223421536Y-89773781D01*
X223467293Y-89826584D01*
X223478500Y-89878099D01*
X223478500Y-90982446D01*
X223509261Y-91137089D01*
X223509264Y-91137101D01*
X223569602Y-91282772D01*
X223569609Y-91282785D01*
X223657210Y-91413888D01*
X223657213Y-91413892D01*
X228343707Y-96100386D01*
X228343711Y-96100389D01*
X228474814Y-96187990D01*
X228474827Y-96187997D01*
X228564659Y-96225206D01*
X228620503Y-96248337D01*
X228775153Y-96279099D01*
X228775156Y-96279100D01*
X228775158Y-96279100D01*
X228932842Y-96279100D01*
X229373712Y-96279100D01*
X229440751Y-96298785D01*
X229479256Y-96342871D01*
X229481015Y-96341787D01*
X229484805Y-96347932D01*
X229484806Y-96347934D01*
X229576908Y-96497256D01*
X229700964Y-96621312D01*
X229850286Y-96713414D01*
X230016823Y-96768599D01*
X230119611Y-96779100D01*
X231319628Y-96779099D01*
X231422417Y-96768599D01*
X231588954Y-96713414D01*
X231738276Y-96621312D01*
X231862332Y-96497256D01*
X231954434Y-96347934D01*
X231977722Y-96277654D01*
X231981730Y-96269650D01*
X231999680Y-96250372D01*
X232014675Y-96228716D01*
X232023115Y-96225206D01*
X232029345Y-96218517D01*
X232054869Y-96212004D01*
X232079191Y-96201892D01*
X232095454Y-96201648D01*
X232097045Y-96201243D01*
X232098143Y-96201608D01*
X232102339Y-96201546D01*
X232140145Y-96204521D01*
X232819620Y-95525046D01*
X232819620Y-95531261D01*
X232846879Y-95632994D01*
X232899540Y-95724206D01*
X232974014Y-95798680D01*
X233065226Y-95851341D01*
X233166959Y-95878600D01*
X233173173Y-95878600D01*
X232493696Y-96558074D01*
X232538270Y-96590459D01*
X232720588Y-96683355D01*
X232915202Y-96746590D01*
X233117303Y-96778600D01*
X233321937Y-96778600D01*
X233524037Y-96746590D01*
X233718651Y-96683355D01*
X233900969Y-96590459D01*
X233945541Y-96558074D01*
X233266067Y-95878600D01*
X233272281Y-95878600D01*
X233374014Y-95851341D01*
X233465226Y-95798680D01*
X233539700Y-95724206D01*
X233592361Y-95632994D01*
X233619620Y-95531261D01*
X233619620Y-95525047D01*
X234299094Y-96204521D01*
X234331479Y-96159949D01*
X234424375Y-95977631D01*
X234487610Y-95783017D01*
X234519620Y-95580917D01*
X234519620Y-95376282D01*
X234487610Y-95174182D01*
X234424375Y-94979568D01*
X234331479Y-94797250D01*
X234299094Y-94752677D01*
X234299094Y-94752676D01*
X233619620Y-95432151D01*
X233619620Y-95425939D01*
X233592361Y-95324206D01*
X233539700Y-95232994D01*
X233465226Y-95158520D01*
X233374014Y-95105859D01*
X233272281Y-95078600D01*
X233266066Y-95078600D01*
X233945542Y-94399124D01*
X233945541Y-94399123D01*
X233900979Y-94366747D01*
X233900970Y-94366741D01*
X233718651Y-94273844D01*
X233524037Y-94210609D01*
X233321937Y-94178600D01*
X233117303Y-94178600D01*
X232915202Y-94210609D01*
X232720588Y-94273844D01*
X232538264Y-94366743D01*
X232493697Y-94399123D01*
X232493697Y-94399124D01*
X233173174Y-95078600D01*
X233166959Y-95078600D01*
X233065226Y-95105859D01*
X232974014Y-95158520D01*
X232899540Y-95232994D01*
X232846879Y-95324206D01*
X232819620Y-95425939D01*
X232819620Y-95432153D01*
X232140144Y-94752677D01*
X232102339Y-94755653D01*
X232033961Y-94741289D01*
X231984204Y-94692238D01*
X231981730Y-94687549D01*
X231977721Y-94679542D01*
X231954434Y-94609266D01*
X231862332Y-94459944D01*
X231738276Y-94335888D01*
X231588954Y-94243786D01*
X231422417Y-94188601D01*
X231422415Y-94188600D01*
X231319630Y-94178100D01*
X230119618Y-94178100D01*
X230119601Y-94178101D01*
X230016823Y-94188600D01*
X230016820Y-94188601D01*
X229850288Y-94243785D01*
X229850283Y-94243787D01*
X229700962Y-94335889D01*
X229576909Y-94459942D01*
X229576908Y-94459944D01*
X229487063Y-94605608D01*
X229481015Y-94615413D01*
X229479220Y-94614306D01*
X229474634Y-94619516D01*
X229467425Y-94635303D01*
X229452026Y-94645198D01*
X229439933Y-94658937D01*
X229423045Y-94663824D01*
X229408647Y-94673077D01*
X229373712Y-94678100D01*
X229236940Y-94678100D01*
X229169901Y-94658415D01*
X229149259Y-94641781D01*
X225115819Y-90608341D01*
X225082334Y-90547018D01*
X225079500Y-90520660D01*
X225079500Y-89878099D01*
X225099185Y-89811060D01*
X225151989Y-89765305D01*
X225203500Y-89754099D01*
X225229002Y-89754099D01*
X225229008Y-89754099D01*
X225331797Y-89743599D01*
X225498334Y-89688414D01*
X225647656Y-89596312D01*
X225771712Y-89472256D01*
X225863814Y-89322934D01*
X225918999Y-89156397D01*
X225929500Y-89053609D01*
X225929499Y-87453592D01*
X225927531Y-87434331D01*
X225918999Y-87350803D01*
X225918998Y-87350800D01*
X225878637Y-87228999D01*
X225863814Y-87184266D01*
X225850118Y-87162061D01*
X225831678Y-87094672D01*
X225852600Y-87028008D01*
X225906241Y-86983238D01*
X225975571Y-86974576D01*
X226038579Y-87004771D01*
X226043338Y-87009285D01*
X226610527Y-87576474D01*
X226610530Y-87576476D01*
X226672655Y-87617986D01*
X226717073Y-87647665D01*
X226835456Y-87696701D01*
X226835460Y-87696701D01*
X226835461Y-87696702D01*
X226961128Y-87721700D01*
X226961131Y-87721700D01*
X227799331Y-87721700D01*
X228751481Y-87721700D01*
X228818520Y-87741385D01*
X228851799Y-87772815D01*
X228962792Y-87925586D01*
X229113115Y-88075909D01*
X229285081Y-88200848D01*
X229285083Y-88200849D01*
X229285086Y-88200851D01*
X229294395Y-88205594D01*
X229345192Y-88253566D01*
X229361989Y-88321387D01*
X229339454Y-88387522D01*
X229294407Y-88426560D01*
X229285348Y-88431176D01*
X229285342Y-88431180D01*
X229231184Y-88470527D01*
X229231184Y-88470528D01*
X229863493Y-89102837D01*
X229799909Y-89119875D01*
X229685895Y-89185701D01*
X229592803Y-89278793D01*
X229526977Y-89392807D01*
X229509939Y-89456391D01*
X228877630Y-88824082D01*
X228877629Y-88824082D01*
X228838282Y-88878239D01*
X228741806Y-89067582D01*
X228676144Y-89269669D01*
X228676144Y-89269672D01*
X228642902Y-89479553D01*
X228642902Y-89692046D01*
X228676144Y-89901927D01*
X228676144Y-89901930D01*
X228741806Y-90104017D01*
X228838277Y-90293350D01*
X228877630Y-90347516D01*
X229509939Y-89715208D01*
X229526977Y-89778793D01*
X229592803Y-89892807D01*
X229685895Y-89985899D01*
X229799909Y-90051725D01*
X229863492Y-90068762D01*
X229231184Y-90701069D01*
X229231184Y-90701070D01*
X229285351Y-90740424D01*
X229474684Y-90836895D01*
X229676772Y-90902557D01*
X229886656Y-90935800D01*
X230099148Y-90935800D01*
X230309029Y-90902557D01*
X230309032Y-90902557D01*
X230511119Y-90836895D01*
X230700456Y-90740422D01*
X230754618Y-90701070D01*
X230754619Y-90701070D01*
X230122310Y-90068762D01*
X230185895Y-90051725D01*
X230299909Y-89985899D01*
X230393001Y-89892807D01*
X230458827Y-89778793D01*
X230475864Y-89715209D01*
X231108172Y-90347517D01*
X231108172Y-90347516D01*
X231147524Y-90293354D01*
X231243997Y-90104017D01*
X231309659Y-89901930D01*
X231309659Y-89901927D01*
X231342902Y-89692046D01*
X231342902Y-89479553D01*
X231309659Y-89269672D01*
X231309659Y-89269669D01*
X231243997Y-89067582D01*
X231147526Y-88878249D01*
X231108172Y-88824082D01*
X231108171Y-88824082D01*
X230475864Y-89456390D01*
X230458827Y-89392807D01*
X230393001Y-89278793D01*
X230299909Y-89185701D01*
X230185895Y-89119875D01*
X230122311Y-89102837D01*
X230699751Y-88525395D01*
X230683976Y-88422553D01*
X230680108Y-88420038D01*
X230661448Y-88398271D01*
X230640608Y-88378588D01*
X230638997Y-88372082D01*
X230634634Y-88366993D01*
X230630703Y-88338590D01*
X230623814Y-88310766D01*
X230625975Y-88304422D01*
X230625057Y-88297782D01*
X230637105Y-88271765D01*
X230646353Y-88244632D01*
X230651895Y-88239829D01*
X230654419Y-88234381D01*
X230668527Y-88225419D01*
X230691410Y-88205593D01*
X230700718Y-88200851D01*
X230836776Y-88102000D01*
X230872688Y-88075909D01*
X230872690Y-88075906D01*
X230872694Y-88075904D01*
X231023006Y-87925592D01*
X231147953Y-87753616D01*
X231149281Y-87751008D01*
X231150048Y-87750195D01*
X231150501Y-87749458D01*
X231150655Y-87749552D01*
X231197250Y-87700211D01*
X231212316Y-87692736D01*
X231243242Y-87679926D01*
X231321127Y-87647665D01*
X231427669Y-87576477D01*
X232465326Y-86538818D01*
X232526649Y-86505334D01*
X232553007Y-86502500D01*
X233551101Y-86502500D01*
X233618140Y-86522185D01*
X233663895Y-86574989D01*
X233673389Y-86605968D01*
X233675101Y-86616164D01*
X233675101Y-86641360D01*
X233690556Y-86758762D01*
X233704828Y-86793219D01*
X233707163Y-86807122D01*
X233704615Y-86828382D01*
X233706904Y-86849673D01*
X233699438Y-86875103D01*
X233691043Y-86895370D01*
X233683587Y-86952000D01*
X233726100Y-86952000D01*
X233793139Y-86971685D01*
X233807361Y-86982338D01*
X233816839Y-86990561D01*
X233847318Y-87030282D01*
X233972759Y-87126536D01*
X233974301Y-87127175D01*
X233982558Y-87134338D01*
X233999492Y-87160724D01*
X234017986Y-87186052D01*
X234018215Y-87189896D01*
X234020296Y-87193139D01*
X234020276Y-87224496D01*
X234022141Y-87255798D01*
X234020254Y-87259157D01*
X234020252Y-87263009D01*
X234003289Y-87289367D01*
X233987929Y-87316719D01*
X233984524Y-87318525D01*
X233982441Y-87321763D01*
X233953913Y-87334770D01*
X233926211Y-87349471D01*
X233920370Y-87350063D01*
X233918868Y-87350749D01*
X233916702Y-87350436D01*
X233901297Y-87352000D01*
X233683590Y-87352000D01*
X233683588Y-87352001D01*
X233691042Y-87408627D01*
X233691044Y-87408633D01*
X233751499Y-87554585D01*
X233847675Y-87679924D01*
X233973013Y-87776100D01*
X234118963Y-87836553D01*
X234119467Y-87836620D01*
X234119863Y-87836795D01*
X234126819Y-87838659D01*
X234126528Y-87839743D01*
X234183366Y-87864882D01*
X234221842Y-87923203D01*
X234224910Y-87983751D01*
X234201389Y-88101999D01*
X234201390Y-88102000D01*
X234919363Y-88102000D01*
X234900600Y-88147299D01*
X234900600Y-88556701D01*
X234919363Y-88602000D01*
X234201389Y-88602000D01*
X234238066Y-88786389D01*
X234238068Y-88786397D01*
X234311564Y-88963833D01*
X234311569Y-88963842D01*
X234418267Y-89123526D01*
X234418270Y-89123530D01*
X234554069Y-89259329D01*
X234554073Y-89259332D01*
X234713757Y-89366030D01*
X234713767Y-89366035D01*
X234891199Y-89439530D01*
X234891206Y-89439533D01*
X234925600Y-89446373D01*
X234925600Y-88617056D01*
X234942466Y-88657775D01*
X235019825Y-88735134D01*
X235120899Y-88777000D01*
X235230301Y-88777000D01*
X235331375Y-88735134D01*
X235408734Y-88657775D01*
X235425600Y-88617056D01*
X235425600Y-89446373D01*
X235459993Y-89439532D01*
X235460000Y-89439530D01*
X235637432Y-89366035D01*
X235637442Y-89366030D01*
X235797126Y-89259332D01*
X235797130Y-89259329D01*
X235932929Y-89123530D01*
X235932932Y-89123526D01*
X236039630Y-88963842D01*
X236039635Y-88963833D01*
X236113131Y-88786397D01*
X236113133Y-88786389D01*
X236149810Y-88602000D01*
X235431837Y-88602000D01*
X235450600Y-88556701D01*
X235450600Y-88352013D01*
X236600600Y-88352013D01*
X236600600Y-88627000D01*
X237625600Y-88627000D01*
X237625600Y-87102000D01*
X236600601Y-87102000D01*
X236600601Y-87401986D01*
X236611094Y-87504697D01*
X236666241Y-87671119D01*
X236666243Y-87671124D01*
X236753077Y-87811903D01*
X236771517Y-87879296D01*
X236753077Y-87942097D01*
X236666243Y-88082875D01*
X236666241Y-88082880D01*
X236611094Y-88249302D01*
X236611093Y-88249309D01*
X236600600Y-88352013D01*
X235450600Y-88352013D01*
X235450600Y-88147299D01*
X235431837Y-88102000D01*
X236149810Y-88102000D01*
X236149810Y-88101999D01*
X236113133Y-87917610D01*
X236113132Y-87917606D01*
X236090609Y-87863231D01*
X236083140Y-87793762D01*
X236114414Y-87731282D01*
X236129684Y-87717401D01*
X236178523Y-87679926D01*
X236274700Y-87554586D01*
X236335155Y-87408631D01*
X236342612Y-87352000D01*
X236124903Y-87352000D01*
X236099583Y-87344565D01*
X236073462Y-87340826D01*
X236066587Y-87334876D01*
X236057864Y-87332315D01*
X236040585Y-87312374D01*
X236020629Y-87295104D01*
X236018061Y-87286380D01*
X236012109Y-87279511D01*
X236008353Y-87253393D01*
X236000903Y-87228077D01*
X236003458Y-87219352D01*
X236002165Y-87210353D01*
X236013127Y-87186348D01*
X236020546Y-87161025D01*
X236028784Y-87152064D01*
X236031190Y-87146797D01*
X236043642Y-87134338D01*
X236051898Y-87127175D01*
X236053441Y-87126536D01*
X236178882Y-87030282D01*
X236209360Y-86990561D01*
X236218839Y-86982338D01*
X236239659Y-86972813D01*
X236258153Y-86959310D01*
X236275965Y-86956205D01*
X236282377Y-86953273D01*
X236288096Y-86954091D01*
X236300100Y-86952000D01*
X236342610Y-86952000D01*
X236342611Y-86951998D01*
X236335158Y-86895377D01*
X236335154Y-86895365D01*
X236326763Y-86875106D01*
X236319294Y-86805637D01*
X236326764Y-86780199D01*
X236328350Y-86776371D01*
X236335644Y-86758762D01*
X236351100Y-86641361D01*
X236351099Y-86362640D01*
X236347837Y-86337864D01*
X236344834Y-86315048D01*
X236343118Y-86302013D01*
X236600600Y-86302013D01*
X236600600Y-86602000D01*
X237625600Y-86602000D01*
X237625600Y-85102000D01*
X236600601Y-85102000D01*
X236600601Y-85401986D01*
X236611094Y-85504697D01*
X236666241Y-85671119D01*
X236666245Y-85671128D01*
X236737656Y-85786904D01*
X236756096Y-85854296D01*
X236737656Y-85917096D01*
X236666245Y-86032871D01*
X236666241Y-86032880D01*
X236611094Y-86199302D01*
X236611093Y-86199309D01*
X236600600Y-86302013D01*
X236343118Y-86302013D01*
X236341519Y-86289866D01*
X236335644Y-86245238D01*
X236327034Y-86224454D01*
X236319565Y-86154986D01*
X236327035Y-86129545D01*
X236332500Y-86116351D01*
X236335644Y-86108762D01*
X236351100Y-85991361D01*
X236351099Y-85712640D01*
X236350008Y-85704356D01*
X236347611Y-85686142D01*
X236335644Y-85595238D01*
X236327034Y-85574454D01*
X236319565Y-85504986D01*
X236327035Y-85479545D01*
X236332365Y-85466677D01*
X236335644Y-85458762D01*
X236351100Y-85341361D01*
X236351099Y-85062640D01*
X236350071Y-85054834D01*
X236340944Y-84985500D01*
X236335644Y-84945238D01*
X236327034Y-84924454D01*
X236319565Y-84854986D01*
X236327035Y-84829545D01*
X236335644Y-84808762D01*
X236351100Y-84691361D01*
X236351099Y-84412640D01*
X236347947Y-84388700D01*
X236338252Y-84315048D01*
X236338251Y-84315045D01*
X236336853Y-84304427D01*
X236336535Y-84302013D01*
X236600600Y-84302013D01*
X236600600Y-84602000D01*
X237625600Y-84602000D01*
X237625600Y-83077000D01*
X236600601Y-83077000D01*
X236600601Y-83351986D01*
X236611094Y-83454697D01*
X236666241Y-83621119D01*
X236666243Y-83621124D01*
X236753077Y-83761903D01*
X236771517Y-83829296D01*
X236753077Y-83892097D01*
X236666243Y-84032875D01*
X236666241Y-84032880D01*
X236611094Y-84199302D01*
X236611093Y-84199309D01*
X236600600Y-84302013D01*
X236336535Y-84302013D01*
X236335644Y-84295238D01*
X236275136Y-84149159D01*
X236178882Y-84023718D01*
X236129882Y-83986119D01*
X236088680Y-83929691D01*
X236084525Y-83859945D01*
X236090808Y-83840289D01*
X236113132Y-83786393D01*
X236113133Y-83786389D01*
X236149810Y-83602000D01*
X235431837Y-83602000D01*
X235450600Y-83556701D01*
X235450600Y-83147299D01*
X235431837Y-83102000D01*
X236149810Y-83102000D01*
X236149810Y-83101999D01*
X236113133Y-82917610D01*
X236113131Y-82917602D01*
X236039635Y-82740166D01*
X236039630Y-82740157D01*
X235932932Y-82580473D01*
X235932929Y-82580469D01*
X235797130Y-82444670D01*
X235797126Y-82444667D01*
X235637442Y-82337969D01*
X235637433Y-82337964D01*
X235460385Y-82264628D01*
X235425600Y-82279920D01*
X235425600Y-83086943D01*
X235408734Y-83046225D01*
X235331375Y-82968866D01*
X235230301Y-82927000D01*
X235120899Y-82927000D01*
X235019825Y-82968866D01*
X234942466Y-83046225D01*
X234925600Y-83086943D01*
X234925600Y-82257625D01*
X234891210Y-82264466D01*
X234891202Y-82264468D01*
X234713766Y-82337964D01*
X234713757Y-82337969D01*
X234554073Y-82444667D01*
X234554069Y-82444670D01*
X234418270Y-82580469D01*
X234418267Y-82580473D01*
X234311569Y-82740157D01*
X234311564Y-82740166D01*
X234238068Y-82917602D01*
X234238066Y-82917610D01*
X234201389Y-83101999D01*
X234201390Y-83102000D01*
X234919363Y-83102000D01*
X234900600Y-83147299D01*
X234900600Y-83556701D01*
X234919363Y-83602000D01*
X234162840Y-83602000D01*
X234095801Y-83582315D01*
X234075159Y-83565681D01*
X233732489Y-83223011D01*
X231878892Y-81369413D01*
X231878888Y-81369410D01*
X231747785Y-81281809D01*
X231747772Y-81281802D01*
X231602101Y-81221464D01*
X231602091Y-81221461D01*
X231443209Y-81189857D01*
X231381298Y-81157472D01*
X231346724Y-81096756D01*
X231343749Y-81071226D01*
X231343578Y-81071236D01*
X231343431Y-81068503D01*
X231343401Y-81068240D01*
X231343401Y-81067929D01*
X231343400Y-81067923D01*
X231343399Y-81067916D01*
X231336993Y-81008317D01*
X231313889Y-80946373D01*
X231286699Y-80873471D01*
X231286695Y-80873464D01*
X231200449Y-80758255D01*
X231200446Y-80758252D01*
X231085237Y-80672006D01*
X231085230Y-80672002D01*
X230950384Y-80621708D01*
X230950385Y-80621708D01*
X230890785Y-80615301D01*
X230890783Y-80615300D01*
X230890775Y-80615300D01*
X230890766Y-80615300D01*
X229095031Y-80615300D01*
X229095025Y-80615301D01*
X229035418Y-80621708D01*
X228900573Y-80672002D01*
X228900566Y-80672006D01*
X228785357Y-80758252D01*
X228785354Y-80758255D01*
X228699108Y-80873464D01*
X228699104Y-80873471D01*
X228648810Y-81008317D01*
X228645664Y-81037585D01*
X228642403Y-81067923D01*
X228642402Y-81067935D01*
X228642402Y-82863670D01*
X228642403Y-82863676D01*
X228648810Y-82923283D01*
X228699104Y-83058128D01*
X228699108Y-83058135D01*
X228785354Y-83173344D01*
X228785357Y-83173347D01*
X228900566Y-83259593D01*
X228900573Y-83259597D01*
X229031984Y-83308610D01*
X229087918Y-83350481D01*
X229112335Y-83415945D01*
X229097484Y-83484218D01*
X229076333Y-83512473D01*
X228962791Y-83626015D01*
X228837853Y-83797979D01*
X228833793Y-83805946D01*
X228830576Y-83812263D01*
X228830204Y-83812993D01*
X228782230Y-83863790D01*
X228719718Y-83880700D01*
X224856808Y-83880700D01*
X224789769Y-83861015D01*
X224769127Y-83844381D01*
X224305474Y-83380727D01*
X224305473Y-83380726D01*
X224198923Y-83309532D01*
X224080547Y-83260500D01*
X224080545Y-83260499D01*
X224080544Y-83260499D01*
X224080542Y-83260498D01*
X224080533Y-83260496D01*
X224076005Y-83259595D01*
X224076001Y-83259595D01*
X223954871Y-83235500D01*
X223954869Y-83235500D01*
X193174316Y-83235500D01*
X193111195Y-83218232D01*
X192995368Y-83149733D01*
X192969198Y-83134256D01*
X192969197Y-83134255D01*
X192969196Y-83134255D01*
X192969193Y-83134254D01*
X192811373Y-83088402D01*
X192811367Y-83088401D01*
X192774501Y-83085500D01*
X192774494Y-83085500D01*
X191618106Y-83085500D01*
X191618098Y-83085500D01*
X191581232Y-83088401D01*
X191581226Y-83088402D01*
X191423406Y-83134254D01*
X191423403Y-83134255D01*
X191281937Y-83217917D01*
X191281929Y-83217923D01*
X191165723Y-83334129D01*
X191165714Y-83334140D01*
X191165529Y-83334455D01*
X191165319Y-83334650D01*
X191160939Y-83340298D01*
X191160027Y-83339591D01*
X191114457Y-83382136D01*
X191045715Y-83394637D01*
X190981127Y-83367988D01*
X190956943Y-83340078D01*
X190956661Y-83340298D01*
X190952623Y-83335092D01*
X190952071Y-83334455D01*
X190951885Y-83334140D01*
X190951876Y-83334129D01*
X190835670Y-83217923D01*
X190835662Y-83217917D01*
X190720368Y-83149733D01*
X190694198Y-83134256D01*
X190694197Y-83134255D01*
X190694196Y-83134255D01*
X190694193Y-83134254D01*
X190536373Y-83088402D01*
X190536367Y-83088401D01*
X190499501Y-83085500D01*
X190499494Y-83085500D01*
X189343106Y-83085500D01*
X189343098Y-83085500D01*
X189306232Y-83088401D01*
X189306226Y-83088402D01*
X189148406Y-83134254D01*
X189148403Y-83134255D01*
X189006405Y-83218232D01*
X188943284Y-83235500D01*
X184045321Y-83235500D01*
X184045174Y-83235530D01*
X184045095Y-83235522D01*
X184039266Y-83236097D01*
X184039157Y-83234990D01*
X183975583Y-83229294D01*
X183920411Y-83186425D01*
X183897174Y-83120532D01*
X183913250Y-83052537D01*
X183933312Y-83026233D01*
X195127327Y-71832219D01*
X195188650Y-71798734D01*
X195215008Y-71795900D01*
X217945871Y-71795900D01*
X218030415Y-71779082D01*
X218071544Y-71770901D01*
X218189927Y-71721865D01*
X218191298Y-71720948D01*
X218191324Y-71720940D01*
X218191320Y-71720934D01*
X218296469Y-71650677D01*
X219143546Y-70803600D01*
X222644898Y-70803600D01*
X223673999Y-70803600D01*
X223648979Y-70864002D01*
X223624000Y-70989581D01*
X223624000Y-71117619D01*
X223648979Y-71243198D01*
X223673999Y-71303600D01*
X222644898Y-71303600D01*
X222660934Y-71404847D01*
X222733897Y-71629402D01*
X222841085Y-71839771D01*
X222979866Y-72030786D01*
X223146813Y-72197733D01*
X223337828Y-72336514D01*
X223548197Y-72443702D01*
X223772752Y-72516665D01*
X223772751Y-72516665D01*
X224005948Y-72553600D01*
X224024000Y-72553600D01*
X224024000Y-71653601D01*
X224084402Y-71678621D01*
X224209981Y-71703600D01*
X224338019Y-71703600D01*
X224463598Y-71678621D01*
X224524000Y-71653601D01*
X224524000Y-72553600D01*
X224542052Y-72553600D01*
X224775247Y-72516665D01*
X224999802Y-72443702D01*
X225210171Y-72336514D01*
X225401186Y-72197733D01*
X225568133Y-72030786D01*
X225706914Y-71839771D01*
X225814102Y-71629402D01*
X225887065Y-71404847D01*
X225903102Y-71303600D01*
X224874001Y-71303600D01*
X224899021Y-71243198D01*
X224924000Y-71117619D01*
X224924000Y-70989581D01*
X224899021Y-70864002D01*
X224874001Y-70803600D01*
X225903102Y-70803600D01*
X225887065Y-70702352D01*
X225814102Y-70477797D01*
X225706914Y-70267428D01*
X225568133Y-70076413D01*
X225401186Y-69909466D01*
X225210171Y-69770685D01*
X224999802Y-69663497D01*
X224775247Y-69590534D01*
X224775248Y-69590534D01*
X224542052Y-69553600D01*
X224524000Y-69553600D01*
X224524000Y-70453598D01*
X224463598Y-70428579D01*
X224338019Y-70403600D01*
X224209981Y-70403600D01*
X224084402Y-70428579D01*
X224024000Y-70453598D01*
X224024000Y-69553600D01*
X224005948Y-69553600D01*
X223772752Y-69590534D01*
X223548197Y-69663497D01*
X223337828Y-69770685D01*
X223146813Y-69909466D01*
X222979866Y-70076413D01*
X222841085Y-70267428D01*
X222733897Y-70477797D01*
X222660934Y-70702352D01*
X222644898Y-70803600D01*
X219143546Y-70803600D01*
X219979757Y-69967389D01*
X221616527Y-68330618D01*
X221677850Y-68297133D01*
X221704208Y-68294299D01*
X222813402Y-68294299D01*
X222813408Y-68294299D01*
X222916197Y-68283799D01*
X223082734Y-68228614D01*
X223232056Y-68136512D01*
X223356112Y-68012456D01*
X223448214Y-67863134D01*
X223503399Y-67696597D01*
X223513900Y-67593809D01*
X223513900Y-67593786D01*
X228683401Y-67593786D01*
X228693894Y-67696497D01*
X228749041Y-67862919D01*
X228749043Y-67862924D01*
X228841084Y-68012145D01*
X228965054Y-68136115D01*
X229114275Y-68228156D01*
X229114280Y-68228158D01*
X229280702Y-68283305D01*
X229280709Y-68283306D01*
X229383419Y-68293799D01*
X230153399Y-68293799D01*
X230653400Y-68293799D01*
X231423372Y-68293799D01*
X231423386Y-68293798D01*
X231526097Y-68283305D01*
X231692519Y-68228158D01*
X231692524Y-68228156D01*
X231841745Y-68136115D01*
X231965715Y-68012145D01*
X232057756Y-67862924D01*
X232057758Y-67862919D01*
X232112905Y-67696497D01*
X232112906Y-67696490D01*
X232123399Y-67593786D01*
X232123400Y-67593773D01*
X232123400Y-67483800D01*
X230653400Y-67483800D01*
X230653400Y-68293799D01*
X230153399Y-68293799D01*
X230153400Y-68293798D01*
X230153400Y-67483800D01*
X228683401Y-67483800D01*
X228683401Y-67593786D01*
X223513900Y-67593786D01*
X223513899Y-67391117D01*
X233677237Y-67391117D01*
X233677237Y-67668084D01*
X233677238Y-67668101D01*
X233713389Y-67942700D01*
X233785077Y-68210243D01*
X233891072Y-68466137D01*
X233891077Y-68466148D01*
X234029563Y-68706012D01*
X234198177Y-68925755D01*
X234198183Y-68925762D01*
X234394027Y-69121606D01*
X234394034Y-69121612D01*
X234613777Y-69290226D01*
X234853641Y-69428712D01*
X234853646Y-69428714D01*
X234853649Y-69428716D01*
X235109545Y-69534712D01*
X235377088Y-69606400D01*
X235651699Y-69642553D01*
X235651706Y-69642553D01*
X235928672Y-69642553D01*
X235928679Y-69642553D01*
X236203290Y-69606400D01*
X236470833Y-69534712D01*
X236726729Y-69428716D01*
X236966601Y-69290226D01*
X237186345Y-69121611D01*
X237382199Y-68925757D01*
X237550814Y-68706013D01*
X237689304Y-68466141D01*
X237795300Y-68210245D01*
X237866988Y-67942702D01*
X237903141Y-67668091D01*
X237903141Y-67391111D01*
X237866988Y-67116500D01*
X237795300Y-66848957D01*
X237689304Y-66593061D01*
X237689302Y-66593058D01*
X237689300Y-66593053D01*
X237550814Y-66353189D01*
X237382200Y-66133446D01*
X237382194Y-66133439D01*
X237186350Y-65937595D01*
X237186343Y-65937589D01*
X236966600Y-65768975D01*
X236726736Y-65630489D01*
X236726725Y-65630484D01*
X236470831Y-65524489D01*
X236203288Y-65452801D01*
X235928689Y-65416650D01*
X235928684Y-65416649D01*
X235928679Y-65416649D01*
X235651699Y-65416649D01*
X235651693Y-65416649D01*
X235651688Y-65416650D01*
X235377089Y-65452801D01*
X235109546Y-65524489D01*
X234853652Y-65630484D01*
X234853641Y-65630489D01*
X234613777Y-65768975D01*
X234394034Y-65937589D01*
X234394027Y-65937595D01*
X234198183Y-66133439D01*
X234198177Y-66133446D01*
X234029563Y-66353189D01*
X233891077Y-66593053D01*
X233891072Y-66593064D01*
X233785077Y-66848958D01*
X233713389Y-67116501D01*
X233677238Y-67391100D01*
X233677237Y-67391117D01*
X223513899Y-67391117D01*
X223513899Y-67229564D01*
X223513899Y-66873813D01*
X228683400Y-66873813D01*
X228683400Y-66983800D01*
X230153400Y-66983800D01*
X230653400Y-66983800D01*
X232123399Y-66983800D01*
X232123399Y-66873828D01*
X232123398Y-66873813D01*
X232112905Y-66771102D01*
X232057758Y-66604680D01*
X232057756Y-66604675D01*
X231965715Y-66455454D01*
X231841745Y-66331484D01*
X231692524Y-66239443D01*
X231692519Y-66239441D01*
X231526097Y-66184294D01*
X231526090Y-66184293D01*
X231423386Y-66173800D01*
X230653400Y-66173800D01*
X230653400Y-66983800D01*
X230153400Y-66983800D01*
X230153400Y-66173800D01*
X229383428Y-66173800D01*
X229383412Y-66173801D01*
X229280702Y-66184294D01*
X229114280Y-66239441D01*
X229114275Y-66239443D01*
X228965054Y-66331484D01*
X228841084Y-66455454D01*
X228749043Y-66604675D01*
X228749041Y-66604680D01*
X228693894Y-66771102D01*
X228693893Y-66771109D01*
X228683400Y-66873813D01*
X223513899Y-66873813D01*
X223513899Y-66873798D01*
X223513898Y-66873780D01*
X223503399Y-66771003D01*
X223503398Y-66771000D01*
X223481950Y-66706275D01*
X223448214Y-66604466D01*
X223356112Y-66455144D01*
X223232056Y-66331088D01*
X223082734Y-66238986D01*
X222916197Y-66183801D01*
X222916195Y-66183800D01*
X222813410Y-66173300D01*
X220773398Y-66173300D01*
X220773381Y-66173301D01*
X220670603Y-66183800D01*
X220670600Y-66183801D01*
X220504068Y-66238985D01*
X220504063Y-66238987D01*
X220354742Y-66331089D01*
X220230687Y-66455144D01*
X220216038Y-66478895D01*
X220164090Y-66525619D01*
X220095127Y-66536840D01*
X220031045Y-66508996D01*
X220004962Y-66478895D01*
X219990312Y-66455144D01*
X219866257Y-66331089D01*
X219866256Y-66331088D01*
X219716934Y-66238986D01*
X219550397Y-66183801D01*
X219550395Y-66183800D01*
X219447610Y-66173300D01*
X217407598Y-66173300D01*
X217407581Y-66173301D01*
X217304803Y-66183800D01*
X217304800Y-66183801D01*
X217138268Y-66238985D01*
X217138263Y-66238987D01*
X216988942Y-66331089D01*
X216864889Y-66455142D01*
X216822173Y-66524397D01*
X216770225Y-66571121D01*
X216716634Y-66583300D01*
X215150129Y-66583300D01*
X215024461Y-66608297D01*
X215024451Y-66608300D01*
X214975420Y-66628610D01*
X214906081Y-66657330D01*
X214906063Y-66657340D01*
X214799532Y-66728521D01*
X214799525Y-66728527D01*
X212314073Y-69213981D01*
X212252750Y-69247466D01*
X212226392Y-69250300D01*
X194449129Y-69250300D01*
X194323461Y-69275297D01*
X194323455Y-69275299D01*
X194205074Y-69324334D01*
X194098526Y-69395526D01*
X194098525Y-69395527D01*
X177693873Y-85800181D01*
X177632550Y-85833666D01*
X177606192Y-85836500D01*
X177144997Y-85836500D01*
X177077958Y-85816815D01*
X177032203Y-85764011D01*
X177022259Y-85694853D01*
X177051284Y-85631297D01*
X177076133Y-85609380D01*
X177077307Y-85608596D01*
X177165763Y-85549492D01*
X177173269Y-85544477D01*
X194285527Y-68432217D01*
X194346850Y-68398733D01*
X194373208Y-68395899D01*
X195482402Y-68395899D01*
X195482408Y-68395899D01*
X195585197Y-68385399D01*
X195751734Y-68330214D01*
X195901056Y-68238112D01*
X196025112Y-68114056D01*
X196117214Y-67964734D01*
X196117216Y-67964726D01*
X196120264Y-67958191D01*
X196123109Y-67959517D01*
X196154775Y-67913631D01*
X196219249Y-67886708D01*
X196288044Y-67898917D01*
X196338395Y-67944861D01*
X196380088Y-68012456D01*
X196504144Y-68136512D01*
X196653466Y-68228614D01*
X196820003Y-68283799D01*
X196922791Y-68294300D01*
X198962808Y-68294299D01*
X199065597Y-68283799D01*
X199232134Y-68228614D01*
X199381456Y-68136512D01*
X199505512Y-68012456D01*
X199597614Y-67863134D01*
X199652799Y-67696597D01*
X199663300Y-67593809D01*
X199663300Y-67593786D01*
X204832801Y-67593786D01*
X204843294Y-67696497D01*
X204898441Y-67862919D01*
X204898443Y-67862924D01*
X204990484Y-68012145D01*
X205114454Y-68136115D01*
X205263675Y-68228156D01*
X205263680Y-68228158D01*
X205430102Y-68283305D01*
X205430109Y-68283306D01*
X205532819Y-68293799D01*
X206302799Y-68293799D01*
X206802800Y-68293799D01*
X207572772Y-68293799D01*
X207572786Y-68293798D01*
X207675497Y-68283305D01*
X207841919Y-68228158D01*
X207841924Y-68228156D01*
X207991145Y-68136115D01*
X208097519Y-68029742D01*
X208158842Y-67996257D01*
X208228534Y-68001241D01*
X208272881Y-68029742D01*
X208379254Y-68136115D01*
X208528475Y-68228156D01*
X208528480Y-68228158D01*
X208694902Y-68283305D01*
X208694909Y-68283306D01*
X208797619Y-68293799D01*
X209567599Y-68293799D01*
X210067600Y-68293799D01*
X210837572Y-68293799D01*
X210837586Y-68293798D01*
X210940297Y-68283305D01*
X211106719Y-68228158D01*
X211106724Y-68228156D01*
X211255945Y-68136115D01*
X211379915Y-68012145D01*
X211471956Y-67862924D01*
X211471958Y-67862919D01*
X211527105Y-67696497D01*
X211527106Y-67696490D01*
X211537599Y-67593786D01*
X211537600Y-67593773D01*
X211537600Y-67483800D01*
X210067600Y-67483800D01*
X210067600Y-68293799D01*
X209567599Y-68293799D01*
X209567600Y-68293798D01*
X209567600Y-67483800D01*
X206802800Y-67483800D01*
X206802800Y-68293799D01*
X206302799Y-68293799D01*
X206302800Y-68293798D01*
X206302800Y-67483800D01*
X204832801Y-67483800D01*
X204832801Y-67593786D01*
X199663300Y-67593786D01*
X199663299Y-67229564D01*
X199663299Y-66873813D01*
X204832800Y-66873813D01*
X204832800Y-66983800D01*
X206302800Y-66983800D01*
X206802800Y-66983800D01*
X209567600Y-66983800D01*
X210067600Y-66983800D01*
X211537599Y-66983800D01*
X211537599Y-66873828D01*
X211537598Y-66873813D01*
X211527105Y-66771102D01*
X211471958Y-66604680D01*
X211471956Y-66604675D01*
X211379915Y-66455454D01*
X211255945Y-66331484D01*
X211106724Y-66239443D01*
X211106719Y-66239441D01*
X210940297Y-66184294D01*
X210940290Y-66184293D01*
X210837586Y-66173800D01*
X210067600Y-66173800D01*
X210067600Y-66983800D01*
X209567600Y-66983800D01*
X209567600Y-66173800D01*
X208797628Y-66173800D01*
X208797612Y-66173801D01*
X208694902Y-66184294D01*
X208528480Y-66239441D01*
X208528475Y-66239443D01*
X208379254Y-66331484D01*
X208272881Y-66437858D01*
X208211558Y-66471343D01*
X208141866Y-66466359D01*
X208097519Y-66437858D01*
X207991145Y-66331484D01*
X207841924Y-66239443D01*
X207841919Y-66239441D01*
X207675497Y-66184294D01*
X207675490Y-66184293D01*
X207572786Y-66173800D01*
X206802800Y-66173800D01*
X206802800Y-66983800D01*
X206302800Y-66983800D01*
X206302800Y-66173800D01*
X205532828Y-66173800D01*
X205532812Y-66173801D01*
X205430102Y-66184294D01*
X205263680Y-66239441D01*
X205263675Y-66239443D01*
X205114454Y-66331484D01*
X204990484Y-66455454D01*
X204898443Y-66604675D01*
X204898441Y-66604680D01*
X204843294Y-66771102D01*
X204843293Y-66771109D01*
X204832800Y-66873813D01*
X199663299Y-66873813D01*
X199663299Y-66873798D01*
X199663298Y-66873780D01*
X199652799Y-66771003D01*
X199652798Y-66771000D01*
X199631350Y-66706275D01*
X199597614Y-66604466D01*
X199505512Y-66455144D01*
X199381456Y-66331088D01*
X199232134Y-66238986D01*
X199065597Y-66183801D01*
X199065595Y-66183800D01*
X198962816Y-66173300D01*
X198962809Y-66173300D01*
X198717300Y-66173300D01*
X198650261Y-66153615D01*
X198604506Y-66100811D01*
X198593300Y-66049300D01*
X198593300Y-65468528D01*
X198568302Y-65342861D01*
X198568301Y-65342860D01*
X198568301Y-65342856D01*
X198521523Y-65229924D01*
X198519266Y-65224475D01*
X198509283Y-65209534D01*
X198509283Y-65209533D01*
X198448079Y-65117934D01*
X198448073Y-65117926D01*
X197569473Y-64239326D01*
X197569469Y-64239323D01*
X197462927Y-64168135D01*
X197457403Y-64165847D01*
X197344544Y-64119099D01*
X197344538Y-64119097D01*
X197218871Y-64094100D01*
X197218869Y-64094100D01*
X191655131Y-64094100D01*
X191655129Y-64094100D01*
X191529461Y-64119097D01*
X191529455Y-64119099D01*
X191411074Y-64168134D01*
X191304526Y-64239326D01*
X191304525Y-64239327D01*
X190555297Y-64988557D01*
X190313931Y-65229923D01*
X190223323Y-65320531D01*
X190193978Y-65364450D01*
X190152134Y-65427074D01*
X190103099Y-65545455D01*
X190103097Y-65545463D01*
X190078101Y-65671126D01*
X190078101Y-65799273D01*
X190102142Y-65920133D01*
X190103099Y-65924944D01*
X190119461Y-65964446D01*
X190128900Y-66011897D01*
X190128900Y-68614791D01*
X190109215Y-68681830D01*
X190092581Y-68702472D01*
X185135181Y-73659872D01*
X185073858Y-73693357D01*
X185004166Y-73688373D01*
X184948233Y-73646501D01*
X184923816Y-73581037D01*
X184923500Y-73572191D01*
X184923500Y-73418906D01*
X184923499Y-73418904D01*
X184888896Y-73244941D01*
X184888893Y-73244932D01*
X184885552Y-73236867D01*
X184839759Y-73126310D01*
X184821016Y-73081059D01*
X184821009Y-73081046D01*
X184722464Y-72933565D01*
X184722461Y-72933561D01*
X184597038Y-72808138D01*
X184597034Y-72808135D01*
X184502752Y-72745137D01*
X184457947Y-72691524D01*
X184449240Y-72622199D01*
X184479395Y-72559172D01*
X184538838Y-72522453D01*
X184591041Y-72519562D01*
X184805948Y-72553600D01*
X184824000Y-72553600D01*
X184824000Y-71653601D01*
X184884402Y-71678621D01*
X185009981Y-71703600D01*
X185138019Y-71703600D01*
X185263598Y-71678621D01*
X185324000Y-71653601D01*
X185324000Y-72553600D01*
X185342052Y-72553600D01*
X185575247Y-72516665D01*
X185799802Y-72443702D01*
X186010171Y-72336514D01*
X186201186Y-72197733D01*
X186368133Y-72030786D01*
X186506914Y-71839771D01*
X186614102Y-71629402D01*
X186687065Y-71404847D01*
X186703102Y-71303600D01*
X185674001Y-71303600D01*
X185699021Y-71243198D01*
X185724000Y-71117619D01*
X185724000Y-70989581D01*
X185699021Y-70864002D01*
X185674001Y-70803600D01*
X186703102Y-70803600D01*
X186687065Y-70702352D01*
X186614102Y-70477797D01*
X186506914Y-70267428D01*
X186368133Y-70076413D01*
X186201186Y-69909466D01*
X186010171Y-69770685D01*
X185799802Y-69663497D01*
X185575247Y-69590534D01*
X185575248Y-69590534D01*
X185342052Y-69553600D01*
X185324000Y-69553600D01*
X185324000Y-70453598D01*
X185263598Y-70428579D01*
X185138019Y-70403600D01*
X185009981Y-70403600D01*
X184884402Y-70428579D01*
X184824000Y-70453598D01*
X184824000Y-69553600D01*
X184805948Y-69553600D01*
X184572752Y-69590534D01*
X184348197Y-69663497D01*
X184137828Y-69770685D01*
X183946813Y-69909466D01*
X183779866Y-70076413D01*
X183641085Y-70267428D01*
X183533897Y-70477797D01*
X183460934Y-70702352D01*
X183444898Y-70803600D01*
X184473999Y-70803600D01*
X184448979Y-70864002D01*
X184424000Y-70989581D01*
X184424000Y-71117619D01*
X184448979Y-71243198D01*
X184473999Y-71303600D01*
X183444898Y-71303600D01*
X183460934Y-71404847D01*
X183533897Y-71629402D01*
X183641085Y-71839771D01*
X183779866Y-72030786D01*
X183946813Y-72197733D01*
X184137830Y-72336516D01*
X184226916Y-72381907D01*
X184277713Y-72429881D01*
X184294508Y-72497702D01*
X184271971Y-72563837D01*
X184217256Y-72607289D01*
X184147735Y-72614262D01*
X184146432Y-72614010D01*
X184111691Y-72607100D01*
X183934309Y-72607100D01*
X183934306Y-72607100D01*
X183760341Y-72641703D01*
X183760332Y-72641706D01*
X183625245Y-72697661D01*
X183577793Y-72707100D01*
X181484940Y-72707100D01*
X181417901Y-72687415D01*
X181397259Y-72670781D01*
X179834292Y-71107813D01*
X179834288Y-71107810D01*
X179703185Y-71020209D01*
X179703172Y-71020202D01*
X179557499Y-70959863D01*
X179557492Y-70959861D01*
X179402845Y-70929100D01*
X179402842Y-70929100D01*
X163577940Y-70929100D01*
X163510901Y-70909415D01*
X163490259Y-70892781D01*
X157823911Y-65226433D01*
X157790426Y-65165110D01*
X157795410Y-65095418D01*
X157837279Y-65039487D01*
X157937941Y-64964132D01*
X158024191Y-64848917D01*
X158074486Y-64714069D01*
X158080895Y-64654459D01*
X158080894Y-62858714D01*
X158074486Y-62799103D01*
X158073205Y-62795669D01*
X158024192Y-62664257D01*
X158024188Y-62664250D01*
X157937942Y-62549041D01*
X157937939Y-62549038D01*
X157822730Y-62462792D01*
X157822723Y-62462788D01*
X157687877Y-62412494D01*
X157687878Y-62412494D01*
X157628278Y-62406087D01*
X157628276Y-62406086D01*
X157628268Y-62406086D01*
X157628259Y-62406086D01*
X155832524Y-62406086D01*
X155832518Y-62406087D01*
X155772911Y-62412494D01*
X155638066Y-62462788D01*
X155638059Y-62462792D01*
X155522850Y-62549038D01*
X155522847Y-62549041D01*
X155436601Y-62664250D01*
X155436598Y-62664255D01*
X155387584Y-62795669D01*
X155345712Y-62851602D01*
X155280248Y-62876019D01*
X155211975Y-62861167D01*
X155183721Y-62840016D01*
X155070181Y-62726476D01*
X154898215Y-62601537D01*
X154708809Y-62505030D01*
X154708808Y-62505029D01*
X154708807Y-62505029D01*
X154506638Y-62439340D01*
X154506636Y-62439339D01*
X154506635Y-62439339D01*
X154345352Y-62413794D01*
X154296682Y-62406086D01*
X154084108Y-62406086D01*
X154035437Y-62413794D01*
X153874155Y-62439339D01*
X153671980Y-62505030D01*
X153482574Y-62601537D01*
X153310608Y-62726476D01*
X153160285Y-62876799D01*
X153035344Y-63048768D01*
X153030879Y-63057532D01*
X152982904Y-63108328D01*
X152915083Y-63125122D01*
X152848948Y-63102584D01*
X152809911Y-63057532D01*
X152805445Y-63048768D01*
X152680504Y-62876799D01*
X152530181Y-62726476D01*
X152358215Y-62601537D01*
X152168809Y-62505030D01*
X152168808Y-62505029D01*
X152168807Y-62505029D01*
X151966638Y-62439340D01*
X151966636Y-62439339D01*
X151966635Y-62439339D01*
X151805352Y-62413794D01*
X151756682Y-62406086D01*
X151544108Y-62406086D01*
X151495437Y-62413794D01*
X151334155Y-62439339D01*
X151131980Y-62505030D01*
X150942574Y-62601537D01*
X150770608Y-62726476D01*
X150620285Y-62876799D01*
X150495344Y-63048768D01*
X150490879Y-63057532D01*
X150442904Y-63108328D01*
X150375083Y-63125122D01*
X150308948Y-63102584D01*
X150269911Y-63057532D01*
X150265445Y-63048768D01*
X150140504Y-62876799D01*
X149990181Y-62726476D01*
X149818215Y-62601537D01*
X149628809Y-62505030D01*
X149628808Y-62505029D01*
X149628807Y-62505029D01*
X149426638Y-62439340D01*
X149426636Y-62439339D01*
X149426635Y-62439339D01*
X149265352Y-62413794D01*
X149216682Y-62406086D01*
X149004108Y-62406086D01*
X148955437Y-62413794D01*
X148794155Y-62439339D01*
X148591980Y-62505030D01*
X148402574Y-62601537D01*
X148230608Y-62726476D01*
X148080285Y-62876799D01*
X147955344Y-63048768D01*
X147950879Y-63057532D01*
X147902904Y-63108328D01*
X147835083Y-63125122D01*
X147768948Y-63102584D01*
X147729911Y-63057532D01*
X147725445Y-63048768D01*
X147600504Y-62876799D01*
X147450181Y-62726476D01*
X147278215Y-62601537D01*
X147088809Y-62505030D01*
X147088808Y-62505029D01*
X147088807Y-62505029D01*
X146886638Y-62439340D01*
X146886636Y-62439339D01*
X146886635Y-62439339D01*
X146725352Y-62413794D01*
X146676682Y-62406086D01*
X146464108Y-62406086D01*
X146415437Y-62413794D01*
X146254155Y-62439339D01*
X146051980Y-62505030D01*
X145862574Y-62601537D01*
X145690608Y-62726476D01*
X145540285Y-62876799D01*
X145415344Y-63048768D01*
X145410879Y-63057532D01*
X145362904Y-63108328D01*
X145295083Y-63125122D01*
X145228948Y-63102584D01*
X145189911Y-63057532D01*
X145185445Y-63048768D01*
X145060504Y-62876799D01*
X144910181Y-62726476D01*
X144738215Y-62601537D01*
X144548809Y-62505030D01*
X144548808Y-62505029D01*
X144548807Y-62505029D01*
X144346638Y-62439340D01*
X144346636Y-62439339D01*
X144346635Y-62439339D01*
X144185352Y-62413794D01*
X144136682Y-62406086D01*
X143924108Y-62406086D01*
X143875437Y-62413794D01*
X143714155Y-62439339D01*
X143511980Y-62505030D01*
X143322574Y-62601537D01*
X143150608Y-62726476D01*
X143000285Y-62876799D01*
X142875344Y-63048768D01*
X142870597Y-63058085D01*
X142822622Y-63108879D01*
X142754800Y-63125673D01*
X142688666Y-63103134D01*
X142649629Y-63058081D01*
X142645021Y-63049038D01*
X142605665Y-62994868D01*
X142605664Y-62994868D01*
X141973357Y-63627176D01*
X141956320Y-63563593D01*
X141890494Y-63449579D01*
X141797402Y-63356487D01*
X141683388Y-63290661D01*
X141619804Y-63273623D01*
X142252111Y-62641314D01*
X142197945Y-62601961D01*
X142008612Y-62505490D01*
X141806524Y-62439828D01*
X141596641Y-62406586D01*
X141384149Y-62406586D01*
X141174267Y-62439828D01*
X141174264Y-62439828D01*
X140972177Y-62505490D01*
X140782834Y-62601966D01*
X140728677Y-62641313D01*
X140728677Y-62641314D01*
X141360986Y-63273623D01*
X141297402Y-63290661D01*
X141183388Y-63356487D01*
X141090296Y-63449579D01*
X141024470Y-63563593D01*
X141007432Y-63627177D01*
X140375123Y-62994868D01*
X140375122Y-62994868D01*
X140335775Y-63049026D01*
X140330878Y-63058637D01*
X140282901Y-63109431D01*
X140215079Y-63126224D01*
X140148945Y-63103684D01*
X140109911Y-63058634D01*
X140105021Y-63049038D01*
X140065665Y-62994868D01*
X140065664Y-62994868D01*
X139433357Y-63627176D01*
X139416320Y-63563593D01*
X139350494Y-63449579D01*
X139257402Y-63356487D01*
X139143388Y-63290661D01*
X139079804Y-63273623D01*
X139712111Y-62641314D01*
X139657945Y-62601961D01*
X139468612Y-62505490D01*
X139266524Y-62439828D01*
X139056641Y-62406586D01*
X138844149Y-62406586D01*
X138634267Y-62439828D01*
X138634264Y-62439828D01*
X138432177Y-62505490D01*
X138242834Y-62601966D01*
X138188677Y-62641313D01*
X138188677Y-62641314D01*
X138820986Y-63273623D01*
X138757402Y-63290661D01*
X138643388Y-63356487D01*
X138550296Y-63449579D01*
X138484470Y-63563593D01*
X138467432Y-63627177D01*
X137835123Y-62994868D01*
X137835122Y-62994868D01*
X137795775Y-63049025D01*
X137699299Y-63238368D01*
X137633637Y-63440455D01*
X137633637Y-63440458D01*
X137600395Y-63650339D01*
X137600395Y-63862832D01*
X137633637Y-64072713D01*
X137633637Y-64072716D01*
X137699299Y-64274803D01*
X137795770Y-64464136D01*
X137835123Y-64518302D01*
X138467432Y-63885994D01*
X138484470Y-63949579D01*
X138550296Y-64063593D01*
X138643388Y-64156685D01*
X138757402Y-64222511D01*
X138820985Y-64239548D01*
X138188677Y-64871855D01*
X138188677Y-64871856D01*
X138242844Y-64911210D01*
X138432177Y-65007681D01*
X138634265Y-65073343D01*
X138844149Y-65106586D01*
X139056641Y-65106586D01*
X139266522Y-65073343D01*
X139266525Y-65073343D01*
X139468612Y-65007681D01*
X139657949Y-64911208D01*
X139712111Y-64871856D01*
X139712112Y-64871856D01*
X139079803Y-64239548D01*
X139143388Y-64222511D01*
X139257402Y-64156685D01*
X139350494Y-64063593D01*
X139416320Y-63949579D01*
X139433357Y-63885994D01*
X140065665Y-64518303D01*
X140065665Y-64518302D01*
X140105017Y-64464140D01*
X140109909Y-64454540D01*
X140157883Y-64403743D01*
X140225703Y-64386947D01*
X140291839Y-64409483D01*
X140330881Y-64454540D01*
X140335770Y-64464136D01*
X140375123Y-64518302D01*
X141007432Y-63885994D01*
X141024470Y-63949579D01*
X141090296Y-64063593D01*
X141183388Y-64156685D01*
X141297402Y-64222511D01*
X141360985Y-64239548D01*
X140728677Y-64871855D01*
X140728677Y-64871856D01*
X140782844Y-64911210D01*
X140972177Y-65007681D01*
X141174265Y-65073343D01*
X141384149Y-65106586D01*
X141596641Y-65106586D01*
X141806522Y-65073343D01*
X141806525Y-65073343D01*
X142008612Y-65007681D01*
X142197949Y-64911208D01*
X142252111Y-64871856D01*
X142252112Y-64871856D01*
X141619803Y-64239548D01*
X141683388Y-64222511D01*
X141797402Y-64156685D01*
X141890494Y-64063593D01*
X141956320Y-63949579D01*
X141973357Y-63885995D01*
X142605665Y-64518303D01*
X142605665Y-64518302D01*
X142645017Y-64464141D01*
X142649627Y-64455093D01*
X142697600Y-64404295D01*
X142765420Y-64387498D01*
X142831556Y-64410033D01*
X142870599Y-64455090D01*
X142875344Y-64464403D01*
X143000285Y-64636372D01*
X143150608Y-64786695D01*
X143322574Y-64911634D01*
X143322576Y-64911635D01*
X143322579Y-64911637D01*
X143511983Y-65008143D01*
X143714152Y-65073832D01*
X143924108Y-65107086D01*
X143924109Y-65107086D01*
X144136681Y-65107086D01*
X144136682Y-65107086D01*
X144346638Y-65073832D01*
X144548807Y-65008143D01*
X144738211Y-64911637D01*
X144824533Y-64848921D01*
X144910181Y-64786695D01*
X144910183Y-64786692D01*
X144910187Y-64786690D01*
X145060499Y-64636378D01*
X145060501Y-64636374D01*
X145060504Y-64636372D01*
X145185443Y-64464406D01*
X145185445Y-64464403D01*
X145185446Y-64464402D01*
X145189909Y-64455640D01*
X145237883Y-64404845D01*
X145305703Y-64388049D01*
X145371839Y-64410585D01*
X145410879Y-64455640D01*
X145414986Y-64463701D01*
X145415346Y-64464406D01*
X145540285Y-64636372D01*
X145690608Y-64786695D01*
X145862574Y-64911634D01*
X145862576Y-64911635D01*
X145862579Y-64911637D01*
X146051983Y-65008143D01*
X146254152Y-65073832D01*
X146464108Y-65107086D01*
X146464109Y-65107086D01*
X146676681Y-65107086D01*
X146676682Y-65107086D01*
X146886638Y-65073832D01*
X147088807Y-65008143D01*
X147278211Y-64911637D01*
X147364533Y-64848921D01*
X147450181Y-64786695D01*
X147450183Y-64786692D01*
X147450187Y-64786690D01*
X147600499Y-64636378D01*
X147600501Y-64636374D01*
X147600504Y-64636372D01*
X147725443Y-64464406D01*
X147725445Y-64464403D01*
X147725446Y-64464402D01*
X147729909Y-64455640D01*
X147777883Y-64404845D01*
X147845703Y-64388049D01*
X147911839Y-64410585D01*
X147950879Y-64455640D01*
X147954986Y-64463701D01*
X147955346Y-64464406D01*
X148080285Y-64636372D01*
X148230608Y-64786695D01*
X148382967Y-64897388D01*
X148402579Y-64911637D01*
X148430594Y-64925911D01*
X148481391Y-64973885D01*
X148498300Y-65036396D01*
X148498300Y-65460467D01*
X148478615Y-65527506D01*
X148425811Y-65573261D01*
X148413306Y-65578172D01*
X148379471Y-65589384D01*
X148379463Y-65589387D01*
X148230142Y-65681489D01*
X148106089Y-65805542D01*
X148013987Y-65954863D01*
X148013985Y-65954868D01*
X147998563Y-66001408D01*
X147958801Y-66121403D01*
X147958801Y-66121404D01*
X147958800Y-66121404D01*
X147948300Y-66224183D01*
X147948300Y-67024201D01*
X147948301Y-67024219D01*
X147958800Y-67126996D01*
X147958801Y-67126999D01*
X148010137Y-67281918D01*
X148013986Y-67293534D01*
X148099662Y-67432438D01*
X148106089Y-67442857D01*
X148199750Y-67536518D01*
X148204087Y-67544462D01*
X148211336Y-67549888D01*
X148220572Y-67574650D01*
X148233235Y-67597841D01*
X148232589Y-67606869D01*
X148235753Y-67615352D01*
X148230136Y-67641174D01*
X148228251Y-67667533D01*
X148222433Y-67676585D01*
X148220902Y-67683625D01*
X148199751Y-67711880D01*
X148124251Y-67787381D01*
X148062928Y-67820866D01*
X148036569Y-67823700D01*
X147679555Y-67823700D01*
X147524910Y-67854461D01*
X147524898Y-67854464D01*
X147379227Y-67914802D01*
X147379214Y-67914809D01*
X147248111Y-68002410D01*
X147248107Y-68002413D01*
X144103741Y-71146781D01*
X144076813Y-71161484D01*
X144050995Y-71178077D01*
X144044794Y-71178968D01*
X144042418Y-71180266D01*
X144016060Y-71183100D01*
X143971908Y-71183100D01*
X143904869Y-71163415D01*
X143866363Y-71119328D01*
X143864605Y-71120413D01*
X143860814Y-71114266D01*
X143768712Y-70964944D01*
X143644656Y-70840888D01*
X143495334Y-70748786D01*
X143328797Y-70693601D01*
X143328795Y-70693600D01*
X143226010Y-70683100D01*
X142025998Y-70683100D01*
X142025981Y-70683101D01*
X141923203Y-70693600D01*
X141923200Y-70693601D01*
X141756668Y-70748785D01*
X141756663Y-70748787D01*
X141607342Y-70840889D01*
X141483289Y-70964942D01*
X141459935Y-71002805D01*
X141393441Y-71110611D01*
X141387395Y-71120413D01*
X141385600Y-71119306D01*
X141346313Y-71163937D01*
X141280092Y-71183100D01*
X128393925Y-71183100D01*
X128326886Y-71163415D01*
X128281131Y-71110611D01*
X128271187Y-71041453D01*
X128283440Y-71002805D01*
X128357618Y-70857223D01*
X128357618Y-70857222D01*
X128357620Y-70857219D01*
X128420877Y-70662534D01*
X128452900Y-70460352D01*
X128452900Y-70255648D01*
X128447413Y-70221006D01*
X128420877Y-70053465D01*
X128375312Y-69913231D01*
X128357620Y-69858781D01*
X128357618Y-69858778D01*
X128357618Y-69858776D01*
X128311239Y-69767753D01*
X128264687Y-69676390D01*
X128240102Y-69642551D01*
X128144371Y-69510786D01*
X127999613Y-69366028D01*
X127834013Y-69245715D01*
X127834012Y-69245714D01*
X127834010Y-69245713D01*
X127742547Y-69199110D01*
X127651623Y-69152781D01*
X127456934Y-69089522D01*
X127282395Y-69061878D01*
X127254752Y-69057500D01*
X127050048Y-69057500D01*
X127030185Y-69060646D01*
X126847865Y-69089522D01*
X126653176Y-69152781D01*
X126470786Y-69245715D01*
X126305186Y-69366028D01*
X126160428Y-69510786D01*
X126040115Y-69676386D01*
X125992885Y-69769080D01*
X125944910Y-69819876D01*
X125877089Y-69836671D01*
X125810954Y-69814134D01*
X125771915Y-69769080D01*
X125771239Y-69767753D01*
X125724687Y-69676390D01*
X125700102Y-69642551D01*
X125604371Y-69510786D01*
X125459613Y-69366028D01*
X125294013Y-69245715D01*
X125294012Y-69245714D01*
X125294010Y-69245713D01*
X125202547Y-69199110D01*
X125111623Y-69152781D01*
X124916934Y-69089522D01*
X124742395Y-69061878D01*
X124714752Y-69057500D01*
X124510048Y-69057500D01*
X124490185Y-69060646D01*
X124307865Y-69089522D01*
X124113176Y-69152781D01*
X123930786Y-69245715D01*
X123765186Y-69366028D01*
X123620428Y-69510786D01*
X123500115Y-69676386D01*
X123407181Y-69858776D01*
X123343922Y-70053465D01*
X123311900Y-70255648D01*
X123311900Y-70460351D01*
X123343922Y-70662534D01*
X123407181Y-70857223D01*
X123481360Y-71002805D01*
X123494256Y-71071474D01*
X123467980Y-71136215D01*
X123410873Y-71176472D01*
X123370875Y-71183100D01*
X118970955Y-71183100D01*
X118816310Y-71213861D01*
X118816298Y-71213864D01*
X118670627Y-71274202D01*
X118670614Y-71274209D01*
X118539511Y-71361810D01*
X118539507Y-71361813D01*
X117807969Y-72093351D01*
X117767741Y-72120231D01*
X117632655Y-72176185D01*
X117485165Y-72274735D01*
X117485161Y-72274738D01*
X117359738Y-72400161D01*
X117359735Y-72400165D01*
X117261190Y-72547646D01*
X117261183Y-72547659D01*
X117193306Y-72711532D01*
X117193303Y-72711541D01*
X117158700Y-72885504D01*
X85261150Y-72885504D01*
X85265187Y-72860018D01*
X85265187Y-72860017D01*
X85271302Y-72821408D01*
X84242201Y-72821408D01*
X84267221Y-72761006D01*
X84292200Y-72635427D01*
X84292200Y-72507389D01*
X84267221Y-72381810D01*
X84242201Y-72321408D01*
X85271302Y-72321408D01*
X85255265Y-72220160D01*
X85182302Y-71995605D01*
X85075114Y-71785236D01*
X84936333Y-71594221D01*
X84769380Y-71427268D01*
X84734224Y-71401727D01*
X84691558Y-71346398D01*
X84685577Y-71276785D01*
X84718182Y-71214989D01*
X84734224Y-71201089D01*
X84769380Y-71175547D01*
X84936333Y-71008594D01*
X85075114Y-70817579D01*
X85182302Y-70607210D01*
X85255265Y-70382655D01*
X85271302Y-70281408D01*
X84242201Y-70281408D01*
X84267221Y-70221006D01*
X84292200Y-70095427D01*
X84292200Y-69967389D01*
X84267221Y-69841810D01*
X84242201Y-69781408D01*
X85271302Y-69781408D01*
X85255265Y-69680160D01*
X85182302Y-69455605D01*
X85075114Y-69245236D01*
X84936333Y-69054221D01*
X84933172Y-69050520D01*
X84934936Y-69049013D01*
X84906036Y-68996086D01*
X84911020Y-68926394D01*
X84945735Y-68876245D01*
X84953424Y-68869543D01*
X85010856Y-68834120D01*
X85030793Y-68814183D01*
X133851741Y-68814183D01*
X133851741Y-70014201D01*
X133851742Y-70014218D01*
X133862241Y-70116996D01*
X133862242Y-70116999D01*
X133917323Y-70283219D01*
X133917427Y-70283534D01*
X134009529Y-70432856D01*
X134133585Y-70556912D01*
X134282907Y-70649014D01*
X134449444Y-70704199D01*
X134552232Y-70714700D01*
X135752249Y-70714699D01*
X135855038Y-70704199D01*
X136021575Y-70649014D01*
X136170897Y-70556912D01*
X136294953Y-70432856D01*
X136387055Y-70283534D01*
X136410343Y-70213254D01*
X136414351Y-70205250D01*
X136432301Y-70185972D01*
X136447296Y-70164316D01*
X136455736Y-70160806D01*
X136461966Y-70154117D01*
X136487490Y-70147604D01*
X136511812Y-70137492D01*
X136528075Y-70137248D01*
X136529666Y-70136843D01*
X136530764Y-70137208D01*
X136534960Y-70137146D01*
X136572766Y-70140121D01*
X137252241Y-69460646D01*
X137252241Y-69466861D01*
X137279500Y-69568594D01*
X137332161Y-69659806D01*
X137406635Y-69734280D01*
X137497847Y-69786941D01*
X137599580Y-69814200D01*
X137605794Y-69814200D01*
X136926317Y-70493674D01*
X136970891Y-70526059D01*
X137153209Y-70618955D01*
X137347823Y-70682190D01*
X137549924Y-70714200D01*
X137754558Y-70714200D01*
X137956658Y-70682190D01*
X138151272Y-70618955D01*
X138333590Y-70526059D01*
X138378162Y-70493674D01*
X137698688Y-69814200D01*
X137704902Y-69814200D01*
X137806635Y-69786941D01*
X137897847Y-69734280D01*
X137972321Y-69659806D01*
X138024982Y-69568594D01*
X138052241Y-69466861D01*
X138052241Y-69460648D01*
X138731715Y-70140122D01*
X138731715Y-70140121D01*
X138764100Y-70095549D01*
X138856996Y-69913231D01*
X138920231Y-69718617D01*
X138952241Y-69516517D01*
X138952241Y-69311882D01*
X138920231Y-69109782D01*
X138856996Y-68915168D01*
X138764100Y-68732850D01*
X138731715Y-68688277D01*
X138731715Y-68688276D01*
X138052241Y-69367751D01*
X138052241Y-69361539D01*
X138024982Y-69259806D01*
X137972321Y-69168594D01*
X137897847Y-69094120D01*
X137806635Y-69041459D01*
X137704902Y-69014200D01*
X137698687Y-69014200D01*
X138378163Y-68334724D01*
X138378162Y-68334723D01*
X138333600Y-68302347D01*
X138333591Y-68302341D01*
X138151272Y-68209444D01*
X137956658Y-68146209D01*
X137754558Y-68114200D01*
X137549924Y-68114200D01*
X137347823Y-68146209D01*
X137153209Y-68209444D01*
X136970885Y-68302343D01*
X136926318Y-68334723D01*
X136926318Y-68334724D01*
X137605795Y-69014200D01*
X137599580Y-69014200D01*
X137497847Y-69041459D01*
X137406635Y-69094120D01*
X137332161Y-69168594D01*
X137279500Y-69259806D01*
X137252241Y-69361539D01*
X137252241Y-69367753D01*
X136572765Y-68688277D01*
X136534960Y-68691253D01*
X136466582Y-68676889D01*
X136416825Y-68627838D01*
X136414351Y-68623149D01*
X136410342Y-68615142D01*
X136387055Y-68544866D01*
X136294953Y-68395544D01*
X136170897Y-68271488D01*
X136071606Y-68210245D01*
X136021577Y-68179387D01*
X136021572Y-68179385D01*
X136020103Y-68178898D01*
X135855038Y-68124201D01*
X135855036Y-68124200D01*
X135752251Y-68113700D01*
X134552239Y-68113700D01*
X134552222Y-68113701D01*
X134449444Y-68124200D01*
X134449441Y-68124201D01*
X134282909Y-68179385D01*
X134282904Y-68179387D01*
X134133583Y-68271489D01*
X134009530Y-68395542D01*
X133917428Y-68544863D01*
X133917426Y-68544868D01*
X133903821Y-68585925D01*
X133862242Y-68711403D01*
X133862242Y-68711404D01*
X133862241Y-68711404D01*
X133851741Y-68814183D01*
X85030793Y-68814183D01*
X85134912Y-68710064D01*
X85227014Y-68560742D01*
X85282199Y-68394205D01*
X85292700Y-68291417D01*
X85292699Y-66691400D01*
X85288660Y-66651865D01*
X85282199Y-66588611D01*
X85282198Y-66588608D01*
X85266376Y-66540861D01*
X85227014Y-66422074D01*
X85134912Y-66272752D01*
X85010856Y-66148696D01*
X84918088Y-66091477D01*
X84861536Y-66056595D01*
X84861531Y-66056593D01*
X84806637Y-66038403D01*
X84694997Y-66001409D01*
X84694995Y-66001408D01*
X84592210Y-65990908D01*
X82692198Y-65990908D01*
X82692181Y-65990909D01*
X82589403Y-66001408D01*
X82589400Y-66001409D01*
X82422868Y-66056593D01*
X82422863Y-66056595D01*
X82273542Y-66148697D01*
X82149489Y-66272750D01*
X82057387Y-66422071D01*
X82057385Y-66422076D01*
X82046325Y-66455454D01*
X82002201Y-66588611D01*
X82002201Y-66588612D01*
X82002200Y-66588612D01*
X81991700Y-66691391D01*
X69941256Y-66691391D01*
X69878904Y-66540861D01*
X69878902Y-66540858D01*
X69878900Y-66540853D01*
X69740414Y-66300989D01*
X69571800Y-66081246D01*
X69571794Y-66081239D01*
X69375950Y-65885395D01*
X69375943Y-65885389D01*
X69156200Y-65716775D01*
X68916336Y-65578289D01*
X68916325Y-65578284D01*
X68660431Y-65472289D01*
X68392888Y-65400601D01*
X68118289Y-65364450D01*
X68118284Y-65364449D01*
X68118279Y-65364449D01*
X67841299Y-65364449D01*
X67841293Y-65364449D01*
X67841288Y-65364450D01*
X67566689Y-65400601D01*
X67299146Y-65472289D01*
X67043252Y-65578284D01*
X67043241Y-65578289D01*
X66803377Y-65716775D01*
X66583634Y-65885389D01*
X66583627Y-65885395D01*
X66387783Y-66081239D01*
X66387777Y-66081246D01*
X66219163Y-66300989D01*
X66080677Y-66540853D01*
X66080672Y-66540864D01*
X65974677Y-66796758D01*
X65902989Y-67064301D01*
X65866838Y-67338900D01*
X65866837Y-67338917D01*
X65258322Y-67338917D01*
X65258318Y-67334988D01*
X65257843Y-66900800D01*
X65255546Y-64799291D01*
X114017100Y-64799291D01*
X114017100Y-66202293D01*
X114017101Y-66202309D01*
X114027579Y-66304873D01*
X114066415Y-66422071D01*
X114082646Y-66471053D01*
X114174552Y-66620056D01*
X114298344Y-66743848D01*
X114447347Y-66835754D01*
X114613528Y-66890821D01*
X114716099Y-66901300D01*
X116119100Y-66901299D01*
X116221672Y-66890821D01*
X116387853Y-66835754D01*
X116536856Y-66743848D01*
X116660648Y-66620056D01*
X116752554Y-66471053D01*
X116802167Y-66321328D01*
X116832192Y-66272653D01*
X117515461Y-65589382D01*
X117538267Y-65674494D01*
X117597510Y-65777106D01*
X117681294Y-65860890D01*
X117783906Y-65920133D01*
X117869014Y-65942937D01*
X117160085Y-66651865D01*
X117160085Y-66651866D01*
X117223843Y-66698188D01*
X117420189Y-66798232D01*
X117629764Y-66866326D01*
X117847419Y-66900800D01*
X118067781Y-66900800D01*
X118285435Y-66866326D01*
X118495010Y-66798232D01*
X118691360Y-66698186D01*
X118755113Y-66651866D01*
X118755114Y-66651866D01*
X118046185Y-65942938D01*
X118131294Y-65920133D01*
X118233906Y-65860890D01*
X118317690Y-65777106D01*
X118376933Y-65674494D01*
X118399737Y-65589385D01*
X119108666Y-66298314D01*
X119108666Y-66298313D01*
X119126972Y-66273119D01*
X119182301Y-66230453D01*
X119251915Y-66224474D01*
X119313710Y-66257079D01*
X119327608Y-66273119D01*
X119429352Y-66413158D01*
X119429356Y-66413163D01*
X119585236Y-66569043D01*
X119585241Y-66569047D01*
X119671705Y-66631866D01*
X119763578Y-66698615D01*
X119891975Y-66764037D01*
X119959993Y-66798695D01*
X119959996Y-66798696D01*
X120064821Y-66832755D01*
X120169649Y-66866815D01*
X120387378Y-66901300D01*
X120387379Y-66901300D01*
X120607821Y-66901300D01*
X120607822Y-66901300D01*
X120825551Y-66866815D01*
X121035206Y-66798695D01*
X121231622Y-66698615D01*
X121409965Y-66569042D01*
X121565842Y-66413165D01*
X121695415Y-66234822D01*
X121795495Y-66038406D01*
X121863615Y-65828751D01*
X121898100Y-65611022D01*
X121898100Y-65390578D01*
X121863615Y-65172849D01*
X121829555Y-65068021D01*
X121795496Y-64963196D01*
X121795495Y-64963193D01*
X121753560Y-64880892D01*
X121753559Y-64880890D01*
X121695414Y-64766776D01*
X121565847Y-64588441D01*
X121565843Y-64588436D01*
X121409963Y-64432556D01*
X121409958Y-64432552D01*
X121231625Y-64302987D01*
X121231624Y-64302986D01*
X121231622Y-64302985D01*
X121168696Y-64270922D01*
X121035206Y-64202904D01*
X121035203Y-64202903D01*
X120825552Y-64134785D01*
X120716686Y-64117542D01*
X120607822Y-64100300D01*
X120387378Y-64100300D01*
X120314801Y-64111795D01*
X120169647Y-64134785D01*
X119959996Y-64202903D01*
X119959993Y-64202904D01*
X119763574Y-64302987D01*
X119585241Y-64432552D01*
X119585236Y-64432556D01*
X119429356Y-64588436D01*
X119327608Y-64728481D01*
X119272278Y-64771146D01*
X119202665Y-64777125D01*
X119140870Y-64744519D01*
X119126971Y-64728480D01*
X119108666Y-64703285D01*
X119108665Y-64703285D01*
X118399737Y-65412213D01*
X118376933Y-65327106D01*
X118317690Y-65224494D01*
X118233906Y-65140710D01*
X118131294Y-65081467D01*
X118046183Y-65058661D01*
X118755113Y-64349732D01*
X118691356Y-64303411D01*
X118495010Y-64203367D01*
X118285435Y-64135273D01*
X118067781Y-64100800D01*
X117847419Y-64100800D01*
X117629764Y-64135273D01*
X117420189Y-64203367D01*
X117223833Y-64303416D01*
X117160085Y-64349731D01*
X117160085Y-64349732D01*
X117869014Y-65058661D01*
X117783906Y-65081467D01*
X117681294Y-65140710D01*
X117597510Y-65224494D01*
X117538267Y-65327106D01*
X117515461Y-65412215D01*
X116832192Y-64728946D01*
X116802167Y-64680269D01*
X116771738Y-64588441D01*
X116752554Y-64530547D01*
X116745002Y-64518303D01*
X116710328Y-64462087D01*
X116710327Y-64462085D01*
X116660650Y-64381547D01*
X116660647Y-64381543D01*
X116536857Y-64257753D01*
X116536856Y-64257752D01*
X116391564Y-64168135D01*
X116387855Y-64165847D01*
X116387850Y-64165845D01*
X116221673Y-64110779D01*
X116221666Y-64110778D01*
X116119102Y-64100300D01*
X114716106Y-64100300D01*
X114716090Y-64100301D01*
X114613526Y-64110779D01*
X114447349Y-64165845D01*
X114447344Y-64165847D01*
X114298342Y-64257753D01*
X114174553Y-64381542D01*
X114082647Y-64530544D01*
X114082645Y-64530549D01*
X114027579Y-64696726D01*
X114027578Y-64696733D01*
X114017100Y-64799291D01*
X65255546Y-64799291D01*
X65252735Y-62227067D01*
X65272346Y-62160009D01*
X65325100Y-62114197D01*
X65376669Y-62102935D01*
X162334337Y-62052264D01*
X162401385Y-62071914D01*
X162447167Y-62124694D01*
X162458400Y-62176264D01*
X162458400Y-68224400D01*
X182880000Y-68224400D01*
X182880000Y-67695386D01*
X184132401Y-67695386D01*
X184142894Y-67798097D01*
X184198041Y-67964519D01*
X184198043Y-67964524D01*
X184290084Y-68113745D01*
X184414054Y-68237715D01*
X184563275Y-68329756D01*
X184563280Y-68329758D01*
X184729702Y-68384905D01*
X184729709Y-68384906D01*
X184832419Y-68395399D01*
X185602399Y-68395399D01*
X186102400Y-68395399D01*
X186872372Y-68395399D01*
X186872386Y-68395398D01*
X186975097Y-68384905D01*
X187141519Y-68329758D01*
X187141524Y-68329756D01*
X187290745Y-68237715D01*
X187414715Y-68113745D01*
X187506756Y-67964524D01*
X187506758Y-67964519D01*
X187561905Y-67798097D01*
X187561906Y-67798090D01*
X187572399Y-67695386D01*
X187572400Y-67695373D01*
X187572400Y-67585400D01*
X186102400Y-67585400D01*
X186102400Y-68395399D01*
X185602399Y-68395399D01*
X185602400Y-68395398D01*
X185602400Y-67585400D01*
X184132401Y-67585400D01*
X184132401Y-67695386D01*
X182880000Y-67695386D01*
X182880000Y-66975413D01*
X184132400Y-66975413D01*
X184132400Y-67085400D01*
X185602400Y-67085400D01*
X186102400Y-67085400D01*
X187572399Y-67085400D01*
X187572399Y-66975428D01*
X187572398Y-66975413D01*
X187561905Y-66872702D01*
X187506758Y-66706280D01*
X187506756Y-66706275D01*
X187414715Y-66557054D01*
X187290745Y-66433084D01*
X187141524Y-66341043D01*
X187141519Y-66341041D01*
X186975097Y-66285894D01*
X186975090Y-66285893D01*
X186872386Y-66275400D01*
X186102400Y-66275400D01*
X186102400Y-67085400D01*
X185602400Y-67085400D01*
X185602400Y-66275400D01*
X184832428Y-66275400D01*
X184832412Y-66275401D01*
X184729702Y-66285894D01*
X184563280Y-66341041D01*
X184563275Y-66341043D01*
X184414054Y-66433084D01*
X184290084Y-66557054D01*
X184198043Y-66706275D01*
X184198041Y-66706280D01*
X184142894Y-66872702D01*
X184142893Y-66872709D01*
X184132400Y-66975413D01*
X182880000Y-66975413D01*
X182880000Y-62125400D01*
X182899685Y-62058361D01*
X182952489Y-62012606D01*
X183004000Y-62001400D01*
X238559871Y-62001400D01*
X238626910Y-62021085D01*
G37*
%TD.AperFunction*%
%TD*%
M02*
