%TF.GenerationSoftware,KiCad,Pcbnew,10.0.4*%
%TF.CreationDate,2026-07-16T22:42:47+02:00*%
%TF.ProjectId,nixieclocklogic_V2-2,6e697869-6563-46c6-9f63-6b6c6f676963,2.2*%
%TF.SameCoordinates,Original*%
%TF.FileFunction,Soldermask,Bot*%
%TF.FilePolarity,Negative*%
%FSLAX46Y46*%
G04 Gerber Fmt 4.6, Leading zero omitted, Abs format (unit mm)*
G04 Created by KiCad (PCBNEW 10.0.4) date 2026-07-16 22:42:47*
%MOMM*%
%LPD*%
G01*
G04 APERTURE LIST*
G04 Aperture macros list*
%AMRoundRect*
0 Rectangle with rounded corners*
0 $1 Rounding radius*
0 $2 $3 $4 $5 $6 $7 $8 $9 X,Y pos of 4 corners*
0 Add a 4 corners polygon primitive as box body*
4,1,4,$2,$3,$4,$5,$6,$7,$8,$9,$2,$3,0*
0 Add four circle primitives for the rounded corners*
1,1,$1+$1,$2,$3*
1,1,$1+$1,$4,$5*
1,1,$1+$1,$6,$7*
1,1,$1+$1,$8,$9*
0 Add four rect primitives between the rounded corners*
20,1,$1+$1,$2,$3,$4,$5,0*
20,1,$1+$1,$4,$5,$6,$7,0*
20,1,$1+$1,$6,$7,$8,$9,0*
20,1,$1+$1,$8,$9,$2,$3,0*%
G04 Aperture macros list end*
%ADD10R,1.700000X1.700000*%
%ADD11C,1.700000*%
%ADD12RoundRect,0.250000X-0.550000X-0.550000X0.550000X-0.550000X0.550000X0.550000X-0.550000X0.550000X0*%
%ADD13C,1.600000*%
%ADD14O,3.200000X3.200000*%
%ADD15RoundRect,0.250000X0.900000X-0.750000X0.900000X0.750000X-0.900000X0.750000X-0.900000X-0.750000X0*%
%ADD16O,2.300000X2.000000*%
%ADD17C,1.000000*%
%ADD18RoundRect,0.250000X-0.550000X0.550000X-0.550000X-0.550000X0.550000X-0.550000X0.550000X0.550000X0*%
%ADD19RoundRect,0.250000X0.550000X0.550000X-0.550000X0.550000X-0.550000X-0.550000X0.550000X-0.550000X0*%
%ADD20RoundRect,0.248400X-0.651600X-0.651600X0.651600X-0.651600X0.651600X0.651600X-0.651600X0.651600X0*%
%ADD21C,1.800000*%
%ADD22RoundRect,0.250000X0.970000X0.310000X-0.970000X0.310000X-0.970000X-0.310000X0.970000X-0.310000X0*%
%ADD23RoundRect,0.250000X0.450000X-0.350000X0.450000X0.350000X-0.450000X0.350000X-0.450000X-0.350000X0*%
%ADD24RoundRect,0.100000X-0.737500X0.100000X-0.737500X-0.100000X0.737500X-0.100000X0.737500X0.100000X0*%
%ADD25O,1.550000X0.890000*%
%ADD26RoundRect,0.250000X-0.525000X0.475000X-0.525000X-0.475000X0.525000X-0.475000X0.525000X0.475000X0*%
%ADD27O,0.950000X1.250000*%
%ADD28RoundRect,0.250000X-0.525000X0.500000X-0.525000X-0.500000X0.525000X-0.500000X0.525000X0.500000X0*%
%ADD29RoundRect,0.150000X0.512500X0.150000X-0.512500X0.150000X-0.512500X-0.150000X0.512500X-0.150000X0*%
%ADD30R,3.000000X3.000000*%
%ADD31C,3.000000*%
%ADD32RoundRect,0.250000X-0.970000X-0.310000X0.970000X-0.310000X0.970000X0.310000X-0.970000X0.310000X0*%
G04 APERTURE END LIST*
D10*
%TO.C,J3*%
X156730395Y-63756586D03*
D11*
X154190395Y-63756586D03*
X151650395Y-63756586D03*
X149110395Y-63756586D03*
X146570395Y-63756586D03*
X144030395Y-63756586D03*
X141490395Y-63756586D03*
X138950395Y-63756586D03*
%TD*%
D12*
%TO.C,U2*%
X142626000Y-71983600D03*
D13*
X142626000Y-74523600D03*
X142626000Y-77063600D03*
X142626000Y-79603600D03*
X150246000Y-79603600D03*
X150246000Y-77063600D03*
X150246000Y-74523600D03*
X150246000Y-71983600D03*
%TD*%
%TO.C,C6*%
X135148000Y-69418200D03*
X137648000Y-69418200D03*
%TD*%
D14*
%TO.C,U4*%
X105016200Y-93356408D03*
D15*
X83642200Y-67491408D03*
D16*
X83642200Y-70031408D03*
X83642200Y-72571408D03*
X83642200Y-90624408D03*
X83642200Y-93164408D03*
%TD*%
D17*
%TO.C,Y1*%
X136345800Y-74726800D03*
X136345800Y-77266800D03*
%TD*%
D10*
%TO.C,J4*%
X88203688Y-104622358D03*
D11*
X85663688Y-104622358D03*
X83123688Y-104622358D03*
X80583688Y-104622358D03*
%TD*%
D15*
%TO.C,U6*%
X224279000Y-88253600D03*
D16*
X224274000Y-71053600D03*
X185074000Y-88353600D03*
X185074000Y-71053600D03*
%TD*%
D18*
%TO.C,C4*%
X200787000Y-94347021D03*
D13*
X200787000Y-96847021D03*
%TD*%
D12*
%TO.C,C5*%
X230719620Y-95478600D03*
D13*
X233219620Y-95478600D03*
%TD*%
D12*
%TO.C,U7*%
X77221000Y-98597800D03*
D13*
X77221000Y-101137800D03*
X84841000Y-101137800D03*
X84841000Y-98597800D03*
%TD*%
D19*
%TO.C,C12*%
X118428779Y-78308200D03*
D13*
X115928779Y-78308200D03*
%TD*%
D20*
%TO.C,U3*%
X115417600Y-65500800D03*
D21*
X117957600Y-65500800D03*
X120497600Y-65500800D03*
%TD*%
D22*
%TO.C,SW3*%
X218427600Y-67233800D03*
X209817600Y-67233800D03*
%TD*%
D23*
%TO.C,R3*%
X149148800Y-68624200D03*
X149148800Y-66624200D03*
%TD*%
D13*
%TO.C,R6*%
X124612400Y-70358000D03*
X127152400Y-70358000D03*
%TD*%
D24*
%TO.C,J2*%
X235013100Y-84552000D03*
X235013100Y-85202000D03*
X235013100Y-85852000D03*
X235013100Y-86502000D03*
X235013100Y-87152000D03*
D25*
X237875600Y-82352000D03*
D26*
X237875600Y-82827000D03*
D27*
X235175600Y-83352000D03*
D28*
X237875600Y-84852000D03*
X237875600Y-86852000D03*
D27*
X235175600Y-88352000D03*
D26*
X237875600Y-88877000D03*
D25*
X237875600Y-89352000D03*
%TD*%
D29*
%TO.C,U22*%
X192196300Y-83886000D03*
X192196300Y-84836000D03*
X192196300Y-85786000D03*
X189921300Y-85786000D03*
X189921300Y-84836000D03*
X189921300Y-83886000D03*
%TD*%
D30*
%TO.C,BT1*%
X143547055Y-91186000D03*
D31*
X122747055Y-91186000D03*
%TD*%
D10*
%TO.C,J1*%
X229992902Y-81965800D03*
D11*
X229992902Y-84505800D03*
X229992902Y-87045800D03*
X229992902Y-89585800D03*
%TD*%
D32*
%TO.C,SW2*%
X197942800Y-67233800D03*
X206552800Y-67233800D03*
%TD*%
D23*
%TO.C,R1*%
X151676206Y-68612584D03*
X151676206Y-66612584D03*
%TD*%
D22*
%TO.C,SW1*%
X194462400Y-67335400D03*
X185852400Y-67335400D03*
%TD*%
D32*
%TO.C,SW4*%
X221793400Y-67233800D03*
X230403400Y-67233800D03*
%TD*%
%TO.C,SW5*%
X170675600Y-97790000D03*
X179285600Y-97790000D03*
%TD*%
M02*
