M48
; DRILL file KiCad 10.0.0 date 2026-06-28T23:56:26
; FORMAT={-:-/ absolute / metric / decimal}
; #@! TF.CreationDate,2026-06-28T23:56:26+02:00
; #@! TF.GenerationSoftware,Kicad,Pcbnew,10.0.0
; #@! TF.FileFunction,Plated,1,2,PTH
FMAT,2
METRIC
; #@! TA.AperFunction,Plated,PTH,ComponentDrill
T1C0.200
; #@! TA.AperFunction,Plated,PTH,ViaDrill
T2C0.300
; #@! TA.AperFunction,Plated,PTH,ViaDrill
T3C0.400
; #@! TA.AperFunction,Plated,PTH,ComponentDrill
T4C0.500
; #@! TA.AperFunction,Plated,PTH,ComponentDrill
T5C0.550
; #@! TA.AperFunction,Plated,PTH,ComponentDrill
T6C0.800
; #@! TA.AperFunction,Plated,PTH,ComponentDrill
T7C0.900
; #@! TA.AperFunction,Plated,PTH,ComponentDrill
T8C1.000
; #@! TA.AperFunction,Plated,PTH,ComponentDrill
T9C1.300
; #@! TA.AperFunction,Plated,PTH,ComponentDrill
T10C1.500
; #@! TA.AperFunction,Plated,PTH,ComponentDrill
T11C3.000
%
G90
G05
T1
X169.539Y-76.386
X169.539Y-77.786
X170.239Y-75.686
X170.239Y-77.086
X170.239Y-78.486
X170.939Y-76.386
X170.939Y-77.786
X171.639Y-75.686
X171.639Y-77.086
X171.639Y-78.486
X172.339Y-76.386
X172.339Y-77.786
T2
X152.121Y-86.284
X153.391Y-90.297
X153.899Y-78.486
X158.42Y-74.574
X159.995Y-87.478
X160.071Y-78.283
X160.858Y-75.768
X161.011Y-85.903
X161.442Y-73.355
X165.379Y-84.684
X166.345Y-78.207
X167.64Y-92.71
X169.342Y-84.582
X170.586Y-84.912
X171.78Y-84.684
X173.05Y-85.039
X177.673Y-76.098
X181.432Y-97.79
X188.747Y-85.877
X205.283Y-85.801
T3
X118.059Y-72.974
X124.612Y-71.984
X157.785Y-69.317
X183.185Y-67.869
X217.246Y-85.776
X224.434Y-85.776
T4
X136.346Y-74.727
X136.346Y-77.267
T6
X115.929Y-78.308
X118.429Y-78.308
X124.612Y-70.358
X127.152Y-70.358
X135.148Y-69.418
X137.648Y-69.418
X142.626Y-71.984
X142.626Y-74.524
X142.626Y-77.064
X142.626Y-79.604
X150.246Y-71.984
X150.246Y-74.524
X150.246Y-77.064
X150.246Y-79.604
X200.787Y-94.347
X200.787Y-96.847
X230.72Y-95.479
X233.22Y-95.479
T7
X115.418Y-65.501
X117.958Y-65.501
X120.498Y-65.501
T8
X80.584Y-104.622
X83.124Y-104.622
X85.664Y-104.622
X88.204Y-104.622
X138.95Y-63.757
X141.49Y-63.757
X144.03Y-63.757
X146.57Y-63.757
X149.11Y-63.757
X151.65Y-63.757
X154.19Y-63.757
X156.73Y-63.757
X228.194Y-81.991
X228.194Y-84.531
X228.194Y-87.071
X228.194Y-89.611
T9
X83.693Y-69.907
X83.693Y-72.447
X83.693Y-74.987
X83.693Y-93.04
X83.693Y-95.58
X185.074Y-71.054
X185.074Y-88.354
X224.274Y-71.054
X224.279Y-88.254
T10
X122.747Y-91.186
X143.547Y-91.186
T11
X105.067Y-95.772
T4
G00X238.201Y-82.352
M15
G01X237.551Y-82.352
M16
G05
G00X238.201Y-89.352
M15
G01X237.551Y-89.352
M16
G05
T5
G00X235.176Y-83.202
M15
G01X235.176Y-83.502
M16
G05
G00X235.176Y-88.202
M15
G01X235.176Y-88.502
M16
G05
M30
