%TF.GenerationSoftware,KiCad,Pcbnew,10.0.0*%
%TF.CreationDate,2026-06-28T23:56:20+02:00*%
%TF.ProjectId,nixieclocklogic_V2-1,6e697869-6563-46c6-9f63-6b6c6f676963,rev?*%
%TF.SameCoordinates,Original*%
%TF.FileFunction,Soldermask,Top*%
%TF.FilePolarity,Negative*%
%FSLAX46Y46*%
G04 Gerber Fmt 4.6, Leading zero omitted, Abs format (unit mm)*
G04 Created by KiCad (PCBNEW 10.0.0) date 2026-06-28 23:56:20*
%MOMM*%
%LPD*%
G01*
G04 APERTURE LIST*
G04 Aperture macros list*
%AMRoundRect*
0 Rectangle with rounded corners*
0 $1 Rounding radius*
0 $2 $3 $4 $5 $6 $7 $8 $9 X,Y pos of 4 corners*
0 Add a 4 corners polygon primitive as box body*
4,1,4,$2,$3,$4,$5,$6,$7,$8,$9,$2,$3,0*
0 Add four circle primitives for the rounded corners*
1,1,$1+$1,$2,$3*
1,1,$1+$1,$4,$5*
1,1,$1+$1,$6,$7*
1,1,$1+$1,$8,$9*
0 Add four rect primitives between the rounded corners*
20,1,$1+$1,$2,$3,$4,$5,0*
20,1,$1+$1,$4,$5,$6,$7,0*
20,1,$1+$1,$6,$7,$8,$9,0*
20,1,$1+$1,$8,$9,$2,$3,0*%
G04 Aperture macros list end*
%ADD10RoundRect,0.250000X-0.450000X0.350000X-0.450000X-0.350000X0.450000X-0.350000X0.450000X0.350000X0*%
%ADD11R,1.700000X1.700000*%
%ADD12C,1.700000*%
%ADD13RoundRect,0.250000X0.350000X0.450000X-0.350000X0.450000X-0.350000X-0.450000X0.350000X-0.450000X0*%
%ADD14RoundRect,0.375000X0.625000X0.375000X-0.625000X0.375000X-0.625000X-0.375000X0.625000X-0.375000X0*%
%ADD15RoundRect,0.500000X0.500000X1.400000X-0.500000X1.400000X-0.500000X-1.400000X0.500000X-1.400000X0*%
%ADD16RoundRect,0.250000X-0.550000X-0.550000X0.550000X-0.550000X0.550000X0.550000X-0.550000X0.550000X0*%
%ADD17C,1.600000*%
%ADD18R,2.000000X0.900000*%
%ADD19R,0.935000X2.000000*%
%ADD20R,0.900000X2.000000*%
%ADD21R,0.895000X2.000000*%
%ADD22C,0.600000*%
%ADD23R,3.900000X3.900000*%
%ADD24O,3.200000X3.200000*%
%ADD25RoundRect,0.250000X0.900000X-0.750000X0.900000X0.750000X-0.900000X0.750000X-0.900000X-0.750000X0*%
%ADD26O,2.300000X2.000000*%
%ADD27C,1.000000*%
%ADD28RoundRect,0.155000X0.155000X-0.212500X0.155000X0.212500X-0.155000X0.212500X-0.155000X-0.212500X0*%
%ADD29RoundRect,0.250000X-0.550000X0.550000X-0.550000X-0.550000X0.550000X-0.550000X0.550000X0.550000X0*%
%ADD30RoundRect,0.250000X-0.475000X0.337500X-0.475000X-0.337500X0.475000X-0.337500X0.475000X0.337500X0*%
%ADD31RoundRect,0.155000X-0.155000X0.212500X-0.155000X-0.212500X0.155000X-0.212500X0.155000X0.212500X0*%
%ADD32RoundRect,0.250000X-0.350000X-0.450000X0.350000X-0.450000X0.350000X0.450000X-0.350000X0.450000X0*%
%ADD33RoundRect,0.250000X0.550000X0.550000X-0.550000X0.550000X-0.550000X-0.550000X0.550000X-0.550000X0*%
%ADD34RoundRect,0.250000X0.450000X-0.350000X0.450000X0.350000X-0.450000X0.350000X-0.450000X-0.350000X0*%
%ADD35RoundRect,0.248400X-0.651600X-0.651600X0.651600X-0.651600X0.651600X0.651600X-0.651600X0.651600X0*%
%ADD36C,1.800000*%
%ADD37O,1.550000X0.890000*%
%ADD38O,0.950000X1.250000*%
%ADD39R,3.000000X3.000000*%
%ADD40C,3.000000*%
G04 APERTURE END LIST*
D10*
%TO.C,R2*%
X159740600Y-70288400D03*
X159740600Y-72288400D03*
%TD*%
D11*
%TO.C,J3*%
X156730395Y-63756586D03*
D12*
X154190395Y-63756586D03*
X151650395Y-63756586D03*
X149110395Y-63756586D03*
X146570395Y-63756586D03*
X144030395Y-63756586D03*
X141490395Y-63756586D03*
X138950395Y-63756586D03*
%TD*%
D13*
%TO.C,R4*%
X132191000Y-66929000D03*
X130191000Y-66929000D03*
%TD*%
D14*
%TO.C,U5*%
X213818000Y-96686400D03*
X213818000Y-94386400D03*
D15*
X207518000Y-94386400D03*
D14*
X213818000Y-92086400D03*
%TD*%
D16*
%TO.C,U2*%
X142626000Y-71983600D03*
D17*
X142626000Y-74523600D03*
X142626000Y-77063600D03*
X142626000Y-79603600D03*
X150246000Y-79603600D03*
X150246000Y-77063600D03*
X150246000Y-74523600D03*
X150246000Y-71983600D03*
%TD*%
%TO.C,C6*%
X135148000Y-69418200D03*
X137648000Y-69418200D03*
%TD*%
D18*
%TO.C,U1*%
X163439000Y-69366000D03*
X163439000Y-70636000D03*
X163439000Y-71906000D03*
X163439000Y-73176000D03*
X163439000Y-74446000D03*
X163439000Y-75716000D03*
X163439000Y-76986000D03*
X163439000Y-78256000D03*
X163439000Y-79526000D03*
X163439000Y-80796000D03*
X163439000Y-82066000D03*
X163439000Y-83336000D03*
X163439000Y-84606000D03*
X163439000Y-85876000D03*
D19*
X165471500Y-87376000D03*
D20*
X166724000Y-87376000D03*
D21*
X167991500Y-87376000D03*
D20*
X169264000Y-87376000D03*
X170534000Y-87376000D03*
X171804000Y-87376000D03*
X173074000Y-87376000D03*
X174344000Y-87376000D03*
X175614000Y-87376000D03*
X176884000Y-87376000D03*
X178154000Y-87376000D03*
X179424000Y-87376000D03*
D18*
X181439000Y-85876000D03*
X181439000Y-84606000D03*
X181439000Y-83336000D03*
X181439000Y-82066000D03*
X181439000Y-80796000D03*
X181439000Y-79526000D03*
X181439000Y-78256000D03*
X181439000Y-76986000D03*
X181439000Y-75716000D03*
X181439000Y-74446000D03*
X181439000Y-73176000D03*
X181439000Y-71906000D03*
X181439000Y-70636000D03*
X181439000Y-69366000D03*
D22*
X169539000Y-76386000D03*
X169539000Y-77786000D03*
X170239000Y-75686000D03*
X170239000Y-77086000D03*
X170239000Y-78486000D03*
X170939000Y-76386000D03*
D23*
X170939000Y-77086000D03*
D22*
X170939000Y-77786000D03*
X171639000Y-75686000D03*
X171639000Y-77086000D03*
X171639000Y-78486000D03*
X172339000Y-76386000D03*
X172339000Y-77786000D03*
%TD*%
D13*
%TO.C,R22*%
X116205000Y-70459600D03*
X114205000Y-70459600D03*
%TD*%
D24*
%TO.C,U4*%
X105067000Y-95772200D03*
D25*
X83693000Y-69907200D03*
D26*
X83693000Y-72447200D03*
X83693000Y-74987200D03*
X83693000Y-93040200D03*
X83693000Y-95580200D03*
%TD*%
D27*
%TO.C,Y1*%
X136345800Y-74726800D03*
X136345800Y-77266800D03*
%TD*%
D11*
%TO.C,J1*%
X228193600Y-81991200D03*
D12*
X228193600Y-84531200D03*
X228193600Y-87071200D03*
X228193600Y-89611200D03*
%TD*%
D11*
%TO.C,J4*%
X88203688Y-104622358D03*
D12*
X85663688Y-104622358D03*
X83123688Y-104622358D03*
X80583688Y-104622358D03*
%TD*%
D28*
%TO.C,C1*%
X139420600Y-74447400D03*
X139420600Y-73312400D03*
%TD*%
D29*
%TO.C,C4*%
X200787000Y-94347021D03*
D17*
X200787000Y-96847021D03*
%TD*%
D16*
%TO.C,C5*%
X230719620Y-95478600D03*
D17*
X233219620Y-95478600D03*
%TD*%
D30*
%TO.C,C3*%
X219405200Y-93937000D03*
X219405200Y-96012000D03*
%TD*%
D31*
%TO.C,C2*%
X139369800Y-77673200D03*
X139369800Y-78808200D03*
%TD*%
D32*
%TO.C,R23*%
X119837200Y-70434200D03*
X121837200Y-70434200D03*
%TD*%
D33*
%TO.C,C12*%
X118428779Y-78308200D03*
D17*
X115928779Y-78308200D03*
%TD*%
D34*
%TO.C,R5*%
X127152400Y-66989200D03*
X127152400Y-64989200D03*
%TD*%
D32*
%TO.C,R20*%
X173666400Y-91363800D03*
X175666400Y-91363800D03*
%TD*%
D35*
%TO.C,U3*%
X115417600Y-65500800D03*
D36*
X117957600Y-65500800D03*
X120497600Y-65500800D03*
%TD*%
D17*
%TO.C,R6*%
X124612400Y-70358000D03*
X127152400Y-70358000D03*
%TD*%
D37*
%TO.C,J2*%
X237875600Y-82352000D03*
D38*
X235175600Y-83352000D03*
X235175600Y-88352000D03*
D37*
X237875600Y-89352000D03*
%TD*%
D39*
%TO.C,BT1*%
X143547055Y-91186000D03*
D40*
X122747055Y-91186000D03*
%TD*%
D25*
%TO.C,U6*%
X224279000Y-88253600D03*
D26*
X224274000Y-71053600D03*
X185074000Y-88353600D03*
X185074000Y-71053600D03*
%TD*%
M02*
