%TF.GenerationSoftware,KiCad,Pcbnew,10.0.4*%
%TF.CreationDate,2026-07-16T22:42:47+02:00*%
%TF.ProjectId,nixieclocklogic_V2-2,6e697869-6563-46c6-9f63-6b6c6f676963,2.2*%
%TF.SameCoordinates,Original*%
%TF.FileFunction,Copper,L2,Bot*%
%TF.FilePolarity,Positive*%
%FSLAX46Y46*%
G04 Gerber Fmt 4.6, Leading zero omitted, Abs format (unit mm)*
G04 Created by KiCad (PCBNEW 10.0.4) date 2026-07-16 22:42:47*
%MOMM*%
%LPD*%
G01*
G04 APERTURE LIST*
G04 Aperture macros list*
%AMRoundRect*
0 Rectangle with rounded corners*
0 $1 Rounding radius*
0 $2 $3 $4 $5 $6 $7 $8 $9 X,Y pos of 4 corners*
0 Add a 4 corners polygon primitive as box body*
4,1,4,$2,$3,$4,$5,$6,$7,$8,$9,$2,$3,0*
0 Add four circle primitives for the rounded corners*
1,1,$1+$1,$2,$3*
1,1,$1+$1,$4,$5*
1,1,$1+$1,$6,$7*
1,1,$1+$1,$8,$9*
0 Add four rect primitives between the rounded corners*
20,1,$1+$1,$2,$3,$4,$5,0*
20,1,$1+$1,$4,$5,$6,$7,0*
20,1,$1+$1,$6,$7,$8,$9,0*
20,1,$1+$1,$8,$9,$2,$3,0*%
G04 Aperture macros list end*
%TA.AperFunction,ComponentPad*%
%ADD10R,1.700000X1.700000*%
%TD*%
%TA.AperFunction,ComponentPad*%
%ADD11C,1.700000*%
%TD*%
%TA.AperFunction,ComponentPad*%
%ADD12RoundRect,0.250000X-0.550000X-0.550000X0.550000X-0.550000X0.550000X0.550000X-0.550000X0.550000X0*%
%TD*%
%TA.AperFunction,ComponentPad*%
%ADD13C,1.600000*%
%TD*%
%TA.AperFunction,HeatsinkPad*%
%ADD14C,0.600000*%
%TD*%
%TA.AperFunction,ComponentPad*%
%ADD15O,3.200000X3.200000*%
%TD*%
%TA.AperFunction,ComponentPad*%
%ADD16RoundRect,0.250000X0.900000X-0.750000X0.900000X0.750000X-0.900000X0.750000X-0.900000X-0.750000X0*%
%TD*%
%TA.AperFunction,ComponentPad*%
%ADD17O,2.300000X2.000000*%
%TD*%
%TA.AperFunction,ComponentPad*%
%ADD18C,1.000000*%
%TD*%
%TA.AperFunction,ComponentPad*%
%ADD19RoundRect,0.250000X-0.550000X0.550000X-0.550000X-0.550000X0.550000X-0.550000X0.550000X0.550000X0*%
%TD*%
%TA.AperFunction,ComponentPad*%
%ADD20RoundRect,0.250000X0.550000X0.550000X-0.550000X0.550000X-0.550000X-0.550000X0.550000X-0.550000X0*%
%TD*%
%TA.AperFunction,ComponentPad*%
%ADD21RoundRect,0.248400X-0.651600X-0.651600X0.651600X-0.651600X0.651600X0.651600X-0.651600X0.651600X0*%
%TD*%
%TA.AperFunction,ComponentPad*%
%ADD22C,1.800000*%
%TD*%
%TA.AperFunction,SMDPad,CuDef*%
%ADD23RoundRect,0.250000X0.970000X0.310000X-0.970000X0.310000X-0.970000X-0.310000X0.970000X-0.310000X0*%
%TD*%
%TA.AperFunction,SMDPad,CuDef*%
%ADD24RoundRect,0.250000X0.450000X-0.350000X0.450000X0.350000X-0.450000X0.350000X-0.450000X-0.350000X0*%
%TD*%
%TA.AperFunction,SMDPad,CuDef*%
%ADD25RoundRect,0.100000X-0.737500X0.100000X-0.737500X-0.100000X0.737500X-0.100000X0.737500X0.100000X0*%
%TD*%
%TA.AperFunction,ComponentPad*%
%ADD26O,1.550000X0.890000*%
%TD*%
%TA.AperFunction,SMDPad,CuDef*%
%ADD27RoundRect,0.250000X-0.525000X0.475000X-0.525000X-0.475000X0.525000X-0.475000X0.525000X0.475000X0*%
%TD*%
%TA.AperFunction,ComponentPad*%
%ADD28O,0.950000X1.250000*%
%TD*%
%TA.AperFunction,SMDPad,CuDef*%
%ADD29RoundRect,0.250000X-0.525000X0.500000X-0.525000X-0.500000X0.525000X-0.500000X0.525000X0.500000X0*%
%TD*%
%TA.AperFunction,SMDPad,CuDef*%
%ADD30RoundRect,0.150000X0.512500X0.150000X-0.512500X0.150000X-0.512500X-0.150000X0.512500X-0.150000X0*%
%TD*%
%TA.AperFunction,ComponentPad*%
%ADD31R,3.000000X3.000000*%
%TD*%
%TA.AperFunction,ComponentPad*%
%ADD32C,3.000000*%
%TD*%
%TA.AperFunction,SMDPad,CuDef*%
%ADD33RoundRect,0.250000X-0.970000X-0.310000X0.970000X-0.310000X0.970000X0.310000X-0.970000X0.310000X0*%
%TD*%
%TA.AperFunction,ViaPad*%
%ADD34C,0.600000*%
%TD*%
%TA.AperFunction,ViaPad*%
%ADD35C,0.800000*%
%TD*%
%TA.AperFunction,Conductor*%
%ADD36C,0.600000*%
%TD*%
%TA.AperFunction,Conductor*%
%ADD37C,0.300000*%
%TD*%
G04 APERTURE END LIST*
D10*
%TO.P,J3,1,Pin_1_1*%
%TO.N,VCC*%
X156730395Y-63756586D03*
D11*
%TO.P,J3,2,Pin_2_2*%
X154190395Y-63756586D03*
%TO.P,J3,3,Pin_3_3*%
%TO.N,/SCL*%
X151650395Y-63756586D03*
%TO.P,J3,4,Pin_4_4*%
%TO.N,/SDA*%
X149110395Y-63756586D03*
%TO.P,J3,5,Pin_5_5*%
%TO.N,unconnected-(J3-Pin_5-Pad5)*%
X146570395Y-63756586D03*
%TO.P,J3,6,Pin_6_6*%
%TO.N,Net-(J3-Pin_6)*%
X144030395Y-63756586D03*
%TO.P,J3,7,Pin_7_7*%
%TO.N,GND*%
X141490395Y-63756586D03*
%TO.P,J3,8,Pin_8_8*%
X138950395Y-63756586D03*
%TD*%
D12*
%TO.P,U2,1,VCC2_1*%
%TO.N,+3.3V*%
X142626000Y-71983600D03*
D13*
%TO.P,U2,2,X1_2*%
%TO.N,Net-(U2-X1)*%
X142626000Y-74523600D03*
%TO.P,U2,3,X2_3*%
%TO.N,Net-(U2-X2)*%
X142626000Y-77063600D03*
%TO.P,U2,4,GND_4*%
%TO.N,GND*%
X142626000Y-79603600D03*
%TO.P,U2,5,CE_5*%
%TO.N,Net-(U1-IO2)*%
X150246000Y-79603600D03*
%TO.P,U2,6,I/O_6*%
%TO.N,Net-(U1-IO4)*%
X150246000Y-77063600D03*
%TO.P,U2,7,SCLK_7*%
%TO.N,Net-(U1-IO5)*%
X150246000Y-74523600D03*
%TO.P,U2,8,VCC1_8*%
%TO.N,Net-(BT1-+)*%
X150246000Y-71983600D03*
%TD*%
%TO.P,C6,1*%
%TO.N,Net-(C6-Pad1)*%
X135148000Y-69418200D03*
%TO.P,C6,2*%
%TO.N,GND*%
X137648000Y-69418200D03*
%TD*%
D14*
%TO.P,U1,41,GND_41*%
%TO.N,GND*%
X169539000Y-76386000D03*
X169539000Y-77786000D03*
X170239000Y-75686000D03*
X170239000Y-77086000D03*
X170239000Y-78486000D03*
X170939000Y-76386000D03*
X170939000Y-77786000D03*
X171639000Y-75686000D03*
X171639000Y-77086000D03*
X171639000Y-78486000D03*
X172339000Y-76386000D03*
X172339000Y-77786000D03*
%TD*%
D15*
%TO.P,U4,*%
%TO.N,*%
X105016200Y-93356408D03*
D16*
%TO.P,U4,1,VIN_1*%
%TO.N,/10V*%
X83642200Y-67491408D03*
D17*
%TO.P,U4,2,GND_2*%
%TO.N,GND*%
X83642200Y-70031408D03*
%TO.P,U4,3,SHDN_3*%
X83642200Y-72571408D03*
%TO.P,U4,4,GNDHV_4*%
%TO.N,/HVgnd*%
X83642200Y-90624408D03*
%TO.P,U4,5,VOUT_5*%
%TO.N,/HV*%
X83642200Y-93164408D03*
%TD*%
D18*
%TO.P,Y1,1,1_1*%
%TO.N,Net-(U2-X1)*%
X136345800Y-74726800D03*
%TO.P,Y1,2,2_2*%
%TO.N,Net-(U2-X2)*%
X136345800Y-77266800D03*
%TD*%
D10*
%TO.P,J4,1,Pin_1_1*%
%TO.N,/HV2*%
X88203688Y-104622358D03*
D11*
%TO.P,J4,2,Pin_2_2*%
X85663688Y-104622358D03*
%TO.P,J4,3,Pin_3_3*%
%TO.N,/HVgnd*%
X83123688Y-104622358D03*
%TO.P,J4,4,Pin_4_4*%
X80583688Y-104622358D03*
%TD*%
D16*
%TO.P,U6,1,VIN_1*%
%TO.N,VCC*%
X224279000Y-88253600D03*
D17*
%TO.P,U6,2,GND_2*%
%TO.N,GND*%
X224274000Y-71053600D03*
%TO.P,U6,3,VOUT_3*%
%TO.N,/10V*%
X185074000Y-88353600D03*
%TO.P,U6,4,GND_4*%
%TO.N,GND*%
X185074000Y-71053600D03*
%TD*%
D19*
%TO.P,C4,1*%
%TO.N,+3.3V*%
X200787000Y-94347021D03*
D13*
%TO.P,C4,2*%
%TO.N,GND*%
X200787000Y-96847021D03*
%TD*%
D12*
%TO.P,C5,1*%
%TO.N,VCC*%
X230719620Y-95478600D03*
D13*
%TO.P,C5,2*%
%TO.N,GND*%
X233219620Y-95478600D03*
%TD*%
D12*
%TO.P,U7,1*%
%TO.N,Net-(R7-Pad2)*%
X77221000Y-98597800D03*
D13*
%TO.P,U7,2*%
%TO.N,GND*%
X77221000Y-101137800D03*
%TO.P,U7,3*%
%TO.N,/HV2*%
X84841000Y-101137800D03*
%TO.P,U7,4*%
%TO.N,/HV*%
X84841000Y-98597800D03*
%TD*%
D20*
%TO.P,C12,1*%
%TO.N,Net-(U3-Vs)*%
X118428779Y-78308200D03*
D13*
%TO.P,C12,2*%
%TO.N,GND*%
X115928779Y-78308200D03*
%TD*%
D21*
%TO.P,U3,1,OUT_1*%
%TO.N,Net-(U1-IO48)*%
X115417600Y-65500800D03*
D22*
%TO.P,U3,2,GND_2*%
%TO.N,GND*%
X117957600Y-65500800D03*
%TO.P,U3,3,Vs_3*%
%TO.N,Net-(U3-Vs)*%
X120497600Y-65500800D03*
%TD*%
D23*
%TO.P,SW3,1,1_1*%
%TO.N,Net-(U1-IO11)*%
X218427600Y-67233800D03*
%TO.P,SW3,2,2_2*%
%TO.N,GND*%
X209817600Y-67233800D03*
%TD*%
D24*
%TO.P,R3,1*%
%TO.N,+3.3V*%
X149148800Y-68624200D03*
%TO.P,R3,2*%
%TO.N,/SDA*%
X149148800Y-66624200D03*
%TD*%
D13*
%TO.P,R6,1*%
%TO.N,+3.3V*%
X124612400Y-70358000D03*
%TO.P,R6,2*%
%TO.N,Net-(C6-Pad1)*%
X127152400Y-70358000D03*
%TD*%
D25*
%TO.P,J2,1,VBUS_1*%
%TO.N,VCC*%
X235013100Y-84552000D03*
%TO.P,J2,2,D-_2*%
%TO.N,Net-(J1-Pin_2)*%
X235013100Y-85202000D03*
%TO.P,J2,3,D+_3*%
%TO.N,Net-(J1-Pin_3)*%
X235013100Y-85852000D03*
%TO.P,J2,4,ID_4*%
%TO.N,unconnected-(J2-ID-Pad4)*%
X235013100Y-86502000D03*
%TO.P,J2,5,GND_5*%
%TO.N,GND*%
X235013100Y-87152000D03*
D26*
%TO.P,J2,SH,Shield_SH*%
X237875600Y-82352000D03*
D27*
X237875600Y-82827000D03*
D28*
X235175600Y-83352000D03*
D29*
X237875600Y-84852000D03*
X237875600Y-86852000D03*
D28*
X235175600Y-88352000D03*
D27*
X237875600Y-88877000D03*
D26*
X237875600Y-89352000D03*
%TD*%
D30*
%TO.P,U22,1,I/O1_1*%
%TO.N,Net-(J1-Pin_2)*%
X192196300Y-83886000D03*
%TO.P,U22,2,GND_2*%
%TO.N,GND*%
X192196300Y-84836000D03*
%TO.P,U22,3,I/O2_3*%
%TO.N,Net-(J1-Pin_3)*%
X192196300Y-85786000D03*
%TO.P,U22,4,I/O2_4*%
%TO.N,Net-(U1-USB_D+)*%
X189921300Y-85786000D03*
%TO.P,U22,5,VBUS_5*%
%TO.N,+3.3V*%
X189921300Y-84836000D03*
%TO.P,U22,6,I/O1_6*%
%TO.N,Net-(U1-USB_D-)*%
X189921300Y-83886000D03*
%TD*%
D31*
%TO.P,BT1,1,+_1*%
%TO.N,Net-(BT1-+)*%
X143547055Y-91186000D03*
D32*
%TO.P,BT1,2,-_2*%
%TO.N,GND*%
X122747055Y-91186000D03*
%TD*%
D10*
%TO.P,J1,1,Pin_1_1*%
%TO.N,VCC*%
X229992902Y-81965800D03*
D11*
%TO.P,J1,2,Pin_2_2*%
%TO.N,Net-(J1-Pin_2)*%
X229992902Y-84505800D03*
%TO.P,J1,3,Pin_3_3*%
%TO.N,Net-(J1-Pin_3)*%
X229992902Y-87045800D03*
%TO.P,J1,4,Pin_4_4*%
%TO.N,GND*%
X229992902Y-89585800D03*
%TD*%
D33*
%TO.P,SW2,1,1_1*%
%TO.N,Net-(U1-IO12)*%
X197942800Y-67233800D03*
%TO.P,SW2,2,2_2*%
%TO.N,GND*%
X206552800Y-67233800D03*
%TD*%
D24*
%TO.P,R1,1*%
%TO.N,+3.3V*%
X151676206Y-68612584D03*
%TO.P,R1,2*%
%TO.N,/SCL*%
X151676206Y-66612584D03*
%TD*%
D23*
%TO.P,SW1,1,1_1*%
%TO.N,Net-(U1-IO13)*%
X194462400Y-67335400D03*
%TO.P,SW1,2,2_2*%
%TO.N,GND*%
X185852400Y-67335400D03*
%TD*%
D33*
%TO.P,SW4,1,1_1*%
%TO.N,Net-(U1-IO10)*%
X221793400Y-67233800D03*
%TO.P,SW4,2,2_2*%
%TO.N,GND*%
X230403400Y-67233800D03*
%TD*%
%TO.P,SW5,1,1_1*%
%TO.N,GND*%
X170675600Y-97790000D03*
%TO.P,SW5,2,2_2*%
%TO.N,Net-(U1-IO0)*%
X179285600Y-97790000D03*
%TD*%
D34*
%TO.N,*%
X187909200Y-89230200D03*
X204444600Y-89255600D03*
D35*
%TO.N,+3.3V*%
X118059200Y-72974200D03*
X157784800Y-69316600D03*
X187426600Y-84810600D03*
X124612400Y-71983600D03*
%TO.N,VCC*%
X184023000Y-73507600D03*
D34*
%TO.N,GND*%
X152120600Y-86283800D03*
X167640000Y-92710000D03*
X159994600Y-87477600D03*
X160070800Y-78282800D03*
D35*
X194259200Y-84836000D03*
D34*
X153390600Y-90297000D03*
D35*
X73837800Y-83413600D03*
D34*
X166344600Y-78206600D03*
%TO.N,Net-(U1-IO6)*%
X153898600Y-78486000D03*
X160858200Y-75768200D03*
%TO.N,Net-(U1-IO2)*%
X177673000Y-76098400D03*
%TO.N,Net-(U1-IO4)*%
X161442400Y-73355200D03*
%TO.N,Net-(U1-IO5)*%
X158419800Y-74574400D03*
%TO.N,Net-(U1-IO7)*%
X158470600Y-80568800D03*
X157099000Y-92024200D03*
%TO.N,Net-(U1-USB_D-)*%
X165379400Y-84683600D03*
%TO.N,Net-(U1-USB_D+)*%
X161010600Y-85902800D03*
%TO.N,Net-(U1-IO10)*%
X169341800Y-84582000D03*
%TO.N,Net-(U1-IO11)*%
X170586400Y-84912200D03*
%TO.N,Net-(U1-IO12)*%
X171780200Y-84683600D03*
%TO.N,Net-(U1-IO13)*%
X173050200Y-85039200D03*
%TO.N,Net-(U1-IO0)*%
X181432200Y-97790000D03*
%TD*%
%TO.N,+3.3V*%
D36*
X144399000Y-71983600D02*
X147758400Y-68624200D01*
X119049800Y-71983600D02*
X118059200Y-72974200D01*
X187452000Y-84836000D02*
X187426600Y-84810600D01*
X200787000Y-94347021D02*
X163130221Y-94347021D01*
X124612400Y-71983600D02*
X119049800Y-71983600D01*
X189921300Y-84836000D02*
X187452000Y-84836000D01*
X146837400Y-74422000D02*
X144399000Y-71983600D01*
X144399000Y-71983600D02*
X142626000Y-71983600D01*
X163130221Y-94347021D02*
X156297621Y-94347021D01*
X157080784Y-68612584D02*
X157784800Y-69316600D01*
X142626000Y-71983600D02*
X124612400Y-71983600D01*
X156297621Y-94347021D02*
X146837400Y-84886800D01*
X149148800Y-68624200D02*
X151664590Y-68624200D01*
X151676206Y-68612584D02*
X157080784Y-68612584D01*
X147758400Y-68624200D02*
X149148800Y-68624200D01*
X151664590Y-68624200D02*
X151676206Y-68612584D01*
X146837400Y-84886800D02*
X146837400Y-74422000D01*
%TO.N,VCC*%
X231368600Y-81991200D02*
X233879400Y-84502000D01*
X156730395Y-65264995D02*
X163195000Y-71729600D01*
X224279000Y-88253600D02*
X224279000Y-90903600D01*
X163195000Y-71729600D02*
X179324000Y-71729600D01*
X228854000Y-95478600D02*
X230719620Y-95478600D01*
X179324000Y-71729600D02*
X181102000Y-73507600D01*
X233879400Y-84502000D02*
X235013100Y-84502000D01*
X181102000Y-73507600D02*
X184023000Y-73507600D01*
X154190395Y-63756586D02*
X154190395Y-64071805D01*
X224279000Y-90903600D02*
X228854000Y-95478600D01*
X231368600Y-81991200D02*
X230018302Y-81991200D01*
X230018302Y-81991200D02*
X229992902Y-81965800D01*
X156730395Y-63756586D02*
X156730395Y-65264995D01*
%TO.N,/SCL*%
D37*
X151676206Y-66612584D02*
X151676206Y-63782397D01*
X151676206Y-63782397D02*
X151650395Y-63756586D01*
%TO.N,/SDA*%
X149148800Y-63794991D02*
X149110395Y-63756586D01*
X149148800Y-66624200D02*
X149148800Y-63794991D01*
%TO.N,GND*%
D36*
X235063100Y-87202000D02*
X235013100Y-87202000D01*
X235175600Y-87314500D02*
X235063100Y-87202000D01*
X235175600Y-88352000D02*
X235175600Y-87314500D01*
X185099400Y-70904400D02*
X185076800Y-70904400D01*
X192196300Y-84836000D02*
X194259200Y-84836000D01*
%TO.N,Net-(U1-IO6)*%
D37*
X158140400Y-78486000D02*
X160858200Y-75768200D01*
X153898600Y-78486000D02*
X158140400Y-78486000D01*
%TO.N,Net-(U1-IO2)*%
X150246000Y-79603600D02*
X174167800Y-79603600D01*
X174167800Y-79603600D02*
X177673000Y-76098400D01*
%TO.N,Net-(U1-IO4)*%
X157734000Y-77063600D02*
X161442400Y-73355200D01*
X150246000Y-77063600D02*
X157734000Y-77063600D01*
%TO.N,Net-(U1-IO5)*%
X158369000Y-74523600D02*
X158419800Y-74574400D01*
X150246000Y-74523600D02*
X158369000Y-74523600D01*
%TO.N,Net-(U1-IO7)*%
X157099000Y-81940400D02*
X158470600Y-80568800D01*
X157099000Y-92024200D02*
X157099000Y-81940400D01*
%TO.N,Net-(U1-USB_D-)*%
X169087800Y-88392000D02*
X165379400Y-84683600D01*
X189921300Y-83886000D02*
X184109400Y-83886000D01*
X184109400Y-83886000D02*
X179603400Y-88392000D01*
X179603400Y-88392000D02*
X169087800Y-88392000D01*
%TO.N,Net-(U1-USB_D+)*%
X161010600Y-85902800D02*
X164998400Y-89890600D01*
X164998400Y-89890600D02*
X179882800Y-89890600D01*
X180060600Y-89890600D02*
X184165200Y-85786000D01*
X184165200Y-85786000D02*
X189921300Y-85786000D01*
X179882800Y-89890600D02*
X180060600Y-89890600D01*
%TO.N,Net-(U1-IO10)*%
X170357800Y-87376000D02*
X178663600Y-87376000D01*
X178663600Y-87376000D02*
X194894200Y-71145400D01*
X169341800Y-86360000D02*
X170357800Y-87376000D01*
X194894200Y-71145400D02*
X217881800Y-71145400D01*
X169341800Y-84582000D02*
X169341800Y-86360000D01*
X217881800Y-71145400D02*
X221793400Y-67233800D01*
%TO.N,Net-(U1-IO11)*%
X171373800Y-86487000D02*
X177927000Y-86487000D01*
X215214200Y-67233800D02*
X218427600Y-67233800D01*
X177927000Y-86487000D02*
X194513200Y-69900800D01*
X194513200Y-69900800D02*
X212547200Y-69900800D01*
X170586400Y-84912200D02*
X170637200Y-84963000D01*
X212547200Y-69900800D02*
X215214200Y-67233800D01*
X170637200Y-84963000D02*
X170637200Y-85750400D01*
X170637200Y-85750400D02*
X171373800Y-86487000D01*
%TO.N,Net-(U1-IO12)*%
X190779400Y-65786000D02*
X190728600Y-65735200D01*
X197154800Y-64744600D02*
X191719200Y-64744600D01*
X197942800Y-67233800D02*
X197942800Y-65532600D01*
X172999400Y-83464400D02*
X176250600Y-83464400D01*
X191719200Y-64744600D02*
X190728600Y-65735200D01*
X171780200Y-84683600D02*
X172999400Y-83464400D01*
X190779400Y-68935600D02*
X190779400Y-65786000D01*
X176250600Y-83464400D02*
X190779400Y-68935600D01*
X197942800Y-65532600D02*
X197154800Y-64744600D01*
%TO.N,Net-(U1-IO13)*%
X173050200Y-85039200D02*
X176758600Y-85039200D01*
X176758600Y-85039200D02*
X194462400Y-67335400D01*
%TO.N,Net-(U1-IO0)*%
X181432200Y-97790000D02*
X179285600Y-97790000D01*
%TO.N,Net-(J1-Pin_2)*%
X223890800Y-83886000D02*
X224536000Y-84531200D01*
X232217200Y-85202000D02*
X231546400Y-84531200D01*
X224536000Y-84531200D02*
X228193600Y-84531200D01*
X235013100Y-85202000D02*
X232217200Y-85202000D01*
X192196300Y-83886000D02*
X223890800Y-83886000D01*
X231546400Y-84531200D02*
X227863400Y-84531200D01*
%TO.N,Net-(J1-Pin_3)*%
X227025200Y-87071200D02*
X228193600Y-87071200D01*
X232232200Y-85852000D02*
X231013000Y-87071200D01*
X231013000Y-87071200D02*
X227863400Y-87071200D01*
X225740000Y-85786000D02*
X227025200Y-87071200D01*
X235013100Y-85852000D02*
X232232200Y-85852000D01*
X192196300Y-85786000D02*
X225740000Y-85786000D01*
%TD*%
%TA.AperFunction,Conductor*%
%TO.N,GND*%
G36*
X223637031Y-84556185D02*
G01*
X223657673Y-84572819D01*
X224008672Y-84923819D01*
X224042157Y-84985142D01*
X224037173Y-85054834D01*
X223995301Y-85110767D01*
X223929837Y-85135184D01*
X223920991Y-85135500D01*
X193456092Y-85135500D01*
X193389053Y-85115815D01*
X193365037Y-85095672D01*
X193356096Y-85086000D01*
X193090615Y-85086000D01*
X193027494Y-85068732D01*
X192994670Y-85049320D01*
X192969198Y-85034256D01*
X192969197Y-85034255D01*
X192969196Y-85034255D01*
X192969193Y-85034254D01*
X192811373Y-84988402D01*
X192811367Y-84988401D01*
X192774501Y-84985500D01*
X192774494Y-84985500D01*
X192320300Y-84985500D01*
X192311614Y-84982949D01*
X192302653Y-84984238D01*
X192278612Y-84973259D01*
X192253261Y-84965815D01*
X192247333Y-84958974D01*
X192239097Y-84955213D01*
X192224807Y-84932978D01*
X192207506Y-84913011D01*
X192205218Y-84902496D01*
X192201323Y-84896435D01*
X192196300Y-84861500D01*
X192196300Y-84810500D01*
X192215985Y-84743461D01*
X192268789Y-84697706D01*
X192320300Y-84686500D01*
X192774486Y-84686500D01*
X192774494Y-84686500D01*
X192811369Y-84683598D01*
X192811371Y-84683597D01*
X192811373Y-84683597D01*
X192889681Y-84660846D01*
X192969198Y-84637744D01*
X193027494Y-84603268D01*
X193090615Y-84586000D01*
X193356096Y-84586000D01*
X193365037Y-84576328D01*
X193424998Y-84540462D01*
X193456092Y-84536500D01*
X223569992Y-84536500D01*
X223637031Y-84556185D01*
G37*
%TD.AperFunction*%
%TA.AperFunction,Conductor*%
G36*
X83892200Y-71971406D02*
G01*
X83831798Y-71946387D01*
X83706219Y-71921408D01*
X83578181Y-71921408D01*
X83452602Y-71946387D01*
X83392200Y-71971406D01*
X83392200Y-70631409D01*
X83452602Y-70656429D01*
X83578181Y-70681408D01*
X83706219Y-70681408D01*
X83831798Y-70656429D01*
X83892200Y-70631409D01*
X83892200Y-71971406D01*
G37*
%TD.AperFunction*%
%TA.AperFunction,Conductor*%
G36*
X238626910Y-62021085D02*
G01*
X238672665Y-62073889D01*
X238683871Y-62125329D01*
X238694930Y-81346176D01*
X238675284Y-81413226D01*
X238622506Y-81459012D01*
X238553354Y-81468995D01*
X238523479Y-81460809D01*
X238481245Y-81443316D01*
X238481238Y-81443314D01*
X238298677Y-81407000D01*
X238125600Y-81407000D01*
X238125600Y-82102000D01*
X237625600Y-82102000D01*
X237625600Y-81407000D01*
X237452523Y-81407000D01*
X237269961Y-81443314D01*
X237269953Y-81443316D01*
X237097977Y-81514550D01*
X237097968Y-81514555D01*
X236943198Y-81617970D01*
X236943194Y-81617973D01*
X236811573Y-81749594D01*
X236811570Y-81749598D01*
X236708155Y-81904368D01*
X236708148Y-81904381D01*
X236636917Y-82076350D01*
X236636916Y-82076355D01*
X236631816Y-82102000D01*
X237500872Y-82102000D01*
X237408986Y-82140060D01*
X237338660Y-82210386D01*
X237300600Y-82302272D01*
X237300600Y-82401728D01*
X237338660Y-82493614D01*
X237408986Y-82563940D01*
X237500872Y-82602000D01*
X237875600Y-82602000D01*
X237875600Y-82827000D01*
X238001600Y-82827000D01*
X238068639Y-82846685D01*
X238114394Y-82899489D01*
X238125600Y-82951000D01*
X238125600Y-88753000D01*
X238105915Y-88820039D01*
X238053111Y-88865794D01*
X238001600Y-88877000D01*
X237875600Y-88877000D01*
X237875600Y-89102000D01*
X237500872Y-89102000D01*
X237408986Y-89140060D01*
X237338660Y-89210386D01*
X237300600Y-89302272D01*
X237300600Y-89401728D01*
X237338660Y-89493614D01*
X237408986Y-89563940D01*
X237500872Y-89602000D01*
X236631816Y-89602000D01*
X236636916Y-89627644D01*
X236636917Y-89627649D01*
X236708148Y-89799618D01*
X236708155Y-89799631D01*
X236811570Y-89954401D01*
X236811573Y-89954405D01*
X236943194Y-90086026D01*
X236943198Y-90086029D01*
X237097968Y-90189444D01*
X237097977Y-90189449D01*
X237269953Y-90260683D01*
X237269961Y-90260685D01*
X237452521Y-90296999D01*
X237452524Y-90297000D01*
X237625600Y-90297000D01*
X237625600Y-89602000D01*
X238125600Y-89602000D01*
X238125600Y-90297000D01*
X238298676Y-90297000D01*
X238298678Y-90296999D01*
X238481238Y-90260685D01*
X238481246Y-90260683D01*
X238528660Y-90241044D01*
X238598129Y-90233575D01*
X238660608Y-90264850D01*
X238696261Y-90324938D01*
X238700113Y-90355534D01*
X238709129Y-106022529D01*
X238689483Y-106089579D01*
X238636705Y-106135365D01*
X238585129Y-106146600D01*
X228978000Y-106146600D01*
X228910961Y-106126915D01*
X228865206Y-106074111D01*
X228854000Y-106022600D01*
X228854000Y-100863400D01*
X183743600Y-100863400D01*
X183743600Y-105997200D01*
X183723915Y-106064239D01*
X183671111Y-106109994D01*
X183619600Y-106121200D01*
X110029800Y-106121200D01*
X109962761Y-106101515D01*
X109917006Y-106048711D01*
X109905800Y-105997200D01*
X109905800Y-100391117D01*
X233643237Y-100391117D01*
X233643237Y-100668084D01*
X233643238Y-100668101D01*
X233679389Y-100942700D01*
X233751077Y-101210243D01*
X233857072Y-101466137D01*
X233857077Y-101466148D01*
X233995563Y-101706012D01*
X234164177Y-101925755D01*
X234164183Y-101925762D01*
X234360027Y-102121606D01*
X234360034Y-102121612D01*
X234579777Y-102290226D01*
X234819641Y-102428712D01*
X234819646Y-102428714D01*
X234819649Y-102428716D01*
X235075545Y-102534712D01*
X235343088Y-102606400D01*
X235617699Y-102642553D01*
X235617706Y-102642553D01*
X235894672Y-102642553D01*
X235894679Y-102642553D01*
X236169290Y-102606400D01*
X236436833Y-102534712D01*
X236692729Y-102428716D01*
X236932601Y-102290226D01*
X237152345Y-102121611D01*
X237348199Y-101925757D01*
X237516814Y-101706013D01*
X237655304Y-101466141D01*
X237761300Y-101210245D01*
X237832988Y-100942702D01*
X237869141Y-100668091D01*
X237869141Y-100391111D01*
X237832988Y-100116500D01*
X237761300Y-99848957D01*
X237655304Y-99593061D01*
X237655302Y-99593058D01*
X237655300Y-99593053D01*
X237516814Y-99353189D01*
X237348200Y-99133446D01*
X237348194Y-99133439D01*
X237152350Y-98937595D01*
X237152343Y-98937589D01*
X236932600Y-98768975D01*
X236692736Y-98630489D01*
X236692725Y-98630484D01*
X236436831Y-98524489D01*
X236169288Y-98452801D01*
X235894689Y-98416650D01*
X235894684Y-98416649D01*
X235894679Y-98416649D01*
X235617699Y-98416649D01*
X235617693Y-98416649D01*
X235617688Y-98416650D01*
X235343089Y-98452801D01*
X235075546Y-98524489D01*
X234819652Y-98630484D01*
X234819641Y-98630489D01*
X234579777Y-98768975D01*
X234360034Y-98937589D01*
X234360027Y-98937595D01*
X234164183Y-99133439D01*
X234164177Y-99133446D01*
X233995563Y-99353189D01*
X233857077Y-99593053D01*
X233857072Y-99593064D01*
X233751077Y-99848958D01*
X233679389Y-100116501D01*
X233643238Y-100391100D01*
X233643237Y-100391117D01*
X109905800Y-100391117D01*
X109905800Y-98149986D01*
X168955601Y-98149986D01*
X168966094Y-98252697D01*
X169021241Y-98419119D01*
X169021243Y-98419124D01*
X169113284Y-98568345D01*
X169237254Y-98692315D01*
X169386475Y-98784356D01*
X169386480Y-98784358D01*
X169552902Y-98839505D01*
X169552909Y-98839506D01*
X169655619Y-98849999D01*
X170425599Y-98849999D01*
X170925600Y-98849999D01*
X171695572Y-98849999D01*
X171695586Y-98849998D01*
X171798297Y-98839505D01*
X171964719Y-98784358D01*
X171964724Y-98784356D01*
X172113945Y-98692315D01*
X172237915Y-98568345D01*
X172329956Y-98419124D01*
X172329958Y-98419119D01*
X172385105Y-98252697D01*
X172385106Y-98252690D01*
X172395599Y-98149986D01*
X172395600Y-98149973D01*
X172395600Y-98040000D01*
X170925600Y-98040000D01*
X170925600Y-98849999D01*
X170425599Y-98849999D01*
X170425600Y-98849998D01*
X170425600Y-98040000D01*
X168955601Y-98040000D01*
X168955601Y-98149986D01*
X109905800Y-98149986D01*
X109905800Y-97430013D01*
X168955600Y-97430013D01*
X168955600Y-97540000D01*
X170425600Y-97540000D01*
X170925600Y-97540000D01*
X172395599Y-97540000D01*
X172395599Y-97430024D01*
X172395598Y-97430016D01*
X172395595Y-97429983D01*
X177565100Y-97429983D01*
X177565100Y-98150001D01*
X177565101Y-98150019D01*
X177575600Y-98252796D01*
X177575601Y-98252799D01*
X177589011Y-98293266D01*
X177630786Y-98419334D01*
X177722888Y-98568656D01*
X177846944Y-98692712D01*
X177996266Y-98784814D01*
X178162803Y-98839999D01*
X178265591Y-98850500D01*
X180305608Y-98850499D01*
X180408397Y-98839999D01*
X180574934Y-98784814D01*
X180724256Y-98692712D01*
X180848312Y-98568656D01*
X180870801Y-98532194D01*
X180922748Y-98485470D01*
X180991711Y-98474247D01*
X181045234Y-98494191D01*
X181053016Y-98499391D01*
X181053027Y-98499397D01*
X181132210Y-98532195D01*
X181198703Y-98559737D01*
X181353353Y-98590499D01*
X181353356Y-98590500D01*
X181353358Y-98590500D01*
X181511044Y-98590500D01*
X181511045Y-98590499D01*
X181665697Y-98559737D01*
X181811379Y-98499394D01*
X181942489Y-98411789D01*
X182053989Y-98300289D01*
X182141594Y-98169179D01*
X182201937Y-98023497D01*
X182232700Y-97868842D01*
X182232700Y-97711158D01*
X182232700Y-97711155D01*
X182232699Y-97711153D01*
X182201937Y-97556503D01*
X182190288Y-97528380D01*
X182141597Y-97410827D01*
X182141590Y-97410814D01*
X182053989Y-97279711D01*
X182053986Y-97279707D01*
X181942492Y-97168213D01*
X181942488Y-97168210D01*
X181811385Y-97080609D01*
X181811372Y-97080602D01*
X181665701Y-97020264D01*
X181665689Y-97020261D01*
X181511045Y-96989500D01*
X181511042Y-96989500D01*
X181353358Y-96989500D01*
X181353355Y-96989500D01*
X181198710Y-97020261D01*
X181198698Y-97020264D01*
X181053027Y-97080602D01*
X181053013Y-97080610D01*
X181045228Y-97085812D01*
X180978550Y-97106688D01*
X180911171Y-97088202D01*
X180870802Y-97047805D01*
X180848314Y-97011347D01*
X180848311Y-97011343D01*
X180724257Y-96887289D01*
X180724256Y-96887288D01*
X180656304Y-96845375D01*
X180656303Y-96845374D01*
X180574940Y-96795189D01*
X180574935Y-96795187D01*
X180574934Y-96795186D01*
X180408397Y-96740001D01*
X180408395Y-96740000D01*
X180305610Y-96729500D01*
X178265598Y-96729500D01*
X178265581Y-96729501D01*
X178162803Y-96740000D01*
X178162800Y-96740001D01*
X177996268Y-96795185D01*
X177996263Y-96795187D01*
X177846942Y-96887289D01*
X177722889Y-97011342D01*
X177630787Y-97160663D01*
X177630785Y-97160668D01*
X177628286Y-97168210D01*
X177575601Y-97327203D01*
X177575601Y-97327204D01*
X177575600Y-97327204D01*
X177565100Y-97429983D01*
X172395595Y-97429983D01*
X172385105Y-97327302D01*
X172329958Y-97160880D01*
X172329956Y-97160875D01*
X172237915Y-97011654D01*
X172113945Y-96887684D01*
X171964724Y-96795643D01*
X171964719Y-96795641D01*
X171798297Y-96740494D01*
X171798290Y-96740493D01*
X171695586Y-96730000D01*
X170925600Y-96730000D01*
X170925600Y-97540000D01*
X170425600Y-97540000D01*
X170425600Y-96730000D01*
X169655628Y-96730000D01*
X169655612Y-96730001D01*
X169552902Y-96740494D01*
X169386480Y-96795641D01*
X169386475Y-96795643D01*
X169237254Y-96887684D01*
X169113284Y-97011654D01*
X169021243Y-97160875D01*
X169021241Y-97160880D01*
X168966094Y-97327302D01*
X168966093Y-97327309D01*
X168955600Y-97430013D01*
X109905800Y-97430013D01*
X109905800Y-91054905D01*
X120747055Y-91054905D01*
X120747055Y-91317094D01*
X120781275Y-91577009D01*
X120781277Y-91577020D01*
X120849130Y-91830255D01*
X120949459Y-92072471D01*
X120949464Y-92072482D01*
X121080543Y-92299516D01*
X121080547Y-92299522D01*
X121167135Y-92412365D01*
X122069476Y-91510024D01*
X122082414Y-91541258D01*
X122164492Y-91664097D01*
X122268958Y-91768563D01*
X122391797Y-91850641D01*
X122423029Y-91863577D01*
X121520688Y-92765917D01*
X121520688Y-92765918D01*
X121633530Y-92852505D01*
X121633538Y-92852511D01*
X121860572Y-92983590D01*
X121860583Y-92983595D01*
X122102799Y-93083924D01*
X122356034Y-93151777D01*
X122356045Y-93151779D01*
X122615960Y-93185999D01*
X122615975Y-93186000D01*
X122878135Y-93186000D01*
X122878149Y-93185999D01*
X123138064Y-93151779D01*
X123138075Y-93151777D01*
X123391310Y-93083924D01*
X123633526Y-92983595D01*
X123633537Y-92983590D01*
X123860571Y-92852511D01*
X123860589Y-92852499D01*
X123973420Y-92765919D01*
X123973420Y-92765917D01*
X123071080Y-91863578D01*
X123102313Y-91850641D01*
X123225152Y-91768563D01*
X123329618Y-91664097D01*
X123411696Y-91541258D01*
X123424632Y-91510025D01*
X124326972Y-92412365D01*
X124326974Y-92412365D01*
X124413554Y-92299534D01*
X124413566Y-92299516D01*
X124544645Y-92072482D01*
X124544650Y-92072471D01*
X124644979Y-91830255D01*
X124712832Y-91577020D01*
X124712834Y-91577009D01*
X124747054Y-91317094D01*
X124747055Y-91317080D01*
X124747055Y-91054919D01*
X124747054Y-91054905D01*
X124712834Y-90794990D01*
X124712832Y-90794979D01*
X124644979Y-90541744D01*
X124544650Y-90299528D01*
X124544645Y-90299517D01*
X124413566Y-90072483D01*
X124413560Y-90072475D01*
X124326973Y-89959633D01*
X124326972Y-89959633D01*
X123424632Y-90861973D01*
X123411696Y-90830742D01*
X123329618Y-90707903D01*
X123225152Y-90603437D01*
X123102313Y-90521359D01*
X123071078Y-90508421D01*
X123941365Y-89638135D01*
X141546555Y-89638135D01*
X141546555Y-92733870D01*
X141546556Y-92733876D01*
X141552963Y-92793483D01*
X141603257Y-92928328D01*
X141603261Y-92928335D01*
X141689507Y-93043544D01*
X141689510Y-93043547D01*
X141804719Y-93129793D01*
X141804726Y-93129797D01*
X141939572Y-93180091D01*
X141939571Y-93180091D01*
X141946499Y-93180835D01*
X141999182Y-93186500D01*
X145094927Y-93186499D01*
X145154538Y-93180091D01*
X145289386Y-93129796D01*
X145404601Y-93043546D01*
X145490851Y-92928331D01*
X145541146Y-92793483D01*
X145547555Y-92733873D01*
X145547554Y-89638128D01*
X145541146Y-89578517D01*
X145509479Y-89493614D01*
X145490852Y-89443671D01*
X145490848Y-89443664D01*
X145404602Y-89328455D01*
X145404599Y-89328452D01*
X145289390Y-89242206D01*
X145289383Y-89242202D01*
X145154537Y-89191908D01*
X145154538Y-89191908D01*
X145094938Y-89185501D01*
X145094936Y-89185500D01*
X145094928Y-89185500D01*
X145094919Y-89185500D01*
X141999184Y-89185500D01*
X141999178Y-89185501D01*
X141939571Y-89191908D01*
X141804726Y-89242202D01*
X141804719Y-89242206D01*
X141689510Y-89328452D01*
X141689507Y-89328455D01*
X141603261Y-89443664D01*
X141603257Y-89443671D01*
X141552963Y-89578517D01*
X141546915Y-89634779D01*
X141546556Y-89638123D01*
X141546555Y-89638135D01*
X123941365Y-89638135D01*
X123973420Y-89606080D01*
X123860579Y-89519494D01*
X123860571Y-89519488D01*
X123633537Y-89388409D01*
X123633526Y-89388404D01*
X123391310Y-89288075D01*
X123138075Y-89220222D01*
X123138064Y-89220220D01*
X122878149Y-89186000D01*
X122615960Y-89186000D01*
X122356045Y-89220220D01*
X122356034Y-89220222D01*
X122102799Y-89288075D01*
X121860583Y-89388404D01*
X121860572Y-89388409D01*
X121633526Y-89519496D01*
X121520688Y-89606079D01*
X121520688Y-89606080D01*
X122423029Y-90508421D01*
X122391797Y-90521359D01*
X122268958Y-90603437D01*
X122164492Y-90707903D01*
X122082414Y-90830742D01*
X122069476Y-90861974D01*
X121167135Y-89959633D01*
X121167134Y-89959633D01*
X121080551Y-90072471D01*
X120949464Y-90299517D01*
X120949459Y-90299528D01*
X120849130Y-90541744D01*
X120781277Y-90794979D01*
X120781275Y-90794990D01*
X120747055Y-91054905D01*
X109905800Y-91054905D01*
X109905800Y-85344000D01*
X65401865Y-85344000D01*
X65334826Y-85324315D01*
X65289071Y-85271511D01*
X65277865Y-85220136D01*
X65272855Y-80635951D01*
X65271439Y-79340551D01*
X65271439Y-79340550D01*
X65270199Y-78205882D01*
X114628779Y-78205882D01*
X114628779Y-78410517D01*
X114660788Y-78612617D01*
X114724023Y-78807231D01*
X114816920Y-78989550D01*
X114816926Y-78989559D01*
X114849302Y-79034121D01*
X114849303Y-79034122D01*
X115528779Y-78354646D01*
X115528779Y-78360861D01*
X115556038Y-78462594D01*
X115608699Y-78553806D01*
X115683173Y-78628280D01*
X115774385Y-78680941D01*
X115876118Y-78708200D01*
X115882332Y-78708200D01*
X115202855Y-79387674D01*
X115247429Y-79420059D01*
X115429747Y-79512955D01*
X115624361Y-79576190D01*
X115826462Y-79608200D01*
X116031096Y-79608200D01*
X116233196Y-79576190D01*
X116427810Y-79512955D01*
X116610128Y-79420059D01*
X116654700Y-79387674D01*
X115975226Y-78708200D01*
X115981440Y-78708200D01*
X116083173Y-78680941D01*
X116174385Y-78628280D01*
X116248859Y-78553806D01*
X116301520Y-78462594D01*
X116328779Y-78360861D01*
X116328779Y-78354648D01*
X117008252Y-79034121D01*
X117046059Y-79031146D01*
X117114437Y-79045510D01*
X117164194Y-79094561D01*
X117173495Y-79115759D01*
X117193965Y-79177533D01*
X117193966Y-79177536D01*
X117226856Y-79230859D01*
X117286067Y-79326856D01*
X117410123Y-79450912D01*
X117559445Y-79543014D01*
X117725982Y-79598199D01*
X117828770Y-79608700D01*
X119028787Y-79608699D01*
X119131576Y-79598199D01*
X119298113Y-79543014D01*
X119447435Y-79450912D01*
X119571491Y-79326856D01*
X119663593Y-79177534D01*
X119718778Y-79010997D01*
X119729279Y-78908209D01*
X119729278Y-77708192D01*
X119718778Y-77605403D01*
X119663593Y-77438866D01*
X119618244Y-77365343D01*
X135345299Y-77365343D01*
X135383747Y-77558629D01*
X135383750Y-77558639D01*
X135459164Y-77740707D01*
X135459171Y-77740720D01*
X135568660Y-77904581D01*
X135568663Y-77904585D01*
X135708014Y-78043936D01*
X135708018Y-78043939D01*
X135871879Y-78153428D01*
X135871892Y-78153435D01*
X135998512Y-78205882D01*
X136053965Y-78228851D01*
X136053969Y-78228851D01*
X136053970Y-78228852D01*
X136247256Y-78267300D01*
X136247259Y-78267300D01*
X136444343Y-78267300D01*
X136574382Y-78241432D01*
X136637635Y-78228851D01*
X136819714Y-78153432D01*
X136983582Y-78043939D01*
X137122939Y-77904582D01*
X137232432Y-77740714D01*
X137307851Y-77558635D01*
X137320432Y-77495382D01*
X137346300Y-77365343D01*
X137346300Y-77168256D01*
X137307852Y-76974970D01*
X137307851Y-76974969D01*
X137307851Y-76974965D01*
X137263602Y-76868137D01*
X137232435Y-76792892D01*
X137232428Y-76792879D01*
X137122939Y-76629018D01*
X137122936Y-76629014D01*
X136983585Y-76489663D01*
X136983581Y-76489660D01*
X136819720Y-76380171D01*
X136819707Y-76380164D01*
X136637639Y-76304750D01*
X136637629Y-76304747D01*
X136444343Y-76266300D01*
X136444341Y-76266300D01*
X136247259Y-76266300D01*
X136247257Y-76266300D01*
X136053970Y-76304747D01*
X136053960Y-76304750D01*
X135871892Y-76380164D01*
X135871879Y-76380171D01*
X135708018Y-76489660D01*
X135708014Y-76489663D01*
X135568663Y-76629014D01*
X135568660Y-76629018D01*
X135459171Y-76792879D01*
X135459164Y-76792892D01*
X135383750Y-76974960D01*
X135383747Y-76974970D01*
X135345300Y-77168256D01*
X135345300Y-77168259D01*
X135345300Y-77365341D01*
X135345300Y-77365343D01*
X135345299Y-77365343D01*
X119618244Y-77365343D01*
X119571491Y-77289544D01*
X119447435Y-77165488D01*
X119298113Y-77073386D01*
X119131576Y-77018201D01*
X119131574Y-77018200D01*
X119028789Y-77007700D01*
X117828777Y-77007700D01*
X117828760Y-77007701D01*
X117725982Y-77018200D01*
X117725979Y-77018201D01*
X117559447Y-77073385D01*
X117559442Y-77073387D01*
X117410121Y-77165489D01*
X117286068Y-77289542D01*
X117193966Y-77438863D01*
X117193964Y-77438868D01*
X117173496Y-77500638D01*
X117133723Y-77558083D01*
X117069207Y-77584906D01*
X117046062Y-77585252D01*
X117008253Y-77582276D01*
X116328779Y-78261751D01*
X116328779Y-78255539D01*
X116301520Y-78153806D01*
X116248859Y-78062594D01*
X116174385Y-77988120D01*
X116083173Y-77935459D01*
X115981440Y-77908200D01*
X115975225Y-77908200D01*
X116654701Y-77228724D01*
X116654700Y-77228723D01*
X116610138Y-77196347D01*
X116610129Y-77196341D01*
X116427810Y-77103444D01*
X116233196Y-77040209D01*
X116031096Y-77008200D01*
X115826462Y-77008200D01*
X115624361Y-77040209D01*
X115429747Y-77103444D01*
X115247423Y-77196343D01*
X115202856Y-77228723D01*
X115202856Y-77228724D01*
X115882333Y-77908200D01*
X115876118Y-77908200D01*
X115774385Y-77935459D01*
X115683173Y-77988120D01*
X115608699Y-78062594D01*
X115556038Y-78153806D01*
X115528779Y-78255539D01*
X115528779Y-78261753D01*
X114849303Y-77582277D01*
X114849302Y-77582277D01*
X114816922Y-77626844D01*
X114724023Y-77809168D01*
X114660788Y-78003782D01*
X114628779Y-78205882D01*
X65270199Y-78205882D01*
X65270194Y-78201151D01*
X65269183Y-77276119D01*
X65266505Y-74825343D01*
X135345299Y-74825343D01*
X135383747Y-75018629D01*
X135383750Y-75018639D01*
X135459164Y-75200707D01*
X135459171Y-75200720D01*
X135568660Y-75364581D01*
X135568663Y-75364585D01*
X135708014Y-75503936D01*
X135708018Y-75503939D01*
X135871879Y-75613428D01*
X135871892Y-75613435D01*
X136040117Y-75683115D01*
X136053965Y-75688851D01*
X136053969Y-75688851D01*
X136053970Y-75688852D01*
X136247256Y-75727300D01*
X136247259Y-75727300D01*
X136444343Y-75727300D01*
X136574382Y-75701432D01*
X136637635Y-75688851D01*
X136819714Y-75613432D01*
X136983582Y-75503939D01*
X137122939Y-75364582D01*
X137232432Y-75200714D01*
X137235518Y-75193265D01*
X137254925Y-75146410D01*
X137307851Y-75018635D01*
X137333677Y-74888800D01*
X137346300Y-74825343D01*
X137346300Y-74628256D01*
X137307852Y-74434970D01*
X137307851Y-74434969D01*
X137307851Y-74434965D01*
X137269822Y-74343153D01*
X137232435Y-74252892D01*
X137232428Y-74252879D01*
X137122939Y-74089018D01*
X137122936Y-74089014D01*
X136983585Y-73949663D01*
X136983581Y-73949660D01*
X136819720Y-73840171D01*
X136819707Y-73840164D01*
X136637639Y-73764750D01*
X136637629Y-73764747D01*
X136444343Y-73726300D01*
X136444341Y-73726300D01*
X136247259Y-73726300D01*
X136247257Y-73726300D01*
X136053970Y-73764747D01*
X136053960Y-73764750D01*
X135871892Y-73840164D01*
X135871879Y-73840171D01*
X135708018Y-73949660D01*
X135708014Y-73949663D01*
X135568663Y-74089014D01*
X135568660Y-74089018D01*
X135459171Y-74252879D01*
X135459164Y-74252892D01*
X135383750Y-74434960D01*
X135383747Y-74434970D01*
X135345300Y-74628256D01*
X135345300Y-74628259D01*
X135345300Y-74825341D01*
X135345300Y-74825343D01*
X135345299Y-74825343D01*
X65266505Y-74825343D01*
X65266283Y-74622303D01*
X65264274Y-72784481D01*
X65261498Y-70244481D01*
X65258322Y-67338917D01*
X65866837Y-67338917D01*
X65866837Y-67615884D01*
X65866838Y-67615901D01*
X65902989Y-67890500D01*
X65974677Y-68158043D01*
X66080672Y-68413937D01*
X66080677Y-68413948D01*
X66219163Y-68653812D01*
X66387777Y-68873555D01*
X66387783Y-68873562D01*
X66583627Y-69069406D01*
X66583634Y-69069412D01*
X66803377Y-69238026D01*
X67043241Y-69376512D01*
X67043246Y-69376514D01*
X67043249Y-69376516D01*
X67299145Y-69482512D01*
X67566688Y-69554200D01*
X67841299Y-69590353D01*
X67841306Y-69590353D01*
X68118272Y-69590353D01*
X68118279Y-69590353D01*
X68392890Y-69554200D01*
X68660433Y-69482512D01*
X68916329Y-69376516D01*
X69156201Y-69238026D01*
X69375945Y-69069411D01*
X69571799Y-68873557D01*
X69740414Y-68653813D01*
X69878904Y-68413941D01*
X69984900Y-68158045D01*
X70056588Y-67890502D01*
X70092741Y-67615891D01*
X70092741Y-67338911D01*
X70056588Y-67064300D01*
X69984900Y-66796757D01*
X69941256Y-66691391D01*
X81991700Y-66691391D01*
X81991700Y-68291409D01*
X81991701Y-68291426D01*
X82002200Y-68394204D01*
X82002201Y-68394207D01*
X82057385Y-68560739D01*
X82057387Y-68560744D01*
X82072919Y-68585925D01*
X82149488Y-68710064D01*
X82273544Y-68834120D01*
X82322293Y-68864189D01*
X82369018Y-68916135D01*
X82380241Y-68985098D01*
X82352398Y-69049180D01*
X82351198Y-69050495D01*
X82351227Y-69050520D01*
X82348060Y-69054227D01*
X82209287Y-69245233D01*
X82102097Y-69455605D01*
X82029134Y-69680160D01*
X82013098Y-69781408D01*
X83042199Y-69781408D01*
X83017179Y-69841810D01*
X82992200Y-69967389D01*
X82992200Y-70095427D01*
X83017179Y-70221006D01*
X83042199Y-70281408D01*
X82013098Y-70281408D01*
X82029134Y-70382655D01*
X82102097Y-70607210D01*
X82209285Y-70817579D01*
X82348066Y-71008594D01*
X82515013Y-71175541D01*
X82515019Y-71175546D01*
X82550177Y-71201090D01*
X82592843Y-71256420D01*
X82598822Y-71326033D01*
X82566216Y-71387828D01*
X82550177Y-71401726D01*
X82515019Y-71427269D01*
X82515013Y-71427274D01*
X82348066Y-71594221D01*
X82209285Y-71785236D01*
X82102097Y-71995605D01*
X82029134Y-72220160D01*
X82013098Y-72321408D01*
X83042199Y-72321408D01*
X83017179Y-72381810D01*
X82992200Y-72507389D01*
X82992200Y-72635427D01*
X83017179Y-72761006D01*
X83042199Y-72821408D01*
X82013098Y-72821408D01*
X82029134Y-72922655D01*
X82102097Y-73147210D01*
X82209285Y-73357579D01*
X82348066Y-73548594D01*
X82515013Y-73715541D01*
X82706028Y-73854322D01*
X82916397Y-73961510D01*
X83140952Y-74034473D01*
X83140951Y-74034473D01*
X83374148Y-74071408D01*
X83392200Y-74071408D01*
X83392200Y-73171409D01*
X83452602Y-73196429D01*
X83578181Y-73221408D01*
X83706219Y-73221408D01*
X83831798Y-73196429D01*
X83892200Y-73171409D01*
X83892200Y-74071408D01*
X83910252Y-74071408D01*
X84143447Y-74034473D01*
X84368002Y-73961510D01*
X84578371Y-73854322D01*
X84769386Y-73715541D01*
X84936333Y-73548594D01*
X85075114Y-73357579D01*
X85182302Y-73147210D01*
X85255265Y-72922656D01*
X85261150Y-72885504D01*
X117158700Y-72885504D01*
X117158700Y-73062895D01*
X117193303Y-73236858D01*
X117193306Y-73236867D01*
X117261183Y-73400740D01*
X117261190Y-73400753D01*
X117359735Y-73548234D01*
X117359738Y-73548238D01*
X117485161Y-73673661D01*
X117485165Y-73673664D01*
X117632646Y-73772209D01*
X117632659Y-73772216D01*
X117700249Y-73800212D01*
X117796534Y-73840094D01*
X117796536Y-73840094D01*
X117796541Y-73840096D01*
X117970504Y-73874699D01*
X117970507Y-73874700D01*
X117970509Y-73874700D01*
X118147893Y-73874700D01*
X118147894Y-73874699D01*
X118205882Y-73863164D01*
X118321858Y-73840096D01*
X118321861Y-73840094D01*
X118321866Y-73840094D01*
X118485747Y-73772213D01*
X118633235Y-73673664D01*
X118758664Y-73548235D01*
X118857213Y-73400747D01*
X118913168Y-73265654D01*
X118940044Y-73225432D01*
X119345059Y-72820419D01*
X119406382Y-72786934D01*
X119432740Y-72784100D01*
X124167193Y-72784100D01*
X124214645Y-72793539D01*
X124349734Y-72849494D01*
X124349736Y-72849494D01*
X124349741Y-72849496D01*
X124523704Y-72884099D01*
X124523707Y-72884100D01*
X124523709Y-72884100D01*
X124701093Y-72884100D01*
X124701094Y-72884099D01*
X124759082Y-72872564D01*
X124875058Y-72849496D01*
X124875061Y-72849494D01*
X124875066Y-72849494D01*
X125010155Y-72793539D01*
X125057607Y-72784100D01*
X141280092Y-72784100D01*
X141347131Y-72803785D01*
X141385636Y-72847871D01*
X141387395Y-72846787D01*
X141391185Y-72852932D01*
X141391186Y-72852934D01*
X141483288Y-73002256D01*
X141607344Y-73126312D01*
X141756666Y-73218414D01*
X141838570Y-73245554D01*
X141896015Y-73285327D01*
X141922838Y-73349843D01*
X141910523Y-73418618D01*
X141872451Y-73463578D01*
X141778787Y-73531628D01*
X141778782Y-73531632D01*
X141634028Y-73676386D01*
X141513715Y-73841986D01*
X141420781Y-74024376D01*
X141357522Y-74219065D01*
X141327583Y-74408099D01*
X141325500Y-74421248D01*
X141325500Y-74625952D01*
X141329822Y-74653242D01*
X141357522Y-74828134D01*
X141420781Y-75022823D01*
X141483753Y-75146410D01*
X141511425Y-75200720D01*
X141513715Y-75205213D01*
X141634028Y-75370813D01*
X141778786Y-75515571D01*
X141913483Y-75613432D01*
X141944390Y-75635887D01*
X142035840Y-75682483D01*
X142037080Y-75683115D01*
X142087876Y-75731090D01*
X142104671Y-75798911D01*
X142082134Y-75865046D01*
X142037080Y-75904085D01*
X141944386Y-75951315D01*
X141778786Y-76071628D01*
X141634028Y-76216386D01*
X141513715Y-76381986D01*
X141420781Y-76564376D01*
X141357522Y-76759065D01*
X141336972Y-76888817D01*
X141325500Y-76961248D01*
X141325500Y-77165952D01*
X141329878Y-77193595D01*
X141357522Y-77368134D01*
X141420781Y-77562823D01*
X141484691Y-77688253D01*
X141511425Y-77740720D01*
X141513715Y-77745213D01*
X141634028Y-77910813D01*
X141778786Y-78055571D01*
X141944385Y-78175884D01*
X141944387Y-78175885D01*
X141944390Y-78175887D01*
X142037080Y-78223115D01*
X142037630Y-78223395D01*
X142088426Y-78271370D01*
X142105221Y-78339191D01*
X142082684Y-78405325D01*
X142037630Y-78444365D01*
X141944644Y-78491743D01*
X141900077Y-78524123D01*
X141900077Y-78524124D01*
X142579554Y-79203600D01*
X142573339Y-79203600D01*
X142471606Y-79230859D01*
X142380394Y-79283520D01*
X142305920Y-79357994D01*
X142253259Y-79449206D01*
X142226000Y-79550939D01*
X142226000Y-79557153D01*
X141546524Y-78877677D01*
X141546523Y-78877677D01*
X141514143Y-78922244D01*
X141421244Y-79104568D01*
X141358009Y-79299182D01*
X141326000Y-79501282D01*
X141326000Y-79705917D01*
X141358009Y-79908017D01*
X141421244Y-80102631D01*
X141514141Y-80284950D01*
X141514147Y-80284959D01*
X141546523Y-80329521D01*
X141546524Y-80329522D01*
X142226000Y-79650046D01*
X142226000Y-79656261D01*
X142253259Y-79757994D01*
X142305920Y-79849206D01*
X142380394Y-79923680D01*
X142471606Y-79976341D01*
X142573339Y-80003600D01*
X142579553Y-80003600D01*
X141900076Y-80683074D01*
X141944650Y-80715459D01*
X142126968Y-80808355D01*
X142321582Y-80871590D01*
X142523683Y-80903600D01*
X142728317Y-80903600D01*
X142930417Y-80871590D01*
X143125031Y-80808355D01*
X143307349Y-80715459D01*
X143351921Y-80683074D01*
X142672447Y-80003600D01*
X142678661Y-80003600D01*
X142780394Y-79976341D01*
X142871606Y-79923680D01*
X142946080Y-79849206D01*
X142998741Y-79757994D01*
X143026000Y-79656261D01*
X143026000Y-79650048D01*
X143705474Y-80329522D01*
X143705474Y-80329521D01*
X143737859Y-80284949D01*
X143830755Y-80102631D01*
X143893990Y-79908017D01*
X143926000Y-79705917D01*
X143926000Y-79501282D01*
X143893990Y-79299182D01*
X143830755Y-79104568D01*
X143737859Y-78922250D01*
X143705474Y-78877677D01*
X143705474Y-78877676D01*
X143026000Y-79557151D01*
X143026000Y-79550939D01*
X142998741Y-79449206D01*
X142946080Y-79357994D01*
X142871606Y-79283520D01*
X142780394Y-79230859D01*
X142678661Y-79203600D01*
X142672446Y-79203600D01*
X143351922Y-78524124D01*
X143351921Y-78524123D01*
X143307359Y-78491747D01*
X143307350Y-78491741D01*
X143214369Y-78444365D01*
X143163573Y-78396390D01*
X143146778Y-78328569D01*
X143169315Y-78262435D01*
X143214370Y-78223395D01*
X143214920Y-78223115D01*
X143307610Y-78175887D01*
X143402682Y-78106814D01*
X143473213Y-78055571D01*
X143473215Y-78055568D01*
X143473219Y-78055566D01*
X143617966Y-77910819D01*
X143617968Y-77910815D01*
X143617971Y-77910813D01*
X143691819Y-77809168D01*
X143738287Y-77745210D01*
X143831220Y-77562819D01*
X143894477Y-77368134D01*
X143926500Y-77165952D01*
X143926500Y-76961248D01*
X143913937Y-76881930D01*
X143894477Y-76759065D01*
X143852222Y-76629018D01*
X143831220Y-76564381D01*
X143831218Y-76564378D01*
X143831218Y-76564376D01*
X143786992Y-76477579D01*
X143738287Y-76381990D01*
X143701887Y-76331889D01*
X143617971Y-76216386D01*
X143473213Y-76071628D01*
X143307614Y-75951315D01*
X143269665Y-75931979D01*
X143214917Y-75904083D01*
X143164123Y-75856111D01*
X143147328Y-75788290D01*
X143169865Y-75722155D01*
X143214917Y-75683116D01*
X143307610Y-75635887D01*
X143404101Y-75565783D01*
X143473213Y-75515571D01*
X143473215Y-75515568D01*
X143473219Y-75515566D01*
X143617966Y-75370819D01*
X143617968Y-75370815D01*
X143617971Y-75370813D01*
X143681196Y-75283790D01*
X143738287Y-75205210D01*
X143831220Y-75022819D01*
X143894477Y-74828134D01*
X143926500Y-74625952D01*
X143926500Y-74421248D01*
X143913774Y-74340903D01*
X143894477Y-74219065D01*
X143852222Y-74089018D01*
X143831220Y-74024381D01*
X143831218Y-74024378D01*
X143831218Y-74024376D01*
X143773812Y-73911712D01*
X143738287Y-73841990D01*
X143723753Y-73821985D01*
X143617971Y-73676386D01*
X143473219Y-73531634D01*
X143473211Y-73531628D01*
X143379547Y-73463578D01*
X143336882Y-73408249D01*
X143330903Y-73338636D01*
X143363508Y-73276840D01*
X143413426Y-73245555D01*
X143495334Y-73218414D01*
X143644656Y-73126312D01*
X143768712Y-73002256D01*
X143860814Y-72852934D01*
X143860814Y-72852932D01*
X143864605Y-72846787D01*
X143866399Y-72847893D01*
X143870985Y-72842683D01*
X143878195Y-72826897D01*
X143893593Y-72817001D01*
X143905687Y-72803263D01*
X143922574Y-72798375D01*
X143936973Y-72789123D01*
X143971908Y-72784100D01*
X144016060Y-72784100D01*
X144083099Y-72803785D01*
X144103741Y-72820419D01*
X146000581Y-74717259D01*
X146034066Y-74778582D01*
X146036900Y-74804940D01*
X146036900Y-84965646D01*
X146067661Y-85120289D01*
X146067664Y-85120301D01*
X146128002Y-85265972D01*
X146128009Y-85265985D01*
X146215610Y-85397088D01*
X146215613Y-85397092D01*
X155787328Y-94968807D01*
X155787332Y-94968810D01*
X155918435Y-95056411D01*
X155918448Y-95056418D01*
X156064119Y-95116756D01*
X156064124Y-95116758D01*
X156218774Y-95147520D01*
X156218777Y-95147521D01*
X156218779Y-95147521D01*
X156376464Y-95147521D01*
X163051379Y-95147521D01*
X199441092Y-95147521D01*
X199508131Y-95167206D01*
X199546636Y-95211292D01*
X199548395Y-95210208D01*
X199552185Y-95216352D01*
X199552186Y-95216355D01*
X199644288Y-95365677D01*
X199768344Y-95489733D01*
X199917666Y-95581835D01*
X199979440Y-95602305D01*
X200036884Y-95642076D01*
X200063707Y-95706592D01*
X200064053Y-95729740D01*
X200061077Y-95767545D01*
X200740554Y-96447021D01*
X200734339Y-96447021D01*
X200632606Y-96474280D01*
X200541394Y-96526941D01*
X200466920Y-96601415D01*
X200414259Y-96692627D01*
X200387000Y-96794360D01*
X200387000Y-96800574D01*
X199707524Y-96121098D01*
X199707523Y-96121098D01*
X199675143Y-96165665D01*
X199582244Y-96347989D01*
X199519009Y-96542603D01*
X199487000Y-96744703D01*
X199487000Y-96949338D01*
X199519009Y-97151438D01*
X199582244Y-97346052D01*
X199675141Y-97528371D01*
X199675147Y-97528380D01*
X199707523Y-97572942D01*
X199707524Y-97572943D01*
X200387000Y-96893467D01*
X200387000Y-96899682D01*
X200414259Y-97001415D01*
X200466920Y-97092627D01*
X200541394Y-97167101D01*
X200632606Y-97219762D01*
X200734339Y-97247021D01*
X200740553Y-97247021D01*
X200061076Y-97926495D01*
X200105650Y-97958880D01*
X200287968Y-98051776D01*
X200482582Y-98115011D01*
X200684683Y-98147021D01*
X200889317Y-98147021D01*
X201091417Y-98115011D01*
X201286031Y-98051776D01*
X201468349Y-97958880D01*
X201512921Y-97926495D01*
X200833447Y-97247021D01*
X200839661Y-97247021D01*
X200941394Y-97219762D01*
X201032606Y-97167101D01*
X201107080Y-97092627D01*
X201159741Y-97001415D01*
X201187000Y-96899682D01*
X201187000Y-96893468D01*
X201866474Y-97572942D01*
X201898859Y-97528370D01*
X201991755Y-97346052D01*
X202054990Y-97151438D01*
X202087000Y-96949338D01*
X202087000Y-96744703D01*
X202054990Y-96542603D01*
X201991755Y-96347989D01*
X201898859Y-96165671D01*
X201866474Y-96121098D01*
X201866474Y-96121097D01*
X201187000Y-96800572D01*
X201187000Y-96794360D01*
X201159741Y-96692627D01*
X201107080Y-96601415D01*
X201032606Y-96526941D01*
X200941394Y-96474280D01*
X200839661Y-96447021D01*
X200833446Y-96447021D01*
X201512921Y-95767546D01*
X201509946Y-95729740D01*
X201524310Y-95661362D01*
X201573361Y-95611605D01*
X201594555Y-95602306D01*
X201656334Y-95581835D01*
X201805656Y-95489733D01*
X201929712Y-95365677D01*
X202021814Y-95216355D01*
X202076999Y-95049818D01*
X202087500Y-94947030D01*
X202087499Y-93747013D01*
X202086823Y-93740400D01*
X202076999Y-93644224D01*
X202076998Y-93644221D01*
X202032588Y-93510202D01*
X202021814Y-93477687D01*
X201929712Y-93328365D01*
X201805656Y-93204309D01*
X201684852Y-93129797D01*
X201656336Y-93112208D01*
X201656331Y-93112206D01*
X201654862Y-93111719D01*
X201489797Y-93057022D01*
X201489795Y-93057021D01*
X201387010Y-93046521D01*
X200186998Y-93046521D01*
X200186981Y-93046522D01*
X200084203Y-93057021D01*
X200084200Y-93057022D01*
X199917668Y-93112206D01*
X199917663Y-93112208D01*
X199768342Y-93204310D01*
X199644289Y-93328363D01*
X199548395Y-93483834D01*
X199546600Y-93482727D01*
X199507313Y-93527358D01*
X199441092Y-93546521D01*
X156680561Y-93546521D01*
X156613522Y-93526836D01*
X156592880Y-93510202D01*
X147674219Y-84591541D01*
X147640734Y-84530218D01*
X147637900Y-84503860D01*
X147637900Y-74343159D01*
X147637899Y-74343153D01*
X147637451Y-74340897D01*
X147637451Y-74340896D01*
X147614452Y-74225278D01*
X147607137Y-74188502D01*
X147562871Y-74081635D01*
X147546794Y-74042821D01*
X147546793Y-74042819D01*
X147546792Y-74042817D01*
X147459190Y-73911712D01*
X147411139Y-73863661D01*
X147347689Y-73800211D01*
X145618759Y-72071281D01*
X145614420Y-72063335D01*
X145607173Y-72057910D01*
X145597938Y-72033150D01*
X145585274Y-72009958D01*
X145585919Y-72000928D01*
X145582756Y-71992446D01*
X145588372Y-71966625D01*
X145590258Y-71940266D01*
X145596076Y-71931212D01*
X145597608Y-71924173D01*
X145618759Y-71895919D01*
X145633430Y-71881248D01*
X148945500Y-71881248D01*
X148945500Y-72085952D01*
X148949878Y-72113595D01*
X148977522Y-72288134D01*
X149040781Y-72482823D01*
X149133715Y-72665213D01*
X149254028Y-72830813D01*
X149398786Y-72975571D01*
X149543981Y-73081059D01*
X149564390Y-73095887D01*
X149655840Y-73142483D01*
X149657080Y-73143115D01*
X149707876Y-73191090D01*
X149724671Y-73258911D01*
X149702134Y-73325046D01*
X149657080Y-73364085D01*
X149564386Y-73411315D01*
X149398786Y-73531628D01*
X149254028Y-73676386D01*
X149133715Y-73841986D01*
X149040781Y-74024376D01*
X148977522Y-74219065D01*
X148947583Y-74408099D01*
X148945500Y-74421248D01*
X148945500Y-74625952D01*
X148949822Y-74653242D01*
X148977522Y-74828134D01*
X149040781Y-75022823D01*
X149103753Y-75146410D01*
X149131425Y-75200720D01*
X149133715Y-75205213D01*
X149254028Y-75370813D01*
X149398786Y-75515571D01*
X149533483Y-75613432D01*
X149564390Y-75635887D01*
X149655840Y-75682483D01*
X149657080Y-75683115D01*
X149707876Y-75731090D01*
X149724671Y-75798911D01*
X149702134Y-75865046D01*
X149657080Y-75904085D01*
X149564386Y-75951315D01*
X149398786Y-76071628D01*
X149254028Y-76216386D01*
X149133715Y-76381986D01*
X149040781Y-76564376D01*
X148977522Y-76759065D01*
X148956972Y-76888817D01*
X148945500Y-76961248D01*
X148945500Y-77165952D01*
X148949878Y-77193595D01*
X148977522Y-77368134D01*
X149040781Y-77562823D01*
X149104691Y-77688253D01*
X149131425Y-77740720D01*
X149133715Y-77745213D01*
X149254028Y-77910813D01*
X149398786Y-78055571D01*
X149533483Y-78153432D01*
X149564390Y-78175887D01*
X149655840Y-78222483D01*
X149657080Y-78223115D01*
X149707876Y-78271090D01*
X149724671Y-78338911D01*
X149702134Y-78405046D01*
X149657080Y-78444085D01*
X149564386Y-78491315D01*
X149398786Y-78611628D01*
X149254028Y-78756386D01*
X149133715Y-78921986D01*
X149040781Y-79104376D01*
X148977522Y-79299065D01*
X148945500Y-79501248D01*
X148945500Y-79705951D01*
X148977522Y-79908134D01*
X149040781Y-80102823D01*
X149104691Y-80228253D01*
X149133585Y-80284959D01*
X149133715Y-80285213D01*
X149254028Y-80450813D01*
X149398786Y-80595571D01*
X149503992Y-80672006D01*
X149564390Y-80715887D01*
X149647536Y-80758252D01*
X149746776Y-80808818D01*
X149746778Y-80808818D01*
X149746781Y-80808820D01*
X149851137Y-80842727D01*
X149941465Y-80872077D01*
X150042557Y-80888088D01*
X150143648Y-80904100D01*
X150143649Y-80904100D01*
X150348351Y-80904100D01*
X150348352Y-80904100D01*
X150550534Y-80872077D01*
X150745219Y-80808820D01*
X150927610Y-80715887D01*
X151021542Y-80647642D01*
X151093213Y-80595571D01*
X151093215Y-80595568D01*
X151093219Y-80595566D01*
X151237966Y-80450819D01*
X151343753Y-80305213D01*
X151399082Y-80262549D01*
X151444071Y-80254100D01*
X157565921Y-80254100D01*
X157586577Y-80260165D01*
X157608069Y-80261483D01*
X157619437Y-80269814D01*
X157632960Y-80273785D01*
X157647058Y-80290055D01*
X157664426Y-80302783D01*
X157669485Y-80315938D01*
X157678715Y-80326589D01*
X157681778Y-80347898D01*
X157689509Y-80367995D01*
X157688061Y-80391594D01*
X157688659Y-80395747D01*
X157687349Y-80403223D01*
X157687331Y-80403310D01*
X157654472Y-80464971D01*
X157653584Y-80465868D01*
X156593726Y-81525726D01*
X156536068Y-81612020D01*
X156536066Y-81612023D01*
X156522536Y-81632270D01*
X156522533Y-81632275D01*
X156473499Y-81750655D01*
X156473497Y-81750661D01*
X156448500Y-81876328D01*
X156448500Y-91519264D01*
X156428815Y-91586303D01*
X156427603Y-91588154D01*
X156389608Y-91645017D01*
X156389602Y-91645028D01*
X156329264Y-91790698D01*
X156329261Y-91790710D01*
X156298500Y-91945353D01*
X156298500Y-92103046D01*
X156329261Y-92257689D01*
X156329264Y-92257701D01*
X156389602Y-92403372D01*
X156389609Y-92403385D01*
X156477210Y-92534488D01*
X156477213Y-92534492D01*
X156588707Y-92645986D01*
X156588711Y-92645989D01*
X156719814Y-92733590D01*
X156719827Y-92733597D01*
X156864407Y-92793483D01*
X156865503Y-92793937D01*
X156961540Y-92813040D01*
X157020153Y-92824699D01*
X157020156Y-92824700D01*
X157020158Y-92824700D01*
X157177844Y-92824700D01*
X157177845Y-92824699D01*
X157332497Y-92793937D01*
X157445166Y-92747267D01*
X157478172Y-92733597D01*
X157478172Y-92733596D01*
X157478179Y-92733594D01*
X157609289Y-92645989D01*
X157720789Y-92534489D01*
X157808394Y-92403379D01*
X157868737Y-92257697D01*
X157899500Y-92103042D01*
X157899500Y-91945358D01*
X157899500Y-91945355D01*
X157899499Y-91945353D01*
X157868738Y-91790710D01*
X157868737Y-91790703D01*
X157859566Y-91768563D01*
X157808397Y-91645028D01*
X157808396Y-91645027D01*
X157808394Y-91645021D01*
X157770396Y-91588153D01*
X157749520Y-91521476D01*
X157749500Y-91519264D01*
X157749500Y-82261207D01*
X157769185Y-82194168D01*
X157785815Y-82173530D01*
X158573531Y-81385813D01*
X158634852Y-81352330D01*
X158636917Y-81351899D01*
X158704097Y-81338537D01*
X158841059Y-81281806D01*
X158849772Y-81278197D01*
X158849772Y-81278196D01*
X158849779Y-81278194D01*
X158980889Y-81190589D01*
X159092389Y-81079089D01*
X159179994Y-80947979D01*
X159240337Y-80802297D01*
X159271100Y-80647642D01*
X159271100Y-80489958D01*
X159271100Y-80489955D01*
X159253662Y-80402292D01*
X159259889Y-80332700D01*
X159302752Y-80277523D01*
X159368641Y-80254278D01*
X159375279Y-80254100D01*
X174231871Y-80254100D01*
X174316415Y-80237282D01*
X174357544Y-80229101D01*
X174475927Y-80180065D01*
X174478636Y-80178254D01*
X174479572Y-80177630D01*
X174514791Y-80154097D01*
X174582469Y-80108877D01*
X177775931Y-76915413D01*
X177837252Y-76881930D01*
X177839317Y-76881499D01*
X177906497Y-76868137D01*
X178052179Y-76807794D01*
X178183289Y-76720189D01*
X178294789Y-76608689D01*
X178382394Y-76477579D01*
X178442737Y-76331897D01*
X178473500Y-76177242D01*
X178473500Y-76019558D01*
X178473500Y-76019555D01*
X178473499Y-76019553D01*
X178463418Y-75968871D01*
X178442737Y-75864903D01*
X178439095Y-75856111D01*
X178382397Y-75719227D01*
X178382390Y-75719214D01*
X178294789Y-75588111D01*
X178294786Y-75588107D01*
X178183292Y-75476613D01*
X178183288Y-75476610D01*
X178052185Y-75389009D01*
X178052172Y-75389002D01*
X177906501Y-75328664D01*
X177906489Y-75328661D01*
X177751845Y-75297900D01*
X177751842Y-75297900D01*
X177594158Y-75297900D01*
X177594155Y-75297900D01*
X177439510Y-75328661D01*
X177439498Y-75328664D01*
X177293827Y-75389002D01*
X177293814Y-75389009D01*
X177162711Y-75476610D01*
X177162707Y-75476613D01*
X177051213Y-75588107D01*
X177051210Y-75588111D01*
X176963609Y-75719214D01*
X176963602Y-75719227D01*
X176903264Y-75864898D01*
X176903261Y-75864908D01*
X176889920Y-75931979D01*
X176857535Y-75993890D01*
X176855984Y-75995468D01*
X173934673Y-78916781D01*
X173873350Y-78950266D01*
X173846992Y-78953100D01*
X158892608Y-78953100D01*
X158825569Y-78933415D01*
X158779814Y-78880611D01*
X158769870Y-78811453D01*
X158798895Y-78747897D01*
X158804927Y-78741419D01*
X159340464Y-78205882D01*
X160961131Y-76585213D01*
X161022452Y-76551730D01*
X161024517Y-76551299D01*
X161091697Y-76537937D01*
X161237379Y-76477594D01*
X161368489Y-76389989D01*
X161479989Y-76278489D01*
X161567594Y-76147379D01*
X161627937Y-76001697D01*
X161658700Y-75847042D01*
X161658700Y-75689358D01*
X161658700Y-75689355D01*
X161658699Y-75689353D01*
X161643596Y-75613428D01*
X161627937Y-75534703D01*
X161603875Y-75476611D01*
X161567597Y-75389027D01*
X161567590Y-75389014D01*
X161479989Y-75257911D01*
X161479986Y-75257907D01*
X161368492Y-75146413D01*
X161368488Y-75146410D01*
X161237385Y-75058809D01*
X161237372Y-75058802D01*
X161091701Y-74998464D01*
X161091689Y-74998461D01*
X161008432Y-74981900D01*
X160946521Y-74949515D01*
X160911947Y-74888800D01*
X160915686Y-74819030D01*
X160944940Y-74772604D01*
X161545331Y-74172213D01*
X161606652Y-74138730D01*
X161608717Y-74138299D01*
X161675897Y-74124937D01*
X161821579Y-74064594D01*
X161952689Y-73976989D01*
X162064189Y-73865489D01*
X162151794Y-73734379D01*
X162212137Y-73588697D01*
X162242900Y-73434042D01*
X162242900Y-73276358D01*
X162242900Y-73276355D01*
X162242899Y-73276353D01*
X162232818Y-73225671D01*
X162212137Y-73121703D01*
X162195302Y-73081059D01*
X162151797Y-72976027D01*
X162151790Y-72976014D01*
X162064189Y-72844911D01*
X162064186Y-72844907D01*
X161952692Y-72733413D01*
X161952688Y-72733410D01*
X161821585Y-72645809D01*
X161821572Y-72645802D01*
X161675901Y-72585464D01*
X161675889Y-72585461D01*
X161521245Y-72554700D01*
X161521242Y-72554700D01*
X161363558Y-72554700D01*
X161363555Y-72554700D01*
X161208910Y-72585461D01*
X161208898Y-72585464D01*
X161063227Y-72645802D01*
X161063214Y-72645809D01*
X160932111Y-72733410D01*
X160932107Y-72733413D01*
X160820613Y-72844907D01*
X160820610Y-72844911D01*
X160733009Y-72976014D01*
X160733002Y-72976027D01*
X160672664Y-73121698D01*
X160672661Y-73121708D01*
X160659320Y-73188779D01*
X160626935Y-73250690D01*
X160625384Y-73252268D01*
X159411183Y-74466469D01*
X159349860Y-74499954D01*
X159280168Y-74494970D01*
X159224235Y-74453098D01*
X159201885Y-74402979D01*
X159196020Y-74373493D01*
X159189537Y-74340903D01*
X159189535Y-74340897D01*
X159129197Y-74195227D01*
X159129190Y-74195214D01*
X159041589Y-74064111D01*
X159041586Y-74064107D01*
X158930092Y-73952613D01*
X158930088Y-73952610D01*
X158798985Y-73865009D01*
X158798972Y-73865002D01*
X158653301Y-73804664D01*
X158653289Y-73804661D01*
X158498645Y-73773900D01*
X158498642Y-73773900D01*
X158340958Y-73773900D01*
X158340955Y-73773900D01*
X158186310Y-73804661D01*
X158186302Y-73804663D01*
X158109642Y-73836416D01*
X158043867Y-73863661D01*
X157996416Y-73873100D01*
X151444071Y-73873100D01*
X151377032Y-73853415D01*
X151343754Y-73821986D01*
X151237966Y-73676381D01*
X151093219Y-73531634D01*
X151093213Y-73531628D01*
X150927614Y-73411315D01*
X150906859Y-73400740D01*
X150834917Y-73364083D01*
X150784123Y-73316111D01*
X150767328Y-73248290D01*
X150789865Y-73182155D01*
X150834917Y-73143116D01*
X150927610Y-73095887D01*
X150973020Y-73062895D01*
X151093213Y-72975571D01*
X151093215Y-72975568D01*
X151093219Y-72975566D01*
X151237966Y-72830819D01*
X151237968Y-72830815D01*
X151237971Y-72830813D01*
X151308737Y-72733410D01*
X151358287Y-72665210D01*
X151451220Y-72482819D01*
X151514477Y-72288134D01*
X151546500Y-72085952D01*
X151546500Y-71881248D01*
X151529023Y-71770902D01*
X151514477Y-71679065D01*
X151451218Y-71484376D01*
X151410695Y-71404847D01*
X151358287Y-71301990D01*
X151325179Y-71256420D01*
X151237971Y-71136386D01*
X151093213Y-70991628D01*
X150927613Y-70871315D01*
X150927612Y-70871314D01*
X150927610Y-70871313D01*
X150867898Y-70840888D01*
X150745223Y-70778381D01*
X150550534Y-70715122D01*
X150367861Y-70686190D01*
X150348352Y-70683100D01*
X150143648Y-70683100D01*
X150124139Y-70686190D01*
X149941465Y-70715122D01*
X149746776Y-70778381D01*
X149564386Y-70871315D01*
X149398786Y-70991628D01*
X149254028Y-71136386D01*
X149133715Y-71301986D01*
X149040781Y-71484376D01*
X148977522Y-71679065D01*
X148952069Y-71839771D01*
X148945500Y-71881248D01*
X145633430Y-71881248D01*
X145725983Y-71788695D01*
X146861760Y-70652918D01*
X148001275Y-69513402D01*
X148062596Y-69479919D01*
X148132288Y-69484903D01*
X148176634Y-69513403D01*
X148216832Y-69553600D01*
X148230144Y-69566912D01*
X148379466Y-69659014D01*
X148546003Y-69714199D01*
X148648791Y-69724700D01*
X149648808Y-69724699D01*
X149648816Y-69724698D01*
X149648819Y-69724698D01*
X149705102Y-69718948D01*
X149751597Y-69714199D01*
X149918134Y-69659014D01*
X150067456Y-69566912D01*
X150173350Y-69461018D01*
X150234673Y-69427534D01*
X150261031Y-69424700D01*
X150575591Y-69424700D01*
X150642630Y-69444385D01*
X150663272Y-69461018D01*
X150757550Y-69555296D01*
X150906872Y-69647398D01*
X151073409Y-69702583D01*
X151176197Y-69713084D01*
X152176214Y-69713083D01*
X152176222Y-69713082D01*
X152176225Y-69713082D01*
X152232508Y-69707332D01*
X152279003Y-69702583D01*
X152445540Y-69647398D01*
X152594862Y-69555296D01*
X152700756Y-69449402D01*
X152762079Y-69415918D01*
X152788437Y-69413084D01*
X156697844Y-69413084D01*
X156727284Y-69421728D01*
X156757271Y-69428252D01*
X156762286Y-69432006D01*
X156764883Y-69432769D01*
X156785524Y-69449402D01*
X156903951Y-69567829D01*
X156930831Y-69608057D01*
X156986785Y-69743144D01*
X156986790Y-69743153D01*
X157085335Y-69890634D01*
X157085338Y-69890638D01*
X157210761Y-70016061D01*
X157210765Y-70016064D01*
X157358246Y-70114609D01*
X157358259Y-70114616D01*
X157481163Y-70165523D01*
X157522134Y-70182494D01*
X157522136Y-70182494D01*
X157522141Y-70182496D01*
X157696104Y-70217099D01*
X157696107Y-70217100D01*
X157696109Y-70217100D01*
X157873493Y-70217100D01*
X157873494Y-70217099D01*
X157931482Y-70205564D01*
X158047458Y-70182496D01*
X158047461Y-70182494D01*
X158047466Y-70182494D01*
X158211347Y-70114613D01*
X158358835Y-70016064D01*
X158484264Y-69890635D01*
X158582813Y-69743147D01*
X158650694Y-69579266D01*
X158652022Y-69572594D01*
X158680733Y-69428252D01*
X158685300Y-69405291D01*
X158685300Y-69227909D01*
X158685300Y-69227906D01*
X158685299Y-69227904D01*
X158650696Y-69053941D01*
X158650693Y-69053932D01*
X158649269Y-69050495D01*
X158594873Y-68919168D01*
X158582816Y-68890059D01*
X158582809Y-68890046D01*
X158484264Y-68742565D01*
X158484261Y-68742561D01*
X158358838Y-68617138D01*
X158358834Y-68617135D01*
X158211353Y-68518590D01*
X158211344Y-68518585D01*
X158076257Y-68462631D01*
X158036029Y-68435751D01*
X157591076Y-67990797D01*
X157591072Y-67990794D01*
X157459969Y-67903193D01*
X157459956Y-67903186D01*
X157314285Y-67842848D01*
X157314273Y-67842845D01*
X157159629Y-67812084D01*
X157159626Y-67812084D01*
X152788437Y-67812084D01*
X152758996Y-67803439D01*
X152729010Y-67796916D01*
X152723994Y-67793161D01*
X152721398Y-67792399D01*
X152700756Y-67775765D01*
X152625255Y-67700264D01*
X152591770Y-67638941D01*
X152596754Y-67569249D01*
X152625251Y-67524906D01*
X152718918Y-67431240D01*
X152811020Y-67281918D01*
X152866205Y-67115381D01*
X152876706Y-67012593D01*
X152876705Y-66212576D01*
X152875655Y-66202301D01*
X152866205Y-66109787D01*
X152866204Y-66109784D01*
X152856745Y-66081239D01*
X152811020Y-65943250D01*
X152718918Y-65793928D01*
X152594862Y-65669872D01*
X152499449Y-65611021D01*
X152445542Y-65577771D01*
X152445541Y-65577770D01*
X152445540Y-65577770D01*
X152431933Y-65573261D01*
X152411700Y-65566556D01*
X152354256Y-65526783D01*
X152327434Y-65462267D01*
X152326706Y-65448851D01*
X152326706Y-64997707D01*
X152346391Y-64930668D01*
X152377819Y-64897390D01*
X152530187Y-64786690D01*
X152680499Y-64636378D01*
X152680501Y-64636374D01*
X152680504Y-64636372D01*
X152805443Y-64464406D01*
X152805445Y-64464403D01*
X152805446Y-64464402D01*
X152809909Y-64455640D01*
X152857883Y-64404845D01*
X152925703Y-64388049D01*
X152991839Y-64410585D01*
X153030879Y-64455640D01*
X153034986Y-64463701D01*
X153035346Y-64464406D01*
X153160285Y-64636372D01*
X153310608Y-64786695D01*
X153482574Y-64911634D01*
X153482576Y-64911635D01*
X153482579Y-64911637D01*
X153671983Y-65008143D01*
X153874152Y-65073832D01*
X154084108Y-65107086D01*
X154084109Y-65107086D01*
X154296681Y-65107086D01*
X154296682Y-65107086D01*
X154506638Y-65073832D01*
X154708807Y-65008143D01*
X154898211Y-64911637D01*
X155070187Y-64786690D01*
X155183724Y-64673152D01*
X155245043Y-64639670D01*
X155314735Y-64644654D01*
X155370669Y-64686525D01*
X155387584Y-64717503D01*
X155436597Y-64848914D01*
X155436601Y-64848921D01*
X155522847Y-64964130D01*
X155522850Y-64964133D01*
X155638059Y-65050379D01*
X155638066Y-65050383D01*
X155772911Y-65100677D01*
X155819152Y-65105649D01*
X155883702Y-65132387D01*
X155923550Y-65189780D01*
X155929895Y-65228938D01*
X155929895Y-65343841D01*
X155960656Y-65498484D01*
X155960659Y-65498496D01*
X156020997Y-65644167D01*
X156021004Y-65644180D01*
X156108605Y-65775283D01*
X156108608Y-65775287D01*
X162573211Y-72239889D01*
X162654730Y-72321408D01*
X162684712Y-72351390D01*
X162815814Y-72438990D01*
X162815827Y-72438997D01*
X162921634Y-72482823D01*
X162961503Y-72499337D01*
X163116153Y-72530099D01*
X163116156Y-72530100D01*
X163116158Y-72530100D01*
X178941060Y-72530100D01*
X179008099Y-72549785D01*
X179028741Y-72566419D01*
X180591707Y-74129386D01*
X180591711Y-74129389D01*
X180722814Y-74216990D01*
X180722818Y-74216992D01*
X180722821Y-74216994D01*
X180868503Y-74277338D01*
X181010655Y-74305613D01*
X181023153Y-74308099D01*
X181023157Y-74308100D01*
X181023158Y-74308100D01*
X183577793Y-74308100D01*
X183625245Y-74317539D01*
X183760334Y-74373494D01*
X183760336Y-74373494D01*
X183760341Y-74373496D01*
X183934304Y-74408099D01*
X183934307Y-74408100D01*
X184087591Y-74408100D01*
X184154630Y-74427785D01*
X184200385Y-74480589D01*
X184210329Y-74549747D01*
X184181304Y-74613303D01*
X184175272Y-74619781D01*
X176017473Y-82777581D01*
X175956150Y-82811066D01*
X175929792Y-82813900D01*
X172935329Y-82813900D01*
X172809661Y-82838897D01*
X172809655Y-82838899D01*
X172691275Y-82887933D01*
X172691266Y-82887938D01*
X172584731Y-82959123D01*
X172584727Y-82959126D01*
X171677269Y-83866584D01*
X171615946Y-83900069D01*
X171613780Y-83900520D01*
X171546708Y-83913861D01*
X171546698Y-83913864D01*
X171401027Y-83974202D01*
X171401014Y-83974209D01*
X171269911Y-84061810D01*
X171269907Y-84061813D01*
X171158417Y-84173304D01*
X171158411Y-84173311D01*
X171154153Y-84179683D01*
X171100538Y-84224485D01*
X171031212Y-84233188D01*
X170982166Y-84213889D01*
X170965579Y-84202806D01*
X170965575Y-84202804D01*
X170965571Y-84202802D01*
X170819901Y-84142464D01*
X170819889Y-84142461D01*
X170665245Y-84111700D01*
X170665242Y-84111700D01*
X170507558Y-84111700D01*
X170507555Y-84111700D01*
X170352910Y-84142461D01*
X170352898Y-84142464D01*
X170207228Y-84202802D01*
X170207210Y-84202812D01*
X170202439Y-84206000D01*
X170135760Y-84226872D01*
X170068381Y-84208382D01*
X170030455Y-84171783D01*
X169963589Y-84071710D01*
X169852092Y-83960213D01*
X169852088Y-83960210D01*
X169720985Y-83872609D01*
X169720972Y-83872602D01*
X169575301Y-83812264D01*
X169575289Y-83812261D01*
X169420645Y-83781500D01*
X169420642Y-83781500D01*
X169262958Y-83781500D01*
X169262955Y-83781500D01*
X169108310Y-83812261D01*
X169108298Y-83812264D01*
X168962627Y-83872602D01*
X168962614Y-83872609D01*
X168831511Y-83960210D01*
X168831507Y-83960213D01*
X168720013Y-84071707D01*
X168720010Y-84071711D01*
X168632409Y-84202814D01*
X168632402Y-84202827D01*
X168572064Y-84348498D01*
X168572061Y-84348510D01*
X168541300Y-84503153D01*
X168541300Y-84660846D01*
X168572061Y-84815489D01*
X168572064Y-84815501D01*
X168632402Y-84961172D01*
X168632406Y-84961179D01*
X168670402Y-85018044D01*
X168691280Y-85084721D01*
X168691300Y-85086935D01*
X168691300Y-86424069D01*
X168691300Y-86424071D01*
X168691299Y-86424071D01*
X168711295Y-86524589D01*
X168711295Y-86524590D01*
X168716297Y-86549737D01*
X168716298Y-86549742D01*
X168716299Y-86549744D01*
X168765335Y-86668127D01*
X168829127Y-86763600D01*
X168836526Y-86774673D01*
X168836527Y-86774674D01*
X169591673Y-87529819D01*
X169602285Y-87549255D01*
X169616786Y-87565989D01*
X169618702Y-87579320D01*
X169625158Y-87591142D01*
X169623578Y-87613228D01*
X169626730Y-87635147D01*
X169621134Y-87647398D01*
X169620174Y-87660833D01*
X169606904Y-87678558D01*
X169597705Y-87698703D01*
X169586372Y-87705985D01*
X169578302Y-87716767D01*
X169557556Y-87724504D01*
X169538927Y-87736477D01*
X169517008Y-87739628D01*
X169512838Y-87741184D01*
X169503992Y-87741500D01*
X169408608Y-87741500D01*
X169341569Y-87721815D01*
X169320927Y-87705181D01*
X166196415Y-84580669D01*
X166162930Y-84519346D01*
X166162493Y-84517252D01*
X166149137Y-84450103D01*
X166121356Y-84383034D01*
X166088797Y-84304427D01*
X166088790Y-84304414D01*
X166001189Y-84173311D01*
X166001186Y-84173307D01*
X165889692Y-84061813D01*
X165889688Y-84061810D01*
X165758585Y-83974209D01*
X165758572Y-83974202D01*
X165612901Y-83913864D01*
X165612889Y-83913861D01*
X165458245Y-83883100D01*
X165458242Y-83883100D01*
X165300558Y-83883100D01*
X165300555Y-83883100D01*
X165145910Y-83913861D01*
X165145898Y-83913864D01*
X165000227Y-83974202D01*
X165000214Y-83974209D01*
X164869111Y-84061810D01*
X164869107Y-84061813D01*
X164757613Y-84173307D01*
X164757610Y-84173311D01*
X164670009Y-84304414D01*
X164670002Y-84304427D01*
X164609664Y-84450098D01*
X164609661Y-84450110D01*
X164578900Y-84604753D01*
X164578900Y-84762446D01*
X164609661Y-84917089D01*
X164609664Y-84917101D01*
X164670002Y-85062772D01*
X164670009Y-85062785D01*
X164757610Y-85193888D01*
X164757613Y-85193892D01*
X164869107Y-85305386D01*
X164869111Y-85305389D01*
X165000214Y-85392990D01*
X165000227Y-85392997D01*
X165087630Y-85429199D01*
X165145903Y-85453337D01*
X165212980Y-85466679D01*
X165274888Y-85499061D01*
X165276468Y-85500614D01*
X168673125Y-88897272D01*
X168673132Y-88897278D01*
X168779663Y-88968459D01*
X168779667Y-88968461D01*
X168779674Y-88968466D01*
X168847845Y-88996703D01*
X168856353Y-89000227D01*
X168859520Y-89001539D01*
X168859529Y-89001543D01*
X168884000Y-89021266D01*
X168913923Y-89045380D01*
X168913924Y-89045384D01*
X168913929Y-89045388D01*
X168923766Y-89074953D01*
X168935988Y-89111675D01*
X168935986Y-89111680D01*
X168935988Y-89111684D01*
X168928433Y-89141275D01*
X168918709Y-89179374D01*
X168918705Y-89179377D01*
X168918704Y-89179382D01*
X168895836Y-89200669D01*
X168867571Y-89226984D01*
X168867566Y-89226985D01*
X168867563Y-89226988D01*
X168867525Y-89226994D01*
X168812067Y-89240100D01*
X165319208Y-89240100D01*
X165252169Y-89220415D01*
X165231527Y-89203781D01*
X161827615Y-85799869D01*
X161794130Y-85738546D01*
X161793693Y-85736452D01*
X161780337Y-85669303D01*
X161730709Y-85549489D01*
X161719997Y-85523627D01*
X161719990Y-85523614D01*
X161632389Y-85392511D01*
X161632386Y-85392507D01*
X161520892Y-85281013D01*
X161520888Y-85281010D01*
X161389785Y-85193409D01*
X161389772Y-85193402D01*
X161244101Y-85133064D01*
X161244089Y-85133061D01*
X161089445Y-85102300D01*
X161089442Y-85102300D01*
X160931758Y-85102300D01*
X160931755Y-85102300D01*
X160777110Y-85133061D01*
X160777098Y-85133064D01*
X160631427Y-85193402D01*
X160631414Y-85193409D01*
X160500311Y-85281010D01*
X160500307Y-85281013D01*
X160388813Y-85392507D01*
X160388810Y-85392511D01*
X160301209Y-85523614D01*
X160301202Y-85523627D01*
X160240864Y-85669298D01*
X160240861Y-85669310D01*
X160210100Y-85823953D01*
X160210100Y-85981646D01*
X160240861Y-86136289D01*
X160240864Y-86136301D01*
X160301202Y-86281972D01*
X160301209Y-86281985D01*
X160388810Y-86413088D01*
X160388813Y-86413092D01*
X160500307Y-86524586D01*
X160500311Y-86524589D01*
X160631414Y-86612190D01*
X160631427Y-86612197D01*
X160696767Y-86639261D01*
X160777103Y-86672537D01*
X160844180Y-86685879D01*
X160906088Y-86718261D01*
X160907668Y-86719814D01*
X164583725Y-90395872D01*
X164583726Y-90395873D01*
X164583729Y-90395875D01*
X164583731Y-90395877D01*
X164690273Y-90467065D01*
X164808656Y-90516101D01*
X164808660Y-90516101D01*
X164808661Y-90516102D01*
X164934328Y-90541100D01*
X164934331Y-90541100D01*
X180124671Y-90541100D01*
X180227425Y-90520660D01*
X180250344Y-90516101D01*
X180368727Y-90467065D01*
X180475269Y-90395877D01*
X183436816Y-87434329D01*
X183498137Y-87400846D01*
X183567829Y-87405830D01*
X183623762Y-87447702D01*
X183648179Y-87513166D01*
X183634980Y-87578306D01*
X183533434Y-87777600D01*
X183460446Y-88002231D01*
X183423500Y-88235502D01*
X183423500Y-88471697D01*
X183460446Y-88704968D01*
X183533433Y-88929596D01*
X183614640Y-89088972D01*
X183640657Y-89140033D01*
X183779483Y-89331110D01*
X183946490Y-89498117D01*
X184137567Y-89636943D01*
X184236991Y-89687602D01*
X184348003Y-89744166D01*
X184348005Y-89744166D01*
X184348008Y-89744168D01*
X184468412Y-89783289D01*
X184572631Y-89817153D01*
X184805903Y-89854100D01*
X184805908Y-89854100D01*
X185342097Y-89854100D01*
X185575368Y-89817153D01*
X185594120Y-89811060D01*
X185799992Y-89744168D01*
X186010433Y-89636943D01*
X186201510Y-89498117D01*
X186368517Y-89331110D01*
X186499119Y-89151353D01*
X187108700Y-89151353D01*
X187108700Y-89309046D01*
X187139461Y-89463689D01*
X187139464Y-89463701D01*
X187199802Y-89609372D01*
X187199809Y-89609385D01*
X187287410Y-89740488D01*
X187287413Y-89740492D01*
X187398907Y-89851986D01*
X187398911Y-89851989D01*
X187530014Y-89939590D01*
X187530027Y-89939597D01*
X187641812Y-89985899D01*
X187675703Y-89999937D01*
X187803387Y-90025335D01*
X187830353Y-90030699D01*
X187830356Y-90030700D01*
X187830358Y-90030700D01*
X187988044Y-90030700D01*
X187988045Y-90030699D01*
X188142697Y-89999937D01*
X188288379Y-89939594D01*
X188419489Y-89851989D01*
X188530989Y-89740489D01*
X188618594Y-89609379D01*
X188619961Y-89606080D01*
X188675391Y-89472257D01*
X188678937Y-89463697D01*
X188709700Y-89309042D01*
X188709700Y-89176753D01*
X203644100Y-89176753D01*
X203644100Y-89334446D01*
X203674861Y-89489089D01*
X203674864Y-89489101D01*
X203735202Y-89634772D01*
X203735209Y-89634785D01*
X203822810Y-89765888D01*
X203822813Y-89765892D01*
X203934307Y-89877386D01*
X203934311Y-89877389D01*
X204065414Y-89964990D01*
X204065427Y-89964997D01*
X204211098Y-90025335D01*
X204211103Y-90025337D01*
X204343764Y-90051725D01*
X204365753Y-90056099D01*
X204365756Y-90056100D01*
X204365758Y-90056100D01*
X204523444Y-90056100D01*
X204523445Y-90056099D01*
X204678097Y-90025337D01*
X204823779Y-89964994D01*
X204954889Y-89877389D01*
X205066389Y-89765889D01*
X205153994Y-89634779D01*
X205214337Y-89489097D01*
X205245100Y-89334442D01*
X205245100Y-89176758D01*
X205245100Y-89176755D01*
X205245099Y-89176753D01*
X205241050Y-89156396D01*
X205214337Y-89022103D01*
X205176018Y-88929592D01*
X205153997Y-88876427D01*
X205153990Y-88876414D01*
X205066389Y-88745311D01*
X205066386Y-88745307D01*
X204954892Y-88633813D01*
X204954888Y-88633810D01*
X204823785Y-88546209D01*
X204823772Y-88546202D01*
X204678101Y-88485864D01*
X204678089Y-88485861D01*
X204523445Y-88455100D01*
X204523442Y-88455100D01*
X204365758Y-88455100D01*
X204365755Y-88455100D01*
X204211110Y-88485861D01*
X204211098Y-88485864D01*
X204065427Y-88546202D01*
X204065414Y-88546209D01*
X203934311Y-88633810D01*
X203934307Y-88633813D01*
X203822813Y-88745307D01*
X203822810Y-88745311D01*
X203735209Y-88876414D01*
X203735202Y-88876427D01*
X203674864Y-89022098D01*
X203674861Y-89022110D01*
X203644100Y-89176753D01*
X188709700Y-89176753D01*
X188709700Y-89151358D01*
X188709700Y-89151355D01*
X188709699Y-89151353D01*
X188678938Y-88996706D01*
X188678935Y-88996698D01*
X188618597Y-88851027D01*
X188618590Y-88851014D01*
X188530989Y-88719911D01*
X188530986Y-88719907D01*
X188419492Y-88608413D01*
X188419488Y-88608410D01*
X188288385Y-88520809D01*
X188288372Y-88520802D01*
X188142701Y-88460464D01*
X188142689Y-88460461D01*
X187988045Y-88429700D01*
X187988042Y-88429700D01*
X187830358Y-88429700D01*
X187830355Y-88429700D01*
X187675710Y-88460461D01*
X187675698Y-88460464D01*
X187530027Y-88520802D01*
X187530014Y-88520809D01*
X187398911Y-88608410D01*
X187398907Y-88608413D01*
X187287413Y-88719907D01*
X187287410Y-88719911D01*
X187199809Y-88851014D01*
X187199802Y-88851027D01*
X187139464Y-88996698D01*
X187139462Y-88996706D01*
X187108700Y-89151353D01*
X186499119Y-89151353D01*
X186507343Y-89140033D01*
X186614568Y-88929592D01*
X186687553Y-88704968D01*
X186702846Y-88608410D01*
X186724500Y-88471697D01*
X186724500Y-88235502D01*
X186687553Y-88002231D01*
X186653689Y-87898012D01*
X186614568Y-87777608D01*
X186614566Y-87777605D01*
X186614566Y-87777603D01*
X186548223Y-87647398D01*
X186507343Y-87567167D01*
X186368517Y-87376090D01*
X186201510Y-87209083D01*
X186010433Y-87070257D01*
X185973030Y-87051199D01*
X185799996Y-86963033D01*
X185575368Y-86890046D01*
X185342097Y-86853100D01*
X185342092Y-86853100D01*
X184805908Y-86853100D01*
X184805903Y-86853100D01*
X184572631Y-86890046D01*
X184348000Y-86963034D01*
X184148706Y-87064580D01*
X184080037Y-87077476D01*
X184015297Y-87051199D01*
X183975040Y-86994093D01*
X183972048Y-86924287D01*
X184004729Y-86866416D01*
X184398327Y-86472819D01*
X184459650Y-86439334D01*
X184486008Y-86436500D01*
X188943284Y-86436500D01*
X189006405Y-86453768D01*
X189038619Y-86472819D01*
X189148402Y-86537744D01*
X189189682Y-86549737D01*
X189306226Y-86583597D01*
X189306229Y-86583597D01*
X189306231Y-86583598D01*
X189343106Y-86586500D01*
X189343114Y-86586500D01*
X190499486Y-86586500D01*
X190499494Y-86586500D01*
X190536369Y-86583598D01*
X190536371Y-86583597D01*
X190536373Y-86583597D01*
X190577991Y-86571505D01*
X190694198Y-86537744D01*
X190835665Y-86454081D01*
X190951881Y-86337865D01*
X190952067Y-86337549D01*
X190952277Y-86337353D01*
X190956661Y-86331702D01*
X190957572Y-86332409D01*
X191003136Y-86289866D01*
X191071877Y-86277362D01*
X191136467Y-86304006D01*
X191160655Y-86331921D01*
X191160939Y-86331702D01*
X191164979Y-86336911D01*
X191165532Y-86337548D01*
X191165719Y-86337865D01*
X191165721Y-86337867D01*
X191165723Y-86337870D01*
X191281929Y-86454076D01*
X191281933Y-86454079D01*
X191281935Y-86454081D01*
X191423402Y-86537744D01*
X191464682Y-86549737D01*
X191581226Y-86583597D01*
X191581229Y-86583597D01*
X191581231Y-86583598D01*
X191618106Y-86586500D01*
X191618114Y-86586500D01*
X192774486Y-86586500D01*
X192774494Y-86586500D01*
X192811369Y-86583598D01*
X192811371Y-86583597D01*
X192811373Y-86583597D01*
X192852991Y-86571505D01*
X192969198Y-86537744D01*
X193078981Y-86472819D01*
X193111195Y-86453768D01*
X193174316Y-86436500D01*
X225419192Y-86436500D01*
X225486231Y-86456185D01*
X225506873Y-86472819D01*
X225673315Y-86639261D01*
X225706800Y-86700584D01*
X225701816Y-86770276D01*
X225659944Y-86826209D01*
X225594480Y-86850626D01*
X225526207Y-86835774D01*
X225520538Y-86832481D01*
X225498340Y-86818790D01*
X225498334Y-86818786D01*
X225331797Y-86763601D01*
X225331795Y-86763600D01*
X225229010Y-86753100D01*
X223328998Y-86753100D01*
X223328981Y-86753101D01*
X223226203Y-86763600D01*
X223226200Y-86763601D01*
X223059668Y-86818785D01*
X223059663Y-86818787D01*
X222910342Y-86910889D01*
X222786289Y-87034942D01*
X222694187Y-87184263D01*
X222694185Y-87184268D01*
X222668093Y-87263009D01*
X222639001Y-87350803D01*
X222639001Y-87350804D01*
X222639000Y-87350804D01*
X222628500Y-87453583D01*
X222628500Y-89053601D01*
X222628501Y-89053618D01*
X222639000Y-89156396D01*
X222639001Y-89156399D01*
X222694185Y-89322931D01*
X222694187Y-89322936D01*
X222705369Y-89341065D01*
X222786288Y-89472256D01*
X222910344Y-89596312D01*
X223059666Y-89688414D01*
X223226203Y-89743599D01*
X223328991Y-89754100D01*
X223354498Y-89754099D01*
X223421536Y-89773781D01*
X223467293Y-89826584D01*
X223478500Y-89878099D01*
X223478500Y-90982446D01*
X223509261Y-91137089D01*
X223509264Y-91137101D01*
X223569602Y-91282772D01*
X223569609Y-91282785D01*
X223657210Y-91413888D01*
X223657213Y-91413892D01*
X228343707Y-96100386D01*
X228343711Y-96100389D01*
X228474814Y-96187990D01*
X228474827Y-96187997D01*
X228564659Y-96225206D01*
X228620503Y-96248337D01*
X228775153Y-96279099D01*
X228775156Y-96279100D01*
X228775158Y-96279100D01*
X228932842Y-96279100D01*
X229373712Y-96279100D01*
X229440751Y-96298785D01*
X229479256Y-96342871D01*
X229481015Y-96341787D01*
X229484805Y-96347932D01*
X229484806Y-96347934D01*
X229576908Y-96497256D01*
X229700964Y-96621312D01*
X229850286Y-96713414D01*
X230016823Y-96768599D01*
X230119611Y-96779100D01*
X231319628Y-96779099D01*
X231422417Y-96768599D01*
X231588954Y-96713414D01*
X231738276Y-96621312D01*
X231862332Y-96497256D01*
X231954434Y-96347934D01*
X231977722Y-96277654D01*
X231981730Y-96269650D01*
X231999680Y-96250372D01*
X232014675Y-96228716D01*
X232023115Y-96225206D01*
X232029345Y-96218517D01*
X232054869Y-96212004D01*
X232079191Y-96201892D01*
X232095454Y-96201648D01*
X232097045Y-96201243D01*
X232098143Y-96201608D01*
X232102339Y-96201546D01*
X232140145Y-96204521D01*
X232819620Y-95525046D01*
X232819620Y-95531261D01*
X232846879Y-95632994D01*
X232899540Y-95724206D01*
X232974014Y-95798680D01*
X233065226Y-95851341D01*
X233166959Y-95878600D01*
X233173173Y-95878600D01*
X232493696Y-96558074D01*
X232538270Y-96590459D01*
X232720588Y-96683355D01*
X232915202Y-96746590D01*
X233117303Y-96778600D01*
X233321937Y-96778600D01*
X233524037Y-96746590D01*
X233718651Y-96683355D01*
X233900969Y-96590459D01*
X233945541Y-96558074D01*
X233266067Y-95878600D01*
X233272281Y-95878600D01*
X233374014Y-95851341D01*
X233465226Y-95798680D01*
X233539700Y-95724206D01*
X233592361Y-95632994D01*
X233619620Y-95531261D01*
X233619620Y-95525047D01*
X234299094Y-96204521D01*
X234331479Y-96159949D01*
X234424375Y-95977631D01*
X234487610Y-95783017D01*
X234519620Y-95580917D01*
X234519620Y-95376282D01*
X234487610Y-95174182D01*
X234424375Y-94979568D01*
X234331479Y-94797250D01*
X234299094Y-94752677D01*
X234299094Y-94752676D01*
X233619620Y-95432151D01*
X233619620Y-95425939D01*
X233592361Y-95324206D01*
X233539700Y-95232994D01*
X233465226Y-95158520D01*
X233374014Y-95105859D01*
X233272281Y-95078600D01*
X233266066Y-95078600D01*
X233945542Y-94399124D01*
X233945541Y-94399123D01*
X233900979Y-94366747D01*
X233900970Y-94366741D01*
X233718651Y-94273844D01*
X233524037Y-94210609D01*
X233321937Y-94178600D01*
X233117303Y-94178600D01*
X232915202Y-94210609D01*
X232720588Y-94273844D01*
X232538264Y-94366743D01*
X232493697Y-94399123D01*
X232493697Y-94399124D01*
X233173174Y-95078600D01*
X233166959Y-95078600D01*
X233065226Y-95105859D01*
X232974014Y-95158520D01*
X232899540Y-95232994D01*
X232846879Y-95324206D01*
X232819620Y-95425939D01*
X232819620Y-95432153D01*
X232140144Y-94752677D01*
X232102339Y-94755653D01*
X232033961Y-94741289D01*
X231984204Y-94692238D01*
X231981730Y-94687549D01*
X231977721Y-94679542D01*
X231954434Y-94609266D01*
X231862332Y-94459944D01*
X231738276Y-94335888D01*
X231588954Y-94243786D01*
X231422417Y-94188601D01*
X231422415Y-94188600D01*
X231319630Y-94178100D01*
X230119618Y-94178100D01*
X230119601Y-94178101D01*
X230016823Y-94188600D01*
X230016820Y-94188601D01*
X229850288Y-94243785D01*
X229850283Y-94243787D01*
X229700962Y-94335889D01*
X229576909Y-94459942D01*
X229481015Y-94615413D01*
X229479220Y-94614306D01*
X229474634Y-94619516D01*
X229467425Y-94635303D01*
X229452026Y-94645198D01*
X229439933Y-94658937D01*
X229423045Y-94663824D01*
X229408647Y-94673077D01*
X229373712Y-94678100D01*
X229236940Y-94678100D01*
X229169901Y-94658415D01*
X229149259Y-94641781D01*
X225115819Y-90608341D01*
X225082334Y-90547018D01*
X225079500Y-90520660D01*
X225079500Y-89878099D01*
X225099185Y-89811060D01*
X225151989Y-89765305D01*
X225203500Y-89754099D01*
X225229002Y-89754099D01*
X225229008Y-89754099D01*
X225331797Y-89743599D01*
X225498334Y-89688414D01*
X225647656Y-89596312D01*
X225771712Y-89472256D01*
X225863814Y-89322934D01*
X225918999Y-89156397D01*
X225929500Y-89053609D01*
X225929499Y-87453592D01*
X225927531Y-87434331D01*
X225918999Y-87350803D01*
X225918998Y-87350800D01*
X225886720Y-87253393D01*
X225863814Y-87184266D01*
X225850118Y-87162061D01*
X225831678Y-87094672D01*
X225852600Y-87028008D01*
X225906241Y-86983238D01*
X225975571Y-86974576D01*
X226038579Y-87004771D01*
X226043338Y-87009285D01*
X226610527Y-87576474D01*
X226693347Y-87631812D01*
X226693346Y-87631812D01*
X226711160Y-87643714D01*
X226717073Y-87647665D01*
X226835456Y-87696701D01*
X226835460Y-87696701D01*
X226835461Y-87696702D01*
X226961128Y-87721700D01*
X226961131Y-87721700D01*
X227799331Y-87721700D01*
X228751481Y-87721700D01*
X228818520Y-87741385D01*
X228851799Y-87772815D01*
X228962792Y-87925586D01*
X229113115Y-88075909D01*
X229285081Y-88200848D01*
X229285083Y-88200849D01*
X229285086Y-88200851D01*
X229294395Y-88205594D01*
X229345192Y-88253566D01*
X229361989Y-88321387D01*
X229339454Y-88387522D01*
X229294407Y-88426560D01*
X229285348Y-88431176D01*
X229285342Y-88431180D01*
X229231184Y-88470527D01*
X229231184Y-88470528D01*
X229863493Y-89102837D01*
X229799909Y-89119875D01*
X229685895Y-89185701D01*
X229592803Y-89278793D01*
X229526977Y-89392807D01*
X229509939Y-89456391D01*
X228877630Y-88824082D01*
X228877629Y-88824082D01*
X228838282Y-88878239D01*
X228741806Y-89067582D01*
X228676144Y-89269669D01*
X228676144Y-89269672D01*
X228642902Y-89479553D01*
X228642902Y-89692046D01*
X228676144Y-89901927D01*
X228676144Y-89901930D01*
X228741806Y-90104017D01*
X228838277Y-90293350D01*
X228877630Y-90347516D01*
X229509939Y-89715208D01*
X229526977Y-89778793D01*
X229592803Y-89892807D01*
X229685895Y-89985899D01*
X229799909Y-90051725D01*
X229863492Y-90068762D01*
X229231184Y-90701069D01*
X229231184Y-90701070D01*
X229285351Y-90740424D01*
X229474684Y-90836895D01*
X229676772Y-90902557D01*
X229886656Y-90935800D01*
X230099148Y-90935800D01*
X230309029Y-90902557D01*
X230309032Y-90902557D01*
X230511119Y-90836895D01*
X230700456Y-90740422D01*
X230754618Y-90701070D01*
X230754619Y-90701070D01*
X230122310Y-90068762D01*
X230185895Y-90051725D01*
X230299909Y-89985899D01*
X230393001Y-89892807D01*
X230458827Y-89778793D01*
X230475864Y-89715209D01*
X231108172Y-90347517D01*
X231108172Y-90347516D01*
X231147524Y-90293354D01*
X231243997Y-90104017D01*
X231309659Y-89901930D01*
X231309659Y-89901927D01*
X231342902Y-89692046D01*
X231342902Y-89479553D01*
X231309659Y-89269672D01*
X231309659Y-89269669D01*
X231243997Y-89067582D01*
X231147526Y-88878249D01*
X231108172Y-88824082D01*
X231108171Y-88824082D01*
X230475864Y-89456390D01*
X230458827Y-89392807D01*
X230393001Y-89278793D01*
X230299909Y-89185701D01*
X230185895Y-89119875D01*
X230122311Y-89102837D01*
X230699751Y-88525395D01*
X230683976Y-88422553D01*
X230680108Y-88420038D01*
X230661448Y-88398271D01*
X230640608Y-88378588D01*
X230638997Y-88372082D01*
X230634634Y-88366993D01*
X230630703Y-88338590D01*
X230623814Y-88310766D01*
X230625975Y-88304422D01*
X230625057Y-88297782D01*
X230637105Y-88271765D01*
X230646353Y-88244632D01*
X230651895Y-88239829D01*
X230654419Y-88234381D01*
X230668527Y-88225419D01*
X230691410Y-88205593D01*
X230700718Y-88200851D01*
X230836776Y-88102000D01*
X230872688Y-88075909D01*
X230872690Y-88075906D01*
X230872694Y-88075904D01*
X231023006Y-87925592D01*
X231147953Y-87753616D01*
X231149281Y-87751008D01*
X231150048Y-87750195D01*
X231150501Y-87749458D01*
X231150655Y-87749552D01*
X231197250Y-87700211D01*
X231212316Y-87692736D01*
X231243242Y-87679926D01*
X231321127Y-87647665D01*
X231427669Y-87576477D01*
X232465326Y-86538818D01*
X232526649Y-86505334D01*
X232553007Y-86502500D01*
X233551101Y-86502500D01*
X233618140Y-86522185D01*
X233663895Y-86574989D01*
X233673389Y-86605968D01*
X233675101Y-86616164D01*
X233675101Y-86641360D01*
X233690556Y-86758762D01*
X233704828Y-86793219D01*
X233707163Y-86807122D01*
X233704615Y-86828382D01*
X233706904Y-86849673D01*
X233699438Y-86875103D01*
X233691043Y-86895370D01*
X233683587Y-86952000D01*
X233726100Y-86952000D01*
X233793139Y-86971685D01*
X233807361Y-86982338D01*
X233816839Y-86990561D01*
X233847318Y-87030282D01*
X233972759Y-87126536D01*
X233974301Y-87127175D01*
X233982558Y-87134338D01*
X233999492Y-87160724D01*
X234017986Y-87186052D01*
X234018215Y-87189896D01*
X234020296Y-87193139D01*
X234020276Y-87224496D01*
X234022141Y-87255798D01*
X234020254Y-87259157D01*
X234020252Y-87263009D01*
X234003289Y-87289367D01*
X233987929Y-87316719D01*
X233984524Y-87318525D01*
X233982441Y-87321763D01*
X233953913Y-87334770D01*
X233926211Y-87349471D01*
X233920370Y-87350063D01*
X233918868Y-87350749D01*
X233916702Y-87350436D01*
X233901297Y-87352000D01*
X233683590Y-87352000D01*
X233683588Y-87352001D01*
X233691042Y-87408627D01*
X233691044Y-87408633D01*
X233751499Y-87554585D01*
X233847675Y-87679924D01*
X233973013Y-87776100D01*
X234118963Y-87836553D01*
X234119467Y-87836620D01*
X234119863Y-87836795D01*
X234126819Y-87838659D01*
X234126528Y-87839743D01*
X234183366Y-87864882D01*
X234221842Y-87923203D01*
X234224910Y-87983751D01*
X234201389Y-88101999D01*
X234201390Y-88102000D01*
X234919363Y-88102000D01*
X234900600Y-88147299D01*
X234900600Y-88556701D01*
X234919363Y-88602000D01*
X234201389Y-88602000D01*
X234238066Y-88786389D01*
X234238068Y-88786397D01*
X234311564Y-88963833D01*
X234311569Y-88963842D01*
X234418267Y-89123526D01*
X234418270Y-89123530D01*
X234554069Y-89259329D01*
X234554073Y-89259332D01*
X234713757Y-89366030D01*
X234713767Y-89366035D01*
X234891199Y-89439530D01*
X234891206Y-89439533D01*
X234925600Y-89446373D01*
X234925600Y-88617056D01*
X234942466Y-88657775D01*
X235019825Y-88735134D01*
X235120899Y-88777000D01*
X235230301Y-88777000D01*
X235331375Y-88735134D01*
X235408734Y-88657775D01*
X235425600Y-88617056D01*
X235425600Y-89446373D01*
X235459993Y-89439532D01*
X235460000Y-89439530D01*
X235637432Y-89366035D01*
X235637442Y-89366030D01*
X235797126Y-89259332D01*
X235797130Y-89259329D01*
X235932929Y-89123530D01*
X235932932Y-89123526D01*
X236039630Y-88963842D01*
X236039635Y-88963833D01*
X236113131Y-88786397D01*
X236113133Y-88786389D01*
X236149810Y-88602000D01*
X235431837Y-88602000D01*
X235450600Y-88556701D01*
X235450600Y-88352013D01*
X236600600Y-88352013D01*
X236600600Y-88627000D01*
X237625600Y-88627000D01*
X237625600Y-87102000D01*
X236600601Y-87102000D01*
X236600601Y-87401986D01*
X236611094Y-87504697D01*
X236666241Y-87671119D01*
X236666243Y-87671124D01*
X236753077Y-87811903D01*
X236771517Y-87879296D01*
X236753077Y-87942097D01*
X236666243Y-88082875D01*
X236666241Y-88082880D01*
X236611094Y-88249302D01*
X236611093Y-88249309D01*
X236600600Y-88352013D01*
X235450600Y-88352013D01*
X235450600Y-88147299D01*
X235431837Y-88102000D01*
X236149810Y-88102000D01*
X236149810Y-88101999D01*
X236113133Y-87917610D01*
X236113132Y-87917606D01*
X236090609Y-87863231D01*
X236083140Y-87793762D01*
X236114414Y-87731282D01*
X236129684Y-87717401D01*
X236178523Y-87679926D01*
X236274700Y-87554586D01*
X236335155Y-87408631D01*
X236342612Y-87352000D01*
X236124903Y-87352000D01*
X236099583Y-87344565D01*
X236073462Y-87340826D01*
X236066587Y-87334876D01*
X236057864Y-87332315D01*
X236040585Y-87312374D01*
X236020629Y-87295104D01*
X236018061Y-87286380D01*
X236012109Y-87279511D01*
X236008353Y-87253393D01*
X236000903Y-87228077D01*
X236003458Y-87219352D01*
X236002165Y-87210353D01*
X236013127Y-87186348D01*
X236020546Y-87161025D01*
X236028784Y-87152064D01*
X236031190Y-87146797D01*
X236043642Y-87134338D01*
X236051898Y-87127175D01*
X236053441Y-87126536D01*
X236178882Y-87030282D01*
X236209360Y-86990561D01*
X236218839Y-86982338D01*
X236239659Y-86972813D01*
X236258153Y-86959310D01*
X236275965Y-86956205D01*
X236282377Y-86953273D01*
X236288096Y-86954091D01*
X236300100Y-86952000D01*
X236342610Y-86952000D01*
X236342611Y-86951998D01*
X236335158Y-86895377D01*
X236335154Y-86895365D01*
X236326763Y-86875106D01*
X236319294Y-86805637D01*
X236326764Y-86780199D01*
X236335644Y-86758762D01*
X236351100Y-86641361D01*
X236351099Y-86362640D01*
X236347837Y-86337864D01*
X236344834Y-86315048D01*
X236343118Y-86302013D01*
X236600600Y-86302013D01*
X236600600Y-86602000D01*
X237625600Y-86602000D01*
X237625600Y-85102000D01*
X236600601Y-85102000D01*
X236600601Y-85401986D01*
X236611094Y-85504697D01*
X236666241Y-85671119D01*
X236666245Y-85671128D01*
X236737656Y-85786904D01*
X236756096Y-85854296D01*
X236737656Y-85917096D01*
X236666245Y-86032871D01*
X236666241Y-86032880D01*
X236611094Y-86199302D01*
X236611093Y-86199309D01*
X236600600Y-86302013D01*
X236343118Y-86302013D01*
X236340481Y-86281985D01*
X236335644Y-86245238D01*
X236327034Y-86224454D01*
X236319565Y-86154986D01*
X236327035Y-86129545D01*
X236332500Y-86116351D01*
X236335644Y-86108762D01*
X236351100Y-85991361D01*
X236351099Y-85712640D01*
X236350008Y-85704356D01*
X236347611Y-85686142D01*
X236335644Y-85595238D01*
X236327034Y-85574454D01*
X236319565Y-85504986D01*
X236327035Y-85479545D01*
X236332365Y-85466677D01*
X236335644Y-85458762D01*
X236351100Y-85341361D01*
X236351099Y-85062640D01*
X236350071Y-85054834D01*
X236340944Y-84985500D01*
X236335644Y-84945238D01*
X236327034Y-84924454D01*
X236319565Y-84854986D01*
X236327035Y-84829545D01*
X236335644Y-84808762D01*
X236351100Y-84691361D01*
X236351099Y-84412640D01*
X236347947Y-84388700D01*
X236338252Y-84315048D01*
X236338251Y-84315045D01*
X236336853Y-84304427D01*
X236336535Y-84302013D01*
X236600600Y-84302013D01*
X236600600Y-84602000D01*
X237625600Y-84602000D01*
X237625600Y-83077000D01*
X236600601Y-83077000D01*
X236600601Y-83351986D01*
X236611094Y-83454697D01*
X236666241Y-83621119D01*
X236666243Y-83621124D01*
X236753077Y-83761903D01*
X236771517Y-83829296D01*
X236753077Y-83892097D01*
X236666243Y-84032875D01*
X236666241Y-84032880D01*
X236611094Y-84199302D01*
X236611093Y-84199309D01*
X236600600Y-84302013D01*
X236336535Y-84302013D01*
X236335644Y-84295238D01*
X236275136Y-84149159D01*
X236178882Y-84023718D01*
X236129882Y-83986119D01*
X236088680Y-83929691D01*
X236084525Y-83859945D01*
X236090808Y-83840289D01*
X236113132Y-83786393D01*
X236113133Y-83786389D01*
X236149810Y-83602000D01*
X235431837Y-83602000D01*
X235450600Y-83556701D01*
X235450600Y-83147299D01*
X235431837Y-83102000D01*
X236149810Y-83102000D01*
X236149810Y-83101999D01*
X236113133Y-82917610D01*
X236113131Y-82917602D01*
X236039635Y-82740166D01*
X236039630Y-82740157D01*
X235932932Y-82580473D01*
X235932929Y-82580469D01*
X235797130Y-82444670D01*
X235797126Y-82444667D01*
X235637442Y-82337969D01*
X235637433Y-82337964D01*
X235460385Y-82264628D01*
X235425600Y-82279920D01*
X235425600Y-83086943D01*
X235408734Y-83046225D01*
X235331375Y-82968866D01*
X235230301Y-82927000D01*
X235120899Y-82927000D01*
X235019825Y-82968866D01*
X234942466Y-83046225D01*
X234925600Y-83086943D01*
X234925600Y-82257625D01*
X234891210Y-82264466D01*
X234891202Y-82264468D01*
X234713766Y-82337964D01*
X234713757Y-82337969D01*
X234554073Y-82444667D01*
X234554069Y-82444670D01*
X234418270Y-82580469D01*
X234418267Y-82580473D01*
X234311569Y-82740157D01*
X234311564Y-82740166D01*
X234238068Y-82917602D01*
X234238066Y-82917610D01*
X234201389Y-83101999D01*
X234201390Y-83102000D01*
X234919363Y-83102000D01*
X234900600Y-83147299D01*
X234900600Y-83556701D01*
X234919363Y-83602000D01*
X234162840Y-83602000D01*
X234095801Y-83582315D01*
X234075159Y-83565681D01*
X233732489Y-83223011D01*
X231878892Y-81369413D01*
X231878888Y-81369410D01*
X231747785Y-81281809D01*
X231747772Y-81281802D01*
X231602101Y-81221464D01*
X231602091Y-81221461D01*
X231443209Y-81189857D01*
X231381298Y-81157472D01*
X231346724Y-81096756D01*
X231343749Y-81071226D01*
X231343578Y-81071236D01*
X231343431Y-81068503D01*
X231343401Y-81068240D01*
X231343401Y-81067929D01*
X231343400Y-81067923D01*
X231343399Y-81067916D01*
X231336993Y-81008317D01*
X231314488Y-80947979D01*
X231286699Y-80873471D01*
X231286695Y-80873464D01*
X231200449Y-80758255D01*
X231200446Y-80758252D01*
X231085237Y-80672006D01*
X231085230Y-80672002D01*
X230950384Y-80621708D01*
X230950385Y-80621708D01*
X230890785Y-80615301D01*
X230890783Y-80615300D01*
X230890775Y-80615300D01*
X230890766Y-80615300D01*
X229095031Y-80615300D01*
X229095025Y-80615301D01*
X229035418Y-80621708D01*
X228900573Y-80672002D01*
X228900566Y-80672006D01*
X228785357Y-80758252D01*
X228785354Y-80758255D01*
X228699108Y-80873464D01*
X228699104Y-80873471D01*
X228648810Y-81008317D01*
X228642403Y-81067916D01*
X228642403Y-81067923D01*
X228642402Y-81067935D01*
X228642402Y-82863670D01*
X228642403Y-82863676D01*
X228648810Y-82923283D01*
X228699104Y-83058128D01*
X228699108Y-83058135D01*
X228785354Y-83173344D01*
X228785357Y-83173347D01*
X228900566Y-83259593D01*
X228900573Y-83259597D01*
X229031984Y-83308610D01*
X229087918Y-83350481D01*
X229112335Y-83415945D01*
X229097484Y-83484218D01*
X229076333Y-83512473D01*
X228962791Y-83626015D01*
X228837853Y-83797979D01*
X228833793Y-83805946D01*
X228830576Y-83812263D01*
X228830204Y-83812993D01*
X228782230Y-83863790D01*
X228719718Y-83880700D01*
X224856808Y-83880700D01*
X224789769Y-83861015D01*
X224769127Y-83844381D01*
X224305474Y-83380727D01*
X224305473Y-83380726D01*
X224198923Y-83309532D01*
X224080547Y-83260500D01*
X224080545Y-83260499D01*
X224080544Y-83260499D01*
X224080542Y-83260498D01*
X224080533Y-83260496D01*
X224076005Y-83259595D01*
X224076001Y-83259595D01*
X223954871Y-83235500D01*
X223954869Y-83235500D01*
X193174316Y-83235500D01*
X193111195Y-83218232D01*
X192995368Y-83149733D01*
X192969198Y-83134256D01*
X192969197Y-83134255D01*
X192969196Y-83134255D01*
X192969193Y-83134254D01*
X192811373Y-83088402D01*
X192811367Y-83088401D01*
X192774501Y-83085500D01*
X192774494Y-83085500D01*
X191618106Y-83085500D01*
X191618098Y-83085500D01*
X191581232Y-83088401D01*
X191581226Y-83088402D01*
X191423406Y-83134254D01*
X191423403Y-83134255D01*
X191281937Y-83217917D01*
X191281929Y-83217923D01*
X191165723Y-83334129D01*
X191165714Y-83334140D01*
X191165529Y-83334455D01*
X191165319Y-83334650D01*
X191160939Y-83340298D01*
X191160027Y-83339591D01*
X191114457Y-83382136D01*
X191045715Y-83394637D01*
X190981127Y-83367988D01*
X190956943Y-83340078D01*
X190956661Y-83340298D01*
X190952623Y-83335092D01*
X190952071Y-83334455D01*
X190951885Y-83334140D01*
X190951876Y-83334129D01*
X190835670Y-83217923D01*
X190835662Y-83217917D01*
X190720368Y-83149733D01*
X190694198Y-83134256D01*
X190694197Y-83134255D01*
X190694196Y-83134255D01*
X190694193Y-83134254D01*
X190536373Y-83088402D01*
X190536367Y-83088401D01*
X190499501Y-83085500D01*
X190499494Y-83085500D01*
X189343106Y-83085500D01*
X189343098Y-83085500D01*
X189306232Y-83088401D01*
X189306226Y-83088402D01*
X189148406Y-83134254D01*
X189148403Y-83134255D01*
X189006405Y-83218232D01*
X188943284Y-83235500D01*
X184045321Y-83235500D01*
X184045174Y-83235530D01*
X184045095Y-83235522D01*
X184039266Y-83236097D01*
X184039157Y-83234990D01*
X183975583Y-83229294D01*
X183920411Y-83186425D01*
X183897174Y-83120532D01*
X183913250Y-83052537D01*
X183933312Y-83026233D01*
X195127327Y-71832219D01*
X195188650Y-71798734D01*
X195215008Y-71795900D01*
X217945871Y-71795900D01*
X218030415Y-71779082D01*
X218071544Y-71770901D01*
X218189927Y-71721865D01*
X218191298Y-71720948D01*
X218191324Y-71720940D01*
X218191320Y-71720934D01*
X218296469Y-71650677D01*
X219143546Y-70803600D01*
X222644898Y-70803600D01*
X223673999Y-70803600D01*
X223648979Y-70864002D01*
X223624000Y-70989581D01*
X223624000Y-71117619D01*
X223648979Y-71243198D01*
X223673999Y-71303600D01*
X222644898Y-71303600D01*
X222660934Y-71404847D01*
X222733897Y-71629402D01*
X222841085Y-71839771D01*
X222979866Y-72030786D01*
X223146813Y-72197733D01*
X223337828Y-72336514D01*
X223548197Y-72443702D01*
X223772752Y-72516665D01*
X223772751Y-72516665D01*
X224005948Y-72553600D01*
X224024000Y-72553600D01*
X224024000Y-71653601D01*
X224084402Y-71678621D01*
X224209981Y-71703600D01*
X224338019Y-71703600D01*
X224463598Y-71678621D01*
X224524000Y-71653601D01*
X224524000Y-72553600D01*
X224542052Y-72553600D01*
X224775247Y-72516665D01*
X224999802Y-72443702D01*
X225210171Y-72336514D01*
X225401186Y-72197733D01*
X225568133Y-72030786D01*
X225706914Y-71839771D01*
X225814102Y-71629402D01*
X225887065Y-71404847D01*
X225903102Y-71303600D01*
X224874001Y-71303600D01*
X224899021Y-71243198D01*
X224924000Y-71117619D01*
X224924000Y-70989581D01*
X224899021Y-70864002D01*
X224874001Y-70803600D01*
X225903102Y-70803600D01*
X225887065Y-70702352D01*
X225814102Y-70477797D01*
X225706914Y-70267428D01*
X225568133Y-70076413D01*
X225401186Y-69909466D01*
X225210171Y-69770685D01*
X224999802Y-69663497D01*
X224775247Y-69590534D01*
X224775248Y-69590534D01*
X224542052Y-69553600D01*
X224524000Y-69553600D01*
X224524000Y-70453598D01*
X224463598Y-70428579D01*
X224338019Y-70403600D01*
X224209981Y-70403600D01*
X224084402Y-70428579D01*
X224024000Y-70453598D01*
X224024000Y-69553600D01*
X224005948Y-69553600D01*
X223772752Y-69590534D01*
X223548197Y-69663497D01*
X223337828Y-69770685D01*
X223146813Y-69909466D01*
X222979866Y-70076413D01*
X222841085Y-70267428D01*
X222733897Y-70477797D01*
X222660934Y-70702352D01*
X222644898Y-70803600D01*
X219143546Y-70803600D01*
X219979757Y-69967389D01*
X221616527Y-68330618D01*
X221677850Y-68297133D01*
X221704208Y-68294299D01*
X222813402Y-68294299D01*
X222813408Y-68294299D01*
X222916197Y-68283799D01*
X223082734Y-68228614D01*
X223232056Y-68136512D01*
X223356112Y-68012456D01*
X223448214Y-67863134D01*
X223503399Y-67696597D01*
X223513900Y-67593809D01*
X223513900Y-67593786D01*
X228683401Y-67593786D01*
X228693894Y-67696497D01*
X228749041Y-67862919D01*
X228749043Y-67862924D01*
X228841084Y-68012145D01*
X228965054Y-68136115D01*
X229114275Y-68228156D01*
X229114280Y-68228158D01*
X229280702Y-68283305D01*
X229280709Y-68283306D01*
X229383419Y-68293799D01*
X230153399Y-68293799D01*
X230653400Y-68293799D01*
X231423372Y-68293799D01*
X231423386Y-68293798D01*
X231526097Y-68283305D01*
X231692519Y-68228158D01*
X231692524Y-68228156D01*
X231841745Y-68136115D01*
X231965715Y-68012145D01*
X232057756Y-67862924D01*
X232057758Y-67862919D01*
X232112905Y-67696497D01*
X232112906Y-67696490D01*
X232123399Y-67593786D01*
X232123400Y-67593773D01*
X232123400Y-67483800D01*
X230653400Y-67483800D01*
X230653400Y-68293799D01*
X230153399Y-68293799D01*
X230153400Y-68293798D01*
X230153400Y-67483800D01*
X228683401Y-67483800D01*
X228683401Y-67593786D01*
X223513900Y-67593786D01*
X223513899Y-67391117D01*
X233677237Y-67391117D01*
X233677237Y-67668084D01*
X233677238Y-67668101D01*
X233713389Y-67942700D01*
X233785077Y-68210243D01*
X233891072Y-68466137D01*
X233891077Y-68466148D01*
X234029563Y-68706012D01*
X234198177Y-68925755D01*
X234198183Y-68925762D01*
X234394027Y-69121606D01*
X234394034Y-69121612D01*
X234613777Y-69290226D01*
X234853641Y-69428712D01*
X234853646Y-69428714D01*
X234853649Y-69428716D01*
X235109545Y-69534712D01*
X235377088Y-69606400D01*
X235651699Y-69642553D01*
X235651706Y-69642553D01*
X235928672Y-69642553D01*
X235928679Y-69642553D01*
X236203290Y-69606400D01*
X236470833Y-69534712D01*
X236726729Y-69428716D01*
X236966601Y-69290226D01*
X237186345Y-69121611D01*
X237382199Y-68925757D01*
X237550814Y-68706013D01*
X237689304Y-68466141D01*
X237795300Y-68210245D01*
X237866988Y-67942702D01*
X237903141Y-67668091D01*
X237903141Y-67391111D01*
X237866988Y-67116500D01*
X237795300Y-66848957D01*
X237689304Y-66593061D01*
X237689302Y-66593058D01*
X237689300Y-66593053D01*
X237550814Y-66353189D01*
X237382200Y-66133446D01*
X237382194Y-66133439D01*
X237186350Y-65937595D01*
X237186343Y-65937589D01*
X236966600Y-65768975D01*
X236726736Y-65630489D01*
X236726725Y-65630484D01*
X236470831Y-65524489D01*
X236203288Y-65452801D01*
X235928689Y-65416650D01*
X235928684Y-65416649D01*
X235928679Y-65416649D01*
X235651699Y-65416649D01*
X235651693Y-65416649D01*
X235651688Y-65416650D01*
X235377089Y-65452801D01*
X235109546Y-65524489D01*
X234853652Y-65630484D01*
X234853641Y-65630489D01*
X234613777Y-65768975D01*
X234394034Y-65937589D01*
X234394027Y-65937595D01*
X234198183Y-66133439D01*
X234198177Y-66133446D01*
X234029563Y-66353189D01*
X233891077Y-66593053D01*
X233891072Y-66593064D01*
X233785077Y-66848958D01*
X233713389Y-67116501D01*
X233677238Y-67391100D01*
X233677237Y-67391117D01*
X223513899Y-67391117D01*
X223513899Y-67229564D01*
X223513899Y-66873813D01*
X228683400Y-66873813D01*
X228683400Y-66983800D01*
X230153400Y-66983800D01*
X230653400Y-66983800D01*
X232123399Y-66983800D01*
X232123399Y-66873828D01*
X232123398Y-66873813D01*
X232112905Y-66771102D01*
X232057758Y-66604680D01*
X232057756Y-66604675D01*
X231965715Y-66455454D01*
X231841745Y-66331484D01*
X231692524Y-66239443D01*
X231692519Y-66239441D01*
X231526097Y-66184294D01*
X231526090Y-66184293D01*
X231423386Y-66173800D01*
X230653400Y-66173800D01*
X230653400Y-66983800D01*
X230153400Y-66983800D01*
X230153400Y-66173800D01*
X229383428Y-66173800D01*
X229383412Y-66173801D01*
X229280702Y-66184294D01*
X229114280Y-66239441D01*
X229114275Y-66239443D01*
X228965054Y-66331484D01*
X228841084Y-66455454D01*
X228749043Y-66604675D01*
X228749041Y-66604680D01*
X228693894Y-66771102D01*
X228693893Y-66771109D01*
X228683400Y-66873813D01*
X223513899Y-66873813D01*
X223513899Y-66873798D01*
X223513898Y-66873780D01*
X223503399Y-66771003D01*
X223503398Y-66771000D01*
X223481950Y-66706275D01*
X223448214Y-66604466D01*
X223356112Y-66455144D01*
X223232056Y-66331088D01*
X223082734Y-66238986D01*
X222916197Y-66183801D01*
X222916195Y-66183800D01*
X222813410Y-66173300D01*
X220773398Y-66173300D01*
X220773381Y-66173301D01*
X220670603Y-66183800D01*
X220670600Y-66183801D01*
X220504068Y-66238985D01*
X220504063Y-66238987D01*
X220354742Y-66331089D01*
X220230687Y-66455144D01*
X220216038Y-66478895D01*
X220164090Y-66525619D01*
X220095127Y-66536840D01*
X220031045Y-66508996D01*
X220004962Y-66478895D01*
X219990312Y-66455144D01*
X219866257Y-66331089D01*
X219866256Y-66331088D01*
X219716934Y-66238986D01*
X219550397Y-66183801D01*
X219550395Y-66183800D01*
X219447610Y-66173300D01*
X217407598Y-66173300D01*
X217407581Y-66173301D01*
X217304803Y-66183800D01*
X217304800Y-66183801D01*
X217138268Y-66238985D01*
X217138263Y-66238987D01*
X216988942Y-66331089D01*
X216864889Y-66455142D01*
X216822173Y-66524397D01*
X216770225Y-66571121D01*
X216716634Y-66583300D01*
X215150129Y-66583300D01*
X215024461Y-66608297D01*
X215024451Y-66608300D01*
X214975420Y-66628610D01*
X214906081Y-66657330D01*
X214906063Y-66657340D01*
X214799532Y-66728521D01*
X214799525Y-66728527D01*
X212314073Y-69213981D01*
X212252750Y-69247466D01*
X212226392Y-69250300D01*
X194449129Y-69250300D01*
X194323461Y-69275297D01*
X194323455Y-69275299D01*
X194205074Y-69324334D01*
X194098526Y-69395526D01*
X194098525Y-69395527D01*
X177693873Y-85800181D01*
X177632550Y-85833666D01*
X177606192Y-85836500D01*
X177144997Y-85836500D01*
X177077958Y-85816815D01*
X177032203Y-85764011D01*
X177022259Y-85694853D01*
X177051284Y-85631297D01*
X177076133Y-85609380D01*
X177077307Y-85608596D01*
X177165763Y-85549492D01*
X177173269Y-85544477D01*
X194285527Y-68432217D01*
X194346850Y-68398733D01*
X194373208Y-68395899D01*
X195482402Y-68395899D01*
X195482408Y-68395899D01*
X195585197Y-68385399D01*
X195751734Y-68330214D01*
X195901056Y-68238112D01*
X196025112Y-68114056D01*
X196117214Y-67964734D01*
X196117216Y-67964726D01*
X196120264Y-67958191D01*
X196123109Y-67959517D01*
X196154775Y-67913631D01*
X196219249Y-67886708D01*
X196288044Y-67898917D01*
X196338395Y-67944861D01*
X196380088Y-68012456D01*
X196504144Y-68136512D01*
X196653466Y-68228614D01*
X196820003Y-68283799D01*
X196922791Y-68294300D01*
X198962808Y-68294299D01*
X199065597Y-68283799D01*
X199232134Y-68228614D01*
X199381456Y-68136512D01*
X199505512Y-68012456D01*
X199597614Y-67863134D01*
X199652799Y-67696597D01*
X199663300Y-67593809D01*
X199663300Y-67593786D01*
X204832801Y-67593786D01*
X204843294Y-67696497D01*
X204898441Y-67862919D01*
X204898443Y-67862924D01*
X204990484Y-68012145D01*
X205114454Y-68136115D01*
X205263675Y-68228156D01*
X205263680Y-68228158D01*
X205430102Y-68283305D01*
X205430109Y-68283306D01*
X205532819Y-68293799D01*
X206302799Y-68293799D01*
X206802800Y-68293799D01*
X207572772Y-68293799D01*
X207572786Y-68293798D01*
X207675497Y-68283305D01*
X207841919Y-68228158D01*
X207841924Y-68228156D01*
X207991145Y-68136115D01*
X208097519Y-68029742D01*
X208158842Y-67996257D01*
X208228534Y-68001241D01*
X208272881Y-68029742D01*
X208379254Y-68136115D01*
X208528475Y-68228156D01*
X208528480Y-68228158D01*
X208694902Y-68283305D01*
X208694909Y-68283306D01*
X208797619Y-68293799D01*
X209567599Y-68293799D01*
X210067600Y-68293799D01*
X210837572Y-68293799D01*
X210837586Y-68293798D01*
X210940297Y-68283305D01*
X211106719Y-68228158D01*
X211106724Y-68228156D01*
X211255945Y-68136115D01*
X211379915Y-68012145D01*
X211471956Y-67862924D01*
X211471958Y-67862919D01*
X211527105Y-67696497D01*
X211527106Y-67696490D01*
X211537599Y-67593786D01*
X211537600Y-67593773D01*
X211537600Y-67483800D01*
X210067600Y-67483800D01*
X210067600Y-68293799D01*
X209567599Y-68293799D01*
X209567600Y-68293798D01*
X209567600Y-67483800D01*
X206802800Y-67483800D01*
X206802800Y-68293799D01*
X206302799Y-68293799D01*
X206302800Y-68293798D01*
X206302800Y-67483800D01*
X204832801Y-67483800D01*
X204832801Y-67593786D01*
X199663300Y-67593786D01*
X199663299Y-67229564D01*
X199663299Y-66873813D01*
X204832800Y-66873813D01*
X204832800Y-66983800D01*
X206302800Y-66983800D01*
X206802800Y-66983800D01*
X209567600Y-66983800D01*
X210067600Y-66983800D01*
X211537599Y-66983800D01*
X211537599Y-66873828D01*
X211537598Y-66873813D01*
X211527105Y-66771102D01*
X211471958Y-66604680D01*
X211471956Y-66604675D01*
X211379915Y-66455454D01*
X211255945Y-66331484D01*
X211106724Y-66239443D01*
X211106719Y-66239441D01*
X210940297Y-66184294D01*
X210940290Y-66184293D01*
X210837586Y-66173800D01*
X210067600Y-66173800D01*
X210067600Y-66983800D01*
X209567600Y-66983800D01*
X209567600Y-66173800D01*
X208797628Y-66173800D01*
X208797612Y-66173801D01*
X208694902Y-66184294D01*
X208528480Y-66239441D01*
X208528475Y-66239443D01*
X208379254Y-66331484D01*
X208272881Y-66437858D01*
X208211558Y-66471343D01*
X208141866Y-66466359D01*
X208097519Y-66437858D01*
X207991145Y-66331484D01*
X207841924Y-66239443D01*
X207841919Y-66239441D01*
X207675497Y-66184294D01*
X207675490Y-66184293D01*
X207572786Y-66173800D01*
X206802800Y-66173800D01*
X206802800Y-66983800D01*
X206302800Y-66983800D01*
X206302800Y-66173800D01*
X205532828Y-66173800D01*
X205532812Y-66173801D01*
X205430102Y-66184294D01*
X205263680Y-66239441D01*
X205263675Y-66239443D01*
X205114454Y-66331484D01*
X204990484Y-66455454D01*
X204898443Y-66604675D01*
X204898441Y-66604680D01*
X204843294Y-66771102D01*
X204843293Y-66771109D01*
X204832800Y-66873813D01*
X199663299Y-66873813D01*
X199663299Y-66873798D01*
X199663298Y-66873780D01*
X199652799Y-66771003D01*
X199652798Y-66771000D01*
X199631350Y-66706275D01*
X199597614Y-66604466D01*
X199505512Y-66455144D01*
X199381456Y-66331088D01*
X199232134Y-66238986D01*
X199065597Y-66183801D01*
X199065595Y-66183800D01*
X198962816Y-66173300D01*
X198962809Y-66173300D01*
X198717300Y-66173300D01*
X198650261Y-66153615D01*
X198604506Y-66100811D01*
X198593300Y-66049300D01*
X198593300Y-65468528D01*
X198568302Y-65342861D01*
X198568301Y-65342860D01*
X198568301Y-65342856D01*
X198521523Y-65229924D01*
X198519266Y-65224475D01*
X198509283Y-65209534D01*
X198509283Y-65209533D01*
X198448079Y-65117934D01*
X198448073Y-65117926D01*
X197569473Y-64239326D01*
X197569469Y-64239323D01*
X197462927Y-64168135D01*
X197457403Y-64165847D01*
X197344544Y-64119099D01*
X197344538Y-64119097D01*
X197218871Y-64094100D01*
X197218869Y-64094100D01*
X191655131Y-64094100D01*
X191655129Y-64094100D01*
X191529461Y-64119097D01*
X191529455Y-64119099D01*
X191411074Y-64168134D01*
X191304526Y-64239326D01*
X191304525Y-64239327D01*
X190555297Y-64988557D01*
X190313931Y-65229923D01*
X190223323Y-65320531D01*
X190193978Y-65364450D01*
X190152134Y-65427074D01*
X190103099Y-65545455D01*
X190103097Y-65545463D01*
X190078101Y-65671126D01*
X190078101Y-65799273D01*
X190102142Y-65920133D01*
X190103099Y-65924944D01*
X190119461Y-65964446D01*
X190128900Y-66011897D01*
X190128900Y-68614791D01*
X190109215Y-68681830D01*
X190092581Y-68702472D01*
X185135181Y-73659872D01*
X185073858Y-73693357D01*
X185004166Y-73688373D01*
X184948233Y-73646501D01*
X184923816Y-73581037D01*
X184923500Y-73572191D01*
X184923500Y-73418906D01*
X184923499Y-73418904D01*
X184888896Y-73244941D01*
X184888893Y-73244932D01*
X184885552Y-73236867D01*
X184839759Y-73126310D01*
X184821016Y-73081059D01*
X184821009Y-73081046D01*
X184722464Y-72933565D01*
X184722461Y-72933561D01*
X184597038Y-72808138D01*
X184597034Y-72808135D01*
X184502752Y-72745137D01*
X184457947Y-72691524D01*
X184449240Y-72622199D01*
X184479395Y-72559172D01*
X184538838Y-72522453D01*
X184591041Y-72519562D01*
X184805948Y-72553600D01*
X184824000Y-72553600D01*
X184824000Y-71653601D01*
X184884402Y-71678621D01*
X185009981Y-71703600D01*
X185138019Y-71703600D01*
X185263598Y-71678621D01*
X185324000Y-71653601D01*
X185324000Y-72553600D01*
X185342052Y-72553600D01*
X185575247Y-72516665D01*
X185799802Y-72443702D01*
X186010171Y-72336514D01*
X186201186Y-72197733D01*
X186368133Y-72030786D01*
X186506914Y-71839771D01*
X186614102Y-71629402D01*
X186687065Y-71404847D01*
X186703102Y-71303600D01*
X185674001Y-71303600D01*
X185699021Y-71243198D01*
X185724000Y-71117619D01*
X185724000Y-70989581D01*
X185699021Y-70864002D01*
X185674001Y-70803600D01*
X186703102Y-70803600D01*
X186687065Y-70702352D01*
X186614102Y-70477797D01*
X186506914Y-70267428D01*
X186368133Y-70076413D01*
X186201186Y-69909466D01*
X186010171Y-69770685D01*
X185799802Y-69663497D01*
X185575247Y-69590534D01*
X185575248Y-69590534D01*
X185342052Y-69553600D01*
X185324000Y-69553600D01*
X185324000Y-70453598D01*
X185263598Y-70428579D01*
X185138019Y-70403600D01*
X185009981Y-70403600D01*
X184884402Y-70428579D01*
X184824000Y-70453598D01*
X184824000Y-69553600D01*
X184805948Y-69553600D01*
X184572752Y-69590534D01*
X184348197Y-69663497D01*
X184137828Y-69770685D01*
X183946813Y-69909466D01*
X183779866Y-70076413D01*
X183641085Y-70267428D01*
X183533897Y-70477797D01*
X183460934Y-70702352D01*
X183444898Y-70803600D01*
X184473999Y-70803600D01*
X184448979Y-70864002D01*
X184424000Y-70989581D01*
X184424000Y-71117619D01*
X184448979Y-71243198D01*
X184473999Y-71303600D01*
X183444898Y-71303600D01*
X183460934Y-71404847D01*
X183533897Y-71629402D01*
X183641085Y-71839771D01*
X183779866Y-72030786D01*
X183946813Y-72197733D01*
X184137830Y-72336516D01*
X184226916Y-72381907D01*
X184277713Y-72429881D01*
X184294508Y-72497702D01*
X184271971Y-72563837D01*
X184217256Y-72607289D01*
X184147735Y-72614262D01*
X184146432Y-72614010D01*
X184111691Y-72607100D01*
X183934309Y-72607100D01*
X183934306Y-72607100D01*
X183760341Y-72641703D01*
X183760332Y-72641706D01*
X183625245Y-72697661D01*
X183577793Y-72707100D01*
X181484940Y-72707100D01*
X181417901Y-72687415D01*
X181397259Y-72670781D01*
X179834292Y-71107813D01*
X179834288Y-71107810D01*
X179703185Y-71020209D01*
X179703172Y-71020202D01*
X179557499Y-70959863D01*
X179557492Y-70959861D01*
X179402845Y-70929100D01*
X179402842Y-70929100D01*
X163577940Y-70929100D01*
X163510901Y-70909415D01*
X163490259Y-70892781D01*
X157823911Y-65226433D01*
X157790426Y-65165110D01*
X157795410Y-65095418D01*
X157837279Y-65039487D01*
X157937941Y-64964132D01*
X158024191Y-64848917D01*
X158074486Y-64714069D01*
X158080895Y-64654459D01*
X158080894Y-62858714D01*
X158074486Y-62799103D01*
X158073205Y-62795669D01*
X158024192Y-62664257D01*
X158024188Y-62664250D01*
X157937942Y-62549041D01*
X157937939Y-62549038D01*
X157822730Y-62462792D01*
X157822723Y-62462788D01*
X157687877Y-62412494D01*
X157687878Y-62412494D01*
X157628278Y-62406087D01*
X157628276Y-62406086D01*
X157628268Y-62406086D01*
X157628259Y-62406086D01*
X155832524Y-62406086D01*
X155832518Y-62406087D01*
X155772911Y-62412494D01*
X155638066Y-62462788D01*
X155638059Y-62462792D01*
X155522850Y-62549038D01*
X155522847Y-62549041D01*
X155436601Y-62664250D01*
X155436598Y-62664255D01*
X155387584Y-62795669D01*
X155345712Y-62851602D01*
X155280248Y-62876019D01*
X155211975Y-62861167D01*
X155183721Y-62840016D01*
X155070181Y-62726476D01*
X154898215Y-62601537D01*
X154708809Y-62505030D01*
X154708808Y-62505029D01*
X154708807Y-62505029D01*
X154506638Y-62439340D01*
X154506636Y-62439339D01*
X154506635Y-62439339D01*
X154345352Y-62413794D01*
X154296682Y-62406086D01*
X154084108Y-62406086D01*
X154035437Y-62413794D01*
X153874155Y-62439339D01*
X153671980Y-62505030D01*
X153482574Y-62601537D01*
X153310608Y-62726476D01*
X153160285Y-62876799D01*
X153035344Y-63048768D01*
X153030879Y-63057532D01*
X152982904Y-63108328D01*
X152915083Y-63125122D01*
X152848948Y-63102584D01*
X152809911Y-63057532D01*
X152805445Y-63048768D01*
X152680504Y-62876799D01*
X152530181Y-62726476D01*
X152358215Y-62601537D01*
X152168809Y-62505030D01*
X152168808Y-62505029D01*
X152168807Y-62505029D01*
X151966638Y-62439340D01*
X151966636Y-62439339D01*
X151966635Y-62439339D01*
X151805352Y-62413794D01*
X151756682Y-62406086D01*
X151544108Y-62406086D01*
X151495437Y-62413794D01*
X151334155Y-62439339D01*
X151131980Y-62505030D01*
X150942574Y-62601537D01*
X150770608Y-62726476D01*
X150620285Y-62876799D01*
X150495344Y-63048768D01*
X150490879Y-63057532D01*
X150442904Y-63108328D01*
X150375083Y-63125122D01*
X150308948Y-63102584D01*
X150269911Y-63057532D01*
X150265445Y-63048768D01*
X150140504Y-62876799D01*
X149990181Y-62726476D01*
X149818215Y-62601537D01*
X149628809Y-62505030D01*
X149628808Y-62505029D01*
X149628807Y-62505029D01*
X149426638Y-62439340D01*
X149426636Y-62439339D01*
X149426635Y-62439339D01*
X149265352Y-62413794D01*
X149216682Y-62406086D01*
X149004108Y-62406086D01*
X148955437Y-62413794D01*
X148794155Y-62439339D01*
X148591980Y-62505030D01*
X148402574Y-62601537D01*
X148230608Y-62726476D01*
X148080285Y-62876799D01*
X147955344Y-63048768D01*
X147950879Y-63057532D01*
X147902904Y-63108328D01*
X147835083Y-63125122D01*
X147768948Y-63102584D01*
X147729911Y-63057532D01*
X147725445Y-63048768D01*
X147600504Y-62876799D01*
X147450181Y-62726476D01*
X147278215Y-62601537D01*
X147088809Y-62505030D01*
X147088808Y-62505029D01*
X147088807Y-62505029D01*
X146886638Y-62439340D01*
X146886636Y-62439339D01*
X146886635Y-62439339D01*
X146725352Y-62413794D01*
X146676682Y-62406086D01*
X146464108Y-62406086D01*
X146415437Y-62413794D01*
X146254155Y-62439339D01*
X146051980Y-62505030D01*
X145862574Y-62601537D01*
X145690608Y-62726476D01*
X145540285Y-62876799D01*
X145415344Y-63048768D01*
X145410879Y-63057532D01*
X145362904Y-63108328D01*
X145295083Y-63125122D01*
X145228948Y-63102584D01*
X145189911Y-63057532D01*
X145185445Y-63048768D01*
X145060504Y-62876799D01*
X144910181Y-62726476D01*
X144738215Y-62601537D01*
X144548809Y-62505030D01*
X144548808Y-62505029D01*
X144548807Y-62505029D01*
X144346638Y-62439340D01*
X144346636Y-62439339D01*
X144346635Y-62439339D01*
X144185352Y-62413794D01*
X144136682Y-62406086D01*
X143924108Y-62406086D01*
X143875437Y-62413794D01*
X143714155Y-62439339D01*
X143511980Y-62505030D01*
X143322574Y-62601537D01*
X143150608Y-62726476D01*
X143000285Y-62876799D01*
X142875344Y-63048768D01*
X142870597Y-63058085D01*
X142822622Y-63108879D01*
X142754800Y-63125673D01*
X142688666Y-63103134D01*
X142649629Y-63058081D01*
X142645021Y-63049038D01*
X142605665Y-62994868D01*
X142605664Y-62994868D01*
X141973357Y-63627176D01*
X141956320Y-63563593D01*
X141890494Y-63449579D01*
X141797402Y-63356487D01*
X141683388Y-63290661D01*
X141619804Y-63273623D01*
X142252111Y-62641314D01*
X142197945Y-62601961D01*
X142008612Y-62505490D01*
X141806524Y-62439828D01*
X141596641Y-62406586D01*
X141384149Y-62406586D01*
X141174267Y-62439828D01*
X141174264Y-62439828D01*
X140972177Y-62505490D01*
X140782834Y-62601966D01*
X140728677Y-62641313D01*
X140728677Y-62641314D01*
X141360986Y-63273623D01*
X141297402Y-63290661D01*
X141183388Y-63356487D01*
X141090296Y-63449579D01*
X141024470Y-63563593D01*
X141007432Y-63627177D01*
X140375123Y-62994868D01*
X140375122Y-62994868D01*
X140335775Y-63049026D01*
X140330878Y-63058637D01*
X140282901Y-63109431D01*
X140215079Y-63126224D01*
X140148945Y-63103684D01*
X140109911Y-63058634D01*
X140105021Y-63049038D01*
X140065665Y-62994868D01*
X140065664Y-62994868D01*
X139433357Y-63627176D01*
X139416320Y-63563593D01*
X139350494Y-63449579D01*
X139257402Y-63356487D01*
X139143388Y-63290661D01*
X139079804Y-63273623D01*
X139712111Y-62641314D01*
X139657945Y-62601961D01*
X139468612Y-62505490D01*
X139266524Y-62439828D01*
X139056641Y-62406586D01*
X138844149Y-62406586D01*
X138634267Y-62439828D01*
X138634264Y-62439828D01*
X138432177Y-62505490D01*
X138242834Y-62601966D01*
X138188677Y-62641313D01*
X138188677Y-62641314D01*
X138820986Y-63273623D01*
X138757402Y-63290661D01*
X138643388Y-63356487D01*
X138550296Y-63449579D01*
X138484470Y-63563593D01*
X138467432Y-63627177D01*
X137835123Y-62994868D01*
X137835122Y-62994868D01*
X137795775Y-63049025D01*
X137699299Y-63238368D01*
X137633637Y-63440455D01*
X137633637Y-63440458D01*
X137600395Y-63650339D01*
X137600395Y-63862832D01*
X137633637Y-64072713D01*
X137633637Y-64072716D01*
X137699299Y-64274803D01*
X137795770Y-64464136D01*
X137835123Y-64518302D01*
X138467432Y-63885994D01*
X138484470Y-63949579D01*
X138550296Y-64063593D01*
X138643388Y-64156685D01*
X138757402Y-64222511D01*
X138820985Y-64239548D01*
X138188677Y-64871855D01*
X138188677Y-64871856D01*
X138242844Y-64911210D01*
X138432177Y-65007681D01*
X138634265Y-65073343D01*
X138844149Y-65106586D01*
X139056641Y-65106586D01*
X139266522Y-65073343D01*
X139266525Y-65073343D01*
X139468612Y-65007681D01*
X139657949Y-64911208D01*
X139712111Y-64871856D01*
X139712112Y-64871856D01*
X139079803Y-64239548D01*
X139143388Y-64222511D01*
X139257402Y-64156685D01*
X139350494Y-64063593D01*
X139416320Y-63949579D01*
X139433357Y-63885994D01*
X140065665Y-64518303D01*
X140065665Y-64518302D01*
X140105017Y-64464140D01*
X140109909Y-64454540D01*
X140157883Y-64403743D01*
X140225703Y-64386947D01*
X140291839Y-64409483D01*
X140330881Y-64454540D01*
X140335770Y-64464136D01*
X140375123Y-64518302D01*
X141007432Y-63885994D01*
X141024470Y-63949579D01*
X141090296Y-64063593D01*
X141183388Y-64156685D01*
X141297402Y-64222511D01*
X141360985Y-64239548D01*
X140728677Y-64871855D01*
X140728677Y-64871856D01*
X140782844Y-64911210D01*
X140972177Y-65007681D01*
X141174265Y-65073343D01*
X141384149Y-65106586D01*
X141596641Y-65106586D01*
X141806522Y-65073343D01*
X141806525Y-65073343D01*
X142008612Y-65007681D01*
X142197949Y-64911208D01*
X142252111Y-64871856D01*
X142252112Y-64871856D01*
X141619803Y-64239548D01*
X141683388Y-64222511D01*
X141797402Y-64156685D01*
X141890494Y-64063593D01*
X141956320Y-63949579D01*
X141973357Y-63885995D01*
X142605665Y-64518303D01*
X142605665Y-64518302D01*
X142645017Y-64464141D01*
X142649627Y-64455093D01*
X142697600Y-64404295D01*
X142765420Y-64387498D01*
X142831556Y-64410033D01*
X142870599Y-64455090D01*
X142875344Y-64464403D01*
X143000285Y-64636372D01*
X143150608Y-64786695D01*
X143322574Y-64911634D01*
X143322576Y-64911635D01*
X143322579Y-64911637D01*
X143511983Y-65008143D01*
X143714152Y-65073832D01*
X143924108Y-65107086D01*
X143924109Y-65107086D01*
X144136681Y-65107086D01*
X144136682Y-65107086D01*
X144346638Y-65073832D01*
X144548807Y-65008143D01*
X144738211Y-64911637D01*
X144824533Y-64848921D01*
X144910181Y-64786695D01*
X144910183Y-64786692D01*
X144910187Y-64786690D01*
X145060499Y-64636378D01*
X145060501Y-64636374D01*
X145060504Y-64636372D01*
X145185443Y-64464406D01*
X145185445Y-64464403D01*
X145185446Y-64464402D01*
X145189909Y-64455640D01*
X145237883Y-64404845D01*
X145305703Y-64388049D01*
X145371839Y-64410585D01*
X145410879Y-64455640D01*
X145414986Y-64463701D01*
X145415346Y-64464406D01*
X145540285Y-64636372D01*
X145690608Y-64786695D01*
X145862574Y-64911634D01*
X145862576Y-64911635D01*
X145862579Y-64911637D01*
X146051983Y-65008143D01*
X146254152Y-65073832D01*
X146464108Y-65107086D01*
X146464109Y-65107086D01*
X146676681Y-65107086D01*
X146676682Y-65107086D01*
X146886638Y-65073832D01*
X147088807Y-65008143D01*
X147278211Y-64911637D01*
X147364533Y-64848921D01*
X147450181Y-64786695D01*
X147450183Y-64786692D01*
X147450187Y-64786690D01*
X147600499Y-64636378D01*
X147600501Y-64636374D01*
X147600504Y-64636372D01*
X147725443Y-64464406D01*
X147725445Y-64464403D01*
X147725446Y-64464402D01*
X147729909Y-64455640D01*
X147777883Y-64404845D01*
X147845703Y-64388049D01*
X147911839Y-64410585D01*
X147950879Y-64455640D01*
X147954986Y-64463701D01*
X147955346Y-64464406D01*
X148080285Y-64636372D01*
X148230608Y-64786695D01*
X148382967Y-64897388D01*
X148402579Y-64911637D01*
X148430594Y-64925911D01*
X148481391Y-64973885D01*
X148498300Y-65036396D01*
X148498300Y-65460467D01*
X148478615Y-65527506D01*
X148425811Y-65573261D01*
X148413306Y-65578172D01*
X148379471Y-65589384D01*
X148379463Y-65589387D01*
X148230142Y-65681489D01*
X148106089Y-65805542D01*
X148013987Y-65954863D01*
X148013985Y-65954868D01*
X147998563Y-66001408D01*
X147958801Y-66121403D01*
X147958801Y-66121404D01*
X147958800Y-66121404D01*
X147948300Y-66224183D01*
X147948300Y-67024201D01*
X147948301Y-67024219D01*
X147958800Y-67126996D01*
X147958801Y-67126999D01*
X148010137Y-67281918D01*
X148013986Y-67293534D01*
X148099662Y-67432438D01*
X148106089Y-67442857D01*
X148199750Y-67536518D01*
X148204087Y-67544462D01*
X148211336Y-67549888D01*
X148220572Y-67574650D01*
X148233235Y-67597841D01*
X148232589Y-67606869D01*
X148235753Y-67615352D01*
X148230136Y-67641174D01*
X148228251Y-67667533D01*
X148222433Y-67676585D01*
X148220902Y-67683625D01*
X148199751Y-67711880D01*
X148124251Y-67787381D01*
X148062928Y-67820866D01*
X148036569Y-67823700D01*
X147679555Y-67823700D01*
X147524910Y-67854461D01*
X147524898Y-67854464D01*
X147379227Y-67914802D01*
X147379214Y-67914809D01*
X147248111Y-68002410D01*
X147248107Y-68002413D01*
X144103741Y-71146781D01*
X144076813Y-71161484D01*
X144050995Y-71178077D01*
X144044794Y-71178968D01*
X144042418Y-71180266D01*
X144016060Y-71183100D01*
X143971908Y-71183100D01*
X143904869Y-71163415D01*
X143866363Y-71119328D01*
X143864605Y-71120413D01*
X143860814Y-71114266D01*
X143768712Y-70964944D01*
X143644656Y-70840888D01*
X143495334Y-70748786D01*
X143328797Y-70693601D01*
X143328795Y-70693600D01*
X143226010Y-70683100D01*
X142025998Y-70683100D01*
X142025981Y-70683101D01*
X141923203Y-70693600D01*
X141923200Y-70693601D01*
X141756668Y-70748785D01*
X141756663Y-70748787D01*
X141607342Y-70840889D01*
X141483289Y-70964942D01*
X141459935Y-71002805D01*
X141393441Y-71110611D01*
X141387395Y-71120413D01*
X141385600Y-71119306D01*
X141346313Y-71163937D01*
X141280092Y-71183100D01*
X128393925Y-71183100D01*
X128326886Y-71163415D01*
X128281131Y-71110611D01*
X128271187Y-71041453D01*
X128283440Y-71002805D01*
X128357618Y-70857223D01*
X128357618Y-70857222D01*
X128357620Y-70857219D01*
X128420877Y-70662534D01*
X128452900Y-70460352D01*
X128452900Y-70255648D01*
X128447413Y-70221006D01*
X128420877Y-70053465D01*
X128376674Y-69917423D01*
X128357620Y-69858781D01*
X128357618Y-69858778D01*
X128357618Y-69858776D01*
X128311915Y-69769080D01*
X128264687Y-69676390D01*
X128240102Y-69642551D01*
X128144371Y-69510786D01*
X127999613Y-69366028D01*
X127930545Y-69315848D01*
X133847500Y-69315848D01*
X133847500Y-69520551D01*
X133879522Y-69722734D01*
X133942781Y-69917423D01*
X133993042Y-70016064D01*
X134035585Y-70099559D01*
X134035715Y-70099813D01*
X134156028Y-70265413D01*
X134300786Y-70410171D01*
X134417408Y-70494900D01*
X134466390Y-70530487D01*
X134582607Y-70589703D01*
X134648776Y-70623418D01*
X134648778Y-70623418D01*
X134648781Y-70623420D01*
X134750372Y-70656429D01*
X134843465Y-70686677D01*
X134942432Y-70702352D01*
X135045648Y-70718700D01*
X135045649Y-70718700D01*
X135250351Y-70718700D01*
X135250352Y-70718700D01*
X135452534Y-70686677D01*
X135647219Y-70623420D01*
X135829610Y-70530487D01*
X135946229Y-70445759D01*
X135995213Y-70410171D01*
X135995215Y-70410168D01*
X135995219Y-70410166D01*
X136139966Y-70265419D01*
X136139968Y-70265415D01*
X136139971Y-70265413D01*
X136260286Y-70099811D01*
X136260415Y-70099559D01*
X136287795Y-70045821D01*
X136335769Y-69995026D01*
X136403589Y-69978230D01*
X136469725Y-70000767D01*
X136508765Y-70045821D01*
X136536141Y-70099550D01*
X136536147Y-70099559D01*
X136568523Y-70144121D01*
X136568524Y-70144122D01*
X137248000Y-69464646D01*
X137248000Y-69470861D01*
X137275259Y-69572594D01*
X137327920Y-69663806D01*
X137402394Y-69738280D01*
X137493606Y-69790941D01*
X137595339Y-69818200D01*
X137601553Y-69818200D01*
X136922076Y-70497674D01*
X136966650Y-70530059D01*
X137148968Y-70622955D01*
X137343582Y-70686190D01*
X137545683Y-70718200D01*
X137750317Y-70718200D01*
X137952417Y-70686190D01*
X138147031Y-70622955D01*
X138329349Y-70530059D01*
X138373921Y-70497674D01*
X137694447Y-69818200D01*
X137700661Y-69818200D01*
X137802394Y-69790941D01*
X137893606Y-69738280D01*
X137968080Y-69663806D01*
X138020741Y-69572594D01*
X138048000Y-69470861D01*
X138048000Y-69464648D01*
X138727474Y-70144122D01*
X138727474Y-70144121D01*
X138759859Y-70099549D01*
X138852755Y-69917231D01*
X138915990Y-69722617D01*
X138948000Y-69520517D01*
X138948000Y-69315882D01*
X138915990Y-69113782D01*
X138852755Y-68919168D01*
X138759859Y-68736850D01*
X138727474Y-68692277D01*
X138727474Y-68692276D01*
X138048000Y-69371751D01*
X138048000Y-69365539D01*
X138020741Y-69263806D01*
X137968080Y-69172594D01*
X137893606Y-69098120D01*
X137802394Y-69045459D01*
X137700661Y-69018200D01*
X137694446Y-69018200D01*
X138373922Y-68338724D01*
X138373921Y-68338723D01*
X138329359Y-68306347D01*
X138329350Y-68306341D01*
X138147031Y-68213444D01*
X137952417Y-68150209D01*
X137750317Y-68118200D01*
X137545683Y-68118200D01*
X137343582Y-68150209D01*
X137148968Y-68213444D01*
X136966644Y-68306343D01*
X136922077Y-68338723D01*
X136922077Y-68338724D01*
X137601554Y-69018200D01*
X137595339Y-69018200D01*
X137493606Y-69045459D01*
X137402394Y-69098120D01*
X137327920Y-69172594D01*
X137275259Y-69263806D01*
X137248000Y-69365539D01*
X137248000Y-69371753D01*
X136568524Y-68692277D01*
X136568523Y-68692277D01*
X136536143Y-68736844D01*
X136508765Y-68790578D01*
X136460790Y-68841374D01*
X136392969Y-68858169D01*
X136326834Y-68835631D01*
X136287795Y-68790578D01*
X136260284Y-68736585D01*
X136139971Y-68570986D01*
X135995213Y-68426228D01*
X135829613Y-68305915D01*
X135829612Y-68305914D01*
X135829610Y-68305913D01*
X135772653Y-68276891D01*
X135647223Y-68212981D01*
X135452534Y-68149722D01*
X135277995Y-68122078D01*
X135250352Y-68117700D01*
X135045648Y-68117700D01*
X135021329Y-68121551D01*
X134843465Y-68149722D01*
X134648776Y-68212981D01*
X134466386Y-68305915D01*
X134300786Y-68426228D01*
X134156028Y-68570986D01*
X134035715Y-68736586D01*
X133942781Y-68918976D01*
X133879522Y-69113665D01*
X133847500Y-69315848D01*
X127930545Y-69315848D01*
X127834013Y-69245715D01*
X127834012Y-69245714D01*
X127834010Y-69245713D01*
X127742547Y-69199110D01*
X127651623Y-69152781D01*
X127456934Y-69089522D01*
X127282395Y-69061878D01*
X127254752Y-69057500D01*
X127050048Y-69057500D01*
X127025729Y-69061351D01*
X126847865Y-69089522D01*
X126653176Y-69152781D01*
X126470786Y-69245715D01*
X126305186Y-69366028D01*
X126160428Y-69510786D01*
X126040115Y-69676386D01*
X125992885Y-69769080D01*
X125944910Y-69819876D01*
X125877089Y-69836671D01*
X125810954Y-69814134D01*
X125771915Y-69769080D01*
X125771283Y-69767840D01*
X125724687Y-69676390D01*
X125700102Y-69642551D01*
X125604371Y-69510786D01*
X125459613Y-69366028D01*
X125294013Y-69245715D01*
X125294012Y-69245714D01*
X125294010Y-69245713D01*
X125202547Y-69199110D01*
X125111623Y-69152781D01*
X124916934Y-69089522D01*
X124742395Y-69061878D01*
X124714752Y-69057500D01*
X124510048Y-69057500D01*
X124485729Y-69061351D01*
X124307865Y-69089522D01*
X124113176Y-69152781D01*
X123930786Y-69245715D01*
X123765186Y-69366028D01*
X123620428Y-69510786D01*
X123500115Y-69676386D01*
X123407181Y-69858776D01*
X123343922Y-70053465D01*
X123311900Y-70255648D01*
X123311900Y-70460351D01*
X123343922Y-70662534D01*
X123407181Y-70857223D01*
X123481360Y-71002805D01*
X123494256Y-71071474D01*
X123467980Y-71136215D01*
X123410873Y-71176472D01*
X123370875Y-71183100D01*
X118970955Y-71183100D01*
X118816310Y-71213861D01*
X118816298Y-71213864D01*
X118670627Y-71274202D01*
X118670614Y-71274209D01*
X118539511Y-71361810D01*
X118539507Y-71361813D01*
X117807969Y-72093351D01*
X117767741Y-72120231D01*
X117632655Y-72176185D01*
X117485165Y-72274735D01*
X117485161Y-72274738D01*
X117359738Y-72400161D01*
X117359735Y-72400165D01*
X117261190Y-72547646D01*
X117261183Y-72547659D01*
X117193306Y-72711532D01*
X117193303Y-72711541D01*
X117158700Y-72885504D01*
X85261150Y-72885504D01*
X85265187Y-72860018D01*
X85265187Y-72860017D01*
X85271302Y-72821408D01*
X84242201Y-72821408D01*
X84267221Y-72761006D01*
X84292200Y-72635427D01*
X84292200Y-72507389D01*
X84267221Y-72381810D01*
X84242201Y-72321408D01*
X85271302Y-72321408D01*
X85255265Y-72220160D01*
X85182302Y-71995605D01*
X85075114Y-71785236D01*
X84936333Y-71594221D01*
X84769380Y-71427268D01*
X84734224Y-71401727D01*
X84691558Y-71346398D01*
X84685577Y-71276785D01*
X84718182Y-71214989D01*
X84734224Y-71201089D01*
X84769380Y-71175547D01*
X84936333Y-71008594D01*
X85075114Y-70817579D01*
X85182302Y-70607210D01*
X85255265Y-70382655D01*
X85271302Y-70281408D01*
X84242201Y-70281408D01*
X84267221Y-70221006D01*
X84292200Y-70095427D01*
X84292200Y-69967389D01*
X84267221Y-69841810D01*
X84242201Y-69781408D01*
X85271302Y-69781408D01*
X85255265Y-69680160D01*
X85182302Y-69455605D01*
X85075114Y-69245236D01*
X84936333Y-69054221D01*
X84933172Y-69050520D01*
X84934936Y-69049013D01*
X84906036Y-68996086D01*
X84911020Y-68926394D01*
X84952892Y-68870461D01*
X84962106Y-68864189D01*
X84999095Y-68841374D01*
X85010856Y-68834120D01*
X85134912Y-68710064D01*
X85227014Y-68560742D01*
X85282199Y-68394205D01*
X85292700Y-68291417D01*
X85292699Y-66691400D01*
X85288660Y-66651865D01*
X85282199Y-66588611D01*
X85282198Y-66588608D01*
X85266376Y-66540861D01*
X85227014Y-66422074D01*
X85134912Y-66272752D01*
X85010856Y-66148696D01*
X84918088Y-66091477D01*
X84861536Y-66056595D01*
X84861531Y-66056593D01*
X84806637Y-66038403D01*
X84694997Y-66001409D01*
X84694995Y-66001408D01*
X84592210Y-65990908D01*
X82692198Y-65990908D01*
X82692181Y-65990909D01*
X82589403Y-66001408D01*
X82589400Y-66001409D01*
X82422868Y-66056593D01*
X82422863Y-66056595D01*
X82273542Y-66148697D01*
X82149489Y-66272750D01*
X82057387Y-66422071D01*
X82057385Y-66422076D01*
X82046325Y-66455454D01*
X82002201Y-66588611D01*
X82002201Y-66588612D01*
X82002200Y-66588612D01*
X81991700Y-66691391D01*
X69941256Y-66691391D01*
X69878904Y-66540861D01*
X69878902Y-66540858D01*
X69878900Y-66540853D01*
X69740414Y-66300989D01*
X69571800Y-66081246D01*
X69571794Y-66081239D01*
X69375950Y-65885395D01*
X69375943Y-65885389D01*
X69156200Y-65716775D01*
X68916336Y-65578289D01*
X68916325Y-65578284D01*
X68660431Y-65472289D01*
X68392888Y-65400601D01*
X68118289Y-65364450D01*
X68118284Y-65364449D01*
X68118279Y-65364449D01*
X67841299Y-65364449D01*
X67841293Y-65364449D01*
X67841288Y-65364450D01*
X67566689Y-65400601D01*
X67299146Y-65472289D01*
X67043252Y-65578284D01*
X67043241Y-65578289D01*
X66803377Y-65716775D01*
X66583634Y-65885389D01*
X66583627Y-65885395D01*
X66387783Y-66081239D01*
X66387777Y-66081246D01*
X66219163Y-66300989D01*
X66080677Y-66540853D01*
X66080672Y-66540864D01*
X65974677Y-66796758D01*
X65902989Y-67064301D01*
X65866838Y-67338900D01*
X65866837Y-67338917D01*
X65258322Y-67338917D01*
X65258318Y-67334988D01*
X65257843Y-66900800D01*
X65255546Y-64799291D01*
X114017100Y-64799291D01*
X114017100Y-66202293D01*
X114017101Y-66202309D01*
X114027579Y-66304873D01*
X114066415Y-66422071D01*
X114082646Y-66471053D01*
X114174552Y-66620056D01*
X114298344Y-66743848D01*
X114447347Y-66835754D01*
X114613528Y-66890821D01*
X114716099Y-66901300D01*
X116119100Y-66901299D01*
X116221672Y-66890821D01*
X116387853Y-66835754D01*
X116536856Y-66743848D01*
X116660648Y-66620056D01*
X116752554Y-66471053D01*
X116802167Y-66321328D01*
X116832192Y-66272653D01*
X117515461Y-65589382D01*
X117538267Y-65674494D01*
X117597510Y-65777106D01*
X117681294Y-65860890D01*
X117783906Y-65920133D01*
X117869014Y-65942937D01*
X117160085Y-66651865D01*
X117160085Y-66651866D01*
X117223843Y-66698188D01*
X117420189Y-66798232D01*
X117629764Y-66866326D01*
X117847419Y-66900800D01*
X118067781Y-66900800D01*
X118285435Y-66866326D01*
X118495010Y-66798232D01*
X118691360Y-66698186D01*
X118755113Y-66651866D01*
X118755114Y-66651866D01*
X118046185Y-65942938D01*
X118131294Y-65920133D01*
X118233906Y-65860890D01*
X118317690Y-65777106D01*
X118376933Y-65674494D01*
X118399737Y-65589385D01*
X119108666Y-66298314D01*
X119108666Y-66298313D01*
X119126972Y-66273119D01*
X119182301Y-66230453D01*
X119251915Y-66224474D01*
X119313710Y-66257079D01*
X119327608Y-66273119D01*
X119429352Y-66413158D01*
X119429356Y-66413163D01*
X119585236Y-66569043D01*
X119585241Y-66569047D01*
X119671705Y-66631866D01*
X119763578Y-66698615D01*
X119891975Y-66764037D01*
X119959993Y-66798695D01*
X119959996Y-66798696D01*
X120064821Y-66832755D01*
X120169649Y-66866815D01*
X120387378Y-66901300D01*
X120387379Y-66901300D01*
X120607821Y-66901300D01*
X120607822Y-66901300D01*
X120825551Y-66866815D01*
X121035206Y-66798695D01*
X121231622Y-66698615D01*
X121409965Y-66569042D01*
X121565842Y-66413165D01*
X121695415Y-66234822D01*
X121795495Y-66038406D01*
X121863615Y-65828751D01*
X121898100Y-65611022D01*
X121898100Y-65390578D01*
X121863615Y-65172849D01*
X121829555Y-65068021D01*
X121795496Y-64963196D01*
X121795495Y-64963193D01*
X121753560Y-64880892D01*
X121753559Y-64880890D01*
X121695414Y-64766776D01*
X121565847Y-64588441D01*
X121565843Y-64588436D01*
X121409963Y-64432556D01*
X121409958Y-64432552D01*
X121231625Y-64302987D01*
X121231624Y-64302986D01*
X121231622Y-64302985D01*
X121168696Y-64270922D01*
X121035206Y-64202904D01*
X121035203Y-64202903D01*
X120825552Y-64134785D01*
X120716686Y-64117542D01*
X120607822Y-64100300D01*
X120387378Y-64100300D01*
X120314801Y-64111795D01*
X120169647Y-64134785D01*
X119959996Y-64202903D01*
X119959993Y-64202904D01*
X119763574Y-64302987D01*
X119585241Y-64432552D01*
X119585236Y-64432556D01*
X119429356Y-64588436D01*
X119327608Y-64728481D01*
X119272278Y-64771146D01*
X119202665Y-64777125D01*
X119140870Y-64744519D01*
X119126971Y-64728480D01*
X119108666Y-64703285D01*
X119108665Y-64703285D01*
X118399737Y-65412213D01*
X118376933Y-65327106D01*
X118317690Y-65224494D01*
X118233906Y-65140710D01*
X118131294Y-65081467D01*
X118046183Y-65058661D01*
X118755113Y-64349732D01*
X118691356Y-64303411D01*
X118495010Y-64203367D01*
X118285435Y-64135273D01*
X118067781Y-64100800D01*
X117847419Y-64100800D01*
X117629764Y-64135273D01*
X117420189Y-64203367D01*
X117223833Y-64303416D01*
X117160085Y-64349731D01*
X117160085Y-64349732D01*
X117869014Y-65058661D01*
X117783906Y-65081467D01*
X117681294Y-65140710D01*
X117597510Y-65224494D01*
X117538267Y-65327106D01*
X117515461Y-65412215D01*
X116832192Y-64728946D01*
X116802167Y-64680269D01*
X116771738Y-64588441D01*
X116752554Y-64530547D01*
X116745002Y-64518303D01*
X116710328Y-64462087D01*
X116710327Y-64462085D01*
X116660650Y-64381547D01*
X116660647Y-64381543D01*
X116536857Y-64257753D01*
X116536856Y-64257752D01*
X116391564Y-64168135D01*
X116387855Y-64165847D01*
X116387850Y-64165845D01*
X116221673Y-64110779D01*
X116221666Y-64110778D01*
X116119102Y-64100300D01*
X114716106Y-64100300D01*
X114716090Y-64100301D01*
X114613526Y-64110779D01*
X114447349Y-64165845D01*
X114447344Y-64165847D01*
X114298342Y-64257753D01*
X114174553Y-64381542D01*
X114082647Y-64530544D01*
X114082645Y-64530549D01*
X114027579Y-64696726D01*
X114027578Y-64696733D01*
X114017100Y-64799291D01*
X65255546Y-64799291D01*
X65252735Y-62227067D01*
X65272346Y-62160009D01*
X65325100Y-62114197D01*
X65376669Y-62102935D01*
X162334337Y-62052264D01*
X162401385Y-62071914D01*
X162447167Y-62124694D01*
X162458400Y-62176264D01*
X162458400Y-68224400D01*
X182880000Y-68224400D01*
X182880000Y-67695386D01*
X184132401Y-67695386D01*
X184142894Y-67798097D01*
X184198041Y-67964519D01*
X184198043Y-67964524D01*
X184290084Y-68113745D01*
X184414054Y-68237715D01*
X184563275Y-68329756D01*
X184563280Y-68329758D01*
X184729702Y-68384905D01*
X184729709Y-68384906D01*
X184832419Y-68395399D01*
X185602399Y-68395399D01*
X186102400Y-68395399D01*
X186872372Y-68395399D01*
X186872386Y-68395398D01*
X186975097Y-68384905D01*
X187141519Y-68329758D01*
X187141524Y-68329756D01*
X187290745Y-68237715D01*
X187414715Y-68113745D01*
X187506756Y-67964524D01*
X187506758Y-67964519D01*
X187561905Y-67798097D01*
X187561906Y-67798090D01*
X187572399Y-67695386D01*
X187572400Y-67695373D01*
X187572400Y-67585400D01*
X186102400Y-67585400D01*
X186102400Y-68395399D01*
X185602399Y-68395399D01*
X185602400Y-68395398D01*
X185602400Y-67585400D01*
X184132401Y-67585400D01*
X184132401Y-67695386D01*
X182880000Y-67695386D01*
X182880000Y-66975413D01*
X184132400Y-66975413D01*
X184132400Y-67085400D01*
X185602400Y-67085400D01*
X186102400Y-67085400D01*
X187572399Y-67085400D01*
X187572399Y-66975428D01*
X187572398Y-66975413D01*
X187561905Y-66872702D01*
X187506758Y-66706280D01*
X187506756Y-66706275D01*
X187414715Y-66557054D01*
X187290745Y-66433084D01*
X187141524Y-66341043D01*
X187141519Y-66341041D01*
X186975097Y-66285894D01*
X186975090Y-66285893D01*
X186872386Y-66275400D01*
X186102400Y-66275400D01*
X186102400Y-67085400D01*
X185602400Y-67085400D01*
X185602400Y-66275400D01*
X184832428Y-66275400D01*
X184832412Y-66275401D01*
X184729702Y-66285894D01*
X184563280Y-66341041D01*
X184563275Y-66341043D01*
X184414054Y-66433084D01*
X184290084Y-66557054D01*
X184198043Y-66706275D01*
X184198041Y-66706280D01*
X184142894Y-66872702D01*
X184142893Y-66872709D01*
X184132400Y-66975413D01*
X182880000Y-66975413D01*
X182880000Y-62125400D01*
X182899685Y-62058361D01*
X182952489Y-62012606D01*
X183004000Y-62001400D01*
X238559871Y-62001400D01*
X238626910Y-62021085D01*
G37*
%TD.AperFunction*%
%TD*%
M02*
