%TF.GenerationSoftware,KiCad,Pcbnew,10.0.4*%
%TF.CreationDate,2026-07-31T15:30:24+02:00*%
%TF.ProjectId,nixieclocklogic_V2-2,6e697869-6563-46c6-9f63-6b6c6f676963,2.2*%
%TF.SameCoordinates,Original*%
%TF.FileFunction,Legend,Top*%
%TF.FilePolarity,Positive*%
%FSLAX46Y46*%
G04 Gerber Fmt 4.6, Leading zero omitted, Abs format (unit mm)*
G04 Created by KiCad (PCBNEW 10.0.4) date 2026-07-31 15:30:24*
%MOMM*%
%LPD*%
G01*
G04 APERTURE LIST*
%ADD10C,0.100000*%
%ADD11C,0.200000*%
%ADD12C,0.150000*%
%ADD13C,0.120000*%
G04 APERTURE END LIST*
D10*
X185712101Y-101600000D02*
X203923899Y-101600000D01*
X203923899Y-102387400D01*
X185712101Y-102387400D01*
X185712101Y-101600000D01*
G36*
X185712101Y-101600000D02*
G01*
X203923899Y-101600000D01*
X203923899Y-102387400D01*
X185712101Y-102387400D01*
X185712101Y-101600000D01*
G37*
X185712101Y-102463600D02*
X186744299Y-102463600D01*
X186744299Y-104990900D01*
X185712101Y-104990900D01*
X185712101Y-102463600D01*
G36*
X185712101Y-102463600D02*
G01*
X186744299Y-102463600D01*
X186744299Y-104990900D01*
X185712101Y-104990900D01*
X185712101Y-102463600D01*
G37*
X185712101Y-105003600D02*
X203923899Y-105003600D01*
X203923899Y-105791000D01*
X185712101Y-105791000D01*
X185712101Y-105003600D01*
G36*
X185712101Y-105003600D02*
G01*
X203923899Y-105003600D01*
X203923899Y-105791000D01*
X185712101Y-105791000D01*
X185712101Y-105003600D01*
G37*
X202844300Y-102476561D02*
X203929096Y-102476561D01*
X203929096Y-105003861D01*
X202844300Y-105003861D01*
X202844300Y-102476561D01*
G36*
X202844300Y-102476561D02*
G01*
X203929096Y-102476561D01*
X203929096Y-105003861D01*
X202844300Y-105003861D01*
X202844300Y-102476561D01*
G37*
X204987231Y-104684439D02*
X204987231Y-103184439D01*
X204987231Y-103184439D02*
X205844374Y-104684439D01*
X205844374Y-104684439D02*
X205844374Y-103184439D01*
X206558660Y-104684439D02*
X206558660Y-103684439D01*
X206558660Y-103184439D02*
X206487232Y-103255868D01*
X206487232Y-103255868D02*
X206558660Y-103327296D01*
X206558660Y-103327296D02*
X206630089Y-103255868D01*
X206630089Y-103255868D02*
X206558660Y-103184439D01*
X206558660Y-103184439D02*
X206558660Y-103327296D01*
X207130089Y-104684439D02*
X207915804Y-103684439D01*
X207130089Y-103684439D02*
X207915804Y-104684439D01*
X208487232Y-104684439D02*
X208487232Y-103684439D01*
X208487232Y-103184439D02*
X208415804Y-103255868D01*
X208415804Y-103255868D02*
X208487232Y-103327296D01*
X208487232Y-103327296D02*
X208558661Y-103255868D01*
X208558661Y-103255868D02*
X208487232Y-103184439D01*
X208487232Y-103184439D02*
X208487232Y-103327296D01*
X209772947Y-104613011D02*
X209630090Y-104684439D01*
X209630090Y-104684439D02*
X209344376Y-104684439D01*
X209344376Y-104684439D02*
X209201518Y-104613011D01*
X209201518Y-104613011D02*
X209130090Y-104470153D01*
X209130090Y-104470153D02*
X209130090Y-103898725D01*
X209130090Y-103898725D02*
X209201518Y-103755868D01*
X209201518Y-103755868D02*
X209344376Y-103684439D01*
X209344376Y-103684439D02*
X209630090Y-103684439D01*
X209630090Y-103684439D02*
X209772947Y-103755868D01*
X209772947Y-103755868D02*
X209844376Y-103898725D01*
X209844376Y-103898725D02*
X209844376Y-104041582D01*
X209844376Y-104041582D02*
X209130090Y-104184439D01*
X211344375Y-104541582D02*
X211272947Y-104613011D01*
X211272947Y-104613011D02*
X211058661Y-104684439D01*
X211058661Y-104684439D02*
X210915804Y-104684439D01*
X210915804Y-104684439D02*
X210701518Y-104613011D01*
X210701518Y-104613011D02*
X210558661Y-104470153D01*
X210558661Y-104470153D02*
X210487232Y-104327296D01*
X210487232Y-104327296D02*
X210415804Y-104041582D01*
X210415804Y-104041582D02*
X210415804Y-103827296D01*
X210415804Y-103827296D02*
X210487232Y-103541582D01*
X210487232Y-103541582D02*
X210558661Y-103398725D01*
X210558661Y-103398725D02*
X210701518Y-103255868D01*
X210701518Y-103255868D02*
X210915804Y-103184439D01*
X210915804Y-103184439D02*
X211058661Y-103184439D01*
X211058661Y-103184439D02*
X211272947Y-103255868D01*
X211272947Y-103255868D02*
X211344375Y-103327296D01*
X212201518Y-104684439D02*
X212058661Y-104613011D01*
X212058661Y-104613011D02*
X211987232Y-104470153D01*
X211987232Y-104470153D02*
X211987232Y-103184439D01*
X212987232Y-104684439D02*
X212844375Y-104613011D01*
X212844375Y-104613011D02*
X212772946Y-104541582D01*
X212772946Y-104541582D02*
X212701518Y-104398725D01*
X212701518Y-104398725D02*
X212701518Y-103970153D01*
X212701518Y-103970153D02*
X212772946Y-103827296D01*
X212772946Y-103827296D02*
X212844375Y-103755868D01*
X212844375Y-103755868D02*
X212987232Y-103684439D01*
X212987232Y-103684439D02*
X213201518Y-103684439D01*
X213201518Y-103684439D02*
X213344375Y-103755868D01*
X213344375Y-103755868D02*
X213415804Y-103827296D01*
X213415804Y-103827296D02*
X213487232Y-103970153D01*
X213487232Y-103970153D02*
X213487232Y-104398725D01*
X213487232Y-104398725D02*
X213415804Y-104541582D01*
X213415804Y-104541582D02*
X213344375Y-104613011D01*
X213344375Y-104613011D02*
X213201518Y-104684439D01*
X213201518Y-104684439D02*
X212987232Y-104684439D01*
X214772947Y-104613011D02*
X214630089Y-104684439D01*
X214630089Y-104684439D02*
X214344375Y-104684439D01*
X214344375Y-104684439D02*
X214201518Y-104613011D01*
X214201518Y-104613011D02*
X214130089Y-104541582D01*
X214130089Y-104541582D02*
X214058661Y-104398725D01*
X214058661Y-104398725D02*
X214058661Y-103970153D01*
X214058661Y-103970153D02*
X214130089Y-103827296D01*
X214130089Y-103827296D02*
X214201518Y-103755868D01*
X214201518Y-103755868D02*
X214344375Y-103684439D01*
X214344375Y-103684439D02*
X214630089Y-103684439D01*
X214630089Y-103684439D02*
X214772947Y-103755868D01*
X215415803Y-104684439D02*
X215415803Y-103184439D01*
X215558661Y-104113011D02*
X215987232Y-104684439D01*
X215987232Y-103684439D02*
X215415803Y-104255868D01*
X216630089Y-103184439D02*
X216630089Y-104398725D01*
X216630089Y-104398725D02*
X216701518Y-104541582D01*
X216701518Y-104541582D02*
X216772947Y-104613011D01*
X216772947Y-104613011D02*
X216915804Y-104684439D01*
X216915804Y-104684439D02*
X217201518Y-104684439D01*
X217201518Y-104684439D02*
X217344375Y-104613011D01*
X217344375Y-104613011D02*
X217415804Y-104541582D01*
X217415804Y-104541582D02*
X217487232Y-104398725D01*
X217487232Y-104398725D02*
X217487232Y-103184439D01*
X218415804Y-104684439D02*
X218272947Y-104613011D01*
X218272947Y-104613011D02*
X218201518Y-104470153D01*
X218201518Y-104470153D02*
X218201518Y-103184439D01*
X218772947Y-103684439D02*
X219344375Y-103684439D01*
X218987232Y-103184439D02*
X218987232Y-104470153D01*
X218987232Y-104470153D02*
X219058661Y-104613011D01*
X219058661Y-104613011D02*
X219201518Y-104684439D01*
X219201518Y-104684439D02*
X219344375Y-104684439D01*
X219844375Y-104684439D02*
X219844375Y-103684439D01*
X219844375Y-103970153D02*
X219915804Y-103827296D01*
X219915804Y-103827296D02*
X219987233Y-103755868D01*
X219987233Y-103755868D02*
X220130090Y-103684439D01*
X220130090Y-103684439D02*
X220272947Y-103684439D01*
X221415804Y-104684439D02*
X221415804Y-103898725D01*
X221415804Y-103898725D02*
X221344375Y-103755868D01*
X221344375Y-103755868D02*
X221201518Y-103684439D01*
X221201518Y-103684439D02*
X220915804Y-103684439D01*
X220915804Y-103684439D02*
X220772946Y-103755868D01*
X221415804Y-104613011D02*
X221272946Y-104684439D01*
X221272946Y-104684439D02*
X220915804Y-104684439D01*
X220915804Y-104684439D02*
X220772946Y-104613011D01*
X220772946Y-104613011D02*
X220701518Y-104470153D01*
X220701518Y-104470153D02*
X220701518Y-104327296D01*
X220701518Y-104327296D02*
X220772946Y-104184439D01*
X220772946Y-104184439D02*
X220915804Y-104113011D01*
X220915804Y-104113011D02*
X221272946Y-104113011D01*
X221272946Y-104113011D02*
X221415804Y-104041582D01*
X223058661Y-103184439D02*
X223558661Y-104684439D01*
X223558661Y-104684439D02*
X224058661Y-103184439D01*
X224487232Y-103327296D02*
X224558660Y-103255868D01*
X224558660Y-103255868D02*
X224701518Y-103184439D01*
X224701518Y-103184439D02*
X225058660Y-103184439D01*
X225058660Y-103184439D02*
X225201518Y-103255868D01*
X225201518Y-103255868D02*
X225272946Y-103327296D01*
X225272946Y-103327296D02*
X225344375Y-103470153D01*
X225344375Y-103470153D02*
X225344375Y-103613011D01*
X225344375Y-103613011D02*
X225272946Y-103827296D01*
X225272946Y-103827296D02*
X224415803Y-104684439D01*
X224415803Y-104684439D02*
X225344375Y-104684439D01*
X225987231Y-104541582D02*
X226058660Y-104613011D01*
X226058660Y-104613011D02*
X225987231Y-104684439D01*
X225987231Y-104684439D02*
X225915803Y-104613011D01*
X225915803Y-104613011D02*
X225987231Y-104541582D01*
X225987231Y-104541582D02*
X225987231Y-104684439D01*
X226630089Y-103327296D02*
X226701517Y-103255868D01*
X226701517Y-103255868D02*
X226844375Y-103184439D01*
X226844375Y-103184439D02*
X227201517Y-103184439D01*
X227201517Y-103184439D02*
X227344375Y-103255868D01*
X227344375Y-103255868D02*
X227415803Y-103327296D01*
X227415803Y-103327296D02*
X227487232Y-103470153D01*
X227487232Y-103470153D02*
X227487232Y-103613011D01*
X227487232Y-103613011D02*
X227415803Y-103827296D01*
X227415803Y-103827296D02*
X226558660Y-104684439D01*
X226558660Y-104684439D02*
X227487232Y-104684439D01*
D11*
G36*
X197295481Y-103554427D02*
G01*
X197367770Y-103626716D01*
X197445194Y-103781564D01*
X197445194Y-104305777D01*
X197367770Y-104460624D01*
X197295482Y-104532914D01*
X197140635Y-104610338D01*
X196902135Y-104610338D01*
X196747286Y-104532914D01*
X196674999Y-104460626D01*
X196597575Y-104305778D01*
X196597575Y-103781563D01*
X196674998Y-103626716D01*
X196747287Y-103554427D01*
X196902135Y-103477004D01*
X197140635Y-103477004D01*
X197295481Y-103554427D01*
G37*
G36*
X199159480Y-103534045D02*
G01*
X199159480Y-104553296D01*
X199045397Y-104610338D01*
X198711659Y-104610338D01*
X198556810Y-104532914D01*
X198484523Y-104460626D01*
X198407099Y-104305778D01*
X198407099Y-103781563D01*
X198484522Y-103626716D01*
X198556811Y-103554427D01*
X198711659Y-103477004D01*
X199045397Y-103477004D01*
X199159480Y-103534045D01*
G37*
G36*
X200899230Y-103546777D02*
G01*
X200969004Y-103686326D01*
X200969004Y-103771214D01*
X200216623Y-103921690D01*
X200216623Y-103686325D01*
X200286396Y-103546777D01*
X200425945Y-103477004D01*
X200759683Y-103477004D01*
X200899230Y-103546777D01*
G37*
G36*
X187977879Y-104038909D02*
G01*
X187302983Y-104038909D01*
X187640431Y-103026565D01*
X187977879Y-104038909D01*
G37*
G36*
X202817877Y-105032560D02*
G01*
X186652328Y-105032560D01*
X186652328Y-104697831D01*
X186874550Y-104697831D01*
X186877316Y-104736751D01*
X186894766Y-104771650D01*
X186924242Y-104797215D01*
X186961258Y-104809553D01*
X187000178Y-104806787D01*
X187035077Y-104789337D01*
X187060642Y-104759861D01*
X187068633Y-104741961D01*
X187236317Y-104238909D01*
X188044546Y-104238909D01*
X188212230Y-104741961D01*
X188220221Y-104759861D01*
X188245786Y-104789337D01*
X188280685Y-104806787D01*
X188319605Y-104809553D01*
X188356621Y-104797214D01*
X188386097Y-104771649D01*
X188403547Y-104736750D01*
X188406313Y-104697830D01*
X188401966Y-104678715D01*
X188374258Y-104595591D01*
X188780448Y-104595591D01*
X188780448Y-104634609D01*
X188782527Y-104639627D01*
X188795380Y-104670658D01*
X188795384Y-104670662D01*
X188807816Y-104685811D01*
X188903054Y-104781049D01*
X188918208Y-104793485D01*
X188954256Y-104808417D01*
X188993274Y-104808417D01*
X189029322Y-104793485D01*
X189044476Y-104781049D01*
X189139714Y-104685811D01*
X189152145Y-104670662D01*
X189152150Y-104670658D01*
X189167082Y-104634610D01*
X189167082Y-104595592D01*
X189165002Y-104590571D01*
X189156639Y-104570379D01*
X189152151Y-104559543D01*
X189139714Y-104544390D01*
X189044476Y-104449151D01*
X189029323Y-104436714D01*
X189029322Y-104436713D01*
X188993274Y-104421782D01*
X188954256Y-104421782D01*
X188918208Y-104436713D01*
X188918207Y-104436714D01*
X188903054Y-104449150D01*
X188807816Y-104544390D01*
X188795379Y-104559543D01*
X188790891Y-104570379D01*
X188780448Y-104595591D01*
X188374258Y-104595591D01*
X187872824Y-103091290D01*
X189730908Y-103091290D01*
X189730908Y-103281766D01*
X189732829Y-103301275D01*
X189734204Y-103304595D01*
X189734459Y-103308179D01*
X189741465Y-103326487D01*
X189836703Y-103516964D01*
X189841989Y-103525362D01*
X189842999Y-103527799D01*
X189845250Y-103530542D01*
X189847146Y-103533554D01*
X189849143Y-103535286D01*
X189855435Y-103542953D01*
X189950673Y-103638191D01*
X189958339Y-103644482D01*
X189960072Y-103646480D01*
X189963083Y-103648375D01*
X189965827Y-103650627D01*
X189968263Y-103651636D01*
X189976662Y-103656923D01*
X190167138Y-103752161D01*
X190168563Y-103752706D01*
X190169146Y-103753138D01*
X190177339Y-103756065D01*
X190185447Y-103759168D01*
X190186167Y-103759219D01*
X190187606Y-103759733D01*
X190557909Y-103852308D01*
X190724052Y-103935380D01*
X190796341Y-104007669D01*
X190873765Y-104162516D01*
X190873765Y-104305777D01*
X190796341Y-104460624D01*
X190724053Y-104532914D01*
X190569206Y-104610338D01*
X190132849Y-104610338D01*
X189862531Y-104520232D01*
X189843415Y-104515885D01*
X189804495Y-104518651D01*
X189769596Y-104536101D01*
X189744031Y-104565577D01*
X189731693Y-104602593D01*
X189734459Y-104641513D01*
X189751909Y-104676412D01*
X189781385Y-104701977D01*
X189799285Y-104709968D01*
X190084999Y-104805206D01*
X190094670Y-104807405D01*
X190097113Y-104808417D01*
X190100651Y-104808765D01*
X190104115Y-104809553D01*
X190106748Y-104809365D01*
X190116622Y-104810338D01*
X190592813Y-104810338D01*
X190612322Y-104808417D01*
X190615642Y-104807041D01*
X190619226Y-104806787D01*
X190637534Y-104799781D01*
X190828011Y-104704543D01*
X190836408Y-104699257D01*
X190838847Y-104698247D01*
X190841591Y-104695994D01*
X190844601Y-104694100D01*
X190846333Y-104692102D01*
X190854000Y-104685810D01*
X190949238Y-104590571D01*
X190955530Y-104582904D01*
X190957527Y-104581173D01*
X190959420Y-104578165D01*
X190961675Y-104575418D01*
X190962686Y-104572976D01*
X190967970Y-104564582D01*
X191063208Y-104374106D01*
X191070214Y-104355798D01*
X191070468Y-104352214D01*
X191071844Y-104348894D01*
X191073765Y-104329385D01*
X191073765Y-104138909D01*
X191071844Y-104119400D01*
X191070468Y-104116079D01*
X191070214Y-104112496D01*
X191063208Y-104094188D01*
X190967970Y-103903712D01*
X190962683Y-103895313D01*
X190961674Y-103892876D01*
X190959422Y-103890132D01*
X190957527Y-103887121D01*
X190955529Y-103885388D01*
X190949238Y-103877722D01*
X190854000Y-103782484D01*
X190846333Y-103776192D01*
X190844601Y-103774195D01*
X190841589Y-103772299D01*
X190838846Y-103770048D01*
X190836409Y-103769038D01*
X190828011Y-103763752D01*
X190816421Y-103757957D01*
X191635670Y-103757957D01*
X191635670Y-104329385D01*
X191637591Y-104348894D01*
X191638966Y-104352214D01*
X191639221Y-104355798D01*
X191646227Y-104374106D01*
X191741465Y-104564583D01*
X191746749Y-104572977D01*
X191747760Y-104575418D01*
X191750014Y-104578164D01*
X191751908Y-104581173D01*
X191753904Y-104582904D01*
X191760197Y-104590571D01*
X191855435Y-104685811D01*
X191863103Y-104692104D01*
X191864834Y-104694100D01*
X191867841Y-104695993D01*
X191870588Y-104698247D01*
X191873028Y-104699257D01*
X191881425Y-104704543D01*
X192071901Y-104799781D01*
X192090209Y-104806787D01*
X192093792Y-104807041D01*
X192097113Y-104808417D01*
X192116622Y-104810338D01*
X192497575Y-104810338D01*
X192517084Y-104808417D01*
X192520404Y-104807041D01*
X192523988Y-104806787D01*
X192542296Y-104799781D01*
X192732773Y-104704543D01*
X192749363Y-104694100D01*
X192774927Y-104664623D01*
X192787266Y-104627607D01*
X192784501Y-104588687D01*
X192767051Y-104553788D01*
X192737574Y-104528224D01*
X192700559Y-104515885D01*
X192661638Y-104518651D01*
X192643330Y-104525657D01*
X192473968Y-104610338D01*
X192140230Y-104610338D01*
X191985381Y-104532914D01*
X191913094Y-104460626D01*
X191835670Y-104305778D01*
X191835670Y-103781563D01*
X191913093Y-103626716D01*
X191985382Y-103554427D01*
X192140230Y-103477004D01*
X192473968Y-103477004D01*
X192643330Y-103561685D01*
X192661638Y-103568691D01*
X192700559Y-103571457D01*
X192737574Y-103559118D01*
X192767051Y-103533554D01*
X192784501Y-103498655D01*
X192787266Y-103459735D01*
X192774927Y-103422719D01*
X192749363Y-103393242D01*
X192732773Y-103382799D01*
X192542296Y-103287561D01*
X192523988Y-103280555D01*
X192520404Y-103280300D01*
X192517084Y-103278925D01*
X192497575Y-103277004D01*
X192116622Y-103277004D01*
X192097113Y-103278925D01*
X192093792Y-103280300D01*
X192090209Y-103280555D01*
X192071901Y-103287561D01*
X191881425Y-103382799D01*
X191873026Y-103388085D01*
X191870589Y-103389095D01*
X191867845Y-103391346D01*
X191864834Y-103393242D01*
X191863101Y-103395239D01*
X191855435Y-103401531D01*
X191760197Y-103496769D01*
X191753905Y-103504435D01*
X191751908Y-103506168D01*
X191750012Y-103509179D01*
X191747761Y-103511923D01*
X191746751Y-103514359D01*
X191741465Y-103522758D01*
X191646227Y-103713236D01*
X191639221Y-103731544D01*
X191638966Y-103735127D01*
X191637591Y-103738448D01*
X191635670Y-103757957D01*
X190816421Y-103757957D01*
X190637534Y-103668514D01*
X190636107Y-103667968D01*
X190635527Y-103667538D01*
X190627350Y-103664616D01*
X190619226Y-103661508D01*
X190618503Y-103661456D01*
X190617066Y-103660943D01*
X190246766Y-103568368D01*
X190080620Y-103485294D01*
X190008331Y-103413005D01*
X189930908Y-103258159D01*
X189930908Y-103114897D01*
X190008331Y-102960051D01*
X190080620Y-102887761D01*
X190235468Y-102810338D01*
X190671824Y-102810338D01*
X190942142Y-102900444D01*
X190961258Y-102904791D01*
X191000178Y-102902025D01*
X191035077Y-102884575D01*
X191060642Y-102855099D01*
X191072980Y-102818083D01*
X191070214Y-102779163D01*
X191052764Y-102744264D01*
X191023288Y-102718699D01*
X191005388Y-102710708D01*
X191004278Y-102710338D01*
X193445194Y-102710338D01*
X193445194Y-104710338D01*
X193447115Y-104729847D01*
X193462047Y-104765895D01*
X193489637Y-104793485D01*
X193525685Y-104808417D01*
X193564703Y-104808417D01*
X193600751Y-104793485D01*
X193628341Y-104765895D01*
X193643273Y-104729847D01*
X193645194Y-104710338D01*
X193645194Y-103608902D01*
X193699668Y-103554427D01*
X193854516Y-103477004D01*
X194093016Y-103477004D01*
X194232563Y-103546777D01*
X194302337Y-103686326D01*
X194302337Y-104710338D01*
X194304258Y-104729847D01*
X194319190Y-104765895D01*
X194346780Y-104793485D01*
X194382828Y-104808417D01*
X194421846Y-104808417D01*
X194457894Y-104793485D01*
X194485484Y-104765895D01*
X194500416Y-104729847D01*
X194502337Y-104710338D01*
X194502337Y-103662719D01*
X194500416Y-103643210D01*
X194499040Y-103639889D01*
X194498786Y-103636307D01*
X194491780Y-103617998D01*
X194396542Y-103427521D01*
X194394488Y-103424257D01*
X194393975Y-103422719D01*
X194392312Y-103420802D01*
X194386099Y-103410931D01*
X194376628Y-103402717D01*
X194368411Y-103393242D01*
X194358535Y-103387025D01*
X194356622Y-103385366D01*
X194355085Y-103384853D01*
X194351821Y-103382799D01*
X194340231Y-103377004D01*
X195254718Y-103377004D01*
X195254718Y-104710338D01*
X195256639Y-104729847D01*
X195271571Y-104765895D01*
X195299161Y-104793485D01*
X195335209Y-104808417D01*
X195374227Y-104808417D01*
X195410275Y-104793485D01*
X195437865Y-104765895D01*
X195452797Y-104729847D01*
X195454718Y-104710338D01*
X195454718Y-103781563D01*
X195466521Y-103757957D01*
X196397575Y-103757957D01*
X196397575Y-104329385D01*
X196399496Y-104348894D01*
X196400871Y-104352214D01*
X196401126Y-104355798D01*
X196408132Y-104374106D01*
X196503370Y-104564583D01*
X196508654Y-104572977D01*
X196509665Y-104575418D01*
X196511919Y-104578164D01*
X196513813Y-104581173D01*
X196515809Y-104582904D01*
X196522102Y-104590571D01*
X196617340Y-104685811D01*
X196625008Y-104692104D01*
X196626739Y-104694100D01*
X196629746Y-104695993D01*
X196632493Y-104698247D01*
X196634933Y-104699257D01*
X196643330Y-104704543D01*
X196833806Y-104799781D01*
X196852114Y-104806787D01*
X196855697Y-104807041D01*
X196859018Y-104808417D01*
X196878527Y-104810338D01*
X197164242Y-104810338D01*
X197183751Y-104808417D01*
X197187071Y-104807041D01*
X197190655Y-104806787D01*
X197208963Y-104799781D01*
X197399440Y-104704543D01*
X197407837Y-104699257D01*
X197410276Y-104698247D01*
X197413020Y-104695994D01*
X197416030Y-104694100D01*
X197417762Y-104692102D01*
X197425429Y-104685810D01*
X197520667Y-104590571D01*
X197526959Y-104582904D01*
X197528956Y-104581173D01*
X197530849Y-104578165D01*
X197533104Y-104575418D01*
X197534115Y-104572976D01*
X197539399Y-104564582D01*
X197634637Y-104374106D01*
X197641643Y-104355798D01*
X197641897Y-104352214D01*
X197643273Y-104348894D01*
X197645194Y-104329385D01*
X197645194Y-103757957D01*
X198207099Y-103757957D01*
X198207099Y-104329385D01*
X198209020Y-104348894D01*
X198210395Y-104352214D01*
X198210650Y-104355798D01*
X198217656Y-104374106D01*
X198312894Y-104564583D01*
X198318178Y-104572977D01*
X198319189Y-104575418D01*
X198321443Y-104578164D01*
X198323337Y-104581173D01*
X198325333Y-104582904D01*
X198331626Y-104590571D01*
X198426864Y-104685811D01*
X198434532Y-104692104D01*
X198436263Y-104694100D01*
X198439270Y-104695993D01*
X198442017Y-104698247D01*
X198444457Y-104699257D01*
X198452854Y-104704543D01*
X198643330Y-104799781D01*
X198661638Y-104806787D01*
X198665221Y-104807041D01*
X198668542Y-104808417D01*
X198688051Y-104810338D01*
X199069004Y-104810338D01*
X199088513Y-104808417D01*
X199091833Y-104807041D01*
X199095417Y-104806787D01*
X199113725Y-104799781D01*
X199178054Y-104767616D01*
X199203923Y-104793485D01*
X199239971Y-104808417D01*
X199278989Y-104808417D01*
X199315037Y-104793485D01*
X199342627Y-104765895D01*
X199357559Y-104729847D01*
X199359480Y-104710338D01*
X199359480Y-103662719D01*
X200016623Y-103662719D01*
X200016623Y-104424623D01*
X200018544Y-104444132D01*
X200019919Y-104447452D01*
X200020174Y-104451036D01*
X200027180Y-104469344D01*
X200122418Y-104659822D01*
X200124472Y-104663086D01*
X200124985Y-104664623D01*
X200126644Y-104666537D01*
X200132861Y-104676412D01*
X200142333Y-104684627D01*
X200150549Y-104694100D01*
X200160422Y-104700314D01*
X200162338Y-104701976D01*
X200163876Y-104702488D01*
X200167140Y-104704543D01*
X200357616Y-104799781D01*
X200375924Y-104806787D01*
X200379507Y-104807041D01*
X200382828Y-104808417D01*
X200402337Y-104810338D01*
X200783290Y-104810338D01*
X200802799Y-104808417D01*
X200806119Y-104807041D01*
X200809703Y-104806787D01*
X200828011Y-104799781D01*
X201018488Y-104704543D01*
X201035078Y-104694100D01*
X201060642Y-104664623D01*
X201072981Y-104627607D01*
X201070216Y-104588687D01*
X201052766Y-104553788D01*
X201023289Y-104528224D01*
X200986274Y-104515885D01*
X200947353Y-104518651D01*
X200929045Y-104525657D01*
X200759683Y-104610338D01*
X200425945Y-104610338D01*
X200286396Y-104540564D01*
X200216623Y-104401016D01*
X200216623Y-104125651D01*
X201088511Y-103951274D01*
X201088513Y-103951274D01*
X201088514Y-103951273D01*
X201088616Y-103951253D01*
X201107369Y-103945543D01*
X201115509Y-103940091D01*
X201124561Y-103936342D01*
X201131560Y-103929342D01*
X201139789Y-103923832D01*
X201145224Y-103915678D01*
X201152151Y-103908752D01*
X201155939Y-103899605D01*
X201161432Y-103891367D01*
X201163333Y-103881755D01*
X201167083Y-103872704D01*
X201169004Y-103853195D01*
X201169004Y-103853095D01*
X201169005Y-103853090D01*
X201169004Y-103853085D01*
X201169004Y-103662719D01*
X201167083Y-103643210D01*
X201165707Y-103639889D01*
X201165453Y-103636307D01*
X201158447Y-103617998D01*
X201063209Y-103427521D01*
X201061155Y-103424257D01*
X201060642Y-103422719D01*
X201058979Y-103420802D01*
X201052766Y-103410931D01*
X201043295Y-103402717D01*
X201035078Y-103393242D01*
X201025202Y-103387025D01*
X201023289Y-103385366D01*
X201021752Y-103384853D01*
X201018488Y-103382799D01*
X201006898Y-103377004D01*
X201826147Y-103377004D01*
X201826147Y-104710338D01*
X201828068Y-104729847D01*
X201843000Y-104765895D01*
X201870590Y-104793485D01*
X201906638Y-104808417D01*
X201945656Y-104808417D01*
X201981704Y-104793485D01*
X202009294Y-104765895D01*
X202024226Y-104729847D01*
X202026147Y-104710338D01*
X202026147Y-103781563D01*
X202103570Y-103626716D01*
X202175859Y-103554427D01*
X202330707Y-103477004D01*
X202497576Y-103477004D01*
X202517085Y-103475083D01*
X202553133Y-103460151D01*
X202580723Y-103432561D01*
X202595655Y-103396513D01*
X202595655Y-103357495D01*
X202580723Y-103321447D01*
X202553133Y-103293857D01*
X202517085Y-103278925D01*
X202497576Y-103277004D01*
X202307099Y-103277004D01*
X202287590Y-103278925D01*
X202284269Y-103280300D01*
X202280686Y-103280555D01*
X202262378Y-103287561D01*
X202071902Y-103382799D01*
X202063503Y-103388085D01*
X202061066Y-103389095D01*
X202058322Y-103391346D01*
X202055311Y-103393242D01*
X202053578Y-103395239D01*
X202045912Y-103401531D01*
X202026147Y-103421296D01*
X202026147Y-103377004D01*
X202024226Y-103357495D01*
X202009294Y-103321447D01*
X201981704Y-103293857D01*
X201945656Y-103278925D01*
X201906638Y-103278925D01*
X201870590Y-103293857D01*
X201843000Y-103321447D01*
X201828068Y-103357495D01*
X201826147Y-103377004D01*
X201006898Y-103377004D01*
X200828011Y-103287561D01*
X200809703Y-103280555D01*
X200806119Y-103280300D01*
X200802799Y-103278925D01*
X200783290Y-103277004D01*
X200402337Y-103277004D01*
X200382828Y-103278925D01*
X200379507Y-103280300D01*
X200375924Y-103280555D01*
X200357616Y-103287561D01*
X200167140Y-103382799D01*
X200163876Y-103384853D01*
X200162338Y-103385366D01*
X200160422Y-103387027D01*
X200150549Y-103393242D01*
X200142333Y-103402714D01*
X200132861Y-103410930D01*
X200126644Y-103420804D01*
X200124985Y-103422719D01*
X200124472Y-103424255D01*
X200122418Y-103427520D01*
X200027180Y-103617998D01*
X200020174Y-103636306D01*
X200019919Y-103639889D01*
X200018544Y-103643210D01*
X200016623Y-103662719D01*
X199359480Y-103662719D01*
X199359480Y-102710338D01*
X199357559Y-102690829D01*
X199342627Y-102654781D01*
X199315037Y-102627191D01*
X199278989Y-102612259D01*
X199239971Y-102612259D01*
X199203923Y-102627191D01*
X199176333Y-102654781D01*
X199161401Y-102690829D01*
X199159480Y-102710338D01*
X199159480Y-103310438D01*
X199113725Y-103287561D01*
X199095417Y-103280555D01*
X199091833Y-103280300D01*
X199088513Y-103278925D01*
X199069004Y-103277004D01*
X198688051Y-103277004D01*
X198668542Y-103278925D01*
X198665221Y-103280300D01*
X198661638Y-103280555D01*
X198643330Y-103287561D01*
X198452854Y-103382799D01*
X198444455Y-103388085D01*
X198442018Y-103389095D01*
X198439274Y-103391346D01*
X198436263Y-103393242D01*
X198434530Y-103395239D01*
X198426864Y-103401531D01*
X198331626Y-103496769D01*
X198325334Y-103504435D01*
X198323337Y-103506168D01*
X198321441Y-103509179D01*
X198319190Y-103511923D01*
X198318180Y-103514359D01*
X198312894Y-103522758D01*
X198217656Y-103713236D01*
X198210650Y-103731544D01*
X198210395Y-103735127D01*
X198209020Y-103738448D01*
X198207099Y-103757957D01*
X197645194Y-103757957D01*
X197643273Y-103738448D01*
X197641897Y-103735127D01*
X197641643Y-103731545D01*
X197634637Y-103713236D01*
X197539399Y-103522759D01*
X197534113Y-103514362D01*
X197533103Y-103511923D01*
X197530849Y-103509176D01*
X197528956Y-103506169D01*
X197526961Y-103504439D01*
X197520667Y-103496769D01*
X197425429Y-103401531D01*
X197417762Y-103395239D01*
X197416030Y-103393242D01*
X197413018Y-103391346D01*
X197410275Y-103389095D01*
X197407838Y-103388085D01*
X197399440Y-103382799D01*
X197208963Y-103287561D01*
X197190655Y-103280555D01*
X197187071Y-103280300D01*
X197183751Y-103278925D01*
X197164242Y-103277004D01*
X196878527Y-103277004D01*
X196859018Y-103278925D01*
X196855697Y-103280300D01*
X196852114Y-103280555D01*
X196833806Y-103287561D01*
X196643330Y-103382799D01*
X196634931Y-103388085D01*
X196632494Y-103389095D01*
X196629750Y-103391346D01*
X196626739Y-103393242D01*
X196625006Y-103395239D01*
X196617340Y-103401531D01*
X196522102Y-103496769D01*
X196515810Y-103504435D01*
X196513813Y-103506168D01*
X196511917Y-103509179D01*
X196509666Y-103511923D01*
X196508656Y-103514359D01*
X196503370Y-103522758D01*
X196408132Y-103713236D01*
X196401126Y-103731544D01*
X196400871Y-103735127D01*
X196399496Y-103738448D01*
X196397575Y-103757957D01*
X195466521Y-103757957D01*
X195532141Y-103626716D01*
X195604430Y-103554427D01*
X195759278Y-103477004D01*
X195926147Y-103477004D01*
X195945656Y-103475083D01*
X195981704Y-103460151D01*
X196009294Y-103432561D01*
X196024226Y-103396513D01*
X196024226Y-103357495D01*
X196009294Y-103321447D01*
X195981704Y-103293857D01*
X195945656Y-103278925D01*
X195926147Y-103277004D01*
X195735670Y-103277004D01*
X195716161Y-103278925D01*
X195712840Y-103280300D01*
X195709257Y-103280555D01*
X195690949Y-103287561D01*
X195500473Y-103382799D01*
X195492074Y-103388085D01*
X195489637Y-103389095D01*
X195486893Y-103391346D01*
X195483882Y-103393242D01*
X195482149Y-103395239D01*
X195474483Y-103401531D01*
X195454718Y-103421296D01*
X195454718Y-103377004D01*
X195452797Y-103357495D01*
X195437865Y-103321447D01*
X195410275Y-103293857D01*
X195374227Y-103278925D01*
X195335209Y-103278925D01*
X195299161Y-103293857D01*
X195271571Y-103321447D01*
X195256639Y-103357495D01*
X195254718Y-103377004D01*
X194340231Y-103377004D01*
X194161344Y-103287561D01*
X194143036Y-103280555D01*
X194139452Y-103280300D01*
X194136132Y-103278925D01*
X194116623Y-103277004D01*
X193830908Y-103277004D01*
X193811399Y-103278925D01*
X193808078Y-103280300D01*
X193804495Y-103280555D01*
X193786187Y-103287561D01*
X193645194Y-103358057D01*
X193645194Y-102786067D01*
X196494734Y-102786067D01*
X196494734Y-102825085D01*
X196509666Y-102861133D01*
X196522102Y-102876287D01*
X196617340Y-102971525D01*
X196632494Y-102983961D01*
X196668542Y-102998893D01*
X196707560Y-102998893D01*
X196743608Y-102983961D01*
X196758762Y-102971525D01*
X196854000Y-102876287D01*
X196866436Y-102861133D01*
X196881368Y-102825085D01*
X196881368Y-102786067D01*
X197256639Y-102786067D01*
X197256639Y-102825085D01*
X197271571Y-102861133D01*
X197284007Y-102876287D01*
X197379245Y-102971525D01*
X197394399Y-102983961D01*
X197430447Y-102998893D01*
X197469465Y-102998893D01*
X197505513Y-102983961D01*
X197520667Y-102971525D01*
X197615905Y-102876287D01*
X197628341Y-102861133D01*
X197643273Y-102825085D01*
X197643273Y-102786067D01*
X197628341Y-102750019D01*
X197615905Y-102734865D01*
X197520667Y-102639627D01*
X197505513Y-102627191D01*
X197469465Y-102612259D01*
X197430447Y-102612259D01*
X197394399Y-102627191D01*
X197379245Y-102639627D01*
X197284007Y-102734865D01*
X197271571Y-102750019D01*
X197256639Y-102786067D01*
X196881368Y-102786067D01*
X196866436Y-102750019D01*
X196854000Y-102734865D01*
X196758762Y-102639627D01*
X196743608Y-102627191D01*
X196707560Y-102612259D01*
X196668542Y-102612259D01*
X196632494Y-102627191D01*
X196617340Y-102639627D01*
X196522102Y-102734865D01*
X196509666Y-102750019D01*
X196494734Y-102786067D01*
X193645194Y-102786067D01*
X193645194Y-102710338D01*
X193643273Y-102690829D01*
X193628341Y-102654781D01*
X193600751Y-102627191D01*
X193564703Y-102612259D01*
X193525685Y-102612259D01*
X193489637Y-102627191D01*
X193462047Y-102654781D01*
X193447115Y-102690829D01*
X193445194Y-102710338D01*
X191004278Y-102710338D01*
X190719674Y-102615470D01*
X190710002Y-102613270D01*
X190707560Y-102612259D01*
X190704021Y-102611910D01*
X190700558Y-102611123D01*
X190697924Y-102611310D01*
X190688051Y-102610338D01*
X190211860Y-102610338D01*
X190192351Y-102612259D01*
X190189030Y-102613634D01*
X190185447Y-102613889D01*
X190167139Y-102620895D01*
X189976663Y-102716133D01*
X189968264Y-102721419D01*
X189965827Y-102722429D01*
X189963083Y-102724680D01*
X189960072Y-102726576D01*
X189958339Y-102728573D01*
X189950673Y-102734865D01*
X189855435Y-102830103D01*
X189849143Y-102837769D01*
X189847146Y-102839502D01*
X189845250Y-102842513D01*
X189842999Y-102845257D01*
X189841989Y-102847693D01*
X189836703Y-102856092D01*
X189741465Y-103046569D01*
X189734459Y-103064877D01*
X189734204Y-103068460D01*
X189732829Y-103071781D01*
X189730908Y-103091290D01*
X187872824Y-103091290D01*
X187735299Y-102678715D01*
X187727308Y-102660815D01*
X187722624Y-102655415D01*
X187719430Y-102649026D01*
X187709955Y-102640808D01*
X187701742Y-102631339D01*
X187695354Y-102628145D01*
X187689954Y-102623461D01*
X187678055Y-102619495D01*
X187666844Y-102613889D01*
X187659716Y-102613382D01*
X187652938Y-102611123D01*
X187640431Y-102612011D01*
X187627924Y-102611123D01*
X187621145Y-102613382D01*
X187614018Y-102613889D01*
X187602806Y-102619495D01*
X187590908Y-102623461D01*
X187585507Y-102628144D01*
X187579120Y-102631339D01*
X187570904Y-102640811D01*
X187561432Y-102649027D01*
X187558237Y-102655414D01*
X187553554Y-102660815D01*
X187545563Y-102678715D01*
X186878897Y-104678715D01*
X186874550Y-104697831D01*
X186652328Y-104697831D01*
X186652328Y-102388116D01*
X202817877Y-102388116D01*
X202817877Y-105032560D01*
G37*
D12*
X138009333Y-77473980D02*
X137961714Y-77521600D01*
X137961714Y-77521600D02*
X137818857Y-77569219D01*
X137818857Y-77569219D02*
X137723619Y-77569219D01*
X137723619Y-77569219D02*
X137580762Y-77521600D01*
X137580762Y-77521600D02*
X137485524Y-77426361D01*
X137485524Y-77426361D02*
X137437905Y-77331123D01*
X137437905Y-77331123D02*
X137390286Y-77140647D01*
X137390286Y-77140647D02*
X137390286Y-76997790D01*
X137390286Y-76997790D02*
X137437905Y-76807314D01*
X137437905Y-76807314D02*
X137485524Y-76712076D01*
X137485524Y-76712076D02*
X137580762Y-76616838D01*
X137580762Y-76616838D02*
X137723619Y-76569219D01*
X137723619Y-76569219D02*
X137818857Y-76569219D01*
X137818857Y-76569219D02*
X137961714Y-76616838D01*
X137961714Y-76616838D02*
X138009333Y-76664457D01*
X138390286Y-76664457D02*
X138437905Y-76616838D01*
X138437905Y-76616838D02*
X138533143Y-76569219D01*
X138533143Y-76569219D02*
X138771238Y-76569219D01*
X138771238Y-76569219D02*
X138866476Y-76616838D01*
X138866476Y-76616838D02*
X138914095Y-76664457D01*
X138914095Y-76664457D02*
X138961714Y-76759695D01*
X138961714Y-76759695D02*
X138961714Y-76854933D01*
X138961714Y-76854933D02*
X138914095Y-76997790D01*
X138914095Y-76997790D02*
X138342667Y-77569219D01*
X138342667Y-77569219D02*
X138961714Y-77569219D01*
X139441323Y-80455419D02*
X139250847Y-80455419D01*
X139250847Y-80455419D02*
X139155609Y-80503038D01*
X139155609Y-80503038D02*
X139107990Y-80550657D01*
X139107990Y-80550657D02*
X139012752Y-80693514D01*
X139012752Y-80693514D02*
X138965133Y-80883990D01*
X138965133Y-80883990D02*
X138965133Y-81264942D01*
X138965133Y-81264942D02*
X139012752Y-81360180D01*
X139012752Y-81360180D02*
X139060371Y-81407800D01*
X139060371Y-81407800D02*
X139155609Y-81455419D01*
X139155609Y-81455419D02*
X139346085Y-81455419D01*
X139346085Y-81455419D02*
X139441323Y-81407800D01*
X139441323Y-81407800D02*
X139488942Y-81360180D01*
X139488942Y-81360180D02*
X139536561Y-81264942D01*
X139536561Y-81264942D02*
X139536561Y-81026847D01*
X139536561Y-81026847D02*
X139488942Y-80931609D01*
X139488942Y-80931609D02*
X139441323Y-80883990D01*
X139441323Y-80883990D02*
X139346085Y-80836371D01*
X139346085Y-80836371D02*
X139155609Y-80836371D01*
X139155609Y-80836371D02*
X139060371Y-80883990D01*
X139060371Y-80883990D02*
X139012752Y-80931609D01*
X139012752Y-80931609D02*
X138965133Y-81026847D01*
X139965133Y-80788752D02*
X139965133Y-81788752D01*
X139965133Y-80836371D02*
X140060371Y-80788752D01*
X140060371Y-80788752D02*
X140250847Y-80788752D01*
X140250847Y-80788752D02*
X140346085Y-80836371D01*
X140346085Y-80836371D02*
X140393704Y-80883990D01*
X140393704Y-80883990D02*
X140441323Y-80979228D01*
X140441323Y-80979228D02*
X140441323Y-81264942D01*
X140441323Y-81264942D02*
X140393704Y-81360180D01*
X140393704Y-81360180D02*
X140346085Y-81407800D01*
X140346085Y-81407800D02*
X140250847Y-81455419D01*
X140250847Y-81455419D02*
X140060371Y-81455419D01*
X140060371Y-81455419D02*
X139965133Y-81407800D01*
X141203228Y-80931609D02*
X140869895Y-80931609D01*
X140869895Y-81455419D02*
X140869895Y-80455419D01*
X140869895Y-80455419D02*
X141346085Y-80455419D01*
X138085533Y-73994180D02*
X138037914Y-74041800D01*
X138037914Y-74041800D02*
X137895057Y-74089419D01*
X137895057Y-74089419D02*
X137799819Y-74089419D01*
X137799819Y-74089419D02*
X137656962Y-74041800D01*
X137656962Y-74041800D02*
X137561724Y-73946561D01*
X137561724Y-73946561D02*
X137514105Y-73851323D01*
X137514105Y-73851323D02*
X137466486Y-73660847D01*
X137466486Y-73660847D02*
X137466486Y-73517990D01*
X137466486Y-73517990D02*
X137514105Y-73327514D01*
X137514105Y-73327514D02*
X137561724Y-73232276D01*
X137561724Y-73232276D02*
X137656962Y-73137038D01*
X137656962Y-73137038D02*
X137799819Y-73089419D01*
X137799819Y-73089419D02*
X137895057Y-73089419D01*
X137895057Y-73089419D02*
X138037914Y-73137038D01*
X138037914Y-73137038D02*
X138085533Y-73184657D01*
X139037914Y-74089419D02*
X138466486Y-74089419D01*
X138752200Y-74089419D02*
X138752200Y-73089419D01*
X138752200Y-73089419D02*
X138656962Y-73232276D01*
X138656962Y-73232276D02*
X138561724Y-73327514D01*
X138561724Y-73327514D02*
X138466486Y-73375133D01*
X140094619Y-70921476D02*
X140094619Y-71111952D01*
X140094619Y-71111952D02*
X140142238Y-71207190D01*
X140142238Y-71207190D02*
X140189857Y-71254809D01*
X140189857Y-71254809D02*
X140332714Y-71350047D01*
X140332714Y-71350047D02*
X140523190Y-71397666D01*
X140523190Y-71397666D02*
X140904142Y-71397666D01*
X140904142Y-71397666D02*
X140999380Y-71350047D01*
X140999380Y-71350047D02*
X141047000Y-71302428D01*
X141047000Y-71302428D02*
X141094619Y-71207190D01*
X141094619Y-71207190D02*
X141094619Y-71016714D01*
X141094619Y-71016714D02*
X141047000Y-70921476D01*
X141047000Y-70921476D02*
X140999380Y-70873857D01*
X140999380Y-70873857D02*
X140904142Y-70826238D01*
X140904142Y-70826238D02*
X140666047Y-70826238D01*
X140666047Y-70826238D02*
X140570809Y-70873857D01*
X140570809Y-70873857D02*
X140523190Y-70921476D01*
X140523190Y-70921476D02*
X140475571Y-71016714D01*
X140475571Y-71016714D02*
X140475571Y-71207190D01*
X140475571Y-71207190D02*
X140523190Y-71302428D01*
X140523190Y-71302428D02*
X140570809Y-71350047D01*
X140570809Y-71350047D02*
X140666047Y-71397666D01*
X140427952Y-70397666D02*
X141427952Y-70397666D01*
X140475571Y-70397666D02*
X140427952Y-70302428D01*
X140427952Y-70302428D02*
X140427952Y-70111952D01*
X140427952Y-70111952D02*
X140475571Y-70016714D01*
X140475571Y-70016714D02*
X140523190Y-69969095D01*
X140523190Y-69969095D02*
X140618428Y-69921476D01*
X140618428Y-69921476D02*
X140904142Y-69921476D01*
X140904142Y-69921476D02*
X140999380Y-69969095D01*
X140999380Y-69969095D02*
X141047000Y-70016714D01*
X141047000Y-70016714D02*
X141094619Y-70111952D01*
X141094619Y-70111952D02*
X141094619Y-70302428D01*
X141094619Y-70302428D02*
X141047000Y-70397666D01*
X140570809Y-69159571D02*
X140570809Y-69492904D01*
X141094619Y-69492904D02*
X140094619Y-69492904D01*
X140094619Y-69492904D02*
X140094619Y-69016714D01*
X159548533Y-68958619D02*
X159215200Y-68482428D01*
X158977105Y-68958619D02*
X158977105Y-67958619D01*
X158977105Y-67958619D02*
X159358057Y-67958619D01*
X159358057Y-67958619D02*
X159453295Y-68006238D01*
X159453295Y-68006238D02*
X159500914Y-68053857D01*
X159500914Y-68053857D02*
X159548533Y-68149095D01*
X159548533Y-68149095D02*
X159548533Y-68291952D01*
X159548533Y-68291952D02*
X159500914Y-68387190D01*
X159500914Y-68387190D02*
X159453295Y-68434809D01*
X159453295Y-68434809D02*
X159358057Y-68482428D01*
X159358057Y-68482428D02*
X158977105Y-68482428D01*
X159929486Y-68053857D02*
X159977105Y-68006238D01*
X159977105Y-68006238D02*
X160072343Y-67958619D01*
X160072343Y-67958619D02*
X160310438Y-67958619D01*
X160310438Y-67958619D02*
X160405676Y-68006238D01*
X160405676Y-68006238D02*
X160453295Y-68053857D01*
X160453295Y-68053857D02*
X160500914Y-68149095D01*
X160500914Y-68149095D02*
X160500914Y-68244333D01*
X160500914Y-68244333D02*
X160453295Y-68387190D01*
X160453295Y-68387190D02*
X159881867Y-68958619D01*
X159881867Y-68958619D02*
X160500914Y-68958619D01*
X159145361Y-74546619D02*
X158573933Y-74546619D01*
X158859647Y-74546619D02*
X158859647Y-73546619D01*
X158859647Y-73546619D02*
X158764409Y-73689476D01*
X158764409Y-73689476D02*
X158669171Y-73784714D01*
X158669171Y-73784714D02*
X158573933Y-73832333D01*
X159764409Y-73546619D02*
X159859647Y-73546619D01*
X159859647Y-73546619D02*
X159954885Y-73594238D01*
X159954885Y-73594238D02*
X160002504Y-73641857D01*
X160002504Y-73641857D02*
X160050123Y-73737095D01*
X160050123Y-73737095D02*
X160097742Y-73927571D01*
X160097742Y-73927571D02*
X160097742Y-74165666D01*
X160097742Y-74165666D02*
X160050123Y-74356142D01*
X160050123Y-74356142D02*
X160002504Y-74451380D01*
X160002504Y-74451380D02*
X159954885Y-74499000D01*
X159954885Y-74499000D02*
X159859647Y-74546619D01*
X159859647Y-74546619D02*
X159764409Y-74546619D01*
X159764409Y-74546619D02*
X159669171Y-74499000D01*
X159669171Y-74499000D02*
X159621552Y-74451380D01*
X159621552Y-74451380D02*
X159573933Y-74356142D01*
X159573933Y-74356142D02*
X159526314Y-74165666D01*
X159526314Y-74165666D02*
X159526314Y-73927571D01*
X159526314Y-73927571D02*
X159573933Y-73737095D01*
X159573933Y-73737095D02*
X159621552Y-73641857D01*
X159621552Y-73641857D02*
X159669171Y-73594238D01*
X159669171Y-73594238D02*
X159764409Y-73546619D01*
X160526314Y-74546619D02*
X160526314Y-73546619D01*
X160621552Y-74165666D02*
X160907266Y-74546619D01*
X160907266Y-73879952D02*
X160526314Y-74260904D01*
X159331066Y-63183419D02*
X159331066Y-63897704D01*
X159331066Y-63897704D02*
X159283447Y-64040561D01*
X159283447Y-64040561D02*
X159188209Y-64135800D01*
X159188209Y-64135800D02*
X159045352Y-64183419D01*
X159045352Y-64183419D02*
X158950114Y-64183419D01*
X159712019Y-63183419D02*
X160331066Y-63183419D01*
X160331066Y-63183419D02*
X159997733Y-63564371D01*
X159997733Y-63564371D02*
X160140590Y-63564371D01*
X160140590Y-63564371D02*
X160235828Y-63611990D01*
X160235828Y-63611990D02*
X160283447Y-63659609D01*
X160283447Y-63659609D02*
X160331066Y-63754847D01*
X160331066Y-63754847D02*
X160331066Y-63992942D01*
X160331066Y-63992942D02*
X160283447Y-64088180D01*
X160283447Y-64088180D02*
X160235828Y-64135800D01*
X160235828Y-64135800D02*
X160140590Y-64183419D01*
X160140590Y-64183419D02*
X159854876Y-64183419D01*
X159854876Y-64183419D02*
X159759638Y-64135800D01*
X159759638Y-64135800D02*
X159712019Y-64088180D01*
X155252895Y-66774219D02*
X154776705Y-66774219D01*
X154776705Y-66774219D02*
X154776705Y-65774219D01*
X155729086Y-66774219D02*
X155633848Y-66726600D01*
X155633848Y-66726600D02*
X155586229Y-66678980D01*
X155586229Y-66678980D02*
X155538610Y-66583742D01*
X155538610Y-66583742D02*
X155538610Y-66298028D01*
X155538610Y-66298028D02*
X155586229Y-66202790D01*
X155586229Y-66202790D02*
X155633848Y-66155171D01*
X155633848Y-66155171D02*
X155729086Y-66107552D01*
X155729086Y-66107552D02*
X155871943Y-66107552D01*
X155871943Y-66107552D02*
X155967181Y-66155171D01*
X155967181Y-66155171D02*
X156014800Y-66202790D01*
X156014800Y-66202790D02*
X156062419Y-66298028D01*
X156062419Y-66298028D02*
X156062419Y-66583742D01*
X156062419Y-66583742D02*
X156014800Y-66678980D01*
X156014800Y-66678980D02*
X155967181Y-66726600D01*
X155967181Y-66726600D02*
X155871943Y-66774219D01*
X155871943Y-66774219D02*
X155729086Y-66774219D01*
X156919562Y-66107552D02*
X156919562Y-66917076D01*
X156919562Y-66917076D02*
X156871943Y-67012314D01*
X156871943Y-67012314D02*
X156824324Y-67059933D01*
X156824324Y-67059933D02*
X156729086Y-67107552D01*
X156729086Y-67107552D02*
X156586229Y-67107552D01*
X156586229Y-67107552D02*
X156490991Y-67059933D01*
X156919562Y-66726600D02*
X156824324Y-66774219D01*
X156824324Y-66774219D02*
X156633848Y-66774219D01*
X156633848Y-66774219D02*
X156538610Y-66726600D01*
X156538610Y-66726600D02*
X156490991Y-66678980D01*
X156490991Y-66678980D02*
X156443372Y-66583742D01*
X156443372Y-66583742D02*
X156443372Y-66298028D01*
X156443372Y-66298028D02*
X156490991Y-66202790D01*
X156490991Y-66202790D02*
X156538610Y-66155171D01*
X156538610Y-66155171D02*
X156633848Y-66107552D01*
X156633848Y-66107552D02*
X156824324Y-66107552D01*
X156824324Y-66107552D02*
X156919562Y-66155171D01*
X157395753Y-66774219D02*
X157395753Y-66107552D01*
X157395753Y-65774219D02*
X157348134Y-65821838D01*
X157348134Y-65821838D02*
X157395753Y-65869457D01*
X157395753Y-65869457D02*
X157443372Y-65821838D01*
X157443372Y-65821838D02*
X157395753Y-65774219D01*
X157395753Y-65774219D02*
X157395753Y-65869457D01*
X158300514Y-66726600D02*
X158205276Y-66774219D01*
X158205276Y-66774219D02*
X158014800Y-66774219D01*
X158014800Y-66774219D02*
X157919562Y-66726600D01*
X157919562Y-66726600D02*
X157871943Y-66678980D01*
X157871943Y-66678980D02*
X157824324Y-66583742D01*
X157824324Y-66583742D02*
X157824324Y-66298028D01*
X157824324Y-66298028D02*
X157871943Y-66202790D01*
X157871943Y-66202790D02*
X157919562Y-66155171D01*
X157919562Y-66155171D02*
X158014800Y-66107552D01*
X158014800Y-66107552D02*
X158205276Y-66107552D01*
X158205276Y-66107552D02*
X158300514Y-66155171D01*
X131100533Y-69034819D02*
X130767200Y-68558628D01*
X130529105Y-69034819D02*
X130529105Y-68034819D01*
X130529105Y-68034819D02*
X130910057Y-68034819D01*
X130910057Y-68034819D02*
X131005295Y-68082438D01*
X131005295Y-68082438D02*
X131052914Y-68130057D01*
X131052914Y-68130057D02*
X131100533Y-68225295D01*
X131100533Y-68225295D02*
X131100533Y-68368152D01*
X131100533Y-68368152D02*
X131052914Y-68463390D01*
X131052914Y-68463390D02*
X131005295Y-68511009D01*
X131005295Y-68511009D02*
X130910057Y-68558628D01*
X130910057Y-68558628D02*
X130529105Y-68558628D01*
X131957676Y-68368152D02*
X131957676Y-69034819D01*
X131719581Y-67987200D02*
X131481486Y-68701485D01*
X131481486Y-68701485D02*
X132100533Y-68701485D01*
X131071952Y-65656619D02*
X130500524Y-65656619D01*
X130786238Y-65656619D02*
X130786238Y-64656619D01*
X130786238Y-64656619D02*
X130691000Y-64799476D01*
X130691000Y-64799476D02*
X130595762Y-64894714D01*
X130595762Y-64894714D02*
X130500524Y-64942333D01*
X131500524Y-65656619D02*
X131500524Y-64656619D01*
X131595762Y-65275666D02*
X131881476Y-65656619D01*
X131881476Y-64989952D02*
X131500524Y-65370904D01*
X204292295Y-91047219D02*
X204292295Y-91856742D01*
X204292295Y-91856742D02*
X204339914Y-91951980D01*
X204339914Y-91951980D02*
X204387533Y-91999600D01*
X204387533Y-91999600D02*
X204482771Y-92047219D01*
X204482771Y-92047219D02*
X204673247Y-92047219D01*
X204673247Y-92047219D02*
X204768485Y-91999600D01*
X204768485Y-91999600D02*
X204816104Y-91951980D01*
X204816104Y-91951980D02*
X204863723Y-91856742D01*
X204863723Y-91856742D02*
X204863723Y-91047219D01*
X205816104Y-91047219D02*
X205339914Y-91047219D01*
X205339914Y-91047219D02*
X205292295Y-91523409D01*
X205292295Y-91523409D02*
X205339914Y-91475790D01*
X205339914Y-91475790D02*
X205435152Y-91428171D01*
X205435152Y-91428171D02*
X205673247Y-91428171D01*
X205673247Y-91428171D02*
X205768485Y-91475790D01*
X205768485Y-91475790D02*
X205816104Y-91523409D01*
X205816104Y-91523409D02*
X205863723Y-91618647D01*
X205863723Y-91618647D02*
X205863723Y-91856742D01*
X205863723Y-91856742D02*
X205816104Y-91951980D01*
X205816104Y-91951980D02*
X205768485Y-91999600D01*
X205768485Y-91999600D02*
X205673247Y-92047219D01*
X205673247Y-92047219D02*
X205435152Y-92047219D01*
X205435152Y-92047219D02*
X205339914Y-91999600D01*
X205339914Y-91999600D02*
X205292295Y-91951980D01*
X207477124Y-98949704D02*
X207953314Y-98949704D01*
X207381886Y-99235419D02*
X207715219Y-98235419D01*
X207715219Y-98235419D02*
X208048552Y-99235419D01*
X208381886Y-99235419D02*
X208381886Y-98235419D01*
X208381886Y-98235419D02*
X208715219Y-98949704D01*
X208715219Y-98949704D02*
X209048552Y-98235419D01*
X209048552Y-98235419D02*
X209048552Y-99235419D01*
X209477124Y-99187800D02*
X209619981Y-99235419D01*
X209619981Y-99235419D02*
X209858076Y-99235419D01*
X209858076Y-99235419D02*
X209953314Y-99187800D01*
X209953314Y-99187800D02*
X210000933Y-99140180D01*
X210000933Y-99140180D02*
X210048552Y-99044942D01*
X210048552Y-99044942D02*
X210048552Y-98949704D01*
X210048552Y-98949704D02*
X210000933Y-98854466D01*
X210000933Y-98854466D02*
X209953314Y-98806847D01*
X209953314Y-98806847D02*
X209858076Y-98759228D01*
X209858076Y-98759228D02*
X209667600Y-98711609D01*
X209667600Y-98711609D02*
X209572362Y-98663990D01*
X209572362Y-98663990D02*
X209524743Y-98616371D01*
X209524743Y-98616371D02*
X209477124Y-98521133D01*
X209477124Y-98521133D02*
X209477124Y-98425895D01*
X209477124Y-98425895D02*
X209524743Y-98330657D01*
X209524743Y-98330657D02*
X209572362Y-98283038D01*
X209572362Y-98283038D02*
X209667600Y-98235419D01*
X209667600Y-98235419D02*
X209905695Y-98235419D01*
X209905695Y-98235419D02*
X210048552Y-98283038D01*
X211000933Y-99235419D02*
X210429505Y-99235419D01*
X210715219Y-99235419D02*
X210715219Y-98235419D01*
X210715219Y-98235419D02*
X210619981Y-98378276D01*
X210619981Y-98378276D02*
X210524743Y-98473514D01*
X210524743Y-98473514D02*
X210429505Y-98521133D01*
X211953314Y-99235419D02*
X211381886Y-99235419D01*
X211667600Y-99235419D02*
X211667600Y-98235419D01*
X211667600Y-98235419D02*
X211572362Y-98378276D01*
X211572362Y-98378276D02*
X211477124Y-98473514D01*
X211477124Y-98473514D02*
X211381886Y-98521133D01*
X212905695Y-99235419D02*
X212334267Y-99235419D01*
X212619981Y-99235419D02*
X212619981Y-98235419D01*
X212619981Y-98235419D02*
X212524743Y-98378276D01*
X212524743Y-98378276D02*
X212429505Y-98473514D01*
X212429505Y-98473514D02*
X212334267Y-98521133D01*
X213239029Y-98235419D02*
X213905695Y-98235419D01*
X213905695Y-98235419D02*
X213477124Y-99235419D01*
X145674095Y-69108419D02*
X145674095Y-69917942D01*
X145674095Y-69917942D02*
X145721714Y-70013180D01*
X145721714Y-70013180D02*
X145769333Y-70060800D01*
X145769333Y-70060800D02*
X145864571Y-70108419D01*
X145864571Y-70108419D02*
X146055047Y-70108419D01*
X146055047Y-70108419D02*
X146150285Y-70060800D01*
X146150285Y-70060800D02*
X146197904Y-70013180D01*
X146197904Y-70013180D02*
X146245523Y-69917942D01*
X146245523Y-69917942D02*
X146245523Y-69108419D01*
X146674095Y-69203657D02*
X146721714Y-69156038D01*
X146721714Y-69156038D02*
X146816952Y-69108419D01*
X146816952Y-69108419D02*
X147055047Y-69108419D01*
X147055047Y-69108419D02*
X147150285Y-69156038D01*
X147150285Y-69156038D02*
X147197904Y-69203657D01*
X147197904Y-69203657D02*
X147245523Y-69298895D01*
X147245523Y-69298895D02*
X147245523Y-69394133D01*
X147245523Y-69394133D02*
X147197904Y-69536990D01*
X147197904Y-69536990D02*
X146626476Y-70108419D01*
X146626476Y-70108419D02*
X147245523Y-70108419D01*
X146911219Y-79833313D02*
X145911219Y-79833313D01*
X145911219Y-79833313D02*
X145911219Y-79595218D01*
X145911219Y-79595218D02*
X145958838Y-79452361D01*
X145958838Y-79452361D02*
X146054076Y-79357123D01*
X146054076Y-79357123D02*
X146149314Y-79309504D01*
X146149314Y-79309504D02*
X146339790Y-79261885D01*
X146339790Y-79261885D02*
X146482647Y-79261885D01*
X146482647Y-79261885D02*
X146673123Y-79309504D01*
X146673123Y-79309504D02*
X146768361Y-79357123D01*
X146768361Y-79357123D02*
X146863600Y-79452361D01*
X146863600Y-79452361D02*
X146911219Y-79595218D01*
X146911219Y-79595218D02*
X146911219Y-79833313D01*
X146863600Y-78880932D02*
X146911219Y-78738075D01*
X146911219Y-78738075D02*
X146911219Y-78499980D01*
X146911219Y-78499980D02*
X146863600Y-78404742D01*
X146863600Y-78404742D02*
X146815980Y-78357123D01*
X146815980Y-78357123D02*
X146720742Y-78309504D01*
X146720742Y-78309504D02*
X146625504Y-78309504D01*
X146625504Y-78309504D02*
X146530266Y-78357123D01*
X146530266Y-78357123D02*
X146482647Y-78404742D01*
X146482647Y-78404742D02*
X146435028Y-78499980D01*
X146435028Y-78499980D02*
X146387409Y-78690456D01*
X146387409Y-78690456D02*
X146339790Y-78785694D01*
X146339790Y-78785694D02*
X146292171Y-78833313D01*
X146292171Y-78833313D02*
X146196933Y-78880932D01*
X146196933Y-78880932D02*
X146101695Y-78880932D01*
X146101695Y-78880932D02*
X146006457Y-78833313D01*
X146006457Y-78833313D02*
X145958838Y-78785694D01*
X145958838Y-78785694D02*
X145911219Y-78690456D01*
X145911219Y-78690456D02*
X145911219Y-78452361D01*
X145911219Y-78452361D02*
X145958838Y-78309504D01*
X146911219Y-77357123D02*
X146911219Y-77928551D01*
X146911219Y-77642837D02*
X145911219Y-77642837D01*
X145911219Y-77642837D02*
X146054076Y-77738075D01*
X146054076Y-77738075D02*
X146149314Y-77833313D01*
X146149314Y-77833313D02*
X146196933Y-77928551D01*
X145911219Y-77023789D02*
X145911219Y-76404742D01*
X145911219Y-76404742D02*
X146292171Y-76738075D01*
X146292171Y-76738075D02*
X146292171Y-76595218D01*
X146292171Y-76595218D02*
X146339790Y-76499980D01*
X146339790Y-76499980D02*
X146387409Y-76452361D01*
X146387409Y-76452361D02*
X146482647Y-76404742D01*
X146482647Y-76404742D02*
X146720742Y-76404742D01*
X146720742Y-76404742D02*
X146815980Y-76452361D01*
X146815980Y-76452361D02*
X146863600Y-76499980D01*
X146863600Y-76499980D02*
X146911219Y-76595218D01*
X146911219Y-76595218D02*
X146911219Y-76880932D01*
X146911219Y-76880932D02*
X146863600Y-76976170D01*
X146863600Y-76976170D02*
X146815980Y-77023789D01*
X145911219Y-75785694D02*
X145911219Y-75690456D01*
X145911219Y-75690456D02*
X145958838Y-75595218D01*
X145958838Y-75595218D02*
X146006457Y-75547599D01*
X146006457Y-75547599D02*
X146101695Y-75499980D01*
X146101695Y-75499980D02*
X146292171Y-75452361D01*
X146292171Y-75452361D02*
X146530266Y-75452361D01*
X146530266Y-75452361D02*
X146720742Y-75499980D01*
X146720742Y-75499980D02*
X146815980Y-75547599D01*
X146815980Y-75547599D02*
X146863600Y-75595218D01*
X146863600Y-75595218D02*
X146911219Y-75690456D01*
X146911219Y-75690456D02*
X146911219Y-75785694D01*
X146911219Y-75785694D02*
X146863600Y-75880932D01*
X146863600Y-75880932D02*
X146815980Y-75928551D01*
X146815980Y-75928551D02*
X146720742Y-75976170D01*
X146720742Y-75976170D02*
X146530266Y-76023789D01*
X146530266Y-76023789D02*
X146292171Y-76023789D01*
X146292171Y-76023789D02*
X146101695Y-75976170D01*
X146101695Y-75976170D02*
X146006457Y-75928551D01*
X146006457Y-75928551D02*
X145958838Y-75880932D01*
X145958838Y-75880932D02*
X145911219Y-75785694D01*
X146006457Y-75071408D02*
X145958838Y-75023789D01*
X145958838Y-75023789D02*
X145911219Y-74928551D01*
X145911219Y-74928551D02*
X145911219Y-74690456D01*
X145911219Y-74690456D02*
X145958838Y-74595218D01*
X145958838Y-74595218D02*
X146006457Y-74547599D01*
X146006457Y-74547599D02*
X146101695Y-74499980D01*
X146101695Y-74499980D02*
X146196933Y-74499980D01*
X146196933Y-74499980D02*
X146339790Y-74547599D01*
X146339790Y-74547599D02*
X146911219Y-75119027D01*
X146911219Y-75119027D02*
X146911219Y-74499980D01*
X146911219Y-74071408D02*
X145911219Y-74071408D01*
X145911219Y-74071408D02*
X146911219Y-73499980D01*
X146911219Y-73499980D02*
X145911219Y-73499980D01*
X146530266Y-73023789D02*
X146530266Y-72261885D01*
X146911219Y-72642837D02*
X146149314Y-72642837D01*
X77023933Y-80185419D02*
X76690600Y-79709228D01*
X76452505Y-80185419D02*
X76452505Y-79185419D01*
X76452505Y-79185419D02*
X76833457Y-79185419D01*
X76833457Y-79185419D02*
X76928695Y-79233038D01*
X76928695Y-79233038D02*
X76976314Y-79280657D01*
X76976314Y-79280657D02*
X77023933Y-79375895D01*
X77023933Y-79375895D02*
X77023933Y-79518752D01*
X77023933Y-79518752D02*
X76976314Y-79613990D01*
X76976314Y-79613990D02*
X76928695Y-79661609D01*
X76928695Y-79661609D02*
X76833457Y-79709228D01*
X76833457Y-79709228D02*
X76452505Y-79709228D01*
X77357267Y-79185419D02*
X78023933Y-79185419D01*
X78023933Y-79185419D02*
X77595362Y-80185419D01*
X76003304Y-85595619D02*
X75431876Y-85595619D01*
X75717590Y-85595619D02*
X75717590Y-84595619D01*
X75717590Y-84595619D02*
X75622352Y-84738476D01*
X75622352Y-84738476D02*
X75527114Y-84833714D01*
X75527114Y-84833714D02*
X75431876Y-84881333D01*
X76622352Y-84595619D02*
X76717590Y-84595619D01*
X76717590Y-84595619D02*
X76812828Y-84643238D01*
X76812828Y-84643238D02*
X76860447Y-84690857D01*
X76860447Y-84690857D02*
X76908066Y-84786095D01*
X76908066Y-84786095D02*
X76955685Y-84976571D01*
X76955685Y-84976571D02*
X76955685Y-85214666D01*
X76955685Y-85214666D02*
X76908066Y-85405142D01*
X76908066Y-85405142D02*
X76860447Y-85500380D01*
X76860447Y-85500380D02*
X76812828Y-85548000D01*
X76812828Y-85548000D02*
X76717590Y-85595619D01*
X76717590Y-85595619D02*
X76622352Y-85595619D01*
X76622352Y-85595619D02*
X76527114Y-85548000D01*
X76527114Y-85548000D02*
X76479495Y-85500380D01*
X76479495Y-85500380D02*
X76431876Y-85405142D01*
X76431876Y-85405142D02*
X76384257Y-85214666D01*
X76384257Y-85214666D02*
X76384257Y-84976571D01*
X76384257Y-84976571D02*
X76431876Y-84786095D01*
X76431876Y-84786095D02*
X76479495Y-84690857D01*
X76479495Y-84690857D02*
X76527114Y-84643238D01*
X76527114Y-84643238D02*
X76622352Y-84595619D01*
X77574733Y-84595619D02*
X77669971Y-84595619D01*
X77669971Y-84595619D02*
X77765209Y-84643238D01*
X77765209Y-84643238D02*
X77812828Y-84690857D01*
X77812828Y-84690857D02*
X77860447Y-84786095D01*
X77860447Y-84786095D02*
X77908066Y-84976571D01*
X77908066Y-84976571D02*
X77908066Y-85214666D01*
X77908066Y-85214666D02*
X77860447Y-85405142D01*
X77860447Y-85405142D02*
X77812828Y-85500380D01*
X77812828Y-85500380D02*
X77765209Y-85548000D01*
X77765209Y-85548000D02*
X77669971Y-85595619D01*
X77669971Y-85595619D02*
X77574733Y-85595619D01*
X77574733Y-85595619D02*
X77479495Y-85548000D01*
X77479495Y-85548000D02*
X77431876Y-85500380D01*
X77431876Y-85500380D02*
X77384257Y-85405142D01*
X77384257Y-85405142D02*
X77336638Y-85214666D01*
X77336638Y-85214666D02*
X77336638Y-84976571D01*
X77336638Y-84976571D02*
X77384257Y-84786095D01*
X77384257Y-84786095D02*
X77431876Y-84690857D01*
X77431876Y-84690857D02*
X77479495Y-84643238D01*
X77479495Y-84643238D02*
X77574733Y-84595619D01*
X78289019Y-85595619D02*
X78527114Y-85595619D01*
X78527114Y-85595619D02*
X78527114Y-85405142D01*
X78527114Y-85405142D02*
X78431876Y-85357523D01*
X78431876Y-85357523D02*
X78336638Y-85262285D01*
X78336638Y-85262285D02*
X78289019Y-85119428D01*
X78289019Y-85119428D02*
X78289019Y-84881333D01*
X78289019Y-84881333D02*
X78336638Y-84738476D01*
X78336638Y-84738476D02*
X78431876Y-84643238D01*
X78431876Y-84643238D02*
X78574733Y-84595619D01*
X78574733Y-84595619D02*
X78765209Y-84595619D01*
X78765209Y-84595619D02*
X78908066Y-84643238D01*
X78908066Y-84643238D02*
X79003304Y-84738476D01*
X79003304Y-84738476D02*
X79050923Y-84881333D01*
X79050923Y-84881333D02*
X79050923Y-85119428D01*
X79050923Y-85119428D02*
X79003304Y-85262285D01*
X79003304Y-85262285D02*
X78908066Y-85357523D01*
X78908066Y-85357523D02*
X78812828Y-85405142D01*
X78812828Y-85405142D02*
X78812828Y-85595619D01*
X78812828Y-85595619D02*
X79050923Y-85595619D01*
X130577219Y-104701933D02*
X131291504Y-104701933D01*
X131291504Y-104701933D02*
X131434361Y-104749552D01*
X131434361Y-104749552D02*
X131529600Y-104844790D01*
X131529600Y-104844790D02*
X131577219Y-104987647D01*
X131577219Y-104987647D02*
X131577219Y-105082885D01*
X130577219Y-103749552D02*
X130577219Y-104225742D01*
X130577219Y-104225742D02*
X131053409Y-104273361D01*
X131053409Y-104273361D02*
X131005790Y-104225742D01*
X131005790Y-104225742D02*
X130958171Y-104130504D01*
X130958171Y-104130504D02*
X130958171Y-103892409D01*
X130958171Y-103892409D02*
X131005790Y-103797171D01*
X131005790Y-103797171D02*
X131053409Y-103749552D01*
X131053409Y-103749552D02*
X131148647Y-103701933D01*
X131148647Y-103701933D02*
X131386742Y-103701933D01*
X131386742Y-103701933D02*
X131481980Y-103749552D01*
X131481980Y-103749552D02*
X131529600Y-103797171D01*
X131529600Y-103797171D02*
X131577219Y-103892409D01*
X131577219Y-103892409D02*
X131577219Y-104130504D01*
X131577219Y-104130504D02*
X131529600Y-104225742D01*
X131529600Y-104225742D02*
X131481980Y-104273361D01*
X137168095Y-102359619D02*
X136691905Y-102359619D01*
X136691905Y-102359619D02*
X136691905Y-101359619D01*
X137644286Y-102359619D02*
X137549048Y-102312000D01*
X137549048Y-102312000D02*
X137501429Y-102264380D01*
X137501429Y-102264380D02*
X137453810Y-102169142D01*
X137453810Y-102169142D02*
X137453810Y-101883428D01*
X137453810Y-101883428D02*
X137501429Y-101788190D01*
X137501429Y-101788190D02*
X137549048Y-101740571D01*
X137549048Y-101740571D02*
X137644286Y-101692952D01*
X137644286Y-101692952D02*
X137787143Y-101692952D01*
X137787143Y-101692952D02*
X137882381Y-101740571D01*
X137882381Y-101740571D02*
X137930000Y-101788190D01*
X137930000Y-101788190D02*
X137977619Y-101883428D01*
X137977619Y-101883428D02*
X137977619Y-102169142D01*
X137977619Y-102169142D02*
X137930000Y-102264380D01*
X137930000Y-102264380D02*
X137882381Y-102312000D01*
X137882381Y-102312000D02*
X137787143Y-102359619D01*
X137787143Y-102359619D02*
X137644286Y-102359619D01*
X138834762Y-101692952D02*
X138834762Y-102502476D01*
X138834762Y-102502476D02*
X138787143Y-102597714D01*
X138787143Y-102597714D02*
X138739524Y-102645333D01*
X138739524Y-102645333D02*
X138644286Y-102692952D01*
X138644286Y-102692952D02*
X138501429Y-102692952D01*
X138501429Y-102692952D02*
X138406191Y-102645333D01*
X138834762Y-102312000D02*
X138739524Y-102359619D01*
X138739524Y-102359619D02*
X138549048Y-102359619D01*
X138549048Y-102359619D02*
X138453810Y-102312000D01*
X138453810Y-102312000D02*
X138406191Y-102264380D01*
X138406191Y-102264380D02*
X138358572Y-102169142D01*
X138358572Y-102169142D02*
X138358572Y-101883428D01*
X138358572Y-101883428D02*
X138406191Y-101788190D01*
X138406191Y-101788190D02*
X138453810Y-101740571D01*
X138453810Y-101740571D02*
X138549048Y-101692952D01*
X138549048Y-101692952D02*
X138739524Y-101692952D01*
X138739524Y-101692952D02*
X138834762Y-101740571D01*
X139310953Y-102359619D02*
X139310953Y-101692952D01*
X139310953Y-101359619D02*
X139263334Y-101407238D01*
X139263334Y-101407238D02*
X139310953Y-101454857D01*
X139310953Y-101454857D02*
X139358572Y-101407238D01*
X139358572Y-101407238D02*
X139310953Y-101359619D01*
X139310953Y-101359619D02*
X139310953Y-101454857D01*
X140215714Y-102312000D02*
X140120476Y-102359619D01*
X140120476Y-102359619D02*
X139930000Y-102359619D01*
X139930000Y-102359619D02*
X139834762Y-102312000D01*
X139834762Y-102312000D02*
X139787143Y-102264380D01*
X139787143Y-102264380D02*
X139739524Y-102169142D01*
X139739524Y-102169142D02*
X139739524Y-101883428D01*
X139739524Y-101883428D02*
X139787143Y-101788190D01*
X139787143Y-101788190D02*
X139834762Y-101740571D01*
X139834762Y-101740571D02*
X139930000Y-101692952D01*
X139930000Y-101692952D02*
X140120476Y-101692952D01*
X140120476Y-101692952D02*
X140215714Y-101740571D01*
X162966495Y-89116819D02*
X162966495Y-89926342D01*
X162966495Y-89926342D02*
X163014114Y-90021580D01*
X163014114Y-90021580D02*
X163061733Y-90069200D01*
X163061733Y-90069200D02*
X163156971Y-90116819D01*
X163156971Y-90116819D02*
X163347447Y-90116819D01*
X163347447Y-90116819D02*
X163442685Y-90069200D01*
X163442685Y-90069200D02*
X163490304Y-90021580D01*
X163490304Y-90021580D02*
X163537923Y-89926342D01*
X163537923Y-89926342D02*
X163537923Y-89116819D01*
X164537923Y-90116819D02*
X163966495Y-90116819D01*
X164252209Y-90116819D02*
X164252209Y-89116819D01*
X164252209Y-89116819D02*
X164156971Y-89259676D01*
X164156971Y-89259676D02*
X164061733Y-89354914D01*
X164061733Y-89354914D02*
X163966495Y-89402533D01*
X164397753Y-66783809D02*
X164731086Y-66783809D01*
X164873943Y-67307619D02*
X164397753Y-67307619D01*
X164397753Y-67307619D02*
X164397753Y-66307619D01*
X164397753Y-66307619D02*
X164873943Y-66307619D01*
X165254896Y-67260000D02*
X165397753Y-67307619D01*
X165397753Y-67307619D02*
X165635848Y-67307619D01*
X165635848Y-67307619D02*
X165731086Y-67260000D01*
X165731086Y-67260000D02*
X165778705Y-67212380D01*
X165778705Y-67212380D02*
X165826324Y-67117142D01*
X165826324Y-67117142D02*
X165826324Y-67021904D01*
X165826324Y-67021904D02*
X165778705Y-66926666D01*
X165778705Y-66926666D02*
X165731086Y-66879047D01*
X165731086Y-66879047D02*
X165635848Y-66831428D01*
X165635848Y-66831428D02*
X165445372Y-66783809D01*
X165445372Y-66783809D02*
X165350134Y-66736190D01*
X165350134Y-66736190D02*
X165302515Y-66688571D01*
X165302515Y-66688571D02*
X165254896Y-66593333D01*
X165254896Y-66593333D02*
X165254896Y-66498095D01*
X165254896Y-66498095D02*
X165302515Y-66402857D01*
X165302515Y-66402857D02*
X165350134Y-66355238D01*
X165350134Y-66355238D02*
X165445372Y-66307619D01*
X165445372Y-66307619D02*
X165683467Y-66307619D01*
X165683467Y-66307619D02*
X165826324Y-66355238D01*
X166254896Y-67307619D02*
X166254896Y-66307619D01*
X166254896Y-66307619D02*
X166635848Y-66307619D01*
X166635848Y-66307619D02*
X166731086Y-66355238D01*
X166731086Y-66355238D02*
X166778705Y-66402857D01*
X166778705Y-66402857D02*
X166826324Y-66498095D01*
X166826324Y-66498095D02*
X166826324Y-66640952D01*
X166826324Y-66640952D02*
X166778705Y-66736190D01*
X166778705Y-66736190D02*
X166731086Y-66783809D01*
X166731086Y-66783809D02*
X166635848Y-66831428D01*
X166635848Y-66831428D02*
X166254896Y-66831428D01*
X167159658Y-66307619D02*
X167778705Y-66307619D01*
X167778705Y-66307619D02*
X167445372Y-66688571D01*
X167445372Y-66688571D02*
X167588229Y-66688571D01*
X167588229Y-66688571D02*
X167683467Y-66736190D01*
X167683467Y-66736190D02*
X167731086Y-66783809D01*
X167731086Y-66783809D02*
X167778705Y-66879047D01*
X167778705Y-66879047D02*
X167778705Y-67117142D01*
X167778705Y-67117142D02*
X167731086Y-67212380D01*
X167731086Y-67212380D02*
X167683467Y-67260000D01*
X167683467Y-67260000D02*
X167588229Y-67307619D01*
X167588229Y-67307619D02*
X167302515Y-67307619D01*
X167302515Y-67307619D02*
X167207277Y-67260000D01*
X167207277Y-67260000D02*
X167159658Y-67212380D01*
X168159658Y-66402857D02*
X168207277Y-66355238D01*
X168207277Y-66355238D02*
X168302515Y-66307619D01*
X168302515Y-66307619D02*
X168540610Y-66307619D01*
X168540610Y-66307619D02*
X168635848Y-66355238D01*
X168635848Y-66355238D02*
X168683467Y-66402857D01*
X168683467Y-66402857D02*
X168731086Y-66498095D01*
X168731086Y-66498095D02*
X168731086Y-66593333D01*
X168731086Y-66593333D02*
X168683467Y-66736190D01*
X168683467Y-66736190D02*
X168112039Y-67307619D01*
X168112039Y-67307619D02*
X168731086Y-67307619D01*
X169159658Y-66926666D02*
X169921563Y-66926666D01*
X170350134Y-67260000D02*
X170492991Y-67307619D01*
X170492991Y-67307619D02*
X170731086Y-67307619D01*
X170731086Y-67307619D02*
X170826324Y-67260000D01*
X170826324Y-67260000D02*
X170873943Y-67212380D01*
X170873943Y-67212380D02*
X170921562Y-67117142D01*
X170921562Y-67117142D02*
X170921562Y-67021904D01*
X170921562Y-67021904D02*
X170873943Y-66926666D01*
X170873943Y-66926666D02*
X170826324Y-66879047D01*
X170826324Y-66879047D02*
X170731086Y-66831428D01*
X170731086Y-66831428D02*
X170540610Y-66783809D01*
X170540610Y-66783809D02*
X170445372Y-66736190D01*
X170445372Y-66736190D02*
X170397753Y-66688571D01*
X170397753Y-66688571D02*
X170350134Y-66593333D01*
X170350134Y-66593333D02*
X170350134Y-66498095D01*
X170350134Y-66498095D02*
X170397753Y-66402857D01*
X170397753Y-66402857D02*
X170445372Y-66355238D01*
X170445372Y-66355238D02*
X170540610Y-66307619D01*
X170540610Y-66307619D02*
X170778705Y-66307619D01*
X170778705Y-66307619D02*
X170921562Y-66355238D01*
X171254896Y-66307619D02*
X171873943Y-66307619D01*
X171873943Y-66307619D02*
X171540610Y-66688571D01*
X171540610Y-66688571D02*
X171683467Y-66688571D01*
X171683467Y-66688571D02*
X171778705Y-66736190D01*
X171778705Y-66736190D02*
X171826324Y-66783809D01*
X171826324Y-66783809D02*
X171873943Y-66879047D01*
X171873943Y-66879047D02*
X171873943Y-67117142D01*
X171873943Y-67117142D02*
X171826324Y-67212380D01*
X171826324Y-67212380D02*
X171778705Y-67260000D01*
X171778705Y-67260000D02*
X171683467Y-67307619D01*
X171683467Y-67307619D02*
X171397753Y-67307619D01*
X171397753Y-67307619D02*
X171302515Y-67260000D01*
X171302515Y-67260000D02*
X171254896Y-67212380D01*
X172302515Y-66926666D02*
X173064420Y-66926666D01*
X173445372Y-66307619D02*
X173683467Y-67307619D01*
X173683467Y-67307619D02*
X173873943Y-66593333D01*
X173873943Y-66593333D02*
X174064419Y-67307619D01*
X174064419Y-67307619D02*
X174302515Y-66307619D01*
X175254895Y-67307619D02*
X174921562Y-66831428D01*
X174683467Y-67307619D02*
X174683467Y-66307619D01*
X174683467Y-66307619D02*
X175064419Y-66307619D01*
X175064419Y-66307619D02*
X175159657Y-66355238D01*
X175159657Y-66355238D02*
X175207276Y-66402857D01*
X175207276Y-66402857D02*
X175254895Y-66498095D01*
X175254895Y-66498095D02*
X175254895Y-66640952D01*
X175254895Y-66640952D02*
X175207276Y-66736190D01*
X175207276Y-66736190D02*
X175159657Y-66783809D01*
X175159657Y-66783809D02*
X175064419Y-66831428D01*
X175064419Y-66831428D02*
X174683467Y-66831428D01*
X175873943Y-66307619D02*
X176064419Y-66307619D01*
X176064419Y-66307619D02*
X176159657Y-66355238D01*
X176159657Y-66355238D02*
X176254895Y-66450476D01*
X176254895Y-66450476D02*
X176302514Y-66640952D01*
X176302514Y-66640952D02*
X176302514Y-66974285D01*
X176302514Y-66974285D02*
X176254895Y-67164761D01*
X176254895Y-67164761D02*
X176159657Y-67260000D01*
X176159657Y-67260000D02*
X176064419Y-67307619D01*
X176064419Y-67307619D02*
X175873943Y-67307619D01*
X175873943Y-67307619D02*
X175778705Y-67260000D01*
X175778705Y-67260000D02*
X175683467Y-67164761D01*
X175683467Y-67164761D02*
X175635848Y-66974285D01*
X175635848Y-66974285D02*
X175635848Y-66640952D01*
X175635848Y-66640952D02*
X175683467Y-66450476D01*
X175683467Y-66450476D02*
X175778705Y-66355238D01*
X175778705Y-66355238D02*
X175873943Y-66307619D01*
X176921562Y-66307619D02*
X177112038Y-66307619D01*
X177112038Y-66307619D02*
X177207276Y-66355238D01*
X177207276Y-66355238D02*
X177302514Y-66450476D01*
X177302514Y-66450476D02*
X177350133Y-66640952D01*
X177350133Y-66640952D02*
X177350133Y-66974285D01*
X177350133Y-66974285D02*
X177302514Y-67164761D01*
X177302514Y-67164761D02*
X177207276Y-67260000D01*
X177207276Y-67260000D02*
X177112038Y-67307619D01*
X177112038Y-67307619D02*
X176921562Y-67307619D01*
X176921562Y-67307619D02*
X176826324Y-67260000D01*
X176826324Y-67260000D02*
X176731086Y-67164761D01*
X176731086Y-67164761D02*
X176683467Y-66974285D01*
X176683467Y-66974285D02*
X176683467Y-66640952D01*
X176683467Y-66640952D02*
X176731086Y-66450476D01*
X176731086Y-66450476D02*
X176826324Y-66355238D01*
X176826324Y-66355238D02*
X176921562Y-66307619D01*
X177778705Y-67307619D02*
X177778705Y-66307619D01*
X177778705Y-66307619D02*
X178112038Y-67021904D01*
X178112038Y-67021904D02*
X178445371Y-66307619D01*
X178445371Y-66307619D02*
X178445371Y-67307619D01*
X178921562Y-66926666D02*
X179683467Y-66926666D01*
X180683466Y-67307619D02*
X180112038Y-67307619D01*
X180397752Y-67307619D02*
X180397752Y-66307619D01*
X180397752Y-66307619D02*
X180302514Y-66450476D01*
X180302514Y-66450476D02*
X180207276Y-66545714D01*
X180207276Y-66545714D02*
X180112038Y-66593333D01*
X114165142Y-69263419D02*
X113831809Y-68787228D01*
X113593714Y-69263419D02*
X113593714Y-68263419D01*
X113593714Y-68263419D02*
X113974666Y-68263419D01*
X113974666Y-68263419D02*
X114069904Y-68311038D01*
X114069904Y-68311038D02*
X114117523Y-68358657D01*
X114117523Y-68358657D02*
X114165142Y-68453895D01*
X114165142Y-68453895D02*
X114165142Y-68596752D01*
X114165142Y-68596752D02*
X114117523Y-68691990D01*
X114117523Y-68691990D02*
X114069904Y-68739609D01*
X114069904Y-68739609D02*
X113974666Y-68787228D01*
X113974666Y-68787228D02*
X113593714Y-68787228D01*
X114546095Y-68358657D02*
X114593714Y-68311038D01*
X114593714Y-68311038D02*
X114688952Y-68263419D01*
X114688952Y-68263419D02*
X114927047Y-68263419D01*
X114927047Y-68263419D02*
X115022285Y-68311038D01*
X115022285Y-68311038D02*
X115069904Y-68358657D01*
X115069904Y-68358657D02*
X115117523Y-68453895D01*
X115117523Y-68453895D02*
X115117523Y-68549133D01*
X115117523Y-68549133D02*
X115069904Y-68691990D01*
X115069904Y-68691990D02*
X114498476Y-69263419D01*
X114498476Y-69263419D02*
X115117523Y-69263419D01*
X115498476Y-68358657D02*
X115546095Y-68311038D01*
X115546095Y-68311038D02*
X115641333Y-68263419D01*
X115641333Y-68263419D02*
X115879428Y-68263419D01*
X115879428Y-68263419D02*
X115974666Y-68311038D01*
X115974666Y-68311038D02*
X116022285Y-68358657D01*
X116022285Y-68358657D02*
X116069904Y-68453895D01*
X116069904Y-68453895D02*
X116069904Y-68549133D01*
X116069904Y-68549133D02*
X116022285Y-68691990D01*
X116022285Y-68691990D02*
X115450857Y-69263419D01*
X115450857Y-69263419D02*
X116069904Y-69263419D01*
X114330361Y-72870219D02*
X113758933Y-72870219D01*
X114044647Y-72870219D02*
X114044647Y-71870219D01*
X114044647Y-71870219D02*
X113949409Y-72013076D01*
X113949409Y-72013076D02*
X113854171Y-72108314D01*
X113854171Y-72108314D02*
X113758933Y-72155933D01*
X114949409Y-71870219D02*
X115044647Y-71870219D01*
X115044647Y-71870219D02*
X115139885Y-71917838D01*
X115139885Y-71917838D02*
X115187504Y-71965457D01*
X115187504Y-71965457D02*
X115235123Y-72060695D01*
X115235123Y-72060695D02*
X115282742Y-72251171D01*
X115282742Y-72251171D02*
X115282742Y-72489266D01*
X115282742Y-72489266D02*
X115235123Y-72679742D01*
X115235123Y-72679742D02*
X115187504Y-72774980D01*
X115187504Y-72774980D02*
X115139885Y-72822600D01*
X115139885Y-72822600D02*
X115044647Y-72870219D01*
X115044647Y-72870219D02*
X114949409Y-72870219D01*
X114949409Y-72870219D02*
X114854171Y-72822600D01*
X114854171Y-72822600D02*
X114806552Y-72774980D01*
X114806552Y-72774980D02*
X114758933Y-72679742D01*
X114758933Y-72679742D02*
X114711314Y-72489266D01*
X114711314Y-72489266D02*
X114711314Y-72251171D01*
X114711314Y-72251171D02*
X114758933Y-72060695D01*
X114758933Y-72060695D02*
X114806552Y-71965457D01*
X114806552Y-71965457D02*
X114854171Y-71917838D01*
X114854171Y-71917838D02*
X114949409Y-71870219D01*
X115711314Y-72870219D02*
X115711314Y-71870219D01*
X115806552Y-72489266D02*
X116092266Y-72870219D01*
X116092266Y-72203552D02*
X115711314Y-72584504D01*
X107061095Y-63358427D02*
X107061095Y-64167950D01*
X107061095Y-64167950D02*
X107108714Y-64263188D01*
X107108714Y-64263188D02*
X107156333Y-64310808D01*
X107156333Y-64310808D02*
X107251571Y-64358427D01*
X107251571Y-64358427D02*
X107442047Y-64358427D01*
X107442047Y-64358427D02*
X107537285Y-64310808D01*
X107537285Y-64310808D02*
X107584904Y-64263188D01*
X107584904Y-64263188D02*
X107632523Y-64167950D01*
X107632523Y-64167950D02*
X107632523Y-63358427D01*
X108537285Y-63691760D02*
X108537285Y-64358427D01*
X108299190Y-63310808D02*
X108061095Y-64025093D01*
X108061095Y-64025093D02*
X108680142Y-64025093D01*
X92448429Y-78049027D02*
X92448429Y-77049027D01*
X92448429Y-77525217D02*
X93019857Y-77525217D01*
X93019857Y-78049027D02*
X93019857Y-77049027D01*
X93353191Y-77049027D02*
X93686524Y-78049027D01*
X93686524Y-78049027D02*
X94019857Y-77049027D01*
X94353191Y-77668074D02*
X95115096Y-77668074D01*
X95591286Y-78049027D02*
X95591286Y-77049027D01*
X95591286Y-77049027D02*
X95924619Y-77763312D01*
X95924619Y-77763312D02*
X96257952Y-77049027D01*
X96257952Y-77049027D02*
X96257952Y-78049027D01*
X96924619Y-77049027D02*
X97115095Y-77049027D01*
X97115095Y-77049027D02*
X97210333Y-77096646D01*
X97210333Y-77096646D02*
X97305571Y-77191884D01*
X97305571Y-77191884D02*
X97353190Y-77382360D01*
X97353190Y-77382360D02*
X97353190Y-77715693D01*
X97353190Y-77715693D02*
X97305571Y-77906169D01*
X97305571Y-77906169D02*
X97210333Y-78001408D01*
X97210333Y-78001408D02*
X97115095Y-78049027D01*
X97115095Y-78049027D02*
X96924619Y-78049027D01*
X96924619Y-78049027D02*
X96829381Y-78001408D01*
X96829381Y-78001408D02*
X96734143Y-77906169D01*
X96734143Y-77906169D02*
X96686524Y-77715693D01*
X96686524Y-77715693D02*
X96686524Y-77382360D01*
X96686524Y-77382360D02*
X96734143Y-77191884D01*
X96734143Y-77191884D02*
X96829381Y-77096646D01*
X96829381Y-77096646D02*
X96924619Y-77049027D01*
X97781762Y-78049027D02*
X97781762Y-77049027D01*
X97781762Y-77049027D02*
X98019857Y-77049027D01*
X98019857Y-77049027D02*
X98162714Y-77096646D01*
X98162714Y-77096646D02*
X98257952Y-77191884D01*
X98257952Y-77191884D02*
X98305571Y-77287122D01*
X98305571Y-77287122D02*
X98353190Y-77477598D01*
X98353190Y-77477598D02*
X98353190Y-77620455D01*
X98353190Y-77620455D02*
X98305571Y-77810931D01*
X98305571Y-77810931D02*
X98257952Y-77906169D01*
X98257952Y-77906169D02*
X98162714Y-78001408D01*
X98162714Y-78001408D02*
X98019857Y-78049027D01*
X98019857Y-78049027D02*
X97781762Y-78049027D01*
X127082609Y-72851228D02*
X127082609Y-73327419D01*
X126749276Y-72327419D02*
X127082609Y-72851228D01*
X127082609Y-72851228D02*
X127415942Y-72327419D01*
X128273085Y-73327419D02*
X127701657Y-73327419D01*
X127987371Y-73327419D02*
X127987371Y-72327419D01*
X127987371Y-72327419D02*
X127892133Y-72470276D01*
X127892133Y-72470276D02*
X127796895Y-72565514D01*
X127796895Y-72565514D02*
X127701657Y-72613133D01*
X123927124Y-75604019D02*
X124546171Y-75604019D01*
X124546171Y-75604019D02*
X124212838Y-75984971D01*
X124212838Y-75984971D02*
X124355695Y-75984971D01*
X124355695Y-75984971D02*
X124450933Y-76032590D01*
X124450933Y-76032590D02*
X124498552Y-76080209D01*
X124498552Y-76080209D02*
X124546171Y-76175447D01*
X124546171Y-76175447D02*
X124546171Y-76413542D01*
X124546171Y-76413542D02*
X124498552Y-76508780D01*
X124498552Y-76508780D02*
X124450933Y-76556400D01*
X124450933Y-76556400D02*
X124355695Y-76604019D01*
X124355695Y-76604019D02*
X124069981Y-76604019D01*
X124069981Y-76604019D02*
X123974743Y-76556400D01*
X123974743Y-76556400D02*
X123927124Y-76508780D01*
X124927124Y-75699257D02*
X124974743Y-75651638D01*
X124974743Y-75651638D02*
X125069981Y-75604019D01*
X125069981Y-75604019D02*
X125308076Y-75604019D01*
X125308076Y-75604019D02*
X125403314Y-75651638D01*
X125403314Y-75651638D02*
X125450933Y-75699257D01*
X125450933Y-75699257D02*
X125498552Y-75794495D01*
X125498552Y-75794495D02*
X125498552Y-75889733D01*
X125498552Y-75889733D02*
X125450933Y-76032590D01*
X125450933Y-76032590D02*
X124879505Y-76604019D01*
X124879505Y-76604019D02*
X125498552Y-76604019D01*
X125927124Y-76508780D02*
X125974743Y-76556400D01*
X125974743Y-76556400D02*
X125927124Y-76604019D01*
X125927124Y-76604019D02*
X125879505Y-76556400D01*
X125879505Y-76556400D02*
X125927124Y-76508780D01*
X125927124Y-76508780D02*
X125927124Y-76604019D01*
X126308076Y-75604019D02*
X126974742Y-75604019D01*
X126974742Y-75604019D02*
X126546171Y-76604019D01*
X127784266Y-75604019D02*
X127593790Y-75604019D01*
X127593790Y-75604019D02*
X127498552Y-75651638D01*
X127498552Y-75651638D02*
X127450933Y-75699257D01*
X127450933Y-75699257D02*
X127355695Y-75842114D01*
X127355695Y-75842114D02*
X127308076Y-76032590D01*
X127308076Y-76032590D02*
X127308076Y-76413542D01*
X127308076Y-76413542D02*
X127355695Y-76508780D01*
X127355695Y-76508780D02*
X127403314Y-76556400D01*
X127403314Y-76556400D02*
X127498552Y-76604019D01*
X127498552Y-76604019D02*
X127689028Y-76604019D01*
X127689028Y-76604019D02*
X127784266Y-76556400D01*
X127784266Y-76556400D02*
X127831885Y-76508780D01*
X127831885Y-76508780D02*
X127879504Y-76413542D01*
X127879504Y-76413542D02*
X127879504Y-76175447D01*
X127879504Y-76175447D02*
X127831885Y-76080209D01*
X127831885Y-76080209D02*
X127784266Y-76032590D01*
X127784266Y-76032590D02*
X127689028Y-75984971D01*
X127689028Y-75984971D02*
X127498552Y-75984971D01*
X127498552Y-75984971D02*
X127403314Y-76032590D01*
X127403314Y-76032590D02*
X127355695Y-76080209D01*
X127355695Y-76080209D02*
X127308076Y-76175447D01*
X128450933Y-76032590D02*
X128355695Y-75984971D01*
X128355695Y-75984971D02*
X128308076Y-75937352D01*
X128308076Y-75937352D02*
X128260457Y-75842114D01*
X128260457Y-75842114D02*
X128260457Y-75794495D01*
X128260457Y-75794495D02*
X128308076Y-75699257D01*
X128308076Y-75699257D02*
X128355695Y-75651638D01*
X128355695Y-75651638D02*
X128450933Y-75604019D01*
X128450933Y-75604019D02*
X128641409Y-75604019D01*
X128641409Y-75604019D02*
X128736647Y-75651638D01*
X128736647Y-75651638D02*
X128784266Y-75699257D01*
X128784266Y-75699257D02*
X128831885Y-75794495D01*
X128831885Y-75794495D02*
X128831885Y-75842114D01*
X128831885Y-75842114D02*
X128784266Y-75937352D01*
X128784266Y-75937352D02*
X128736647Y-75984971D01*
X128736647Y-75984971D02*
X128641409Y-76032590D01*
X128641409Y-76032590D02*
X128450933Y-76032590D01*
X128450933Y-76032590D02*
X128355695Y-76080209D01*
X128355695Y-76080209D02*
X128308076Y-76127828D01*
X128308076Y-76127828D02*
X128260457Y-76223066D01*
X128260457Y-76223066D02*
X128260457Y-76413542D01*
X128260457Y-76413542D02*
X128308076Y-76508780D01*
X128308076Y-76508780D02*
X128355695Y-76556400D01*
X128355695Y-76556400D02*
X128450933Y-76604019D01*
X128450933Y-76604019D02*
X128641409Y-76604019D01*
X128641409Y-76604019D02*
X128736647Y-76556400D01*
X128736647Y-76556400D02*
X128784266Y-76508780D01*
X128784266Y-76508780D02*
X128831885Y-76413542D01*
X128831885Y-76413542D02*
X128831885Y-76223066D01*
X128831885Y-76223066D02*
X128784266Y-76127828D01*
X128784266Y-76127828D02*
X128736647Y-76080209D01*
X128736647Y-76080209D02*
X128641409Y-76032590D01*
X130022362Y-76604019D02*
X130022362Y-75604019D01*
X130117600Y-76223066D02*
X130403314Y-76604019D01*
X130403314Y-75937352D02*
X130022362Y-76318304D01*
X130831886Y-76604019D02*
X130831886Y-75604019D01*
X130831886Y-76080209D02*
X131403314Y-76080209D01*
X131403314Y-76604019D02*
X131403314Y-75604019D01*
X131784267Y-75937352D02*
X132308076Y-75937352D01*
X132308076Y-75937352D02*
X131784267Y-76604019D01*
X131784267Y-76604019D02*
X132308076Y-76604019D01*
X90903466Y-103950419D02*
X90903466Y-104664704D01*
X90903466Y-104664704D02*
X90855847Y-104807561D01*
X90855847Y-104807561D02*
X90760609Y-104902800D01*
X90760609Y-104902800D02*
X90617752Y-104950419D01*
X90617752Y-104950419D02*
X90522514Y-104950419D01*
X91808228Y-104283752D02*
X91808228Y-104950419D01*
X91570133Y-103902800D02*
X91332038Y-104617085D01*
X91332038Y-104617085D02*
X91951085Y-104617085D01*
X88109514Y-102461219D02*
X88109514Y-101461219D01*
X88109514Y-101937409D02*
X88680942Y-101937409D01*
X88680942Y-102461219D02*
X88680942Y-101461219D01*
X89014276Y-101461219D02*
X89347609Y-102461219D01*
X89347609Y-102461219D02*
X89680942Y-101461219D01*
X184048495Y-67882419D02*
X184048495Y-68691942D01*
X184048495Y-68691942D02*
X184096114Y-68787180D01*
X184096114Y-68787180D02*
X184143733Y-68834800D01*
X184143733Y-68834800D02*
X184238971Y-68882419D01*
X184238971Y-68882419D02*
X184429447Y-68882419D01*
X184429447Y-68882419D02*
X184524685Y-68834800D01*
X184524685Y-68834800D02*
X184572304Y-68787180D01*
X184572304Y-68787180D02*
X184619923Y-68691942D01*
X184619923Y-68691942D02*
X184619923Y-67882419D01*
X185524685Y-67882419D02*
X185334209Y-67882419D01*
X185334209Y-67882419D02*
X185238971Y-67930038D01*
X185238971Y-67930038D02*
X185191352Y-67977657D01*
X185191352Y-67977657D02*
X185096114Y-68120514D01*
X185096114Y-68120514D02*
X185048495Y-68310990D01*
X185048495Y-68310990D02*
X185048495Y-68691942D01*
X185048495Y-68691942D02*
X185096114Y-68787180D01*
X185096114Y-68787180D02*
X185143733Y-68834800D01*
X185143733Y-68834800D02*
X185238971Y-68882419D01*
X185238971Y-68882419D02*
X185429447Y-68882419D01*
X185429447Y-68882419D02*
X185524685Y-68834800D01*
X185524685Y-68834800D02*
X185572304Y-68787180D01*
X185572304Y-68787180D02*
X185619923Y-68691942D01*
X185619923Y-68691942D02*
X185619923Y-68453847D01*
X185619923Y-68453847D02*
X185572304Y-68358609D01*
X185572304Y-68358609D02*
X185524685Y-68310990D01*
X185524685Y-68310990D02*
X185429447Y-68263371D01*
X185429447Y-68263371D02*
X185238971Y-68263371D01*
X185238971Y-68263371D02*
X185143733Y-68310990D01*
X185143733Y-68310990D02*
X185096114Y-68358609D01*
X185096114Y-68358609D02*
X185048495Y-68453847D01*
X200866857Y-80058419D02*
X200866857Y-79058419D01*
X200866857Y-79058419D02*
X201104952Y-79058419D01*
X201104952Y-79058419D02*
X201247809Y-79106038D01*
X201247809Y-79106038D02*
X201343047Y-79201276D01*
X201343047Y-79201276D02*
X201390666Y-79296514D01*
X201390666Y-79296514D02*
X201438285Y-79486990D01*
X201438285Y-79486990D02*
X201438285Y-79629847D01*
X201438285Y-79629847D02*
X201390666Y-79820323D01*
X201390666Y-79820323D02*
X201343047Y-79915561D01*
X201343047Y-79915561D02*
X201247809Y-80010800D01*
X201247809Y-80010800D02*
X201104952Y-80058419D01*
X201104952Y-80058419D02*
X200866857Y-80058419D01*
X202438285Y-79963180D02*
X202390666Y-80010800D01*
X202390666Y-80010800D02*
X202247809Y-80058419D01*
X202247809Y-80058419D02*
X202152571Y-80058419D01*
X202152571Y-80058419D02*
X202009714Y-80010800D01*
X202009714Y-80010800D02*
X201914476Y-79915561D01*
X201914476Y-79915561D02*
X201866857Y-79820323D01*
X201866857Y-79820323D02*
X201819238Y-79629847D01*
X201819238Y-79629847D02*
X201819238Y-79486990D01*
X201819238Y-79486990D02*
X201866857Y-79296514D01*
X201866857Y-79296514D02*
X201914476Y-79201276D01*
X201914476Y-79201276D02*
X202009714Y-79106038D01*
X202009714Y-79106038D02*
X202152571Y-79058419D01*
X202152571Y-79058419D02*
X202247809Y-79058419D01*
X202247809Y-79058419D02*
X202390666Y-79106038D01*
X202390666Y-79106038D02*
X202438285Y-79153657D01*
X202866857Y-80058419D02*
X202866857Y-79058419D01*
X202866857Y-79058419D02*
X203104952Y-79058419D01*
X203104952Y-79058419D02*
X203247809Y-79106038D01*
X203247809Y-79106038D02*
X203343047Y-79201276D01*
X203343047Y-79201276D02*
X203390666Y-79296514D01*
X203390666Y-79296514D02*
X203438285Y-79486990D01*
X203438285Y-79486990D02*
X203438285Y-79629847D01*
X203438285Y-79629847D02*
X203390666Y-79820323D01*
X203390666Y-79820323D02*
X203343047Y-79915561D01*
X203343047Y-79915561D02*
X203247809Y-80010800D01*
X203247809Y-80010800D02*
X203104952Y-80058419D01*
X203104952Y-80058419D02*
X202866857Y-80058419D01*
X204438285Y-79963180D02*
X204390666Y-80010800D01*
X204390666Y-80010800D02*
X204247809Y-80058419D01*
X204247809Y-80058419D02*
X204152571Y-80058419D01*
X204152571Y-80058419D02*
X204009714Y-80010800D01*
X204009714Y-80010800D02*
X203914476Y-79915561D01*
X203914476Y-79915561D02*
X203866857Y-79820323D01*
X203866857Y-79820323D02*
X203819238Y-79629847D01*
X203819238Y-79629847D02*
X203819238Y-79486990D01*
X203819238Y-79486990D02*
X203866857Y-79296514D01*
X203866857Y-79296514D02*
X203914476Y-79201276D01*
X203914476Y-79201276D02*
X204009714Y-79106038D01*
X204009714Y-79106038D02*
X204152571Y-79058419D01*
X204152571Y-79058419D02*
X204247809Y-79058419D01*
X204247809Y-79058419D02*
X204390666Y-79106038D01*
X204390666Y-79106038D02*
X204438285Y-79153657D01*
X204866857Y-79677466D02*
X205628762Y-79677466D01*
X206104952Y-80058419D02*
X206104952Y-79058419D01*
X206104952Y-79058419D02*
X206438285Y-79772704D01*
X206438285Y-79772704D02*
X206771618Y-79058419D01*
X206771618Y-79058419D02*
X206771618Y-80058419D01*
X207390666Y-80058419D02*
X207295428Y-80010800D01*
X207295428Y-80010800D02*
X207247809Y-79963180D01*
X207247809Y-79963180D02*
X207200190Y-79867942D01*
X207200190Y-79867942D02*
X207200190Y-79582228D01*
X207200190Y-79582228D02*
X207247809Y-79486990D01*
X207247809Y-79486990D02*
X207295428Y-79439371D01*
X207295428Y-79439371D02*
X207390666Y-79391752D01*
X207390666Y-79391752D02*
X207533523Y-79391752D01*
X207533523Y-79391752D02*
X207628761Y-79439371D01*
X207628761Y-79439371D02*
X207676380Y-79486990D01*
X207676380Y-79486990D02*
X207723999Y-79582228D01*
X207723999Y-79582228D02*
X207723999Y-79867942D01*
X207723999Y-79867942D02*
X207676380Y-79963180D01*
X207676380Y-79963180D02*
X207628761Y-80010800D01*
X207628761Y-80010800D02*
X207533523Y-80058419D01*
X207533523Y-80058419D02*
X207390666Y-80058419D01*
X208581142Y-80058419D02*
X208581142Y-79058419D01*
X208581142Y-80010800D02*
X208485904Y-80058419D01*
X208485904Y-80058419D02*
X208295428Y-80058419D01*
X208295428Y-80058419D02*
X208200190Y-80010800D01*
X208200190Y-80010800D02*
X208152571Y-79963180D01*
X208152571Y-79963180D02*
X208104952Y-79867942D01*
X208104952Y-79867942D02*
X208104952Y-79582228D01*
X208104952Y-79582228D02*
X208152571Y-79486990D01*
X208152571Y-79486990D02*
X208200190Y-79439371D01*
X208200190Y-79439371D02*
X208295428Y-79391752D01*
X208295428Y-79391752D02*
X208485904Y-79391752D01*
X208485904Y-79391752D02*
X208581142Y-79439371D01*
X136235574Y-65373780D02*
X136187955Y-65421400D01*
X136187955Y-65421400D02*
X136045098Y-65469019D01*
X136045098Y-65469019D02*
X135949860Y-65469019D01*
X135949860Y-65469019D02*
X135807003Y-65421400D01*
X135807003Y-65421400D02*
X135711765Y-65326161D01*
X135711765Y-65326161D02*
X135664146Y-65230923D01*
X135664146Y-65230923D02*
X135616527Y-65040447D01*
X135616527Y-65040447D02*
X135616527Y-64897590D01*
X135616527Y-64897590D02*
X135664146Y-64707114D01*
X135664146Y-64707114D02*
X135711765Y-64611876D01*
X135711765Y-64611876D02*
X135807003Y-64516638D01*
X135807003Y-64516638D02*
X135949860Y-64469019D01*
X135949860Y-64469019D02*
X136045098Y-64469019D01*
X136045098Y-64469019D02*
X136187955Y-64516638D01*
X136187955Y-64516638D02*
X136235574Y-64564257D01*
X137092717Y-64469019D02*
X136902241Y-64469019D01*
X136902241Y-64469019D02*
X136807003Y-64516638D01*
X136807003Y-64516638D02*
X136759384Y-64564257D01*
X136759384Y-64564257D02*
X136664146Y-64707114D01*
X136664146Y-64707114D02*
X136616527Y-64897590D01*
X136616527Y-64897590D02*
X136616527Y-65278542D01*
X136616527Y-65278542D02*
X136664146Y-65373780D01*
X136664146Y-65373780D02*
X136711765Y-65421400D01*
X136711765Y-65421400D02*
X136807003Y-65469019D01*
X136807003Y-65469019D02*
X136997479Y-65469019D01*
X136997479Y-65469019D02*
X137092717Y-65421400D01*
X137092717Y-65421400D02*
X137140336Y-65373780D01*
X137140336Y-65373780D02*
X137187955Y-65278542D01*
X137187955Y-65278542D02*
X137187955Y-65040447D01*
X137187955Y-65040447D02*
X137140336Y-64945209D01*
X137140336Y-64945209D02*
X137092717Y-64897590D01*
X137092717Y-64897590D02*
X136997479Y-64849971D01*
X136997479Y-64849971D02*
X136807003Y-64849971D01*
X136807003Y-64849971D02*
X136711765Y-64897590D01*
X136711765Y-64897590D02*
X136664146Y-64945209D01*
X136664146Y-64945209D02*
X136616527Y-65040447D01*
X140589142Y-70025419D02*
X140017714Y-70025419D01*
X140303428Y-70025419D02*
X140303428Y-69025419D01*
X140303428Y-69025419D02*
X140208190Y-69168276D01*
X140208190Y-69168276D02*
X140112952Y-69263514D01*
X140112952Y-69263514D02*
X140017714Y-69311133D01*
X141208190Y-69025419D02*
X141303428Y-69025419D01*
X141303428Y-69025419D02*
X141398666Y-69073038D01*
X141398666Y-69073038D02*
X141446285Y-69120657D01*
X141446285Y-69120657D02*
X141493904Y-69215895D01*
X141493904Y-69215895D02*
X141541523Y-69406371D01*
X141541523Y-69406371D02*
X141541523Y-69644466D01*
X141541523Y-69644466D02*
X141493904Y-69834942D01*
X141493904Y-69834942D02*
X141446285Y-69930180D01*
X141446285Y-69930180D02*
X141398666Y-69977800D01*
X141398666Y-69977800D02*
X141303428Y-70025419D01*
X141303428Y-70025419D02*
X141208190Y-70025419D01*
X141208190Y-70025419D02*
X141112952Y-69977800D01*
X141112952Y-69977800D02*
X141065333Y-69930180D01*
X141065333Y-69930180D02*
X141017714Y-69834942D01*
X141017714Y-69834942D02*
X140970095Y-69644466D01*
X140970095Y-69644466D02*
X140970095Y-69406371D01*
X140970095Y-69406371D02*
X141017714Y-69215895D01*
X141017714Y-69215895D02*
X141065333Y-69120657D01*
X141065333Y-69120657D02*
X141112952Y-69073038D01*
X141112952Y-69073038D02*
X141208190Y-69025419D01*
X141970095Y-69358752D02*
X141970095Y-70358752D01*
X142446285Y-69882561D02*
X142493904Y-69977800D01*
X142493904Y-69977800D02*
X142589142Y-70025419D01*
X141970095Y-69882561D02*
X142017714Y-69977800D01*
X142017714Y-69977800D02*
X142112952Y-70025419D01*
X142112952Y-70025419D02*
X142303428Y-70025419D01*
X142303428Y-70025419D02*
X142398666Y-69977800D01*
X142398666Y-69977800D02*
X142446285Y-69882561D01*
X142446285Y-69882561D02*
X142446285Y-69358752D01*
X143351047Y-69501609D02*
X143017714Y-69501609D01*
X143017714Y-70025419D02*
X143017714Y-69025419D01*
X143017714Y-69025419D02*
X143493904Y-69025419D01*
X200518733Y-91596380D02*
X200471114Y-91644000D01*
X200471114Y-91644000D02*
X200328257Y-91691619D01*
X200328257Y-91691619D02*
X200233019Y-91691619D01*
X200233019Y-91691619D02*
X200090162Y-91644000D01*
X200090162Y-91644000D02*
X199994924Y-91548761D01*
X199994924Y-91548761D02*
X199947305Y-91453523D01*
X199947305Y-91453523D02*
X199899686Y-91263047D01*
X199899686Y-91263047D02*
X199899686Y-91120190D01*
X199899686Y-91120190D02*
X199947305Y-90929714D01*
X199947305Y-90929714D02*
X199994924Y-90834476D01*
X199994924Y-90834476D02*
X200090162Y-90739238D01*
X200090162Y-90739238D02*
X200233019Y-90691619D01*
X200233019Y-90691619D02*
X200328257Y-90691619D01*
X200328257Y-90691619D02*
X200471114Y-90739238D01*
X200471114Y-90739238D02*
X200518733Y-90786857D01*
X201375876Y-91024952D02*
X201375876Y-91691619D01*
X201137781Y-90644000D02*
X200899686Y-91358285D01*
X200899686Y-91358285D02*
X201518733Y-91358285D01*
X193529152Y-98575019D02*
X192957724Y-98575019D01*
X193243438Y-98575019D02*
X193243438Y-97575019D01*
X193243438Y-97575019D02*
X193148200Y-97717876D01*
X193148200Y-97717876D02*
X193052962Y-97813114D01*
X193052962Y-97813114D02*
X192957724Y-97860733D01*
X194148200Y-97575019D02*
X194243438Y-97575019D01*
X194243438Y-97575019D02*
X194338676Y-97622638D01*
X194338676Y-97622638D02*
X194386295Y-97670257D01*
X194386295Y-97670257D02*
X194433914Y-97765495D01*
X194433914Y-97765495D02*
X194481533Y-97955971D01*
X194481533Y-97955971D02*
X194481533Y-98194066D01*
X194481533Y-98194066D02*
X194433914Y-98384542D01*
X194433914Y-98384542D02*
X194386295Y-98479780D01*
X194386295Y-98479780D02*
X194338676Y-98527400D01*
X194338676Y-98527400D02*
X194243438Y-98575019D01*
X194243438Y-98575019D02*
X194148200Y-98575019D01*
X194148200Y-98575019D02*
X194052962Y-98527400D01*
X194052962Y-98527400D02*
X194005343Y-98479780D01*
X194005343Y-98479780D02*
X193957724Y-98384542D01*
X193957724Y-98384542D02*
X193910105Y-98194066D01*
X193910105Y-98194066D02*
X193910105Y-97955971D01*
X193910105Y-97955971D02*
X193957724Y-97765495D01*
X193957724Y-97765495D02*
X194005343Y-97670257D01*
X194005343Y-97670257D02*
X194052962Y-97622638D01*
X194052962Y-97622638D02*
X194148200Y-97575019D01*
X195100581Y-97575019D02*
X195195819Y-97575019D01*
X195195819Y-97575019D02*
X195291057Y-97622638D01*
X195291057Y-97622638D02*
X195338676Y-97670257D01*
X195338676Y-97670257D02*
X195386295Y-97765495D01*
X195386295Y-97765495D02*
X195433914Y-97955971D01*
X195433914Y-97955971D02*
X195433914Y-98194066D01*
X195433914Y-98194066D02*
X195386295Y-98384542D01*
X195386295Y-98384542D02*
X195338676Y-98479780D01*
X195338676Y-98479780D02*
X195291057Y-98527400D01*
X195291057Y-98527400D02*
X195195819Y-98575019D01*
X195195819Y-98575019D02*
X195100581Y-98575019D01*
X195100581Y-98575019D02*
X195005343Y-98527400D01*
X195005343Y-98527400D02*
X194957724Y-98479780D01*
X194957724Y-98479780D02*
X194910105Y-98384542D01*
X194910105Y-98384542D02*
X194862486Y-98194066D01*
X194862486Y-98194066D02*
X194862486Y-97955971D01*
X194862486Y-97955971D02*
X194910105Y-97765495D01*
X194910105Y-97765495D02*
X194957724Y-97670257D01*
X194957724Y-97670257D02*
X195005343Y-97622638D01*
X195005343Y-97622638D02*
X195100581Y-97575019D01*
X195862486Y-97908352D02*
X195862486Y-98908352D01*
X196338676Y-98432161D02*
X196386295Y-98527400D01*
X196386295Y-98527400D02*
X196481533Y-98575019D01*
X195862486Y-98432161D02*
X195910105Y-98527400D01*
X195910105Y-98527400D02*
X196005343Y-98575019D01*
X196005343Y-98575019D02*
X196195819Y-98575019D01*
X196195819Y-98575019D02*
X196291057Y-98527400D01*
X196291057Y-98527400D02*
X196338676Y-98432161D01*
X196338676Y-98432161D02*
X196338676Y-97908352D01*
X197243438Y-98051209D02*
X196910105Y-98051209D01*
X196910105Y-98575019D02*
X196910105Y-97575019D01*
X196910105Y-97575019D02*
X197386295Y-97575019D01*
X231802953Y-91438180D02*
X231755334Y-91485800D01*
X231755334Y-91485800D02*
X231612477Y-91533419D01*
X231612477Y-91533419D02*
X231517239Y-91533419D01*
X231517239Y-91533419D02*
X231374382Y-91485800D01*
X231374382Y-91485800D02*
X231279144Y-91390561D01*
X231279144Y-91390561D02*
X231231525Y-91295323D01*
X231231525Y-91295323D02*
X231183906Y-91104847D01*
X231183906Y-91104847D02*
X231183906Y-90961990D01*
X231183906Y-90961990D02*
X231231525Y-90771514D01*
X231231525Y-90771514D02*
X231279144Y-90676276D01*
X231279144Y-90676276D02*
X231374382Y-90581038D01*
X231374382Y-90581038D02*
X231517239Y-90533419D01*
X231517239Y-90533419D02*
X231612477Y-90533419D01*
X231612477Y-90533419D02*
X231755334Y-90581038D01*
X231755334Y-90581038D02*
X231802953Y-90628657D01*
X232707715Y-90533419D02*
X232231525Y-90533419D01*
X232231525Y-90533419D02*
X232183906Y-91009609D01*
X232183906Y-91009609D02*
X232231525Y-90961990D01*
X232231525Y-90961990D02*
X232326763Y-90914371D01*
X232326763Y-90914371D02*
X232564858Y-90914371D01*
X232564858Y-90914371D02*
X232660096Y-90961990D01*
X232660096Y-90961990D02*
X232707715Y-91009609D01*
X232707715Y-91009609D02*
X232755334Y-91104847D01*
X232755334Y-91104847D02*
X232755334Y-91342942D01*
X232755334Y-91342942D02*
X232707715Y-91438180D01*
X232707715Y-91438180D02*
X232660096Y-91485800D01*
X232660096Y-91485800D02*
X232564858Y-91533419D01*
X232564858Y-91533419D02*
X232326763Y-91533419D01*
X232326763Y-91533419D02*
X232231525Y-91485800D01*
X232231525Y-91485800D02*
X232183906Y-91438180D01*
X229546352Y-100073619D02*
X228974924Y-100073619D01*
X229260638Y-100073619D02*
X229260638Y-99073619D01*
X229260638Y-99073619D02*
X229165400Y-99216476D01*
X229165400Y-99216476D02*
X229070162Y-99311714D01*
X229070162Y-99311714D02*
X228974924Y-99359333D01*
X230165400Y-99073619D02*
X230260638Y-99073619D01*
X230260638Y-99073619D02*
X230355876Y-99121238D01*
X230355876Y-99121238D02*
X230403495Y-99168857D01*
X230403495Y-99168857D02*
X230451114Y-99264095D01*
X230451114Y-99264095D02*
X230498733Y-99454571D01*
X230498733Y-99454571D02*
X230498733Y-99692666D01*
X230498733Y-99692666D02*
X230451114Y-99883142D01*
X230451114Y-99883142D02*
X230403495Y-99978380D01*
X230403495Y-99978380D02*
X230355876Y-100026000D01*
X230355876Y-100026000D02*
X230260638Y-100073619D01*
X230260638Y-100073619D02*
X230165400Y-100073619D01*
X230165400Y-100073619D02*
X230070162Y-100026000D01*
X230070162Y-100026000D02*
X230022543Y-99978380D01*
X230022543Y-99978380D02*
X229974924Y-99883142D01*
X229974924Y-99883142D02*
X229927305Y-99692666D01*
X229927305Y-99692666D02*
X229927305Y-99454571D01*
X229927305Y-99454571D02*
X229974924Y-99264095D01*
X229974924Y-99264095D02*
X230022543Y-99168857D01*
X230022543Y-99168857D02*
X230070162Y-99121238D01*
X230070162Y-99121238D02*
X230165400Y-99073619D01*
X231117781Y-99073619D02*
X231213019Y-99073619D01*
X231213019Y-99073619D02*
X231308257Y-99121238D01*
X231308257Y-99121238D02*
X231355876Y-99168857D01*
X231355876Y-99168857D02*
X231403495Y-99264095D01*
X231403495Y-99264095D02*
X231451114Y-99454571D01*
X231451114Y-99454571D02*
X231451114Y-99692666D01*
X231451114Y-99692666D02*
X231403495Y-99883142D01*
X231403495Y-99883142D02*
X231355876Y-99978380D01*
X231355876Y-99978380D02*
X231308257Y-100026000D01*
X231308257Y-100026000D02*
X231213019Y-100073619D01*
X231213019Y-100073619D02*
X231117781Y-100073619D01*
X231117781Y-100073619D02*
X231022543Y-100026000D01*
X231022543Y-100026000D02*
X230974924Y-99978380D01*
X230974924Y-99978380D02*
X230927305Y-99883142D01*
X230927305Y-99883142D02*
X230879686Y-99692666D01*
X230879686Y-99692666D02*
X230879686Y-99454571D01*
X230879686Y-99454571D02*
X230927305Y-99264095D01*
X230927305Y-99264095D02*
X230974924Y-99168857D01*
X230974924Y-99168857D02*
X231022543Y-99121238D01*
X231022543Y-99121238D02*
X231117781Y-99073619D01*
X231879686Y-99406952D02*
X231879686Y-100406952D01*
X232355876Y-99930761D02*
X232403495Y-100026000D01*
X232403495Y-100026000D02*
X232498733Y-100073619D01*
X231879686Y-99930761D02*
X231927305Y-100026000D01*
X231927305Y-100026000D02*
X232022543Y-100073619D01*
X232022543Y-100073619D02*
X232213019Y-100073619D01*
X232213019Y-100073619D02*
X232308257Y-100026000D01*
X232308257Y-100026000D02*
X232355876Y-99930761D01*
X232355876Y-99930761D02*
X232355876Y-99406952D01*
X233260638Y-99549809D02*
X232927305Y-99549809D01*
X232927305Y-100073619D02*
X232927305Y-99073619D01*
X232927305Y-99073619D02*
X233403495Y-99073619D01*
X219289333Y-92586980D02*
X219241714Y-92634600D01*
X219241714Y-92634600D02*
X219098857Y-92682219D01*
X219098857Y-92682219D02*
X219003619Y-92682219D01*
X219003619Y-92682219D02*
X218860762Y-92634600D01*
X218860762Y-92634600D02*
X218765524Y-92539361D01*
X218765524Y-92539361D02*
X218717905Y-92444123D01*
X218717905Y-92444123D02*
X218670286Y-92253647D01*
X218670286Y-92253647D02*
X218670286Y-92110790D01*
X218670286Y-92110790D02*
X218717905Y-91920314D01*
X218717905Y-91920314D02*
X218765524Y-91825076D01*
X218765524Y-91825076D02*
X218860762Y-91729838D01*
X218860762Y-91729838D02*
X219003619Y-91682219D01*
X219003619Y-91682219D02*
X219098857Y-91682219D01*
X219098857Y-91682219D02*
X219241714Y-91729838D01*
X219241714Y-91729838D02*
X219289333Y-91777457D01*
X219622667Y-91682219D02*
X220241714Y-91682219D01*
X220241714Y-91682219D02*
X219908381Y-92063171D01*
X219908381Y-92063171D02*
X220051238Y-92063171D01*
X220051238Y-92063171D02*
X220146476Y-92110790D01*
X220146476Y-92110790D02*
X220194095Y-92158409D01*
X220194095Y-92158409D02*
X220241714Y-92253647D01*
X220241714Y-92253647D02*
X220241714Y-92491742D01*
X220241714Y-92491742D02*
X220194095Y-92586980D01*
X220194095Y-92586980D02*
X220146476Y-92634600D01*
X220146476Y-92634600D02*
X220051238Y-92682219D01*
X220051238Y-92682219D02*
X219765524Y-92682219D01*
X219765524Y-92682219D02*
X219670286Y-92634600D01*
X219670286Y-92634600D02*
X219622667Y-92586980D01*
X218162380Y-98117819D02*
X217590952Y-98117819D01*
X217876666Y-98117819D02*
X217876666Y-97117819D01*
X217876666Y-97117819D02*
X217781428Y-97260676D01*
X217781428Y-97260676D02*
X217686190Y-97355914D01*
X217686190Y-97355914D02*
X217590952Y-97403533D01*
X218781428Y-97117819D02*
X218876666Y-97117819D01*
X218876666Y-97117819D02*
X218971904Y-97165438D01*
X218971904Y-97165438D02*
X219019523Y-97213057D01*
X219019523Y-97213057D02*
X219067142Y-97308295D01*
X219067142Y-97308295D02*
X219114761Y-97498771D01*
X219114761Y-97498771D02*
X219114761Y-97736866D01*
X219114761Y-97736866D02*
X219067142Y-97927342D01*
X219067142Y-97927342D02*
X219019523Y-98022580D01*
X219019523Y-98022580D02*
X218971904Y-98070200D01*
X218971904Y-98070200D02*
X218876666Y-98117819D01*
X218876666Y-98117819D02*
X218781428Y-98117819D01*
X218781428Y-98117819D02*
X218686190Y-98070200D01*
X218686190Y-98070200D02*
X218638571Y-98022580D01*
X218638571Y-98022580D02*
X218590952Y-97927342D01*
X218590952Y-97927342D02*
X218543333Y-97736866D01*
X218543333Y-97736866D02*
X218543333Y-97498771D01*
X218543333Y-97498771D02*
X218590952Y-97308295D01*
X218590952Y-97308295D02*
X218638571Y-97213057D01*
X218638571Y-97213057D02*
X218686190Y-97165438D01*
X218686190Y-97165438D02*
X218781428Y-97117819D01*
X219733809Y-97117819D02*
X219829047Y-97117819D01*
X219829047Y-97117819D02*
X219924285Y-97165438D01*
X219924285Y-97165438D02*
X219971904Y-97213057D01*
X219971904Y-97213057D02*
X220019523Y-97308295D01*
X220019523Y-97308295D02*
X220067142Y-97498771D01*
X220067142Y-97498771D02*
X220067142Y-97736866D01*
X220067142Y-97736866D02*
X220019523Y-97927342D01*
X220019523Y-97927342D02*
X219971904Y-98022580D01*
X219971904Y-98022580D02*
X219924285Y-98070200D01*
X219924285Y-98070200D02*
X219829047Y-98117819D01*
X219829047Y-98117819D02*
X219733809Y-98117819D01*
X219733809Y-98117819D02*
X219638571Y-98070200D01*
X219638571Y-98070200D02*
X219590952Y-98022580D01*
X219590952Y-98022580D02*
X219543333Y-97927342D01*
X219543333Y-97927342D02*
X219495714Y-97736866D01*
X219495714Y-97736866D02*
X219495714Y-97498771D01*
X219495714Y-97498771D02*
X219543333Y-97308295D01*
X219543333Y-97308295D02*
X219590952Y-97213057D01*
X219590952Y-97213057D02*
X219638571Y-97165438D01*
X219638571Y-97165438D02*
X219733809Y-97117819D01*
X220495714Y-97451152D02*
X220495714Y-98117819D01*
X220495714Y-97546390D02*
X220543333Y-97498771D01*
X220543333Y-97498771D02*
X220638571Y-97451152D01*
X220638571Y-97451152D02*
X220781428Y-97451152D01*
X220781428Y-97451152D02*
X220876666Y-97498771D01*
X220876666Y-97498771D02*
X220924285Y-97594009D01*
X220924285Y-97594009D02*
X220924285Y-98117819D01*
X221733809Y-97594009D02*
X221400476Y-97594009D01*
X221400476Y-98117819D02*
X221400476Y-97117819D01*
X221400476Y-97117819D02*
X221876666Y-97117819D01*
X119676942Y-69238019D02*
X119343609Y-68761828D01*
X119105514Y-69238019D02*
X119105514Y-68238019D01*
X119105514Y-68238019D02*
X119486466Y-68238019D01*
X119486466Y-68238019D02*
X119581704Y-68285638D01*
X119581704Y-68285638D02*
X119629323Y-68333257D01*
X119629323Y-68333257D02*
X119676942Y-68428495D01*
X119676942Y-68428495D02*
X119676942Y-68571352D01*
X119676942Y-68571352D02*
X119629323Y-68666590D01*
X119629323Y-68666590D02*
X119581704Y-68714209D01*
X119581704Y-68714209D02*
X119486466Y-68761828D01*
X119486466Y-68761828D02*
X119105514Y-68761828D01*
X120057895Y-68333257D02*
X120105514Y-68285638D01*
X120105514Y-68285638D02*
X120200752Y-68238019D01*
X120200752Y-68238019D02*
X120438847Y-68238019D01*
X120438847Y-68238019D02*
X120534085Y-68285638D01*
X120534085Y-68285638D02*
X120581704Y-68333257D01*
X120581704Y-68333257D02*
X120629323Y-68428495D01*
X120629323Y-68428495D02*
X120629323Y-68523733D01*
X120629323Y-68523733D02*
X120581704Y-68666590D01*
X120581704Y-68666590D02*
X120010276Y-69238019D01*
X120010276Y-69238019D02*
X120629323Y-69238019D01*
X120962657Y-68238019D02*
X121581704Y-68238019D01*
X121581704Y-68238019D02*
X121248371Y-68618971D01*
X121248371Y-68618971D02*
X121391228Y-68618971D01*
X121391228Y-68618971D02*
X121486466Y-68666590D01*
X121486466Y-68666590D02*
X121534085Y-68714209D01*
X121534085Y-68714209D02*
X121581704Y-68809447D01*
X121581704Y-68809447D02*
X121581704Y-69047542D01*
X121581704Y-69047542D02*
X121534085Y-69142780D01*
X121534085Y-69142780D02*
X121486466Y-69190400D01*
X121486466Y-69190400D02*
X121391228Y-69238019D01*
X121391228Y-69238019D02*
X121105514Y-69238019D01*
X121105514Y-69238019D02*
X121010276Y-69190400D01*
X121010276Y-69190400D02*
X120962657Y-69142780D01*
X119589704Y-72717819D02*
X119018276Y-72717819D01*
X119303990Y-72717819D02*
X119303990Y-71717819D01*
X119303990Y-71717819D02*
X119208752Y-71860676D01*
X119208752Y-71860676D02*
X119113514Y-71955914D01*
X119113514Y-71955914D02*
X119018276Y-72003533D01*
X120208752Y-71717819D02*
X120303990Y-71717819D01*
X120303990Y-71717819D02*
X120399228Y-71765438D01*
X120399228Y-71765438D02*
X120446847Y-71813057D01*
X120446847Y-71813057D02*
X120494466Y-71908295D01*
X120494466Y-71908295D02*
X120542085Y-72098771D01*
X120542085Y-72098771D02*
X120542085Y-72336866D01*
X120542085Y-72336866D02*
X120494466Y-72527342D01*
X120494466Y-72527342D02*
X120446847Y-72622580D01*
X120446847Y-72622580D02*
X120399228Y-72670200D01*
X120399228Y-72670200D02*
X120303990Y-72717819D01*
X120303990Y-72717819D02*
X120208752Y-72717819D01*
X120208752Y-72717819D02*
X120113514Y-72670200D01*
X120113514Y-72670200D02*
X120065895Y-72622580D01*
X120065895Y-72622580D02*
X120018276Y-72527342D01*
X120018276Y-72527342D02*
X119970657Y-72336866D01*
X119970657Y-72336866D02*
X119970657Y-72098771D01*
X119970657Y-72098771D02*
X120018276Y-71908295D01*
X120018276Y-71908295D02*
X120065895Y-71813057D01*
X120065895Y-71813057D02*
X120113514Y-71765438D01*
X120113514Y-71765438D02*
X120208752Y-71717819D01*
X121161133Y-71717819D02*
X121256371Y-71717819D01*
X121256371Y-71717819D02*
X121351609Y-71765438D01*
X121351609Y-71765438D02*
X121399228Y-71813057D01*
X121399228Y-71813057D02*
X121446847Y-71908295D01*
X121446847Y-71908295D02*
X121494466Y-72098771D01*
X121494466Y-72098771D02*
X121494466Y-72336866D01*
X121494466Y-72336866D02*
X121446847Y-72527342D01*
X121446847Y-72527342D02*
X121399228Y-72622580D01*
X121399228Y-72622580D02*
X121351609Y-72670200D01*
X121351609Y-72670200D02*
X121256371Y-72717819D01*
X121256371Y-72717819D02*
X121161133Y-72717819D01*
X121161133Y-72717819D02*
X121065895Y-72670200D01*
X121065895Y-72670200D02*
X121018276Y-72622580D01*
X121018276Y-72622580D02*
X120970657Y-72527342D01*
X120970657Y-72527342D02*
X120923038Y-72336866D01*
X120923038Y-72336866D02*
X120923038Y-72098771D01*
X120923038Y-72098771D02*
X120970657Y-71908295D01*
X120970657Y-71908295D02*
X121018276Y-71813057D01*
X121018276Y-71813057D02*
X121065895Y-71765438D01*
X121065895Y-71765438D02*
X121161133Y-71717819D01*
X121875419Y-72717819D02*
X122113514Y-72717819D01*
X122113514Y-72717819D02*
X122113514Y-72527342D01*
X122113514Y-72527342D02*
X122018276Y-72479723D01*
X122018276Y-72479723D02*
X121923038Y-72384485D01*
X121923038Y-72384485D02*
X121875419Y-72241628D01*
X121875419Y-72241628D02*
X121875419Y-72003533D01*
X121875419Y-72003533D02*
X121923038Y-71860676D01*
X121923038Y-71860676D02*
X122018276Y-71765438D01*
X122018276Y-71765438D02*
X122161133Y-71717819D01*
X122161133Y-71717819D02*
X122351609Y-71717819D01*
X122351609Y-71717819D02*
X122494466Y-71765438D01*
X122494466Y-71765438D02*
X122589704Y-71860676D01*
X122589704Y-71860676D02*
X122637323Y-72003533D01*
X122637323Y-72003533D02*
X122637323Y-72241628D01*
X122637323Y-72241628D02*
X122589704Y-72384485D01*
X122589704Y-72384485D02*
X122494466Y-72479723D01*
X122494466Y-72479723D02*
X122399228Y-72527342D01*
X122399228Y-72527342D02*
X122399228Y-72717819D01*
X122399228Y-72717819D02*
X122637323Y-72717819D01*
X80269095Y-95722619D02*
X80269095Y-96532142D01*
X80269095Y-96532142D02*
X80316714Y-96627380D01*
X80316714Y-96627380D02*
X80364333Y-96675000D01*
X80364333Y-96675000D02*
X80459571Y-96722619D01*
X80459571Y-96722619D02*
X80650047Y-96722619D01*
X80650047Y-96722619D02*
X80745285Y-96675000D01*
X80745285Y-96675000D02*
X80792904Y-96627380D01*
X80792904Y-96627380D02*
X80840523Y-96532142D01*
X80840523Y-96532142D02*
X80840523Y-95722619D01*
X81221476Y-95722619D02*
X81888142Y-95722619D01*
X81888142Y-95722619D02*
X81459571Y-96722619D01*
X70786952Y-101664419D02*
X71358380Y-101664419D01*
X71072666Y-102664419D02*
X71072666Y-101664419D01*
X72167904Y-102664419D02*
X71691714Y-102664419D01*
X71691714Y-102664419D02*
X71691714Y-101664419D01*
X72501238Y-102664419D02*
X72501238Y-101664419D01*
X72501238Y-101664419D02*
X72882190Y-101664419D01*
X72882190Y-101664419D02*
X72977428Y-101712038D01*
X72977428Y-101712038D02*
X73025047Y-101759657D01*
X73025047Y-101759657D02*
X73072666Y-101854895D01*
X73072666Y-101854895D02*
X73072666Y-101997752D01*
X73072666Y-101997752D02*
X73025047Y-102092990D01*
X73025047Y-102092990D02*
X72977428Y-102140609D01*
X72977428Y-102140609D02*
X72882190Y-102188228D01*
X72882190Y-102188228D02*
X72501238Y-102188228D01*
X73929809Y-101664419D02*
X73739333Y-101664419D01*
X73739333Y-101664419D02*
X73644095Y-101712038D01*
X73644095Y-101712038D02*
X73596476Y-101759657D01*
X73596476Y-101759657D02*
X73501238Y-101902514D01*
X73501238Y-101902514D02*
X73453619Y-102092990D01*
X73453619Y-102092990D02*
X73453619Y-102473942D01*
X73453619Y-102473942D02*
X73501238Y-102569180D01*
X73501238Y-102569180D02*
X73548857Y-102616800D01*
X73548857Y-102616800D02*
X73644095Y-102664419D01*
X73644095Y-102664419D02*
X73834571Y-102664419D01*
X73834571Y-102664419D02*
X73929809Y-102616800D01*
X73929809Y-102616800D02*
X73977428Y-102569180D01*
X73977428Y-102569180D02*
X74025047Y-102473942D01*
X74025047Y-102473942D02*
X74025047Y-102235847D01*
X74025047Y-102235847D02*
X73977428Y-102140609D01*
X73977428Y-102140609D02*
X73929809Y-102092990D01*
X73929809Y-102092990D02*
X73834571Y-102045371D01*
X73834571Y-102045371D02*
X73644095Y-102045371D01*
X73644095Y-102045371D02*
X73548857Y-102092990D01*
X73548857Y-102092990D02*
X73501238Y-102140609D01*
X73501238Y-102140609D02*
X73453619Y-102235847D01*
X74406000Y-101759657D02*
X74453619Y-101712038D01*
X74453619Y-101712038D02*
X74548857Y-101664419D01*
X74548857Y-101664419D02*
X74786952Y-101664419D01*
X74786952Y-101664419D02*
X74882190Y-101712038D01*
X74882190Y-101712038D02*
X74929809Y-101759657D01*
X74929809Y-101759657D02*
X74977428Y-101854895D01*
X74977428Y-101854895D02*
X74977428Y-101950133D01*
X74977428Y-101950133D02*
X74929809Y-102092990D01*
X74929809Y-102092990D02*
X74358381Y-102664419D01*
X74358381Y-102664419D02*
X74977428Y-102664419D01*
X75310762Y-101664419D02*
X75977428Y-101664419D01*
X75977428Y-101664419D02*
X75548857Y-102664419D01*
X116320963Y-76935159D02*
X116273344Y-76982779D01*
X116273344Y-76982779D02*
X116130487Y-77030398D01*
X116130487Y-77030398D02*
X116035249Y-77030398D01*
X116035249Y-77030398D02*
X115892392Y-76982779D01*
X115892392Y-76982779D02*
X115797154Y-76887540D01*
X115797154Y-76887540D02*
X115749535Y-76792302D01*
X115749535Y-76792302D02*
X115701916Y-76601826D01*
X115701916Y-76601826D02*
X115701916Y-76458969D01*
X115701916Y-76458969D02*
X115749535Y-76268493D01*
X115749535Y-76268493D02*
X115797154Y-76173255D01*
X115797154Y-76173255D02*
X115892392Y-76078017D01*
X115892392Y-76078017D02*
X116035249Y-76030398D01*
X116035249Y-76030398D02*
X116130487Y-76030398D01*
X116130487Y-76030398D02*
X116273344Y-76078017D01*
X116273344Y-76078017D02*
X116320963Y-76125636D01*
X117273344Y-77030398D02*
X116701916Y-77030398D01*
X116987630Y-77030398D02*
X116987630Y-76030398D01*
X116987630Y-76030398D02*
X116892392Y-76173255D01*
X116892392Y-76173255D02*
X116797154Y-76268493D01*
X116797154Y-76268493D02*
X116701916Y-76316112D01*
X117654297Y-76125636D02*
X117701916Y-76078017D01*
X117701916Y-76078017D02*
X117797154Y-76030398D01*
X117797154Y-76030398D02*
X118035249Y-76030398D01*
X118035249Y-76030398D02*
X118130487Y-76078017D01*
X118130487Y-76078017D02*
X118178106Y-76125636D01*
X118178106Y-76125636D02*
X118225725Y-76220874D01*
X118225725Y-76220874D02*
X118225725Y-76316112D01*
X118225725Y-76316112D02*
X118178106Y-76458969D01*
X118178106Y-76458969D02*
X117606678Y-77030398D01*
X117606678Y-77030398D02*
X118225725Y-77030398D01*
X116030573Y-85691798D02*
X115459145Y-85691798D01*
X115744859Y-85691798D02*
X115744859Y-84691798D01*
X115744859Y-84691798D02*
X115649621Y-84834655D01*
X115649621Y-84834655D02*
X115554383Y-84929893D01*
X115554383Y-84929893D02*
X115459145Y-84977512D01*
X116649621Y-84691798D02*
X116744859Y-84691798D01*
X116744859Y-84691798D02*
X116840097Y-84739417D01*
X116840097Y-84739417D02*
X116887716Y-84787036D01*
X116887716Y-84787036D02*
X116935335Y-84882274D01*
X116935335Y-84882274D02*
X116982954Y-85072750D01*
X116982954Y-85072750D02*
X116982954Y-85310845D01*
X116982954Y-85310845D02*
X116935335Y-85501321D01*
X116935335Y-85501321D02*
X116887716Y-85596559D01*
X116887716Y-85596559D02*
X116840097Y-85644179D01*
X116840097Y-85644179D02*
X116744859Y-85691798D01*
X116744859Y-85691798D02*
X116649621Y-85691798D01*
X116649621Y-85691798D02*
X116554383Y-85644179D01*
X116554383Y-85644179D02*
X116506764Y-85596559D01*
X116506764Y-85596559D02*
X116459145Y-85501321D01*
X116459145Y-85501321D02*
X116411526Y-85310845D01*
X116411526Y-85310845D02*
X116411526Y-85072750D01*
X116411526Y-85072750D02*
X116459145Y-84882274D01*
X116459145Y-84882274D02*
X116506764Y-84787036D01*
X116506764Y-84787036D02*
X116554383Y-84739417D01*
X116554383Y-84739417D02*
X116649621Y-84691798D01*
X117602002Y-84691798D02*
X117697240Y-84691798D01*
X117697240Y-84691798D02*
X117792478Y-84739417D01*
X117792478Y-84739417D02*
X117840097Y-84787036D01*
X117840097Y-84787036D02*
X117887716Y-84882274D01*
X117887716Y-84882274D02*
X117935335Y-85072750D01*
X117935335Y-85072750D02*
X117935335Y-85310845D01*
X117935335Y-85310845D02*
X117887716Y-85501321D01*
X117887716Y-85501321D02*
X117840097Y-85596559D01*
X117840097Y-85596559D02*
X117792478Y-85644179D01*
X117792478Y-85644179D02*
X117697240Y-85691798D01*
X117697240Y-85691798D02*
X117602002Y-85691798D01*
X117602002Y-85691798D02*
X117506764Y-85644179D01*
X117506764Y-85644179D02*
X117459145Y-85596559D01*
X117459145Y-85596559D02*
X117411526Y-85501321D01*
X117411526Y-85501321D02*
X117363907Y-85310845D01*
X117363907Y-85310845D02*
X117363907Y-85072750D01*
X117363907Y-85072750D02*
X117411526Y-84882274D01*
X117411526Y-84882274D02*
X117459145Y-84787036D01*
X117459145Y-84787036D02*
X117506764Y-84739417D01*
X117506764Y-84739417D02*
X117602002Y-84691798D01*
X118363907Y-85025131D02*
X118363907Y-86025131D01*
X118840097Y-85548940D02*
X118887716Y-85644179D01*
X118887716Y-85644179D02*
X118982954Y-85691798D01*
X118363907Y-85548940D02*
X118411526Y-85644179D01*
X118411526Y-85644179D02*
X118506764Y-85691798D01*
X118506764Y-85691798D02*
X118697240Y-85691798D01*
X118697240Y-85691798D02*
X118792478Y-85644179D01*
X118792478Y-85644179D02*
X118840097Y-85548940D01*
X118840097Y-85548940D02*
X118840097Y-85025131D01*
X119744859Y-85167988D02*
X119411526Y-85167988D01*
X119411526Y-85691798D02*
X119411526Y-84691798D01*
X119411526Y-84691798D02*
X119887716Y-84691798D01*
X127061933Y-63827819D02*
X126728600Y-63351628D01*
X126490505Y-63827819D02*
X126490505Y-62827819D01*
X126490505Y-62827819D02*
X126871457Y-62827819D01*
X126871457Y-62827819D02*
X126966695Y-62875438D01*
X126966695Y-62875438D02*
X127014314Y-62923057D01*
X127014314Y-62923057D02*
X127061933Y-63018295D01*
X127061933Y-63018295D02*
X127061933Y-63161152D01*
X127061933Y-63161152D02*
X127014314Y-63256390D01*
X127014314Y-63256390D02*
X126966695Y-63304009D01*
X126966695Y-63304009D02*
X126871457Y-63351628D01*
X126871457Y-63351628D02*
X126490505Y-63351628D01*
X127966695Y-62827819D02*
X127490505Y-62827819D01*
X127490505Y-62827819D02*
X127442886Y-63304009D01*
X127442886Y-63304009D02*
X127490505Y-63256390D01*
X127490505Y-63256390D02*
X127585743Y-63208771D01*
X127585743Y-63208771D02*
X127823838Y-63208771D01*
X127823838Y-63208771D02*
X127919076Y-63256390D01*
X127919076Y-63256390D02*
X127966695Y-63304009D01*
X127966695Y-63304009D02*
X128014314Y-63399247D01*
X128014314Y-63399247D02*
X128014314Y-63637342D01*
X128014314Y-63637342D02*
X127966695Y-63732580D01*
X127966695Y-63732580D02*
X127919076Y-63780200D01*
X127919076Y-63780200D02*
X127823838Y-63827819D01*
X127823838Y-63827819D02*
X127585743Y-63827819D01*
X127585743Y-63827819D02*
X127490505Y-63780200D01*
X127490505Y-63780200D02*
X127442886Y-63732580D01*
X125699971Y-69060219D02*
X125128543Y-69060219D01*
X125414257Y-69060219D02*
X125414257Y-68060219D01*
X125414257Y-68060219D02*
X125319019Y-68203076D01*
X125319019Y-68203076D02*
X125223781Y-68298314D01*
X125223781Y-68298314D02*
X125128543Y-68345933D01*
X126319019Y-68060219D02*
X126414257Y-68060219D01*
X126414257Y-68060219D02*
X126509495Y-68107838D01*
X126509495Y-68107838D02*
X126557114Y-68155457D01*
X126557114Y-68155457D02*
X126604733Y-68250695D01*
X126604733Y-68250695D02*
X126652352Y-68441171D01*
X126652352Y-68441171D02*
X126652352Y-68679266D01*
X126652352Y-68679266D02*
X126604733Y-68869742D01*
X126604733Y-68869742D02*
X126557114Y-68964980D01*
X126557114Y-68964980D02*
X126509495Y-69012600D01*
X126509495Y-69012600D02*
X126414257Y-69060219D01*
X126414257Y-69060219D02*
X126319019Y-69060219D01*
X126319019Y-69060219D02*
X126223781Y-69012600D01*
X126223781Y-69012600D02*
X126176162Y-68964980D01*
X126176162Y-68964980D02*
X126128543Y-68869742D01*
X126128543Y-68869742D02*
X126080924Y-68679266D01*
X126080924Y-68679266D02*
X126080924Y-68441171D01*
X126080924Y-68441171D02*
X126128543Y-68250695D01*
X126128543Y-68250695D02*
X126176162Y-68155457D01*
X126176162Y-68155457D02*
X126223781Y-68107838D01*
X126223781Y-68107838D02*
X126319019Y-68060219D01*
X127271400Y-68060219D02*
X127366638Y-68060219D01*
X127366638Y-68060219D02*
X127461876Y-68107838D01*
X127461876Y-68107838D02*
X127509495Y-68155457D01*
X127509495Y-68155457D02*
X127557114Y-68250695D01*
X127557114Y-68250695D02*
X127604733Y-68441171D01*
X127604733Y-68441171D02*
X127604733Y-68679266D01*
X127604733Y-68679266D02*
X127557114Y-68869742D01*
X127557114Y-68869742D02*
X127509495Y-68964980D01*
X127509495Y-68964980D02*
X127461876Y-69012600D01*
X127461876Y-69012600D02*
X127366638Y-69060219D01*
X127366638Y-69060219D02*
X127271400Y-69060219D01*
X127271400Y-69060219D02*
X127176162Y-69012600D01*
X127176162Y-69012600D02*
X127128543Y-68964980D01*
X127128543Y-68964980D02*
X127080924Y-68869742D01*
X127080924Y-68869742D02*
X127033305Y-68679266D01*
X127033305Y-68679266D02*
X127033305Y-68441171D01*
X127033305Y-68441171D02*
X127080924Y-68250695D01*
X127080924Y-68250695D02*
X127128543Y-68155457D01*
X127128543Y-68155457D02*
X127176162Y-68107838D01*
X127176162Y-68107838D02*
X127271400Y-68060219D01*
X128033305Y-69060219D02*
X128033305Y-68060219D01*
X128128543Y-68679266D02*
X128414257Y-69060219D01*
X128414257Y-68393552D02*
X128033305Y-68774504D01*
X174023542Y-90168619D02*
X173690209Y-89692428D01*
X173452114Y-90168619D02*
X173452114Y-89168619D01*
X173452114Y-89168619D02*
X173833066Y-89168619D01*
X173833066Y-89168619D02*
X173928304Y-89216238D01*
X173928304Y-89216238D02*
X173975923Y-89263857D01*
X173975923Y-89263857D02*
X174023542Y-89359095D01*
X174023542Y-89359095D02*
X174023542Y-89501952D01*
X174023542Y-89501952D02*
X173975923Y-89597190D01*
X173975923Y-89597190D02*
X173928304Y-89644809D01*
X173928304Y-89644809D02*
X173833066Y-89692428D01*
X173833066Y-89692428D02*
X173452114Y-89692428D01*
X174404495Y-89263857D02*
X174452114Y-89216238D01*
X174452114Y-89216238D02*
X174547352Y-89168619D01*
X174547352Y-89168619D02*
X174785447Y-89168619D01*
X174785447Y-89168619D02*
X174880685Y-89216238D01*
X174880685Y-89216238D02*
X174928304Y-89263857D01*
X174928304Y-89263857D02*
X174975923Y-89359095D01*
X174975923Y-89359095D02*
X174975923Y-89454333D01*
X174975923Y-89454333D02*
X174928304Y-89597190D01*
X174928304Y-89597190D02*
X174356876Y-90168619D01*
X174356876Y-90168619D02*
X174975923Y-90168619D01*
X175594971Y-89168619D02*
X175690209Y-89168619D01*
X175690209Y-89168619D02*
X175785447Y-89216238D01*
X175785447Y-89216238D02*
X175833066Y-89263857D01*
X175833066Y-89263857D02*
X175880685Y-89359095D01*
X175880685Y-89359095D02*
X175928304Y-89549571D01*
X175928304Y-89549571D02*
X175928304Y-89787666D01*
X175928304Y-89787666D02*
X175880685Y-89978142D01*
X175880685Y-89978142D02*
X175833066Y-90073380D01*
X175833066Y-90073380D02*
X175785447Y-90121000D01*
X175785447Y-90121000D02*
X175690209Y-90168619D01*
X175690209Y-90168619D02*
X175594971Y-90168619D01*
X175594971Y-90168619D02*
X175499733Y-90121000D01*
X175499733Y-90121000D02*
X175452114Y-90073380D01*
X175452114Y-90073380D02*
X175404495Y-89978142D01*
X175404495Y-89978142D02*
X175356876Y-89787666D01*
X175356876Y-89787666D02*
X175356876Y-89549571D01*
X175356876Y-89549571D02*
X175404495Y-89359095D01*
X175404495Y-89359095D02*
X175452114Y-89263857D01*
X175452114Y-89263857D02*
X175499733Y-89216238D01*
X175499733Y-89216238D02*
X175594971Y-89168619D01*
X173856733Y-93495019D02*
X173285305Y-93495019D01*
X173571019Y-93495019D02*
X173571019Y-92495019D01*
X173571019Y-92495019D02*
X173475781Y-92637876D01*
X173475781Y-92637876D02*
X173380543Y-92733114D01*
X173380543Y-92733114D02*
X173285305Y-92780733D01*
X174475781Y-92495019D02*
X174571019Y-92495019D01*
X174571019Y-92495019D02*
X174666257Y-92542638D01*
X174666257Y-92542638D02*
X174713876Y-92590257D01*
X174713876Y-92590257D02*
X174761495Y-92685495D01*
X174761495Y-92685495D02*
X174809114Y-92875971D01*
X174809114Y-92875971D02*
X174809114Y-93114066D01*
X174809114Y-93114066D02*
X174761495Y-93304542D01*
X174761495Y-93304542D02*
X174713876Y-93399780D01*
X174713876Y-93399780D02*
X174666257Y-93447400D01*
X174666257Y-93447400D02*
X174571019Y-93495019D01*
X174571019Y-93495019D02*
X174475781Y-93495019D01*
X174475781Y-93495019D02*
X174380543Y-93447400D01*
X174380543Y-93447400D02*
X174332924Y-93399780D01*
X174332924Y-93399780D02*
X174285305Y-93304542D01*
X174285305Y-93304542D02*
X174237686Y-93114066D01*
X174237686Y-93114066D02*
X174237686Y-92875971D01*
X174237686Y-92875971D02*
X174285305Y-92685495D01*
X174285305Y-92685495D02*
X174332924Y-92590257D01*
X174332924Y-92590257D02*
X174380543Y-92542638D01*
X174380543Y-92542638D02*
X174475781Y-92495019D01*
X175428162Y-92495019D02*
X175523400Y-92495019D01*
X175523400Y-92495019D02*
X175618638Y-92542638D01*
X175618638Y-92542638D02*
X175666257Y-92590257D01*
X175666257Y-92590257D02*
X175713876Y-92685495D01*
X175713876Y-92685495D02*
X175761495Y-92875971D01*
X175761495Y-92875971D02*
X175761495Y-93114066D01*
X175761495Y-93114066D02*
X175713876Y-93304542D01*
X175713876Y-93304542D02*
X175666257Y-93399780D01*
X175666257Y-93399780D02*
X175618638Y-93447400D01*
X175618638Y-93447400D02*
X175523400Y-93495019D01*
X175523400Y-93495019D02*
X175428162Y-93495019D01*
X175428162Y-93495019D02*
X175332924Y-93447400D01*
X175332924Y-93447400D02*
X175285305Y-93399780D01*
X175285305Y-93399780D02*
X175237686Y-93304542D01*
X175237686Y-93304542D02*
X175190067Y-93114066D01*
X175190067Y-93114066D02*
X175190067Y-92875971D01*
X175190067Y-92875971D02*
X175237686Y-92685495D01*
X175237686Y-92685495D02*
X175285305Y-92590257D01*
X175285305Y-92590257D02*
X175332924Y-92542638D01*
X175332924Y-92542638D02*
X175428162Y-92495019D01*
%TO.C,C2*%
D13*
X141019200Y-77919948D02*
X141019200Y-78442452D01*
X139549200Y-77919948D02*
X139549200Y-78442452D01*
%TO.C,C1*%
X139549200Y-73895852D02*
X139549200Y-73373348D01*
X141019200Y-73895852D02*
X141019200Y-73373348D01*
%TO.C,R2*%
X159005600Y-71061336D02*
X159005600Y-71515464D01*
X160475600Y-71061336D02*
X160475600Y-71515464D01*
%TO.C,J3*%
X137570395Y-62376586D02*
X137570395Y-65136586D01*
X155460395Y-62376586D02*
X137570395Y-62376586D01*
X155460395Y-62376586D02*
X155460395Y-65136586D01*
X155460395Y-65136586D02*
X137570395Y-65136586D01*
X156730395Y-62376586D02*
X158110395Y-62376586D01*
X158110395Y-62376586D02*
X158110395Y-63756586D01*
%TO.C,R4*%
X130963936Y-66194000D02*
X131418064Y-66194000D01*
X130963936Y-67664000D02*
X131418064Y-67664000D01*
%TO.C,U5*%
X208758000Y-90976400D02*
X208758000Y-92236400D01*
X208758000Y-97796400D02*
X208758000Y-96536400D01*
X212518000Y-90976400D02*
X208758000Y-90976400D01*
X212518000Y-97796400D02*
X208758000Y-97796400D01*
X213798000Y-97696400D02*
X214038000Y-98026400D01*
X213558000Y-98026400D01*
X213798000Y-97696400D01*
G36*
X214038000Y-98026400D02*
G01*
X213558000Y-98026400D01*
X213798000Y-97696400D01*
X214038000Y-98026400D01*
G37*
%TO.C,U2*%
X143786000Y-70653600D02*
X143786000Y-80933600D01*
X143786000Y-80933600D02*
X149086000Y-80933600D01*
X145436000Y-70653600D02*
X143786000Y-70653600D01*
X149086000Y-70653600D02*
X147436000Y-70653600D01*
X149086000Y-80933600D02*
X149086000Y-70653600D01*
X147436000Y-70653600D02*
G75*
G02*
X145436000Y-70653600I-1000000J0D01*
G01*
%TO.C,R7*%
X76506400Y-82084936D02*
X76506400Y-82539064D01*
X77976400Y-82084936D02*
X77976400Y-82539064D01*
%TO.C,J5*%
X132122400Y-105748600D02*
X132122400Y-104368600D01*
X133502400Y-105748600D02*
X132122400Y-105748600D01*
X134772400Y-102988600D02*
X152662400Y-102988600D01*
X134772400Y-105748600D02*
X134772400Y-102988600D01*
X134772400Y-105748600D02*
X152662400Y-105748600D01*
X152662400Y-105748600D02*
X152662400Y-102988600D01*
%TO.C,U1*%
X163239000Y-61726000D02*
X163239000Y-67926000D01*
X163239000Y-61726000D02*
X181639000Y-61726000D01*
X163239000Y-86576000D02*
X163239000Y-87576000D01*
X163239000Y-87576000D02*
X164739000Y-87576000D01*
X181639000Y-61726000D02*
X181639000Y-67926000D01*
X181639000Y-87576000D02*
X180139000Y-87576000D01*
X181639000Y-87576000D02*
X181639000Y-86576000D01*
X163239000Y-68601000D02*
X162739000Y-68601000D01*
X163239000Y-68101000D01*
X163239000Y-68601000D01*
G36*
X163239000Y-68601000D02*
G01*
X162739000Y-68601000D01*
X163239000Y-68101000D01*
X163239000Y-68601000D01*
G37*
%TO.C,R22*%
X115432064Y-69724600D02*
X114977936Y-69724600D01*
X115432064Y-71194600D02*
X114977936Y-71194600D01*
%TO.C,U4*%
X80840200Y-65236408D02*
X102904200Y-65236408D01*
X80884300Y-95234790D02*
X80840200Y-65236408D01*
X80884300Y-96734790D02*
X80884300Y-95234790D01*
X102904200Y-65236408D02*
X109200200Y-65236408D01*
X109175950Y-65246299D02*
X109175950Y-96696408D01*
X109200200Y-96734790D02*
X80884300Y-96734790D01*
%TO.C,Y1*%
X133605800Y-75396800D02*
X134975800Y-74726800D01*
X133605800Y-76596800D02*
X134975800Y-77266800D01*
X134975800Y-74726800D02*
X135785800Y-74726800D01*
X134975800Y-77266800D02*
X135785800Y-77266800D01*
X122585800Y-74236800D02*
X133605800Y-74236800D01*
X133605800Y-77756800D01*
X122585800Y-77756800D01*
X122585800Y-74236800D01*
%TO.C,J4*%
X79203688Y-103242358D02*
X79203688Y-106002358D01*
X86933688Y-103242358D02*
X79203688Y-103242358D01*
X86933688Y-103242358D02*
X86933688Y-106002358D01*
X86933688Y-106002358D02*
X79203688Y-106002358D01*
X88203688Y-103242358D02*
X89583688Y-103242358D01*
X89583688Y-103242358D02*
X89583688Y-104622358D01*
%TO.C,U6*%
X183371809Y-90053600D02*
X183371809Y-69253600D01*
X183374000Y-69193077D02*
X196035618Y-69193077D01*
X196035618Y-69193077D02*
X226034000Y-69148977D01*
X226024109Y-90029350D02*
X183374000Y-90029350D01*
X226034000Y-69153600D02*
X226034000Y-83757600D01*
X226034000Y-83757600D02*
X226034000Y-90053600D01*
%TO.C,C6*%
X139672241Y-69414200D02*
G75*
G02*
X133132241Y-69414200I-3270000J0D01*
G01*
X133132241Y-69414200D02*
G75*
G02*
X139672241Y-69414200I3270000J0D01*
G01*
X139642241Y-69012200D02*
X139642241Y-69816200D01*
X139602241Y-68781200D02*
X139602241Y-70047200D01*
X139562241Y-68613200D02*
X139562241Y-70215200D01*
X139522241Y-68475200D02*
X139522241Y-70353200D01*
X139482241Y-68356200D02*
X139482241Y-70472200D01*
X139442241Y-68249200D02*
X139442241Y-70579200D01*
X139402241Y-68153200D02*
X139402241Y-70675200D01*
X139362241Y-68064200D02*
X139362241Y-70764200D01*
X139322241Y-67982200D02*
X139322241Y-70846200D01*
X139282241Y-67905200D02*
X139282241Y-70923200D01*
X139242241Y-67833200D02*
X139242241Y-70995200D01*
X139202241Y-67765200D02*
X139202241Y-71063200D01*
X139162241Y-67700200D02*
X139162241Y-71128200D01*
X139122241Y-67639200D02*
X139122241Y-71189200D01*
X139082241Y-67580200D02*
X139082241Y-71248200D01*
X139042241Y-67524200D02*
X139042241Y-71304200D01*
X139002241Y-67471200D02*
X139002241Y-71357200D01*
X138962241Y-67419200D02*
X138962241Y-71409200D01*
X138922241Y-67370200D02*
X138922241Y-71458200D01*
X138882241Y-67323200D02*
X138882241Y-71505200D01*
X138842241Y-67277200D02*
X138842241Y-71551200D01*
X138802241Y-67233200D02*
X138802241Y-71595200D01*
X138762241Y-67191200D02*
X138762241Y-71637200D01*
X138722241Y-67150200D02*
X138722241Y-71678200D01*
X138682241Y-70454200D02*
X138682241Y-71718200D01*
X138682241Y-67110200D02*
X138682241Y-68374200D01*
X138642241Y-70454200D02*
X138642241Y-71756200D01*
X138642241Y-67072200D02*
X138642241Y-68374200D01*
X138602241Y-70454200D02*
X138602241Y-71793200D01*
X138602241Y-67035200D02*
X138602241Y-68374200D01*
X138562241Y-70454200D02*
X138562241Y-71829200D01*
X138562241Y-66999200D02*
X138562241Y-68374200D01*
X138522241Y-70454200D02*
X138522241Y-71864200D01*
X138522241Y-66964200D02*
X138522241Y-68374200D01*
X138482241Y-70454200D02*
X138482241Y-71897200D01*
X138482241Y-66931200D02*
X138482241Y-68374200D01*
X138442241Y-70454200D02*
X138442241Y-71930200D01*
X138442241Y-66898200D02*
X138442241Y-68374200D01*
X138402241Y-70454200D02*
X138402241Y-71961200D01*
X138402241Y-66867200D02*
X138402241Y-68374200D01*
X138362241Y-70454200D02*
X138362241Y-71991200D01*
X138362241Y-66837200D02*
X138362241Y-68374200D01*
X138322241Y-70454200D02*
X138322241Y-72021200D01*
X138322241Y-66807200D02*
X138322241Y-68374200D01*
X138282241Y-70454200D02*
X138282241Y-72050200D01*
X138282241Y-66778200D02*
X138282241Y-68374200D01*
X138242241Y-70454200D02*
X138242241Y-72077200D01*
X138242241Y-66751200D02*
X138242241Y-68374200D01*
X138202241Y-70454200D02*
X138202241Y-72104200D01*
X138202241Y-66724200D02*
X138202241Y-68374200D01*
X138162241Y-70454200D02*
X138162241Y-72130200D01*
X138162241Y-66698200D02*
X138162241Y-68374200D01*
X138122241Y-70454200D02*
X138122241Y-72155200D01*
X138122241Y-66673200D02*
X138122241Y-68374200D01*
X138082241Y-70454200D02*
X138082241Y-72179200D01*
X138082241Y-66649200D02*
X138082241Y-68374200D01*
X138042241Y-70454200D02*
X138042241Y-72203200D01*
X138042241Y-66625200D02*
X138042241Y-68374200D01*
X138002241Y-70454200D02*
X138002241Y-72226200D01*
X138002241Y-66602200D02*
X138002241Y-68374200D01*
X137962241Y-70454200D02*
X137962241Y-72248200D01*
X137962241Y-66580200D02*
X137962241Y-68374200D01*
X137922241Y-70454200D02*
X137922241Y-72269200D01*
X137922241Y-66559200D02*
X137922241Y-68374200D01*
X137882241Y-70454200D02*
X137882241Y-72290200D01*
X137882241Y-66538200D02*
X137882241Y-68374200D01*
X137842241Y-70454200D02*
X137842241Y-72310200D01*
X137842241Y-66518200D02*
X137842241Y-68374200D01*
X137802241Y-70454200D02*
X137802241Y-72329200D01*
X137802241Y-66499200D02*
X137802241Y-68374200D01*
X137762241Y-70454200D02*
X137762241Y-72348200D01*
X137762241Y-66480200D02*
X137762241Y-68374200D01*
X137722241Y-70454200D02*
X137722241Y-72366200D01*
X137722241Y-66462200D02*
X137722241Y-68374200D01*
X137682241Y-70454200D02*
X137682241Y-72383200D01*
X137682241Y-66445200D02*
X137682241Y-68374200D01*
X137642241Y-70454200D02*
X137642241Y-72400200D01*
X137642241Y-66428200D02*
X137642241Y-68374200D01*
X137602241Y-70454200D02*
X137602241Y-72416200D01*
X137602241Y-66412200D02*
X137602241Y-68374200D01*
X137562241Y-70454200D02*
X137562241Y-72431200D01*
X137562241Y-66397200D02*
X137562241Y-68374200D01*
X137522241Y-70454200D02*
X137522241Y-72446200D01*
X137522241Y-66382200D02*
X137522241Y-68374200D01*
X137482241Y-70454200D02*
X137482241Y-72461200D01*
X137482241Y-66367200D02*
X137482241Y-68374200D01*
X137442241Y-70454200D02*
X137442241Y-72474200D01*
X137442241Y-66354200D02*
X137442241Y-68374200D01*
X137402241Y-70454200D02*
X137402241Y-72487200D01*
X137402241Y-66341200D02*
X137402241Y-68374200D01*
X137362241Y-70454200D02*
X137362241Y-72500200D01*
X137362241Y-66328200D02*
X137362241Y-68374200D01*
X137322241Y-70454200D02*
X137322241Y-72512200D01*
X137322241Y-66316200D02*
X137322241Y-68374200D01*
X137282241Y-70454200D02*
X137282241Y-72523200D01*
X137282241Y-66305200D02*
X137282241Y-68374200D01*
X137242241Y-70454200D02*
X137242241Y-72534200D01*
X137242241Y-66294200D02*
X137242241Y-68374200D01*
X137202241Y-70454200D02*
X137202241Y-72545200D01*
X137202241Y-66283200D02*
X137202241Y-68374200D01*
X137162241Y-70454200D02*
X137162241Y-72554200D01*
X137162241Y-66274200D02*
X137162241Y-68374200D01*
X137122241Y-70454200D02*
X137122241Y-72564200D01*
X137122241Y-66264200D02*
X137122241Y-68374200D01*
X137082241Y-70454200D02*
X137082241Y-72573200D01*
X137082241Y-66255200D02*
X137082241Y-68374200D01*
X137042241Y-70454200D02*
X137042241Y-72581200D01*
X137042241Y-66247200D02*
X137042241Y-68374200D01*
X137002241Y-70454200D02*
X137002241Y-72588200D01*
X137002241Y-66240200D02*
X137002241Y-68374200D01*
X136962241Y-70454200D02*
X136962241Y-72596200D01*
X136962241Y-66232200D02*
X136962241Y-68374200D01*
X136922241Y-70454200D02*
X136922241Y-72602200D01*
X136922241Y-66226200D02*
X136922241Y-68374200D01*
X136882241Y-70454200D02*
X136882241Y-72609200D01*
X136882241Y-66219200D02*
X136882241Y-68374200D01*
X136842241Y-70454200D02*
X136842241Y-72614200D01*
X136842241Y-66214200D02*
X136842241Y-68374200D01*
X136802241Y-70454200D02*
X136802241Y-72619200D01*
X136802241Y-66209200D02*
X136802241Y-68374200D01*
X136762241Y-70454200D02*
X136762241Y-72624200D01*
X136762241Y-66204200D02*
X136762241Y-68374200D01*
X136722241Y-70454200D02*
X136722241Y-72628200D01*
X136722241Y-66200200D02*
X136722241Y-68374200D01*
X136682241Y-70454200D02*
X136682241Y-72632200D01*
X136682241Y-66196200D02*
X136682241Y-68374200D01*
X136642241Y-70454200D02*
X136642241Y-72635200D01*
X136642241Y-66193200D02*
X136642241Y-68374200D01*
X136602241Y-66190200D02*
X136602241Y-72638200D01*
X136562241Y-66188200D02*
X136562241Y-72640200D01*
X136522241Y-66186200D02*
X136522241Y-72642200D01*
X136482241Y-66185200D02*
X136482241Y-72643200D01*
X136442241Y-66184200D02*
X136442241Y-72644200D01*
X136402241Y-66184200D02*
X136402241Y-72644200D01*
X133217000Y-67260200D02*
X133217000Y-67890200D01*
X132902000Y-67575200D02*
X133532000Y-67575200D01*
%TO.C,C4*%
X199747000Y-95837021D02*
X197566000Y-95837021D01*
X199747000Y-95877021D02*
X197569000Y-95877021D01*
X199747000Y-95917021D02*
X197573000Y-95917021D01*
X199747000Y-95957021D02*
X197577000Y-95957021D01*
X199747000Y-95997021D02*
X197582000Y-95997021D01*
X199747000Y-96037021D02*
X197587000Y-96037021D01*
X199747000Y-96077021D02*
X197592000Y-96077021D01*
X199747000Y-96117021D02*
X197599000Y-96117021D01*
X199747000Y-96157021D02*
X197605000Y-96157021D01*
X199747000Y-96197021D02*
X197613000Y-96197021D01*
X199747000Y-96237021D02*
X197620000Y-96237021D01*
X199747000Y-96277021D02*
X197628000Y-96277021D01*
X199747000Y-96317021D02*
X197637000Y-96317021D01*
X199747000Y-96357021D02*
X197647000Y-96357021D01*
X199747000Y-96397021D02*
X197656000Y-96397021D01*
X199747000Y-96437021D02*
X197667000Y-96437021D01*
X199747000Y-96477021D02*
X197678000Y-96477021D01*
X199747000Y-96517021D02*
X197689000Y-96517021D01*
X199747000Y-96557021D02*
X197701000Y-96557021D01*
X199747000Y-96597021D02*
X197714000Y-96597021D01*
X199747000Y-96637021D02*
X197727000Y-96637021D01*
X199747000Y-96677021D02*
X197740000Y-96677021D01*
X199747000Y-96717021D02*
X197755000Y-96717021D01*
X199747000Y-96757021D02*
X197770000Y-96757021D01*
X199747000Y-96797021D02*
X197785000Y-96797021D01*
X199747000Y-96837021D02*
X197801000Y-96837021D01*
X199747000Y-96877021D02*
X197818000Y-96877021D01*
X199747000Y-96917021D02*
X197835000Y-96917021D01*
X199747000Y-96957021D02*
X197853000Y-96957021D01*
X199747000Y-96997021D02*
X197872000Y-96997021D01*
X199747000Y-97037021D02*
X197891000Y-97037021D01*
X199747000Y-97077021D02*
X197911000Y-97077021D01*
X199747000Y-97117021D02*
X197932000Y-97117021D01*
X199747000Y-97157021D02*
X197953000Y-97157021D01*
X199747000Y-97197021D02*
X197975000Y-97197021D01*
X199747000Y-97237021D02*
X197998000Y-97237021D01*
X199747000Y-97277021D02*
X198022000Y-97277021D01*
X199747000Y-97317021D02*
X198046000Y-97317021D01*
X199747000Y-97357021D02*
X198071000Y-97357021D01*
X199747000Y-97397021D02*
X198097000Y-97397021D01*
X199747000Y-97437021D02*
X198124000Y-97437021D01*
X199747000Y-97477021D02*
X198151000Y-97477021D01*
X199747000Y-97517021D02*
X198180000Y-97517021D01*
X199747000Y-97557021D02*
X198210000Y-97557021D01*
X199747000Y-97597021D02*
X198240000Y-97597021D01*
X199747000Y-97637021D02*
X198271000Y-97637021D01*
X199747000Y-97677021D02*
X198304000Y-97677021D01*
X199747000Y-97717021D02*
X198337000Y-97717021D01*
X199747000Y-97757021D02*
X198372000Y-97757021D01*
X199747000Y-97797021D02*
X198408000Y-97797021D01*
X199747000Y-97837021D02*
X198445000Y-97837021D01*
X199747000Y-97877021D02*
X198483000Y-97877021D01*
X201189000Y-98837021D02*
X200385000Y-98837021D01*
X201420000Y-98797021D02*
X200154000Y-98797021D01*
X201588000Y-98757021D02*
X199986000Y-98757021D01*
X201726000Y-98717021D02*
X199848000Y-98717021D01*
X201845000Y-98677021D02*
X199729000Y-98677021D01*
X201952000Y-98637021D02*
X199622000Y-98637021D01*
X202048000Y-98597021D02*
X199526000Y-98597021D01*
X202137000Y-98557021D02*
X199437000Y-98557021D01*
X202219000Y-98517021D02*
X199355000Y-98517021D01*
X202296000Y-98477021D02*
X199278000Y-98477021D01*
X202368000Y-98437021D02*
X199206000Y-98437021D01*
X202436000Y-98397021D02*
X199138000Y-98397021D01*
X202501000Y-98357021D02*
X199073000Y-98357021D01*
X202562000Y-98317021D02*
X199012000Y-98317021D01*
X202621000Y-98277021D02*
X198953000Y-98277021D01*
X202626000Y-92096780D02*
X202626000Y-92726780D01*
X202677000Y-98237021D02*
X198897000Y-98237021D01*
X202730000Y-98197021D02*
X198844000Y-98197021D01*
X202782000Y-98157021D02*
X198792000Y-98157021D01*
X202831000Y-98117021D02*
X198743000Y-98117021D01*
X202878000Y-98077021D02*
X198696000Y-98077021D01*
X202924000Y-98037021D02*
X198650000Y-98037021D01*
X202941000Y-92411780D02*
X202311000Y-92411780D01*
X202968000Y-97997021D02*
X198606000Y-97997021D01*
X203010000Y-97957021D02*
X198564000Y-97957021D01*
X203051000Y-97917021D02*
X198523000Y-97917021D01*
X203091000Y-97877021D02*
X201827000Y-97877021D01*
X203129000Y-97837021D02*
X201827000Y-97837021D01*
X203166000Y-97797021D02*
X201827000Y-97797021D01*
X203202000Y-97757021D02*
X201827000Y-97757021D01*
X203237000Y-97717021D02*
X201827000Y-97717021D01*
X203270000Y-97677021D02*
X201827000Y-97677021D01*
X203303000Y-97637021D02*
X201827000Y-97637021D01*
X203334000Y-97597021D02*
X201827000Y-97597021D01*
X203364000Y-97557021D02*
X201827000Y-97557021D01*
X203394000Y-97517021D02*
X201827000Y-97517021D01*
X203423000Y-97477021D02*
X201827000Y-97477021D01*
X203450000Y-97437021D02*
X201827000Y-97437021D01*
X203477000Y-97397021D02*
X201827000Y-97397021D01*
X203503000Y-97357021D02*
X201827000Y-97357021D01*
X203528000Y-97317021D02*
X201827000Y-97317021D01*
X203552000Y-97277021D02*
X201827000Y-97277021D01*
X203576000Y-97237021D02*
X201827000Y-97237021D01*
X203599000Y-97197021D02*
X201827000Y-97197021D01*
X203621000Y-97157021D02*
X201827000Y-97157021D01*
X203642000Y-97117021D02*
X201827000Y-97117021D01*
X203663000Y-97077021D02*
X201827000Y-97077021D01*
X203683000Y-97037021D02*
X201827000Y-97037021D01*
X203702000Y-96997021D02*
X201827000Y-96997021D01*
X203721000Y-96957021D02*
X201827000Y-96957021D01*
X203739000Y-96917021D02*
X201827000Y-96917021D01*
X203756000Y-96877021D02*
X201827000Y-96877021D01*
X203773000Y-96837021D02*
X201827000Y-96837021D01*
X203789000Y-96797021D02*
X201827000Y-96797021D01*
X203804000Y-96757021D02*
X201827000Y-96757021D01*
X203819000Y-96717021D02*
X201827000Y-96717021D01*
X203834000Y-96677021D02*
X201827000Y-96677021D01*
X203847000Y-96637021D02*
X201827000Y-96637021D01*
X203860000Y-96597021D02*
X201827000Y-96597021D01*
X203873000Y-96557021D02*
X201827000Y-96557021D01*
X203885000Y-96517021D02*
X201827000Y-96517021D01*
X203896000Y-96477021D02*
X201827000Y-96477021D01*
X203907000Y-96437021D02*
X201827000Y-96437021D01*
X203918000Y-96397021D02*
X201827000Y-96397021D01*
X203927000Y-96357021D02*
X201827000Y-96357021D01*
X203937000Y-96317021D02*
X201827000Y-96317021D01*
X203946000Y-96277021D02*
X201827000Y-96277021D01*
X203954000Y-96237021D02*
X201827000Y-96237021D01*
X203961000Y-96197021D02*
X201827000Y-96197021D01*
X203969000Y-96157021D02*
X201827000Y-96157021D01*
X203975000Y-96117021D02*
X201827000Y-96117021D01*
X203982000Y-96077021D02*
X201827000Y-96077021D01*
X203987000Y-96037021D02*
X201827000Y-96037021D01*
X203992000Y-95997021D02*
X201827000Y-95997021D01*
X203997000Y-95957021D02*
X201827000Y-95957021D01*
X204001000Y-95917021D02*
X201827000Y-95917021D01*
X204005000Y-95877021D02*
X201827000Y-95877021D01*
X204008000Y-95837021D02*
X201827000Y-95837021D01*
X204011000Y-95797021D02*
X197563000Y-95797021D01*
X204013000Y-95757021D02*
X197561000Y-95757021D01*
X204015000Y-95717021D02*
X197559000Y-95717021D01*
X204016000Y-95677021D02*
X197558000Y-95677021D01*
X204017000Y-95597021D02*
X197557000Y-95597021D01*
X204017000Y-95637021D02*
X197557000Y-95637021D01*
X204057000Y-95597021D02*
G75*
G02*
X197517000Y-95597021I-3270000J0D01*
G01*
X197517000Y-95597021D02*
G75*
G02*
X204057000Y-95597021I3270000J0D01*
G01*
%TO.C,C5*%
X228469379Y-93639600D02*
X229099379Y-93639600D01*
X228784379Y-93324600D02*
X228784379Y-93954600D01*
X231969620Y-92248600D02*
X231969620Y-98708600D01*
X232009620Y-92248600D02*
X232009620Y-98708600D01*
X232049620Y-92249600D02*
X232049620Y-98707600D01*
X232089620Y-92250600D02*
X232089620Y-98706600D01*
X232129620Y-92252600D02*
X232129620Y-98704600D01*
X232169620Y-92254600D02*
X232169620Y-98702600D01*
X232209620Y-92257600D02*
X232209620Y-94438600D01*
X232209620Y-96518600D02*
X232209620Y-98699600D01*
X232249620Y-92260600D02*
X232249620Y-94438600D01*
X232249620Y-96518600D02*
X232249620Y-98696600D01*
X232289620Y-92264600D02*
X232289620Y-94438600D01*
X232289620Y-96518600D02*
X232289620Y-98692600D01*
X232329620Y-92268600D02*
X232329620Y-94438600D01*
X232329620Y-96518600D02*
X232329620Y-98688600D01*
X232369620Y-92273600D02*
X232369620Y-94438600D01*
X232369620Y-96518600D02*
X232369620Y-98683600D01*
X232409620Y-92278600D02*
X232409620Y-94438600D01*
X232409620Y-96518600D02*
X232409620Y-98678600D01*
X232449620Y-92283600D02*
X232449620Y-94438600D01*
X232449620Y-96518600D02*
X232449620Y-98673600D01*
X232489620Y-92290600D02*
X232489620Y-94438600D01*
X232489620Y-96518600D02*
X232489620Y-98666600D01*
X232529620Y-92296600D02*
X232529620Y-94438600D01*
X232529620Y-96518600D02*
X232529620Y-98660600D01*
X232569620Y-92304600D02*
X232569620Y-94438600D01*
X232569620Y-96518600D02*
X232569620Y-98652600D01*
X232609620Y-92311600D02*
X232609620Y-94438600D01*
X232609620Y-96518600D02*
X232609620Y-98645600D01*
X232649620Y-92319600D02*
X232649620Y-94438600D01*
X232649620Y-96518600D02*
X232649620Y-98637600D01*
X232689620Y-92328600D02*
X232689620Y-94438600D01*
X232689620Y-96518600D02*
X232689620Y-98628600D01*
X232729620Y-92338600D02*
X232729620Y-94438600D01*
X232729620Y-96518600D02*
X232729620Y-98618600D01*
X232769620Y-92347600D02*
X232769620Y-94438600D01*
X232769620Y-96518600D02*
X232769620Y-98609600D01*
X232809620Y-92358600D02*
X232809620Y-94438600D01*
X232809620Y-96518600D02*
X232809620Y-98598600D01*
X232849620Y-92369600D02*
X232849620Y-94438600D01*
X232849620Y-96518600D02*
X232849620Y-98587600D01*
X232889620Y-92380600D02*
X232889620Y-94438600D01*
X232889620Y-96518600D02*
X232889620Y-98576600D01*
X232929620Y-92392600D02*
X232929620Y-94438600D01*
X232929620Y-96518600D02*
X232929620Y-98564600D01*
X232969620Y-92405600D02*
X232969620Y-94438600D01*
X232969620Y-96518600D02*
X232969620Y-98551600D01*
X233009620Y-92418600D02*
X233009620Y-94438600D01*
X233009620Y-96518600D02*
X233009620Y-98538600D01*
X233049620Y-92431600D02*
X233049620Y-94438600D01*
X233049620Y-96518600D02*
X233049620Y-98525600D01*
X233089620Y-92446600D02*
X233089620Y-94438600D01*
X233089620Y-96518600D02*
X233089620Y-98510600D01*
X233129620Y-92461600D02*
X233129620Y-94438600D01*
X233129620Y-96518600D02*
X233129620Y-98495600D01*
X233169620Y-92476600D02*
X233169620Y-94438600D01*
X233169620Y-96518600D02*
X233169620Y-98480600D01*
X233209620Y-92492600D02*
X233209620Y-94438600D01*
X233209620Y-96518600D02*
X233209620Y-98464600D01*
X233249620Y-92509600D02*
X233249620Y-94438600D01*
X233249620Y-96518600D02*
X233249620Y-98447600D01*
X233289620Y-92526600D02*
X233289620Y-94438600D01*
X233289620Y-96518600D02*
X233289620Y-98430600D01*
X233329620Y-92544600D02*
X233329620Y-94438600D01*
X233329620Y-96518600D02*
X233329620Y-98412600D01*
X233369620Y-92563600D02*
X233369620Y-94438600D01*
X233369620Y-96518600D02*
X233369620Y-98393600D01*
X233409620Y-92582600D02*
X233409620Y-94438600D01*
X233409620Y-96518600D02*
X233409620Y-98374600D01*
X233449620Y-92602600D02*
X233449620Y-94438600D01*
X233449620Y-96518600D02*
X233449620Y-98354600D01*
X233489620Y-92623600D02*
X233489620Y-94438600D01*
X233489620Y-96518600D02*
X233489620Y-98333600D01*
X233529620Y-92644600D02*
X233529620Y-94438600D01*
X233529620Y-96518600D02*
X233529620Y-98312600D01*
X233569620Y-92666600D02*
X233569620Y-94438600D01*
X233569620Y-96518600D02*
X233569620Y-98290600D01*
X233609620Y-92689600D02*
X233609620Y-94438600D01*
X233609620Y-96518600D02*
X233609620Y-98267600D01*
X233649620Y-92713600D02*
X233649620Y-94438600D01*
X233649620Y-96518600D02*
X233649620Y-98243600D01*
X233689620Y-92737600D02*
X233689620Y-94438600D01*
X233689620Y-96518600D02*
X233689620Y-98219600D01*
X233729620Y-92762600D02*
X233729620Y-94438600D01*
X233729620Y-96518600D02*
X233729620Y-98194600D01*
X233769620Y-92788600D02*
X233769620Y-94438600D01*
X233769620Y-96518600D02*
X233769620Y-98168600D01*
X233809620Y-92815600D02*
X233809620Y-94438600D01*
X233809620Y-96518600D02*
X233809620Y-98141600D01*
X233849620Y-92842600D02*
X233849620Y-94438600D01*
X233849620Y-96518600D02*
X233849620Y-98114600D01*
X233889620Y-92871600D02*
X233889620Y-94438600D01*
X233889620Y-96518600D02*
X233889620Y-98085600D01*
X233929620Y-92901600D02*
X233929620Y-94438600D01*
X233929620Y-96518600D02*
X233929620Y-98055600D01*
X233969620Y-92931600D02*
X233969620Y-94438600D01*
X233969620Y-96518600D02*
X233969620Y-98025600D01*
X234009620Y-92962600D02*
X234009620Y-94438600D01*
X234009620Y-96518600D02*
X234009620Y-97994600D01*
X234049620Y-92995600D02*
X234049620Y-94438600D01*
X234049620Y-96518600D02*
X234049620Y-97961600D01*
X234089620Y-93028600D02*
X234089620Y-94438600D01*
X234089620Y-96518600D02*
X234089620Y-97928600D01*
X234129620Y-93063600D02*
X234129620Y-94438600D01*
X234129620Y-96518600D02*
X234129620Y-97893600D01*
X234169620Y-93099600D02*
X234169620Y-94438600D01*
X234169620Y-96518600D02*
X234169620Y-97857600D01*
X234209620Y-93136600D02*
X234209620Y-94438600D01*
X234209620Y-96518600D02*
X234209620Y-97820600D01*
X234249620Y-93174600D02*
X234249620Y-94438600D01*
X234249620Y-96518600D02*
X234249620Y-97782600D01*
X234289620Y-93214600D02*
X234289620Y-97742600D01*
X234329620Y-93255600D02*
X234329620Y-97701600D01*
X234369620Y-93297600D02*
X234369620Y-97659600D01*
X234409620Y-93341600D02*
X234409620Y-97615600D01*
X234449620Y-93387600D02*
X234449620Y-97569600D01*
X234489620Y-93434600D02*
X234489620Y-97522600D01*
X234529620Y-93483600D02*
X234529620Y-97473600D01*
X234569620Y-93535600D02*
X234569620Y-97421600D01*
X234609620Y-93588600D02*
X234609620Y-97368600D01*
X234649620Y-93644600D02*
X234649620Y-97312600D01*
X234689620Y-93703600D02*
X234689620Y-97253600D01*
X234729620Y-93764600D02*
X234729620Y-97192600D01*
X234769620Y-93829600D02*
X234769620Y-97127600D01*
X234809620Y-93897600D02*
X234809620Y-97059600D01*
X234849620Y-93969600D02*
X234849620Y-96987600D01*
X234889620Y-94046600D02*
X234889620Y-96910600D01*
X234929620Y-94128600D02*
X234929620Y-96828600D01*
X234969620Y-94217600D02*
X234969620Y-96739600D01*
X235009620Y-94313600D02*
X235009620Y-96643600D01*
X235049620Y-94420600D02*
X235049620Y-96536600D01*
X235089620Y-94539600D02*
X235089620Y-96417600D01*
X235129620Y-94677600D02*
X235129620Y-96279600D01*
X235169620Y-94845600D02*
X235169620Y-96111600D01*
X235209620Y-95076600D02*
X235209620Y-95880600D01*
X235239620Y-95478600D02*
G75*
G02*
X228699620Y-95478600I-3270000J0D01*
G01*
X228699620Y-95478600D02*
G75*
G02*
X235239620Y-95478600I3270000J0D01*
G01*
%TO.C,C3*%
X218670200Y-94713248D02*
X218670200Y-95235752D01*
X220140200Y-94713248D02*
X220140200Y-95235752D01*
%TO.C,R23*%
X120610136Y-69699200D02*
X121064264Y-69699200D01*
X120610136Y-71169200D02*
X121064264Y-71169200D01*
%TO.C,U7*%
X78381000Y-97267800D02*
X78381000Y-102467800D01*
X78381000Y-102467800D02*
X83681000Y-102467800D01*
X80031000Y-97267800D02*
X78381000Y-97267800D01*
X83681000Y-97267800D02*
X82031000Y-97267800D01*
X83681000Y-102467800D02*
X83681000Y-97267800D01*
X82031000Y-97267800D02*
G75*
G02*
X80031000Y-97267800I-1000000J0D01*
G01*
%TO.C,C12*%
X113910200Y-81193979D02*
X113910200Y-80389979D01*
X113950200Y-81424979D02*
X113950200Y-80158979D01*
X113990200Y-81592979D02*
X113990200Y-79990979D01*
X114030200Y-81730979D02*
X114030200Y-79852979D01*
X114070200Y-81849979D02*
X114070200Y-79733979D01*
X114110200Y-81956979D02*
X114110200Y-79626979D01*
X114150200Y-82052979D02*
X114150200Y-79530979D01*
X114190200Y-82141979D02*
X114190200Y-79441979D01*
X114230200Y-82223979D02*
X114230200Y-79359979D01*
X114270200Y-82300979D02*
X114270200Y-79282979D01*
X114310200Y-82372979D02*
X114310200Y-79210979D01*
X114350200Y-82440979D02*
X114350200Y-79142979D01*
X114390200Y-82505979D02*
X114390200Y-79077979D01*
X114430200Y-82566979D02*
X114430200Y-79016979D01*
X114470200Y-82625979D02*
X114470200Y-78957979D01*
X114510200Y-82681979D02*
X114510200Y-78901979D01*
X114550200Y-82734979D02*
X114550200Y-78848979D01*
X114590200Y-82786979D02*
X114590200Y-78796979D01*
X114630200Y-82835979D02*
X114630200Y-78747979D01*
X114670200Y-82882979D02*
X114670200Y-78700979D01*
X114710200Y-82928979D02*
X114710200Y-78654979D01*
X114750200Y-82972979D02*
X114750200Y-78610979D01*
X114790200Y-83014979D02*
X114790200Y-78568979D01*
X114830200Y-83055979D02*
X114830200Y-78527979D01*
X114870200Y-79751979D02*
X114870200Y-78487979D01*
X114870200Y-83095979D02*
X114870200Y-81831979D01*
X114910200Y-79751979D02*
X114910200Y-78449979D01*
X114910200Y-83133979D02*
X114910200Y-81831979D01*
X114950200Y-79751979D02*
X114950200Y-78412979D01*
X114950200Y-83170979D02*
X114950200Y-81831979D01*
X114990200Y-79751979D02*
X114990200Y-78376979D01*
X114990200Y-83206979D02*
X114990200Y-81831979D01*
X115030200Y-79751979D02*
X115030200Y-78341979D01*
X115030200Y-83241979D02*
X115030200Y-81831979D01*
X115070200Y-79751979D02*
X115070200Y-78308979D01*
X115070200Y-83274979D02*
X115070200Y-81831979D01*
X115110200Y-79751979D02*
X115110200Y-78275979D01*
X115110200Y-83307979D02*
X115110200Y-81831979D01*
X115150200Y-79751979D02*
X115150200Y-78244979D01*
X115150200Y-83338979D02*
X115150200Y-81831979D01*
X115190200Y-79751979D02*
X115190200Y-78214979D01*
X115190200Y-83368979D02*
X115190200Y-81831979D01*
X115230200Y-79751979D02*
X115230200Y-78184979D01*
X115230200Y-83398979D02*
X115230200Y-81831979D01*
X115270200Y-79751979D02*
X115270200Y-78155979D01*
X115270200Y-83427979D02*
X115270200Y-81831979D01*
X115310200Y-79751979D02*
X115310200Y-78128979D01*
X115310200Y-83454979D02*
X115310200Y-81831979D01*
X115350200Y-79751979D02*
X115350200Y-78101979D01*
X115350200Y-83481979D02*
X115350200Y-81831979D01*
X115390200Y-79751979D02*
X115390200Y-78075979D01*
X115390200Y-83507979D02*
X115390200Y-81831979D01*
X115430200Y-79751979D02*
X115430200Y-78050979D01*
X115430200Y-83532979D02*
X115430200Y-81831979D01*
X115470200Y-79751979D02*
X115470200Y-78026979D01*
X115470200Y-83556979D02*
X115470200Y-81831979D01*
X115510200Y-79751979D02*
X115510200Y-78002979D01*
X115510200Y-83580979D02*
X115510200Y-81831979D01*
X115550200Y-79751979D02*
X115550200Y-77979979D01*
X115550200Y-83603979D02*
X115550200Y-81831979D01*
X115590200Y-79751979D02*
X115590200Y-77957979D01*
X115590200Y-83625979D02*
X115590200Y-81831979D01*
X115630200Y-79751979D02*
X115630200Y-77936979D01*
X115630200Y-83646979D02*
X115630200Y-81831979D01*
X115670200Y-79751979D02*
X115670200Y-77915979D01*
X115670200Y-83667979D02*
X115670200Y-81831979D01*
X115710200Y-79751979D02*
X115710200Y-77895979D01*
X115710200Y-83687979D02*
X115710200Y-81831979D01*
X115750200Y-79751979D02*
X115750200Y-77876979D01*
X115750200Y-83706979D02*
X115750200Y-81831979D01*
X115790200Y-79751979D02*
X115790200Y-77857979D01*
X115790200Y-83725979D02*
X115790200Y-81831979D01*
X115830200Y-79751979D02*
X115830200Y-77839979D01*
X115830200Y-83743979D02*
X115830200Y-81831979D01*
X115870200Y-79751979D02*
X115870200Y-77822979D01*
X115870200Y-83760979D02*
X115870200Y-81831979D01*
X115910200Y-79751979D02*
X115910200Y-77805979D01*
X115910200Y-83777979D02*
X115910200Y-81831979D01*
X115950200Y-79751979D02*
X115950200Y-77789979D01*
X115950200Y-83793979D02*
X115950200Y-81831979D01*
X115990200Y-79751979D02*
X115990200Y-77774979D01*
X115990200Y-83808979D02*
X115990200Y-81831979D01*
X116030200Y-79751979D02*
X116030200Y-77759979D01*
X116030200Y-83823979D02*
X116030200Y-81831979D01*
X116070200Y-79751979D02*
X116070200Y-77744979D01*
X116070200Y-83838979D02*
X116070200Y-81831979D01*
X116110200Y-79751979D02*
X116110200Y-77731979D01*
X116110200Y-83851979D02*
X116110200Y-81831979D01*
X116150200Y-79751979D02*
X116150200Y-77718979D01*
X116150200Y-83864979D02*
X116150200Y-81831979D01*
X116190200Y-79751979D02*
X116190200Y-77705979D01*
X116190200Y-83877979D02*
X116190200Y-81831979D01*
X116230200Y-79751979D02*
X116230200Y-77693979D01*
X116230200Y-83889979D02*
X116230200Y-81831979D01*
X116270200Y-79751979D02*
X116270200Y-77682979D01*
X116270200Y-83900979D02*
X116270200Y-81831979D01*
X116310200Y-79751979D02*
X116310200Y-77671979D01*
X116310200Y-83911979D02*
X116310200Y-81831979D01*
X116350200Y-79751979D02*
X116350200Y-77660979D01*
X116350200Y-83922979D02*
X116350200Y-81831979D01*
X116390200Y-79751979D02*
X116390200Y-77651979D01*
X116390200Y-83931979D02*
X116390200Y-81831979D01*
X116430200Y-79751979D02*
X116430200Y-77641979D01*
X116430200Y-83941979D02*
X116430200Y-81831979D01*
X116470200Y-79751979D02*
X116470200Y-77632979D01*
X116470200Y-83950979D02*
X116470200Y-81831979D01*
X116510200Y-79751979D02*
X116510200Y-77624979D01*
X116510200Y-83958979D02*
X116510200Y-81831979D01*
X116550200Y-79751979D02*
X116550200Y-77617979D01*
X116550200Y-83965979D02*
X116550200Y-81831979D01*
X116590200Y-79751979D02*
X116590200Y-77609979D01*
X116590200Y-83973979D02*
X116590200Y-81831979D01*
X116630200Y-79751979D02*
X116630200Y-77603979D01*
X116630200Y-83979979D02*
X116630200Y-81831979D01*
X116670200Y-79751979D02*
X116670200Y-77596979D01*
X116670200Y-83986979D02*
X116670200Y-81831979D01*
X116710200Y-79751979D02*
X116710200Y-77591979D01*
X116710200Y-83991979D02*
X116710200Y-81831979D01*
X116750200Y-79751979D02*
X116750200Y-77586979D01*
X116750200Y-83996979D02*
X116750200Y-81831979D01*
X116790200Y-79751979D02*
X116790200Y-77581979D01*
X116790200Y-84001979D02*
X116790200Y-81831979D01*
X116830200Y-79751979D02*
X116830200Y-77577979D01*
X116830200Y-84005979D02*
X116830200Y-81831979D01*
X116870200Y-79751979D02*
X116870200Y-77573979D01*
X116870200Y-84009979D02*
X116870200Y-81831979D01*
X116910200Y-79751979D02*
X116910200Y-77570979D01*
X116910200Y-84012979D02*
X116910200Y-81831979D01*
X116950200Y-84015979D02*
X116950200Y-77567979D01*
X116990200Y-84017979D02*
X116990200Y-77565979D01*
X117030200Y-84019979D02*
X117030200Y-77563979D01*
X117070200Y-84020979D02*
X117070200Y-77562979D01*
X117110200Y-84021979D02*
X117110200Y-77561979D01*
X117150200Y-84021979D02*
X117150200Y-77561979D01*
X120335441Y-82945979D02*
X120335441Y-82315979D01*
X120650441Y-82630979D02*
X120020441Y-82630979D01*
X120420200Y-80791979D02*
G75*
G02*
X113880200Y-80791979I-3270000J0D01*
G01*
X113880200Y-80791979D02*
G75*
G02*
X120420200Y-80791979I3270000J0D01*
G01*
%TO.C,R5*%
X126417400Y-66216264D02*
X126417400Y-65762136D01*
X127887400Y-66216264D02*
X127887400Y-65762136D01*
%TO.C,R20*%
X174439336Y-90628800D02*
X174893464Y-90628800D01*
X174439336Y-92098800D02*
X174893464Y-92098800D01*
%TD*%
M02*
