%TF.GenerationSoftware,KiCad,Pcbnew,10.0.4*%
%TF.CreationDate,2026-07-16T22:42:47+02:00*%
%TF.ProjectId,nixieclocklogic_V2-2,6e697869-6563-46c6-9f63-6b6c6f676963,2.2*%
%TF.SameCoordinates,Original*%
%TF.FileFunction,Copper,L1,Top*%
%TF.FilePolarity,Positive*%
%FSLAX46Y46*%
G04 Gerber Fmt 4.6, Leading zero omitted, Abs format (unit mm)*
G04 Created by KiCad (PCBNEW 10.0.4) date 2026-07-16 22:42:47*
%MOMM*%
%LPD*%
G01*
G04 APERTURE LIST*
G04 Aperture macros list*
%AMRoundRect*
0 Rectangle with rounded corners*
0 $1 Rounding radius*
0 $2 $3 $4 $5 $6 $7 $8 $9 X,Y pos of 4 corners*
0 Add a 4 corners polygon primitive as box body*
4,1,4,$2,$3,$4,$5,$6,$7,$8,$9,$2,$3,0*
0 Add four circle primitives for the rounded corners*
1,1,$1+$1,$2,$3*
1,1,$1+$1,$4,$5*
1,1,$1+$1,$6,$7*
1,1,$1+$1,$8,$9*
0 Add four rect primitives between the rounded corners*
20,1,$1+$1,$2,$3,$4,$5,0*
20,1,$1+$1,$4,$5,$6,$7,0*
20,1,$1+$1,$6,$7,$8,$9,0*
20,1,$1+$1,$8,$9,$2,$3,0*%
G04 Aperture macros list end*
%TA.AperFunction,SMDPad,CuDef*%
%ADD10RoundRect,0.250000X-0.450000X0.350000X-0.450000X-0.350000X0.450000X-0.350000X0.450000X0.350000X0*%
%TD*%
%TA.AperFunction,ComponentPad*%
%ADD11R,1.700000X1.700000*%
%TD*%
%TA.AperFunction,ComponentPad*%
%ADD12C,1.700000*%
%TD*%
%TA.AperFunction,SMDPad,CuDef*%
%ADD13RoundRect,0.250000X0.350000X0.450000X-0.350000X0.450000X-0.350000X-0.450000X0.350000X-0.450000X0*%
%TD*%
%TA.AperFunction,SMDPad,CuDef*%
%ADD14RoundRect,0.375000X0.625000X0.375000X-0.625000X0.375000X-0.625000X-0.375000X0.625000X-0.375000X0*%
%TD*%
%TA.AperFunction,SMDPad,CuDef*%
%ADD15RoundRect,0.500000X0.500000X1.400000X-0.500000X1.400000X-0.500000X-1.400000X0.500000X-1.400000X0*%
%TD*%
%TA.AperFunction,ComponentPad*%
%ADD16RoundRect,0.250000X-0.550000X-0.550000X0.550000X-0.550000X0.550000X0.550000X-0.550000X0.550000X0*%
%TD*%
%TA.AperFunction,ComponentPad*%
%ADD17C,1.600000*%
%TD*%
%TA.AperFunction,SMDPad,CuDef*%
%ADD18R,2.000000X0.900000*%
%TD*%
%TA.AperFunction,SMDPad,CuDef*%
%ADD19R,0.935000X2.000000*%
%TD*%
%TA.AperFunction,SMDPad,CuDef*%
%ADD20R,0.900000X2.000000*%
%TD*%
%TA.AperFunction,SMDPad,CuDef*%
%ADD21R,0.895000X2.000000*%
%TD*%
%TA.AperFunction,HeatsinkPad*%
%ADD22C,0.600000*%
%TD*%
%TA.AperFunction,HeatsinkPad*%
%ADD23R,3.900000X3.900000*%
%TD*%
%TA.AperFunction,ComponentPad*%
%ADD24O,3.200000X3.200000*%
%TD*%
%TA.AperFunction,ComponentPad*%
%ADD25RoundRect,0.250000X0.900000X-0.750000X0.900000X0.750000X-0.900000X0.750000X-0.900000X-0.750000X0*%
%TD*%
%TA.AperFunction,ComponentPad*%
%ADD26O,2.300000X2.000000*%
%TD*%
%TA.AperFunction,ComponentPad*%
%ADD27C,1.000000*%
%TD*%
%TA.AperFunction,SMDPad,CuDef*%
%ADD28RoundRect,0.155000X0.155000X-0.212500X0.155000X0.212500X-0.155000X0.212500X-0.155000X-0.212500X0*%
%TD*%
%TA.AperFunction,ComponentPad*%
%ADD29RoundRect,0.250000X-0.550000X0.550000X-0.550000X-0.550000X0.550000X-0.550000X0.550000X0.550000X0*%
%TD*%
%TA.AperFunction,SMDPad,CuDef*%
%ADD30RoundRect,0.250000X-0.475000X0.337500X-0.475000X-0.337500X0.475000X-0.337500X0.475000X0.337500X0*%
%TD*%
%TA.AperFunction,SMDPad,CuDef*%
%ADD31RoundRect,0.155000X-0.155000X0.212500X-0.155000X-0.212500X0.155000X-0.212500X0.155000X0.212500X0*%
%TD*%
%TA.AperFunction,SMDPad,CuDef*%
%ADD32RoundRect,0.250000X-0.350000X-0.450000X0.350000X-0.450000X0.350000X0.450000X-0.350000X0.450000X0*%
%TD*%
%TA.AperFunction,ComponentPad*%
%ADD33RoundRect,0.250000X0.550000X0.550000X-0.550000X0.550000X-0.550000X-0.550000X0.550000X-0.550000X0*%
%TD*%
%TA.AperFunction,SMDPad,CuDef*%
%ADD34RoundRect,0.250000X0.450000X-0.350000X0.450000X0.350000X-0.450000X0.350000X-0.450000X-0.350000X0*%
%TD*%
%TA.AperFunction,ComponentPad*%
%ADD35RoundRect,0.248400X-0.651600X-0.651600X0.651600X-0.651600X0.651600X0.651600X-0.651600X0.651600X0*%
%TD*%
%TA.AperFunction,ComponentPad*%
%ADD36C,1.800000*%
%TD*%
%TA.AperFunction,ComponentPad*%
%ADD37O,1.550000X0.890000*%
%TD*%
%TA.AperFunction,ComponentPad*%
%ADD38O,0.950000X1.250000*%
%TD*%
%TA.AperFunction,ComponentPad*%
%ADD39R,3.000000X3.000000*%
%TD*%
%TA.AperFunction,ComponentPad*%
%ADD40C,3.000000*%
%TD*%
%TA.AperFunction,ViaPad*%
%ADD41C,0.600000*%
%TD*%
%TA.AperFunction,ViaPad*%
%ADD42C,0.800000*%
%TD*%
%TA.AperFunction,Conductor*%
%ADD43C,0.600000*%
%TD*%
%TA.AperFunction,Conductor*%
%ADD44C,0.300000*%
%TD*%
G04 APERTURE END LIST*
D10*
%TO.P,R2,1*%
%TO.N,+3.3V*%
X159740600Y-70288400D03*
%TO.P,R2,2*%
%TO.N,Net-(U1-EN)*%
X159740600Y-72288400D03*
%TD*%
D11*
%TO.P,J3,1,Pin_1_1*%
%TO.N,VCC*%
X156730395Y-63756586D03*
D12*
%TO.P,J3,2,Pin_2_2*%
X154190395Y-63756586D03*
%TO.P,J3,3,Pin_3_3*%
%TO.N,/SCL*%
X151650395Y-63756586D03*
%TO.P,J3,4,Pin_4_4*%
%TO.N,/SDA*%
X149110395Y-63756586D03*
%TO.P,J3,5,Pin_5_5*%
%TO.N,unconnected-(J3-Pin_5-Pad5)*%
X146570395Y-63756586D03*
%TO.P,J3,6,Pin_6_6*%
%TO.N,Net-(J3-Pin_6)*%
X144030395Y-63756586D03*
%TO.P,J3,7,Pin_7_7*%
%TO.N,GND*%
X141490395Y-63756586D03*
%TO.P,J3,8,Pin_8_8*%
X138950395Y-63756586D03*
%TD*%
D13*
%TO.P,R4,1*%
%TO.N,Net-(U1-IO6)*%
X132191000Y-66929000D03*
%TO.P,R4,2*%
%TO.N,Net-(C6-Pad1)*%
X130191000Y-66929000D03*
%TD*%
D14*
%TO.P,U5,1,ADJ_1*%
%TO.N,GND*%
X213818000Y-96686400D03*
%TO.P,U5,2,VO_2*%
%TO.N,+3.3V*%
X213818000Y-94386400D03*
D15*
X207518000Y-94386400D03*
D14*
%TO.P,U5,3,VI_3*%
%TO.N,VCC*%
X213818000Y-92086400D03*
%TD*%
D16*
%TO.P,U2,1,VCC2_1*%
%TO.N,+3.3V*%
X142626000Y-71983600D03*
D17*
%TO.P,U2,2,X1_2*%
%TO.N,Net-(U2-X1)*%
X142626000Y-74523600D03*
%TO.P,U2,3,X2_3*%
%TO.N,Net-(U2-X2)*%
X142626000Y-77063600D03*
%TO.P,U2,4,GND_4*%
%TO.N,GND*%
X142626000Y-79603600D03*
%TO.P,U2,5,CE_5*%
%TO.N,Net-(U1-IO2)*%
X150246000Y-79603600D03*
%TO.P,U2,6,I/O_6*%
%TO.N,Net-(U1-IO4)*%
X150246000Y-77063600D03*
%TO.P,U2,7,SCLK_7*%
%TO.N,Net-(U1-IO5)*%
X150246000Y-74523600D03*
%TO.P,U2,8,VCC1_8*%
%TO.N,Net-(BT1-+)*%
X150246000Y-71983600D03*
%TD*%
D10*
%TO.P,R7,1*%
%TO.N,Net-(U1-IO7)*%
X77241400Y-81312000D03*
%TO.P,R7,2*%
%TO.N,Net-(R7-Pad2)*%
X77241400Y-83312000D03*
%TD*%
D17*
%TO.P,C6,1*%
%TO.N,Net-(C6-Pad1)*%
X135148000Y-69418200D03*
%TO.P,C6,2*%
%TO.N,GND*%
X137648000Y-69418200D03*
%TD*%
D18*
%TO.P,U1,1,GND_1*%
%TO.N,GND*%
X163439000Y-69366000D03*
%TO.P,U1,2,3V3_2*%
%TO.N,+3.3V*%
X163439000Y-70636000D03*
%TO.P,U1,3,EN_3*%
%TO.N,Net-(U1-EN)*%
X163439000Y-71906000D03*
%TO.P,U1,4,IO4_4*%
%TO.N,Net-(U1-IO4)*%
X163439000Y-73176000D03*
%TO.P,U1,5,IO5_5*%
%TO.N,Net-(U1-IO5)*%
X163439000Y-74446000D03*
%TO.P,U1,6,IO6_6*%
%TO.N,Net-(U1-IO6)*%
X163439000Y-75716000D03*
%TO.P,U1,7,IO7_7*%
%TO.N,Net-(U1-IO7)*%
X163439000Y-76986000D03*
%TO.P,U1,8,IO15_8*%
%TO.N,unconnected-(U1-IO15-Pad8)*%
X163439000Y-78256000D03*
%TO.P,U1,9,IO16_9*%
%TO.N,unconnected-(U1-IO16-Pad9)*%
X163439000Y-79526000D03*
%TO.P,U1,10,IO17_10*%
%TO.N,unconnected-(U1-IO17-Pad10)*%
X163439000Y-80796000D03*
%TO.P,U1,11,IO18_11*%
%TO.N,unconnected-(U1-IO18-Pad11)*%
X163439000Y-82066000D03*
%TO.P,U1,12,IO8_12*%
%TO.N,/SDA*%
X163439000Y-83336000D03*
%TO.P,U1,13,USB_D-_13*%
%TO.N,Net-(U1-USB_D-)*%
X163439000Y-84606000D03*
%TO.P,U1,14,USB_D+_14*%
%TO.N,Net-(U1-USB_D+)*%
X163439000Y-85876000D03*
D19*
%TO.P,U1,15,IO3_15*%
%TO.N,unconnected-(U1-IO3-Pad15)*%
X165471500Y-87376000D03*
D20*
%TO.P,U1,16,IO46_16*%
%TO.N,unconnected-(U1-IO46-Pad16)*%
X166724000Y-87376000D03*
D21*
%TO.P,U1,17,IO9_17*%
%TO.N,/SCL*%
X167991500Y-87376000D03*
D20*
%TO.P,U1,18,IO10_18*%
%TO.N,Net-(U1-IO10)*%
X169264000Y-87376000D03*
%TO.P,U1,19,IO11_19*%
%TO.N,Net-(U1-IO11)*%
X170534000Y-87376000D03*
%TO.P,U1,20,IO12_20*%
%TO.N,Net-(U1-IO12)*%
X171804000Y-87376000D03*
%TO.P,U1,21,IO13_21*%
%TO.N,Net-(U1-IO13)*%
X173074000Y-87376000D03*
%TO.P,U1,22,IO14_22*%
%TO.N,unconnected-(U1-IO14-Pad22)*%
X174344000Y-87376000D03*
%TO.P,U1,23,IO21_23*%
%TO.N,Net-(U1-IO21)*%
X175614000Y-87376000D03*
%TO.P,U1,24,IO47_24*%
%TO.N,unconnected-(U1-IO47-Pad24)*%
X176884000Y-87376000D03*
%TO.P,U1,25,IO48_25*%
%TO.N,Net-(U1-IO48)*%
X178154000Y-87376000D03*
%TO.P,U1,26,IO45_26*%
%TO.N,unconnected-(U1-IO45-Pad26)*%
X179424000Y-87376000D03*
D18*
%TO.P,U1,27,IO0_27*%
%TO.N,Net-(U1-IO0)*%
X181439000Y-85876000D03*
%TO.P,U1,28,IO35_28*%
%TO.N,unconnected-(U1-IO35-Pad28)*%
X181439000Y-84606000D03*
%TO.P,U1,29,IO36_29*%
%TO.N,unconnected-(U1-IO36-Pad29)*%
X181439000Y-83336000D03*
%TO.P,U1,30,IO37_30*%
%TO.N,unconnected-(U1-IO37-Pad30)*%
X181439000Y-82066000D03*
%TO.P,U1,31,IO38_31*%
%TO.N,unconnected-(U1-IO38-Pad31)*%
X181439000Y-80796000D03*
%TO.P,U1,32,IO39_32*%
%TO.N,unconnected-(U1-IO39-Pad32)*%
X181439000Y-79526000D03*
%TO.P,U1,33,IO40_33*%
%TO.N,unconnected-(U1-IO40-Pad33)*%
X181439000Y-78256000D03*
%TO.P,U1,34,IO41_34*%
%TO.N,unconnected-(U1-IO41-Pad34)*%
X181439000Y-76986000D03*
%TO.P,U1,35,IO42_35*%
%TO.N,unconnected-(U1-IO42-Pad35)*%
X181439000Y-75716000D03*
%TO.P,U1,36,RXD0_36*%
%TO.N,unconnected-(U1-RXD0-Pad36)*%
X181439000Y-74446000D03*
%TO.P,U1,37,TXD0_37*%
%TO.N,unconnected-(U1-TXD0-Pad37)*%
X181439000Y-73176000D03*
%TO.P,U1,38,IO2_38*%
%TO.N,Net-(U1-IO2)*%
X181439000Y-71906000D03*
%TO.P,U1,39,IO1_39*%
%TO.N,unconnected-(U1-IO1-Pad39)*%
X181439000Y-70636000D03*
%TO.P,U1,40,GND_40*%
%TO.N,GND*%
X181439000Y-69366000D03*
D22*
%TO.P,U1,41,GND_41*%
X169539000Y-76386000D03*
X169539000Y-77786000D03*
X170239000Y-75686000D03*
X170239000Y-77086000D03*
X170239000Y-78486000D03*
X170939000Y-76386000D03*
D23*
X170939000Y-77086000D03*
D22*
X170939000Y-77786000D03*
X171639000Y-75686000D03*
X171639000Y-77086000D03*
X171639000Y-78486000D03*
X172339000Y-76386000D03*
X172339000Y-77786000D03*
%TD*%
D13*
%TO.P,R22,1*%
%TO.N,+3.3V*%
X116205000Y-70459600D03*
%TO.P,R22,2*%
%TO.N,Net-(U1-IO48)*%
X114205000Y-70459600D03*
%TD*%
D24*
%TO.P,U4,*%
%TO.N,*%
X105016200Y-93356408D03*
D25*
%TO.P,U4,1,VIN_1*%
%TO.N,/10V*%
X83642200Y-67491408D03*
D26*
%TO.P,U4,2,GND_2*%
%TO.N,GND*%
X83642200Y-70031408D03*
%TO.P,U4,3,SHDN_3*%
X83642200Y-72571408D03*
%TO.P,U4,4,GNDHV_4*%
%TO.N,/HVgnd*%
X83642200Y-90624408D03*
%TO.P,U4,5,VOUT_5*%
%TO.N,/HV*%
X83642200Y-93164408D03*
%TD*%
D27*
%TO.P,Y1,1,1_1*%
%TO.N,Net-(U2-X1)*%
X136345800Y-74726800D03*
%TO.P,Y1,2,2_2*%
%TO.N,Net-(U2-X2)*%
X136345800Y-77266800D03*
%TD*%
D11*
%TO.P,J4,1,Pin_1_1*%
%TO.N,/HV2*%
X88203688Y-104622358D03*
D12*
%TO.P,J4,2,Pin_2_2*%
X85663688Y-104622358D03*
%TO.P,J4,3,Pin_3_3*%
%TO.N,/HVgnd*%
X83123688Y-104622358D03*
%TO.P,J4,4,Pin_4_4*%
X80583688Y-104622358D03*
%TD*%
D28*
%TO.P,C1,1*%
%TO.N,Net-(U2-X1)*%
X139420600Y-74447400D03*
%TO.P,C1,2*%
%TO.N,GND*%
X139420600Y-73312400D03*
%TD*%
D25*
%TO.P,U6,1,VIN_1*%
%TO.N,VCC*%
X224279000Y-88253600D03*
D26*
%TO.P,U6,2,GND_2*%
%TO.N,GND*%
X224274000Y-71053600D03*
%TO.P,U6,3,VOUT_3*%
%TO.N,/10V*%
X185074000Y-88353600D03*
%TO.P,U6,4,GND_4*%
%TO.N,GND*%
X185074000Y-71053600D03*
%TD*%
D29*
%TO.P,C4,1*%
%TO.N,+3.3V*%
X200787000Y-94347021D03*
D17*
%TO.P,C4,2*%
%TO.N,GND*%
X200787000Y-96847021D03*
%TD*%
D16*
%TO.P,C5,1*%
%TO.N,VCC*%
X230719620Y-95478600D03*
D17*
%TO.P,C5,2*%
%TO.N,GND*%
X233219620Y-95478600D03*
%TD*%
D30*
%TO.P,C3,1*%
%TO.N,VCC*%
X219405200Y-93937000D03*
%TO.P,C3,2*%
%TO.N,GND*%
X219405200Y-96012000D03*
%TD*%
D31*
%TO.P,C2,1*%
%TO.N,Net-(U2-X2)*%
X139369800Y-77673200D03*
%TO.P,C2,2*%
%TO.N,GND*%
X139369800Y-78808200D03*
%TD*%
D32*
%TO.P,R23,1*%
%TO.N,+3.3V*%
X119837200Y-70434200D03*
%TO.P,R23,2*%
%TO.N,Net-(U3-Vs)*%
X121837200Y-70434200D03*
%TD*%
D16*
%TO.P,U7,1*%
%TO.N,Net-(R7-Pad2)*%
X77221000Y-98597800D03*
D17*
%TO.P,U7,2*%
%TO.N,GND*%
X77221000Y-101137800D03*
%TO.P,U7,3*%
%TO.N,/HV2*%
X84841000Y-101137800D03*
%TO.P,U7,4*%
%TO.N,/HV*%
X84841000Y-98597800D03*
%TD*%
D33*
%TO.P,C12,1*%
%TO.N,Net-(U3-Vs)*%
X118428779Y-78308200D03*
D17*
%TO.P,C12,2*%
%TO.N,GND*%
X115928779Y-78308200D03*
%TD*%
D34*
%TO.P,R5,1*%
%TO.N,Net-(C6-Pad1)*%
X127152400Y-66989200D03*
%TO.P,R5,2*%
%TO.N,GND*%
X127152400Y-64989200D03*
%TD*%
D32*
%TO.P,R20,1*%
%TO.N,Net-(J3-Pin_6)*%
X173666400Y-91363800D03*
%TO.P,R20,2*%
%TO.N,Net-(U1-IO21)*%
X175666400Y-91363800D03*
%TD*%
D35*
%TO.P,U3,1,OUT_1*%
%TO.N,Net-(U1-IO48)*%
X115417600Y-65500800D03*
D36*
%TO.P,U3,2,GND_2*%
%TO.N,GND*%
X117957600Y-65500800D03*
%TO.P,U3,3,Vs_3*%
%TO.N,Net-(U3-Vs)*%
X120497600Y-65500800D03*
%TD*%
D17*
%TO.P,R6,1*%
%TO.N,+3.3V*%
X124612400Y-70358000D03*
%TO.P,R6,2*%
%TO.N,Net-(C6-Pad1)*%
X127152400Y-70358000D03*
%TD*%
D37*
%TO.P,J2,SH,Shield_SH*%
%TO.N,GND*%
X237875600Y-82352000D03*
D38*
X235175600Y-83352000D03*
X235175600Y-88352000D03*
D37*
X237875600Y-89352000D03*
%TD*%
D39*
%TO.P,BT1,1,+_1*%
%TO.N,Net-(BT1-+)*%
X143547055Y-91186000D03*
D40*
%TO.P,BT1,2,-_2*%
%TO.N,GND*%
X122747055Y-91186000D03*
%TD*%
D11*
%TO.P,J1,1,Pin_1_1*%
%TO.N,VCC*%
X229992902Y-81965800D03*
D12*
%TO.P,J1,2,Pin_2_2*%
%TO.N,Net-(J1-Pin_2)*%
X229992902Y-84505800D03*
%TO.P,J1,3,Pin_3_3*%
%TO.N,Net-(J1-Pin_3)*%
X229992902Y-87045800D03*
%TO.P,J1,4,Pin_4_4*%
%TO.N,GND*%
X229992902Y-89585800D03*
%TD*%
D41*
%TO.N,*%
X187909200Y-89230200D03*
X204444600Y-89255600D03*
D42*
%TO.N,+3.3V*%
X118059200Y-72974200D03*
X157784800Y-69316600D03*
X187426600Y-84810600D03*
X124612400Y-71983600D03*
%TO.N,VCC*%
X184023000Y-73507600D03*
D41*
%TO.N,GND*%
X152120600Y-86283800D03*
X167640000Y-92710000D03*
X159994600Y-87477600D03*
X160070800Y-78282800D03*
D42*
X194259200Y-84836000D03*
D41*
X153390600Y-90297000D03*
D42*
X73837800Y-83413600D03*
D41*
X166344600Y-78206600D03*
%TO.N,Net-(U1-IO6)*%
X153898600Y-78486000D03*
X160858200Y-75768200D03*
%TO.N,Net-(U1-IO2)*%
X177673000Y-76098400D03*
%TO.N,Net-(U1-IO4)*%
X161442400Y-73355200D03*
%TO.N,Net-(U1-IO5)*%
X158419800Y-74574400D03*
%TO.N,Net-(U1-IO7)*%
X158470600Y-80568800D03*
X157099000Y-92024200D03*
%TO.N,Net-(U1-USB_D-)*%
X165379400Y-84683600D03*
%TO.N,Net-(U1-USB_D+)*%
X161010600Y-85902800D03*
%TO.N,Net-(U1-IO10)*%
X169341800Y-84582000D03*
%TO.N,Net-(U1-IO11)*%
X170586400Y-84912200D03*
%TO.N,Net-(U1-IO12)*%
X171780200Y-84683600D03*
%TO.N,Net-(U1-IO13)*%
X173050200Y-85039200D03*
%TO.N,Net-(U1-IO0)*%
X181432200Y-97790000D03*
%TD*%
%TO.N,+3.3V*%
D43*
X118059200Y-72974200D02*
X118059200Y-70637400D01*
X158756600Y-70288400D02*
X159740600Y-70288400D01*
X207478621Y-94347021D02*
X207518000Y-94386400D01*
X159740600Y-70288400D02*
X160088200Y-70636000D01*
X118262400Y-70434200D02*
X119837200Y-70434200D01*
X213818000Y-94386400D02*
X207518000Y-94386400D01*
X118059200Y-70637400D02*
X117754400Y-70637400D01*
X117754400Y-70637400D02*
X117576600Y-70459600D01*
X117576600Y-70459600D02*
X116205000Y-70459600D01*
X196963021Y-94347021D02*
X200787000Y-94347021D01*
X187426600Y-84810600D02*
X196963021Y-94347021D01*
X142626000Y-71983600D02*
X142626000Y-71927800D01*
X160088200Y-70636000D02*
X163439000Y-70636000D01*
X118059200Y-70637400D02*
X118262400Y-70434200D01*
X200787000Y-94347021D02*
X207478621Y-94347021D01*
X124612400Y-70383400D02*
X124612400Y-71983600D01*
X207492600Y-94361000D02*
X207518000Y-94386400D01*
X157784800Y-69316600D02*
X158756600Y-70288400D01*
%TO.N,Net-(U1-EN)*%
D44*
X159740600Y-72288400D02*
X160123000Y-71906000D01*
X160123000Y-71906000D02*
X163439000Y-71906000D01*
%TO.N,VCC*%
D43*
X195910200Y-99618800D02*
X188671200Y-92379800D01*
X229967502Y-81991200D02*
X229992902Y-81965800D01*
X226579420Y-99618800D02*
X195910200Y-99618800D01*
X229178020Y-93937000D02*
X229090400Y-93937000D01*
X224434400Y-88366400D02*
X224450200Y-88382200D01*
X188709200Y-92341800D02*
X188709200Y-88099800D01*
X188671200Y-92379800D02*
X188709200Y-92341800D01*
X230719620Y-95478600D02*
X226579420Y-99618800D01*
X229090400Y-93937000D02*
X227380800Y-92227400D01*
X229178020Y-93937000D02*
X230719620Y-95478600D01*
X227380800Y-82981800D02*
X228371400Y-81991200D01*
X156730395Y-63756586D02*
X154190395Y-63756586D01*
X219405200Y-93937000D02*
X229178020Y-93937000D01*
X227380800Y-92227400D02*
X227380800Y-82981800D01*
X219405200Y-93937000D02*
X218295400Y-93937000D01*
X228371400Y-81991200D02*
X229967502Y-81991200D01*
X188709200Y-88099800D02*
X184023000Y-83413600D01*
X184023000Y-83413600D02*
X184023000Y-73507600D01*
X218295400Y-93937000D02*
X216444800Y-92086400D01*
X216444800Y-92086400D02*
X213818000Y-92086400D01*
%TO.N,/SCL*%
D44*
X165155600Y-68026000D02*
X167991500Y-70861900D01*
X153446200Y-68026000D02*
X165155600Y-68026000D01*
X167991500Y-70861900D02*
X167991500Y-87376000D01*
X151650395Y-66230195D02*
X153446200Y-68026000D01*
X151650395Y-63756586D02*
X151650395Y-66230195D01*
%TO.N,/SDA*%
X156921200Y-70688200D02*
X155575000Y-69342000D01*
X159561400Y-83336000D02*
X156921200Y-80695800D01*
X152894995Y-69342000D02*
X149110395Y-65557400D01*
X149110395Y-65557400D02*
X149110395Y-63756586D01*
X155575000Y-69342000D02*
X152894995Y-69342000D01*
X156921200Y-80695800D02*
X156921200Y-70688200D01*
X163439000Y-83336000D02*
X159561400Y-83336000D01*
%TO.N,Net-(J3-Pin_6)*%
X152527000Y-70231000D02*
X147848495Y-65552495D01*
X155702000Y-85293200D02*
X155702000Y-71958200D01*
X145826305Y-65552495D02*
X144030395Y-63756586D01*
X155702000Y-71958200D02*
X153974800Y-70231000D01*
X173666400Y-91363800D02*
X161772600Y-91363800D01*
X161772600Y-91363800D02*
X155702000Y-85293200D01*
X147848495Y-65552495D02*
X145826305Y-65552495D01*
X153974800Y-70231000D02*
X152527000Y-70231000D01*
%TO.N,GND*%
D43*
X73837800Y-99745800D02*
X73837800Y-83413600D01*
X77221000Y-101137800D02*
X75229800Y-101137800D01*
X75229800Y-101137800D02*
X73837800Y-99745800D01*
%TO.N,Net-(U1-IO6)*%
D44*
X147574000Y-66929000D02*
X153898600Y-73253600D01*
X132191000Y-66929000D02*
X147574000Y-66929000D01*
X153898600Y-73253600D02*
X153898600Y-78486000D01*
X163386800Y-75768200D02*
X163439000Y-75716000D01*
X160858200Y-75768200D02*
X163386800Y-75768200D01*
%TO.N,Net-(C6-Pad1)*%
X131622800Y-69418200D02*
X135148000Y-69418200D01*
X127152400Y-66989200D02*
X130130800Y-66989200D01*
X130191000Y-66929000D02*
X130191000Y-67986400D01*
X127152400Y-70383400D02*
X127152400Y-66989200D01*
X130191000Y-67986400D02*
X131622800Y-69418200D01*
X130130800Y-66989200D02*
X130191000Y-66929000D01*
%TO.N,Net-(U2-X1)*%
X139420600Y-74447400D02*
X139674600Y-74447400D01*
X139674600Y-74447400D02*
X139750800Y-74523600D01*
X139750800Y-74523600D02*
X142626000Y-74523600D01*
X136345800Y-74726800D02*
X139141200Y-74726800D01*
X139141200Y-74726800D02*
X139420600Y-74447400D01*
%TO.N,Net-(U2-X2)*%
X139674600Y-77673200D02*
X140284200Y-77063600D01*
X140284200Y-77063600D02*
X142626000Y-77063600D01*
X136345800Y-77266800D02*
X138963400Y-77266800D01*
X139369800Y-77673200D02*
X139674600Y-77673200D01*
X138963400Y-77266800D02*
X139369800Y-77673200D01*
%TO.N,Net-(U1-IO2)*%
X177673000Y-76098400D02*
X177673000Y-74066400D01*
X177673000Y-74066400D02*
X179833400Y-71906000D01*
X179833400Y-71906000D02*
X181439000Y-71906000D01*
%TO.N,Net-(U1-IO4)*%
X161621600Y-73176000D02*
X163439000Y-73176000D01*
X161442400Y-73355200D02*
X161621600Y-73176000D01*
%TO.N,Net-(U1-IO5)*%
X158548200Y-74446000D02*
X163439000Y-74446000D01*
X158419800Y-74574400D02*
X158548200Y-74446000D01*
%TO.N,Net-(BT1-+)*%
X150246000Y-71983600D02*
X148132800Y-71983600D01*
X148132800Y-71983600D02*
X146380200Y-73736200D01*
X146380200Y-73736200D02*
X146380200Y-88352855D01*
X146380200Y-88352855D02*
X143547055Y-91186000D01*
%TO.N,Net-(U1-IO7)*%
X158470600Y-77901800D02*
X159386400Y-76986000D01*
X159386400Y-76986000D02*
X163439000Y-76986000D01*
X77241400Y-81312000D02*
X77241400Y-66776600D01*
X157048200Y-91973400D02*
X157099000Y-92024200D01*
X90285800Y-64250800D02*
X123850400Y-97815400D01*
X157048200Y-91948000D02*
X157048200Y-91973400D01*
X79767200Y-64250800D02*
X90285800Y-64250800D01*
X151180800Y-97815400D02*
X157048200Y-91948000D01*
X77241400Y-66776600D02*
X79767200Y-64250800D01*
X123850400Y-97815400D02*
X151180800Y-97815400D01*
X158470600Y-80568800D02*
X158470600Y-77901800D01*
%TO.N,Net-(R7-Pad2)*%
X77221000Y-83332400D02*
X77241400Y-83312000D01*
X77221000Y-98597800D02*
X77221000Y-83332400D01*
%TO.N,Net-(U1-USB_D-)*%
X165379400Y-84683600D02*
X163516600Y-84683600D01*
X163516600Y-84683600D02*
X163439000Y-84606000D01*
%TO.N,Net-(U1-USB_D+)*%
X161010600Y-85902800D02*
X163412200Y-85902800D01*
X163412200Y-85902800D02*
X163439000Y-85876000D01*
%TO.N,Net-(U1-IO10)*%
X169341800Y-87298200D02*
X169264000Y-87376000D01*
X169341800Y-84582000D02*
X169341800Y-87298200D01*
%TO.N,Net-(U1-IO11)*%
X170586400Y-87323600D02*
X170534000Y-87376000D01*
X170586400Y-84912200D02*
X170586400Y-87323600D01*
%TO.N,Net-(U1-IO12)*%
X171780200Y-84683600D02*
X171780200Y-87352200D01*
X171780200Y-87352200D02*
X171804000Y-87376000D01*
%TO.N,Net-(U1-IO13)*%
X173050200Y-85039200D02*
X173050200Y-87352200D01*
X173050200Y-87352200D02*
X173074000Y-87376000D01*
%TO.N,Net-(U1-IO21)*%
X175666400Y-91363800D02*
X175666400Y-87428400D01*
X175666400Y-87428400D02*
X175614000Y-87376000D01*
%TO.N,Net-(U1-IO48)*%
X112395000Y-72269600D02*
X114205000Y-70459600D01*
X162204400Y-94056200D02*
X177063400Y-94056200D01*
X155651200Y-89585800D02*
X151180800Y-94056200D01*
X129413000Y-94056200D02*
X151180800Y-94056200D01*
X112395000Y-81280000D02*
X112395000Y-72269600D01*
X162204400Y-94056200D02*
X162204400Y-93802200D01*
X116798600Y-85683600D02*
X112395000Y-81280000D01*
X178154000Y-92965600D02*
X178154000Y-87376000D01*
X121040400Y-85683600D02*
X129413000Y-94056200D01*
X177063400Y-94056200D02*
X178154000Y-92965600D01*
X114205000Y-66713400D02*
X115417600Y-65500800D01*
X157988000Y-89585800D02*
X155651200Y-89585800D01*
X121040400Y-85683600D02*
X116798600Y-85683600D01*
X162204400Y-93802200D02*
X157988000Y-89585800D01*
X114205000Y-70459600D02*
X114205000Y-66713400D01*
%TO.N,Net-(U1-IO0)*%
X181432200Y-85882800D02*
X181439000Y-85876000D01*
X181439000Y-85876000D02*
X181439000Y-97783200D01*
X181439000Y-97783200D02*
X181432200Y-97790000D01*
%TO.N,/10V*%
D43*
X181762400Y-99923600D02*
X121433792Y-99923600D01*
X185074000Y-88353600D02*
X185074000Y-96612000D01*
X185074000Y-96612000D02*
X181762400Y-99923600D01*
X121433792Y-99923600D02*
X89001600Y-67491408D01*
X89001600Y-67491408D02*
X83642200Y-67491408D01*
%TO.N,/HVgnd*%
X80583688Y-94996000D02*
X80583688Y-92187112D01*
X80583688Y-104622358D02*
X83123688Y-104622358D01*
X80583688Y-92187112D02*
X82146392Y-90624408D01*
X83123688Y-104622358D02*
X83123688Y-104383488D01*
X82146392Y-90624408D02*
X83642200Y-90624408D01*
X81711800Y-102971600D02*
X81711800Y-96124112D01*
X83123688Y-104383488D02*
X81711800Y-102971600D01*
X81711800Y-96124112D02*
X80583688Y-94996000D01*
%TO.N,/HV*%
X84841000Y-94363208D02*
X84841000Y-98597800D01*
X83642200Y-93164408D02*
X84841000Y-94363208D01*
%TO.N,/HV2*%
X85663688Y-104622358D02*
X88203688Y-104622358D01*
X84841000Y-101137800D02*
X85663688Y-101960488D01*
X85663688Y-101960488D02*
X85663688Y-104622358D01*
%TO.N,Net-(U3-Vs)*%
D44*
X121837200Y-70434200D02*
X121837200Y-66840400D01*
X121837200Y-74899779D02*
X121837200Y-70434200D01*
X121837200Y-66840400D02*
X120497600Y-65500800D01*
X118428779Y-78308200D02*
X121837200Y-74899779D01*
%TD*%
%TA.AperFunction,Conductor*%
%TO.N,GND*%
G36*
X238626910Y-62021085D02*
G01*
X238672665Y-62073889D01*
X238683871Y-62125329D01*
X238694930Y-81346176D01*
X238675284Y-81413226D01*
X238622506Y-81459012D01*
X238553354Y-81468995D01*
X238523479Y-81460809D01*
X238481245Y-81443316D01*
X238481238Y-81443314D01*
X238298677Y-81407000D01*
X238125600Y-81407000D01*
X238125600Y-82102000D01*
X237625600Y-82102000D01*
X237625600Y-81407000D01*
X237452523Y-81407000D01*
X237269961Y-81443314D01*
X237269953Y-81443316D01*
X237097977Y-81514550D01*
X237097968Y-81514555D01*
X236943198Y-81617970D01*
X236943194Y-81617973D01*
X236811573Y-81749594D01*
X236811570Y-81749598D01*
X236708155Y-81904368D01*
X236708148Y-81904381D01*
X236636917Y-82076350D01*
X236636916Y-82076355D01*
X236631816Y-82102000D01*
X237500872Y-82102000D01*
X237408986Y-82140060D01*
X237338660Y-82210386D01*
X237300600Y-82302272D01*
X237300600Y-82401728D01*
X237338660Y-82493614D01*
X237408986Y-82563940D01*
X237500872Y-82602000D01*
X236631816Y-82602000D01*
X236636916Y-82627644D01*
X236636917Y-82627649D01*
X236708148Y-82799618D01*
X236708155Y-82799631D01*
X236811570Y-82954401D01*
X236811573Y-82954405D01*
X236943194Y-83086026D01*
X236943198Y-83086029D01*
X237097968Y-83189444D01*
X237097977Y-83189449D01*
X237269953Y-83260683D01*
X237269961Y-83260685D01*
X237452521Y-83296999D01*
X237452524Y-83297000D01*
X237625600Y-83297000D01*
X237625600Y-82602000D01*
X238125600Y-82602000D01*
X238125600Y-83297000D01*
X238298676Y-83297000D01*
X238298678Y-83296999D01*
X238481238Y-83260685D01*
X238481246Y-83260683D01*
X238524633Y-83242712D01*
X238594102Y-83235243D01*
X238656581Y-83266518D01*
X238692234Y-83326606D01*
X238696086Y-83357202D01*
X238698958Y-88347845D01*
X238679312Y-88414895D01*
X238626534Y-88460681D01*
X238557382Y-88470664D01*
X238527506Y-88462477D01*
X238481250Y-88443317D01*
X238481238Y-88443314D01*
X238298677Y-88407000D01*
X238125600Y-88407000D01*
X238125600Y-89102000D01*
X237625600Y-89102000D01*
X237625600Y-88407000D01*
X237452523Y-88407000D01*
X237269961Y-88443314D01*
X237269953Y-88443316D01*
X237097977Y-88514550D01*
X237097968Y-88514555D01*
X236943198Y-88617970D01*
X236943194Y-88617973D01*
X236811573Y-88749594D01*
X236811570Y-88749598D01*
X236708155Y-88904368D01*
X236708148Y-88904381D01*
X236636917Y-89076350D01*
X236636916Y-89076355D01*
X236631816Y-89102000D01*
X237500872Y-89102000D01*
X237408986Y-89140060D01*
X237338660Y-89210386D01*
X237300600Y-89302272D01*
X237300600Y-89401728D01*
X237338660Y-89493614D01*
X237408986Y-89563940D01*
X237500872Y-89602000D01*
X236631816Y-89602000D01*
X236636916Y-89627644D01*
X236636917Y-89627649D01*
X236708148Y-89799618D01*
X236708155Y-89799631D01*
X236811570Y-89954401D01*
X236811573Y-89954405D01*
X236943194Y-90086026D01*
X236943198Y-90086029D01*
X237097968Y-90189444D01*
X237097977Y-90189449D01*
X237269953Y-90260683D01*
X237269961Y-90260685D01*
X237452521Y-90296999D01*
X237452524Y-90297000D01*
X237625600Y-90297000D01*
X237625600Y-89602000D01*
X238125600Y-89602000D01*
X238125600Y-90297000D01*
X238298676Y-90297000D01*
X238298678Y-90296999D01*
X238481238Y-90260685D01*
X238481246Y-90260683D01*
X238528660Y-90241044D01*
X238598129Y-90233575D01*
X238660608Y-90264850D01*
X238696261Y-90324938D01*
X238700113Y-90355534D01*
X238709129Y-106022529D01*
X238689483Y-106089579D01*
X238636705Y-106135365D01*
X238585129Y-106146600D01*
X228978000Y-106146600D01*
X228910961Y-106126915D01*
X228865206Y-106074111D01*
X228854000Y-106022600D01*
X228854000Y-100863400D01*
X183743600Y-100863400D01*
X183743600Y-105997200D01*
X183723915Y-106064239D01*
X183671111Y-106109994D01*
X183619600Y-106121200D01*
X110029800Y-106121200D01*
X109962761Y-106101515D01*
X109917006Y-106048711D01*
X109905800Y-105997200D01*
X109905800Y-89827048D01*
X109925485Y-89760009D01*
X109978289Y-89714254D01*
X110047447Y-89704310D01*
X110111003Y-89733335D01*
X110117481Y-89739367D01*
X120923499Y-100545386D01*
X120923503Y-100545389D01*
X121054606Y-100632990D01*
X121054610Y-100632992D01*
X121054613Y-100632994D01*
X121200295Y-100693338D01*
X121354945Y-100724099D01*
X121354949Y-100724100D01*
X121354950Y-100724100D01*
X181841244Y-100724100D01*
X181841245Y-100724099D01*
X181995897Y-100693337D01*
X182141579Y-100632994D01*
X182272689Y-100545389D01*
X185695789Y-97122289D01*
X185783394Y-96991179D01*
X185843738Y-96845497D01*
X185874500Y-96690842D01*
X185874500Y-96533157D01*
X185874500Y-89782191D01*
X185894185Y-89715152D01*
X185942206Y-89671706D01*
X186010431Y-89636944D01*
X186010430Y-89636944D01*
X186010433Y-89636943D01*
X186201510Y-89498117D01*
X186368517Y-89331110D01*
X186507343Y-89140033D01*
X186614568Y-88929592D01*
X186687553Y-88704968D01*
X186698823Y-88633810D01*
X186724500Y-88471697D01*
X186724500Y-88235502D01*
X186687553Y-88002231D01*
X186614566Y-87777603D01*
X186558002Y-87666591D01*
X186507343Y-87567167D01*
X186368517Y-87376090D01*
X186201510Y-87209083D01*
X186010433Y-87070257D01*
X185799996Y-86963033D01*
X185575368Y-86890046D01*
X185342097Y-86853100D01*
X185342092Y-86853100D01*
X184805908Y-86853100D01*
X184805903Y-86853100D01*
X184572631Y-86890046D01*
X184348003Y-86963033D01*
X184137566Y-87070257D01*
X184028550Y-87149462D01*
X183946490Y-87209083D01*
X183946488Y-87209085D01*
X183946487Y-87209085D01*
X183779485Y-87376087D01*
X183779485Y-87376088D01*
X183779483Y-87376090D01*
X183729659Y-87444667D01*
X183640657Y-87567166D01*
X183533433Y-87777603D01*
X183460446Y-88002231D01*
X183423500Y-88235502D01*
X183423500Y-88471697D01*
X183460446Y-88704968D01*
X183533433Y-88929596D01*
X183611841Y-89083478D01*
X183640657Y-89140033D01*
X183779483Y-89331110D01*
X183946490Y-89498117D01*
X184057151Y-89578517D01*
X184137568Y-89636944D01*
X184205794Y-89671706D01*
X184256590Y-89719680D01*
X184273500Y-89782191D01*
X184273500Y-96229060D01*
X184253815Y-96296099D01*
X184237181Y-96316741D01*
X182408944Y-98144977D01*
X182347621Y-98178462D01*
X182277929Y-98173478D01*
X182221996Y-98131606D01*
X182197579Y-98066142D01*
X182201670Y-98029655D01*
X182200749Y-98029472D01*
X182232699Y-97868846D01*
X182232700Y-97868844D01*
X182232700Y-97711155D01*
X182232699Y-97711153D01*
X182201937Y-97556503D01*
X182190288Y-97528380D01*
X182141597Y-97410828D01*
X182141596Y-97410827D01*
X182141594Y-97410821D01*
X182110396Y-97364130D01*
X182089520Y-97297453D01*
X182089500Y-97295241D01*
X182089500Y-86950499D01*
X182109185Y-86883460D01*
X182161989Y-86837705D01*
X182213500Y-86826499D01*
X182486871Y-86826499D01*
X182486872Y-86826499D01*
X182546483Y-86820091D01*
X182681331Y-86769796D01*
X182796546Y-86683546D01*
X182882796Y-86568331D01*
X182933091Y-86433483D01*
X182939500Y-86373873D01*
X182939499Y-85378128D01*
X182933091Y-85318517D01*
X182920340Y-85284332D01*
X182915357Y-85214642D01*
X182920340Y-85197669D01*
X182933091Y-85163483D01*
X182939500Y-85103873D01*
X182939499Y-84108128D01*
X182933091Y-84048517D01*
X182920340Y-84014332D01*
X182915357Y-83944642D01*
X182920340Y-83927669D01*
X182933091Y-83893483D01*
X182939500Y-83833873D01*
X182939499Y-82838128D01*
X182933091Y-82778517D01*
X182920340Y-82744332D01*
X182915357Y-82674642D01*
X182920340Y-82657669D01*
X182933091Y-82623483D01*
X182939500Y-82563873D01*
X182939499Y-81568128D01*
X182933091Y-81508517D01*
X182920340Y-81474332D01*
X182915357Y-81404642D01*
X182920340Y-81387669D01*
X182933091Y-81353483D01*
X182939500Y-81293873D01*
X182939499Y-80298128D01*
X182933091Y-80238517D01*
X182920340Y-80204332D01*
X182915357Y-80134642D01*
X182920340Y-80117669D01*
X182933091Y-80083483D01*
X182939500Y-80023873D01*
X182939499Y-79028128D01*
X182933091Y-78968517D01*
X182920340Y-78934332D01*
X182915357Y-78864642D01*
X182920340Y-78847669D01*
X182933091Y-78813483D01*
X182939500Y-78753873D01*
X182939499Y-77758128D01*
X182933091Y-77698517D01*
X182920340Y-77664332D01*
X182915357Y-77594642D01*
X182920340Y-77577669D01*
X182933091Y-77543483D01*
X182939500Y-77483873D01*
X182939499Y-76488128D01*
X182933091Y-76428517D01*
X182920340Y-76394332D01*
X182915357Y-76324642D01*
X182920340Y-76307669D01*
X182933091Y-76273483D01*
X182939500Y-76213873D01*
X182939499Y-75218128D01*
X182933091Y-75158517D01*
X182920340Y-75124332D01*
X182915357Y-75054642D01*
X182920340Y-75037669D01*
X182933091Y-75003483D01*
X182939500Y-74943873D01*
X182939499Y-73948128D01*
X182933091Y-73888517D01*
X182920340Y-73854332D01*
X182918455Y-73827975D01*
X182912839Y-73802153D01*
X182915676Y-73789109D01*
X182915357Y-73784642D01*
X182920340Y-73767669D01*
X182922194Y-73762696D01*
X182964066Y-73706764D01*
X183029531Y-73682348D01*
X183097803Y-73697200D01*
X183147209Y-73746606D01*
X183154772Y-73764639D01*
X183154775Y-73764639D01*
X183154982Y-73765139D01*
X183157036Y-73770036D01*
X183157105Y-73770266D01*
X183213061Y-73905355D01*
X183222500Y-73952807D01*
X183222500Y-83492446D01*
X183253261Y-83647089D01*
X183253264Y-83647101D01*
X183313602Y-83792772D01*
X183313609Y-83792785D01*
X183401210Y-83923888D01*
X183401213Y-83923892D01*
X187730499Y-88253177D01*
X187763984Y-88314500D01*
X187759000Y-88384192D01*
X187717128Y-88440125D01*
X187678826Y-88459515D01*
X187675703Y-88460462D01*
X187530027Y-88520802D01*
X187530014Y-88520809D01*
X187398911Y-88608410D01*
X187398907Y-88608413D01*
X187287413Y-88719907D01*
X187287410Y-88719911D01*
X187199809Y-88851014D01*
X187199802Y-88851027D01*
X187139464Y-88996698D01*
X187139461Y-88996710D01*
X187108700Y-89151353D01*
X187108700Y-89309046D01*
X187139461Y-89463689D01*
X187139464Y-89463701D01*
X187199802Y-89609372D01*
X187199809Y-89609385D01*
X187287410Y-89740488D01*
X187287413Y-89740492D01*
X187398907Y-89851986D01*
X187398911Y-89851989D01*
X187530014Y-89939590D01*
X187530027Y-89939597D01*
X187641812Y-89985899D01*
X187675703Y-89999937D01*
X187786187Y-90021913D01*
X187808891Y-90026430D01*
X187870802Y-90058815D01*
X187905376Y-90119530D01*
X187908700Y-90148047D01*
X187908700Y-92104167D01*
X187901588Y-92139981D01*
X187903230Y-92140480D01*
X187901460Y-92146311D01*
X187870700Y-92300953D01*
X187870700Y-92458646D01*
X187901461Y-92613289D01*
X187901464Y-92613301D01*
X187961802Y-92758972D01*
X187961809Y-92758985D01*
X188049410Y-92890088D01*
X188049413Y-92890092D01*
X195288411Y-100129089D01*
X195377143Y-100217821D01*
X195399912Y-100240590D01*
X195531014Y-100328190D01*
X195531027Y-100328197D01*
X195676698Y-100388535D01*
X195676703Y-100388537D01*
X195831353Y-100419299D01*
X195831356Y-100419300D01*
X195831358Y-100419300D01*
X226658264Y-100419300D01*
X226658265Y-100419299D01*
X226799946Y-100391117D01*
X233643237Y-100391117D01*
X233643237Y-100668084D01*
X233643238Y-100668101D01*
X233679389Y-100942700D01*
X233751077Y-101210243D01*
X233857072Y-101466137D01*
X233857077Y-101466148D01*
X233995563Y-101706012D01*
X234164177Y-101925755D01*
X234164183Y-101925762D01*
X234360027Y-102121606D01*
X234360034Y-102121612D01*
X234579777Y-102290226D01*
X234819641Y-102428712D01*
X234819646Y-102428714D01*
X234819649Y-102428716D01*
X235075545Y-102534712D01*
X235343088Y-102606400D01*
X235617699Y-102642553D01*
X235617706Y-102642553D01*
X235894672Y-102642553D01*
X235894679Y-102642553D01*
X236169290Y-102606400D01*
X236436833Y-102534712D01*
X236692729Y-102428716D01*
X236932601Y-102290226D01*
X237152345Y-102121611D01*
X237348199Y-101925757D01*
X237516814Y-101706013D01*
X237655304Y-101466141D01*
X237761300Y-101210245D01*
X237832988Y-100942702D01*
X237869141Y-100668091D01*
X237869141Y-100391111D01*
X237832988Y-100116500D01*
X237761300Y-99848957D01*
X237655304Y-99593061D01*
X237655302Y-99593058D01*
X237655300Y-99593053D01*
X237516814Y-99353189D01*
X237348200Y-99133446D01*
X237348194Y-99133439D01*
X237152350Y-98937595D01*
X237152343Y-98937589D01*
X236932600Y-98768975D01*
X236692736Y-98630489D01*
X236692725Y-98630484D01*
X236436831Y-98524489D01*
X236169288Y-98452801D01*
X235894689Y-98416650D01*
X235894684Y-98416649D01*
X235894679Y-98416649D01*
X235617699Y-98416649D01*
X235617693Y-98416649D01*
X235617688Y-98416650D01*
X235343089Y-98452801D01*
X235075546Y-98524489D01*
X234819652Y-98630484D01*
X234819641Y-98630489D01*
X234579777Y-98768975D01*
X234360034Y-98937589D01*
X234360027Y-98937595D01*
X234164183Y-99133439D01*
X234164177Y-99133446D01*
X233995563Y-99353189D01*
X233857077Y-99593053D01*
X233857072Y-99593064D01*
X233751077Y-99848958D01*
X233679389Y-100116501D01*
X233643238Y-100391100D01*
X233643237Y-100391117D01*
X226799946Y-100391117D01*
X226812917Y-100388537D01*
X226958599Y-100328194D01*
X227089709Y-100240589D01*
X230514879Y-96815417D01*
X230576202Y-96781933D01*
X230602560Y-96779099D01*
X231319622Y-96779099D01*
X231319628Y-96779099D01*
X231422417Y-96768599D01*
X231588954Y-96713414D01*
X231738276Y-96621312D01*
X231862332Y-96497256D01*
X231954434Y-96347934D01*
X231977722Y-96277654D01*
X231981730Y-96269650D01*
X231999680Y-96250372D01*
X232014675Y-96228716D01*
X232023115Y-96225206D01*
X232029345Y-96218517D01*
X232054869Y-96212004D01*
X232079191Y-96201892D01*
X232095454Y-96201648D01*
X232097045Y-96201243D01*
X232098143Y-96201608D01*
X232102339Y-96201546D01*
X232140145Y-96204521D01*
X232819620Y-95525046D01*
X232819620Y-95531261D01*
X232846879Y-95632994D01*
X232899540Y-95724206D01*
X232974014Y-95798680D01*
X233065226Y-95851341D01*
X233166959Y-95878600D01*
X233173173Y-95878600D01*
X232493696Y-96558074D01*
X232538270Y-96590459D01*
X232720588Y-96683355D01*
X232915202Y-96746590D01*
X233117303Y-96778600D01*
X233321937Y-96778600D01*
X233524037Y-96746590D01*
X233718651Y-96683355D01*
X233900969Y-96590459D01*
X233945541Y-96558074D01*
X233266067Y-95878600D01*
X233272281Y-95878600D01*
X233374014Y-95851341D01*
X233465226Y-95798680D01*
X233539700Y-95724206D01*
X233592361Y-95632994D01*
X233619620Y-95531261D01*
X233619620Y-95525047D01*
X234299094Y-96204521D01*
X234331479Y-96159949D01*
X234424375Y-95977631D01*
X234487610Y-95783017D01*
X234519620Y-95580917D01*
X234519620Y-95376282D01*
X234487610Y-95174182D01*
X234424375Y-94979568D01*
X234331479Y-94797250D01*
X234299094Y-94752677D01*
X234299094Y-94752676D01*
X233619620Y-95432151D01*
X233619620Y-95425939D01*
X233592361Y-95324206D01*
X233539700Y-95232994D01*
X233465226Y-95158520D01*
X233374014Y-95105859D01*
X233272281Y-95078600D01*
X233266066Y-95078600D01*
X233945542Y-94399124D01*
X233945541Y-94399123D01*
X233900979Y-94366747D01*
X233900970Y-94366741D01*
X233718651Y-94273844D01*
X233524037Y-94210609D01*
X233321937Y-94178600D01*
X233117303Y-94178600D01*
X232915202Y-94210609D01*
X232720588Y-94273844D01*
X232538264Y-94366743D01*
X232493697Y-94399123D01*
X232493697Y-94399124D01*
X233173174Y-95078600D01*
X233166959Y-95078600D01*
X233065226Y-95105859D01*
X232974014Y-95158520D01*
X232899540Y-95232994D01*
X232846879Y-95324206D01*
X232819620Y-95425939D01*
X232819620Y-95432153D01*
X232140144Y-94752677D01*
X232102339Y-94755653D01*
X232033961Y-94741289D01*
X231984204Y-94692238D01*
X231981730Y-94687549D01*
X231977721Y-94679542D01*
X231954434Y-94609266D01*
X231862332Y-94459944D01*
X231738276Y-94335888D01*
X231588954Y-94243786D01*
X231422417Y-94188601D01*
X231422415Y-94188600D01*
X231319636Y-94178100D01*
X231319629Y-94178100D01*
X230602560Y-94178100D01*
X230535521Y-94158415D01*
X230514879Y-94141781D01*
X229688312Y-93315213D01*
X229688308Y-93315210D01*
X229557205Y-93227609D01*
X229557195Y-93227604D01*
X229504676Y-93205850D01*
X229464448Y-93178970D01*
X228217619Y-91932141D01*
X228184134Y-91870818D01*
X228181300Y-91844460D01*
X228181300Y-83364739D01*
X228200985Y-83297700D01*
X228217615Y-83277062D01*
X228491346Y-83003330D01*
X228552667Y-82969847D01*
X228622358Y-82974831D01*
X228678292Y-83016702D01*
X228695206Y-83047677D01*
X228699104Y-83058127D01*
X228699108Y-83058135D01*
X228785354Y-83173344D01*
X228785357Y-83173347D01*
X228900566Y-83259593D01*
X228900573Y-83259597D01*
X229031984Y-83308610D01*
X229087918Y-83350481D01*
X229112335Y-83415945D01*
X229097484Y-83484218D01*
X229076333Y-83512473D01*
X228962791Y-83626015D01*
X228837853Y-83797979D01*
X228741346Y-83987385D01*
X228675655Y-84189560D01*
X228650749Y-84346812D01*
X228642402Y-84399513D01*
X228642402Y-84612087D01*
X228647326Y-84643176D01*
X228666216Y-84762446D01*
X228675656Y-84822043D01*
X228741196Y-85023754D01*
X228741346Y-85024214D01*
X228837853Y-85213620D01*
X228962792Y-85385586D01*
X229113115Y-85535909D01*
X229285084Y-85660850D01*
X229293848Y-85665316D01*
X229344644Y-85713291D01*
X229361438Y-85781112D01*
X229338900Y-85847247D01*
X229293848Y-85886284D01*
X229285084Y-85890749D01*
X229113115Y-86015690D01*
X228962792Y-86166013D01*
X228837853Y-86337979D01*
X228741346Y-86527385D01*
X228675655Y-86729560D01*
X228642402Y-86939513D01*
X228642402Y-87152086D01*
X228673875Y-87350803D01*
X228675656Y-87362043D01*
X228705402Y-87453592D01*
X228741346Y-87564214D01*
X228837853Y-87753620D01*
X228962792Y-87925586D01*
X229113115Y-88075909D01*
X229285081Y-88200848D01*
X229285083Y-88200849D01*
X229285086Y-88200851D01*
X229294395Y-88205594D01*
X229345192Y-88253566D01*
X229361989Y-88321387D01*
X229339454Y-88387522D01*
X229294407Y-88426560D01*
X229285348Y-88431176D01*
X229285342Y-88431180D01*
X229231184Y-88470527D01*
X229231184Y-88470528D01*
X229863493Y-89102837D01*
X229799909Y-89119875D01*
X229685895Y-89185701D01*
X229592803Y-89278793D01*
X229526977Y-89392807D01*
X229509939Y-89456391D01*
X228877630Y-88824082D01*
X228877629Y-88824082D01*
X228838282Y-88878239D01*
X228741806Y-89067582D01*
X228676144Y-89269669D01*
X228676144Y-89269672D01*
X228642902Y-89479553D01*
X228642902Y-89692046D01*
X228676144Y-89901927D01*
X228676144Y-89901930D01*
X228741806Y-90104017D01*
X228838277Y-90293350D01*
X228877630Y-90347516D01*
X229509939Y-89715208D01*
X229526977Y-89778793D01*
X229592803Y-89892807D01*
X229685895Y-89985899D01*
X229799909Y-90051725D01*
X229863492Y-90068762D01*
X229231184Y-90701069D01*
X229231184Y-90701070D01*
X229285351Y-90740424D01*
X229474684Y-90836895D01*
X229676772Y-90902557D01*
X229886656Y-90935800D01*
X230099148Y-90935800D01*
X230309029Y-90902557D01*
X230309032Y-90902557D01*
X230511119Y-90836895D01*
X230700456Y-90740422D01*
X230754618Y-90701070D01*
X230754619Y-90701070D01*
X230122310Y-90068762D01*
X230185895Y-90051725D01*
X230299909Y-89985899D01*
X230393001Y-89892807D01*
X230458827Y-89778793D01*
X230475864Y-89715209D01*
X231108172Y-90347517D01*
X231108172Y-90347516D01*
X231147524Y-90293354D01*
X231243997Y-90104017D01*
X231309659Y-89901930D01*
X231309659Y-89901927D01*
X231342902Y-89692046D01*
X231342902Y-89479553D01*
X231309659Y-89269672D01*
X231309659Y-89269669D01*
X231243997Y-89067582D01*
X231147526Y-88878249D01*
X231108172Y-88824082D01*
X231108171Y-88824082D01*
X230475864Y-89456390D01*
X230458827Y-89392807D01*
X230393001Y-89278793D01*
X230299909Y-89185701D01*
X230185895Y-89119875D01*
X230122311Y-89102837D01*
X230744158Y-88480989D01*
X230754618Y-88470528D01*
X230700449Y-88431173D01*
X230700449Y-88431172D01*
X230691402Y-88426563D01*
X230640608Y-88378588D01*
X230623814Y-88310766D01*
X230646353Y-88244632D01*
X230691410Y-88205593D01*
X230700718Y-88200851D01*
X230779909Y-88143315D01*
X230836777Y-88101999D01*
X234201389Y-88101999D01*
X234201390Y-88102000D01*
X234919363Y-88102000D01*
X234900600Y-88147299D01*
X234900600Y-88556701D01*
X234919363Y-88602000D01*
X234201389Y-88602000D01*
X234238066Y-88786389D01*
X234238068Y-88786397D01*
X234311564Y-88963833D01*
X234311569Y-88963842D01*
X234418267Y-89123526D01*
X234418270Y-89123530D01*
X234554071Y-89259331D01*
X234713757Y-89366030D01*
X234713767Y-89366035D01*
X234891199Y-89439530D01*
X234891206Y-89439533D01*
X234925600Y-89446373D01*
X234925600Y-88617056D01*
X234942466Y-88657775D01*
X235019825Y-88735134D01*
X235120899Y-88777000D01*
X235230301Y-88777000D01*
X235331375Y-88735134D01*
X235408734Y-88657775D01*
X235425600Y-88617056D01*
X235425600Y-89446373D01*
X235459993Y-89439532D01*
X235460000Y-89439530D01*
X235637432Y-89366035D01*
X235637442Y-89366030D01*
X235797129Y-89259331D01*
X235797130Y-89259329D01*
X235932929Y-89123530D01*
X235932932Y-89123526D01*
X235971077Y-89066440D01*
X236039630Y-88963842D01*
X236039635Y-88963833D01*
X236113131Y-88786397D01*
X236113133Y-88786389D01*
X236149810Y-88602000D01*
X235431837Y-88602000D01*
X235450600Y-88556701D01*
X235450600Y-88147299D01*
X235431837Y-88102000D01*
X236149810Y-88102000D01*
X236149810Y-88101999D01*
X236113133Y-87917610D01*
X236113131Y-87917602D01*
X236039635Y-87740166D01*
X236039630Y-87740157D01*
X235932932Y-87580473D01*
X235932929Y-87580469D01*
X235797130Y-87444670D01*
X235797126Y-87444667D01*
X235637442Y-87337969D01*
X235637433Y-87337964D01*
X235459997Y-87264468D01*
X235459989Y-87264466D01*
X235425600Y-87257625D01*
X235425600Y-88086943D01*
X235408734Y-88046225D01*
X235331375Y-87968866D01*
X235230301Y-87927000D01*
X235120899Y-87927000D01*
X235019825Y-87968866D01*
X234942466Y-88046225D01*
X234925600Y-88086943D01*
X234925600Y-87257625D01*
X234891210Y-87264466D01*
X234891202Y-87264468D01*
X234713766Y-87337964D01*
X234713757Y-87337969D01*
X234554073Y-87444667D01*
X234554069Y-87444670D01*
X234418270Y-87580469D01*
X234418267Y-87580473D01*
X234311569Y-87740157D01*
X234311564Y-87740166D01*
X234238068Y-87917602D01*
X234238066Y-87917610D01*
X234201389Y-88101999D01*
X230836777Y-88101999D01*
X230872688Y-88075909D01*
X230872690Y-88075906D01*
X230872694Y-88075904D01*
X231023006Y-87925592D01*
X231023008Y-87925588D01*
X231023011Y-87925586D01*
X231147950Y-87753620D01*
X231147949Y-87753620D01*
X231147953Y-87753616D01*
X231244459Y-87564212D01*
X231310148Y-87362043D01*
X231343402Y-87152087D01*
X231343402Y-86939513D01*
X231310148Y-86729557D01*
X231244459Y-86527388D01*
X231147953Y-86337984D01*
X231147951Y-86337981D01*
X231147950Y-86337979D01*
X231023011Y-86166013D01*
X230872688Y-86015690D01*
X230700722Y-85890751D01*
X230700017Y-85890391D01*
X230691956Y-85886285D01*
X230641161Y-85838312D01*
X230624365Y-85770492D01*
X230646901Y-85704356D01*
X230691956Y-85665315D01*
X230700718Y-85660851D01*
X230722691Y-85644886D01*
X230872688Y-85535909D01*
X230872690Y-85535906D01*
X230872694Y-85535904D01*
X231023006Y-85385592D01*
X231023008Y-85385588D01*
X231023011Y-85385586D01*
X231143315Y-85220000D01*
X231147953Y-85213616D01*
X231244459Y-85024212D01*
X231310148Y-84822043D01*
X231343402Y-84612087D01*
X231343402Y-84399513D01*
X231310148Y-84189557D01*
X231244459Y-83987388D01*
X231147953Y-83797984D01*
X231102290Y-83735134D01*
X231039205Y-83648303D01*
X231039201Y-83648299D01*
X231023006Y-83626008D01*
X230908461Y-83511463D01*
X230907496Y-83510453D01*
X230892074Y-83480614D01*
X230875986Y-83451150D01*
X230876090Y-83449686D01*
X230875417Y-83448383D01*
X230878575Y-83414947D01*
X230880970Y-83381458D01*
X230881849Y-83380283D01*
X230881987Y-83378823D01*
X230902724Y-83352397D01*
X230922842Y-83325525D01*
X230924542Y-83324596D01*
X230925122Y-83323858D01*
X230927244Y-83323120D01*
X230953817Y-83308610D01*
X231085233Y-83259596D01*
X231200448Y-83173346D01*
X231253858Y-83101999D01*
X234201389Y-83101999D01*
X234201390Y-83102000D01*
X234919363Y-83102000D01*
X234900600Y-83147299D01*
X234900600Y-83556701D01*
X234919363Y-83602000D01*
X234201389Y-83602000D01*
X234238066Y-83786389D01*
X234238068Y-83786397D01*
X234311564Y-83963832D01*
X234311569Y-83963842D01*
X234418267Y-84123526D01*
X234418270Y-84123530D01*
X234554069Y-84259329D01*
X234554073Y-84259332D01*
X234713757Y-84366030D01*
X234713767Y-84366035D01*
X234891199Y-84439530D01*
X234891206Y-84439533D01*
X234925600Y-84446373D01*
X234925600Y-83617056D01*
X234942466Y-83657775D01*
X235019825Y-83735134D01*
X235120899Y-83777000D01*
X235230301Y-83777000D01*
X235331375Y-83735134D01*
X235408734Y-83657775D01*
X235425600Y-83617056D01*
X235425600Y-84446372D01*
X235459993Y-84439533D01*
X235460000Y-84439530D01*
X235637432Y-84366035D01*
X235637442Y-84366030D01*
X235797126Y-84259332D01*
X235797130Y-84259329D01*
X235932929Y-84123530D01*
X235932932Y-84123526D01*
X236039630Y-83963842D01*
X236039636Y-83963832D01*
X236113131Y-83786397D01*
X236113133Y-83786389D01*
X236149810Y-83602000D01*
X235431837Y-83602000D01*
X235450600Y-83556701D01*
X235450600Y-83147299D01*
X235431837Y-83102000D01*
X236149810Y-83102000D01*
X236149810Y-83101999D01*
X236113133Y-82917610D01*
X236113131Y-82917602D01*
X236039635Y-82740166D01*
X236039630Y-82740157D01*
X235971077Y-82637560D01*
X235932932Y-82580473D01*
X235932929Y-82580469D01*
X235797129Y-82444669D01*
X235797126Y-82444667D01*
X235637442Y-82337969D01*
X235637433Y-82337964D01*
X235460385Y-82264628D01*
X235425600Y-82279920D01*
X235425600Y-83086943D01*
X235408734Y-83046225D01*
X235331375Y-82968866D01*
X235230301Y-82927000D01*
X235120899Y-82927000D01*
X235019825Y-82968866D01*
X234942466Y-83046225D01*
X234925600Y-83086943D01*
X234925600Y-82257625D01*
X234891210Y-82264466D01*
X234891202Y-82264468D01*
X234713766Y-82337964D01*
X234713757Y-82337969D01*
X234554073Y-82444667D01*
X234554071Y-82444669D01*
X234418270Y-82580469D01*
X234418267Y-82580473D01*
X234311569Y-82740157D01*
X234311564Y-82740166D01*
X234238068Y-82917602D01*
X234238066Y-82917610D01*
X234201389Y-83101999D01*
X231253858Y-83101999D01*
X231286698Y-83058131D01*
X231336993Y-82923283D01*
X231343402Y-82863673D01*
X231343401Y-81067928D01*
X231337770Y-81015548D01*
X231336993Y-81008316D01*
X231286699Y-80873471D01*
X231286695Y-80873464D01*
X231200449Y-80758255D01*
X231200446Y-80758252D01*
X231085237Y-80672006D01*
X231085230Y-80672002D01*
X230950384Y-80621708D01*
X230950385Y-80621708D01*
X230890785Y-80615301D01*
X230890783Y-80615300D01*
X230890775Y-80615300D01*
X230890766Y-80615300D01*
X229095031Y-80615300D01*
X229095025Y-80615301D01*
X229035418Y-80621708D01*
X228900573Y-80672002D01*
X228900566Y-80672006D01*
X228785357Y-80758252D01*
X228785354Y-80758255D01*
X228699108Y-80873464D01*
X228699104Y-80873471D01*
X228648810Y-81008317D01*
X228642403Y-81067916D01*
X228642403Y-81067923D01*
X228642224Y-81071252D01*
X228641083Y-81071190D01*
X228622717Y-81133739D01*
X228569913Y-81179494D01*
X228518402Y-81190700D01*
X228292555Y-81190700D01*
X228137910Y-81221461D01*
X228137898Y-81221464D01*
X227992227Y-81281802D01*
X227992214Y-81281809D01*
X227861111Y-81369410D01*
X227861107Y-81369413D01*
X227099866Y-82130656D01*
X226870511Y-82360011D01*
X226830841Y-82399681D01*
X226759009Y-82471512D01*
X226671409Y-82602614D01*
X226671402Y-82602627D01*
X226611064Y-82748298D01*
X226611061Y-82748310D01*
X226580300Y-82902953D01*
X226580300Y-92306246D01*
X226611061Y-92460889D01*
X226611064Y-92460901D01*
X226671402Y-92606572D01*
X226671409Y-92606585D01*
X226759010Y-92737688D01*
X226759013Y-92737692D01*
X226946140Y-92924819D01*
X226979625Y-92986142D01*
X226974641Y-93055834D01*
X226932769Y-93111767D01*
X226867305Y-93136184D01*
X226858459Y-93136500D01*
X220529930Y-93136500D01*
X220462891Y-93116815D01*
X220442249Y-93100181D01*
X220348857Y-93006789D01*
X220348856Y-93006788D01*
X220243313Y-92941689D01*
X220199536Y-92914687D01*
X220199531Y-92914685D01*
X220134977Y-92893294D01*
X220032997Y-92859501D01*
X220032995Y-92859500D01*
X219930210Y-92849000D01*
X218880198Y-92849000D01*
X218880180Y-92849001D01*
X218777403Y-92859500D01*
X218777400Y-92859501D01*
X218610868Y-92914685D01*
X218610859Y-92914690D01*
X218567086Y-92941689D01*
X218499693Y-92960129D01*
X218433030Y-92939206D01*
X218414309Y-92923831D01*
X216955092Y-91464613D01*
X216955088Y-91464610D01*
X216823985Y-91377009D01*
X216823972Y-91377002D01*
X216678301Y-91316664D01*
X216678289Y-91316661D01*
X216523645Y-91285900D01*
X216523642Y-91285900D01*
X215283673Y-91285900D01*
X215216634Y-91266215D01*
X215187026Y-91239587D01*
X215065722Y-91088678D01*
X215065721Y-91088677D01*
X214917295Y-90969369D01*
X214917292Y-90969367D01*
X214746697Y-90884760D01*
X214561892Y-90838800D01*
X214540506Y-90837350D01*
X214519123Y-90835900D01*
X214519120Y-90835900D01*
X213116877Y-90835900D01*
X213116874Y-90835901D01*
X213074113Y-90838799D01*
X213074112Y-90838799D01*
X212889303Y-90884760D01*
X212718707Y-90969367D01*
X212718704Y-90969369D01*
X212570278Y-91088677D01*
X212570277Y-91088678D01*
X212450969Y-91237104D01*
X212450967Y-91237107D01*
X212366360Y-91407702D01*
X212320400Y-91592507D01*
X212317500Y-91635279D01*
X212317500Y-92537522D01*
X212317501Y-92537525D01*
X212320399Y-92580286D01*
X212320399Y-92580287D01*
X212350933Y-92703066D01*
X212358525Y-92733594D01*
X212366360Y-92765096D01*
X212450967Y-92935692D01*
X212450969Y-92935695D01*
X212570277Y-93084121D01*
X212570278Y-93084122D01*
X212639486Y-93139753D01*
X212679405Y-93197096D01*
X212681985Y-93266918D01*
X212646406Y-93327051D01*
X212639486Y-93333047D01*
X212570278Y-93388677D01*
X212570277Y-93388678D01*
X212448974Y-93539587D01*
X212391631Y-93579506D01*
X212352327Y-93585900D01*
X209142499Y-93585900D01*
X209075460Y-93566215D01*
X209029705Y-93513411D01*
X209018499Y-93461900D01*
X209018499Y-92928371D01*
X209018499Y-92928364D01*
X209007886Y-92808982D01*
X208951909Y-92613351D01*
X208857698Y-92432993D01*
X208759734Y-92312849D01*
X208729109Y-92275290D01*
X208613933Y-92181377D01*
X208571407Y-92146702D01*
X208391049Y-92052491D01*
X208391048Y-92052490D01*
X208391045Y-92052489D01*
X208257577Y-92014300D01*
X208195418Y-91996514D01*
X208195415Y-91996513D01*
X208195413Y-91996513D01*
X208129102Y-91990617D01*
X208076037Y-91985900D01*
X208076032Y-91985900D01*
X206959971Y-91985900D01*
X206959965Y-91985900D01*
X206959964Y-91985901D01*
X206948316Y-91986936D01*
X206840584Y-91996513D01*
X206644954Y-92052489D01*
X206580376Y-92086222D01*
X206464593Y-92146702D01*
X206464591Y-92146703D01*
X206464590Y-92146704D01*
X206306890Y-92275290D01*
X206178304Y-92432990D01*
X206178302Y-92432993D01*
X206163726Y-92460897D01*
X206084089Y-92613354D01*
X206042424Y-92758972D01*
X206032420Y-92793935D01*
X206028114Y-92808983D01*
X206028113Y-92808986D01*
X206023622Y-92859501D01*
X206017503Y-92928335D01*
X206017500Y-92928366D01*
X206017500Y-93422521D01*
X205997815Y-93489560D01*
X205945011Y-93535315D01*
X205893500Y-93546521D01*
X202132908Y-93546521D01*
X202065869Y-93526836D01*
X202027363Y-93482749D01*
X202025605Y-93483834D01*
X202021814Y-93477687D01*
X201929712Y-93328365D01*
X201805656Y-93204309D01*
X201710715Y-93145749D01*
X201656336Y-93112208D01*
X201656331Y-93112206D01*
X201620042Y-93100181D01*
X201489797Y-93057022D01*
X201489795Y-93057021D01*
X201387010Y-93046521D01*
X200186998Y-93046521D01*
X200186981Y-93046522D01*
X200084203Y-93057021D01*
X200084200Y-93057022D01*
X199917668Y-93112206D01*
X199917663Y-93112208D01*
X199768342Y-93204310D01*
X199644289Y-93328363D01*
X199644288Y-93328365D01*
X199561924Y-93461900D01*
X199548395Y-93483834D01*
X199546600Y-93482727D01*
X199507313Y-93527358D01*
X199441092Y-93546521D01*
X197345961Y-93546521D01*
X197278922Y-93526836D01*
X197258280Y-93510202D01*
X192924831Y-89176753D01*
X203644100Y-89176753D01*
X203644100Y-89334446D01*
X203674861Y-89489089D01*
X203674864Y-89489101D01*
X203735202Y-89634772D01*
X203735209Y-89634785D01*
X203822810Y-89765888D01*
X203822813Y-89765892D01*
X203934307Y-89877386D01*
X203934311Y-89877389D01*
X204065414Y-89964990D01*
X204065427Y-89964997D01*
X204156256Y-90002619D01*
X204211103Y-90025337D01*
X204343764Y-90051725D01*
X204365753Y-90056099D01*
X204365756Y-90056100D01*
X204365758Y-90056100D01*
X204523444Y-90056100D01*
X204523445Y-90056099D01*
X204678097Y-90025337D01*
X204823779Y-89964994D01*
X204954889Y-89877389D01*
X205066389Y-89765889D01*
X205153994Y-89634779D01*
X205214337Y-89489097D01*
X205245100Y-89334442D01*
X205245100Y-89176758D01*
X205245100Y-89176755D01*
X205245099Y-89176753D01*
X205241050Y-89156396D01*
X205214337Y-89022103D01*
X205209048Y-89009335D01*
X205153997Y-88876427D01*
X205153990Y-88876414D01*
X205066389Y-88745311D01*
X205066386Y-88745307D01*
X204954892Y-88633813D01*
X204954888Y-88633810D01*
X204823785Y-88546209D01*
X204823772Y-88546202D01*
X204678101Y-88485864D01*
X204678089Y-88485861D01*
X204523445Y-88455100D01*
X204523442Y-88455100D01*
X204365758Y-88455100D01*
X204365755Y-88455100D01*
X204211110Y-88485861D01*
X204211098Y-88485864D01*
X204065427Y-88546202D01*
X204065414Y-88546209D01*
X203934311Y-88633810D01*
X203934307Y-88633813D01*
X203822813Y-88745307D01*
X203822810Y-88745311D01*
X203735209Y-88876414D01*
X203735202Y-88876427D01*
X203674864Y-89022098D01*
X203674861Y-89022110D01*
X203644100Y-89176753D01*
X192924831Y-89176753D01*
X191201661Y-87453583D01*
X222628500Y-87453583D01*
X222628500Y-89053601D01*
X222628501Y-89053618D01*
X222639000Y-89156396D01*
X222639001Y-89156399D01*
X222694185Y-89322931D01*
X222694187Y-89322936D01*
X222705369Y-89341065D01*
X222786288Y-89472256D01*
X222910344Y-89596312D01*
X223059666Y-89688414D01*
X223226203Y-89743599D01*
X223328991Y-89754100D01*
X225229008Y-89754099D01*
X225331797Y-89743599D01*
X225498334Y-89688414D01*
X225647656Y-89596312D01*
X225771712Y-89472256D01*
X225863814Y-89322934D01*
X225918999Y-89156397D01*
X225929500Y-89053609D01*
X225929499Y-87453592D01*
X225918999Y-87350803D01*
X225863814Y-87184266D01*
X225771712Y-87034944D01*
X225647656Y-86910888D01*
X225553966Y-86853100D01*
X225498336Y-86818787D01*
X225498331Y-86818785D01*
X225496862Y-86818298D01*
X225331797Y-86763601D01*
X225331795Y-86763600D01*
X225229010Y-86753100D01*
X223328998Y-86753100D01*
X223328981Y-86753101D01*
X223226203Y-86763600D01*
X223226200Y-86763601D01*
X223059668Y-86818785D01*
X223059663Y-86818787D01*
X222910342Y-86910889D01*
X222786289Y-87034942D01*
X222694187Y-87184263D01*
X222694186Y-87184266D01*
X222639001Y-87350803D01*
X222639001Y-87350804D01*
X222639000Y-87350804D01*
X222628500Y-87453583D01*
X191201661Y-87453583D01*
X188307447Y-84559369D01*
X188280567Y-84519140D01*
X188238430Y-84417411D01*
X188224613Y-84384053D01*
X188224611Y-84384051D01*
X188224611Y-84384049D01*
X188126064Y-84236565D01*
X188126061Y-84236561D01*
X188000638Y-84111138D01*
X188000634Y-84111135D01*
X187853153Y-84012590D01*
X187853140Y-84012583D01*
X187689267Y-83944706D01*
X187689258Y-83944703D01*
X187515294Y-83910100D01*
X187515291Y-83910100D01*
X187337909Y-83910100D01*
X187337906Y-83910100D01*
X187163941Y-83944703D01*
X187163932Y-83944706D01*
X187000059Y-84012583D01*
X187000046Y-84012590D01*
X186852565Y-84111135D01*
X186852561Y-84111138D01*
X186727138Y-84236561D01*
X186727135Y-84236565D01*
X186628590Y-84384046D01*
X186628583Y-84384059D01*
X186560706Y-84547932D01*
X186558936Y-84553769D01*
X186557483Y-84553328D01*
X186528559Y-84608608D01*
X186467839Y-84643176D01*
X186398070Y-84639428D01*
X186351655Y-84610177D01*
X184859819Y-83118341D01*
X184826334Y-83057018D01*
X184823500Y-83030660D01*
X184823500Y-73952807D01*
X184832939Y-73905355D01*
X184864174Y-73829946D01*
X184888894Y-73770266D01*
X184923500Y-73596291D01*
X184923500Y-73418909D01*
X184923500Y-73418906D01*
X184923499Y-73418904D01*
X184888896Y-73244941D01*
X184888893Y-73244932D01*
X184885552Y-73236867D01*
X184831784Y-73107056D01*
X184821016Y-73081059D01*
X184821009Y-73081046D01*
X184722464Y-72933565D01*
X184722461Y-72933561D01*
X184597038Y-72808138D01*
X184597034Y-72808135D01*
X184502752Y-72745137D01*
X184457947Y-72691524D01*
X184449240Y-72622199D01*
X184479395Y-72559172D01*
X184538838Y-72522453D01*
X184591041Y-72519562D01*
X184805948Y-72553600D01*
X184824000Y-72553600D01*
X184824000Y-71653601D01*
X184884402Y-71678621D01*
X185009981Y-71703600D01*
X185138019Y-71703600D01*
X185263598Y-71678621D01*
X185324000Y-71653601D01*
X185324000Y-72553600D01*
X185342052Y-72553600D01*
X185575247Y-72516665D01*
X185799802Y-72443702D01*
X186010171Y-72336514D01*
X186201186Y-72197733D01*
X186368133Y-72030786D01*
X186506914Y-71839771D01*
X186614102Y-71629402D01*
X186687065Y-71404847D01*
X186703102Y-71303600D01*
X185674001Y-71303600D01*
X185699021Y-71243198D01*
X185724000Y-71117619D01*
X185724000Y-70989581D01*
X185699021Y-70864002D01*
X185674001Y-70803600D01*
X186703102Y-70803600D01*
X222644898Y-70803600D01*
X223673999Y-70803600D01*
X223648979Y-70864002D01*
X223624000Y-70989581D01*
X223624000Y-71117619D01*
X223648979Y-71243198D01*
X223673999Y-71303600D01*
X222644898Y-71303600D01*
X222660934Y-71404847D01*
X222733897Y-71629402D01*
X222841085Y-71839771D01*
X222979866Y-72030786D01*
X223146813Y-72197733D01*
X223337828Y-72336514D01*
X223548197Y-72443702D01*
X223772752Y-72516665D01*
X223772751Y-72516665D01*
X224005948Y-72553600D01*
X224024000Y-72553600D01*
X224024000Y-71653601D01*
X224084402Y-71678621D01*
X224209981Y-71703600D01*
X224338019Y-71703600D01*
X224463598Y-71678621D01*
X224524000Y-71653601D01*
X224524000Y-72553600D01*
X224542052Y-72553600D01*
X224775247Y-72516665D01*
X224999802Y-72443702D01*
X225210171Y-72336514D01*
X225401186Y-72197733D01*
X225568133Y-72030786D01*
X225706914Y-71839771D01*
X225814102Y-71629402D01*
X225887065Y-71404847D01*
X225903102Y-71303600D01*
X224874001Y-71303600D01*
X224899021Y-71243198D01*
X224924000Y-71117619D01*
X224924000Y-70989581D01*
X224899021Y-70864002D01*
X224874001Y-70803600D01*
X225903102Y-70803600D01*
X225887065Y-70702352D01*
X225814102Y-70477797D01*
X225706914Y-70267428D01*
X225568133Y-70076413D01*
X225401186Y-69909466D01*
X225210171Y-69770685D01*
X224999802Y-69663497D01*
X224775247Y-69590534D01*
X224775248Y-69590534D01*
X224542052Y-69553600D01*
X224524000Y-69553600D01*
X224524000Y-70453598D01*
X224463598Y-70428579D01*
X224338019Y-70403600D01*
X224209981Y-70403600D01*
X224084402Y-70428579D01*
X224024000Y-70453598D01*
X224024000Y-69553600D01*
X224005948Y-69553600D01*
X223772752Y-69590534D01*
X223548197Y-69663497D01*
X223337828Y-69770685D01*
X223146813Y-69909466D01*
X222979866Y-70076413D01*
X222841085Y-70267428D01*
X222733897Y-70477797D01*
X222660934Y-70702352D01*
X222644898Y-70803600D01*
X186703102Y-70803600D01*
X186687065Y-70702352D01*
X186614102Y-70477797D01*
X186506914Y-70267428D01*
X186368133Y-70076413D01*
X186201186Y-69909466D01*
X186010171Y-69770685D01*
X185799802Y-69663497D01*
X185575247Y-69590534D01*
X185575248Y-69590534D01*
X185342052Y-69553600D01*
X185324000Y-69553600D01*
X185324000Y-70453598D01*
X185263598Y-70428579D01*
X185138019Y-70403600D01*
X185009981Y-70403600D01*
X184884402Y-70428579D01*
X184824000Y-70453598D01*
X184824000Y-69553600D01*
X184805948Y-69553600D01*
X184572752Y-69590534D01*
X184348197Y-69663497D01*
X184137828Y-69770685D01*
X183946813Y-69909466D01*
X183779866Y-70076413D01*
X183641085Y-70267428D01*
X183533897Y-70477797D01*
X183460934Y-70702352D01*
X183444898Y-70803600D01*
X184473999Y-70803600D01*
X184448979Y-70864002D01*
X184424000Y-70989581D01*
X184424000Y-71117619D01*
X184448979Y-71243198D01*
X184473999Y-71303600D01*
X183444898Y-71303600D01*
X183460934Y-71404847D01*
X183533897Y-71629402D01*
X183641085Y-71839771D01*
X183779866Y-72030786D01*
X183946813Y-72197733D01*
X184137830Y-72336516D01*
X184226916Y-72381907D01*
X184277713Y-72429881D01*
X184294508Y-72497702D01*
X184271971Y-72563837D01*
X184217256Y-72607289D01*
X184147735Y-72614262D01*
X184146432Y-72614010D01*
X184111691Y-72607100D01*
X183934309Y-72607100D01*
X183934306Y-72607100D01*
X183760341Y-72641703D01*
X183760332Y-72641706D01*
X183596459Y-72709583D01*
X183596446Y-72709590D01*
X183448965Y-72808135D01*
X183448961Y-72808138D01*
X183323538Y-72933561D01*
X183323535Y-72933565D01*
X183224990Y-73081046D01*
X183224985Y-73081055D01*
X183178060Y-73194345D01*
X183134219Y-73248748D01*
X183067925Y-73270813D01*
X183000226Y-73253534D01*
X182952615Y-73202397D01*
X182939499Y-73146892D01*
X182939499Y-72678129D01*
X182939498Y-72678123D01*
X182938110Y-72665213D01*
X182933091Y-72618517D01*
X182920340Y-72584332D01*
X182915357Y-72514642D01*
X182920338Y-72497672D01*
X182933091Y-72463483D01*
X182939500Y-72403873D01*
X182939499Y-71408128D01*
X182933091Y-71348517D01*
X182920340Y-71314332D01*
X182915357Y-71244642D01*
X182920338Y-71227672D01*
X182933091Y-71193483D01*
X182939500Y-71133873D01*
X182939499Y-70624131D01*
X182939499Y-70138129D01*
X182939498Y-70138123D01*
X182939497Y-70138116D01*
X182933091Y-70078517D01*
X182920073Y-70043616D01*
X182915090Y-69973926D01*
X182920075Y-69956949D01*
X182932597Y-69923375D01*
X182932598Y-69923372D01*
X182938999Y-69863844D01*
X182939000Y-69863827D01*
X182939000Y-69616000D01*
X179939000Y-69616000D01*
X179939000Y-69863844D01*
X179945401Y-69923372D01*
X179945403Y-69923379D01*
X179957925Y-69956952D01*
X179962909Y-70026643D01*
X179957925Y-70043617D01*
X179944909Y-70078514D01*
X179944908Y-70078516D01*
X179938501Y-70138116D01*
X179938501Y-70138123D01*
X179938500Y-70138135D01*
X179938501Y-71131500D01*
X179918817Y-71198539D01*
X179866013Y-71244294D01*
X179814501Y-71255500D01*
X179769329Y-71255500D01*
X179643661Y-71280497D01*
X179643655Y-71280499D01*
X179525274Y-71329534D01*
X179418726Y-71400726D01*
X177167727Y-73651725D01*
X177167721Y-73651732D01*
X177113098Y-73733482D01*
X177113099Y-73733483D01*
X177096534Y-73758274D01*
X177047499Y-73876655D01*
X177047497Y-73876661D01*
X177022500Y-74002328D01*
X177022500Y-75593464D01*
X177002815Y-75660503D01*
X177001603Y-75662354D01*
X176963608Y-75719217D01*
X176963602Y-75719228D01*
X176903264Y-75864898D01*
X176903261Y-75864910D01*
X176872500Y-76019553D01*
X176872500Y-76177246D01*
X176903261Y-76331889D01*
X176903264Y-76331901D01*
X176963602Y-76477572D01*
X176963609Y-76477585D01*
X177051210Y-76608688D01*
X177051213Y-76608692D01*
X177162707Y-76720186D01*
X177162711Y-76720189D01*
X177293814Y-76807790D01*
X177293827Y-76807797D01*
X177439498Y-76868135D01*
X177439503Y-76868137D01*
X177594153Y-76898899D01*
X177594156Y-76898900D01*
X177594158Y-76898900D01*
X177751844Y-76898900D01*
X177751845Y-76898899D01*
X177906497Y-76868137D01*
X178052179Y-76807794D01*
X178183289Y-76720189D01*
X178294789Y-76608689D01*
X178382394Y-76477579D01*
X178442737Y-76331897D01*
X178473500Y-76177242D01*
X178473500Y-76019558D01*
X178473500Y-76019555D01*
X178473499Y-76019553D01*
X178469946Y-76001689D01*
X178442737Y-75864903D01*
X178439095Y-75856111D01*
X178382397Y-75719228D01*
X178382396Y-75719227D01*
X178382394Y-75719221D01*
X178344396Y-75662353D01*
X178323520Y-75595676D01*
X178323500Y-75593464D01*
X178323500Y-74387207D01*
X178343185Y-74320168D01*
X178359814Y-74299531D01*
X179726821Y-72932523D01*
X179788142Y-72899040D01*
X179857834Y-72904024D01*
X179913767Y-72945896D01*
X179938184Y-73011360D01*
X179938500Y-73020206D01*
X179938500Y-73673870D01*
X179938501Y-73673876D01*
X179944908Y-73733481D01*
X179957659Y-73767669D01*
X179962642Y-73837361D01*
X179957659Y-73854331D01*
X179944908Y-73888518D01*
X179938501Y-73948116D01*
X179938501Y-73948123D01*
X179938500Y-73948135D01*
X179938500Y-74943870D01*
X179938501Y-74943876D01*
X179944908Y-75003481D01*
X179957659Y-75037669D01*
X179962642Y-75107361D01*
X179957659Y-75124331D01*
X179944908Y-75158518D01*
X179939888Y-75205213D01*
X179938501Y-75218123D01*
X179938500Y-75218135D01*
X179938500Y-76213870D01*
X179938501Y-76213876D01*
X179944908Y-76273481D01*
X179957659Y-76307669D01*
X179962642Y-76377361D01*
X179957659Y-76394331D01*
X179944908Y-76428518D01*
X179938607Y-76487130D01*
X179938501Y-76488123D01*
X179938500Y-76488135D01*
X179938500Y-77483870D01*
X179938501Y-77483876D01*
X179944908Y-77543481D01*
X179957659Y-77577669D01*
X179962642Y-77647361D01*
X179957659Y-77664331D01*
X179944908Y-77698518D01*
X179938501Y-77758116D01*
X179938501Y-77758123D01*
X179938500Y-77758135D01*
X179938500Y-78753870D01*
X179938501Y-78753876D01*
X179944908Y-78813481D01*
X179957659Y-78847669D01*
X179962642Y-78917361D01*
X179957659Y-78934331D01*
X179944908Y-78968518D01*
X179938501Y-79028116D01*
X179938501Y-79028123D01*
X179938500Y-79028135D01*
X179938500Y-80023870D01*
X179938501Y-80023876D01*
X179944908Y-80083481D01*
X179957659Y-80117669D01*
X179962642Y-80187361D01*
X179957659Y-80204331D01*
X179944908Y-80238518D01*
X179939888Y-80285213D01*
X179938501Y-80298123D01*
X179938500Y-80298135D01*
X179938500Y-81293870D01*
X179938501Y-81293876D01*
X179944908Y-81353481D01*
X179957659Y-81387669D01*
X179962642Y-81457361D01*
X179957659Y-81474331D01*
X179944908Y-81508518D01*
X179942141Y-81534260D01*
X179938501Y-81568123D01*
X179938500Y-81568135D01*
X179938500Y-82563870D01*
X179938501Y-82563876D01*
X179944908Y-82623481D01*
X179957659Y-82657669D01*
X179962642Y-82727361D01*
X179957659Y-82744331D01*
X179944908Y-82778518D01*
X179938501Y-82838116D01*
X179938501Y-82838123D01*
X179938500Y-82838135D01*
X179938500Y-83833870D01*
X179938501Y-83833876D01*
X179944908Y-83893481D01*
X179957659Y-83927669D01*
X179962642Y-83997361D01*
X179957659Y-84014331D01*
X179944908Y-84048518D01*
X179943479Y-84061813D01*
X179938501Y-84108123D01*
X179938500Y-84108135D01*
X179938500Y-85103870D01*
X179938501Y-85103876D01*
X179944908Y-85163481D01*
X179957659Y-85197669D01*
X179962642Y-85267361D01*
X179957659Y-85284331D01*
X179944908Y-85318518D01*
X179940742Y-85357271D01*
X179938501Y-85378123D01*
X179938500Y-85378135D01*
X179938500Y-85751500D01*
X179918815Y-85818539D01*
X179866011Y-85864294D01*
X179814500Y-85875500D01*
X178926129Y-85875500D01*
X178926123Y-85875501D01*
X178866518Y-85881908D01*
X178832331Y-85894659D01*
X178762639Y-85899642D01*
X178745669Y-85894659D01*
X178711480Y-85881908D01*
X178711482Y-85881908D01*
X178651883Y-85875501D01*
X178651881Y-85875500D01*
X178651873Y-85875500D01*
X178651864Y-85875500D01*
X177656129Y-85875500D01*
X177656123Y-85875501D01*
X177596518Y-85881908D01*
X177562331Y-85894659D01*
X177492639Y-85899642D01*
X177475669Y-85894659D01*
X177441480Y-85881908D01*
X177441482Y-85881908D01*
X177381883Y-85875501D01*
X177381881Y-85875500D01*
X177381873Y-85875500D01*
X177381864Y-85875500D01*
X176386129Y-85875500D01*
X176386123Y-85875501D01*
X176326518Y-85881908D01*
X176292331Y-85894659D01*
X176222639Y-85899642D01*
X176205669Y-85894659D01*
X176171480Y-85881908D01*
X176171482Y-85881908D01*
X176111883Y-85875501D01*
X176111881Y-85875500D01*
X176111873Y-85875500D01*
X176111864Y-85875500D01*
X175116129Y-85875500D01*
X175116123Y-85875501D01*
X175056518Y-85881908D01*
X175022331Y-85894659D01*
X174952639Y-85899642D01*
X174935669Y-85894659D01*
X174901480Y-85881908D01*
X174901482Y-85881908D01*
X174841883Y-85875501D01*
X174841881Y-85875500D01*
X174841873Y-85875500D01*
X174841864Y-85875500D01*
X173846129Y-85875500D01*
X173846107Y-85875502D01*
X173837947Y-85876379D01*
X173822545Y-85873599D01*
X173807053Y-85875827D01*
X173788863Y-85867520D01*
X173769188Y-85863969D01*
X173757734Y-85853304D01*
X173743497Y-85846802D01*
X173732686Y-85829979D01*
X173718054Y-85816355D01*
X173713678Y-85800402D01*
X173705723Y-85788024D01*
X173700700Y-85753089D01*
X173700700Y-85544135D01*
X173720385Y-85477096D01*
X173721566Y-85475290D01*
X173759594Y-85418379D01*
X173770108Y-85392997D01*
X173776271Y-85378116D01*
X173819937Y-85272697D01*
X173850700Y-85118042D01*
X173850700Y-84960358D01*
X173850700Y-84960355D01*
X173850699Y-84960353D01*
X173819937Y-84805703D01*
X173785229Y-84721909D01*
X173759597Y-84660027D01*
X173759590Y-84660014D01*
X173671989Y-84528911D01*
X173671986Y-84528907D01*
X173560492Y-84417413D01*
X173560488Y-84417410D01*
X173429385Y-84329809D01*
X173429372Y-84329802D01*
X173283701Y-84269464D01*
X173283689Y-84269461D01*
X173129045Y-84238700D01*
X173129042Y-84238700D01*
X172971358Y-84238700D01*
X172971355Y-84238700D01*
X172816710Y-84269461D01*
X172816698Y-84269464D01*
X172671027Y-84329802D01*
X172671009Y-84329812D01*
X172660416Y-84336890D01*
X172593738Y-84357765D01*
X172526358Y-84339277D01*
X172488428Y-84302676D01*
X172401989Y-84173310D01*
X172290492Y-84061813D01*
X172290488Y-84061810D01*
X172159385Y-83974209D01*
X172159372Y-83974202D01*
X172013701Y-83913864D01*
X172013689Y-83913861D01*
X171859045Y-83883100D01*
X171859042Y-83883100D01*
X171701358Y-83883100D01*
X171701355Y-83883100D01*
X171546710Y-83913861D01*
X171546698Y-83913864D01*
X171401027Y-83974202D01*
X171401014Y-83974209D01*
X171269911Y-84061810D01*
X171269907Y-84061813D01*
X171158417Y-84173304D01*
X171158411Y-84173311D01*
X171154153Y-84179683D01*
X171100538Y-84224485D01*
X171031212Y-84233188D01*
X170982166Y-84213889D01*
X170965579Y-84202806D01*
X170965575Y-84202804D01*
X170965571Y-84202802D01*
X170819901Y-84142464D01*
X170819889Y-84142461D01*
X170665245Y-84111700D01*
X170665242Y-84111700D01*
X170507558Y-84111700D01*
X170507555Y-84111700D01*
X170352910Y-84142461D01*
X170352898Y-84142464D01*
X170207228Y-84202802D01*
X170207210Y-84202812D01*
X170202439Y-84206000D01*
X170135760Y-84226872D01*
X170068381Y-84208382D01*
X170030455Y-84171783D01*
X169963589Y-84071710D01*
X169852092Y-83960213D01*
X169852088Y-83960210D01*
X169720985Y-83872609D01*
X169720972Y-83872602D01*
X169575301Y-83812264D01*
X169575289Y-83812261D01*
X169420645Y-83781500D01*
X169420642Y-83781500D01*
X169262958Y-83781500D01*
X169262955Y-83781500D01*
X169108310Y-83812261D01*
X169108298Y-83812264D01*
X168962627Y-83872602D01*
X168962614Y-83872609D01*
X168834891Y-83957952D01*
X168768213Y-83978830D01*
X168700833Y-83960345D01*
X168654143Y-83908367D01*
X168642000Y-83854850D01*
X168642000Y-70797828D01*
X168617002Y-70672161D01*
X168617001Y-70672160D01*
X168617001Y-70672156D01*
X168567965Y-70553773D01*
X168567964Y-70553772D01*
X168567960Y-70553764D01*
X168540751Y-70513044D01*
X168540749Y-70513042D01*
X168530481Y-70497674D01*
X168496776Y-70447230D01*
X168496774Y-70447228D01*
X168496772Y-70447225D01*
X168496771Y-70447224D01*
X166485627Y-68436081D01*
X166452142Y-68374758D01*
X166457126Y-68305066D01*
X166498998Y-68249133D01*
X166564462Y-68224716D01*
X166573308Y-68224400D01*
X180175200Y-68224400D01*
X180242239Y-68244085D01*
X180287994Y-68296889D01*
X180297938Y-68366047D01*
X180268913Y-68429603D01*
X180218533Y-68464582D01*
X180196913Y-68472645D01*
X180196906Y-68472649D01*
X180081812Y-68558809D01*
X180081809Y-68558812D01*
X179995649Y-68673906D01*
X179995645Y-68673913D01*
X179945403Y-68808620D01*
X179945401Y-68808627D01*
X179939000Y-68868155D01*
X179939000Y-69116000D01*
X182939000Y-69116000D01*
X182939000Y-68868172D01*
X182938999Y-68868155D01*
X182932598Y-68808627D01*
X182932596Y-68808620D01*
X182882354Y-68673913D01*
X182882350Y-68673906D01*
X182796190Y-68558812D01*
X182796187Y-68558809D01*
X182681093Y-68472649D01*
X182681086Y-68472645D01*
X182659467Y-68464582D01*
X182603533Y-68422711D01*
X182579116Y-68357246D01*
X182593968Y-68288973D01*
X182643373Y-68239568D01*
X182702800Y-68224400D01*
X182880000Y-68224400D01*
X182880000Y-67391117D01*
X233677237Y-67391117D01*
X233677237Y-67668084D01*
X233677238Y-67668101D01*
X233713389Y-67942700D01*
X233785077Y-68210243D01*
X233891072Y-68466137D01*
X233891077Y-68466148D01*
X234029563Y-68706012D01*
X234198177Y-68925755D01*
X234198183Y-68925762D01*
X234394027Y-69121606D01*
X234394034Y-69121612D01*
X234613777Y-69290226D01*
X234853641Y-69428712D01*
X234853646Y-69428714D01*
X234853649Y-69428716D01*
X235109545Y-69534712D01*
X235377088Y-69606400D01*
X235651699Y-69642553D01*
X235651706Y-69642553D01*
X235928672Y-69642553D01*
X235928679Y-69642553D01*
X236203290Y-69606400D01*
X236470833Y-69534712D01*
X236726729Y-69428716D01*
X236966601Y-69290226D01*
X237186345Y-69121611D01*
X237382199Y-68925757D01*
X237550814Y-68706013D01*
X237689304Y-68466141D01*
X237795300Y-68210245D01*
X237866988Y-67942702D01*
X237903141Y-67668091D01*
X237903141Y-67391111D01*
X237866988Y-67116500D01*
X237795300Y-66848957D01*
X237689304Y-66593061D01*
X237689302Y-66593058D01*
X237689300Y-66593053D01*
X237550814Y-66353189D01*
X237382200Y-66133446D01*
X237382194Y-66133439D01*
X237186350Y-65937595D01*
X237186343Y-65937589D01*
X236966600Y-65768975D01*
X236726736Y-65630489D01*
X236726725Y-65630484D01*
X236470831Y-65524489D01*
X236203288Y-65452801D01*
X235928689Y-65416650D01*
X235928684Y-65416649D01*
X235928679Y-65416649D01*
X235651699Y-65416649D01*
X235651693Y-65416649D01*
X235651688Y-65416650D01*
X235377089Y-65452801D01*
X235109546Y-65524489D01*
X234853652Y-65630484D01*
X234853641Y-65630489D01*
X234613777Y-65768975D01*
X234394034Y-65937589D01*
X234394027Y-65937595D01*
X234198183Y-66133439D01*
X234198177Y-66133446D01*
X234029563Y-66353189D01*
X233891077Y-66593053D01*
X233891072Y-66593064D01*
X233785077Y-66848958D01*
X233713389Y-67116501D01*
X233677238Y-67391100D01*
X233677237Y-67391117D01*
X182880000Y-67391117D01*
X182880000Y-62125400D01*
X182899685Y-62058361D01*
X182952489Y-62012606D01*
X183004000Y-62001400D01*
X238559871Y-62001400D01*
X238626910Y-62021085D01*
G37*
%TD.AperFunction*%
%TA.AperFunction,Conductor*%
G36*
X162401385Y-62071914D02*
G01*
X162447167Y-62124694D01*
X162458400Y-62176264D01*
X162458400Y-67251500D01*
X162438715Y-67318539D01*
X162385911Y-67364294D01*
X162334400Y-67375500D01*
X153767008Y-67375500D01*
X153699969Y-67355815D01*
X153679327Y-67339181D01*
X152337214Y-65997068D01*
X152303729Y-65935745D01*
X152300895Y-65909387D01*
X152300895Y-65016203D01*
X152320580Y-64949164D01*
X152354987Y-64915488D01*
X152354269Y-64914500D01*
X152358206Y-64911639D01*
X152358211Y-64911637D01*
X152530187Y-64786690D01*
X152680499Y-64636378D01*
X152680501Y-64636374D01*
X152680504Y-64636372D01*
X152805443Y-64464406D01*
X152805445Y-64464403D01*
X152805446Y-64464402D01*
X152809909Y-64455640D01*
X152857883Y-64404845D01*
X152925703Y-64388049D01*
X152991839Y-64410585D01*
X153030879Y-64455640D01*
X153034986Y-64463701D01*
X153035346Y-64464406D01*
X153160285Y-64636372D01*
X153310608Y-64786695D01*
X153482574Y-64911634D01*
X153482576Y-64911635D01*
X153482579Y-64911637D01*
X153671983Y-65008143D01*
X153874152Y-65073832D01*
X154084108Y-65107086D01*
X154084109Y-65107086D01*
X154296681Y-65107086D01*
X154296682Y-65107086D01*
X154506638Y-65073832D01*
X154708807Y-65008143D01*
X154898211Y-64911637D01*
X154984542Y-64848914D01*
X155070179Y-64786696D01*
X155070179Y-64786695D01*
X155070187Y-64786690D01*
X155183724Y-64673152D01*
X155245043Y-64639670D01*
X155314735Y-64644654D01*
X155370669Y-64686525D01*
X155387584Y-64717503D01*
X155436597Y-64848914D01*
X155436601Y-64848921D01*
X155522847Y-64964130D01*
X155522850Y-64964133D01*
X155638059Y-65050379D01*
X155638066Y-65050383D01*
X155772912Y-65100677D01*
X155772911Y-65100677D01*
X155779839Y-65101421D01*
X155832522Y-65107086D01*
X157628267Y-65107085D01*
X157687878Y-65100677D01*
X157822726Y-65050382D01*
X157937941Y-64964132D01*
X158024191Y-64848917D01*
X158074486Y-64714069D01*
X158080895Y-64654459D01*
X158080894Y-62858714D01*
X158074486Y-62799103D01*
X158073205Y-62795669D01*
X158024192Y-62664257D01*
X158024188Y-62664250D01*
X157937942Y-62549041D01*
X157937939Y-62549038D01*
X157822730Y-62462792D01*
X157822723Y-62462788D01*
X157687877Y-62412494D01*
X157687878Y-62412494D01*
X157628278Y-62406087D01*
X157628276Y-62406086D01*
X157628268Y-62406086D01*
X157628259Y-62406086D01*
X155832524Y-62406086D01*
X155832518Y-62406087D01*
X155772911Y-62412494D01*
X155638066Y-62462788D01*
X155638059Y-62462792D01*
X155522850Y-62549038D01*
X155522847Y-62549041D01*
X155436601Y-62664250D01*
X155436598Y-62664255D01*
X155387584Y-62795669D01*
X155345712Y-62851602D01*
X155280248Y-62876019D01*
X155211975Y-62861167D01*
X155183721Y-62840016D01*
X155070181Y-62726476D01*
X154898215Y-62601537D01*
X154708809Y-62505030D01*
X154708808Y-62505029D01*
X154708807Y-62505029D01*
X154506638Y-62439340D01*
X154506636Y-62439339D01*
X154506635Y-62439339D01*
X154345352Y-62413794D01*
X154296682Y-62406086D01*
X154084108Y-62406086D01*
X154035437Y-62413794D01*
X153874155Y-62439339D01*
X153671980Y-62505030D01*
X153482574Y-62601537D01*
X153310608Y-62726476D01*
X153160285Y-62876799D01*
X153035344Y-63048768D01*
X153030879Y-63057532D01*
X152982904Y-63108328D01*
X152915083Y-63125122D01*
X152848948Y-63102584D01*
X152809911Y-63057532D01*
X152805445Y-63048768D01*
X152680504Y-62876799D01*
X152530181Y-62726476D01*
X152358215Y-62601537D01*
X152168809Y-62505030D01*
X152168808Y-62505029D01*
X152168807Y-62505029D01*
X151966638Y-62439340D01*
X151966636Y-62439339D01*
X151966635Y-62439339D01*
X151805352Y-62413794D01*
X151756682Y-62406086D01*
X151544108Y-62406086D01*
X151495437Y-62413794D01*
X151334155Y-62439339D01*
X151131980Y-62505030D01*
X150942574Y-62601537D01*
X150770608Y-62726476D01*
X150620285Y-62876799D01*
X150495344Y-63048768D01*
X150490879Y-63057532D01*
X150442904Y-63108328D01*
X150375083Y-63125122D01*
X150308948Y-63102584D01*
X150269911Y-63057532D01*
X150265445Y-63048768D01*
X150140504Y-62876799D01*
X149990181Y-62726476D01*
X149818215Y-62601537D01*
X149628809Y-62505030D01*
X149628808Y-62505029D01*
X149628807Y-62505029D01*
X149426638Y-62439340D01*
X149426636Y-62439339D01*
X149426635Y-62439339D01*
X149265352Y-62413794D01*
X149216682Y-62406086D01*
X149004108Y-62406086D01*
X148955437Y-62413794D01*
X148794155Y-62439339D01*
X148591980Y-62505030D01*
X148402574Y-62601537D01*
X148230608Y-62726476D01*
X148080285Y-62876799D01*
X147955344Y-63048768D01*
X147950879Y-63057532D01*
X147902904Y-63108328D01*
X147835083Y-63125122D01*
X147768948Y-63102584D01*
X147729911Y-63057532D01*
X147725445Y-63048768D01*
X147600504Y-62876799D01*
X147450181Y-62726476D01*
X147278215Y-62601537D01*
X147088809Y-62505030D01*
X147088808Y-62505029D01*
X147088807Y-62505029D01*
X146886638Y-62439340D01*
X146886636Y-62439339D01*
X146886635Y-62439339D01*
X146725352Y-62413794D01*
X146676682Y-62406086D01*
X146464108Y-62406086D01*
X146415437Y-62413794D01*
X146254155Y-62439339D01*
X146051980Y-62505030D01*
X145862574Y-62601537D01*
X145690608Y-62726476D01*
X145540285Y-62876799D01*
X145415344Y-63048768D01*
X145410879Y-63057532D01*
X145362904Y-63108328D01*
X145295083Y-63125122D01*
X145228948Y-63102584D01*
X145189911Y-63057532D01*
X145185445Y-63048768D01*
X145060504Y-62876799D01*
X144910181Y-62726476D01*
X144738215Y-62601537D01*
X144548809Y-62505030D01*
X144548808Y-62505029D01*
X144548807Y-62505029D01*
X144346638Y-62439340D01*
X144346636Y-62439339D01*
X144346635Y-62439339D01*
X144185352Y-62413794D01*
X144136682Y-62406086D01*
X143924108Y-62406086D01*
X143875437Y-62413794D01*
X143714155Y-62439339D01*
X143511980Y-62505030D01*
X143322574Y-62601537D01*
X143150608Y-62726476D01*
X143000285Y-62876799D01*
X142875344Y-63048768D01*
X142870597Y-63058085D01*
X142822622Y-63108879D01*
X142754800Y-63125673D01*
X142688666Y-63103134D01*
X142649629Y-63058081D01*
X142645021Y-63049038D01*
X142605665Y-62994868D01*
X142605664Y-62994868D01*
X141973357Y-63627176D01*
X141956320Y-63563593D01*
X141890494Y-63449579D01*
X141797402Y-63356487D01*
X141683388Y-63290661D01*
X141619804Y-63273623D01*
X142252111Y-62641314D01*
X142197945Y-62601961D01*
X142008612Y-62505490D01*
X141806524Y-62439828D01*
X141596641Y-62406586D01*
X141384149Y-62406586D01*
X141174267Y-62439828D01*
X141174264Y-62439828D01*
X140972177Y-62505490D01*
X140782834Y-62601966D01*
X140728677Y-62641313D01*
X140728677Y-62641314D01*
X141360986Y-63273623D01*
X141297402Y-63290661D01*
X141183388Y-63356487D01*
X141090296Y-63449579D01*
X141024470Y-63563593D01*
X141007432Y-63627177D01*
X140375123Y-62994868D01*
X140375122Y-62994868D01*
X140335775Y-63049026D01*
X140330878Y-63058637D01*
X140282901Y-63109431D01*
X140215079Y-63126224D01*
X140148945Y-63103684D01*
X140109911Y-63058634D01*
X140105021Y-63049038D01*
X140065665Y-62994868D01*
X140065664Y-62994868D01*
X139433357Y-63627176D01*
X139416320Y-63563593D01*
X139350494Y-63449579D01*
X139257402Y-63356487D01*
X139143388Y-63290661D01*
X139079804Y-63273623D01*
X139712111Y-62641314D01*
X139657945Y-62601961D01*
X139468612Y-62505490D01*
X139266524Y-62439828D01*
X139056641Y-62406586D01*
X138844149Y-62406586D01*
X138634267Y-62439828D01*
X138634264Y-62439828D01*
X138432177Y-62505490D01*
X138242834Y-62601966D01*
X138188677Y-62641313D01*
X138188677Y-62641314D01*
X138820986Y-63273623D01*
X138757402Y-63290661D01*
X138643388Y-63356487D01*
X138550296Y-63449579D01*
X138484470Y-63563593D01*
X138467432Y-63627177D01*
X137835123Y-62994868D01*
X137835122Y-62994868D01*
X137795775Y-63049025D01*
X137699299Y-63238368D01*
X137633637Y-63440455D01*
X137633637Y-63440458D01*
X137600395Y-63650339D01*
X137600395Y-63862832D01*
X137633637Y-64072713D01*
X137633637Y-64072716D01*
X137699299Y-64274803D01*
X137795770Y-64464136D01*
X137835123Y-64518302D01*
X138467432Y-63885994D01*
X138484470Y-63949579D01*
X138550296Y-64063593D01*
X138643388Y-64156685D01*
X138757402Y-64222511D01*
X138820985Y-64239548D01*
X138188677Y-64871855D01*
X138188677Y-64871856D01*
X138242844Y-64911210D01*
X138432177Y-65007681D01*
X138634265Y-65073343D01*
X138844149Y-65106586D01*
X139056641Y-65106586D01*
X139266522Y-65073343D01*
X139266525Y-65073343D01*
X139468612Y-65007681D01*
X139657949Y-64911208D01*
X139712111Y-64871856D01*
X139712112Y-64871856D01*
X139079803Y-64239548D01*
X139143388Y-64222511D01*
X139257402Y-64156685D01*
X139350494Y-64063593D01*
X139416320Y-63949579D01*
X139433357Y-63885994D01*
X140065665Y-64518303D01*
X140065665Y-64518302D01*
X140105017Y-64464140D01*
X140109909Y-64454540D01*
X140157883Y-64403743D01*
X140225703Y-64386947D01*
X140291839Y-64409483D01*
X140330881Y-64454540D01*
X140335770Y-64464136D01*
X140375123Y-64518302D01*
X141007432Y-63885994D01*
X141024470Y-63949579D01*
X141090296Y-64063593D01*
X141183388Y-64156685D01*
X141297402Y-64222511D01*
X141360985Y-64239548D01*
X140728677Y-64871855D01*
X140728677Y-64871856D01*
X140782844Y-64911210D01*
X140972177Y-65007681D01*
X141174265Y-65073343D01*
X141384149Y-65106586D01*
X141596641Y-65106586D01*
X141806522Y-65073343D01*
X141806525Y-65073343D01*
X142008612Y-65007681D01*
X142197949Y-64911208D01*
X142252111Y-64871856D01*
X142252112Y-64871856D01*
X141619803Y-64239548D01*
X141683388Y-64222511D01*
X141797402Y-64156685D01*
X141890494Y-64063593D01*
X141956320Y-63949579D01*
X141973357Y-63885995D01*
X142605665Y-64518303D01*
X142605665Y-64518302D01*
X142645017Y-64464141D01*
X142649627Y-64455093D01*
X142697600Y-64404295D01*
X142765420Y-64387498D01*
X142831556Y-64410033D01*
X142870599Y-64455090D01*
X142875344Y-64464403D01*
X143000285Y-64636372D01*
X143150608Y-64786695D01*
X143322574Y-64911634D01*
X143322576Y-64911635D01*
X143322579Y-64911637D01*
X143511983Y-65008143D01*
X143714152Y-65073832D01*
X143924108Y-65107086D01*
X143924109Y-65107086D01*
X144136681Y-65107086D01*
X144136682Y-65107086D01*
X144321333Y-65077840D01*
X144351450Y-65073070D01*
X144351710Y-65074712D01*
X144414258Y-65077840D01*
X144461107Y-65107243D01*
X145411627Y-66057764D01*
X145411632Y-66057768D01*
X145411636Y-66057772D01*
X145411640Y-66057774D01*
X145412698Y-66058643D01*
X145413108Y-66059245D01*
X145415943Y-66062080D01*
X145415405Y-66062617D01*
X145452035Y-66116387D01*
X145453908Y-66186232D01*
X145417723Y-66246002D01*
X145354969Y-66276721D01*
X145334037Y-66278500D01*
X133354733Y-66278500D01*
X133287694Y-66258815D01*
X133241939Y-66206011D01*
X133237028Y-66193506D01*
X133229419Y-66170545D01*
X133225814Y-66159666D01*
X133133712Y-66010344D01*
X133009656Y-65886288D01*
X132860334Y-65794186D01*
X132693797Y-65739001D01*
X132693795Y-65739000D01*
X132591010Y-65728500D01*
X131790998Y-65728500D01*
X131790980Y-65728501D01*
X131688203Y-65739000D01*
X131688200Y-65739001D01*
X131521668Y-65794185D01*
X131521663Y-65794187D01*
X131372342Y-65886289D01*
X131278681Y-65979951D01*
X131217358Y-66013436D01*
X131147666Y-66008452D01*
X131103319Y-65979951D01*
X131009657Y-65886289D01*
X131009656Y-65886288D01*
X130860334Y-65794186D01*
X130693797Y-65739001D01*
X130693795Y-65739000D01*
X130591010Y-65728500D01*
X129790998Y-65728500D01*
X129790980Y-65728501D01*
X129688203Y-65739000D01*
X129688200Y-65739001D01*
X129521668Y-65794185D01*
X129521663Y-65794187D01*
X129372342Y-65886289D01*
X129248289Y-66010342D01*
X129156187Y-66159663D01*
X129156185Y-66159668D01*
X129142058Y-66202301D01*
X129132730Y-66230453D01*
X129125025Y-66253704D01*
X129085252Y-66311149D01*
X129020736Y-66337972D01*
X129007319Y-66338700D01*
X128368038Y-66338700D01*
X128300999Y-66319015D01*
X128262499Y-66279797D01*
X128258154Y-66272752D01*
X128195112Y-66170544D01*
X128101095Y-66076527D01*
X128067610Y-66015204D01*
X128072594Y-65945512D01*
X128101095Y-65901164D01*
X128194717Y-65807542D01*
X128286756Y-65658324D01*
X128286758Y-65658319D01*
X128341905Y-65491897D01*
X128341906Y-65491890D01*
X128352399Y-65389186D01*
X128352400Y-65389173D01*
X128352400Y-65239200D01*
X125952401Y-65239200D01*
X125952401Y-65389186D01*
X125962894Y-65491897D01*
X126018041Y-65658319D01*
X126018043Y-65658324D01*
X126110084Y-65807545D01*
X126203704Y-65901165D01*
X126237189Y-65962488D01*
X126232205Y-66032180D01*
X126203705Y-66076527D01*
X126109687Y-66170545D01*
X126017587Y-66319863D01*
X126017586Y-66319866D01*
X125962401Y-66486403D01*
X125962401Y-66486404D01*
X125962400Y-66486404D01*
X125951900Y-66589183D01*
X125951900Y-67389201D01*
X125951901Y-67389219D01*
X125962400Y-67491996D01*
X125962401Y-67491999D01*
X126003453Y-67615884D01*
X126017586Y-67658534D01*
X126109688Y-67807856D01*
X126233744Y-67931912D01*
X126383066Y-68024014D01*
X126416900Y-68035225D01*
X126474347Y-68074996D01*
X126501172Y-68139511D01*
X126501900Y-68152932D01*
X126501900Y-69159928D01*
X126482215Y-69226967D01*
X126450785Y-69260246D01*
X126305187Y-69366028D01*
X126305182Y-69366032D01*
X126160428Y-69510786D01*
X126040115Y-69676386D01*
X125992885Y-69769080D01*
X125944910Y-69819876D01*
X125877089Y-69836671D01*
X125810954Y-69814134D01*
X125771915Y-69769080D01*
X125758221Y-69742204D01*
X125724687Y-69676390D01*
X125699284Y-69641425D01*
X125604371Y-69510786D01*
X125459613Y-69366028D01*
X125294013Y-69245715D01*
X125294012Y-69245714D01*
X125294010Y-69245713D01*
X125213942Y-69204916D01*
X125111623Y-69152781D01*
X124916934Y-69089522D01*
X124742395Y-69061878D01*
X124714752Y-69057500D01*
X124510048Y-69057500D01*
X124485729Y-69061351D01*
X124307865Y-69089522D01*
X124113176Y-69152781D01*
X123930786Y-69245715D01*
X123765186Y-69366028D01*
X123620428Y-69510786D01*
X123500115Y-69676386D01*
X123407181Y-69858776D01*
X123343922Y-70053465D01*
X123311900Y-70255648D01*
X123311900Y-70460351D01*
X123343922Y-70662534D01*
X123407181Y-70857223D01*
X123458350Y-70957646D01*
X123496163Y-71031858D01*
X123500115Y-71039613D01*
X123620428Y-71205213D01*
X123765179Y-71349964D01*
X123768438Y-71352748D01*
X123768687Y-71353130D01*
X123769103Y-71353320D01*
X123787778Y-71382380D01*
X123806627Y-71411258D01*
X123806713Y-71411843D01*
X123806877Y-71412098D01*
X123811900Y-71447033D01*
X123811900Y-71538393D01*
X123802461Y-71585845D01*
X123746506Y-71720932D01*
X123746503Y-71720941D01*
X123711900Y-71894904D01*
X123711900Y-72072295D01*
X123746503Y-72246258D01*
X123746506Y-72246267D01*
X123814383Y-72410140D01*
X123814390Y-72410153D01*
X123912935Y-72557634D01*
X123912938Y-72557638D01*
X124038361Y-72683061D01*
X124038365Y-72683064D01*
X124185846Y-72781609D01*
X124185859Y-72781616D01*
X124304634Y-72830813D01*
X124349734Y-72849494D01*
X124349736Y-72849494D01*
X124349741Y-72849496D01*
X124523704Y-72884099D01*
X124523707Y-72884100D01*
X124523709Y-72884100D01*
X124701093Y-72884100D01*
X124701094Y-72884099D01*
X124759082Y-72872564D01*
X124875058Y-72849496D01*
X124875061Y-72849494D01*
X124875066Y-72849494D01*
X125038947Y-72781613D01*
X125186435Y-72683064D01*
X125311864Y-72557635D01*
X125410413Y-72410147D01*
X125413016Y-72403864D01*
X125422150Y-72381810D01*
X125478294Y-72246266D01*
X125486398Y-72205528D01*
X125501364Y-72130282D01*
X125512900Y-72072291D01*
X125512900Y-71894909D01*
X125512900Y-71894906D01*
X125512899Y-71894904D01*
X125478296Y-71720941D01*
X125478293Y-71720932D01*
X125460767Y-71678621D01*
X125422339Y-71585845D01*
X125420712Y-71577668D01*
X125417923Y-71573328D01*
X125412900Y-71538393D01*
X125412900Y-71447033D01*
X125432585Y-71379994D01*
X125456362Y-71352748D01*
X125459612Y-71349971D01*
X125459619Y-71349966D01*
X125604366Y-71205219D01*
X125604368Y-71205215D01*
X125604371Y-71205213D01*
X125724684Y-71039614D01*
X125724685Y-71039613D01*
X125724687Y-71039610D01*
X125771916Y-70946917D01*
X125819889Y-70896123D01*
X125887710Y-70879328D01*
X125953845Y-70901865D01*
X125992883Y-70946917D01*
X126036163Y-71031858D01*
X126040115Y-71039614D01*
X126160428Y-71205213D01*
X126305186Y-71349971D01*
X126411580Y-71427269D01*
X126470790Y-71470287D01*
X126533639Y-71502310D01*
X126653176Y-71563218D01*
X126653178Y-71563218D01*
X126653181Y-71563220D01*
X126713439Y-71582799D01*
X126847865Y-71626477D01*
X126948957Y-71642488D01*
X127050048Y-71658500D01*
X127050049Y-71658500D01*
X127254751Y-71658500D01*
X127254752Y-71658500D01*
X127456934Y-71626477D01*
X127651619Y-71563220D01*
X127834010Y-71470287D01*
X127953328Y-71383598D01*
X127999613Y-71349971D01*
X127999615Y-71349968D01*
X127999619Y-71349966D01*
X128144366Y-71205219D01*
X128144368Y-71205215D01*
X128144371Y-71205213D01*
X128198037Y-71131346D01*
X128264687Y-71039610D01*
X128357620Y-70857219D01*
X128420877Y-70662534D01*
X128452900Y-70460352D01*
X128452900Y-70255648D01*
X128435036Y-70142858D01*
X128420877Y-70053465D01*
X128382124Y-69934198D01*
X128357620Y-69858781D01*
X128357618Y-69858778D01*
X128357618Y-69858776D01*
X128318196Y-69781408D01*
X128264687Y-69676390D01*
X128239284Y-69641425D01*
X128144371Y-69510786D01*
X127999617Y-69366032D01*
X127999612Y-69366028D01*
X127854015Y-69260246D01*
X127811349Y-69204916D01*
X127802900Y-69159928D01*
X127802900Y-68152932D01*
X127822585Y-68085893D01*
X127875389Y-68040138D01*
X127887895Y-68035226D01*
X127921734Y-68024014D01*
X128071056Y-67931912D01*
X128195112Y-67807856D01*
X128262499Y-67698602D01*
X128314447Y-67651879D01*
X128368038Y-67639700D01*
X129050813Y-67639700D01*
X129117852Y-67659385D01*
X129156351Y-67698602D01*
X129223739Y-67807856D01*
X129248289Y-67847657D01*
X129372344Y-67971712D01*
X129500178Y-68050560D01*
X129522138Y-68074975D01*
X129544957Y-68098622D01*
X129545956Y-68101456D01*
X129546903Y-68102508D01*
X129556699Y-68131906D01*
X129561898Y-68158041D01*
X129561898Y-68158042D01*
X129565498Y-68176139D01*
X129565500Y-68176146D01*
X129613250Y-68291426D01*
X129614535Y-68294527D01*
X129681136Y-68394204D01*
X129685726Y-68401073D01*
X131208128Y-69923475D01*
X131208131Y-69923477D01*
X131262182Y-69959592D01*
X131314673Y-69994665D01*
X131433056Y-70043701D01*
X131433060Y-70043701D01*
X131433061Y-70043702D01*
X131558728Y-70068700D01*
X131558731Y-70068700D01*
X133949929Y-70068700D01*
X134016968Y-70088385D01*
X134050245Y-70119813D01*
X134148935Y-70255648D01*
X134156034Y-70265419D01*
X134300786Y-70410171D01*
X134455749Y-70522756D01*
X134466390Y-70530487D01*
X134580818Y-70588791D01*
X134648776Y-70623418D01*
X134648778Y-70623418D01*
X134648781Y-70623420D01*
X134748529Y-70655830D01*
X134843465Y-70686677D01*
X134942432Y-70702352D01*
X135045648Y-70718700D01*
X135045649Y-70718700D01*
X135250351Y-70718700D01*
X135250352Y-70718700D01*
X135452534Y-70686677D01*
X135647219Y-70623420D01*
X135829610Y-70530487D01*
X135926145Y-70460351D01*
X135995213Y-70410171D01*
X135995215Y-70410168D01*
X135995219Y-70410166D01*
X136139966Y-70265419D01*
X136139968Y-70265415D01*
X136139971Y-70265413D01*
X136232456Y-70138116D01*
X136260287Y-70099810D01*
X136287795Y-70045821D01*
X136335769Y-69995026D01*
X136403589Y-69978230D01*
X136469725Y-70000767D01*
X136508765Y-70045821D01*
X136536141Y-70099550D01*
X136536147Y-70099559D01*
X136568523Y-70144121D01*
X136568524Y-70144122D01*
X137248000Y-69464646D01*
X137248000Y-69470861D01*
X137275259Y-69572594D01*
X137327920Y-69663806D01*
X137402394Y-69738280D01*
X137493606Y-69790941D01*
X137595339Y-69818200D01*
X137601553Y-69818200D01*
X136922076Y-70497674D01*
X136966650Y-70530059D01*
X137148968Y-70622955D01*
X137343582Y-70686190D01*
X137545683Y-70718200D01*
X137750317Y-70718200D01*
X137952417Y-70686190D01*
X138147031Y-70622955D01*
X138329349Y-70530059D01*
X138373921Y-70497674D01*
X137694447Y-69818200D01*
X137700661Y-69818200D01*
X137802394Y-69790941D01*
X137893606Y-69738280D01*
X137968080Y-69663806D01*
X138020741Y-69572594D01*
X138048000Y-69470861D01*
X138048000Y-69464648D01*
X138727474Y-70144122D01*
X138727474Y-70144121D01*
X138759859Y-70099549D01*
X138852755Y-69917231D01*
X138915990Y-69722617D01*
X138948000Y-69520517D01*
X138948000Y-69315882D01*
X138915990Y-69113782D01*
X138852755Y-68919168D01*
X138759859Y-68736850D01*
X138727474Y-68692277D01*
X138727474Y-68692276D01*
X138048000Y-69371751D01*
X138048000Y-69365539D01*
X138020741Y-69263806D01*
X137968080Y-69172594D01*
X137893606Y-69098120D01*
X137802394Y-69045459D01*
X137700661Y-69018200D01*
X137694446Y-69018200D01*
X138373922Y-68338724D01*
X138373921Y-68338723D01*
X138329359Y-68306347D01*
X138329350Y-68306341D01*
X138147031Y-68213444D01*
X137952417Y-68150209D01*
X137750317Y-68118200D01*
X137545683Y-68118200D01*
X137343582Y-68150209D01*
X137148968Y-68213444D01*
X136966644Y-68306343D01*
X136922077Y-68338723D01*
X136922077Y-68338724D01*
X137601554Y-69018200D01*
X137595339Y-69018200D01*
X137493606Y-69045459D01*
X137402394Y-69098120D01*
X137327920Y-69172594D01*
X137275259Y-69263806D01*
X137248000Y-69365539D01*
X137248000Y-69371753D01*
X136568524Y-68692277D01*
X136568523Y-68692277D01*
X136536143Y-68736844D01*
X136508765Y-68790578D01*
X136460790Y-68841374D01*
X136392969Y-68858169D01*
X136326834Y-68835631D01*
X136287795Y-68790578D01*
X136260287Y-68736590D01*
X136260285Y-68736587D01*
X136260284Y-68736585D01*
X136139971Y-68570986D01*
X135995213Y-68426228D01*
X135829613Y-68305915D01*
X135829612Y-68305914D01*
X135829610Y-68305913D01*
X135756356Y-68268588D01*
X135647223Y-68212981D01*
X135452534Y-68149722D01*
X135258553Y-68118999D01*
X135250352Y-68117700D01*
X135045648Y-68117700D01*
X135037447Y-68118999D01*
X134843465Y-68149722D01*
X134648776Y-68212981D01*
X134466386Y-68305915D01*
X134300786Y-68426228D01*
X134156034Y-68570980D01*
X134127082Y-68610830D01*
X134050246Y-68716586D01*
X133994918Y-68759251D01*
X133949929Y-68767700D01*
X131943608Y-68767700D01*
X131876569Y-68748015D01*
X131855927Y-68731381D01*
X131393134Y-68268588D01*
X131359649Y-68207265D01*
X131364633Y-68137573D01*
X131406505Y-68081640D01*
X131471969Y-68057223D01*
X131519819Y-68063201D01*
X131521662Y-68063811D01*
X131521666Y-68063814D01*
X131688203Y-68118999D01*
X131790991Y-68129500D01*
X132591008Y-68129499D01*
X132591016Y-68129498D01*
X132591019Y-68129498D01*
X132647302Y-68123748D01*
X132693797Y-68118999D01*
X132860334Y-68063814D01*
X133009656Y-67971712D01*
X133133712Y-67847656D01*
X133225814Y-67698334D01*
X133233543Y-67675009D01*
X133237028Y-67664494D01*
X133276801Y-67607050D01*
X133341317Y-67580228D01*
X133354733Y-67579500D01*
X147253192Y-67579500D01*
X147320231Y-67599185D01*
X147340873Y-67615819D01*
X150199904Y-70474850D01*
X150233389Y-70536173D01*
X150228405Y-70605865D01*
X150186533Y-70661798D01*
X150131622Y-70685004D01*
X149941464Y-70715123D01*
X149746776Y-70778381D01*
X149564386Y-70871315D01*
X149398786Y-70991628D01*
X149254034Y-71136380D01*
X149205247Y-71203531D01*
X149148246Y-71281986D01*
X149092918Y-71324651D01*
X149047929Y-71333100D01*
X148068729Y-71333100D01*
X147943061Y-71358097D01*
X147943055Y-71358099D01*
X147828048Y-71405737D01*
X147828046Y-71405738D01*
X147824673Y-71407134D01*
X147718126Y-71478326D01*
X147718125Y-71478327D01*
X145874925Y-73321528D01*
X145874924Y-73321529D01*
X145814934Y-73411313D01*
X145814932Y-73411315D01*
X145803737Y-73428068D01*
X145803734Y-73428074D01*
X145754699Y-73546455D01*
X145754697Y-73546461D01*
X145729700Y-73672128D01*
X145729700Y-88032046D01*
X145710015Y-88099085D01*
X145693381Y-88119727D01*
X144663927Y-89149181D01*
X144602604Y-89182666D01*
X144576246Y-89185500D01*
X141999184Y-89185500D01*
X141999178Y-89185501D01*
X141939571Y-89191908D01*
X141804726Y-89242202D01*
X141804719Y-89242206D01*
X141689510Y-89328452D01*
X141689507Y-89328455D01*
X141603261Y-89443664D01*
X141603257Y-89443671D01*
X141552963Y-89578517D01*
X141546556Y-89638116D01*
X141546555Y-89638135D01*
X141546555Y-92733870D01*
X141546556Y-92733876D01*
X141552963Y-92793483D01*
X141603257Y-92928328D01*
X141603261Y-92928335D01*
X141689507Y-93043544D01*
X141689510Y-93043547D01*
X141804719Y-93129793D01*
X141804726Y-93129797D01*
X141900499Y-93165518D01*
X141956433Y-93207389D01*
X141980850Y-93272853D01*
X141965999Y-93341126D01*
X141916594Y-93390532D01*
X141857166Y-93405700D01*
X129733808Y-93405700D01*
X129666769Y-93386015D01*
X129646127Y-93369381D01*
X121455074Y-85178327D01*
X121455073Y-85178326D01*
X121387333Y-85133064D01*
X121348527Y-85107135D01*
X121340666Y-85103879D01*
X121230144Y-85058099D01*
X121230138Y-85058097D01*
X121104471Y-85033100D01*
X121104469Y-85033100D01*
X117119408Y-85033100D01*
X117052369Y-85013415D01*
X117031727Y-84996781D01*
X113081819Y-81046873D01*
X113048334Y-80985550D01*
X113045500Y-80959192D01*
X113045500Y-72590407D01*
X113065185Y-72523368D01*
X113081815Y-72502730D01*
X113888127Y-71696417D01*
X113949450Y-71662933D01*
X113975808Y-71660099D01*
X114605002Y-71660099D01*
X114605008Y-71660099D01*
X114707797Y-71649599D01*
X114874334Y-71594414D01*
X115023656Y-71502312D01*
X115117319Y-71408649D01*
X115178642Y-71375164D01*
X115248334Y-71380148D01*
X115292681Y-71408649D01*
X115386344Y-71502312D01*
X115535666Y-71594414D01*
X115702203Y-71649599D01*
X115804991Y-71660100D01*
X116605008Y-71660099D01*
X116605016Y-71660098D01*
X116605019Y-71660098D01*
X116661302Y-71654348D01*
X116707797Y-71649599D01*
X116874334Y-71594414D01*
X117023656Y-71502312D01*
X117047019Y-71478949D01*
X117108342Y-71445464D01*
X117178034Y-71450448D01*
X117233967Y-71492320D01*
X117258384Y-71557784D01*
X117258700Y-71566630D01*
X117258700Y-72528993D01*
X117249261Y-72576445D01*
X117193306Y-72711532D01*
X117193303Y-72711541D01*
X117158700Y-72885504D01*
X117158700Y-73062895D01*
X117193303Y-73236858D01*
X117193306Y-73236867D01*
X117261183Y-73400740D01*
X117261190Y-73400753D01*
X117359735Y-73548234D01*
X117359738Y-73548238D01*
X117485161Y-73673661D01*
X117485165Y-73673664D01*
X117632646Y-73772209D01*
X117632659Y-73772216D01*
X117704935Y-73802153D01*
X117796534Y-73840094D01*
X117796536Y-73840094D01*
X117796541Y-73840096D01*
X117970504Y-73874699D01*
X117970507Y-73874700D01*
X117970509Y-73874700D01*
X118147893Y-73874700D01*
X118147894Y-73874699D01*
X118237468Y-73856882D01*
X118321858Y-73840096D01*
X118321861Y-73840094D01*
X118321866Y-73840094D01*
X118485747Y-73772213D01*
X118633235Y-73673664D01*
X118758664Y-73548235D01*
X118857213Y-73400747D01*
X118925094Y-73236866D01*
X118928765Y-73218414D01*
X118956089Y-73081046D01*
X118959700Y-73062891D01*
X118959700Y-72885509D01*
X118959700Y-72885506D01*
X118959699Y-72885504D01*
X118925096Y-72711541D01*
X118925093Y-72711532D01*
X118924287Y-72709587D01*
X118869139Y-72576445D01*
X118859700Y-72528993D01*
X118859700Y-71601110D01*
X118879385Y-71534071D01*
X118932189Y-71488316D01*
X119001347Y-71478372D01*
X119048792Y-71495569D01*
X119167866Y-71569014D01*
X119334403Y-71624199D01*
X119437191Y-71634700D01*
X120237208Y-71634699D01*
X120237216Y-71634698D01*
X120237219Y-71634698D01*
X120293502Y-71628948D01*
X120339997Y-71624199D01*
X120506534Y-71569014D01*
X120655856Y-71476912D01*
X120749519Y-71383249D01*
X120810842Y-71349764D01*
X120880534Y-71354748D01*
X120924881Y-71383249D01*
X121018544Y-71476912D01*
X121127797Y-71544299D01*
X121174521Y-71596247D01*
X121186700Y-71649838D01*
X121186700Y-74578971D01*
X121167015Y-74646010D01*
X121150381Y-74666652D01*
X118845651Y-76971381D01*
X118784328Y-77004866D01*
X118757970Y-77007700D01*
X117828777Y-77007700D01*
X117828759Y-77007701D01*
X117725982Y-77018200D01*
X117725979Y-77018201D01*
X117559447Y-77073385D01*
X117559442Y-77073387D01*
X117410121Y-77165489D01*
X117286068Y-77289542D01*
X117193966Y-77438863D01*
X117193965Y-77438866D01*
X117179052Y-77483872D01*
X117173496Y-77500638D01*
X117133723Y-77558083D01*
X117069207Y-77584906D01*
X117046062Y-77585252D01*
X117008253Y-77582276D01*
X116328779Y-78261751D01*
X116328779Y-78255539D01*
X116301520Y-78153806D01*
X116248859Y-78062594D01*
X116174385Y-77988120D01*
X116083173Y-77935459D01*
X115981440Y-77908200D01*
X115975225Y-77908200D01*
X116654701Y-77228724D01*
X116654700Y-77228723D01*
X116610138Y-77196347D01*
X116610129Y-77196341D01*
X116427810Y-77103444D01*
X116233196Y-77040209D01*
X116031096Y-77008200D01*
X115826462Y-77008200D01*
X115624361Y-77040209D01*
X115429747Y-77103444D01*
X115247423Y-77196343D01*
X115202856Y-77228723D01*
X115202856Y-77228724D01*
X115882333Y-77908200D01*
X115876118Y-77908200D01*
X115774385Y-77935459D01*
X115683173Y-77988120D01*
X115608699Y-78062594D01*
X115556038Y-78153806D01*
X115528779Y-78255539D01*
X115528779Y-78261753D01*
X114849303Y-77582277D01*
X114849302Y-77582277D01*
X114816922Y-77626844D01*
X114724023Y-77809168D01*
X114660788Y-78003782D01*
X114628779Y-78205882D01*
X114628779Y-78410517D01*
X114660788Y-78612617D01*
X114724023Y-78807231D01*
X114816920Y-78989550D01*
X114816926Y-78989559D01*
X114849302Y-79034121D01*
X114849303Y-79034122D01*
X115528779Y-78354646D01*
X115528779Y-78360861D01*
X115556038Y-78462594D01*
X115608699Y-78553806D01*
X115683173Y-78628280D01*
X115774385Y-78680941D01*
X115876118Y-78708200D01*
X115882332Y-78708200D01*
X115202855Y-79387674D01*
X115247429Y-79420059D01*
X115429747Y-79512955D01*
X115624361Y-79576190D01*
X115826462Y-79608200D01*
X116031096Y-79608200D01*
X116233196Y-79576190D01*
X116427810Y-79512955D01*
X116610128Y-79420059D01*
X116654700Y-79387674D01*
X115975226Y-78708200D01*
X115981440Y-78708200D01*
X116083173Y-78680941D01*
X116174385Y-78628280D01*
X116248859Y-78553806D01*
X116301520Y-78462594D01*
X116328779Y-78360861D01*
X116328779Y-78354648D01*
X117008252Y-79034121D01*
X117046059Y-79031146D01*
X117114437Y-79045510D01*
X117164194Y-79094561D01*
X117173495Y-79115759D01*
X117193965Y-79177533D01*
X117193966Y-79177536D01*
X117226856Y-79230859D01*
X117286067Y-79326856D01*
X117410123Y-79450912D01*
X117559445Y-79543014D01*
X117725982Y-79598199D01*
X117828770Y-79608700D01*
X119028787Y-79608699D01*
X119131576Y-79598199D01*
X119298113Y-79543014D01*
X119447435Y-79450912D01*
X119571491Y-79326856D01*
X119663593Y-79177534D01*
X119693640Y-79086857D01*
X138559800Y-79086857D01*
X138562721Y-79123977D01*
X138562722Y-79123983D01*
X138608891Y-79282894D01*
X138608892Y-79282897D01*
X138693133Y-79425342D01*
X138693139Y-79425350D01*
X138810149Y-79542360D01*
X138810157Y-79542366D01*
X138952602Y-79626607D01*
X138952605Y-79626609D01*
X139111517Y-79672777D01*
X139111524Y-79672779D01*
X139119798Y-79673429D01*
X139119800Y-79673428D01*
X139619800Y-79673428D01*
X139619801Y-79673429D01*
X139628075Y-79672779D01*
X139628082Y-79672777D01*
X139786994Y-79626609D01*
X139786997Y-79626607D01*
X139929442Y-79542366D01*
X139929450Y-79542360D01*
X140046464Y-79425346D01*
X140130707Y-79282897D01*
X140130708Y-79282894D01*
X140176877Y-79123983D01*
X140176878Y-79123977D01*
X140179799Y-79086857D01*
X140179800Y-79086842D01*
X140179800Y-79058200D01*
X139619800Y-79058200D01*
X139619800Y-79673428D01*
X139119800Y-79673428D01*
X139119800Y-79058200D01*
X138559800Y-79058200D01*
X138559800Y-79086857D01*
X119693640Y-79086857D01*
X119718778Y-79010997D01*
X119729279Y-78908209D01*
X119729278Y-77979006D01*
X119748962Y-77911968D01*
X119765592Y-77891331D01*
X122342476Y-75314448D01*
X122413665Y-75207906D01*
X122462701Y-75089523D01*
X122464139Y-75082295D01*
X122469640Y-75054642D01*
X122487700Y-74963850D01*
X122487700Y-74825343D01*
X135345299Y-74825343D01*
X135383747Y-75018629D01*
X135383750Y-75018639D01*
X135459164Y-75200707D01*
X135459171Y-75200720D01*
X135568660Y-75364581D01*
X135568663Y-75364585D01*
X135708014Y-75503936D01*
X135708018Y-75503939D01*
X135871879Y-75613428D01*
X135871892Y-75613435D01*
X135985526Y-75660503D01*
X136053965Y-75688851D01*
X136053969Y-75688851D01*
X136053970Y-75688852D01*
X136247256Y-75727300D01*
X136247259Y-75727300D01*
X136444343Y-75727300D01*
X136574382Y-75701432D01*
X136637635Y-75688851D01*
X136819714Y-75613432D01*
X136983582Y-75503939D01*
X137073903Y-75413617D01*
X137135224Y-75380134D01*
X137161583Y-75377300D01*
X139205271Y-75377300D01*
X139330939Y-75352302D01*
X139330939Y-75352301D01*
X139330944Y-75352301D01*
X139367209Y-75337278D01*
X139397245Y-75324838D01*
X139444698Y-75315399D01*
X139641790Y-75315399D01*
X139641802Y-75315399D01*
X139678958Y-75312476D01*
X139838000Y-75266270D01*
X139964651Y-75191367D01*
X140027772Y-75174100D01*
X141427929Y-75174100D01*
X141494968Y-75193785D01*
X141528245Y-75225213D01*
X141600627Y-75324838D01*
X141634034Y-75370819D01*
X141778786Y-75515571D01*
X141913483Y-75613432D01*
X141944390Y-75635887D01*
X142035840Y-75682483D01*
X142037080Y-75683115D01*
X142087876Y-75731090D01*
X142104671Y-75798911D01*
X142082134Y-75865046D01*
X142037080Y-75904085D01*
X141944386Y-75951315D01*
X141778786Y-76071628D01*
X141634034Y-76216380D01*
X141634030Y-76216386D01*
X141528246Y-76361986D01*
X141472918Y-76404651D01*
X141427929Y-76413100D01*
X140220129Y-76413100D01*
X140094461Y-76438097D01*
X140094451Y-76438100D01*
X140045420Y-76458410D01*
X139976081Y-76487130D01*
X139976063Y-76487140D01*
X139869536Y-76558319D01*
X139869528Y-76558325D01*
X139658972Y-76768881D01*
X139632044Y-76783584D01*
X139606226Y-76800177D01*
X139600025Y-76801068D01*
X139597649Y-76802366D01*
X139571291Y-76805200D01*
X139473109Y-76805200D01*
X139406070Y-76785515D01*
X139385428Y-76768881D01*
X139378073Y-76761526D01*
X139378069Y-76761523D01*
X139271527Y-76690335D01*
X139153144Y-76641299D01*
X139153138Y-76641297D01*
X139027471Y-76616300D01*
X139027469Y-76616300D01*
X137161583Y-76616300D01*
X137094544Y-76596615D01*
X137073906Y-76579985D01*
X136983582Y-76489661D01*
X136983581Y-76489660D01*
X136983580Y-76489659D01*
X136819720Y-76380171D01*
X136819707Y-76380164D01*
X136637639Y-76304750D01*
X136637629Y-76304747D01*
X136444343Y-76266300D01*
X136444341Y-76266300D01*
X136247259Y-76266300D01*
X136247257Y-76266300D01*
X136053970Y-76304747D01*
X136053960Y-76304750D01*
X135871892Y-76380164D01*
X135871879Y-76380171D01*
X135708018Y-76489660D01*
X135708014Y-76489663D01*
X135568663Y-76629014D01*
X135568660Y-76629018D01*
X135459171Y-76792879D01*
X135459164Y-76792892D01*
X135383750Y-76974960D01*
X135383747Y-76974970D01*
X135345300Y-77168256D01*
X135345300Y-77168259D01*
X135345300Y-77365341D01*
X135345300Y-77365343D01*
X135345299Y-77365343D01*
X135383747Y-77558629D01*
X135383750Y-77558639D01*
X135459164Y-77740707D01*
X135459171Y-77740720D01*
X135568660Y-77904581D01*
X135568663Y-77904585D01*
X135708014Y-78043936D01*
X135708018Y-78043939D01*
X135871879Y-78153428D01*
X135871892Y-78153435D01*
X136040793Y-78223395D01*
X136053965Y-78228851D01*
X136053969Y-78228851D01*
X136053970Y-78228852D01*
X136247256Y-78267300D01*
X136247259Y-78267300D01*
X136444343Y-78267300D01*
X136598734Y-78236589D01*
X136637635Y-78228851D01*
X136819714Y-78153432D01*
X136983582Y-78043939D01*
X137073903Y-77953617D01*
X137135224Y-77920134D01*
X137161583Y-77917300D01*
X138448275Y-77917300D01*
X138470390Y-77923793D01*
X138493352Y-77925784D01*
X138503279Y-77933451D01*
X138515314Y-77936985D01*
X138530406Y-77954402D01*
X138548649Y-77968492D01*
X138556480Y-77984493D01*
X138561069Y-77989789D01*
X138565096Y-77999720D01*
X138566323Y-78003169D01*
X138608430Y-78148100D01*
X138632237Y-78188355D01*
X138636243Y-78199610D01*
X138637564Y-78223042D01*
X138643337Y-78245792D01*
X138639571Y-78258616D01*
X138640178Y-78269369D01*
X138632354Y-78283197D01*
X138626156Y-78304309D01*
X138608893Y-78333500D01*
X138608891Y-78333504D01*
X138562722Y-78492416D01*
X138562721Y-78492422D01*
X138559800Y-78529542D01*
X138559800Y-78558200D01*
X140179800Y-78558200D01*
X140179800Y-78529557D01*
X140179799Y-78529542D01*
X140176878Y-78492422D01*
X140176877Y-78492416D01*
X140130708Y-78333505D01*
X140130706Y-78333500D01*
X140113445Y-78304313D01*
X140110419Y-78292388D01*
X140103227Y-78282408D01*
X140101987Y-78259158D01*
X140096261Y-78236589D01*
X140100071Y-78223213D01*
X140099508Y-78212637D01*
X140111701Y-78182394D01*
X140112441Y-78179798D01*
X140112899Y-78178994D01*
X140131170Y-78148100D01*
X140131862Y-78145716D01*
X140136633Y-78137345D01*
X140142989Y-78131215D01*
X140156684Y-78111060D01*
X140517327Y-77750419D01*
X140578650Y-77716934D01*
X140605008Y-77714100D01*
X141427929Y-77714100D01*
X141494968Y-77733785D01*
X141528245Y-77765213D01*
X141560181Y-77809168D01*
X141634034Y-77910819D01*
X141778786Y-78055571D01*
X141944385Y-78175884D01*
X141944387Y-78175885D01*
X141944390Y-78175887D01*
X142037630Y-78223395D01*
X142088426Y-78271370D01*
X142105221Y-78339191D01*
X142082684Y-78405325D01*
X142037630Y-78444365D01*
X141944644Y-78491743D01*
X141900077Y-78524123D01*
X141900077Y-78524124D01*
X142579554Y-79203600D01*
X142573339Y-79203600D01*
X142471606Y-79230859D01*
X142380394Y-79283520D01*
X142305920Y-79357994D01*
X142253259Y-79449206D01*
X142226000Y-79550939D01*
X142226000Y-79557153D01*
X141546524Y-78877677D01*
X141546523Y-78877677D01*
X141514143Y-78922244D01*
X141421244Y-79104568D01*
X141358009Y-79299182D01*
X141326000Y-79501282D01*
X141326000Y-79705917D01*
X141358009Y-79908017D01*
X141421244Y-80102631D01*
X141514141Y-80284950D01*
X141514147Y-80284959D01*
X141546523Y-80329521D01*
X141546524Y-80329522D01*
X142226000Y-79650046D01*
X142226000Y-79656261D01*
X142253259Y-79757994D01*
X142305920Y-79849206D01*
X142380394Y-79923680D01*
X142471606Y-79976341D01*
X142573339Y-80003600D01*
X142579553Y-80003600D01*
X141900076Y-80683074D01*
X141944650Y-80715459D01*
X142126968Y-80808355D01*
X142321582Y-80871590D01*
X142523683Y-80903600D01*
X142728317Y-80903600D01*
X142930417Y-80871590D01*
X143125031Y-80808355D01*
X143307349Y-80715459D01*
X143351921Y-80683074D01*
X142672447Y-80003600D01*
X142678661Y-80003600D01*
X142780394Y-79976341D01*
X142871606Y-79923680D01*
X142946080Y-79849206D01*
X142998741Y-79757994D01*
X143026000Y-79656261D01*
X143026000Y-79650048D01*
X143705474Y-80329522D01*
X143705474Y-80329521D01*
X143737859Y-80284949D01*
X143830755Y-80102631D01*
X143893990Y-79908017D01*
X143926000Y-79705917D01*
X143926000Y-79501282D01*
X143893990Y-79299182D01*
X143830755Y-79104568D01*
X143737859Y-78922250D01*
X143705474Y-78877677D01*
X143705474Y-78877676D01*
X143026000Y-79557151D01*
X143026000Y-79550939D01*
X142998741Y-79449206D01*
X142946080Y-79357994D01*
X142871606Y-79283520D01*
X142780394Y-79230859D01*
X142678661Y-79203600D01*
X142672446Y-79203600D01*
X143351922Y-78524124D01*
X143351921Y-78524123D01*
X143307359Y-78491747D01*
X143307350Y-78491741D01*
X143214369Y-78444365D01*
X143163573Y-78396390D01*
X143146778Y-78328569D01*
X143169315Y-78262435D01*
X143214370Y-78223395D01*
X143307610Y-78175887D01*
X143396842Y-78111057D01*
X143473213Y-78055571D01*
X143473215Y-78055568D01*
X143473219Y-78055566D01*
X143617966Y-77910819D01*
X143617968Y-77910815D01*
X143617971Y-77910813D01*
X143691819Y-77809168D01*
X143738287Y-77745210D01*
X143831220Y-77562819D01*
X143894477Y-77368134D01*
X143926500Y-77165952D01*
X143926500Y-76961248D01*
X143911753Y-76868138D01*
X143894477Y-76759065D01*
X143856212Y-76641299D01*
X143831220Y-76564381D01*
X143831218Y-76564378D01*
X143831218Y-76564376D01*
X143792367Y-76488127D01*
X143738287Y-76381990D01*
X143715772Y-76351000D01*
X143617971Y-76216386D01*
X143473213Y-76071628D01*
X143307614Y-75951315D01*
X143301006Y-75947948D01*
X143214917Y-75904083D01*
X143164123Y-75856111D01*
X143147328Y-75788290D01*
X143169865Y-75722155D01*
X143214917Y-75683116D01*
X143307610Y-75635887D01*
X143366001Y-75593464D01*
X143473213Y-75515571D01*
X143473215Y-75515568D01*
X143473219Y-75515566D01*
X143617966Y-75370819D01*
X143617968Y-75370815D01*
X143617971Y-75370813D01*
X143681196Y-75283790D01*
X143738287Y-75205210D01*
X143831220Y-75022819D01*
X143894477Y-74828134D01*
X143926500Y-74625952D01*
X143926500Y-74421248D01*
X143913774Y-74340903D01*
X143894477Y-74219065D01*
X143852222Y-74089018D01*
X143831220Y-74024381D01*
X143831218Y-74024378D01*
X143831218Y-74024376D01*
X143792367Y-73948127D01*
X143738287Y-73841990D01*
X143715772Y-73811000D01*
X143617971Y-73676386D01*
X143473219Y-73531634D01*
X143473211Y-73531628D01*
X143379547Y-73463578D01*
X143336882Y-73408249D01*
X143330903Y-73338636D01*
X143363508Y-73276840D01*
X143413426Y-73245555D01*
X143495334Y-73218414D01*
X143644656Y-73126312D01*
X143768712Y-73002256D01*
X143860814Y-72852934D01*
X143915999Y-72686397D01*
X143926500Y-72583609D01*
X143926499Y-71383592D01*
X143926131Y-71379994D01*
X143915999Y-71280803D01*
X143915998Y-71280800D01*
X143890395Y-71203536D01*
X143860814Y-71114266D01*
X143768712Y-70964944D01*
X143644656Y-70840888D01*
X143495334Y-70748786D01*
X143328797Y-70693601D01*
X143328795Y-70693600D01*
X143226010Y-70683100D01*
X142025998Y-70683100D01*
X142025981Y-70683101D01*
X141923203Y-70693600D01*
X141923200Y-70693601D01*
X141756668Y-70748785D01*
X141756663Y-70748787D01*
X141607342Y-70840889D01*
X141483289Y-70964942D01*
X141391187Y-71114263D01*
X141391185Y-71114268D01*
X141364937Y-71193481D01*
X141336001Y-71280803D01*
X141336001Y-71280804D01*
X141336000Y-71280804D01*
X141325500Y-71383583D01*
X141325500Y-72583601D01*
X141325501Y-72583618D01*
X141336000Y-72686396D01*
X141336001Y-72686399D01*
X141370728Y-72791196D01*
X141391186Y-72852934D01*
X141483288Y-73002256D01*
X141607344Y-73126312D01*
X141756666Y-73218414D01*
X141838570Y-73245554D01*
X141896015Y-73285327D01*
X141922838Y-73349843D01*
X141910523Y-73418618D01*
X141872451Y-73463578D01*
X141778787Y-73531628D01*
X141778782Y-73531632D01*
X141634034Y-73676380D01*
X141597766Y-73726300D01*
X141528246Y-73821986D01*
X141472918Y-73864651D01*
X141427929Y-73873100D01*
X140321674Y-73873100D01*
X140254635Y-73853415D01*
X140208880Y-73800611D01*
X140198936Y-73731453D01*
X140202598Y-73714505D01*
X140227677Y-73628183D01*
X140227678Y-73628177D01*
X140230599Y-73591057D01*
X140230600Y-73591042D01*
X140230600Y-73562400D01*
X138610600Y-73562400D01*
X138610600Y-73591057D01*
X138613521Y-73628177D01*
X138613522Y-73628183D01*
X138659691Y-73787094D01*
X138659693Y-73787099D01*
X138676955Y-73816289D01*
X138678777Y-73823471D01*
X138683570Y-73829126D01*
X138687253Y-73856882D01*
X138694136Y-73884013D01*
X138692013Y-73892754D01*
X138692761Y-73898388D01*
X138686190Y-73916735D01*
X138682450Y-73932142D01*
X138679944Y-73937473D01*
X138659230Y-73972500D01*
X138652335Y-73996230D01*
X138648199Y-74005034D01*
X138631220Y-74024203D01*
X138617440Y-74045781D01*
X138608442Y-74049921D01*
X138601873Y-74057338D01*
X138577224Y-74064285D01*
X138553967Y-74074987D01*
X138535971Y-74076300D01*
X137161583Y-74076300D01*
X137094544Y-74056615D01*
X137073906Y-74039985D01*
X136983582Y-73949661D01*
X136983581Y-73949660D01*
X136983580Y-73949659D01*
X136819720Y-73840171D01*
X136819707Y-73840164D01*
X136637639Y-73764750D01*
X136637629Y-73764747D01*
X136444343Y-73726300D01*
X136444341Y-73726300D01*
X136247259Y-73726300D01*
X136247257Y-73726300D01*
X136053970Y-73764747D01*
X136053960Y-73764750D01*
X135871892Y-73840164D01*
X135871879Y-73840171D01*
X135708018Y-73949660D01*
X135708014Y-73949663D01*
X135568663Y-74089014D01*
X135568660Y-74089018D01*
X135459171Y-74252879D01*
X135459164Y-74252892D01*
X135383750Y-74434960D01*
X135383747Y-74434970D01*
X135345300Y-74628256D01*
X135345300Y-74628259D01*
X135345300Y-74825341D01*
X135345300Y-74825343D01*
X135345299Y-74825343D01*
X122487700Y-74825343D01*
X122487700Y-73033742D01*
X138610600Y-73033742D01*
X138610600Y-73062400D01*
X139170600Y-73062400D01*
X139670600Y-73062400D01*
X140230600Y-73062400D01*
X140230600Y-73033757D01*
X140230599Y-73033742D01*
X140227678Y-72996622D01*
X140227677Y-72996616D01*
X140181508Y-72837705D01*
X140181507Y-72837702D01*
X140097266Y-72695257D01*
X140097260Y-72695249D01*
X139980250Y-72578239D01*
X139980242Y-72578233D01*
X139837797Y-72493992D01*
X139837794Y-72493990D01*
X139678880Y-72447821D01*
X139678881Y-72447821D01*
X139670600Y-72447169D01*
X139670600Y-73062400D01*
X139170600Y-73062400D01*
X139170600Y-72447169D01*
X139162318Y-72447821D01*
X139003405Y-72493990D01*
X139003402Y-72493992D01*
X138860957Y-72578233D01*
X138860949Y-72578239D01*
X138743939Y-72695249D01*
X138743933Y-72695257D01*
X138659692Y-72837702D01*
X138659691Y-72837705D01*
X138613522Y-72996616D01*
X138613521Y-72996622D01*
X138610600Y-73033742D01*
X122487700Y-73033742D01*
X122487700Y-71649838D01*
X122507385Y-71582799D01*
X122546601Y-71544300D01*
X122655856Y-71476912D01*
X122779912Y-71352856D01*
X122872014Y-71203534D01*
X122927199Y-71036997D01*
X122937700Y-70934209D01*
X122937699Y-69934192D01*
X122936604Y-69923477D01*
X122927199Y-69831403D01*
X122927198Y-69831400D01*
X122910632Y-69781408D01*
X122872014Y-69664866D01*
X122779912Y-69515544D01*
X122655856Y-69391488D01*
X122546602Y-69324100D01*
X122499879Y-69272153D01*
X122487700Y-69218562D01*
X122487700Y-66776328D01*
X122462702Y-66650661D01*
X122462701Y-66650660D01*
X122462701Y-66650656D01*
X122413665Y-66532273D01*
X122407907Y-66523656D01*
X122401677Y-66514331D01*
X122342474Y-66425727D01*
X122342471Y-66425724D01*
X121888379Y-65971633D01*
X121854894Y-65910310D01*
X121858131Y-65845629D01*
X121863613Y-65828757D01*
X121863612Y-65828757D01*
X121863615Y-65828751D01*
X121898100Y-65611022D01*
X121898100Y-65390578D01*
X121863615Y-65172849D01*
X121824984Y-65053953D01*
X121795496Y-64963196D01*
X121795495Y-64963193D01*
X121748955Y-64871855D01*
X121695415Y-64766778D01*
X121657120Y-64714069D01*
X121617074Y-64658949D01*
X121566408Y-64589213D01*
X125952400Y-64589213D01*
X125952400Y-64739200D01*
X126902400Y-64739200D01*
X127402400Y-64739200D01*
X128352399Y-64739200D01*
X128352399Y-64589228D01*
X128352398Y-64589213D01*
X128341905Y-64486502D01*
X128286758Y-64320080D01*
X128286756Y-64320075D01*
X128194715Y-64170854D01*
X128070745Y-64046884D01*
X127921524Y-63954843D01*
X127921519Y-63954841D01*
X127755097Y-63899694D01*
X127755090Y-63899693D01*
X127652386Y-63889200D01*
X127402400Y-63889200D01*
X127402400Y-64739200D01*
X126902400Y-64739200D01*
X126902400Y-63889200D01*
X126652429Y-63889200D01*
X126652412Y-63889201D01*
X126549702Y-63899694D01*
X126383280Y-63954841D01*
X126383275Y-63954843D01*
X126234054Y-64046884D01*
X126110084Y-64170854D01*
X126018043Y-64320075D01*
X126018041Y-64320080D01*
X125962894Y-64486502D01*
X125962893Y-64486509D01*
X125952400Y-64589213D01*
X121566408Y-64589213D01*
X121565847Y-64588441D01*
X121565843Y-64588436D01*
X121409963Y-64432556D01*
X121409958Y-64432552D01*
X121231625Y-64302987D01*
X121231624Y-64302986D01*
X121231622Y-64302985D01*
X121168696Y-64270922D01*
X121035206Y-64202904D01*
X121035203Y-64202903D01*
X120825552Y-64134785D01*
X120716686Y-64117542D01*
X120607822Y-64100300D01*
X120387378Y-64100300D01*
X120314801Y-64111795D01*
X120169647Y-64134785D01*
X119959996Y-64202903D01*
X119959993Y-64202904D01*
X119763574Y-64302987D01*
X119585241Y-64432552D01*
X119585236Y-64432556D01*
X119429356Y-64588436D01*
X119327608Y-64728481D01*
X119272278Y-64771146D01*
X119202665Y-64777125D01*
X119140870Y-64744519D01*
X119126971Y-64728480D01*
X119108666Y-64703285D01*
X119108665Y-64703285D01*
X118399737Y-65412213D01*
X118376933Y-65327106D01*
X118317690Y-65224494D01*
X118233906Y-65140710D01*
X118131294Y-65081467D01*
X118046183Y-65058661D01*
X118755113Y-64349732D01*
X118691356Y-64303411D01*
X118495010Y-64203367D01*
X118285435Y-64135273D01*
X118067781Y-64100800D01*
X117847419Y-64100800D01*
X117629764Y-64135273D01*
X117420189Y-64203367D01*
X117223833Y-64303416D01*
X117160085Y-64349731D01*
X117160085Y-64349732D01*
X117869014Y-65058661D01*
X117783906Y-65081467D01*
X117681294Y-65140710D01*
X117597510Y-65224494D01*
X117538267Y-65327106D01*
X117515461Y-65412215D01*
X116832192Y-64728946D01*
X116802167Y-64680269D01*
X116771738Y-64588441D01*
X116752554Y-64530547D01*
X116745002Y-64518303D01*
X116710328Y-64462087D01*
X116710327Y-64462085D01*
X116660650Y-64381547D01*
X116660647Y-64381543D01*
X116536857Y-64257753D01*
X116536856Y-64257752D01*
X116444288Y-64200656D01*
X116387855Y-64165847D01*
X116387850Y-64165845D01*
X116221673Y-64110779D01*
X116221666Y-64110778D01*
X116119102Y-64100300D01*
X114716106Y-64100300D01*
X114716090Y-64100301D01*
X114613526Y-64110779D01*
X114447349Y-64165845D01*
X114447344Y-64165847D01*
X114298342Y-64257753D01*
X114174553Y-64381542D01*
X114082647Y-64530544D01*
X114082645Y-64530549D01*
X114027579Y-64696726D01*
X114027578Y-64696733D01*
X114017100Y-64799291D01*
X114017100Y-65929991D01*
X113997415Y-65997030D01*
X113980781Y-66017672D01*
X113699724Y-66298729D01*
X113699723Y-66298731D01*
X113657499Y-66361926D01*
X113652855Y-66368876D01*
X113652853Y-66368878D01*
X113628539Y-66405264D01*
X113628533Y-66405275D01*
X113579499Y-66523655D01*
X113579497Y-66523661D01*
X113554500Y-66649328D01*
X113554500Y-69243962D01*
X113534815Y-69311001D01*
X113495598Y-69349499D01*
X113451798Y-69376516D01*
X113386342Y-69416889D01*
X113262289Y-69540942D01*
X113170187Y-69690263D01*
X113170185Y-69690268D01*
X113159512Y-69722478D01*
X113115001Y-69856803D01*
X113115001Y-69856804D01*
X113115000Y-69856804D01*
X113104500Y-69959583D01*
X113104500Y-70588791D01*
X113084815Y-70655830D01*
X113068181Y-70676472D01*
X111889727Y-71854925D01*
X111889726Y-71854926D01*
X111818534Y-71961474D01*
X111769499Y-72079855D01*
X111769497Y-72079861D01*
X111744500Y-72205528D01*
X111744500Y-72205531D01*
X111744500Y-81344069D01*
X111744500Y-81344071D01*
X111744499Y-81344071D01*
X111766667Y-81455508D01*
X111769497Y-81469739D01*
X111769500Y-81469746D01*
X111818534Y-81588125D01*
X111889726Y-81694673D01*
X116383926Y-86188873D01*
X116383929Y-86188875D01*
X116383931Y-86188877D01*
X116490473Y-86260065D01*
X116608856Y-86309101D01*
X116608860Y-86309101D01*
X116608861Y-86309102D01*
X116734528Y-86334100D01*
X116734531Y-86334100D01*
X120719592Y-86334100D01*
X120786631Y-86353785D01*
X120807273Y-86370419D01*
X123520332Y-89083478D01*
X123553817Y-89144801D01*
X123548833Y-89214493D01*
X123506961Y-89270426D01*
X123441497Y-89294843D01*
X123395294Y-89288901D01*
X123395234Y-89289127D01*
X123393556Y-89288677D01*
X123392798Y-89288580D01*
X123391318Y-89288077D01*
X123138075Y-89220222D01*
X123138064Y-89220220D01*
X122878149Y-89186000D01*
X122615960Y-89186000D01*
X122356045Y-89220220D01*
X122356034Y-89220222D01*
X122102799Y-89288075D01*
X121860583Y-89388404D01*
X121860572Y-89388409D01*
X121633526Y-89519496D01*
X121520688Y-89606079D01*
X121520688Y-89606080D01*
X122423030Y-90508421D01*
X122391797Y-90521359D01*
X122268958Y-90603437D01*
X122164492Y-90707903D01*
X122082414Y-90830742D01*
X122069476Y-90861974D01*
X121167135Y-89959633D01*
X121167134Y-89959633D01*
X121080551Y-90072471D01*
X120949464Y-90299517D01*
X120949459Y-90299528D01*
X120849130Y-90541744D01*
X120781277Y-90794979D01*
X120781275Y-90794990D01*
X120747055Y-91054905D01*
X120747055Y-91317094D01*
X120781275Y-91577009D01*
X120781277Y-91577020D01*
X120849130Y-91830255D01*
X120949459Y-92072471D01*
X120949464Y-92072482D01*
X121080543Y-92299516D01*
X121080547Y-92299522D01*
X121167135Y-92412365D01*
X122069476Y-91510024D01*
X122082414Y-91541258D01*
X122164492Y-91664097D01*
X122268958Y-91768563D01*
X122391797Y-91850641D01*
X122423029Y-91863577D01*
X121520688Y-92765917D01*
X121520688Y-92765918D01*
X121633530Y-92852505D01*
X121633538Y-92852511D01*
X121860572Y-92983590D01*
X121860583Y-92983595D01*
X122102799Y-93083924D01*
X122356034Y-93151777D01*
X122356045Y-93151779D01*
X122615960Y-93185999D01*
X122615975Y-93186000D01*
X122878135Y-93186000D01*
X122878149Y-93185999D01*
X123138064Y-93151779D01*
X123138075Y-93151777D01*
X123391310Y-93083924D01*
X123633526Y-92983595D01*
X123633537Y-92983590D01*
X123860571Y-92852511D01*
X123860589Y-92852499D01*
X123973420Y-92765919D01*
X123973420Y-92765917D01*
X123071080Y-91863578D01*
X123102313Y-91850641D01*
X123225152Y-91768563D01*
X123329618Y-91664097D01*
X123411696Y-91541258D01*
X123424633Y-91510024D01*
X124326972Y-92412365D01*
X124326974Y-92412365D01*
X124413554Y-92299534D01*
X124413566Y-92299516D01*
X124544645Y-92072482D01*
X124544650Y-92072471D01*
X124644979Y-91830255D01*
X124712832Y-91577020D01*
X124712834Y-91577009D01*
X124747054Y-91317094D01*
X124747055Y-91317080D01*
X124747055Y-91054919D01*
X124747054Y-91054905D01*
X124712834Y-90794990D01*
X124712832Y-90794979D01*
X124644979Y-90541743D01*
X124644481Y-90540277D01*
X124644461Y-90539812D01*
X124643928Y-90537821D01*
X124644373Y-90537701D01*
X124641563Y-90470469D01*
X124676849Y-90410164D01*
X124739137Y-90378510D01*
X124808651Y-90385557D01*
X124849576Y-90412723D01*
X128998327Y-94561474D01*
X128998330Y-94561476D01*
X129069854Y-94609266D01*
X129104873Y-94632665D01*
X129223256Y-94681701D01*
X129223260Y-94681701D01*
X129223261Y-94681702D01*
X129348928Y-94706700D01*
X129348931Y-94706700D01*
X151244871Y-94706700D01*
X151341145Y-94687549D01*
X151370544Y-94681701D01*
X151488927Y-94632665D01*
X151508036Y-94619897D01*
X151595469Y-94561477D01*
X155884327Y-90272619D01*
X155945650Y-90239134D01*
X155972008Y-90236300D01*
X157667192Y-90236300D01*
X157734231Y-90255985D01*
X157754873Y-90272619D01*
X161517581Y-94035327D01*
X161551066Y-94096650D01*
X161552957Y-94114243D01*
X161553303Y-94114209D01*
X161553899Y-94120271D01*
X161578897Y-94245938D01*
X161578899Y-94245944D01*
X161627933Y-94364324D01*
X161627938Y-94364333D01*
X161699123Y-94470868D01*
X161699126Y-94470872D01*
X161789727Y-94561473D01*
X161789731Y-94561476D01*
X161896266Y-94632661D01*
X161896272Y-94632664D01*
X161896273Y-94632665D01*
X162014656Y-94681701D01*
X162014660Y-94681701D01*
X162014661Y-94681702D01*
X162140328Y-94706700D01*
X162140331Y-94706700D01*
X177127471Y-94706700D01*
X177223745Y-94687549D01*
X177253144Y-94681701D01*
X177371527Y-94632665D01*
X177390636Y-94619897D01*
X177478069Y-94561477D01*
X178659276Y-93380270D01*
X178730465Y-93273727D01*
X178733286Y-93266918D01*
X178758567Y-93205882D01*
X178779501Y-93155344D01*
X178783249Y-93136500D01*
X178804500Y-93029669D01*
X178804500Y-89000499D01*
X178824185Y-88933460D01*
X178876989Y-88887705D01*
X178928495Y-88876499D01*
X179921872Y-88876499D01*
X179981483Y-88870091D01*
X180116331Y-88819796D01*
X180231546Y-88733546D01*
X180317796Y-88618331D01*
X180368091Y-88483483D01*
X180374500Y-88423873D01*
X180374499Y-86950498D01*
X180377049Y-86941813D01*
X180375761Y-86932852D01*
X180386739Y-86908811D01*
X180394184Y-86883460D01*
X180401024Y-86877532D01*
X180404786Y-86869296D01*
X180427018Y-86855008D01*
X180446987Y-86837705D01*
X180457502Y-86835417D01*
X180463564Y-86831522D01*
X180498493Y-86826499D01*
X180664501Y-86826499D01*
X180731539Y-86846184D01*
X180777294Y-86898988D01*
X180788500Y-86950499D01*
X180788500Y-97274887D01*
X180768815Y-97341926D01*
X180767602Y-97343778D01*
X180722809Y-97410814D01*
X180722802Y-97410827D01*
X180662464Y-97556498D01*
X180662461Y-97556510D01*
X180631700Y-97711153D01*
X180631700Y-97868846D01*
X180662461Y-98023489D01*
X180662464Y-98023501D01*
X180722802Y-98169172D01*
X180722809Y-98169185D01*
X180810410Y-98300288D01*
X180810413Y-98300292D01*
X180921907Y-98411786D01*
X180921911Y-98411789D01*
X181053014Y-98499390D01*
X181053027Y-98499397D01*
X181195835Y-98558549D01*
X181198703Y-98559737D01*
X181353353Y-98590499D01*
X181353356Y-98590500D01*
X181353358Y-98590500D01*
X181511044Y-98590500D01*
X181511045Y-98590499D01*
X181572446Y-98578286D01*
X181671672Y-98558549D01*
X181672026Y-98560332D01*
X181733339Y-98559771D01*
X181792461Y-98597005D01*
X181822067Y-98660292D01*
X181812758Y-98729539D01*
X181787177Y-98766744D01*
X181467141Y-99086781D01*
X181405818Y-99120266D01*
X181379460Y-99123100D01*
X121816732Y-99123100D01*
X121749693Y-99103415D01*
X121729051Y-99086781D01*
X109942119Y-87299849D01*
X109908634Y-87238526D01*
X109905800Y-87212168D01*
X109905800Y-85344000D01*
X108037632Y-85344000D01*
X107970593Y-85324315D01*
X107949951Y-85307681D01*
X89511892Y-66869621D01*
X89511888Y-66869618D01*
X89380785Y-66782017D01*
X89380772Y-66782010D01*
X89235101Y-66721672D01*
X89235089Y-66721669D01*
X89080445Y-66690908D01*
X89080442Y-66690908D01*
X85404363Y-66690908D01*
X85337324Y-66671223D01*
X85291569Y-66618419D01*
X85283111Y-66592867D01*
X85282200Y-66588615D01*
X85281617Y-66586855D01*
X85227014Y-66422074D01*
X85134912Y-66272752D01*
X85010856Y-66148696D01*
X84918088Y-66091477D01*
X84861536Y-66056595D01*
X84861531Y-66056593D01*
X84806646Y-66038406D01*
X84694997Y-66001409D01*
X84694995Y-66001408D01*
X84592210Y-65990908D01*
X82692198Y-65990908D01*
X82692181Y-65990909D01*
X82589403Y-66001408D01*
X82589400Y-66001409D01*
X82422868Y-66056593D01*
X82422863Y-66056595D01*
X82273542Y-66148697D01*
X82149489Y-66272750D01*
X82057387Y-66422071D01*
X82057385Y-66422076D01*
X82041157Y-66471050D01*
X82002201Y-66588611D01*
X82002201Y-66588612D01*
X82002200Y-66588612D01*
X81991700Y-66691391D01*
X81991700Y-68291409D01*
X81991701Y-68291426D01*
X82002200Y-68394204D01*
X82002201Y-68394207D01*
X82057385Y-68560739D01*
X82057387Y-68560744D01*
X82072919Y-68585925D01*
X82149488Y-68710064D01*
X82273544Y-68834120D01*
X82322293Y-68864189D01*
X82369018Y-68916135D01*
X82380241Y-68985098D01*
X82352398Y-69049180D01*
X82351198Y-69050495D01*
X82351227Y-69050520D01*
X82348060Y-69054227D01*
X82209287Y-69245233D01*
X82102097Y-69455605D01*
X82029134Y-69680160D01*
X82013098Y-69781408D01*
X83042199Y-69781408D01*
X83017179Y-69841810D01*
X82992200Y-69967389D01*
X82992200Y-70095427D01*
X83017179Y-70221006D01*
X83042199Y-70281408D01*
X82013098Y-70281408D01*
X82029134Y-70382655D01*
X82102097Y-70607210D01*
X82209285Y-70817579D01*
X82348066Y-71008594D01*
X82515013Y-71175541D01*
X82515019Y-71175546D01*
X82550177Y-71201090D01*
X82592843Y-71256420D01*
X82598822Y-71326033D01*
X82566216Y-71387828D01*
X82550177Y-71401726D01*
X82515019Y-71427269D01*
X82515013Y-71427274D01*
X82348066Y-71594221D01*
X82209285Y-71785236D01*
X82102097Y-71995605D01*
X82029134Y-72220160D01*
X82013098Y-72321408D01*
X83042199Y-72321408D01*
X83017179Y-72381810D01*
X82992200Y-72507389D01*
X82992200Y-72635427D01*
X83017179Y-72761006D01*
X83042199Y-72821408D01*
X82013098Y-72821408D01*
X82029134Y-72922655D01*
X82102097Y-73147210D01*
X82209285Y-73357579D01*
X82348066Y-73548594D01*
X82515013Y-73715541D01*
X82706028Y-73854322D01*
X82916397Y-73961510D01*
X83140952Y-74034473D01*
X83140951Y-74034473D01*
X83374148Y-74071408D01*
X83392200Y-74071408D01*
X83392200Y-73171409D01*
X83452602Y-73196429D01*
X83578181Y-73221408D01*
X83706219Y-73221408D01*
X83831798Y-73196429D01*
X83892200Y-73171409D01*
X83892200Y-74071408D01*
X83910252Y-74071408D01*
X84143447Y-74034473D01*
X84368002Y-73961510D01*
X84578371Y-73854322D01*
X84769386Y-73715541D01*
X84936333Y-73548594D01*
X85075114Y-73357579D01*
X85182302Y-73147210D01*
X85255265Y-72922655D01*
X85271302Y-72821408D01*
X84242201Y-72821408D01*
X84267221Y-72761006D01*
X84292200Y-72635427D01*
X84292200Y-72507389D01*
X84267221Y-72381810D01*
X84242201Y-72321408D01*
X85271302Y-72321408D01*
X85255265Y-72220160D01*
X85182302Y-71995605D01*
X85075114Y-71785236D01*
X84936333Y-71594221D01*
X84769380Y-71427268D01*
X84734224Y-71401727D01*
X84691558Y-71346398D01*
X84685577Y-71276785D01*
X84718182Y-71214989D01*
X84734224Y-71201089D01*
X84769380Y-71175547D01*
X84936333Y-71008594D01*
X85075114Y-70817579D01*
X85182302Y-70607210D01*
X85255265Y-70382655D01*
X85271302Y-70281408D01*
X84242201Y-70281408D01*
X84267221Y-70221006D01*
X84292200Y-70095427D01*
X84292200Y-69967389D01*
X84267221Y-69841810D01*
X84242201Y-69781408D01*
X85271302Y-69781408D01*
X85255265Y-69680160D01*
X85182302Y-69455605D01*
X85075114Y-69245236D01*
X84936333Y-69054221D01*
X84933172Y-69050520D01*
X84934936Y-69049013D01*
X84906036Y-68996086D01*
X84911020Y-68926394D01*
X84952892Y-68870461D01*
X84962106Y-68864189D01*
X84999095Y-68841374D01*
X85010856Y-68834120D01*
X85134912Y-68710064D01*
X85227014Y-68560742D01*
X85282199Y-68394205D01*
X85282199Y-68394201D01*
X85283112Y-68389941D01*
X85316399Y-68328510D01*
X85377614Y-68294827D01*
X85404363Y-68291908D01*
X88618660Y-68291908D01*
X88685699Y-68311593D01*
X88706341Y-68328227D01*
X105510433Y-85132319D01*
X105543918Y-85193642D01*
X105538934Y-85263334D01*
X105497062Y-85319267D01*
X105431598Y-85343684D01*
X105422752Y-85344000D01*
X77995500Y-85344000D01*
X77928461Y-85324315D01*
X77882706Y-85271511D01*
X77871500Y-85220000D01*
X77871500Y-84482492D01*
X77891185Y-84415453D01*
X77943989Y-84369698D01*
X77956488Y-84364788D01*
X78010734Y-84346814D01*
X78160056Y-84254712D01*
X78284112Y-84130656D01*
X78376214Y-83981334D01*
X78431399Y-83814797D01*
X78441900Y-83712009D01*
X78441899Y-82911992D01*
X78434352Y-82838116D01*
X78431399Y-82809203D01*
X78431398Y-82809200D01*
X78411221Y-82748310D01*
X78376214Y-82642666D01*
X78284112Y-82493344D01*
X78190449Y-82399681D01*
X78156964Y-82338358D01*
X78161948Y-82268666D01*
X78190449Y-82224319D01*
X78204382Y-82210386D01*
X78284112Y-82130656D01*
X78376214Y-81981334D01*
X78431399Y-81814797D01*
X78441900Y-81712009D01*
X78441899Y-80911992D01*
X78431399Y-80809203D01*
X78376214Y-80642666D01*
X78284112Y-80493344D01*
X78160056Y-80369288D01*
X78044685Y-80298127D01*
X78010736Y-80277187D01*
X78010735Y-80277186D01*
X78010734Y-80277186D01*
X78010728Y-80277184D01*
X77976894Y-80265972D01*
X77919450Y-80226199D01*
X77892628Y-80161683D01*
X77891900Y-80148267D01*
X77891900Y-67097408D01*
X77911585Y-67030369D01*
X77928219Y-67009727D01*
X80000327Y-64937619D01*
X80061650Y-64904134D01*
X80088008Y-64901300D01*
X89964992Y-64901300D01*
X90032031Y-64920985D01*
X90052673Y-64937619D01*
X123435725Y-98320672D01*
X123435731Y-98320677D01*
X123542274Y-98391866D01*
X123611621Y-98420589D01*
X123660656Y-98440901D01*
X123660659Y-98440901D01*
X123660660Y-98440902D01*
X123786328Y-98465900D01*
X123786331Y-98465900D01*
X151244871Y-98465900D01*
X151329415Y-98449082D01*
X151370544Y-98440901D01*
X151488927Y-98391865D01*
X151526941Y-98366465D01*
X151595469Y-98320677D01*
X157055127Y-92861019D01*
X157116450Y-92827534D01*
X157142808Y-92824700D01*
X157177844Y-92824700D01*
X157177845Y-92824699D01*
X157332497Y-92793937D01*
X157445166Y-92747267D01*
X157478172Y-92733597D01*
X157478172Y-92733596D01*
X157478179Y-92733594D01*
X157609289Y-92645989D01*
X157720789Y-92534489D01*
X157808394Y-92403379D01*
X157868737Y-92257697D01*
X157899500Y-92103042D01*
X157899500Y-91945358D01*
X157899500Y-91945355D01*
X157899499Y-91945353D01*
X157891905Y-91907178D01*
X157868737Y-91790703D01*
X157859716Y-91768925D01*
X157808397Y-91645027D01*
X157808390Y-91645014D01*
X157720789Y-91513911D01*
X157720786Y-91513907D01*
X157609292Y-91402413D01*
X157609288Y-91402410D01*
X157478185Y-91314809D01*
X157478172Y-91314802D01*
X157332501Y-91254464D01*
X157332489Y-91254461D01*
X157177845Y-91223700D01*
X157177842Y-91223700D01*
X157020158Y-91223700D01*
X157020155Y-91223700D01*
X156865510Y-91254461D01*
X156865498Y-91254464D01*
X156719827Y-91314802D01*
X156719814Y-91314809D01*
X156588711Y-91402410D01*
X156588707Y-91402413D01*
X156477213Y-91513907D01*
X156477207Y-91513915D01*
X156389607Y-91645018D01*
X156389604Y-91645024D01*
X156369608Y-91693297D01*
X156342729Y-91733523D01*
X150947673Y-97128581D01*
X150886350Y-97162066D01*
X150859992Y-97164900D01*
X124171208Y-97164900D01*
X124104169Y-97145215D01*
X124083527Y-97128581D01*
X118093481Y-91138535D01*
X90700474Y-63745527D01*
X90700467Y-63745521D01*
X90593929Y-63674335D01*
X90475544Y-63625299D01*
X90475538Y-63625297D01*
X90349871Y-63600300D01*
X90349869Y-63600300D01*
X79703131Y-63600300D01*
X79703129Y-63600300D01*
X79577461Y-63625297D01*
X79577451Y-63625300D01*
X79528420Y-63645610D01*
X79459081Y-63674330D01*
X79459063Y-63674340D01*
X79352532Y-63745521D01*
X79352525Y-63745527D01*
X76736126Y-66361926D01*
X76664934Y-66468474D01*
X76615899Y-66586855D01*
X76615897Y-66586861D01*
X76590900Y-66712528D01*
X76590900Y-80148267D01*
X76571215Y-80215306D01*
X76518411Y-80261061D01*
X76505906Y-80265972D01*
X76472071Y-80277184D01*
X76472063Y-80277187D01*
X76322742Y-80369289D01*
X76198689Y-80493342D01*
X76106587Y-80642663D01*
X76106585Y-80642668D01*
X76093196Y-80683074D01*
X76051401Y-80809203D01*
X76051401Y-80809204D01*
X76051400Y-80809204D01*
X76040900Y-80911983D01*
X76040900Y-81712001D01*
X76040901Y-81712019D01*
X76051400Y-81814796D01*
X76051401Y-81814799D01*
X76106585Y-81981331D01*
X76106587Y-81981336D01*
X76198689Y-82130657D01*
X76292351Y-82224319D01*
X76325836Y-82285642D01*
X76320852Y-82355334D01*
X76292351Y-82399681D01*
X76198689Y-82493342D01*
X76106587Y-82642663D01*
X76106586Y-82642666D01*
X76051401Y-82809203D01*
X76051401Y-82809204D01*
X76051400Y-82809204D01*
X76040900Y-82911983D01*
X76040900Y-83712001D01*
X76040901Y-83712019D01*
X76051400Y-83814796D01*
X76051401Y-83814799D01*
X76106585Y-83981331D01*
X76106587Y-83981336D01*
X76126940Y-84014334D01*
X76198688Y-84130656D01*
X76322744Y-84254712D01*
X76472066Y-84346814D01*
X76485502Y-84351266D01*
X76542947Y-84391038D01*
X76569772Y-84455553D01*
X76570500Y-84468973D01*
X76570500Y-85220000D01*
X76550815Y-85287039D01*
X76498011Y-85332794D01*
X76446500Y-85344000D01*
X65401865Y-85344000D01*
X65334826Y-85324315D01*
X65289071Y-85271511D01*
X65277865Y-85220136D01*
X65258322Y-67338917D01*
X65866837Y-67338917D01*
X65866837Y-67615884D01*
X65866838Y-67615901D01*
X65902989Y-67890500D01*
X65974677Y-68158041D01*
X65974676Y-68158041D01*
X66080672Y-68413937D01*
X66080677Y-68413948D01*
X66219163Y-68653812D01*
X66387777Y-68873555D01*
X66387783Y-68873562D01*
X66583627Y-69069406D01*
X66583634Y-69069412D01*
X66803377Y-69238026D01*
X67043241Y-69376512D01*
X67043246Y-69376514D01*
X67043249Y-69376516D01*
X67299145Y-69482512D01*
X67566688Y-69554200D01*
X67841299Y-69590353D01*
X67841306Y-69590353D01*
X68118272Y-69590353D01*
X68118279Y-69590353D01*
X68392890Y-69554200D01*
X68660433Y-69482512D01*
X68916329Y-69376516D01*
X69156201Y-69238026D01*
X69375945Y-69069411D01*
X69571799Y-68873557D01*
X69740414Y-68653813D01*
X69878904Y-68413941D01*
X69984900Y-68158045D01*
X70056588Y-67890502D01*
X70092741Y-67615891D01*
X70092741Y-67338911D01*
X70056588Y-67064300D01*
X69984900Y-66796757D01*
X69878904Y-66540861D01*
X69878902Y-66540858D01*
X69878900Y-66540853D01*
X69740414Y-66300989D01*
X69571800Y-66081246D01*
X69571794Y-66081239D01*
X69375950Y-65885395D01*
X69375943Y-65885389D01*
X69156200Y-65716775D01*
X68916336Y-65578289D01*
X68916325Y-65578284D01*
X68660431Y-65472289D01*
X68392888Y-65400601D01*
X68118289Y-65364450D01*
X68118284Y-65364449D01*
X68118279Y-65364449D01*
X67841299Y-65364449D01*
X67841293Y-65364449D01*
X67841288Y-65364450D01*
X67566689Y-65400601D01*
X67299146Y-65472289D01*
X67043252Y-65578284D01*
X67043241Y-65578289D01*
X66803377Y-65716775D01*
X66583634Y-65885389D01*
X66583627Y-65885395D01*
X66387783Y-66081239D01*
X66387777Y-66081246D01*
X66219163Y-66300989D01*
X66080677Y-66540853D01*
X66080672Y-66540864D01*
X65974677Y-66796758D01*
X65902989Y-67064301D01*
X65866838Y-67338900D01*
X65866837Y-67338917D01*
X65258322Y-67338917D01*
X65258318Y-67334988D01*
X65257638Y-66712528D01*
X65252735Y-62227068D01*
X65272346Y-62160010D01*
X65325100Y-62114197D01*
X65376669Y-62102935D01*
X162334337Y-62052264D01*
X162401385Y-62071914D01*
G37*
%TD.AperFunction*%
%TA.AperFunction,Conductor*%
G36*
X189714903Y-88231427D02*
G01*
X189721381Y-88237459D01*
X196452728Y-94968807D01*
X196452732Y-94968810D01*
X196583835Y-95056411D01*
X196583848Y-95056418D01*
X196729519Y-95116756D01*
X196729524Y-95116758D01*
X196884174Y-95147520D01*
X196884177Y-95147521D01*
X196884179Y-95147521D01*
X197041863Y-95147521D01*
X199441092Y-95147521D01*
X199508131Y-95167206D01*
X199546636Y-95211292D01*
X199548395Y-95210208D01*
X199552185Y-95216353D01*
X199552186Y-95216355D01*
X199644288Y-95365677D01*
X199768344Y-95489733D01*
X199917666Y-95581835D01*
X199979440Y-95602305D01*
X200036884Y-95642076D01*
X200063707Y-95706592D01*
X200064053Y-95729740D01*
X200061077Y-95767545D01*
X200740554Y-96447021D01*
X200734339Y-96447021D01*
X200632606Y-96474280D01*
X200541394Y-96526941D01*
X200466920Y-96601415D01*
X200414259Y-96692627D01*
X200387000Y-96794360D01*
X200387000Y-96800574D01*
X199707524Y-96121098D01*
X199707523Y-96121098D01*
X199675143Y-96165665D01*
X199582244Y-96347989D01*
X199519009Y-96542603D01*
X199487000Y-96744703D01*
X199487000Y-96949338D01*
X199519009Y-97151438D01*
X199582244Y-97346052D01*
X199675141Y-97528371D01*
X199675147Y-97528380D01*
X199707523Y-97572942D01*
X199707524Y-97572943D01*
X200387000Y-96893467D01*
X200387000Y-96899682D01*
X200414259Y-97001415D01*
X200466920Y-97092627D01*
X200541394Y-97167101D01*
X200632606Y-97219762D01*
X200734339Y-97247021D01*
X200740553Y-97247021D01*
X200061076Y-97926495D01*
X200105650Y-97958880D01*
X200287968Y-98051776D01*
X200482582Y-98115011D01*
X200684683Y-98147021D01*
X200889317Y-98147021D01*
X201091417Y-98115011D01*
X201286031Y-98051776D01*
X201468349Y-97958880D01*
X201512921Y-97926495D01*
X200833447Y-97247021D01*
X200839661Y-97247021D01*
X200941394Y-97219762D01*
X201032606Y-97167101D01*
X201107080Y-97092627D01*
X201159741Y-97001415D01*
X201187000Y-96899682D01*
X201187000Y-96893468D01*
X201866474Y-97572942D01*
X201898859Y-97528370D01*
X201991755Y-97346052D01*
X202054990Y-97151438D01*
X202057198Y-97137496D01*
X212318000Y-97137496D01*
X212320897Y-97180224D01*
X212366831Y-97364923D01*
X212451390Y-97535422D01*
X212451392Y-97535425D01*
X212570632Y-97683766D01*
X212570633Y-97683767D01*
X212718974Y-97803007D01*
X212718977Y-97803009D01*
X212889476Y-97887568D01*
X213074175Y-97933502D01*
X213116903Y-97936400D01*
X213568000Y-97936400D01*
X214068000Y-97936400D01*
X214519097Y-97936400D01*
X214561824Y-97933502D01*
X214746523Y-97887568D01*
X214917022Y-97803009D01*
X214917025Y-97803007D01*
X215065366Y-97683767D01*
X215065367Y-97683766D01*
X215184607Y-97535425D01*
X215184609Y-97535422D01*
X215269168Y-97364923D01*
X215315102Y-97180224D01*
X215318000Y-97137496D01*
X215318000Y-96936400D01*
X214068000Y-96936400D01*
X214068000Y-97936400D01*
X213568000Y-97936400D01*
X213568000Y-96936400D01*
X212318000Y-96936400D01*
X212318000Y-97137496D01*
X202057198Y-97137496D01*
X202087000Y-96949338D01*
X202087000Y-96744703D01*
X202054990Y-96542603D01*
X201991755Y-96347989D01*
X201898859Y-96165671D01*
X201866474Y-96121098D01*
X201866474Y-96121097D01*
X201187000Y-96800572D01*
X201187000Y-96794360D01*
X201159741Y-96692627D01*
X201107080Y-96601415D01*
X201032606Y-96526941D01*
X200941394Y-96474280D01*
X200839661Y-96447021D01*
X200833446Y-96447021D01*
X201512921Y-95767546D01*
X201509946Y-95729740D01*
X201524310Y-95661362D01*
X201573361Y-95611605D01*
X201594555Y-95602306D01*
X201656334Y-95581835D01*
X201805656Y-95489733D01*
X201929712Y-95365677D01*
X202021814Y-95216355D01*
X202021814Y-95216353D01*
X202025605Y-95210208D01*
X202027399Y-95211314D01*
X202066687Y-95166684D01*
X202132908Y-95147521D01*
X205893501Y-95147521D01*
X205960540Y-95167206D01*
X206006295Y-95220010D01*
X206017501Y-95271521D01*
X206017501Y-95844434D01*
X206028113Y-95963815D01*
X206084089Y-96159445D01*
X206084090Y-96159448D01*
X206084091Y-96159449D01*
X206178302Y-96339807D01*
X206178304Y-96339809D01*
X206306890Y-96497509D01*
X206362194Y-96542603D01*
X206464593Y-96626098D01*
X206644951Y-96720309D01*
X206840582Y-96776286D01*
X206959963Y-96786900D01*
X208076036Y-96786899D01*
X208195418Y-96776286D01*
X208391049Y-96720309D01*
X208571407Y-96626098D01*
X208729109Y-96497509D01*
X208857698Y-96339807D01*
X208951909Y-96159449D01*
X209007886Y-95963818D01*
X209018500Y-95844437D01*
X209018500Y-95310900D01*
X209038185Y-95243861D01*
X209090989Y-95198106D01*
X209142500Y-95186900D01*
X212352327Y-95186900D01*
X212419366Y-95206585D01*
X212448974Y-95233213D01*
X212570277Y-95384121D01*
X212570278Y-95384122D01*
X212639884Y-95440073D01*
X212679803Y-95497416D01*
X212682383Y-95567238D01*
X212646804Y-95627371D01*
X212639885Y-95633367D01*
X212570631Y-95689035D01*
X212451392Y-95837374D01*
X212451390Y-95837377D01*
X212366831Y-96007876D01*
X212320897Y-96192575D01*
X212318000Y-96235303D01*
X212318000Y-96436400D01*
X215318000Y-96436400D01*
X215318000Y-96399486D01*
X218180201Y-96399486D01*
X218190694Y-96502197D01*
X218245841Y-96668619D01*
X218245843Y-96668624D01*
X218337884Y-96817845D01*
X218461854Y-96941815D01*
X218611075Y-97033856D01*
X218611080Y-97033858D01*
X218777502Y-97089005D01*
X218777509Y-97089006D01*
X218880219Y-97099499D01*
X219155199Y-97099499D01*
X219655200Y-97099499D01*
X219930172Y-97099499D01*
X219930186Y-97099498D01*
X220032897Y-97089005D01*
X220199319Y-97033858D01*
X220199324Y-97033856D01*
X220348545Y-96941815D01*
X220472515Y-96817845D01*
X220564556Y-96668624D01*
X220564558Y-96668619D01*
X220619705Y-96502197D01*
X220619706Y-96502190D01*
X220630199Y-96399486D01*
X220630200Y-96399473D01*
X220630200Y-96262000D01*
X219655200Y-96262000D01*
X219655200Y-97099499D01*
X219155199Y-97099499D01*
X219155200Y-97099498D01*
X219155200Y-96262000D01*
X218180201Y-96262000D01*
X218180201Y-96399486D01*
X215318000Y-96399486D01*
X215318000Y-96235305D01*
X215316896Y-96219030D01*
X215316896Y-96219027D01*
X215315102Y-96192575D01*
X215269168Y-96007876D01*
X215184609Y-95837377D01*
X215184607Y-95837374D01*
X215065367Y-95689033D01*
X215065366Y-95689032D01*
X214996115Y-95633367D01*
X214956196Y-95576024D01*
X214953616Y-95506202D01*
X214989194Y-95446069D01*
X214996089Y-95440094D01*
X215065722Y-95384122D01*
X215185030Y-95235696D01*
X215269641Y-95065093D01*
X215315600Y-94880289D01*
X215318500Y-94837523D01*
X215318499Y-93935278D01*
X215315600Y-93892511D01*
X215269641Y-93707707D01*
X215267046Y-93702475D01*
X215185032Y-93537107D01*
X215185030Y-93537104D01*
X215065722Y-93388678D01*
X215065721Y-93388677D01*
X214996514Y-93333047D01*
X214956595Y-93275704D01*
X214954015Y-93205882D01*
X214989594Y-93145749D01*
X214996514Y-93139753D01*
X215030781Y-93112208D01*
X215065722Y-93084122D01*
X215185030Y-92935696D01*
X215185029Y-92935696D01*
X215187026Y-92933213D01*
X215244369Y-92893294D01*
X215283673Y-92886900D01*
X216061860Y-92886900D01*
X216128899Y-92906585D01*
X216149541Y-92923219D01*
X217785107Y-94558786D01*
X217785111Y-94558789D01*
X217916214Y-94646390D01*
X217916218Y-94646392D01*
X217916221Y-94646394D01*
X218061903Y-94706738D01*
X218216553Y-94737499D01*
X218216557Y-94737500D01*
X218216558Y-94737500D01*
X218280470Y-94737500D01*
X218308434Y-94745711D01*
X218337072Y-94751172D01*
X218343848Y-94756110D01*
X218347509Y-94757185D01*
X218365862Y-94771588D01*
X218367015Y-94772683D01*
X218461544Y-94867212D01*
X218475815Y-94876014D01*
X218485151Y-94884881D01*
X218496478Y-94904412D01*
X218511579Y-94921199D01*
X218513671Y-94934054D01*
X218520206Y-94945321D01*
X218519176Y-94967876D01*
X218522803Y-94990161D01*
X218517613Y-95002106D01*
X218517019Y-95015118D01*
X218503957Y-95033537D01*
X218494961Y-95054244D01*
X218480206Y-95067031D01*
X218476603Y-95072112D01*
X218472382Y-95073811D01*
X218464865Y-95080326D01*
X218461860Y-95082179D01*
X218461855Y-95082183D01*
X218337884Y-95206154D01*
X218245843Y-95355375D01*
X218245841Y-95355380D01*
X218190694Y-95521802D01*
X218190693Y-95521809D01*
X218180200Y-95624513D01*
X218180200Y-95762000D01*
X220630199Y-95762000D01*
X220630199Y-95624528D01*
X220630198Y-95624513D01*
X220619705Y-95521802D01*
X220564558Y-95355380D01*
X220564556Y-95355375D01*
X220472515Y-95206154D01*
X220348544Y-95082183D01*
X220348541Y-95082181D01*
X220345539Y-95080329D01*
X220343913Y-95078521D01*
X220342877Y-95077702D01*
X220343017Y-95077524D01*
X220298817Y-95028380D01*
X220287597Y-94959417D01*
X220315443Y-94895336D01*
X220325248Y-94884881D01*
X220334582Y-94876016D01*
X220348856Y-94867212D01*
X220443384Y-94772683D01*
X220444538Y-94771588D01*
X220474256Y-94756341D01*
X220503572Y-94740334D01*
X220505958Y-94740077D01*
X220506704Y-94739695D01*
X220508178Y-94739838D01*
X220529930Y-94737500D01*
X228795080Y-94737500D01*
X228862119Y-94757185D01*
X228882761Y-94773819D01*
X229382801Y-95273859D01*
X229416286Y-95335182D01*
X229419120Y-95361540D01*
X229419120Y-95595659D01*
X229399435Y-95662698D01*
X229382801Y-95683340D01*
X226284161Y-98781981D01*
X226222838Y-98815466D01*
X226196480Y-98818300D01*
X196293140Y-98818300D01*
X196226101Y-98798615D01*
X196205459Y-98781981D01*
X189546019Y-92122541D01*
X189512534Y-92061218D01*
X189509700Y-92034860D01*
X189509700Y-88325140D01*
X189529385Y-88258101D01*
X189582189Y-88212346D01*
X189651347Y-88202402D01*
X189714903Y-88231427D01*
G37*
%TD.AperFunction*%
%TA.AperFunction,Conductor*%
G36*
X153721031Y-70901185D02*
G01*
X153741673Y-70917819D01*
X155015181Y-72191327D01*
X155048666Y-72252650D01*
X155051500Y-72279008D01*
X155051500Y-85357269D01*
X155051500Y-85357271D01*
X155051499Y-85357271D01*
X155076497Y-85482938D01*
X155076499Y-85482944D01*
X155093350Y-85523627D01*
X155125535Y-85601327D01*
X155170959Y-85669310D01*
X155196726Y-85707873D01*
X158227496Y-88738643D01*
X158260981Y-88799966D01*
X158255997Y-88869658D01*
X158214125Y-88925591D01*
X158148661Y-88950008D01*
X158115624Y-88947941D01*
X158052073Y-88935300D01*
X158052069Y-88935300D01*
X155587131Y-88935300D01*
X155587129Y-88935300D01*
X155461461Y-88960297D01*
X155461455Y-88960299D01*
X155343070Y-89009335D01*
X155236531Y-89080522D01*
X155236524Y-89080528D01*
X150947673Y-93369381D01*
X150886350Y-93402866D01*
X150859992Y-93405700D01*
X145236944Y-93405700D01*
X145169905Y-93386015D01*
X145124150Y-93333211D01*
X145114206Y-93264053D01*
X145143231Y-93200497D01*
X145193611Y-93165518D01*
X145289383Y-93129797D01*
X145289382Y-93129797D01*
X145289386Y-93129796D01*
X145404601Y-93043546D01*
X145490851Y-92928331D01*
X145541146Y-92793483D01*
X145547555Y-92733873D01*
X145547554Y-90156807D01*
X145567239Y-90089769D01*
X145583873Y-90069127D01*
X146885472Y-88767529D01*
X146885473Y-88767528D01*
X146885473Y-88767527D01*
X146885477Y-88767524D01*
X146956665Y-88660982D01*
X147005701Y-88542599D01*
X147010036Y-88520806D01*
X147017460Y-88483483D01*
X147030700Y-88416926D01*
X147030700Y-74057008D01*
X147050385Y-73989969D01*
X147067019Y-73969327D01*
X148365927Y-72670419D01*
X148427250Y-72636934D01*
X148453608Y-72634100D01*
X149047929Y-72634100D01*
X149114968Y-72653785D01*
X149148245Y-72685213D01*
X149247197Y-72821408D01*
X149254034Y-72830819D01*
X149398786Y-72975571D01*
X149543975Y-73081055D01*
X149564390Y-73095887D01*
X149655840Y-73142483D01*
X149657080Y-73143115D01*
X149707876Y-73191090D01*
X149724671Y-73258911D01*
X149702134Y-73325046D01*
X149657080Y-73364085D01*
X149564386Y-73411315D01*
X149398786Y-73531628D01*
X149254028Y-73676386D01*
X149133715Y-73841986D01*
X149040781Y-74024376D01*
X148977522Y-74219065D01*
X148945500Y-74421248D01*
X148945500Y-74625952D01*
X148946194Y-74630333D01*
X148977522Y-74828134D01*
X149040781Y-75022823D01*
X149096828Y-75132819D01*
X149131425Y-75200720D01*
X149133715Y-75205213D01*
X149254028Y-75370813D01*
X149398786Y-75515571D01*
X149533483Y-75613432D01*
X149564390Y-75635887D01*
X149655840Y-75682483D01*
X149657080Y-75683115D01*
X149707876Y-75731090D01*
X149724671Y-75798911D01*
X149702134Y-75865046D01*
X149657080Y-75904085D01*
X149564386Y-75951315D01*
X149398786Y-76071628D01*
X149254028Y-76216386D01*
X149133715Y-76381986D01*
X149040781Y-76564376D01*
X148977522Y-76759065D01*
X148960247Y-76868138D01*
X148945500Y-76961248D01*
X148945500Y-77165952D01*
X148949878Y-77193595D01*
X148977522Y-77368134D01*
X149040781Y-77562823D01*
X149096828Y-77672819D01*
X149131425Y-77740720D01*
X149133715Y-77745213D01*
X149254028Y-77910813D01*
X149398786Y-78055571D01*
X149533483Y-78153432D01*
X149564390Y-78175887D01*
X149636516Y-78212637D01*
X149657080Y-78223115D01*
X149707876Y-78271090D01*
X149724671Y-78338911D01*
X149702134Y-78405046D01*
X149657080Y-78444085D01*
X149564386Y-78491315D01*
X149398786Y-78611628D01*
X149254028Y-78756386D01*
X149133715Y-78921986D01*
X149040781Y-79104376D01*
X148977522Y-79299065D01*
X148945500Y-79501248D01*
X148945500Y-79705951D01*
X148977522Y-79908134D01*
X149040781Y-80102823D01*
X149098095Y-80215306D01*
X149133585Y-80284959D01*
X149133715Y-80285213D01*
X149254028Y-80450813D01*
X149398786Y-80595571D01*
X149503992Y-80672006D01*
X149564390Y-80715887D01*
X149647536Y-80758252D01*
X149746776Y-80808818D01*
X149746778Y-80808818D01*
X149746781Y-80808820D01*
X149851137Y-80842727D01*
X149941465Y-80872077D01*
X150042557Y-80888088D01*
X150143648Y-80904100D01*
X150143649Y-80904100D01*
X150348351Y-80904100D01*
X150348352Y-80904100D01*
X150550534Y-80872077D01*
X150745219Y-80808820D01*
X150927610Y-80715887D01*
X151057236Y-80621709D01*
X151093213Y-80595571D01*
X151093215Y-80595568D01*
X151093219Y-80595566D01*
X151237966Y-80450819D01*
X151237968Y-80450815D01*
X151237971Y-80450813D01*
X151290732Y-80378190D01*
X151358287Y-80285210D01*
X151451220Y-80102819D01*
X151514477Y-79908134D01*
X151546500Y-79705952D01*
X151546500Y-79501248D01*
X151534478Y-79425346D01*
X151514477Y-79299065D01*
X151480791Y-79195390D01*
X151451220Y-79104381D01*
X151451218Y-79104378D01*
X151451218Y-79104376D01*
X151412367Y-79028127D01*
X151358287Y-78921990D01*
X151326092Y-78877677D01*
X151237971Y-78756386D01*
X151093213Y-78611628D01*
X150927614Y-78491315D01*
X150921006Y-78487948D01*
X150834917Y-78444083D01*
X150784123Y-78396111D01*
X150767328Y-78328290D01*
X150789865Y-78262155D01*
X150834917Y-78223116D01*
X150927610Y-78175887D01*
X151016842Y-78111057D01*
X151093213Y-78055571D01*
X151093215Y-78055568D01*
X151093219Y-78055566D01*
X151237966Y-77910819D01*
X151237968Y-77910815D01*
X151237971Y-77910813D01*
X151311819Y-77809168D01*
X151358287Y-77745210D01*
X151451220Y-77562819D01*
X151514477Y-77368134D01*
X151546500Y-77165952D01*
X151546500Y-76961248D01*
X151531753Y-76868138D01*
X151514477Y-76759065D01*
X151476212Y-76641299D01*
X151451220Y-76564381D01*
X151451218Y-76564378D01*
X151451218Y-76564376D01*
X151412367Y-76488127D01*
X151358287Y-76381990D01*
X151335772Y-76351000D01*
X151237971Y-76216386D01*
X151093213Y-76071628D01*
X150927614Y-75951315D01*
X150921006Y-75947948D01*
X150834917Y-75904083D01*
X150784123Y-75856111D01*
X150767328Y-75788290D01*
X150789865Y-75722155D01*
X150834917Y-75683116D01*
X150927610Y-75635887D01*
X150986001Y-75593464D01*
X151093213Y-75515571D01*
X151093215Y-75515568D01*
X151093219Y-75515566D01*
X151237966Y-75370819D01*
X151237968Y-75370815D01*
X151237971Y-75370813D01*
X151301196Y-75283790D01*
X151358287Y-75205210D01*
X151451220Y-75022819D01*
X151514477Y-74828134D01*
X151546500Y-74625952D01*
X151546500Y-74421248D01*
X151533774Y-74340903D01*
X151514477Y-74219065D01*
X151472222Y-74089018D01*
X151451220Y-74024381D01*
X151451218Y-74024378D01*
X151451218Y-74024376D01*
X151412367Y-73948127D01*
X151358287Y-73841990D01*
X151335772Y-73811000D01*
X151237971Y-73676386D01*
X151093213Y-73531628D01*
X150927614Y-73411315D01*
X150866176Y-73380011D01*
X150834917Y-73364083D01*
X150784123Y-73316111D01*
X150767328Y-73248290D01*
X150789865Y-73182155D01*
X150834917Y-73143116D01*
X150927610Y-73095887D01*
X150954575Y-73076296D01*
X151093213Y-72975571D01*
X151093215Y-72975568D01*
X151093219Y-72975566D01*
X151237966Y-72830819D01*
X151237968Y-72830815D01*
X151237971Y-72830813D01*
X151317866Y-72720845D01*
X151358287Y-72665210D01*
X151451220Y-72482819D01*
X151514477Y-72288134D01*
X151544595Y-72097977D01*
X151574524Y-72034843D01*
X151633836Y-71997912D01*
X151703698Y-71998910D01*
X151754749Y-72029695D01*
X153211781Y-73486727D01*
X153245266Y-73548050D01*
X153248100Y-73574408D01*
X153248100Y-77981064D01*
X153228415Y-78048103D01*
X153227203Y-78049954D01*
X153189208Y-78106817D01*
X153189202Y-78106828D01*
X153128864Y-78252498D01*
X153128861Y-78252510D01*
X153098100Y-78407153D01*
X153098100Y-78564846D01*
X153128861Y-78719489D01*
X153128864Y-78719501D01*
X153189202Y-78865172D01*
X153189209Y-78865185D01*
X153276810Y-78996288D01*
X153276813Y-78996292D01*
X153388307Y-79107786D01*
X153388311Y-79107789D01*
X153519414Y-79195390D01*
X153519427Y-79195397D01*
X153665098Y-79255735D01*
X153665103Y-79255737D01*
X153801630Y-79282894D01*
X153819753Y-79286499D01*
X153819756Y-79286500D01*
X153819758Y-79286500D01*
X153977444Y-79286500D01*
X153977445Y-79286499D01*
X154132097Y-79255737D01*
X154277779Y-79195394D01*
X154408889Y-79107789D01*
X154520389Y-78996289D01*
X154607994Y-78865179D01*
X154608217Y-78864642D01*
X154654098Y-78753873D01*
X154668337Y-78719497D01*
X154699100Y-78564842D01*
X154699100Y-78407158D01*
X154699100Y-78407155D01*
X154699099Y-78407153D01*
X154684165Y-78332077D01*
X154668337Y-78252503D01*
X154636602Y-78175887D01*
X154607997Y-78106828D01*
X154607996Y-78106827D01*
X154607994Y-78106821D01*
X154569996Y-78049953D01*
X154549120Y-77983276D01*
X154549100Y-77981064D01*
X154549100Y-73189528D01*
X154524102Y-73063861D01*
X154524101Y-73063860D01*
X154524101Y-73063856D01*
X154475065Y-72945473D01*
X154467108Y-72933565D01*
X154458112Y-72920100D01*
X154403875Y-72838928D01*
X154403872Y-72838925D01*
X152658127Y-71093181D01*
X152624642Y-71031858D01*
X152629626Y-70962166D01*
X152671498Y-70906233D01*
X152736962Y-70881816D01*
X152745808Y-70881500D01*
X153653992Y-70881500D01*
X153721031Y-70901185D01*
G37*
%TD.AperFunction*%
%TA.AperFunction,Conductor*%
G36*
X177446539Y-88896184D02*
G01*
X177492294Y-88948988D01*
X177503500Y-89000499D01*
X177503500Y-92644792D01*
X177483815Y-92711831D01*
X177467181Y-92732473D01*
X176830273Y-93369381D01*
X176768950Y-93402866D01*
X176742592Y-93405700D01*
X162779209Y-93405700D01*
X162712170Y-93386015D01*
X162691528Y-93369381D01*
X161533103Y-92210956D01*
X161499618Y-92149633D01*
X161504602Y-92079941D01*
X161546474Y-92024008D01*
X161611938Y-91999591D01*
X161644976Y-92001658D01*
X161708529Y-92014300D01*
X161708531Y-92014300D01*
X172502667Y-92014300D01*
X172569706Y-92033985D01*
X172615461Y-92086789D01*
X172620372Y-92099294D01*
X172631584Y-92133128D01*
X172631587Y-92133136D01*
X172664748Y-92186898D01*
X172723688Y-92282456D01*
X172847744Y-92406512D01*
X172997066Y-92498614D01*
X173163603Y-92553799D01*
X173266391Y-92564300D01*
X174066408Y-92564299D01*
X174066416Y-92564298D01*
X174066419Y-92564298D01*
X174122702Y-92558548D01*
X174169197Y-92553799D01*
X174335734Y-92498614D01*
X174485056Y-92406512D01*
X174578719Y-92312849D01*
X174640042Y-92279364D01*
X174709734Y-92284348D01*
X174754081Y-92312849D01*
X174847744Y-92406512D01*
X174997066Y-92498614D01*
X175163603Y-92553799D01*
X175266391Y-92564300D01*
X176066408Y-92564299D01*
X176066416Y-92564298D01*
X176066419Y-92564298D01*
X176122702Y-92558548D01*
X176169197Y-92553799D01*
X176335734Y-92498614D01*
X176485056Y-92406512D01*
X176609112Y-92282456D01*
X176701214Y-92133134D01*
X176756399Y-91966597D01*
X176766900Y-91863809D01*
X176766899Y-90863792D01*
X176764151Y-90836895D01*
X176756399Y-90761003D01*
X176756398Y-90761000D01*
X176740592Y-90713300D01*
X176701214Y-90594466D01*
X176609112Y-90445144D01*
X176485056Y-90321088D01*
X176375802Y-90253700D01*
X176329079Y-90201753D01*
X176316900Y-90148162D01*
X176316900Y-89000499D01*
X176336585Y-88933460D01*
X176389389Y-88887705D01*
X176440895Y-88876499D01*
X177379500Y-88876499D01*
X177446539Y-88896184D01*
G37*
%TD.AperFunction*%
%TA.AperFunction,Conductor*%
G36*
X156557703Y-81252696D02*
G01*
X156564181Y-81258728D01*
X159146725Y-83841272D01*
X159146732Y-83841278D01*
X159253263Y-83912459D01*
X159253267Y-83912461D01*
X159253274Y-83912466D01*
X159299227Y-83931500D01*
X159299228Y-83931500D01*
X159299229Y-83931501D01*
X159368546Y-83960213D01*
X159371656Y-83961501D01*
X159371660Y-83961501D01*
X159371661Y-83961502D01*
X159497328Y-83986500D01*
X159497331Y-83986500D01*
X161814500Y-83986500D01*
X161881539Y-84006185D01*
X161927294Y-84058989D01*
X161938500Y-84110500D01*
X161938500Y-85103870D01*
X161938501Y-85103879D01*
X161939702Y-85115048D01*
X161927295Y-85183807D01*
X161879683Y-85234943D01*
X161816412Y-85252300D01*
X161515535Y-85252300D01*
X161448496Y-85232615D01*
X161446690Y-85231433D01*
X161389779Y-85193406D01*
X161389772Y-85193402D01*
X161244101Y-85133064D01*
X161244089Y-85133061D01*
X161089445Y-85102300D01*
X161089442Y-85102300D01*
X160931758Y-85102300D01*
X160931755Y-85102300D01*
X160777110Y-85133061D01*
X160777098Y-85133064D01*
X160631427Y-85193402D01*
X160631414Y-85193409D01*
X160500311Y-85281010D01*
X160500307Y-85281013D01*
X160388813Y-85392507D01*
X160388810Y-85392511D01*
X160301209Y-85523614D01*
X160301202Y-85523627D01*
X160240864Y-85669298D01*
X160240861Y-85669310D01*
X160210100Y-85823953D01*
X160210100Y-85981646D01*
X160240861Y-86136289D01*
X160240864Y-86136301D01*
X160301202Y-86281972D01*
X160301209Y-86281985D01*
X160388810Y-86413088D01*
X160388813Y-86413092D01*
X160500307Y-86524586D01*
X160500311Y-86524589D01*
X160631414Y-86612190D01*
X160631427Y-86612197D01*
X160777098Y-86672535D01*
X160777103Y-86672537D01*
X160931753Y-86703299D01*
X160931756Y-86703300D01*
X160931758Y-86703300D01*
X161089444Y-86703300D01*
X161089445Y-86703299D01*
X161244097Y-86672537D01*
X161389779Y-86612194D01*
X161446644Y-86574197D01*
X161513321Y-86553320D01*
X161515535Y-86553300D01*
X161921882Y-86553300D01*
X161988921Y-86572985D01*
X162021148Y-86602988D01*
X162073213Y-86672538D01*
X162081455Y-86683547D01*
X162196664Y-86769793D01*
X162196671Y-86769797D01*
X162331517Y-86820091D01*
X162331516Y-86820091D01*
X162338444Y-86820835D01*
X162391127Y-86826500D01*
X164379500Y-86826499D01*
X164446539Y-86846184D01*
X164492294Y-86898987D01*
X164503500Y-86950499D01*
X164503500Y-88423870D01*
X164503501Y-88423876D01*
X164509908Y-88483483D01*
X164560202Y-88618328D01*
X164560206Y-88618335D01*
X164646452Y-88733544D01*
X164646455Y-88733547D01*
X164761664Y-88819793D01*
X164761671Y-88819797D01*
X164896517Y-88870091D01*
X164896516Y-88870091D01*
X164903444Y-88870835D01*
X164956127Y-88876500D01*
X165986872Y-88876499D01*
X166046483Y-88870091D01*
X166063165Y-88863868D01*
X166132854Y-88858883D01*
X166149834Y-88863869D01*
X166166511Y-88870089D01*
X166166512Y-88870089D01*
X166166517Y-88870091D01*
X166226127Y-88876500D01*
X167221872Y-88876499D01*
X167281483Y-88870091D01*
X167315667Y-88857340D01*
X167385358Y-88852357D01*
X167402327Y-88857338D01*
X167436517Y-88870091D01*
X167496127Y-88876500D01*
X168486872Y-88876499D01*
X168546483Y-88870091D01*
X168583165Y-88856408D01*
X168652856Y-88851423D01*
X168669823Y-88856404D01*
X168706517Y-88870091D01*
X168766127Y-88876500D01*
X169761872Y-88876499D01*
X169821483Y-88870091D01*
X169855667Y-88857340D01*
X169925358Y-88852357D01*
X169942327Y-88857338D01*
X169976517Y-88870091D01*
X170036127Y-88876500D01*
X171031872Y-88876499D01*
X171091483Y-88870091D01*
X171125667Y-88857340D01*
X171195358Y-88852357D01*
X171212327Y-88857338D01*
X171246517Y-88870091D01*
X171306127Y-88876500D01*
X172301872Y-88876499D01*
X172361483Y-88870091D01*
X172395667Y-88857340D01*
X172465358Y-88852357D01*
X172482327Y-88857338D01*
X172516517Y-88870091D01*
X172576127Y-88876500D01*
X173571872Y-88876499D01*
X173631483Y-88870091D01*
X173665667Y-88857340D01*
X173735358Y-88852357D01*
X173752327Y-88857338D01*
X173786517Y-88870091D01*
X173846127Y-88876500D01*
X174841872Y-88876499D01*
X174841874Y-88876498D01*
X174841887Y-88876498D01*
X174872514Y-88873205D01*
X174878644Y-88872546D01*
X174947403Y-88884951D01*
X174998541Y-88932561D01*
X175015900Y-88995835D01*
X175015900Y-90148162D01*
X174996215Y-90215201D01*
X174956998Y-90253699D01*
X174925643Y-90273040D01*
X174847742Y-90321089D01*
X174754081Y-90414751D01*
X174692758Y-90448236D01*
X174623066Y-90443252D01*
X174578719Y-90414751D01*
X174485057Y-90321089D01*
X174485056Y-90321088D01*
X174335734Y-90228986D01*
X174169197Y-90173801D01*
X174169195Y-90173800D01*
X174066410Y-90163300D01*
X173266398Y-90163300D01*
X173266380Y-90163301D01*
X173163603Y-90173800D01*
X173163600Y-90173801D01*
X172997068Y-90228985D01*
X172997063Y-90228987D01*
X172847742Y-90321089D01*
X172723689Y-90445142D01*
X172631587Y-90594463D01*
X172631584Y-90594471D01*
X172620372Y-90628306D01*
X172580599Y-90685750D01*
X172516083Y-90712572D01*
X172502667Y-90713300D01*
X162093408Y-90713300D01*
X162026369Y-90693615D01*
X162005727Y-90676981D01*
X156388819Y-85060073D01*
X156355334Y-84998750D01*
X156352500Y-84972392D01*
X156352500Y-81346409D01*
X156372185Y-81279370D01*
X156424989Y-81233615D01*
X156494147Y-81223671D01*
X156557703Y-81252696D01*
G37*
%TD.AperFunction*%
%TA.AperFunction,Conductor*%
G36*
X161836581Y-68680910D02*
G01*
X161852228Y-68680352D01*
X161869421Y-68690553D01*
X161888600Y-68696185D01*
X161898850Y-68708014D01*
X161912317Y-68716005D01*
X161921265Y-68733883D01*
X161934355Y-68748989D01*
X161937001Y-68765319D01*
X161943591Y-68778485D01*
X161944850Y-68813756D01*
X161939000Y-68868155D01*
X161939000Y-69116000D01*
X164939000Y-69116000D01*
X164939000Y-69028708D01*
X164958685Y-68961669D01*
X165011489Y-68915914D01*
X165080647Y-68905970D01*
X165144203Y-68934995D01*
X165150681Y-68941027D01*
X167304681Y-71095027D01*
X167338166Y-71156350D01*
X167341000Y-71182708D01*
X167341000Y-85751500D01*
X167321315Y-85818539D01*
X167268511Y-85864294D01*
X167217000Y-85875500D01*
X166226129Y-85875500D01*
X166226123Y-85875501D01*
X166166515Y-85881909D01*
X166166514Y-85881909D01*
X166149829Y-85888132D01*
X166080137Y-85893114D01*
X166063171Y-85888132D01*
X166046486Y-85881909D01*
X166046482Y-85881908D01*
X165986883Y-85875501D01*
X165986881Y-85875500D01*
X165986873Y-85875500D01*
X165986865Y-85875500D01*
X165063499Y-85875500D01*
X164996460Y-85855815D01*
X164950705Y-85803011D01*
X164939499Y-85751500D01*
X164939499Y-85553420D01*
X164959184Y-85486381D01*
X165011988Y-85440626D01*
X165081146Y-85430682D01*
X165110950Y-85438859D01*
X165115216Y-85440626D01*
X165145897Y-85453335D01*
X165145899Y-85453335D01*
X165145903Y-85453337D01*
X165300553Y-85484099D01*
X165300556Y-85484100D01*
X165300558Y-85484100D01*
X165458244Y-85484100D01*
X165458245Y-85484099D01*
X165612897Y-85453337D01*
X165758579Y-85392994D01*
X165889689Y-85305389D01*
X166001189Y-85193889D01*
X166088794Y-85062779D01*
X166149137Y-84917097D01*
X166179900Y-84762442D01*
X166179900Y-84604758D01*
X166179900Y-84604755D01*
X166179899Y-84604753D01*
X166149137Y-84450103D01*
X166136625Y-84419896D01*
X166088797Y-84304427D01*
X166088790Y-84304414D01*
X166001189Y-84173311D01*
X166001186Y-84173307D01*
X165889692Y-84061813D01*
X165889688Y-84061810D01*
X165758585Y-83974209D01*
X165758572Y-83974202D01*
X165612901Y-83913864D01*
X165612889Y-83913861D01*
X165458245Y-83883100D01*
X165458242Y-83883100D01*
X165300558Y-83883100D01*
X165300555Y-83883100D01*
X165145910Y-83913861D01*
X165145894Y-83913865D01*
X165110948Y-83928340D01*
X165041479Y-83935807D01*
X164979001Y-83904530D01*
X164943350Y-83844441D01*
X164939499Y-83813785D01*
X164939499Y-82838128D01*
X164933091Y-82778517D01*
X164920340Y-82744332D01*
X164915357Y-82674642D01*
X164920340Y-82657669D01*
X164933091Y-82623483D01*
X164939500Y-82563873D01*
X164939499Y-81568128D01*
X164933091Y-81508517D01*
X164920340Y-81474332D01*
X164915357Y-81404642D01*
X164920340Y-81387669D01*
X164933091Y-81353483D01*
X164939500Y-81293873D01*
X164939499Y-80298128D01*
X164933091Y-80238517D01*
X164920340Y-80204332D01*
X164915357Y-80134642D01*
X164920340Y-80117669D01*
X164933091Y-80083483D01*
X164939500Y-80023873D01*
X164939499Y-79028128D01*
X164933091Y-78968517D01*
X164920340Y-78934332D01*
X164915357Y-78864642D01*
X164920340Y-78847669D01*
X164933091Y-78813483D01*
X164939500Y-78753873D01*
X164939499Y-77758128D01*
X164933091Y-77698517D01*
X164920340Y-77664332D01*
X164915357Y-77594642D01*
X164920340Y-77577669D01*
X164933091Y-77543483D01*
X164939500Y-77483873D01*
X164939499Y-76488128D01*
X164933091Y-76428517D01*
X164920340Y-76394332D01*
X164915357Y-76324642D01*
X164920340Y-76307669D01*
X164933091Y-76273483D01*
X164939500Y-76213873D01*
X164939499Y-75218128D01*
X164933091Y-75158517D01*
X164920340Y-75124332D01*
X164915357Y-75054642D01*
X164920340Y-75037669D01*
X164933091Y-75003483D01*
X164939500Y-74943873D01*
X164939499Y-73948128D01*
X164933091Y-73888517D01*
X164920340Y-73854332D01*
X164915357Y-73784642D01*
X164920340Y-73767669D01*
X164933091Y-73733483D01*
X164939500Y-73673873D01*
X164939499Y-72678128D01*
X164933091Y-72618517D01*
X164920340Y-72584332D01*
X164915357Y-72514642D01*
X164920338Y-72497672D01*
X164933091Y-72463483D01*
X164939500Y-72403873D01*
X164939499Y-71408128D01*
X164933091Y-71348517D01*
X164920340Y-71314332D01*
X164915357Y-71244642D01*
X164920338Y-71227672D01*
X164933091Y-71193483D01*
X164939500Y-71133873D01*
X164939499Y-70138128D01*
X164933091Y-70078517D01*
X164920073Y-70043616D01*
X164915090Y-69973926D01*
X164920075Y-69956949D01*
X164932597Y-69923375D01*
X164932598Y-69923372D01*
X164938999Y-69863844D01*
X164939000Y-69863827D01*
X164939000Y-69616000D01*
X161939000Y-69616000D01*
X161939000Y-69711500D01*
X161919315Y-69778539D01*
X161866511Y-69824294D01*
X161815000Y-69835500D01*
X161036674Y-69835500D01*
X160969635Y-69815815D01*
X160923880Y-69763011D01*
X160918968Y-69750504D01*
X160916218Y-69742204D01*
X160875414Y-69619066D01*
X160783312Y-69469744D01*
X160659256Y-69345688D01*
X160529297Y-69265529D01*
X160509936Y-69253587D01*
X160509931Y-69253585D01*
X160481609Y-69244200D01*
X160343397Y-69198401D01*
X160343395Y-69198400D01*
X160240610Y-69187900D01*
X159240598Y-69187900D01*
X159240580Y-69187901D01*
X159137803Y-69198400D01*
X159137800Y-69198401D01*
X158971258Y-69253588D01*
X158969877Y-69254233D01*
X158968839Y-69254390D01*
X158964411Y-69255858D01*
X158964160Y-69255100D01*
X158947518Y-69257626D01*
X158926331Y-69265529D01*
X158913639Y-69262768D01*
X158900798Y-69264717D01*
X158880154Y-69255483D01*
X158858058Y-69250677D01*
X158841211Y-69238065D01*
X158837018Y-69236190D01*
X158829804Y-69229526D01*
X158665647Y-69065369D01*
X158638767Y-69025140D01*
X158635892Y-69018200D01*
X158582813Y-68890053D01*
X158582810Y-68890048D01*
X158569007Y-68869390D01*
X158548130Y-68802713D01*
X158566615Y-68735332D01*
X158618594Y-68688643D01*
X158672110Y-68676500D01*
X161821561Y-68676500D01*
X161836581Y-68680910D01*
G37*
%TD.AperFunction*%
%TA.AperFunction,Conductor*%
G36*
X161881539Y-77656185D02*
G01*
X161927294Y-77708989D01*
X161938500Y-77760500D01*
X161938500Y-78753870D01*
X161938501Y-78753876D01*
X161944908Y-78813481D01*
X161957659Y-78847669D01*
X161962642Y-78917361D01*
X161957659Y-78934331D01*
X161944908Y-78968518D01*
X161938501Y-79028116D01*
X161938501Y-79028123D01*
X161938500Y-79028135D01*
X161938500Y-80023870D01*
X161938501Y-80023876D01*
X161944908Y-80083481D01*
X161957659Y-80117669D01*
X161962642Y-80187361D01*
X161957659Y-80204331D01*
X161944908Y-80238518D01*
X161939888Y-80285213D01*
X161938501Y-80298123D01*
X161938500Y-80298135D01*
X161938500Y-81293870D01*
X161938501Y-81293876D01*
X161944908Y-81353481D01*
X161957659Y-81387669D01*
X161962642Y-81457361D01*
X161957659Y-81474331D01*
X161944908Y-81508518D01*
X161942141Y-81534260D01*
X161938501Y-81568123D01*
X161938500Y-81568135D01*
X161938501Y-82561500D01*
X161918817Y-82628539D01*
X161866013Y-82674294D01*
X161814501Y-82685500D01*
X159882208Y-82685500D01*
X159815169Y-82665815D01*
X159794527Y-82649181D01*
X158679606Y-81534260D01*
X158646121Y-81472937D01*
X158651105Y-81403245D01*
X158692977Y-81347312D01*
X158719835Y-81332018D01*
X158849772Y-81278197D01*
X158849772Y-81278196D01*
X158849779Y-81278194D01*
X158980889Y-81190589D01*
X159092389Y-81079089D01*
X159179994Y-80947979D01*
X159240337Y-80802297D01*
X159271100Y-80647642D01*
X159271100Y-80489958D01*
X159271100Y-80489955D01*
X159271099Y-80489953D01*
X159263315Y-80450819D01*
X159240337Y-80335303D01*
X159240335Y-80335298D01*
X159179997Y-80189628D01*
X159179996Y-80189627D01*
X159179994Y-80189621D01*
X159141996Y-80132753D01*
X159121120Y-80066076D01*
X159121100Y-80063864D01*
X159121100Y-78222608D01*
X159140785Y-78155569D01*
X159157419Y-78134927D01*
X159619527Y-77672819D01*
X159680850Y-77639334D01*
X159707208Y-77636500D01*
X161814500Y-77636500D01*
X161881539Y-77656185D01*
G37*
%TD.AperFunction*%
%TA.AperFunction,Conductor*%
G36*
X83892200Y-71971406D02*
G01*
X83831798Y-71946387D01*
X83706219Y-71921408D01*
X83578181Y-71921408D01*
X83452602Y-71946387D01*
X83392200Y-71971406D01*
X83392200Y-70631409D01*
X83452602Y-70656429D01*
X83578181Y-70681408D01*
X83706219Y-70681408D01*
X83831798Y-70656429D01*
X83892200Y-70631409D01*
X83892200Y-71971406D01*
G37*
%TD.AperFunction*%
%TA.AperFunction,Conductor*%
G36*
X117538267Y-65674494D02*
G01*
X117597510Y-65777106D01*
X117681294Y-65860890D01*
X117783906Y-65920133D01*
X117869014Y-65942937D01*
X117160085Y-66651865D01*
X117160085Y-66651866D01*
X117223843Y-66698188D01*
X117420189Y-66798232D01*
X117629764Y-66866326D01*
X117847419Y-66900800D01*
X118067781Y-66900800D01*
X118285435Y-66866326D01*
X118495010Y-66798232D01*
X118691360Y-66698186D01*
X118755113Y-66651866D01*
X118755114Y-66651866D01*
X118046185Y-65942938D01*
X118131294Y-65920133D01*
X118233906Y-65860890D01*
X118317690Y-65777106D01*
X118376933Y-65674494D01*
X118399737Y-65589385D01*
X119108666Y-66298314D01*
X119108666Y-66298313D01*
X119126972Y-66273119D01*
X119182301Y-66230453D01*
X119251915Y-66224474D01*
X119313710Y-66257079D01*
X119327608Y-66273119D01*
X119429352Y-66413158D01*
X119429356Y-66413163D01*
X119585236Y-66569043D01*
X119585241Y-66569047D01*
X119699232Y-66651865D01*
X119763578Y-66698615D01*
X119891975Y-66764037D01*
X119959993Y-66798695D01*
X119959996Y-66798696D01*
X120064821Y-66832755D01*
X120169649Y-66866815D01*
X120387378Y-66901300D01*
X120387379Y-66901300D01*
X120607821Y-66901300D01*
X120607822Y-66901300D01*
X120825551Y-66866815D01*
X120842429Y-66861331D01*
X120912270Y-66859332D01*
X120968433Y-66891579D01*
X121150381Y-67073527D01*
X121183866Y-67134850D01*
X121186700Y-67161208D01*
X121186700Y-69218562D01*
X121167015Y-69285601D01*
X121127798Y-69324099D01*
X121086616Y-69349501D01*
X121018542Y-69391489D01*
X120924881Y-69485151D01*
X120863558Y-69518636D01*
X120793866Y-69513652D01*
X120749519Y-69485151D01*
X120655857Y-69391489D01*
X120655856Y-69391488D01*
X120537596Y-69318545D01*
X120506536Y-69299387D01*
X120506531Y-69299385D01*
X120478891Y-69290226D01*
X120339997Y-69244201D01*
X120339995Y-69244200D01*
X120237210Y-69233700D01*
X119437198Y-69233700D01*
X119437180Y-69233701D01*
X119334403Y-69244200D01*
X119334400Y-69244201D01*
X119167868Y-69299385D01*
X119167863Y-69299387D01*
X119018542Y-69391489D01*
X118894489Y-69515542D01*
X118891399Y-69520552D01*
X118859300Y-69572594D01*
X118857941Y-69574797D01*
X118805993Y-69621521D01*
X118752402Y-69633700D01*
X118183556Y-69633700D01*
X118144721Y-69641425D01*
X118144719Y-69641425D01*
X118139051Y-69642553D01*
X118028903Y-69664463D01*
X117930380Y-69705271D01*
X117924238Y-69707101D01*
X117895448Y-69707213D01*
X117866821Y-69710291D01*
X117856854Y-69707364D01*
X117854369Y-69707374D01*
X117852216Y-69706002D01*
X117841389Y-69702823D01*
X117810102Y-69689864D01*
X117810094Y-69689861D01*
X117655445Y-69659100D01*
X117655442Y-69659100D01*
X117289798Y-69659100D01*
X117222759Y-69639415D01*
X117184259Y-69600197D01*
X117178299Y-69590534D01*
X117147712Y-69540944D01*
X117023656Y-69416888D01*
X116914404Y-69349501D01*
X116874336Y-69324787D01*
X116874331Y-69324785D01*
X116855500Y-69318545D01*
X116707797Y-69269601D01*
X116707795Y-69269600D01*
X116605010Y-69259100D01*
X115804998Y-69259100D01*
X115804980Y-69259101D01*
X115702203Y-69269600D01*
X115702200Y-69269601D01*
X115535668Y-69324785D01*
X115535663Y-69324787D01*
X115386342Y-69416889D01*
X115292681Y-69510551D01*
X115231358Y-69544036D01*
X115161666Y-69539052D01*
X115117319Y-69510551D01*
X115023657Y-69416889D01*
X115023656Y-69416888D01*
X114914402Y-69349500D01*
X114867679Y-69297553D01*
X114855500Y-69243962D01*
X114855500Y-67034208D01*
X114864144Y-67004767D01*
X114870668Y-66974781D01*
X114874422Y-66969765D01*
X114875185Y-66967169D01*
X114891819Y-66946527D01*
X114900728Y-66937618D01*
X114962051Y-66904133D01*
X114988409Y-66901299D01*
X116119094Y-66901299D01*
X116119100Y-66901299D01*
X116221672Y-66890821D01*
X116387853Y-66835754D01*
X116536856Y-66743848D01*
X116660648Y-66620056D01*
X116752554Y-66471053D01*
X116802167Y-66321328D01*
X116832192Y-66272653D01*
X117515461Y-65589382D01*
X117538267Y-65674494D01*
G37*
%TD.AperFunction*%
%TD*%
M02*
