%TF.GenerationSoftware,KiCad,Pcbnew,10.0.0*%
%TF.CreationDate,2026-06-28T23:56:20+02:00*%
%TF.ProjectId,nixieclocklogic_V2-1,6e697869-6563-46c6-9f63-6b6c6f676963,rev?*%
%TF.SameCoordinates,Original*%
%TF.FileFunction,Legend,Top*%
%TF.FilePolarity,Positive*%
%FSLAX46Y46*%
G04 Gerber Fmt 4.6, Leading zero omitted, Abs format (unit mm)*
G04 Created by KiCad (PCBNEW 10.0.0) date 2026-06-28 23:56:20*
%MOMM*%
%LPD*%
G01*
G04 APERTURE LIST*
%ADD10C,0.100000*%
%ADD11C,0.200000*%
%ADD12C,0.150000*%
%ADD13C,0.120000*%
G04 APERTURE END LIST*
D10*
X185657802Y-101371400D02*
X203869600Y-101371400D01*
X203869600Y-102158800D01*
X185657802Y-102158800D01*
X185657802Y-101371400D01*
G36*
X185657802Y-101371400D02*
G01*
X203869600Y-101371400D01*
X203869600Y-102158800D01*
X185657802Y-102158800D01*
X185657802Y-101371400D01*
G37*
X185657802Y-102235000D02*
X186690000Y-102235000D01*
X186690000Y-104762300D01*
X185657802Y-104762300D01*
X185657802Y-102235000D01*
G36*
X185657802Y-102235000D02*
G01*
X186690000Y-102235000D01*
X186690000Y-104762300D01*
X185657802Y-104762300D01*
X185657802Y-102235000D01*
G37*
X185657802Y-104775000D02*
X203869600Y-104775000D01*
X203869600Y-105562400D01*
X185657802Y-105562400D01*
X185657802Y-104775000D01*
G36*
X185657802Y-104775000D02*
G01*
X203869600Y-104775000D01*
X203869600Y-105562400D01*
X185657802Y-105562400D01*
X185657802Y-104775000D01*
G37*
X202790001Y-102247961D02*
X203874797Y-102247961D01*
X203874797Y-104775261D01*
X202790001Y-104775261D01*
X202790001Y-102247961D01*
G36*
X202790001Y-102247961D02*
G01*
X203874797Y-102247961D01*
X203874797Y-104775261D01*
X202790001Y-104775261D01*
X202790001Y-102247961D01*
G37*
X204932932Y-104455839D02*
X204932932Y-102955839D01*
X204932932Y-102955839D02*
X205790075Y-104455839D01*
X205790075Y-104455839D02*
X205790075Y-102955839D01*
X206504361Y-104455839D02*
X206504361Y-103455839D01*
X206504361Y-102955839D02*
X206432933Y-103027268D01*
X206432933Y-103027268D02*
X206504361Y-103098696D01*
X206504361Y-103098696D02*
X206575790Y-103027268D01*
X206575790Y-103027268D02*
X206504361Y-102955839D01*
X206504361Y-102955839D02*
X206504361Y-103098696D01*
X207075790Y-104455839D02*
X207861505Y-103455839D01*
X207075790Y-103455839D02*
X207861505Y-104455839D01*
X208432933Y-104455839D02*
X208432933Y-103455839D01*
X208432933Y-102955839D02*
X208361505Y-103027268D01*
X208361505Y-103027268D02*
X208432933Y-103098696D01*
X208432933Y-103098696D02*
X208504362Y-103027268D01*
X208504362Y-103027268D02*
X208432933Y-102955839D01*
X208432933Y-102955839D02*
X208432933Y-103098696D01*
X209718648Y-104384411D02*
X209575791Y-104455839D01*
X209575791Y-104455839D02*
X209290077Y-104455839D01*
X209290077Y-104455839D02*
X209147219Y-104384411D01*
X209147219Y-104384411D02*
X209075791Y-104241553D01*
X209075791Y-104241553D02*
X209075791Y-103670125D01*
X209075791Y-103670125D02*
X209147219Y-103527268D01*
X209147219Y-103527268D02*
X209290077Y-103455839D01*
X209290077Y-103455839D02*
X209575791Y-103455839D01*
X209575791Y-103455839D02*
X209718648Y-103527268D01*
X209718648Y-103527268D02*
X209790077Y-103670125D01*
X209790077Y-103670125D02*
X209790077Y-103812982D01*
X209790077Y-103812982D02*
X209075791Y-103955839D01*
X211290076Y-104312982D02*
X211218648Y-104384411D01*
X211218648Y-104384411D02*
X211004362Y-104455839D01*
X211004362Y-104455839D02*
X210861505Y-104455839D01*
X210861505Y-104455839D02*
X210647219Y-104384411D01*
X210647219Y-104384411D02*
X210504362Y-104241553D01*
X210504362Y-104241553D02*
X210432933Y-104098696D01*
X210432933Y-104098696D02*
X210361505Y-103812982D01*
X210361505Y-103812982D02*
X210361505Y-103598696D01*
X210361505Y-103598696D02*
X210432933Y-103312982D01*
X210432933Y-103312982D02*
X210504362Y-103170125D01*
X210504362Y-103170125D02*
X210647219Y-103027268D01*
X210647219Y-103027268D02*
X210861505Y-102955839D01*
X210861505Y-102955839D02*
X211004362Y-102955839D01*
X211004362Y-102955839D02*
X211218648Y-103027268D01*
X211218648Y-103027268D02*
X211290076Y-103098696D01*
X212147219Y-104455839D02*
X212004362Y-104384411D01*
X212004362Y-104384411D02*
X211932933Y-104241553D01*
X211932933Y-104241553D02*
X211932933Y-102955839D01*
X212932933Y-104455839D02*
X212790076Y-104384411D01*
X212790076Y-104384411D02*
X212718647Y-104312982D01*
X212718647Y-104312982D02*
X212647219Y-104170125D01*
X212647219Y-104170125D02*
X212647219Y-103741553D01*
X212647219Y-103741553D02*
X212718647Y-103598696D01*
X212718647Y-103598696D02*
X212790076Y-103527268D01*
X212790076Y-103527268D02*
X212932933Y-103455839D01*
X212932933Y-103455839D02*
X213147219Y-103455839D01*
X213147219Y-103455839D02*
X213290076Y-103527268D01*
X213290076Y-103527268D02*
X213361505Y-103598696D01*
X213361505Y-103598696D02*
X213432933Y-103741553D01*
X213432933Y-103741553D02*
X213432933Y-104170125D01*
X213432933Y-104170125D02*
X213361505Y-104312982D01*
X213361505Y-104312982D02*
X213290076Y-104384411D01*
X213290076Y-104384411D02*
X213147219Y-104455839D01*
X213147219Y-104455839D02*
X212932933Y-104455839D01*
X214718648Y-104384411D02*
X214575790Y-104455839D01*
X214575790Y-104455839D02*
X214290076Y-104455839D01*
X214290076Y-104455839D02*
X214147219Y-104384411D01*
X214147219Y-104384411D02*
X214075790Y-104312982D01*
X214075790Y-104312982D02*
X214004362Y-104170125D01*
X214004362Y-104170125D02*
X214004362Y-103741553D01*
X214004362Y-103741553D02*
X214075790Y-103598696D01*
X214075790Y-103598696D02*
X214147219Y-103527268D01*
X214147219Y-103527268D02*
X214290076Y-103455839D01*
X214290076Y-103455839D02*
X214575790Y-103455839D01*
X214575790Y-103455839D02*
X214718648Y-103527268D01*
X215361504Y-104455839D02*
X215361504Y-102955839D01*
X215504362Y-103884411D02*
X215932933Y-104455839D01*
X215932933Y-103455839D02*
X215361504Y-104027268D01*
X216575790Y-102955839D02*
X216575790Y-104170125D01*
X216575790Y-104170125D02*
X216647219Y-104312982D01*
X216647219Y-104312982D02*
X216718648Y-104384411D01*
X216718648Y-104384411D02*
X216861505Y-104455839D01*
X216861505Y-104455839D02*
X217147219Y-104455839D01*
X217147219Y-104455839D02*
X217290076Y-104384411D01*
X217290076Y-104384411D02*
X217361505Y-104312982D01*
X217361505Y-104312982D02*
X217432933Y-104170125D01*
X217432933Y-104170125D02*
X217432933Y-102955839D01*
X218361505Y-104455839D02*
X218218648Y-104384411D01*
X218218648Y-104384411D02*
X218147219Y-104241553D01*
X218147219Y-104241553D02*
X218147219Y-102955839D01*
X218718648Y-103455839D02*
X219290076Y-103455839D01*
X218932933Y-102955839D02*
X218932933Y-104241553D01*
X218932933Y-104241553D02*
X219004362Y-104384411D01*
X219004362Y-104384411D02*
X219147219Y-104455839D01*
X219147219Y-104455839D02*
X219290076Y-104455839D01*
X219790076Y-104455839D02*
X219790076Y-103455839D01*
X219790076Y-103741553D02*
X219861505Y-103598696D01*
X219861505Y-103598696D02*
X219932934Y-103527268D01*
X219932934Y-103527268D02*
X220075791Y-103455839D01*
X220075791Y-103455839D02*
X220218648Y-103455839D01*
X221361505Y-104455839D02*
X221361505Y-103670125D01*
X221361505Y-103670125D02*
X221290076Y-103527268D01*
X221290076Y-103527268D02*
X221147219Y-103455839D01*
X221147219Y-103455839D02*
X220861505Y-103455839D01*
X220861505Y-103455839D02*
X220718647Y-103527268D01*
X221361505Y-104384411D02*
X221218647Y-104455839D01*
X221218647Y-104455839D02*
X220861505Y-104455839D01*
X220861505Y-104455839D02*
X220718647Y-104384411D01*
X220718647Y-104384411D02*
X220647219Y-104241553D01*
X220647219Y-104241553D02*
X220647219Y-104098696D01*
X220647219Y-104098696D02*
X220718647Y-103955839D01*
X220718647Y-103955839D02*
X220861505Y-103884411D01*
X220861505Y-103884411D02*
X221218647Y-103884411D01*
X221218647Y-103884411D02*
X221361505Y-103812982D01*
X223004362Y-102955839D02*
X223504362Y-104455839D01*
X223504362Y-104455839D02*
X224004362Y-102955839D01*
X224432933Y-103098696D02*
X224504361Y-103027268D01*
X224504361Y-103027268D02*
X224647219Y-102955839D01*
X224647219Y-102955839D02*
X225004361Y-102955839D01*
X225004361Y-102955839D02*
X225147219Y-103027268D01*
X225147219Y-103027268D02*
X225218647Y-103098696D01*
X225218647Y-103098696D02*
X225290076Y-103241553D01*
X225290076Y-103241553D02*
X225290076Y-103384411D01*
X225290076Y-103384411D02*
X225218647Y-103598696D01*
X225218647Y-103598696D02*
X224361504Y-104455839D01*
X224361504Y-104455839D02*
X225290076Y-104455839D01*
X225932932Y-104312982D02*
X226004361Y-104384411D01*
X226004361Y-104384411D02*
X225932932Y-104455839D01*
X225932932Y-104455839D02*
X225861504Y-104384411D01*
X225861504Y-104384411D02*
X225932932Y-104312982D01*
X225932932Y-104312982D02*
X225932932Y-104455839D01*
X227432933Y-104455839D02*
X226575790Y-104455839D01*
X227004361Y-104455839D02*
X227004361Y-102955839D01*
X227004361Y-102955839D02*
X226861504Y-103170125D01*
X226861504Y-103170125D02*
X226718647Y-103312982D01*
X226718647Y-103312982D02*
X226575790Y-103384411D01*
D11*
G36*
X197241182Y-103325827D02*
G01*
X197313471Y-103398116D01*
X197390895Y-103552964D01*
X197390895Y-104077177D01*
X197313471Y-104232024D01*
X197241183Y-104304314D01*
X197086336Y-104381738D01*
X196847836Y-104381738D01*
X196692987Y-104304314D01*
X196620700Y-104232026D01*
X196543276Y-104077178D01*
X196543276Y-103552963D01*
X196620699Y-103398116D01*
X196692988Y-103325827D01*
X196847836Y-103248404D01*
X197086336Y-103248404D01*
X197241182Y-103325827D01*
G37*
G36*
X199105181Y-103305445D02*
G01*
X199105181Y-104324696D01*
X198991098Y-104381738D01*
X198657360Y-104381738D01*
X198502511Y-104304314D01*
X198430224Y-104232026D01*
X198352800Y-104077178D01*
X198352800Y-103552963D01*
X198430223Y-103398116D01*
X198502512Y-103325827D01*
X198657360Y-103248404D01*
X198991098Y-103248404D01*
X199105181Y-103305445D01*
G37*
G36*
X200844931Y-103318177D02*
G01*
X200914705Y-103457726D01*
X200914705Y-103542614D01*
X200162324Y-103693090D01*
X200162324Y-103457725D01*
X200232097Y-103318177D01*
X200371646Y-103248404D01*
X200705384Y-103248404D01*
X200844931Y-103318177D01*
G37*
G36*
X187923580Y-103810309D02*
G01*
X187248684Y-103810309D01*
X187586132Y-102797965D01*
X187923580Y-103810309D01*
G37*
G36*
X202763578Y-104803960D02*
G01*
X186598029Y-104803960D01*
X186598029Y-104469231D01*
X186820251Y-104469231D01*
X186823017Y-104508151D01*
X186840467Y-104543050D01*
X186869943Y-104568615D01*
X186906959Y-104580953D01*
X186945879Y-104578187D01*
X186980778Y-104560737D01*
X187006343Y-104531261D01*
X187014334Y-104513361D01*
X187182018Y-104010309D01*
X187990247Y-104010309D01*
X188157931Y-104513361D01*
X188165922Y-104531261D01*
X188191487Y-104560737D01*
X188226386Y-104578187D01*
X188265306Y-104580953D01*
X188302322Y-104568614D01*
X188331798Y-104543049D01*
X188349248Y-104508150D01*
X188352014Y-104469230D01*
X188347667Y-104450115D01*
X188319959Y-104366991D01*
X188726149Y-104366991D01*
X188726149Y-104406009D01*
X188728228Y-104411027D01*
X188741081Y-104442058D01*
X188741085Y-104442062D01*
X188753517Y-104457211D01*
X188848755Y-104552449D01*
X188863909Y-104564885D01*
X188899957Y-104579817D01*
X188938975Y-104579817D01*
X188975023Y-104564885D01*
X188990177Y-104552449D01*
X189085415Y-104457211D01*
X189097846Y-104442062D01*
X189097851Y-104442058D01*
X189112783Y-104406010D01*
X189112783Y-104366992D01*
X189110703Y-104361971D01*
X189102340Y-104341779D01*
X189097852Y-104330943D01*
X189085415Y-104315790D01*
X188990177Y-104220551D01*
X188975024Y-104208114D01*
X188975023Y-104208113D01*
X188938975Y-104193182D01*
X188899957Y-104193182D01*
X188863909Y-104208113D01*
X188863908Y-104208114D01*
X188848755Y-104220550D01*
X188753517Y-104315790D01*
X188741080Y-104330943D01*
X188736592Y-104341779D01*
X188726149Y-104366991D01*
X188319959Y-104366991D01*
X187818525Y-102862690D01*
X189676609Y-102862690D01*
X189676609Y-103053166D01*
X189678530Y-103072675D01*
X189679905Y-103075995D01*
X189680160Y-103079579D01*
X189687166Y-103097887D01*
X189782404Y-103288364D01*
X189787690Y-103296762D01*
X189788700Y-103299199D01*
X189790951Y-103301942D01*
X189792847Y-103304954D01*
X189794844Y-103306686D01*
X189801136Y-103314353D01*
X189896374Y-103409591D01*
X189904040Y-103415882D01*
X189905773Y-103417880D01*
X189908784Y-103419775D01*
X189911528Y-103422027D01*
X189913964Y-103423036D01*
X189922363Y-103428323D01*
X190112839Y-103523561D01*
X190114264Y-103524106D01*
X190114847Y-103524538D01*
X190123040Y-103527465D01*
X190131148Y-103530568D01*
X190131868Y-103530619D01*
X190133307Y-103531133D01*
X190503610Y-103623708D01*
X190669753Y-103706780D01*
X190742042Y-103779069D01*
X190819466Y-103933916D01*
X190819466Y-104077177D01*
X190742042Y-104232024D01*
X190669754Y-104304314D01*
X190514907Y-104381738D01*
X190078550Y-104381738D01*
X189808232Y-104291632D01*
X189789116Y-104287285D01*
X189750196Y-104290051D01*
X189715297Y-104307501D01*
X189689732Y-104336977D01*
X189677394Y-104373993D01*
X189680160Y-104412913D01*
X189697610Y-104447812D01*
X189727086Y-104473377D01*
X189744986Y-104481368D01*
X190030700Y-104576606D01*
X190040371Y-104578805D01*
X190042814Y-104579817D01*
X190046352Y-104580165D01*
X190049816Y-104580953D01*
X190052449Y-104580765D01*
X190062323Y-104581738D01*
X190538514Y-104581738D01*
X190558023Y-104579817D01*
X190561343Y-104578441D01*
X190564927Y-104578187D01*
X190583235Y-104571181D01*
X190773712Y-104475943D01*
X190782109Y-104470657D01*
X190784548Y-104469647D01*
X190787292Y-104467394D01*
X190790302Y-104465500D01*
X190792034Y-104463502D01*
X190799701Y-104457210D01*
X190894939Y-104361971D01*
X190901231Y-104354304D01*
X190903228Y-104352573D01*
X190905121Y-104349565D01*
X190907376Y-104346818D01*
X190908387Y-104344376D01*
X190913671Y-104335982D01*
X191008909Y-104145506D01*
X191015915Y-104127198D01*
X191016169Y-104123614D01*
X191017545Y-104120294D01*
X191019466Y-104100785D01*
X191019466Y-103910309D01*
X191017545Y-103890800D01*
X191016169Y-103887479D01*
X191015915Y-103883896D01*
X191008909Y-103865588D01*
X190913671Y-103675112D01*
X190908384Y-103666713D01*
X190907375Y-103664276D01*
X190905123Y-103661532D01*
X190903228Y-103658521D01*
X190901230Y-103656788D01*
X190894939Y-103649122D01*
X190799701Y-103553884D01*
X190792034Y-103547592D01*
X190790302Y-103545595D01*
X190787290Y-103543699D01*
X190784547Y-103541448D01*
X190782110Y-103540438D01*
X190773712Y-103535152D01*
X190762122Y-103529357D01*
X191581371Y-103529357D01*
X191581371Y-104100785D01*
X191583292Y-104120294D01*
X191584667Y-104123614D01*
X191584922Y-104127198D01*
X191591928Y-104145506D01*
X191687166Y-104335983D01*
X191692450Y-104344377D01*
X191693461Y-104346818D01*
X191695715Y-104349564D01*
X191697609Y-104352573D01*
X191699605Y-104354304D01*
X191705898Y-104361971D01*
X191801136Y-104457211D01*
X191808804Y-104463504D01*
X191810535Y-104465500D01*
X191813542Y-104467393D01*
X191816289Y-104469647D01*
X191818729Y-104470657D01*
X191827126Y-104475943D01*
X192017602Y-104571181D01*
X192035910Y-104578187D01*
X192039493Y-104578441D01*
X192042814Y-104579817D01*
X192062323Y-104581738D01*
X192443276Y-104581738D01*
X192462785Y-104579817D01*
X192466105Y-104578441D01*
X192469689Y-104578187D01*
X192487997Y-104571181D01*
X192678474Y-104475943D01*
X192695064Y-104465500D01*
X192720628Y-104436023D01*
X192732967Y-104399007D01*
X192730202Y-104360087D01*
X192712752Y-104325188D01*
X192683275Y-104299624D01*
X192646260Y-104287285D01*
X192607339Y-104290051D01*
X192589031Y-104297057D01*
X192419669Y-104381738D01*
X192085931Y-104381738D01*
X191931082Y-104304314D01*
X191858795Y-104232026D01*
X191781371Y-104077178D01*
X191781371Y-103552963D01*
X191858794Y-103398116D01*
X191931083Y-103325827D01*
X192085931Y-103248404D01*
X192419669Y-103248404D01*
X192589031Y-103333085D01*
X192607339Y-103340091D01*
X192646260Y-103342857D01*
X192683275Y-103330518D01*
X192712752Y-103304954D01*
X192730202Y-103270055D01*
X192732967Y-103231135D01*
X192720628Y-103194119D01*
X192695064Y-103164642D01*
X192678474Y-103154199D01*
X192487997Y-103058961D01*
X192469689Y-103051955D01*
X192466105Y-103051700D01*
X192462785Y-103050325D01*
X192443276Y-103048404D01*
X192062323Y-103048404D01*
X192042814Y-103050325D01*
X192039493Y-103051700D01*
X192035910Y-103051955D01*
X192017602Y-103058961D01*
X191827126Y-103154199D01*
X191818727Y-103159485D01*
X191816290Y-103160495D01*
X191813546Y-103162746D01*
X191810535Y-103164642D01*
X191808802Y-103166639D01*
X191801136Y-103172931D01*
X191705898Y-103268169D01*
X191699606Y-103275835D01*
X191697609Y-103277568D01*
X191695713Y-103280579D01*
X191693462Y-103283323D01*
X191692452Y-103285759D01*
X191687166Y-103294158D01*
X191591928Y-103484636D01*
X191584922Y-103502944D01*
X191584667Y-103506527D01*
X191583292Y-103509848D01*
X191581371Y-103529357D01*
X190762122Y-103529357D01*
X190583235Y-103439914D01*
X190581808Y-103439368D01*
X190581228Y-103438938D01*
X190573051Y-103436016D01*
X190564927Y-103432908D01*
X190564204Y-103432856D01*
X190562767Y-103432343D01*
X190192467Y-103339768D01*
X190026321Y-103256694D01*
X189954032Y-103184405D01*
X189876609Y-103029559D01*
X189876609Y-102886297D01*
X189954032Y-102731451D01*
X190026321Y-102659161D01*
X190181169Y-102581738D01*
X190617525Y-102581738D01*
X190887843Y-102671844D01*
X190906959Y-102676191D01*
X190945879Y-102673425D01*
X190980778Y-102655975D01*
X191006343Y-102626499D01*
X191018681Y-102589483D01*
X191015915Y-102550563D01*
X190998465Y-102515664D01*
X190968989Y-102490099D01*
X190951089Y-102482108D01*
X190949979Y-102481738D01*
X193390895Y-102481738D01*
X193390895Y-104481738D01*
X193392816Y-104501247D01*
X193407748Y-104537295D01*
X193435338Y-104564885D01*
X193471386Y-104579817D01*
X193510404Y-104579817D01*
X193546452Y-104564885D01*
X193574042Y-104537295D01*
X193588974Y-104501247D01*
X193590895Y-104481738D01*
X193590895Y-103380302D01*
X193645369Y-103325827D01*
X193800217Y-103248404D01*
X194038717Y-103248404D01*
X194178264Y-103318177D01*
X194248038Y-103457726D01*
X194248038Y-104481738D01*
X194249959Y-104501247D01*
X194264891Y-104537295D01*
X194292481Y-104564885D01*
X194328529Y-104579817D01*
X194367547Y-104579817D01*
X194403595Y-104564885D01*
X194431185Y-104537295D01*
X194446117Y-104501247D01*
X194448038Y-104481738D01*
X194448038Y-103434119D01*
X194446117Y-103414610D01*
X194444741Y-103411289D01*
X194444487Y-103407707D01*
X194437481Y-103389398D01*
X194342243Y-103198921D01*
X194340189Y-103195657D01*
X194339676Y-103194119D01*
X194338013Y-103192202D01*
X194331800Y-103182331D01*
X194322329Y-103174117D01*
X194314112Y-103164642D01*
X194304236Y-103158425D01*
X194302323Y-103156766D01*
X194300786Y-103156253D01*
X194297522Y-103154199D01*
X194285932Y-103148404D01*
X195200419Y-103148404D01*
X195200419Y-104481738D01*
X195202340Y-104501247D01*
X195217272Y-104537295D01*
X195244862Y-104564885D01*
X195280910Y-104579817D01*
X195319928Y-104579817D01*
X195355976Y-104564885D01*
X195383566Y-104537295D01*
X195398498Y-104501247D01*
X195400419Y-104481738D01*
X195400419Y-103552963D01*
X195412222Y-103529357D01*
X196343276Y-103529357D01*
X196343276Y-104100785D01*
X196345197Y-104120294D01*
X196346572Y-104123614D01*
X196346827Y-104127198D01*
X196353833Y-104145506D01*
X196449071Y-104335983D01*
X196454355Y-104344377D01*
X196455366Y-104346818D01*
X196457620Y-104349564D01*
X196459514Y-104352573D01*
X196461510Y-104354304D01*
X196467803Y-104361971D01*
X196563041Y-104457211D01*
X196570709Y-104463504D01*
X196572440Y-104465500D01*
X196575447Y-104467393D01*
X196578194Y-104469647D01*
X196580634Y-104470657D01*
X196589031Y-104475943D01*
X196779507Y-104571181D01*
X196797815Y-104578187D01*
X196801398Y-104578441D01*
X196804719Y-104579817D01*
X196824228Y-104581738D01*
X197109943Y-104581738D01*
X197129452Y-104579817D01*
X197132772Y-104578441D01*
X197136356Y-104578187D01*
X197154664Y-104571181D01*
X197345141Y-104475943D01*
X197353538Y-104470657D01*
X197355977Y-104469647D01*
X197358721Y-104467394D01*
X197361731Y-104465500D01*
X197363463Y-104463502D01*
X197371130Y-104457210D01*
X197466368Y-104361971D01*
X197472660Y-104354304D01*
X197474657Y-104352573D01*
X197476550Y-104349565D01*
X197478805Y-104346818D01*
X197479816Y-104344376D01*
X197485100Y-104335982D01*
X197580338Y-104145506D01*
X197587344Y-104127198D01*
X197587598Y-104123614D01*
X197588974Y-104120294D01*
X197590895Y-104100785D01*
X197590895Y-103529357D01*
X198152800Y-103529357D01*
X198152800Y-104100785D01*
X198154721Y-104120294D01*
X198156096Y-104123614D01*
X198156351Y-104127198D01*
X198163357Y-104145506D01*
X198258595Y-104335983D01*
X198263879Y-104344377D01*
X198264890Y-104346818D01*
X198267144Y-104349564D01*
X198269038Y-104352573D01*
X198271034Y-104354304D01*
X198277327Y-104361971D01*
X198372565Y-104457211D01*
X198380233Y-104463504D01*
X198381964Y-104465500D01*
X198384971Y-104467393D01*
X198387718Y-104469647D01*
X198390158Y-104470657D01*
X198398555Y-104475943D01*
X198589031Y-104571181D01*
X198607339Y-104578187D01*
X198610922Y-104578441D01*
X198614243Y-104579817D01*
X198633752Y-104581738D01*
X199014705Y-104581738D01*
X199034214Y-104579817D01*
X199037534Y-104578441D01*
X199041118Y-104578187D01*
X199059426Y-104571181D01*
X199123755Y-104539016D01*
X199149624Y-104564885D01*
X199185672Y-104579817D01*
X199224690Y-104579817D01*
X199260738Y-104564885D01*
X199288328Y-104537295D01*
X199303260Y-104501247D01*
X199305181Y-104481738D01*
X199305181Y-103434119D01*
X199962324Y-103434119D01*
X199962324Y-104196023D01*
X199964245Y-104215532D01*
X199965620Y-104218852D01*
X199965875Y-104222436D01*
X199972881Y-104240744D01*
X200068119Y-104431222D01*
X200070173Y-104434486D01*
X200070686Y-104436023D01*
X200072345Y-104437937D01*
X200078562Y-104447812D01*
X200088034Y-104456027D01*
X200096250Y-104465500D01*
X200106123Y-104471714D01*
X200108039Y-104473376D01*
X200109577Y-104473888D01*
X200112841Y-104475943D01*
X200303317Y-104571181D01*
X200321625Y-104578187D01*
X200325208Y-104578441D01*
X200328529Y-104579817D01*
X200348038Y-104581738D01*
X200728991Y-104581738D01*
X200748500Y-104579817D01*
X200751820Y-104578441D01*
X200755404Y-104578187D01*
X200773712Y-104571181D01*
X200964189Y-104475943D01*
X200980779Y-104465500D01*
X201006343Y-104436023D01*
X201018682Y-104399007D01*
X201015917Y-104360087D01*
X200998467Y-104325188D01*
X200968990Y-104299624D01*
X200931975Y-104287285D01*
X200893054Y-104290051D01*
X200874746Y-104297057D01*
X200705384Y-104381738D01*
X200371646Y-104381738D01*
X200232097Y-104311964D01*
X200162324Y-104172416D01*
X200162324Y-103897051D01*
X201034212Y-103722674D01*
X201034214Y-103722674D01*
X201034215Y-103722673D01*
X201034317Y-103722653D01*
X201053070Y-103716943D01*
X201061210Y-103711491D01*
X201070262Y-103707742D01*
X201077261Y-103700742D01*
X201085490Y-103695232D01*
X201090925Y-103687078D01*
X201097852Y-103680152D01*
X201101640Y-103671005D01*
X201107133Y-103662767D01*
X201109034Y-103653155D01*
X201112784Y-103644104D01*
X201114705Y-103624595D01*
X201114705Y-103624495D01*
X201114706Y-103624490D01*
X201114705Y-103624485D01*
X201114705Y-103434119D01*
X201112784Y-103414610D01*
X201111408Y-103411289D01*
X201111154Y-103407707D01*
X201104148Y-103389398D01*
X201008910Y-103198921D01*
X201006856Y-103195657D01*
X201006343Y-103194119D01*
X201004680Y-103192202D01*
X200998467Y-103182331D01*
X200988996Y-103174117D01*
X200980779Y-103164642D01*
X200970903Y-103158425D01*
X200968990Y-103156766D01*
X200967453Y-103156253D01*
X200964189Y-103154199D01*
X200952599Y-103148404D01*
X201771848Y-103148404D01*
X201771848Y-104481738D01*
X201773769Y-104501247D01*
X201788701Y-104537295D01*
X201816291Y-104564885D01*
X201852339Y-104579817D01*
X201891357Y-104579817D01*
X201927405Y-104564885D01*
X201954995Y-104537295D01*
X201969927Y-104501247D01*
X201971848Y-104481738D01*
X201971848Y-103552963D01*
X202049271Y-103398116D01*
X202121560Y-103325827D01*
X202276408Y-103248404D01*
X202443277Y-103248404D01*
X202462786Y-103246483D01*
X202498834Y-103231551D01*
X202526424Y-103203961D01*
X202541356Y-103167913D01*
X202541356Y-103128895D01*
X202526424Y-103092847D01*
X202498834Y-103065257D01*
X202462786Y-103050325D01*
X202443277Y-103048404D01*
X202252800Y-103048404D01*
X202233291Y-103050325D01*
X202229970Y-103051700D01*
X202226387Y-103051955D01*
X202208079Y-103058961D01*
X202017603Y-103154199D01*
X202009204Y-103159485D01*
X202006767Y-103160495D01*
X202004023Y-103162746D01*
X202001012Y-103164642D01*
X201999279Y-103166639D01*
X201991613Y-103172931D01*
X201971848Y-103192696D01*
X201971848Y-103148404D01*
X201969927Y-103128895D01*
X201954995Y-103092847D01*
X201927405Y-103065257D01*
X201891357Y-103050325D01*
X201852339Y-103050325D01*
X201816291Y-103065257D01*
X201788701Y-103092847D01*
X201773769Y-103128895D01*
X201771848Y-103148404D01*
X200952599Y-103148404D01*
X200773712Y-103058961D01*
X200755404Y-103051955D01*
X200751820Y-103051700D01*
X200748500Y-103050325D01*
X200728991Y-103048404D01*
X200348038Y-103048404D01*
X200328529Y-103050325D01*
X200325208Y-103051700D01*
X200321625Y-103051955D01*
X200303317Y-103058961D01*
X200112841Y-103154199D01*
X200109577Y-103156253D01*
X200108039Y-103156766D01*
X200106123Y-103158427D01*
X200096250Y-103164642D01*
X200088034Y-103174114D01*
X200078562Y-103182330D01*
X200072345Y-103192204D01*
X200070686Y-103194119D01*
X200070173Y-103195655D01*
X200068119Y-103198920D01*
X199972881Y-103389398D01*
X199965875Y-103407706D01*
X199965620Y-103411289D01*
X199964245Y-103414610D01*
X199962324Y-103434119D01*
X199305181Y-103434119D01*
X199305181Y-102481738D01*
X199303260Y-102462229D01*
X199288328Y-102426181D01*
X199260738Y-102398591D01*
X199224690Y-102383659D01*
X199185672Y-102383659D01*
X199149624Y-102398591D01*
X199122034Y-102426181D01*
X199107102Y-102462229D01*
X199105181Y-102481738D01*
X199105181Y-103081838D01*
X199059426Y-103058961D01*
X199041118Y-103051955D01*
X199037534Y-103051700D01*
X199034214Y-103050325D01*
X199014705Y-103048404D01*
X198633752Y-103048404D01*
X198614243Y-103050325D01*
X198610922Y-103051700D01*
X198607339Y-103051955D01*
X198589031Y-103058961D01*
X198398555Y-103154199D01*
X198390156Y-103159485D01*
X198387719Y-103160495D01*
X198384975Y-103162746D01*
X198381964Y-103164642D01*
X198380231Y-103166639D01*
X198372565Y-103172931D01*
X198277327Y-103268169D01*
X198271035Y-103275835D01*
X198269038Y-103277568D01*
X198267142Y-103280579D01*
X198264891Y-103283323D01*
X198263881Y-103285759D01*
X198258595Y-103294158D01*
X198163357Y-103484636D01*
X198156351Y-103502944D01*
X198156096Y-103506527D01*
X198154721Y-103509848D01*
X198152800Y-103529357D01*
X197590895Y-103529357D01*
X197588974Y-103509848D01*
X197587598Y-103506527D01*
X197587344Y-103502945D01*
X197580338Y-103484636D01*
X197485100Y-103294159D01*
X197479814Y-103285762D01*
X197478804Y-103283323D01*
X197476550Y-103280576D01*
X197474657Y-103277569D01*
X197472662Y-103275839D01*
X197466368Y-103268169D01*
X197371130Y-103172931D01*
X197363463Y-103166639D01*
X197361731Y-103164642D01*
X197358719Y-103162746D01*
X197355976Y-103160495D01*
X197353539Y-103159485D01*
X197345141Y-103154199D01*
X197154664Y-103058961D01*
X197136356Y-103051955D01*
X197132772Y-103051700D01*
X197129452Y-103050325D01*
X197109943Y-103048404D01*
X196824228Y-103048404D01*
X196804719Y-103050325D01*
X196801398Y-103051700D01*
X196797815Y-103051955D01*
X196779507Y-103058961D01*
X196589031Y-103154199D01*
X196580632Y-103159485D01*
X196578195Y-103160495D01*
X196575451Y-103162746D01*
X196572440Y-103164642D01*
X196570707Y-103166639D01*
X196563041Y-103172931D01*
X196467803Y-103268169D01*
X196461511Y-103275835D01*
X196459514Y-103277568D01*
X196457618Y-103280579D01*
X196455367Y-103283323D01*
X196454357Y-103285759D01*
X196449071Y-103294158D01*
X196353833Y-103484636D01*
X196346827Y-103502944D01*
X196346572Y-103506527D01*
X196345197Y-103509848D01*
X196343276Y-103529357D01*
X195412222Y-103529357D01*
X195477842Y-103398116D01*
X195550131Y-103325827D01*
X195704979Y-103248404D01*
X195871848Y-103248404D01*
X195891357Y-103246483D01*
X195927405Y-103231551D01*
X195954995Y-103203961D01*
X195969927Y-103167913D01*
X195969927Y-103128895D01*
X195954995Y-103092847D01*
X195927405Y-103065257D01*
X195891357Y-103050325D01*
X195871848Y-103048404D01*
X195681371Y-103048404D01*
X195661862Y-103050325D01*
X195658541Y-103051700D01*
X195654958Y-103051955D01*
X195636650Y-103058961D01*
X195446174Y-103154199D01*
X195437775Y-103159485D01*
X195435338Y-103160495D01*
X195432594Y-103162746D01*
X195429583Y-103164642D01*
X195427850Y-103166639D01*
X195420184Y-103172931D01*
X195400419Y-103192696D01*
X195400419Y-103148404D01*
X195398498Y-103128895D01*
X195383566Y-103092847D01*
X195355976Y-103065257D01*
X195319928Y-103050325D01*
X195280910Y-103050325D01*
X195244862Y-103065257D01*
X195217272Y-103092847D01*
X195202340Y-103128895D01*
X195200419Y-103148404D01*
X194285932Y-103148404D01*
X194107045Y-103058961D01*
X194088737Y-103051955D01*
X194085153Y-103051700D01*
X194081833Y-103050325D01*
X194062324Y-103048404D01*
X193776609Y-103048404D01*
X193757100Y-103050325D01*
X193753779Y-103051700D01*
X193750196Y-103051955D01*
X193731888Y-103058961D01*
X193590895Y-103129457D01*
X193590895Y-102557467D01*
X196440435Y-102557467D01*
X196440435Y-102596485D01*
X196455367Y-102632533D01*
X196467803Y-102647687D01*
X196563041Y-102742925D01*
X196578195Y-102755361D01*
X196614243Y-102770293D01*
X196653261Y-102770293D01*
X196689309Y-102755361D01*
X196704463Y-102742925D01*
X196799701Y-102647687D01*
X196812137Y-102632533D01*
X196827069Y-102596485D01*
X196827069Y-102557467D01*
X197202340Y-102557467D01*
X197202340Y-102596485D01*
X197217272Y-102632533D01*
X197229708Y-102647687D01*
X197324946Y-102742925D01*
X197340100Y-102755361D01*
X197376148Y-102770293D01*
X197415166Y-102770293D01*
X197451214Y-102755361D01*
X197466368Y-102742925D01*
X197561606Y-102647687D01*
X197574042Y-102632533D01*
X197588974Y-102596485D01*
X197588974Y-102557467D01*
X197574042Y-102521419D01*
X197561606Y-102506265D01*
X197466368Y-102411027D01*
X197451214Y-102398591D01*
X197415166Y-102383659D01*
X197376148Y-102383659D01*
X197340100Y-102398591D01*
X197324946Y-102411027D01*
X197229708Y-102506265D01*
X197217272Y-102521419D01*
X197202340Y-102557467D01*
X196827069Y-102557467D01*
X196812137Y-102521419D01*
X196799701Y-102506265D01*
X196704463Y-102411027D01*
X196689309Y-102398591D01*
X196653261Y-102383659D01*
X196614243Y-102383659D01*
X196578195Y-102398591D01*
X196563041Y-102411027D01*
X196467803Y-102506265D01*
X196455367Y-102521419D01*
X196440435Y-102557467D01*
X193590895Y-102557467D01*
X193590895Y-102481738D01*
X193588974Y-102462229D01*
X193574042Y-102426181D01*
X193546452Y-102398591D01*
X193510404Y-102383659D01*
X193471386Y-102383659D01*
X193435338Y-102398591D01*
X193407748Y-102426181D01*
X193392816Y-102462229D01*
X193390895Y-102481738D01*
X190949979Y-102481738D01*
X190665375Y-102386870D01*
X190655703Y-102384670D01*
X190653261Y-102383659D01*
X190649722Y-102383310D01*
X190646259Y-102382523D01*
X190643625Y-102382710D01*
X190633752Y-102381738D01*
X190157561Y-102381738D01*
X190138052Y-102383659D01*
X190134731Y-102385034D01*
X190131148Y-102385289D01*
X190112840Y-102392295D01*
X189922364Y-102487533D01*
X189913965Y-102492819D01*
X189911528Y-102493829D01*
X189908784Y-102496080D01*
X189905773Y-102497976D01*
X189904040Y-102499973D01*
X189896374Y-102506265D01*
X189801136Y-102601503D01*
X189794844Y-102609169D01*
X189792847Y-102610902D01*
X189790951Y-102613913D01*
X189788700Y-102616657D01*
X189787690Y-102619093D01*
X189782404Y-102627492D01*
X189687166Y-102817969D01*
X189680160Y-102836277D01*
X189679905Y-102839860D01*
X189678530Y-102843181D01*
X189676609Y-102862690D01*
X187818525Y-102862690D01*
X187681000Y-102450115D01*
X187673009Y-102432215D01*
X187668325Y-102426815D01*
X187665131Y-102420426D01*
X187655656Y-102412208D01*
X187647443Y-102402739D01*
X187641055Y-102399545D01*
X187635655Y-102394861D01*
X187623756Y-102390895D01*
X187612545Y-102385289D01*
X187605417Y-102384782D01*
X187598639Y-102382523D01*
X187586132Y-102383411D01*
X187573625Y-102382523D01*
X187566846Y-102384782D01*
X187559719Y-102385289D01*
X187548507Y-102390895D01*
X187536609Y-102394861D01*
X187531208Y-102399544D01*
X187524821Y-102402739D01*
X187516605Y-102412211D01*
X187507133Y-102420427D01*
X187503938Y-102426814D01*
X187499255Y-102432215D01*
X187491264Y-102450115D01*
X186824598Y-104450115D01*
X186820251Y-104469231D01*
X186598029Y-104469231D01*
X186598029Y-102159516D01*
X202763578Y-102159516D01*
X202763578Y-104803960D01*
G37*
D12*
X159548533Y-68958619D02*
X159215200Y-68482428D01*
X158977105Y-68958619D02*
X158977105Y-67958619D01*
X158977105Y-67958619D02*
X159358057Y-67958619D01*
X159358057Y-67958619D02*
X159453295Y-68006238D01*
X159453295Y-68006238D02*
X159500914Y-68053857D01*
X159500914Y-68053857D02*
X159548533Y-68149095D01*
X159548533Y-68149095D02*
X159548533Y-68291952D01*
X159548533Y-68291952D02*
X159500914Y-68387190D01*
X159500914Y-68387190D02*
X159453295Y-68434809D01*
X159453295Y-68434809D02*
X159358057Y-68482428D01*
X159358057Y-68482428D02*
X158977105Y-68482428D01*
X159929486Y-68053857D02*
X159977105Y-68006238D01*
X159977105Y-68006238D02*
X160072343Y-67958619D01*
X160072343Y-67958619D02*
X160310438Y-67958619D01*
X160310438Y-67958619D02*
X160405676Y-68006238D01*
X160405676Y-68006238D02*
X160453295Y-68053857D01*
X160453295Y-68053857D02*
X160500914Y-68149095D01*
X160500914Y-68149095D02*
X160500914Y-68244333D01*
X160500914Y-68244333D02*
X160453295Y-68387190D01*
X160453295Y-68387190D02*
X159881867Y-68958619D01*
X159881867Y-68958619D02*
X160500914Y-68958619D01*
X159331066Y-63183419D02*
X159331066Y-63897704D01*
X159331066Y-63897704D02*
X159283447Y-64040561D01*
X159283447Y-64040561D02*
X159188209Y-64135800D01*
X159188209Y-64135800D02*
X159045352Y-64183419D01*
X159045352Y-64183419D02*
X158950114Y-64183419D01*
X159712019Y-63183419D02*
X160331066Y-63183419D01*
X160331066Y-63183419D02*
X159997733Y-63564371D01*
X159997733Y-63564371D02*
X160140590Y-63564371D01*
X160140590Y-63564371D02*
X160235828Y-63611990D01*
X160235828Y-63611990D02*
X160283447Y-63659609D01*
X160283447Y-63659609D02*
X160331066Y-63754847D01*
X160331066Y-63754847D02*
X160331066Y-63992942D01*
X160331066Y-63992942D02*
X160283447Y-64088180D01*
X160283447Y-64088180D02*
X160235828Y-64135800D01*
X160235828Y-64135800D02*
X160140590Y-64183419D01*
X160140590Y-64183419D02*
X159854876Y-64183419D01*
X159854876Y-64183419D02*
X159759638Y-64135800D01*
X159759638Y-64135800D02*
X159712019Y-64088180D01*
X131024333Y-69033819D02*
X130691000Y-68557628D01*
X130452905Y-69033819D02*
X130452905Y-68033819D01*
X130452905Y-68033819D02*
X130833857Y-68033819D01*
X130833857Y-68033819D02*
X130929095Y-68081438D01*
X130929095Y-68081438D02*
X130976714Y-68129057D01*
X130976714Y-68129057D02*
X131024333Y-68224295D01*
X131024333Y-68224295D02*
X131024333Y-68367152D01*
X131024333Y-68367152D02*
X130976714Y-68462390D01*
X130976714Y-68462390D02*
X130929095Y-68510009D01*
X130929095Y-68510009D02*
X130833857Y-68557628D01*
X130833857Y-68557628D02*
X130452905Y-68557628D01*
X131881476Y-68367152D02*
X131881476Y-69033819D01*
X131643381Y-67986200D02*
X131405286Y-68700485D01*
X131405286Y-68700485D02*
X132024333Y-68700485D01*
X210083495Y-89345419D02*
X210083495Y-90154942D01*
X210083495Y-90154942D02*
X210131114Y-90250180D01*
X210131114Y-90250180D02*
X210178733Y-90297800D01*
X210178733Y-90297800D02*
X210273971Y-90345419D01*
X210273971Y-90345419D02*
X210464447Y-90345419D01*
X210464447Y-90345419D02*
X210559685Y-90297800D01*
X210559685Y-90297800D02*
X210607304Y-90250180D01*
X210607304Y-90250180D02*
X210654923Y-90154942D01*
X210654923Y-90154942D02*
X210654923Y-89345419D01*
X211607304Y-89345419D02*
X211131114Y-89345419D01*
X211131114Y-89345419D02*
X211083495Y-89821609D01*
X211083495Y-89821609D02*
X211131114Y-89773990D01*
X211131114Y-89773990D02*
X211226352Y-89726371D01*
X211226352Y-89726371D02*
X211464447Y-89726371D01*
X211464447Y-89726371D02*
X211559685Y-89773990D01*
X211559685Y-89773990D02*
X211607304Y-89821609D01*
X211607304Y-89821609D02*
X211654923Y-89916847D01*
X211654923Y-89916847D02*
X211654923Y-90154942D01*
X211654923Y-90154942D02*
X211607304Y-90250180D01*
X211607304Y-90250180D02*
X211559685Y-90297800D01*
X211559685Y-90297800D02*
X211464447Y-90345419D01*
X211464447Y-90345419D02*
X211226352Y-90345419D01*
X211226352Y-90345419D02*
X211131114Y-90297800D01*
X211131114Y-90297800D02*
X211083495Y-90250180D01*
X145674095Y-69108419D02*
X145674095Y-69917942D01*
X145674095Y-69917942D02*
X145721714Y-70013180D01*
X145721714Y-70013180D02*
X145769333Y-70060800D01*
X145769333Y-70060800D02*
X145864571Y-70108419D01*
X145864571Y-70108419D02*
X146055047Y-70108419D01*
X146055047Y-70108419D02*
X146150285Y-70060800D01*
X146150285Y-70060800D02*
X146197904Y-70013180D01*
X146197904Y-70013180D02*
X146245523Y-69917942D01*
X146245523Y-69917942D02*
X146245523Y-69108419D01*
X146674095Y-69203657D02*
X146721714Y-69156038D01*
X146721714Y-69156038D02*
X146816952Y-69108419D01*
X146816952Y-69108419D02*
X147055047Y-69108419D01*
X147055047Y-69108419D02*
X147150285Y-69156038D01*
X147150285Y-69156038D02*
X147197904Y-69203657D01*
X147197904Y-69203657D02*
X147245523Y-69298895D01*
X147245523Y-69298895D02*
X147245523Y-69394133D01*
X147245523Y-69394133D02*
X147197904Y-69536990D01*
X147197904Y-69536990D02*
X146626476Y-70108419D01*
X146626476Y-70108419D02*
X147245523Y-70108419D01*
X136231333Y-65377780D02*
X136183714Y-65425400D01*
X136183714Y-65425400D02*
X136040857Y-65473019D01*
X136040857Y-65473019D02*
X135945619Y-65473019D01*
X135945619Y-65473019D02*
X135802762Y-65425400D01*
X135802762Y-65425400D02*
X135707524Y-65330161D01*
X135707524Y-65330161D02*
X135659905Y-65234923D01*
X135659905Y-65234923D02*
X135612286Y-65044447D01*
X135612286Y-65044447D02*
X135612286Y-64901590D01*
X135612286Y-64901590D02*
X135659905Y-64711114D01*
X135659905Y-64711114D02*
X135707524Y-64615876D01*
X135707524Y-64615876D02*
X135802762Y-64520638D01*
X135802762Y-64520638D02*
X135945619Y-64473019D01*
X135945619Y-64473019D02*
X136040857Y-64473019D01*
X136040857Y-64473019D02*
X136183714Y-64520638D01*
X136183714Y-64520638D02*
X136231333Y-64568257D01*
X137088476Y-64473019D02*
X136898000Y-64473019D01*
X136898000Y-64473019D02*
X136802762Y-64520638D01*
X136802762Y-64520638D02*
X136755143Y-64568257D01*
X136755143Y-64568257D02*
X136659905Y-64711114D01*
X136659905Y-64711114D02*
X136612286Y-64901590D01*
X136612286Y-64901590D02*
X136612286Y-65282542D01*
X136612286Y-65282542D02*
X136659905Y-65377780D01*
X136659905Y-65377780D02*
X136707524Y-65425400D01*
X136707524Y-65425400D02*
X136802762Y-65473019D01*
X136802762Y-65473019D02*
X136993238Y-65473019D01*
X136993238Y-65473019D02*
X137088476Y-65425400D01*
X137088476Y-65425400D02*
X137136095Y-65377780D01*
X137136095Y-65377780D02*
X137183714Y-65282542D01*
X137183714Y-65282542D02*
X137183714Y-65044447D01*
X137183714Y-65044447D02*
X137136095Y-64949209D01*
X137136095Y-64949209D02*
X137088476Y-64901590D01*
X137088476Y-64901590D02*
X136993238Y-64853971D01*
X136993238Y-64853971D02*
X136802762Y-64853971D01*
X136802762Y-64853971D02*
X136707524Y-64901590D01*
X136707524Y-64901590D02*
X136659905Y-64949209D01*
X136659905Y-64949209D02*
X136612286Y-65044447D01*
X162966495Y-89116819D02*
X162966495Y-89926342D01*
X162966495Y-89926342D02*
X163014114Y-90021580D01*
X163014114Y-90021580D02*
X163061733Y-90069200D01*
X163061733Y-90069200D02*
X163156971Y-90116819D01*
X163156971Y-90116819D02*
X163347447Y-90116819D01*
X163347447Y-90116819D02*
X163442685Y-90069200D01*
X163442685Y-90069200D02*
X163490304Y-90021580D01*
X163490304Y-90021580D02*
X163537923Y-89926342D01*
X163537923Y-89926342D02*
X163537923Y-89116819D01*
X164537923Y-90116819D02*
X163966495Y-90116819D01*
X164252209Y-90116819D02*
X164252209Y-89116819D01*
X164252209Y-89116819D02*
X164156971Y-89259676D01*
X164156971Y-89259676D02*
X164061733Y-89354914D01*
X164061733Y-89354914D02*
X163966495Y-89402533D01*
X114562142Y-72768619D02*
X114228809Y-72292428D01*
X113990714Y-72768619D02*
X113990714Y-71768619D01*
X113990714Y-71768619D02*
X114371666Y-71768619D01*
X114371666Y-71768619D02*
X114466904Y-71816238D01*
X114466904Y-71816238D02*
X114514523Y-71863857D01*
X114514523Y-71863857D02*
X114562142Y-71959095D01*
X114562142Y-71959095D02*
X114562142Y-72101952D01*
X114562142Y-72101952D02*
X114514523Y-72197190D01*
X114514523Y-72197190D02*
X114466904Y-72244809D01*
X114466904Y-72244809D02*
X114371666Y-72292428D01*
X114371666Y-72292428D02*
X113990714Y-72292428D01*
X114943095Y-71863857D02*
X114990714Y-71816238D01*
X114990714Y-71816238D02*
X115085952Y-71768619D01*
X115085952Y-71768619D02*
X115324047Y-71768619D01*
X115324047Y-71768619D02*
X115419285Y-71816238D01*
X115419285Y-71816238D02*
X115466904Y-71863857D01*
X115466904Y-71863857D02*
X115514523Y-71959095D01*
X115514523Y-71959095D02*
X115514523Y-72054333D01*
X115514523Y-72054333D02*
X115466904Y-72197190D01*
X115466904Y-72197190D02*
X114895476Y-72768619D01*
X114895476Y-72768619D02*
X115514523Y-72768619D01*
X115895476Y-71863857D02*
X115943095Y-71816238D01*
X115943095Y-71816238D02*
X116038333Y-71768619D01*
X116038333Y-71768619D02*
X116276428Y-71768619D01*
X116276428Y-71768619D02*
X116371666Y-71816238D01*
X116371666Y-71816238D02*
X116419285Y-71863857D01*
X116419285Y-71863857D02*
X116466904Y-71959095D01*
X116466904Y-71959095D02*
X116466904Y-72054333D01*
X116466904Y-72054333D02*
X116419285Y-72197190D01*
X116419285Y-72197190D02*
X115847857Y-72768619D01*
X115847857Y-72768619D02*
X116466904Y-72768619D01*
X107111895Y-65774219D02*
X107111895Y-66583742D01*
X107111895Y-66583742D02*
X107159514Y-66678980D01*
X107159514Y-66678980D02*
X107207133Y-66726600D01*
X107207133Y-66726600D02*
X107302371Y-66774219D01*
X107302371Y-66774219D02*
X107492847Y-66774219D01*
X107492847Y-66774219D02*
X107588085Y-66726600D01*
X107588085Y-66726600D02*
X107635704Y-66678980D01*
X107635704Y-66678980D02*
X107683323Y-66583742D01*
X107683323Y-66583742D02*
X107683323Y-65774219D01*
X108588085Y-66107552D02*
X108588085Y-66774219D01*
X108349990Y-65726600D02*
X108111895Y-66440885D01*
X108111895Y-66440885D02*
X108730942Y-66440885D01*
X132867109Y-73035428D02*
X132867109Y-73511619D01*
X132533776Y-72511619D02*
X132867109Y-73035428D01*
X132867109Y-73035428D02*
X133200442Y-72511619D01*
X134057585Y-73511619D02*
X133486157Y-73511619D01*
X133771871Y-73511619D02*
X133771871Y-72511619D01*
X133771871Y-72511619D02*
X133676633Y-72654476D01*
X133676633Y-72654476D02*
X133581395Y-72749714D01*
X133581395Y-72749714D02*
X133486157Y-72797333D01*
X227860266Y-78779019D02*
X227860266Y-79493304D01*
X227860266Y-79493304D02*
X227812647Y-79636161D01*
X227812647Y-79636161D02*
X227717409Y-79731400D01*
X227717409Y-79731400D02*
X227574552Y-79779019D01*
X227574552Y-79779019D02*
X227479314Y-79779019D01*
X228860266Y-79779019D02*
X228288838Y-79779019D01*
X228574552Y-79779019D02*
X228574552Y-78779019D01*
X228574552Y-78779019D02*
X228479314Y-78921876D01*
X228479314Y-78921876D02*
X228384076Y-79017114D01*
X228384076Y-79017114D02*
X228288838Y-79064733D01*
X90903466Y-103950419D02*
X90903466Y-104664704D01*
X90903466Y-104664704D02*
X90855847Y-104807561D01*
X90855847Y-104807561D02*
X90760609Y-104902800D01*
X90760609Y-104902800D02*
X90617752Y-104950419D01*
X90617752Y-104950419D02*
X90522514Y-104950419D01*
X91808228Y-104283752D02*
X91808228Y-104950419D01*
X91570133Y-103902800D02*
X91332038Y-104617085D01*
X91332038Y-104617085D02*
X91951085Y-104617085D01*
X139330133Y-72292380D02*
X139282514Y-72340000D01*
X139282514Y-72340000D02*
X139139657Y-72387619D01*
X139139657Y-72387619D02*
X139044419Y-72387619D01*
X139044419Y-72387619D02*
X138901562Y-72340000D01*
X138901562Y-72340000D02*
X138806324Y-72244761D01*
X138806324Y-72244761D02*
X138758705Y-72149523D01*
X138758705Y-72149523D02*
X138711086Y-71959047D01*
X138711086Y-71959047D02*
X138711086Y-71816190D01*
X138711086Y-71816190D02*
X138758705Y-71625714D01*
X138758705Y-71625714D02*
X138806324Y-71530476D01*
X138806324Y-71530476D02*
X138901562Y-71435238D01*
X138901562Y-71435238D02*
X139044419Y-71387619D01*
X139044419Y-71387619D02*
X139139657Y-71387619D01*
X139139657Y-71387619D02*
X139282514Y-71435238D01*
X139282514Y-71435238D02*
X139330133Y-71482857D01*
X140282514Y-72387619D02*
X139711086Y-72387619D01*
X139996800Y-72387619D02*
X139996800Y-71387619D01*
X139996800Y-71387619D02*
X139901562Y-71530476D01*
X139901562Y-71530476D02*
X139806324Y-71625714D01*
X139806324Y-71625714D02*
X139711086Y-71673333D01*
X200518733Y-91596380D02*
X200471114Y-91644000D01*
X200471114Y-91644000D02*
X200328257Y-91691619D01*
X200328257Y-91691619D02*
X200233019Y-91691619D01*
X200233019Y-91691619D02*
X200090162Y-91644000D01*
X200090162Y-91644000D02*
X199994924Y-91548761D01*
X199994924Y-91548761D02*
X199947305Y-91453523D01*
X199947305Y-91453523D02*
X199899686Y-91263047D01*
X199899686Y-91263047D02*
X199899686Y-91120190D01*
X199899686Y-91120190D02*
X199947305Y-90929714D01*
X199947305Y-90929714D02*
X199994924Y-90834476D01*
X199994924Y-90834476D02*
X200090162Y-90739238D01*
X200090162Y-90739238D02*
X200233019Y-90691619D01*
X200233019Y-90691619D02*
X200328257Y-90691619D01*
X200328257Y-90691619D02*
X200471114Y-90739238D01*
X200471114Y-90739238D02*
X200518733Y-90786857D01*
X201375876Y-91024952D02*
X201375876Y-91691619D01*
X201137781Y-90644000D02*
X200899686Y-91358285D01*
X200899686Y-91358285D02*
X201518733Y-91358285D01*
X231802953Y-91438180D02*
X231755334Y-91485800D01*
X231755334Y-91485800D02*
X231612477Y-91533419D01*
X231612477Y-91533419D02*
X231517239Y-91533419D01*
X231517239Y-91533419D02*
X231374382Y-91485800D01*
X231374382Y-91485800D02*
X231279144Y-91390561D01*
X231279144Y-91390561D02*
X231231525Y-91295323D01*
X231231525Y-91295323D02*
X231183906Y-91104847D01*
X231183906Y-91104847D02*
X231183906Y-90961990D01*
X231183906Y-90961990D02*
X231231525Y-90771514D01*
X231231525Y-90771514D02*
X231279144Y-90676276D01*
X231279144Y-90676276D02*
X231374382Y-90581038D01*
X231374382Y-90581038D02*
X231517239Y-90533419D01*
X231517239Y-90533419D02*
X231612477Y-90533419D01*
X231612477Y-90533419D02*
X231755334Y-90581038D01*
X231755334Y-90581038D02*
X231802953Y-90628657D01*
X232707715Y-90533419D02*
X232231525Y-90533419D01*
X232231525Y-90533419D02*
X232183906Y-91009609D01*
X232183906Y-91009609D02*
X232231525Y-90961990D01*
X232231525Y-90961990D02*
X232326763Y-90914371D01*
X232326763Y-90914371D02*
X232564858Y-90914371D01*
X232564858Y-90914371D02*
X232660096Y-90961990D01*
X232660096Y-90961990D02*
X232707715Y-91009609D01*
X232707715Y-91009609D02*
X232755334Y-91104847D01*
X232755334Y-91104847D02*
X232755334Y-91342942D01*
X232755334Y-91342942D02*
X232707715Y-91438180D01*
X232707715Y-91438180D02*
X232660096Y-91485800D01*
X232660096Y-91485800D02*
X232564858Y-91533419D01*
X232564858Y-91533419D02*
X232326763Y-91533419D01*
X232326763Y-91533419D02*
X232231525Y-91485800D01*
X232231525Y-91485800D02*
X232183906Y-91438180D01*
X219289333Y-92586980D02*
X219241714Y-92634600D01*
X219241714Y-92634600D02*
X219098857Y-92682219D01*
X219098857Y-92682219D02*
X219003619Y-92682219D01*
X219003619Y-92682219D02*
X218860762Y-92634600D01*
X218860762Y-92634600D02*
X218765524Y-92539361D01*
X218765524Y-92539361D02*
X218717905Y-92444123D01*
X218717905Y-92444123D02*
X218670286Y-92253647D01*
X218670286Y-92253647D02*
X218670286Y-92110790D01*
X218670286Y-92110790D02*
X218717905Y-91920314D01*
X218717905Y-91920314D02*
X218765524Y-91825076D01*
X218765524Y-91825076D02*
X218860762Y-91729838D01*
X218860762Y-91729838D02*
X219003619Y-91682219D01*
X219003619Y-91682219D02*
X219098857Y-91682219D01*
X219098857Y-91682219D02*
X219241714Y-91729838D01*
X219241714Y-91729838D02*
X219289333Y-91777457D01*
X219622667Y-91682219D02*
X220241714Y-91682219D01*
X220241714Y-91682219D02*
X219908381Y-92063171D01*
X219908381Y-92063171D02*
X220051238Y-92063171D01*
X220051238Y-92063171D02*
X220146476Y-92110790D01*
X220146476Y-92110790D02*
X220194095Y-92158409D01*
X220194095Y-92158409D02*
X220241714Y-92253647D01*
X220241714Y-92253647D02*
X220241714Y-92491742D01*
X220241714Y-92491742D02*
X220194095Y-92586980D01*
X220194095Y-92586980D02*
X220146476Y-92634600D01*
X220146476Y-92634600D02*
X220051238Y-92682219D01*
X220051238Y-92682219D02*
X219765524Y-92682219D01*
X219765524Y-92682219D02*
X219670286Y-92634600D01*
X219670286Y-92634600D02*
X219622667Y-92586980D01*
X139101533Y-76661180D02*
X139053914Y-76708800D01*
X139053914Y-76708800D02*
X138911057Y-76756419D01*
X138911057Y-76756419D02*
X138815819Y-76756419D01*
X138815819Y-76756419D02*
X138672962Y-76708800D01*
X138672962Y-76708800D02*
X138577724Y-76613561D01*
X138577724Y-76613561D02*
X138530105Y-76518323D01*
X138530105Y-76518323D02*
X138482486Y-76327847D01*
X138482486Y-76327847D02*
X138482486Y-76184990D01*
X138482486Y-76184990D02*
X138530105Y-75994514D01*
X138530105Y-75994514D02*
X138577724Y-75899276D01*
X138577724Y-75899276D02*
X138672962Y-75804038D01*
X138672962Y-75804038D02*
X138815819Y-75756419D01*
X138815819Y-75756419D02*
X138911057Y-75756419D01*
X138911057Y-75756419D02*
X139053914Y-75804038D01*
X139053914Y-75804038D02*
X139101533Y-75851657D01*
X139482486Y-75851657D02*
X139530105Y-75804038D01*
X139530105Y-75804038D02*
X139625343Y-75756419D01*
X139625343Y-75756419D02*
X139863438Y-75756419D01*
X139863438Y-75756419D02*
X139958676Y-75804038D01*
X139958676Y-75804038D02*
X140006295Y-75851657D01*
X140006295Y-75851657D02*
X140053914Y-75946895D01*
X140053914Y-75946895D02*
X140053914Y-76042133D01*
X140053914Y-76042133D02*
X140006295Y-76184990D01*
X140006295Y-76184990D02*
X139434867Y-76756419D01*
X139434867Y-76756419D02*
X140053914Y-76756419D01*
X120295942Y-72794019D02*
X119962609Y-72317828D01*
X119724514Y-72794019D02*
X119724514Y-71794019D01*
X119724514Y-71794019D02*
X120105466Y-71794019D01*
X120105466Y-71794019D02*
X120200704Y-71841638D01*
X120200704Y-71841638D02*
X120248323Y-71889257D01*
X120248323Y-71889257D02*
X120295942Y-71984495D01*
X120295942Y-71984495D02*
X120295942Y-72127352D01*
X120295942Y-72127352D02*
X120248323Y-72222590D01*
X120248323Y-72222590D02*
X120200704Y-72270209D01*
X120200704Y-72270209D02*
X120105466Y-72317828D01*
X120105466Y-72317828D02*
X119724514Y-72317828D01*
X120676895Y-71889257D02*
X120724514Y-71841638D01*
X120724514Y-71841638D02*
X120819752Y-71794019D01*
X120819752Y-71794019D02*
X121057847Y-71794019D01*
X121057847Y-71794019D02*
X121153085Y-71841638D01*
X121153085Y-71841638D02*
X121200704Y-71889257D01*
X121200704Y-71889257D02*
X121248323Y-71984495D01*
X121248323Y-71984495D02*
X121248323Y-72079733D01*
X121248323Y-72079733D02*
X121200704Y-72222590D01*
X121200704Y-72222590D02*
X120629276Y-72794019D01*
X120629276Y-72794019D02*
X121248323Y-72794019D01*
X121581657Y-71794019D02*
X122200704Y-71794019D01*
X122200704Y-71794019D02*
X121867371Y-72174971D01*
X121867371Y-72174971D02*
X122010228Y-72174971D01*
X122010228Y-72174971D02*
X122105466Y-72222590D01*
X122105466Y-72222590D02*
X122153085Y-72270209D01*
X122153085Y-72270209D02*
X122200704Y-72365447D01*
X122200704Y-72365447D02*
X122200704Y-72603542D01*
X122200704Y-72603542D02*
X122153085Y-72698780D01*
X122153085Y-72698780D02*
X122105466Y-72746400D01*
X122105466Y-72746400D02*
X122010228Y-72794019D01*
X122010228Y-72794019D02*
X121724514Y-72794019D01*
X121724514Y-72794019D02*
X121629276Y-72746400D01*
X121629276Y-72746400D02*
X121581657Y-72698780D01*
X116535921Y-83067780D02*
X116488302Y-83115400D01*
X116488302Y-83115400D02*
X116345445Y-83163019D01*
X116345445Y-83163019D02*
X116250207Y-83163019D01*
X116250207Y-83163019D02*
X116107350Y-83115400D01*
X116107350Y-83115400D02*
X116012112Y-83020161D01*
X116012112Y-83020161D02*
X115964493Y-82924923D01*
X115964493Y-82924923D02*
X115916874Y-82734447D01*
X115916874Y-82734447D02*
X115916874Y-82591590D01*
X115916874Y-82591590D02*
X115964493Y-82401114D01*
X115964493Y-82401114D02*
X116012112Y-82305876D01*
X116012112Y-82305876D02*
X116107350Y-82210638D01*
X116107350Y-82210638D02*
X116250207Y-82163019D01*
X116250207Y-82163019D02*
X116345445Y-82163019D01*
X116345445Y-82163019D02*
X116488302Y-82210638D01*
X116488302Y-82210638D02*
X116535921Y-82258257D01*
X117488302Y-83163019D02*
X116916874Y-83163019D01*
X117202588Y-83163019D02*
X117202588Y-82163019D01*
X117202588Y-82163019D02*
X117107350Y-82305876D01*
X117107350Y-82305876D02*
X117012112Y-82401114D01*
X117012112Y-82401114D02*
X116916874Y-82448733D01*
X117869255Y-82258257D02*
X117916874Y-82210638D01*
X117916874Y-82210638D02*
X118012112Y-82163019D01*
X118012112Y-82163019D02*
X118250207Y-82163019D01*
X118250207Y-82163019D02*
X118345445Y-82210638D01*
X118345445Y-82210638D02*
X118393064Y-82258257D01*
X118393064Y-82258257D02*
X118440683Y-82353495D01*
X118440683Y-82353495D02*
X118440683Y-82448733D01*
X118440683Y-82448733D02*
X118393064Y-82591590D01*
X118393064Y-82591590D02*
X117821636Y-83163019D01*
X117821636Y-83163019D02*
X118440683Y-83163019D01*
X125957219Y-66155866D02*
X125481028Y-66489199D01*
X125957219Y-66727294D02*
X124957219Y-66727294D01*
X124957219Y-66727294D02*
X124957219Y-66346342D01*
X124957219Y-66346342D02*
X125004838Y-66251104D01*
X125004838Y-66251104D02*
X125052457Y-66203485D01*
X125052457Y-66203485D02*
X125147695Y-66155866D01*
X125147695Y-66155866D02*
X125290552Y-66155866D01*
X125290552Y-66155866D02*
X125385790Y-66203485D01*
X125385790Y-66203485D02*
X125433409Y-66251104D01*
X125433409Y-66251104D02*
X125481028Y-66346342D01*
X125481028Y-66346342D02*
X125481028Y-66727294D01*
X124957219Y-65251104D02*
X124957219Y-65727294D01*
X124957219Y-65727294D02*
X125433409Y-65774913D01*
X125433409Y-65774913D02*
X125385790Y-65727294D01*
X125385790Y-65727294D02*
X125338171Y-65632056D01*
X125338171Y-65632056D02*
X125338171Y-65393961D01*
X125338171Y-65393961D02*
X125385790Y-65298723D01*
X125385790Y-65298723D02*
X125433409Y-65251104D01*
X125433409Y-65251104D02*
X125528647Y-65203485D01*
X125528647Y-65203485D02*
X125766742Y-65203485D01*
X125766742Y-65203485D02*
X125861980Y-65251104D01*
X125861980Y-65251104D02*
X125909600Y-65298723D01*
X125909600Y-65298723D02*
X125957219Y-65393961D01*
X125957219Y-65393961D02*
X125957219Y-65632056D01*
X125957219Y-65632056D02*
X125909600Y-65727294D01*
X125909600Y-65727294D02*
X125861980Y-65774913D01*
X174023542Y-90168619D02*
X173690209Y-89692428D01*
X173452114Y-90168619D02*
X173452114Y-89168619D01*
X173452114Y-89168619D02*
X173833066Y-89168619D01*
X173833066Y-89168619D02*
X173928304Y-89216238D01*
X173928304Y-89216238D02*
X173975923Y-89263857D01*
X173975923Y-89263857D02*
X174023542Y-89359095D01*
X174023542Y-89359095D02*
X174023542Y-89501952D01*
X174023542Y-89501952D02*
X173975923Y-89597190D01*
X173975923Y-89597190D02*
X173928304Y-89644809D01*
X173928304Y-89644809D02*
X173833066Y-89692428D01*
X173833066Y-89692428D02*
X173452114Y-89692428D01*
X174404495Y-89263857D02*
X174452114Y-89216238D01*
X174452114Y-89216238D02*
X174547352Y-89168619D01*
X174547352Y-89168619D02*
X174785447Y-89168619D01*
X174785447Y-89168619D02*
X174880685Y-89216238D01*
X174880685Y-89216238D02*
X174928304Y-89263857D01*
X174928304Y-89263857D02*
X174975923Y-89359095D01*
X174975923Y-89359095D02*
X174975923Y-89454333D01*
X174975923Y-89454333D02*
X174928304Y-89597190D01*
X174928304Y-89597190D02*
X174356876Y-90168619D01*
X174356876Y-90168619D02*
X174975923Y-90168619D01*
X175594971Y-89168619D02*
X175690209Y-89168619D01*
X175690209Y-89168619D02*
X175785447Y-89216238D01*
X175785447Y-89216238D02*
X175833066Y-89263857D01*
X175833066Y-89263857D02*
X175880685Y-89359095D01*
X175880685Y-89359095D02*
X175928304Y-89549571D01*
X175928304Y-89549571D02*
X175928304Y-89787666D01*
X175928304Y-89787666D02*
X175880685Y-89978142D01*
X175880685Y-89978142D02*
X175833066Y-90073380D01*
X175833066Y-90073380D02*
X175785447Y-90121000D01*
X175785447Y-90121000D02*
X175690209Y-90168619D01*
X175690209Y-90168619D02*
X175594971Y-90168619D01*
X175594971Y-90168619D02*
X175499733Y-90121000D01*
X175499733Y-90121000D02*
X175452114Y-90073380D01*
X175452114Y-90073380D02*
X175404495Y-89978142D01*
X175404495Y-89978142D02*
X175356876Y-89787666D01*
X175356876Y-89787666D02*
X175356876Y-89549571D01*
X175356876Y-89549571D02*
X175404495Y-89359095D01*
X175404495Y-89359095D02*
X175452114Y-89263857D01*
X175452114Y-89263857D02*
X175499733Y-89216238D01*
X175499733Y-89216238D02*
X175594971Y-89168619D01*
X209753295Y-95644619D02*
X209753295Y-96454142D01*
X209753295Y-96454142D02*
X209800914Y-96549380D01*
X209800914Y-96549380D02*
X209848533Y-96597000D01*
X209848533Y-96597000D02*
X209943771Y-96644619D01*
X209943771Y-96644619D02*
X210134247Y-96644619D01*
X210134247Y-96644619D02*
X210229485Y-96597000D01*
X210229485Y-96597000D02*
X210277104Y-96549380D01*
X210277104Y-96549380D02*
X210324723Y-96454142D01*
X210324723Y-96454142D02*
X210324723Y-95644619D01*
X211229485Y-95644619D02*
X211039009Y-95644619D01*
X211039009Y-95644619D02*
X210943771Y-95692238D01*
X210943771Y-95692238D02*
X210896152Y-95739857D01*
X210896152Y-95739857D02*
X210800914Y-95882714D01*
X210800914Y-95882714D02*
X210753295Y-96073190D01*
X210753295Y-96073190D02*
X210753295Y-96454142D01*
X210753295Y-96454142D02*
X210800914Y-96549380D01*
X210800914Y-96549380D02*
X210848533Y-96597000D01*
X210848533Y-96597000D02*
X210943771Y-96644619D01*
X210943771Y-96644619D02*
X211134247Y-96644619D01*
X211134247Y-96644619D02*
X211229485Y-96597000D01*
X211229485Y-96597000D02*
X211277104Y-96549380D01*
X211277104Y-96549380D02*
X211324723Y-96454142D01*
X211324723Y-96454142D02*
X211324723Y-96216047D01*
X211324723Y-96216047D02*
X211277104Y-96120809D01*
X211277104Y-96120809D02*
X211229485Y-96073190D01*
X211229485Y-96073190D02*
X211134247Y-96025571D01*
X211134247Y-96025571D02*
X210943771Y-96025571D01*
X210943771Y-96025571D02*
X210848533Y-96073190D01*
X210848533Y-96073190D02*
X210800914Y-96120809D01*
X210800914Y-96120809D02*
X210753295Y-96216047D01*
%TO.C,R2*%
D13*
X159005600Y-71061336D02*
X159005600Y-71515464D01*
X160475600Y-71061336D02*
X160475600Y-71515464D01*
%TO.C,J3*%
X137570395Y-62376586D02*
X137570395Y-65136586D01*
X155460395Y-62376586D02*
X137570395Y-62376586D01*
X155460395Y-62376586D02*
X155460395Y-65136586D01*
X155460395Y-65136586D02*
X137570395Y-65136586D01*
X156730395Y-62376586D02*
X158110395Y-62376586D01*
X158110395Y-62376586D02*
X158110395Y-63756586D01*
%TO.C,R4*%
X131418064Y-66194000D02*
X130963936Y-66194000D01*
X131418064Y-67664000D02*
X130963936Y-67664000D01*
%TO.C,U5*%
X208758000Y-90976400D02*
X208758000Y-92236400D01*
X208758000Y-97796400D02*
X208758000Y-96536400D01*
X212518000Y-90976400D02*
X208758000Y-90976400D01*
X212518000Y-97796400D02*
X208758000Y-97796400D01*
X214038000Y-98026400D02*
X213558000Y-98026400D01*
X213798000Y-97696400D01*
X214038000Y-98026400D01*
G36*
X214038000Y-98026400D02*
G01*
X213558000Y-98026400D01*
X213798000Y-97696400D01*
X214038000Y-98026400D01*
G37*
%TO.C,U2*%
X143786000Y-70653600D02*
X143786000Y-80933600D01*
X143786000Y-80933600D02*
X149086000Y-80933600D01*
X145436000Y-70653600D02*
X143786000Y-70653600D01*
X149086000Y-70653600D02*
X147436000Y-70653600D01*
X149086000Y-80933600D02*
X149086000Y-70653600D01*
X147436000Y-70653600D02*
G75*
G02*
X145436000Y-70653600I-1000000J0D01*
G01*
%TO.C,C6*%
X139668000Y-69418200D02*
G75*
G02*
X133128000Y-69418200I-3270000J0D01*
G01*
X133128000Y-69418200D02*
G75*
G02*
X139668000Y-69418200I3270000J0D01*
G01*
%TO.C,U1*%
X163239000Y-61726000D02*
X163239000Y-67926000D01*
X163239000Y-61726000D02*
X181639000Y-61726000D01*
X163239000Y-86576000D02*
X163239000Y-87576000D01*
X163239000Y-87576000D02*
X164739000Y-87576000D01*
X181639000Y-61726000D02*
X181639000Y-67926000D01*
X181639000Y-87576000D02*
X180139000Y-87576000D01*
X181639000Y-87576000D02*
X181639000Y-86576000D01*
X163239000Y-68601000D02*
X162739000Y-68601000D01*
X163239000Y-68101000D01*
X163239000Y-68601000D01*
G36*
X163239000Y-68601000D02*
G01*
X162739000Y-68601000D01*
X163239000Y-68101000D01*
X163239000Y-68601000D01*
G37*
%TO.C,R22*%
X115432064Y-69724600D02*
X114977936Y-69724600D01*
X115432064Y-71194600D02*
X114977936Y-71194600D01*
%TO.C,U4*%
X80891000Y-67652200D02*
X102955000Y-67652200D01*
X80935100Y-97650582D02*
X80891000Y-67652200D01*
X80935100Y-99150582D02*
X80935100Y-97650582D01*
X102955000Y-67652200D02*
X109251000Y-67652200D01*
X109226750Y-67662091D02*
X109226750Y-99112200D01*
X109251000Y-99150582D02*
X80935100Y-99150582D01*
%TO.C,Y1*%
X133605800Y-75396800D02*
X134975800Y-74726800D01*
X133605800Y-76596800D02*
X134975800Y-77266800D01*
X134975800Y-74726800D02*
X135785800Y-74726800D01*
X134975800Y-77266800D02*
X135785800Y-77266800D01*
X122585800Y-74236800D02*
X133605800Y-74236800D01*
X133605800Y-77756800D01*
X122585800Y-77756800D01*
X122585800Y-74236800D01*
%TO.C,J1*%
X226813600Y-80611200D02*
X228193600Y-80611200D01*
X226813600Y-81991200D02*
X226813600Y-80611200D01*
X226813600Y-83261200D02*
X226813600Y-90991200D01*
X226813600Y-83261200D02*
X229573600Y-83261200D01*
X226813600Y-90991200D02*
X229573600Y-90991200D01*
X229573600Y-83261200D02*
X229573600Y-90991200D01*
%TO.C,J4*%
X79203688Y-103242358D02*
X79203688Y-106002358D01*
X86933688Y-103242358D02*
X79203688Y-103242358D01*
X86933688Y-103242358D02*
X86933688Y-106002358D01*
X86933688Y-106002358D02*
X79203688Y-106002358D01*
X88203688Y-103242358D02*
X89583688Y-103242358D01*
X89583688Y-103242358D02*
X89583688Y-104622358D01*
%TO.C,C1*%
X139060600Y-73995735D02*
X139060600Y-73764065D01*
X139780600Y-73995735D02*
X139780600Y-73764065D01*
%TO.C,C4*%
X199747000Y-95837021D02*
X197566000Y-95837021D01*
X199747000Y-95877021D02*
X197569000Y-95877021D01*
X199747000Y-95917021D02*
X197573000Y-95917021D01*
X199747000Y-95957021D02*
X197577000Y-95957021D01*
X199747000Y-95997021D02*
X197582000Y-95997021D01*
X199747000Y-96037021D02*
X197587000Y-96037021D01*
X199747000Y-96077021D02*
X197592000Y-96077021D01*
X199747000Y-96117021D02*
X197599000Y-96117021D01*
X199747000Y-96157021D02*
X197605000Y-96157021D01*
X199747000Y-96197021D02*
X197613000Y-96197021D01*
X199747000Y-96237021D02*
X197620000Y-96237021D01*
X199747000Y-96277021D02*
X197628000Y-96277021D01*
X199747000Y-96317021D02*
X197637000Y-96317021D01*
X199747000Y-96357021D02*
X197647000Y-96357021D01*
X199747000Y-96397021D02*
X197656000Y-96397021D01*
X199747000Y-96437021D02*
X197667000Y-96437021D01*
X199747000Y-96477021D02*
X197678000Y-96477021D01*
X199747000Y-96517021D02*
X197689000Y-96517021D01*
X199747000Y-96557021D02*
X197701000Y-96557021D01*
X199747000Y-96597021D02*
X197714000Y-96597021D01*
X199747000Y-96637021D02*
X197727000Y-96637021D01*
X199747000Y-96677021D02*
X197740000Y-96677021D01*
X199747000Y-96717021D02*
X197755000Y-96717021D01*
X199747000Y-96757021D02*
X197770000Y-96757021D01*
X199747000Y-96797021D02*
X197785000Y-96797021D01*
X199747000Y-96837021D02*
X197801000Y-96837021D01*
X199747000Y-96877021D02*
X197818000Y-96877021D01*
X199747000Y-96917021D02*
X197835000Y-96917021D01*
X199747000Y-96957021D02*
X197853000Y-96957021D01*
X199747000Y-96997021D02*
X197872000Y-96997021D01*
X199747000Y-97037021D02*
X197891000Y-97037021D01*
X199747000Y-97077021D02*
X197911000Y-97077021D01*
X199747000Y-97117021D02*
X197932000Y-97117021D01*
X199747000Y-97157021D02*
X197953000Y-97157021D01*
X199747000Y-97197021D02*
X197975000Y-97197021D01*
X199747000Y-97237021D02*
X197998000Y-97237021D01*
X199747000Y-97277021D02*
X198022000Y-97277021D01*
X199747000Y-97317021D02*
X198046000Y-97317021D01*
X199747000Y-97357021D02*
X198071000Y-97357021D01*
X199747000Y-97397021D02*
X198097000Y-97397021D01*
X199747000Y-97437021D02*
X198124000Y-97437021D01*
X199747000Y-97477021D02*
X198151000Y-97477021D01*
X199747000Y-97517021D02*
X198180000Y-97517021D01*
X199747000Y-97557021D02*
X198210000Y-97557021D01*
X199747000Y-97597021D02*
X198240000Y-97597021D01*
X199747000Y-97637021D02*
X198271000Y-97637021D01*
X199747000Y-97677021D02*
X198304000Y-97677021D01*
X199747000Y-97717021D02*
X198337000Y-97717021D01*
X199747000Y-97757021D02*
X198372000Y-97757021D01*
X199747000Y-97797021D02*
X198408000Y-97797021D01*
X199747000Y-97837021D02*
X198445000Y-97837021D01*
X199747000Y-97877021D02*
X198483000Y-97877021D01*
X201189000Y-98837021D02*
X200385000Y-98837021D01*
X201420000Y-98797021D02*
X200154000Y-98797021D01*
X201588000Y-98757021D02*
X199986000Y-98757021D01*
X201726000Y-98717021D02*
X199848000Y-98717021D01*
X201845000Y-98677021D02*
X199729000Y-98677021D01*
X201952000Y-98637021D02*
X199622000Y-98637021D01*
X202048000Y-98597021D02*
X199526000Y-98597021D01*
X202137000Y-98557021D02*
X199437000Y-98557021D01*
X202219000Y-98517021D02*
X199355000Y-98517021D01*
X202296000Y-98477021D02*
X199278000Y-98477021D01*
X202368000Y-98437021D02*
X199206000Y-98437021D01*
X202436000Y-98397021D02*
X199138000Y-98397021D01*
X202501000Y-98357021D02*
X199073000Y-98357021D01*
X202562000Y-98317021D02*
X199012000Y-98317021D01*
X202621000Y-98277021D02*
X198953000Y-98277021D01*
X202626000Y-92096780D02*
X202626000Y-92726780D01*
X202677000Y-98237021D02*
X198897000Y-98237021D01*
X202730000Y-98197021D02*
X198844000Y-98197021D01*
X202782000Y-98157021D02*
X198792000Y-98157021D01*
X202831000Y-98117021D02*
X198743000Y-98117021D01*
X202878000Y-98077021D02*
X198696000Y-98077021D01*
X202924000Y-98037021D02*
X198650000Y-98037021D01*
X202941000Y-92411780D02*
X202311000Y-92411780D01*
X202968000Y-97997021D02*
X198606000Y-97997021D01*
X203010000Y-97957021D02*
X198564000Y-97957021D01*
X203051000Y-97917021D02*
X198523000Y-97917021D01*
X203091000Y-97877021D02*
X201827000Y-97877021D01*
X203129000Y-97837021D02*
X201827000Y-97837021D01*
X203166000Y-97797021D02*
X201827000Y-97797021D01*
X203202000Y-97757021D02*
X201827000Y-97757021D01*
X203237000Y-97717021D02*
X201827000Y-97717021D01*
X203270000Y-97677021D02*
X201827000Y-97677021D01*
X203303000Y-97637021D02*
X201827000Y-97637021D01*
X203334000Y-97597021D02*
X201827000Y-97597021D01*
X203364000Y-97557021D02*
X201827000Y-97557021D01*
X203394000Y-97517021D02*
X201827000Y-97517021D01*
X203423000Y-97477021D02*
X201827000Y-97477021D01*
X203450000Y-97437021D02*
X201827000Y-97437021D01*
X203477000Y-97397021D02*
X201827000Y-97397021D01*
X203503000Y-97357021D02*
X201827000Y-97357021D01*
X203528000Y-97317021D02*
X201827000Y-97317021D01*
X203552000Y-97277021D02*
X201827000Y-97277021D01*
X203576000Y-97237021D02*
X201827000Y-97237021D01*
X203599000Y-97197021D02*
X201827000Y-97197021D01*
X203621000Y-97157021D02*
X201827000Y-97157021D01*
X203642000Y-97117021D02*
X201827000Y-97117021D01*
X203663000Y-97077021D02*
X201827000Y-97077021D01*
X203683000Y-97037021D02*
X201827000Y-97037021D01*
X203702000Y-96997021D02*
X201827000Y-96997021D01*
X203721000Y-96957021D02*
X201827000Y-96957021D01*
X203739000Y-96917021D02*
X201827000Y-96917021D01*
X203756000Y-96877021D02*
X201827000Y-96877021D01*
X203773000Y-96837021D02*
X201827000Y-96837021D01*
X203789000Y-96797021D02*
X201827000Y-96797021D01*
X203804000Y-96757021D02*
X201827000Y-96757021D01*
X203819000Y-96717021D02*
X201827000Y-96717021D01*
X203834000Y-96677021D02*
X201827000Y-96677021D01*
X203847000Y-96637021D02*
X201827000Y-96637021D01*
X203860000Y-96597021D02*
X201827000Y-96597021D01*
X203873000Y-96557021D02*
X201827000Y-96557021D01*
X203885000Y-96517021D02*
X201827000Y-96517021D01*
X203896000Y-96477021D02*
X201827000Y-96477021D01*
X203907000Y-96437021D02*
X201827000Y-96437021D01*
X203918000Y-96397021D02*
X201827000Y-96397021D01*
X203927000Y-96357021D02*
X201827000Y-96357021D01*
X203937000Y-96317021D02*
X201827000Y-96317021D01*
X203946000Y-96277021D02*
X201827000Y-96277021D01*
X203954000Y-96237021D02*
X201827000Y-96237021D01*
X203961000Y-96197021D02*
X201827000Y-96197021D01*
X203969000Y-96157021D02*
X201827000Y-96157021D01*
X203975000Y-96117021D02*
X201827000Y-96117021D01*
X203982000Y-96077021D02*
X201827000Y-96077021D01*
X203987000Y-96037021D02*
X201827000Y-96037021D01*
X203992000Y-95997021D02*
X201827000Y-95997021D01*
X203997000Y-95957021D02*
X201827000Y-95957021D01*
X204001000Y-95917021D02*
X201827000Y-95917021D01*
X204005000Y-95877021D02*
X201827000Y-95877021D01*
X204008000Y-95837021D02*
X201827000Y-95837021D01*
X204011000Y-95797021D02*
X197563000Y-95797021D01*
X204013000Y-95757021D02*
X197561000Y-95757021D01*
X204015000Y-95717021D02*
X197559000Y-95717021D01*
X204016000Y-95677021D02*
X197558000Y-95677021D01*
X204017000Y-95597021D02*
X197557000Y-95597021D01*
X204017000Y-95637021D02*
X197557000Y-95637021D01*
X204057000Y-95597021D02*
G75*
G02*
X197517000Y-95597021I-3270000J0D01*
G01*
X197517000Y-95597021D02*
G75*
G02*
X204057000Y-95597021I3270000J0D01*
G01*
%TO.C,C5*%
X228469379Y-93639600D02*
X229099379Y-93639600D01*
X228784379Y-93324600D02*
X228784379Y-93954600D01*
X231969620Y-92248600D02*
X231969620Y-98708600D01*
X232009620Y-92248600D02*
X232009620Y-98708600D01*
X232049620Y-92249600D02*
X232049620Y-98707600D01*
X232089620Y-92250600D02*
X232089620Y-98706600D01*
X232129620Y-92252600D02*
X232129620Y-98704600D01*
X232169620Y-92254600D02*
X232169620Y-98702600D01*
X232209620Y-92257600D02*
X232209620Y-94438600D01*
X232209620Y-96518600D02*
X232209620Y-98699600D01*
X232249620Y-92260600D02*
X232249620Y-94438600D01*
X232249620Y-96518600D02*
X232249620Y-98696600D01*
X232289620Y-92264600D02*
X232289620Y-94438600D01*
X232289620Y-96518600D02*
X232289620Y-98692600D01*
X232329620Y-92268600D02*
X232329620Y-94438600D01*
X232329620Y-96518600D02*
X232329620Y-98688600D01*
X232369620Y-92273600D02*
X232369620Y-94438600D01*
X232369620Y-96518600D02*
X232369620Y-98683600D01*
X232409620Y-92278600D02*
X232409620Y-94438600D01*
X232409620Y-96518600D02*
X232409620Y-98678600D01*
X232449620Y-92283600D02*
X232449620Y-94438600D01*
X232449620Y-96518600D02*
X232449620Y-98673600D01*
X232489620Y-92290600D02*
X232489620Y-94438600D01*
X232489620Y-96518600D02*
X232489620Y-98666600D01*
X232529620Y-92296600D02*
X232529620Y-94438600D01*
X232529620Y-96518600D02*
X232529620Y-98660600D01*
X232569620Y-92304600D02*
X232569620Y-94438600D01*
X232569620Y-96518600D02*
X232569620Y-98652600D01*
X232609620Y-92311600D02*
X232609620Y-94438600D01*
X232609620Y-96518600D02*
X232609620Y-98645600D01*
X232649620Y-92319600D02*
X232649620Y-94438600D01*
X232649620Y-96518600D02*
X232649620Y-98637600D01*
X232689620Y-92328600D02*
X232689620Y-94438600D01*
X232689620Y-96518600D02*
X232689620Y-98628600D01*
X232729620Y-92338600D02*
X232729620Y-94438600D01*
X232729620Y-96518600D02*
X232729620Y-98618600D01*
X232769620Y-92347600D02*
X232769620Y-94438600D01*
X232769620Y-96518600D02*
X232769620Y-98609600D01*
X232809620Y-92358600D02*
X232809620Y-94438600D01*
X232809620Y-96518600D02*
X232809620Y-98598600D01*
X232849620Y-92369600D02*
X232849620Y-94438600D01*
X232849620Y-96518600D02*
X232849620Y-98587600D01*
X232889620Y-92380600D02*
X232889620Y-94438600D01*
X232889620Y-96518600D02*
X232889620Y-98576600D01*
X232929620Y-92392600D02*
X232929620Y-94438600D01*
X232929620Y-96518600D02*
X232929620Y-98564600D01*
X232969620Y-92405600D02*
X232969620Y-94438600D01*
X232969620Y-96518600D02*
X232969620Y-98551600D01*
X233009620Y-92418600D02*
X233009620Y-94438600D01*
X233009620Y-96518600D02*
X233009620Y-98538600D01*
X233049620Y-92431600D02*
X233049620Y-94438600D01*
X233049620Y-96518600D02*
X233049620Y-98525600D01*
X233089620Y-92446600D02*
X233089620Y-94438600D01*
X233089620Y-96518600D02*
X233089620Y-98510600D01*
X233129620Y-92461600D02*
X233129620Y-94438600D01*
X233129620Y-96518600D02*
X233129620Y-98495600D01*
X233169620Y-92476600D02*
X233169620Y-94438600D01*
X233169620Y-96518600D02*
X233169620Y-98480600D01*
X233209620Y-92492600D02*
X233209620Y-94438600D01*
X233209620Y-96518600D02*
X233209620Y-98464600D01*
X233249620Y-92509600D02*
X233249620Y-94438600D01*
X233249620Y-96518600D02*
X233249620Y-98447600D01*
X233289620Y-92526600D02*
X233289620Y-94438600D01*
X233289620Y-96518600D02*
X233289620Y-98430600D01*
X233329620Y-92544600D02*
X233329620Y-94438600D01*
X233329620Y-96518600D02*
X233329620Y-98412600D01*
X233369620Y-92563600D02*
X233369620Y-94438600D01*
X233369620Y-96518600D02*
X233369620Y-98393600D01*
X233409620Y-92582600D02*
X233409620Y-94438600D01*
X233409620Y-96518600D02*
X233409620Y-98374600D01*
X233449620Y-92602600D02*
X233449620Y-94438600D01*
X233449620Y-96518600D02*
X233449620Y-98354600D01*
X233489620Y-92623600D02*
X233489620Y-94438600D01*
X233489620Y-96518600D02*
X233489620Y-98333600D01*
X233529620Y-92644600D02*
X233529620Y-94438600D01*
X233529620Y-96518600D02*
X233529620Y-98312600D01*
X233569620Y-92666600D02*
X233569620Y-94438600D01*
X233569620Y-96518600D02*
X233569620Y-98290600D01*
X233609620Y-92689600D02*
X233609620Y-94438600D01*
X233609620Y-96518600D02*
X233609620Y-98267600D01*
X233649620Y-92713600D02*
X233649620Y-94438600D01*
X233649620Y-96518600D02*
X233649620Y-98243600D01*
X233689620Y-92737600D02*
X233689620Y-94438600D01*
X233689620Y-96518600D02*
X233689620Y-98219600D01*
X233729620Y-92762600D02*
X233729620Y-94438600D01*
X233729620Y-96518600D02*
X233729620Y-98194600D01*
X233769620Y-92788600D02*
X233769620Y-94438600D01*
X233769620Y-96518600D02*
X233769620Y-98168600D01*
X233809620Y-92815600D02*
X233809620Y-94438600D01*
X233809620Y-96518600D02*
X233809620Y-98141600D01*
X233849620Y-92842600D02*
X233849620Y-94438600D01*
X233849620Y-96518600D02*
X233849620Y-98114600D01*
X233889620Y-92871600D02*
X233889620Y-94438600D01*
X233889620Y-96518600D02*
X233889620Y-98085600D01*
X233929620Y-92901600D02*
X233929620Y-94438600D01*
X233929620Y-96518600D02*
X233929620Y-98055600D01*
X233969620Y-92931600D02*
X233969620Y-94438600D01*
X233969620Y-96518600D02*
X233969620Y-98025600D01*
X234009620Y-92962600D02*
X234009620Y-94438600D01*
X234009620Y-96518600D02*
X234009620Y-97994600D01*
X234049620Y-92995600D02*
X234049620Y-94438600D01*
X234049620Y-96518600D02*
X234049620Y-97961600D01*
X234089620Y-93028600D02*
X234089620Y-94438600D01*
X234089620Y-96518600D02*
X234089620Y-97928600D01*
X234129620Y-93063600D02*
X234129620Y-94438600D01*
X234129620Y-96518600D02*
X234129620Y-97893600D01*
X234169620Y-93099600D02*
X234169620Y-94438600D01*
X234169620Y-96518600D02*
X234169620Y-97857600D01*
X234209620Y-93136600D02*
X234209620Y-94438600D01*
X234209620Y-96518600D02*
X234209620Y-97820600D01*
X234249620Y-93174600D02*
X234249620Y-94438600D01*
X234249620Y-96518600D02*
X234249620Y-97782600D01*
X234289620Y-93214600D02*
X234289620Y-97742600D01*
X234329620Y-93255600D02*
X234329620Y-97701600D01*
X234369620Y-93297600D02*
X234369620Y-97659600D01*
X234409620Y-93341600D02*
X234409620Y-97615600D01*
X234449620Y-93387600D02*
X234449620Y-97569600D01*
X234489620Y-93434600D02*
X234489620Y-97522600D01*
X234529620Y-93483600D02*
X234529620Y-97473600D01*
X234569620Y-93535600D02*
X234569620Y-97421600D01*
X234609620Y-93588600D02*
X234609620Y-97368600D01*
X234649620Y-93644600D02*
X234649620Y-97312600D01*
X234689620Y-93703600D02*
X234689620Y-97253600D01*
X234729620Y-93764600D02*
X234729620Y-97192600D01*
X234769620Y-93829600D02*
X234769620Y-97127600D01*
X234809620Y-93897600D02*
X234809620Y-97059600D01*
X234849620Y-93969600D02*
X234849620Y-96987600D01*
X234889620Y-94046600D02*
X234889620Y-96910600D01*
X234929620Y-94128600D02*
X234929620Y-96828600D01*
X234969620Y-94217600D02*
X234969620Y-96739600D01*
X235009620Y-94313600D02*
X235009620Y-96643600D01*
X235049620Y-94420600D02*
X235049620Y-96536600D01*
X235089620Y-94539600D02*
X235089620Y-96417600D01*
X235129620Y-94677600D02*
X235129620Y-96279600D01*
X235169620Y-94845600D02*
X235169620Y-96111600D01*
X235209620Y-95076600D02*
X235209620Y-95880600D01*
X235239620Y-95478600D02*
G75*
G02*
X228699620Y-95478600I-3270000J0D01*
G01*
X228699620Y-95478600D02*
G75*
G02*
X235239620Y-95478600I3270000J0D01*
G01*
%TO.C,C3*%
X218670200Y-94713248D02*
X218670200Y-95235752D01*
X220140200Y-94713248D02*
X220140200Y-95235752D01*
%TO.C,C2*%
X139009800Y-78124865D02*
X139009800Y-78356535D01*
X139729800Y-78124865D02*
X139729800Y-78356535D01*
%TO.C,R23*%
X120610136Y-69699200D02*
X121064264Y-69699200D01*
X120610136Y-71169200D02*
X121064264Y-71169200D01*
%TO.C,C12*%
X113938779Y-78710200D02*
X113938779Y-77906200D01*
X113978779Y-78941200D02*
X113978779Y-77675200D01*
X114018779Y-79109200D02*
X114018779Y-77507200D01*
X114058779Y-79247200D02*
X114058779Y-77369200D01*
X114098779Y-79366200D02*
X114098779Y-77250200D01*
X114138779Y-79473200D02*
X114138779Y-77143200D01*
X114178779Y-79569200D02*
X114178779Y-77047200D01*
X114218779Y-79658200D02*
X114218779Y-76958200D01*
X114258779Y-79740200D02*
X114258779Y-76876200D01*
X114298779Y-79817200D02*
X114298779Y-76799200D01*
X114338779Y-79889200D02*
X114338779Y-76727200D01*
X114378779Y-79957200D02*
X114378779Y-76659200D01*
X114418779Y-80022200D02*
X114418779Y-76594200D01*
X114458779Y-80083200D02*
X114458779Y-76533200D01*
X114498779Y-80142200D02*
X114498779Y-76474200D01*
X114538779Y-80198200D02*
X114538779Y-76418200D01*
X114578779Y-80251200D02*
X114578779Y-76365200D01*
X114618779Y-80303200D02*
X114618779Y-76313200D01*
X114658779Y-80352200D02*
X114658779Y-76264200D01*
X114698779Y-80399200D02*
X114698779Y-76217200D01*
X114738779Y-80445200D02*
X114738779Y-76171200D01*
X114778779Y-80489200D02*
X114778779Y-76127200D01*
X114818779Y-80531200D02*
X114818779Y-76085200D01*
X114858779Y-80572200D02*
X114858779Y-76044200D01*
X114898779Y-77268200D02*
X114898779Y-76004200D01*
X114898779Y-80612200D02*
X114898779Y-79348200D01*
X114938779Y-77268200D02*
X114938779Y-75966200D01*
X114938779Y-80650200D02*
X114938779Y-79348200D01*
X114978779Y-77268200D02*
X114978779Y-75929200D01*
X114978779Y-80687200D02*
X114978779Y-79348200D01*
X115018779Y-77268200D02*
X115018779Y-75893200D01*
X115018779Y-80723200D02*
X115018779Y-79348200D01*
X115058779Y-77268200D02*
X115058779Y-75858200D01*
X115058779Y-80758200D02*
X115058779Y-79348200D01*
X115098779Y-77268200D02*
X115098779Y-75825200D01*
X115098779Y-80791200D02*
X115098779Y-79348200D01*
X115138779Y-77268200D02*
X115138779Y-75792200D01*
X115138779Y-80824200D02*
X115138779Y-79348200D01*
X115178779Y-77268200D02*
X115178779Y-75761200D01*
X115178779Y-80855200D02*
X115178779Y-79348200D01*
X115218779Y-77268200D02*
X115218779Y-75731200D01*
X115218779Y-80885200D02*
X115218779Y-79348200D01*
X115258779Y-77268200D02*
X115258779Y-75701200D01*
X115258779Y-80915200D02*
X115258779Y-79348200D01*
X115298779Y-77268200D02*
X115298779Y-75672200D01*
X115298779Y-80944200D02*
X115298779Y-79348200D01*
X115338779Y-77268200D02*
X115338779Y-75645200D01*
X115338779Y-80971200D02*
X115338779Y-79348200D01*
X115378779Y-77268200D02*
X115378779Y-75618200D01*
X115378779Y-80998200D02*
X115378779Y-79348200D01*
X115418779Y-77268200D02*
X115418779Y-75592200D01*
X115418779Y-81024200D02*
X115418779Y-79348200D01*
X115458779Y-77268200D02*
X115458779Y-75567200D01*
X115458779Y-81049200D02*
X115458779Y-79348200D01*
X115498779Y-77268200D02*
X115498779Y-75543200D01*
X115498779Y-81073200D02*
X115498779Y-79348200D01*
X115538779Y-77268200D02*
X115538779Y-75519200D01*
X115538779Y-81097200D02*
X115538779Y-79348200D01*
X115578779Y-77268200D02*
X115578779Y-75496200D01*
X115578779Y-81120200D02*
X115578779Y-79348200D01*
X115618779Y-77268200D02*
X115618779Y-75474200D01*
X115618779Y-81142200D02*
X115618779Y-79348200D01*
X115658779Y-77268200D02*
X115658779Y-75453200D01*
X115658779Y-81163200D02*
X115658779Y-79348200D01*
X115698779Y-77268200D02*
X115698779Y-75432200D01*
X115698779Y-81184200D02*
X115698779Y-79348200D01*
X115738779Y-77268200D02*
X115738779Y-75412200D01*
X115738779Y-81204200D02*
X115738779Y-79348200D01*
X115778779Y-77268200D02*
X115778779Y-75393200D01*
X115778779Y-81223200D02*
X115778779Y-79348200D01*
X115818779Y-77268200D02*
X115818779Y-75374200D01*
X115818779Y-81242200D02*
X115818779Y-79348200D01*
X115858779Y-77268200D02*
X115858779Y-75356200D01*
X115858779Y-81260200D02*
X115858779Y-79348200D01*
X115898779Y-77268200D02*
X115898779Y-75339200D01*
X115898779Y-81277200D02*
X115898779Y-79348200D01*
X115938779Y-77268200D02*
X115938779Y-75322200D01*
X115938779Y-81294200D02*
X115938779Y-79348200D01*
X115978779Y-77268200D02*
X115978779Y-75306200D01*
X115978779Y-81310200D02*
X115978779Y-79348200D01*
X116018779Y-77268200D02*
X116018779Y-75291200D01*
X116018779Y-81325200D02*
X116018779Y-79348200D01*
X116058779Y-77268200D02*
X116058779Y-75276200D01*
X116058779Y-81340200D02*
X116058779Y-79348200D01*
X116098779Y-77268200D02*
X116098779Y-75261200D01*
X116098779Y-81355200D02*
X116098779Y-79348200D01*
X116138779Y-77268200D02*
X116138779Y-75248200D01*
X116138779Y-81368200D02*
X116138779Y-79348200D01*
X116178779Y-77268200D02*
X116178779Y-75235200D01*
X116178779Y-81381200D02*
X116178779Y-79348200D01*
X116218779Y-77268200D02*
X116218779Y-75222200D01*
X116218779Y-81394200D02*
X116218779Y-79348200D01*
X116258779Y-77268200D02*
X116258779Y-75210200D01*
X116258779Y-81406200D02*
X116258779Y-79348200D01*
X116298779Y-77268200D02*
X116298779Y-75199200D01*
X116298779Y-81417200D02*
X116298779Y-79348200D01*
X116338779Y-77268200D02*
X116338779Y-75188200D01*
X116338779Y-81428200D02*
X116338779Y-79348200D01*
X116378779Y-77268200D02*
X116378779Y-75177200D01*
X116378779Y-81439200D02*
X116378779Y-79348200D01*
X116418779Y-77268200D02*
X116418779Y-75168200D01*
X116418779Y-81448200D02*
X116418779Y-79348200D01*
X116458779Y-77268200D02*
X116458779Y-75158200D01*
X116458779Y-81458200D02*
X116458779Y-79348200D01*
X116498779Y-77268200D02*
X116498779Y-75149200D01*
X116498779Y-81467200D02*
X116498779Y-79348200D01*
X116538779Y-77268200D02*
X116538779Y-75141200D01*
X116538779Y-81475200D02*
X116538779Y-79348200D01*
X116578779Y-77268200D02*
X116578779Y-75134200D01*
X116578779Y-81482200D02*
X116578779Y-79348200D01*
X116618779Y-77268200D02*
X116618779Y-75126200D01*
X116618779Y-81490200D02*
X116618779Y-79348200D01*
X116658779Y-77268200D02*
X116658779Y-75120200D01*
X116658779Y-81496200D02*
X116658779Y-79348200D01*
X116698779Y-77268200D02*
X116698779Y-75113200D01*
X116698779Y-81503200D02*
X116698779Y-79348200D01*
X116738779Y-77268200D02*
X116738779Y-75108200D01*
X116738779Y-81508200D02*
X116738779Y-79348200D01*
X116778779Y-77268200D02*
X116778779Y-75103200D01*
X116778779Y-81513200D02*
X116778779Y-79348200D01*
X116818779Y-77268200D02*
X116818779Y-75098200D01*
X116818779Y-81518200D02*
X116818779Y-79348200D01*
X116858779Y-77268200D02*
X116858779Y-75094200D01*
X116858779Y-81522200D02*
X116858779Y-79348200D01*
X116898779Y-77268200D02*
X116898779Y-75090200D01*
X116898779Y-81526200D02*
X116898779Y-79348200D01*
X116938779Y-77268200D02*
X116938779Y-75087200D01*
X116938779Y-81529200D02*
X116938779Y-79348200D01*
X116978779Y-81532200D02*
X116978779Y-75084200D01*
X117018779Y-81534200D02*
X117018779Y-75082200D01*
X117058779Y-81536200D02*
X117058779Y-75080200D01*
X117098779Y-81537200D02*
X117098779Y-75079200D01*
X117138779Y-81538200D02*
X117138779Y-75078200D01*
X117178779Y-81538200D02*
X117178779Y-75078200D01*
X120364020Y-80462200D02*
X120364020Y-79832200D01*
X120679020Y-80147200D02*
X120049020Y-80147200D01*
X120448779Y-78308200D02*
G75*
G02*
X113908779Y-78308200I-3270000J0D01*
G01*
X113908779Y-78308200D02*
G75*
G02*
X120448779Y-78308200I3270000J0D01*
G01*
%TO.C,R5*%
X126417400Y-66216264D02*
X126417400Y-65762136D01*
X127887400Y-66216264D02*
X127887400Y-65762136D01*
%TO.C,R20*%
X174439336Y-90628800D02*
X174893464Y-90628800D01*
X174439336Y-92098800D02*
X174893464Y-92098800D01*
%TO.C,U6*%
X183371809Y-90053600D02*
X183371809Y-69253600D01*
X183374000Y-69193077D02*
X196035618Y-69193077D01*
X196035618Y-69193077D02*
X226034000Y-69148977D01*
X226024109Y-90029350D02*
X183374000Y-90029350D01*
X226034000Y-83757600D02*
X226034000Y-90053600D01*
X226034000Y-69153600D02*
X226034000Y-83757600D01*
%TD*%
M02*
