%TF.GenerationSoftware,KiCad,Pcbnew,10.0.0*%
%TF.CreationDate,2026-06-06T16:17:09+02:00*%
%TF.ProjectId,nixieclockin12_V2,6e697869-6563-46c6-9f63-6b696e31325f,0.9*%
%TF.SameCoordinates,Original*%
%TF.FileFunction,Copper,L1,Top*%
%TF.FilePolarity,Positive*%
%FSLAX46Y46*%
G04 Gerber Fmt 4.6, Leading zero omitted, Abs format (unit mm)*
G04 Created by KiCad (PCBNEW 10.0.0) date 2026-06-06 16:17:09*
%MOMM*%
%LPD*%
G01*
G04 APERTURE LIST*
G04 Aperture macros list*
%AMRoundRect*
0 Rectangle with rounded corners*
0 $1 Rounding radius*
0 $2 $3 $4 $5 $6 $7 $8 $9 X,Y pos of 4 corners*
0 Add a 4 corners polygon primitive as box body*
4,1,4,$2,$3,$4,$5,$6,$7,$8,$9,$2,$3,0*
0 Add four circle primitives for the rounded corners*
1,1,$1+$1,$2,$3*
1,1,$1+$1,$4,$5*
1,1,$1+$1,$6,$7*
1,1,$1+$1,$8,$9*
0 Add four rect primitives between the rounded corners*
20,1,$1+$1,$2,$3,$4,$5,0*
20,1,$1+$1,$4,$5,$6,$7,0*
20,1,$1+$1,$6,$7,$8,$9,0*
20,1,$1+$1,$8,$9,$2,$3,0*%
G04 Aperture macros list end*
%TA.AperFunction,ComponentPad*%
%ADD10R,2.313000X2.313000*%
%TD*%
%TA.AperFunction,ComponentPad*%
%ADD11C,2.313000*%
%TD*%
%TA.AperFunction,ComponentPad*%
%ADD12R,1.700000X1.700000*%
%TD*%
%TA.AperFunction,ComponentPad*%
%ADD13C,1.700000*%
%TD*%
%TA.AperFunction,ComponentPad*%
%ADD14C,1.600000*%
%TD*%
%TA.AperFunction,ComponentPad*%
%ADD15O,0.980000X1.500000*%
%TD*%
%TA.AperFunction,ComponentPad*%
%ADD16O,1.000000X1.500000*%
%TD*%
%TA.AperFunction,ComponentPad*%
%ADD17R,1.000000X1.500000*%
%TD*%
%TA.AperFunction,SMDPad,CuDef*%
%ADD18RoundRect,0.250000X0.450000X-0.350000X0.450000X0.350000X-0.450000X0.350000X-0.450000X-0.350000X0*%
%TD*%
%TA.AperFunction,SMDPad,CuDef*%
%ADD19RoundRect,0.090000X0.660000X0.360000X-0.660000X0.360000X-0.660000X-0.360000X0.660000X-0.360000X0*%
%TD*%
%TA.AperFunction,SMDPad,CuDef*%
%ADD20RoundRect,0.150000X0.150000X-0.875000X0.150000X0.875000X-0.150000X0.875000X-0.150000X-0.875000X0*%
%TD*%
%TA.AperFunction,ViaPad*%
%ADD21C,1.000000*%
%TD*%
%TA.AperFunction,ViaPad*%
%ADD22C,0.800000*%
%TD*%
%TA.AperFunction,Conductor*%
%ADD23C,0.500000*%
%TD*%
%TA.AperFunction,Conductor*%
%ADD24C,0.300000*%
%TD*%
G04 APERTURE END LIST*
D10*
%TO.P,NX2,1,A_1*%
%TO.N,Net-(NX2-A)*%
X109342753Y-111170600D03*
D11*
%TO.P,NX2,2,"0"_2*%
%TO.N,Net-(NX2-"0")*%
X111092753Y-107670600D03*
%TO.P,NX2,3,"9"_3*%
%TO.N,Net-(NX2-"9")*%
X111092753Y-103170600D03*
%TO.P,NX2,4,"8"_4*%
%TO.N,Net-(NX2-"8")*%
X111092753Y-98670600D03*
%TO.P,NX2,5,"7"_5*%
%TO.N,Net-(NX2-"7")*%
X109342753Y-95170600D03*
%TO.P,NX2,6,"6"_6*%
%TO.N,Net-(NX2-"6")*%
X105342753Y-94170600D03*
%TO.P,NX2,7,"5"_7*%
%TO.N,Net-(NX2-"5")*%
X101342753Y-95170600D03*
%TO.P,NX2,8,"4"_8*%
%TO.N,Net-(NX2-"4")*%
X99592753Y-98670600D03*
%TO.P,NX2,9,"3"_9*%
%TO.N,Net-(NX2-"3")*%
X99592753Y-103170600D03*
%TO.P,NX2,10,"2"_10*%
%TO.N,Net-(NX2-"2")*%
X99592753Y-107670600D03*
%TO.P,NX2,11,"1"_11*%
%TO.N,Net-(NX2-"1")*%
X101342753Y-111170600D03*
%TO.P,NX2,12,"."_12*%
%TO.N,unconnected-(NX2-"."-Pad12)*%
X105342753Y-112170600D03*
%TD*%
D12*
%TO.P,J1,1,Pin_1_1*%
%TO.N,VCC*%
X154286339Y-82943070D03*
D13*
%TO.P,J1,2,Pin_2_2*%
X151746339Y-82943070D03*
%TO.P,J1,3,Pin_3_3*%
%TO.N,Net-(J1-Pin_3)*%
X149206339Y-82943070D03*
%TO.P,J1,4,Pin_4_4*%
%TO.N,Net-(J1-Pin_4)*%
X146666339Y-82943070D03*
%TO.P,J1,5,Pin_5_5*%
%TO.N,unconnected-(J1-Pin_5-Pad5)*%
X144126339Y-82943070D03*
%TO.P,J1,6,Pin_6_6*%
%TO.N,Net-(D1-DIN)*%
X141586339Y-82943070D03*
%TO.P,J1,7,Pin_7_7*%
%TO.N,GND*%
X139046339Y-82943070D03*
%TO.P,J1,8,Pin_8_8*%
X136506339Y-82943070D03*
%TD*%
D14*
%TO.P,R70,1*%
%TO.N,/HV*%
X218897200Y-121310400D03*
%TO.P,R70,2*%
%TO.N,Net-(NX6-A)*%
X226517200Y-121310400D03*
%TD*%
D15*
%TO.P,D8,1,VDD_1*%
%TO.N,VCC*%
X120659599Y-109248000D03*
D16*
%TO.P,D8,2,DOUT_2*%
%TO.N,Net-(D8-DOUT)*%
X123209599Y-109248000D03*
%TO.P,D8,3,VSS_3*%
%TO.N,GND*%
X121939599Y-109248000D03*
D17*
%TO.P,D8,4,DIN_4*%
%TO.N,Net-(D7-DOUT)*%
X119399599Y-109248000D03*
%TD*%
D18*
%TO.P,R63,1*%
%TO.N,Net-(U3-~{RESET})*%
X188518800Y-86674200D03*
%TO.P,R63,2*%
%TO.N,VCC*%
X188518800Y-84674200D03*
%TD*%
D19*
%TO.P,D4,1,VDD_1*%
%TO.N,VCC*%
X165264000Y-108324042D03*
%TO.P,D4,2,DOUT_2*%
%TO.N,Net-(D4-DOUT)*%
X165264000Y-105024042D03*
%TO.P,D4,3,VSS_3*%
%TO.N,GND*%
X160364000Y-105024042D03*
%TO.P,D4,4,DIN_4*%
%TO.N,Net-(D3-DOUT)*%
X160364000Y-108324042D03*
%TD*%
D20*
%TO.P,U2,1,GPB0_1*%
%TO.N,Net-(U2-GPB0)*%
X114311700Y-91746600D03*
%TO.P,U2,2,GPB1_2*%
%TO.N,Net-(U2-GPB1)*%
X115581700Y-91746600D03*
%TO.P,U2,3,GPB2_3*%
%TO.N,Net-(U2-GPB2)*%
X116851700Y-91746600D03*
%TO.P,U2,4,GPB3_4*%
%TO.N,Net-(U2-GPB3)*%
X118121700Y-91746600D03*
%TO.P,U2,5,GPB4_5*%
%TO.N,Net-(U2-GPB4)*%
X119391700Y-91746600D03*
%TO.P,U2,6,GPB5_6*%
%TO.N,Net-(U2-GPB5)*%
X120661700Y-91746600D03*
%TO.P,U2,7,GPB6_7*%
%TO.N,unconnected-(U2-GPB6-Pad7)*%
X121931700Y-91746600D03*
%TO.P,U2,8,GPB7_8*%
%TO.N,unconnected-(U2-GPB7-Pad8)*%
X123201700Y-91746600D03*
%TO.P,U2,9,V_{DD}_9*%
%TO.N,VCC*%
X124471700Y-91746600D03*
%TO.P,U2,10,V_{SS}_10*%
%TO.N,GND*%
X125741700Y-91746600D03*
%TO.P,U2,11,NC_11*%
%TO.N,unconnected-(U2-NC-Pad11)*%
X127011700Y-91746600D03*
%TO.P,U2,12,SCK_12*%
%TO.N,Net-(J1-Pin_3)*%
X128281700Y-91746600D03*
%TO.P,U2,13,SDA_13*%
%TO.N,Net-(J1-Pin_4)*%
X129551700Y-91746600D03*
%TO.P,U2,14,NC_14*%
%TO.N,unconnected-(U2-NC-Pad14)*%
X130821700Y-91746600D03*
%TO.P,U2,15,A0_15*%
%TO.N,VCC*%
X130821700Y-82446600D03*
%TO.P,U2,16,A1_16*%
%TO.N,GND*%
X129551700Y-82446600D03*
%TO.P,U2,17,A2_17*%
X128281700Y-82446600D03*
%TO.P,U2,18,~{RESET}_18*%
%TO.N,Net-(U2-~{RESET})*%
X127011700Y-82446600D03*
%TO.P,U2,19,INTB_19*%
%TO.N,unconnected-(U2-INTB-Pad19)*%
X125741700Y-82446600D03*
%TO.P,U2,20,INTA_20*%
%TO.N,unconnected-(U2-INTA-Pad20)*%
X124471700Y-82446600D03*
%TO.P,U2,21,GPA0_21*%
%TO.N,Net-(U2-GPA0)*%
X123201700Y-82446600D03*
%TO.P,U2,22,GPA1_22*%
%TO.N,Net-(U2-GPA1)*%
X121931700Y-82446600D03*
%TO.P,U2,23,GPA2_23*%
%TO.N,Net-(U2-GPA2)*%
X120661700Y-82446600D03*
%TO.P,U2,24,GPA3_24*%
%TO.N,Net-(U2-GPA3)*%
X119391700Y-82446600D03*
%TO.P,U2,25,GPA4_25*%
%TO.N,Net-(U2-GPA4)*%
X118121700Y-82446600D03*
%TO.P,U2,26,GPA5_26*%
%TO.N,Net-(U2-GPA5)*%
X116851700Y-82446600D03*
%TO.P,U2,27,GPA6_27*%
%TO.N,Net-(U2-GPA6)*%
X115581700Y-82446600D03*
%TO.P,U2,28,GPA7_28*%
%TO.N,Net-(U2-GPA7)*%
X114311700Y-82446600D03*
%TD*%
D19*
%TO.P,D2,1,VDD_1*%
%TO.N,VCC*%
X107751680Y-108327209D03*
%TO.P,D2,2,DOUT_2*%
%TO.N,Net-(D2-DOUT)*%
X107751680Y-105027209D03*
%TO.P,D2,3,VSS_3*%
%TO.N,GND*%
X102851680Y-105027209D03*
%TO.P,D2,4,DIN_4*%
%TO.N,Net-(D1-DOUT)*%
X102851680Y-108327209D03*
%TD*%
D10*
%TO.P,NX3,1,A_1*%
%TO.N,Net-(NX3-A)*%
X141473073Y-111126906D03*
D11*
%TO.P,NX3,2,"0"_2*%
%TO.N,Net-(NX3-"0")*%
X143223073Y-107626906D03*
%TO.P,NX3,3,"9"_3*%
%TO.N,Net-(NX3-"9")*%
X143223073Y-103126906D03*
%TO.P,NX3,4,"8"_4*%
%TO.N,Net-(NX3-"8")*%
X143223073Y-98626906D03*
%TO.P,NX3,5,"7"_5*%
%TO.N,Net-(NX3-"7")*%
X141473073Y-95126906D03*
%TO.P,NX3,6,"6"_6*%
%TO.N,Net-(NX3-"6")*%
X137473073Y-94126906D03*
%TO.P,NX3,7,"5"_7*%
%TO.N,Net-(NX3-"5")*%
X133473073Y-95126906D03*
%TO.P,NX3,8,"4"_8*%
%TO.N,Net-(NX3-"4")*%
X131723073Y-98626906D03*
%TO.P,NX3,9,"3"_9*%
%TO.N,Net-(NX3-"3")*%
X131723073Y-103126906D03*
%TO.P,NX3,10,"2"_10*%
%TO.N,Net-(NX3-"2")*%
X131723073Y-107626906D03*
%TO.P,NX3,11,"1"_11*%
%TO.N,Net-(NX3-"1")*%
X133473073Y-111126906D03*
%TO.P,NX3,12,"."_12*%
%TO.N,unconnected-(NX3-"."-Pad12)*%
X137473073Y-112126906D03*
%TD*%
D14*
%TO.P,R67,1*%
%TO.N,/HV*%
X149072600Y-121339531D03*
%TO.P,R67,2*%
%TO.N,Net-(NX3-A)*%
X149072600Y-113719531D03*
%TD*%
D12*
%TO.P,J2,1,Pin_1_1*%
%TO.N,/HV*%
X85775800Y-123799600D03*
D13*
%TO.P,J2,2,Pin_2_2*%
X83235800Y-123799600D03*
%TO.P,J2,3,Pin_3_3*%
%TO.N,HVGND*%
X80695800Y-123799600D03*
%TO.P,J2,4,Pin_4_4*%
X78155800Y-123799600D03*
%TD*%
D10*
%TO.P,NX6,1,A_1*%
%TO.N,Net-(NX6-A)*%
X223829861Y-110987010D03*
D11*
%TO.P,NX6,2,"0"_2*%
%TO.N,Net-(NX6-"0")*%
X225579861Y-107487010D03*
%TO.P,NX6,3,"9"_3*%
%TO.N,Net-(NX6-"9")*%
X225579861Y-102987010D03*
%TO.P,NX6,4,"8"_4*%
%TO.N,Net-(NX6-"8")*%
X225579861Y-98487010D03*
%TO.P,NX6,5,"7"_5*%
%TO.N,Net-(NX6-"7")*%
X223829861Y-94987010D03*
%TO.P,NX6,6,"6"_6*%
%TO.N,Net-(NX6-"6")*%
X219829861Y-93987010D03*
%TO.P,NX6,7,"5"_7*%
%TO.N,Net-(NX6-"5")*%
X215829861Y-94987010D03*
%TO.P,NX6,8,"4"_8*%
%TO.N,Net-(NX6-"4")*%
X214079861Y-98487010D03*
%TO.P,NX6,9,"3"_9*%
%TO.N,Net-(NX6-"3")*%
X214079861Y-102987010D03*
%TO.P,NX6,10,"2"_10*%
%TO.N,Net-(NX6-"2")*%
X214079861Y-107487010D03*
%TO.P,NX6,11,"1"_11*%
%TO.N,Net-(NX6-"1")*%
X215829861Y-110987010D03*
%TO.P,NX6,12,"."_12*%
%TO.N,unconnected-(NX6-"."-Pad12)*%
X219829861Y-111987010D03*
%TD*%
D15*
%TO.P,D7,1,VDD_1*%
%TO.N,VCC*%
X120645000Y-98196400D03*
D16*
%TO.P,D7,2,DOUT_2*%
%TO.N,Net-(D7-DOUT)*%
X123195000Y-98196400D03*
%TO.P,D7,3,VSS_3*%
%TO.N,GND*%
X121925000Y-98196400D03*
D17*
%TO.P,D7,4,DIN_4*%
%TO.N,Net-(D6-DOUT)*%
X119385000Y-98196400D03*
%TD*%
D10*
%TO.P,NX1,1,A_1*%
%TO.N,Net-(NX1-A)*%
X84220766Y-111188000D03*
D11*
%TO.P,NX1,2,"0"_2*%
%TO.N,Net-(NX1-"0")*%
X85970766Y-107688000D03*
%TO.P,NX1,3,"9"_3*%
%TO.N,Net-(NX1-"9")*%
X85970766Y-103188000D03*
%TO.P,NX1,4,"8"_4*%
%TO.N,Net-(NX1-"8")*%
X85970766Y-98688000D03*
%TO.P,NX1,5,"7"_5*%
%TO.N,Net-(NX1-"7")*%
X84220766Y-95188000D03*
%TO.P,NX1,6,"6"_6*%
%TO.N,Net-(NX1-"6")*%
X80220766Y-94188000D03*
%TO.P,NX1,7,"5"_7*%
%TO.N,Net-(NX1-"5")*%
X76220766Y-95188000D03*
%TO.P,NX1,8,"4"_8*%
%TO.N,Net-(NX1-"4")*%
X74470766Y-98688000D03*
%TO.P,NX1,9,"3"_9*%
%TO.N,Net-(NX1-"3")*%
X74470766Y-103188000D03*
%TO.P,NX1,10,"2"_10*%
%TO.N,Net-(NX1-"2")*%
X74470766Y-107688000D03*
%TO.P,NX1,11,"1"_11*%
%TO.N,Net-(NX1-"1")*%
X76220766Y-111188000D03*
%TO.P,NX1,12,"."_12*%
%TO.N,unconnected-(NX1-"."-Pad12)*%
X80220766Y-112188000D03*
%TD*%
D14*
%TO.P,R66,1*%
%TO.N,/HV*%
X117360907Y-121063371D03*
%TO.P,R66,2*%
%TO.N,Net-(NX2-A)*%
X117360907Y-113443371D03*
%TD*%
D19*
%TO.P,D3,1,VDD_1*%
%TO.N,VCC*%
X139851560Y-108314394D03*
%TO.P,D3,2,DOUT_2*%
%TO.N,Net-(D3-DOUT)*%
X139851560Y-105014394D03*
%TO.P,D3,3,VSS_3*%
%TO.N,GND*%
X134951560Y-105014394D03*
%TO.P,D3,4,DIN_4*%
%TO.N,Net-(D2-DOUT)*%
X134951560Y-108314394D03*
%TD*%
D10*
%TO.P,NX4,1,A_1*%
%TO.N,Net-(NX4-A)*%
X166890200Y-111149400D03*
D11*
%TO.P,NX4,2,"0"_2*%
%TO.N,Net-(NX4-"0")*%
X168640200Y-107649400D03*
%TO.P,NX4,3,"9"_3*%
%TO.N,Net-(NX4-"9")*%
X168640200Y-103149400D03*
%TO.P,NX4,4,"8"_4*%
%TO.N,Net-(NX4-"8")*%
X168640200Y-98649400D03*
%TO.P,NX4,5,"7"_5*%
%TO.N,Net-(NX4-"7")*%
X166890200Y-95149400D03*
%TO.P,NX4,6,"6"_6*%
%TO.N,Net-(NX4-"6")*%
X162890200Y-94149400D03*
%TO.P,NX4,7,"5"_7*%
%TO.N,Net-(NX4-"5")*%
X158890200Y-95149400D03*
%TO.P,NX4,8,"4"_8*%
%TO.N,Net-(NX4-"4")*%
X157140200Y-98649400D03*
%TO.P,NX4,9,"3"_9*%
%TO.N,Net-(NX4-"3")*%
X157140200Y-103149400D03*
%TO.P,NX4,10,"2"_10*%
%TO.N,Net-(NX4-"2")*%
X157140200Y-107649400D03*
%TO.P,NX4,11,"1"_11*%
%TO.N,Net-(NX4-"1")*%
X158890200Y-111149400D03*
%TO.P,NX4,12,"."_12*%
%TO.N,unconnected-(NX4-"."-Pad12)*%
X162890200Y-112149400D03*
%TD*%
D14*
%TO.P,R69,1*%
%TO.N,/HV*%
X206527400Y-121338822D03*
%TO.P,R69,2*%
%TO.N,Net-(NX5-A)*%
X206527400Y-113718822D03*
%TD*%
D15*
%TO.P,D10,1,VDD_1*%
%TO.N,VCC*%
X178125200Y-108585000D03*
D16*
%TO.P,D10,2,DOUT_2*%
%TO.N,unconnected-(D10-DOUT-Pad2)*%
X180675200Y-108585000D03*
%TO.P,D10,3,VSS_3*%
%TO.N,GND*%
X179405200Y-108585000D03*
D17*
%TO.P,D10,4,DIN_4*%
%TO.N,Net-(D10-DIN)*%
X176865200Y-108585000D03*
%TD*%
D19*
%TO.P,D6,1,VDD_1*%
%TO.N,VCC*%
X222260167Y-108180913D03*
%TO.P,D6,2,DOUT_2*%
%TO.N,Net-(D6-DOUT)*%
X222260167Y-104880913D03*
%TO.P,D6,3,VSS_3*%
%TO.N,GND*%
X217360167Y-104880913D03*
%TO.P,D6,4,DIN_4*%
%TO.N,Net-(D5-DOUT)*%
X217360167Y-108180913D03*
%TD*%
D20*
%TO.P,U1,1,GPB0_1*%
%TO.N,Net-(U1-GPB0)*%
X85457300Y-91746600D03*
%TO.P,U1,2,GPB1_2*%
%TO.N,Net-(U1-GPB1)*%
X86727300Y-91746600D03*
%TO.P,U1,3,GPB2_3*%
%TO.N,Net-(U1-GPB2)*%
X87997300Y-91746600D03*
%TO.P,U1,4,GPB3_4*%
%TO.N,Net-(U1-GPB3)*%
X89267300Y-91746600D03*
%TO.P,U1,5,GPB4_5*%
%TO.N,Net-(U1-GPB4)*%
X90537300Y-91746600D03*
%TO.P,U1,6,GPB5_6*%
%TO.N,Net-(U1-GPB5)*%
X91807300Y-91746600D03*
%TO.P,U1,7,GPB6_7*%
%TO.N,Net-(U1-GPB6)*%
X93077300Y-91746600D03*
%TO.P,U1,8,GPB7_8*%
%TO.N,Net-(U1-GPB7)*%
X94347300Y-91746600D03*
%TO.P,U1,9,V_{DD}_9*%
%TO.N,VCC*%
X95617300Y-91746600D03*
%TO.P,U1,10,V_{SS}_10*%
%TO.N,GND*%
X96887300Y-91746600D03*
%TO.P,U1,11,NC_11*%
%TO.N,unconnected-(U1-NC-Pad11)*%
X98157300Y-91746600D03*
%TO.P,U1,12,SCK_12*%
%TO.N,Net-(J1-Pin_3)*%
X99427300Y-91746600D03*
%TO.P,U1,13,SDA_13*%
%TO.N,Net-(J1-Pin_4)*%
X100697300Y-91746600D03*
%TO.P,U1,14,NC_14*%
%TO.N,unconnected-(U1-NC-Pad14)*%
X101967300Y-91746600D03*
%TO.P,U1,15,A0_15*%
%TO.N,GND*%
X101967300Y-82446600D03*
%TO.P,U1,16,A1_16*%
X100697300Y-82446600D03*
%TO.P,U1,17,A2_17*%
X99427300Y-82446600D03*
%TO.P,U1,18,~{RESET}_18*%
%TO.N,Net-(U1-~{RESET})*%
X98157300Y-82446600D03*
%TO.P,U1,19,INTB_19*%
%TO.N,unconnected-(U1-INTB-Pad19)*%
X96887300Y-82446600D03*
%TO.P,U1,20,INTA_20*%
%TO.N,unconnected-(U1-INTA-Pad20)*%
X95617300Y-82446600D03*
%TO.P,U1,21,GPA0_21*%
%TO.N,Net-(U1-GPA0)*%
X94347300Y-82446600D03*
%TO.P,U1,22,GPA1_22*%
%TO.N,Net-(U1-GPA1)*%
X93077300Y-82446600D03*
%TO.P,U1,23,GPA2_23*%
%TO.N,Net-(U1-GPA2)*%
X91807300Y-82446600D03*
%TO.P,U1,24,GPA3_24*%
%TO.N,Net-(U1-GPA3)*%
X90537300Y-82446600D03*
%TO.P,U1,25,GPA4_25*%
%TO.N,Net-(U1-GPA4)*%
X89267300Y-82446600D03*
%TO.P,U1,26,GPA5_26*%
%TO.N,Net-(U1-GPA5)*%
X87997300Y-82446600D03*
%TO.P,U1,27,GPA6_27*%
%TO.N,Net-(U1-GPA6)*%
X86727300Y-82446600D03*
%TO.P,U1,28,GPA7_28*%
%TO.N,Net-(U1-GPA7)*%
X85457300Y-82446600D03*
%TD*%
D18*
%TO.P,R62,1*%
%TO.N,Net-(U2-~{RESET})*%
X133248400Y-83854800D03*
%TO.P,R62,2*%
%TO.N,VCC*%
X133248400Y-81854800D03*
%TD*%
D20*
%TO.P,U3,1,GPB0_1*%
%TO.N,Net-(U3-GPB0)*%
X169875200Y-91748400D03*
%TO.P,U3,2,GPB1_2*%
%TO.N,Net-(U3-GPB1)*%
X171145200Y-91748400D03*
%TO.P,U3,3,GPB2_3*%
%TO.N,Net-(U3-GPB2)*%
X172415200Y-91748400D03*
%TO.P,U3,4,GPB3_4*%
%TO.N,Net-(U3-GPB3)*%
X173685200Y-91748400D03*
%TO.P,U3,5,GPB4_5*%
%TO.N,Net-(U3-GPB4)*%
X174955200Y-91748400D03*
%TO.P,U3,6,GPB5_6*%
%TO.N,Net-(U3-GPB5)*%
X176225200Y-91748400D03*
%TO.P,U3,7,GPB6_7*%
%TO.N,Net-(U3-GPB6)*%
X177495200Y-91748400D03*
%TO.P,U3,8,GPB7_8*%
%TO.N,Net-(U3-GPB7)*%
X178765200Y-91748400D03*
%TO.P,U3,9,V_{DD}_9*%
%TO.N,VCC*%
X180035200Y-91748400D03*
%TO.P,U3,10,V_{SS}_10*%
%TO.N,GND*%
X181305200Y-91748400D03*
%TO.P,U3,11,NC_11*%
%TO.N,unconnected-(U3-NC-Pad11)*%
X182575200Y-91748400D03*
%TO.P,U3,12,SCK_12*%
%TO.N,Net-(J1-Pin_3)*%
X183845200Y-91748400D03*
%TO.P,U3,13,SDA_13*%
%TO.N,Net-(J1-Pin_4)*%
X185115200Y-91748400D03*
%TO.P,U3,14,NC_14*%
%TO.N,unconnected-(U3-NC-Pad14)*%
X186385200Y-91748400D03*
%TO.P,U3,15,A0_15*%
%TO.N,GND*%
X186385200Y-82448400D03*
%TO.P,U3,16,A1_16*%
%TO.N,VCC*%
X185115200Y-82448400D03*
%TO.P,U3,17,A2_17*%
%TO.N,GND*%
X183845200Y-82448400D03*
%TO.P,U3,18,~{RESET}_18*%
%TO.N,Net-(U3-~{RESET})*%
X182575200Y-82448400D03*
%TO.P,U3,19,INTB_19*%
%TO.N,unconnected-(U3-INTB-Pad19)*%
X181305200Y-82448400D03*
%TO.P,U3,20,INTA_20*%
%TO.N,unconnected-(U3-INTA-Pad20)*%
X180035200Y-82448400D03*
%TO.P,U3,21,GPA0_21*%
%TO.N,Net-(U3-GPA0)*%
X178765200Y-82448400D03*
%TO.P,U3,22,GPA1_22*%
%TO.N,Net-(U3-GPA1)*%
X177495200Y-82448400D03*
%TO.P,U3,23,GPA2_23*%
%TO.N,Net-(U3-GPA2)*%
X176225200Y-82448400D03*
%TO.P,U3,24,GPA3_24*%
%TO.N,Net-(U3-GPA3)*%
X174955200Y-82448400D03*
%TO.P,U3,25,GPA4_25*%
%TO.N,Net-(U3-GPA4)*%
X173685200Y-82448400D03*
%TO.P,U3,26,GPA5_26*%
%TO.N,Net-(U3-GPA5)*%
X172415200Y-82448400D03*
%TO.P,U3,27,GPA6_27*%
%TO.N,Net-(U3-GPA6)*%
X171145200Y-82448400D03*
%TO.P,U3,28,GPA7_28*%
%TO.N,Net-(U3-GPA7)*%
X169875200Y-82448400D03*
%TD*%
D18*
%TO.P,R64,1*%
%TO.N,Net-(U4-~{RESET})*%
X218922600Y-86140800D03*
%TO.P,R64,2*%
%TO.N,VCC*%
X218922600Y-84140800D03*
%TD*%
D20*
%TO.P,U4,1,GPB0_1*%
%TO.N,Net-(U4-GPB0)*%
X200278755Y-91672200D03*
%TO.P,U4,2,GPB1_2*%
%TO.N,Net-(U4-GPB1)*%
X201548755Y-91672200D03*
%TO.P,U4,3,GPB2_3*%
%TO.N,Net-(U4-GPB2)*%
X202818755Y-91672200D03*
%TO.P,U4,4,GPB3_4*%
%TO.N,Net-(U4-GPB3)*%
X204088755Y-91672200D03*
%TO.P,U4,5,GPB4_5*%
%TO.N,Net-(U4-GPB4)*%
X205358755Y-91672200D03*
%TO.P,U4,6,GPB5_6*%
%TO.N,Net-(U4-GPB5)*%
X206628755Y-91672200D03*
%TO.P,U4,7,GPB6_7*%
%TO.N,unconnected-(U4-GPB6-Pad7)*%
X207898755Y-91672200D03*
%TO.P,U4,8,GPB7_8*%
%TO.N,unconnected-(U4-GPB7-Pad8)*%
X209168755Y-91672200D03*
%TO.P,U4,9,V_{DD}_9*%
%TO.N,VCC*%
X210438755Y-91672200D03*
%TO.P,U4,10,V_{SS}_10*%
%TO.N,GND*%
X211708755Y-91672200D03*
%TO.P,U4,11,NC_11*%
%TO.N,unconnected-(U4-NC-Pad11)*%
X212978755Y-91672200D03*
%TO.P,U4,12,SCK_12*%
%TO.N,Net-(J1-Pin_3)*%
X214248755Y-91672200D03*
%TO.P,U4,13,SDA_13*%
%TO.N,Net-(J1-Pin_4)*%
X215518755Y-91672200D03*
%TO.P,U4,14,NC_14*%
%TO.N,unconnected-(U4-NC-Pad14)*%
X216788755Y-91672200D03*
%TO.P,U4,15,A0_15*%
%TO.N,VCC*%
X216788755Y-82372200D03*
%TO.P,U4,16,A1_16*%
X215518755Y-82372200D03*
%TO.P,U4,17,A2_17*%
%TO.N,GND*%
X214248755Y-82372200D03*
%TO.P,U4,18,~{RESET}_18*%
%TO.N,Net-(U4-~{RESET})*%
X212978755Y-82372200D03*
%TO.P,U4,19,INTB_19*%
%TO.N,unconnected-(U4-INTB-Pad19)*%
X211708755Y-82372200D03*
%TO.P,U4,20,INTA_20*%
%TO.N,unconnected-(U4-INTA-Pad20)*%
X210438755Y-82372200D03*
%TO.P,U4,21,GPA0_21*%
%TO.N,Net-(U4-GPA0)*%
X209168755Y-82372200D03*
%TO.P,U4,22,GPA1_22*%
%TO.N,Net-(U4-GPA1)*%
X207898755Y-82372200D03*
%TO.P,U4,23,GPA2_23*%
%TO.N,Net-(U4-GPA2)*%
X206628755Y-82372200D03*
%TO.P,U4,24,GPA3_24*%
%TO.N,Net-(U4-GPA3)*%
X205358755Y-82372200D03*
%TO.P,U4,25,GPA4_25*%
%TO.N,Net-(U4-GPA4)*%
X204088755Y-82372200D03*
%TO.P,U4,26,GPA5_26*%
%TO.N,Net-(U4-GPA5)*%
X202818755Y-82372200D03*
%TO.P,U4,27,GPA6_27*%
%TO.N,Net-(U4-GPA6)*%
X201548755Y-82372200D03*
%TO.P,U4,28,GPA7_28*%
%TO.N,Net-(U4-GPA7)*%
X200278755Y-82372200D03*
%TD*%
D19*
%TO.P,D1,1,VDD_1*%
%TO.N,VCC*%
X82670766Y-108420637D03*
%TO.P,D1,2,DOUT_2*%
%TO.N,Net-(D1-DOUT)*%
X82670766Y-105120637D03*
%TO.P,D1,3,VSS_3*%
%TO.N,GND*%
X77770766Y-105120637D03*
%TO.P,D1,4,DIN_4*%
%TO.N,Net-(D1-DIN)*%
X77770766Y-108420637D03*
%TD*%
D15*
%TO.P,D9,1,VDD_1*%
%TO.N,VCC*%
X178125200Y-98196400D03*
D16*
%TO.P,D9,2,DOUT_2*%
%TO.N,Net-(D10-DIN)*%
X180675200Y-98196400D03*
%TO.P,D9,3,VSS_3*%
%TO.N,GND*%
X179405200Y-98196400D03*
D17*
%TO.P,D9,4,DIN_4*%
%TO.N,Net-(D8-DOUT)*%
X176865200Y-98196400D03*
%TD*%
D14*
%TO.P,R68,1*%
%TO.N,/HV*%
X174599600Y-121304421D03*
%TO.P,R68,2*%
%TO.N,Net-(NX4-A)*%
X174599600Y-113684421D03*
%TD*%
%TO.P,R65,1*%
%TO.N,/HV*%
X92151200Y-121080411D03*
%TO.P,R65,2*%
%TO.N,Net-(NX1-A)*%
X92151200Y-113460411D03*
%TD*%
D19*
%TO.P,D5,1,VDD_1*%
%TO.N,VCC*%
X197315760Y-108183401D03*
%TO.P,D5,2,DOUT_2*%
%TO.N,Net-(D5-DOUT)*%
X197315760Y-104883401D03*
%TO.P,D5,3,VSS_3*%
%TO.N,GND*%
X192415760Y-104883401D03*
%TO.P,D5,4,DIN_4*%
%TO.N,Net-(D4-DOUT)*%
X192415760Y-108183401D03*
%TD*%
D10*
%TO.P,NX5,1,A_1*%
%TO.N,Net-(NX5-A)*%
X198834833Y-111019793D03*
D11*
%TO.P,NX5,2,"0"_2*%
%TO.N,Net-(NX5-"0")*%
X200584833Y-107519793D03*
%TO.P,NX5,3,"9"_3*%
%TO.N,Net-(NX5-"9")*%
X200584833Y-103019793D03*
%TO.P,NX5,4,"8"_4*%
%TO.N,Net-(NX5-"8")*%
X200584833Y-98519793D03*
%TO.P,NX5,5,"7"_5*%
%TO.N,Net-(NX5-"7")*%
X198834833Y-95019793D03*
%TO.P,NX5,6,"6"_6*%
%TO.N,Net-(NX5-"6")*%
X194834833Y-94019793D03*
%TO.P,NX5,7,"5"_7*%
%TO.N,Net-(NX5-"5")*%
X190834833Y-95019793D03*
%TO.P,NX5,8,"4"_8*%
%TO.N,Net-(NX5-"4")*%
X189084833Y-98519793D03*
%TO.P,NX5,9,"3"_9*%
%TO.N,Net-(NX5-"3")*%
X189084833Y-103019793D03*
%TO.P,NX5,10,"2"_10*%
%TO.N,Net-(NX5-"2")*%
X189084833Y-107519793D03*
%TO.P,NX5,11,"1"_11*%
%TO.N,Net-(NX5-"1")*%
X190834833Y-111019793D03*
%TO.P,NX5,12,"."_12*%
%TO.N,unconnected-(NX5-"."-Pad12)*%
X194834833Y-112019793D03*
%TD*%
D21*
%TO.N,VCC*%
X218795600Y-81508600D03*
X130810000Y-84099400D03*
X119532400Y-105435400D03*
X220573600Y-85598000D03*
X95859600Y-84658200D03*
X188772800Y-82651600D03*
X179298600Y-93802200D03*
X130657600Y-88544400D03*
X122072400Y-93599000D03*
X163296600Y-108610400D03*
D22*
%TO.N,Net-(J1-Pin_3)*%
X149199600Y-86664800D03*
X213029800Y-89839800D03*
X191566800Y-86741000D03*
X193680400Y-85775800D03*
X129184400Y-86348000D03*
X128524000Y-89555800D03*
X103682800Y-85725000D03*
X183276896Y-89916000D03*
%TO.N,Net-(J1-Pin_4)*%
X213588600Y-88874600D03*
X106908600Y-81610200D03*
X167462200Y-83681000D03*
X129540000Y-89585800D03*
X184404000Y-89255600D03*
X194513200Y-84531200D03*
X180467000Y-89179400D03*
X190982600Y-87909400D03*
%TO.N,Net-(D1-DIN)*%
X78460600Y-93116400D03*
D21*
%TO.N,GND*%
X126669800Y-86280000D03*
X214249000Y-87884000D03*
X102997000Y-83400000D03*
X129438400Y-84074000D03*
X196037200Y-83388200D03*
X217322400Y-103301800D03*
X160451800Y-106324400D03*
X181381400Y-90144600D03*
X82118200Y-97993200D03*
X170637200Y-117271800D03*
X214223600Y-84239800D03*
X102920800Y-106324400D03*
X184226200Y-84353400D03*
X160274000Y-85686000D03*
X136499600Y-105029000D03*
X220903800Y-89839800D03*
X125958600Y-89814400D03*
X78232000Y-106426000D03*
X99796600Y-87299800D03*
X187147200Y-83642200D03*
D22*
%TO.N,Net-(D8-DOUT)*%
X181291497Y-100876148D03*
X177444400Y-118745000D03*
X133172200Y-118618000D03*
%TO.N,Net-(D7-DOUT)*%
X119507000Y-106984800D03*
%TO.N,Net-(U2-GPB0)*%
X125730000Y-96697800D03*
%TO.N,Net-(U2-GPB1)*%
X125120400Y-95707200D03*
%TO.N,Net-(U2-GPB2)*%
X147946965Y-88081565D03*
%TO.N,Net-(U2-GPB3)*%
X148615400Y-92329000D03*
%TO.N,Net-(U2-GPB4)*%
X147193000Y-100304600D03*
%TO.N,Net-(U2-GPB5)*%
X146532600Y-108458000D03*
%TO.N,Net-(U2-GPA0)*%
X123201700Y-87477600D03*
%TO.N,Net-(U2-GPA1)*%
X121945400Y-88468200D03*
%TO.N,Net-(U2-GPA2)*%
X115112800Y-97688400D03*
%TO.N,Net-(U2-GPA3)*%
X113817400Y-107543600D03*
%TO.N,Net-(U2-GPA4)*%
X118135400Y-86537800D03*
%TO.N,Net-(U2-GPA5)*%
X116814600Y-86563200D03*
%TO.N,Net-(U2-GPA6)*%
X125984000Y-107035600D03*
%TO.N,Net-(U2-GPA7)*%
X112826800Y-85445600D03*
%TO.N,Net-(D2-DOUT)*%
X106045000Y-106553000D03*
X135483600Y-109601000D03*
D21*
%TO.N,HVGND*%
X121539000Y-104165400D03*
X124739400Y-104140000D03*
D22*
%TO.N,Net-(D6-DOUT)*%
X119385000Y-101816600D03*
X121640600Y-116586000D03*
%TO.N,Net-(D10-DIN)*%
X180340000Y-106146600D03*
%TO.N,Net-(U1-GPB0)*%
X88468200Y-100558600D03*
%TO.N,Net-(U1-GPB1)*%
X88925400Y-108483400D03*
%TO.N,Net-(U1-GPB2)*%
X99085400Y-115646200D03*
%TO.N,Net-(U1-GPB3)*%
X93345000Y-115443000D03*
%TO.N,Net-(U1-GPB4)*%
X93497400Y-107873800D03*
%TO.N,Net-(U1-GPB5)*%
X93853000Y-102438200D03*
%TO.N,Net-(U1-GPB6)*%
X93726000Y-96697800D03*
%TO.N,Net-(U1-GPB7)*%
X94386400Y-89458800D03*
%TO.N,Net-(U1-~{RESET})*%
X98120200Y-85140800D03*
%TO.N,Net-(U1-GPA0)*%
X75057000Y-117475000D03*
%TO.N,Net-(U1-GPA1)*%
X69494400Y-117017800D03*
%TO.N,Net-(U1-GPA2)*%
X68249800Y-107924600D03*
%TO.N,Net-(U1-GPA3)*%
X68122800Y-102438200D03*
%TO.N,Net-(U1-GPA4)*%
X68554600Y-96748600D03*
%TO.N,Net-(U1-GPA5)*%
X70075600Y-89611200D03*
%TO.N,Net-(U1-GPA6)*%
X86741000Y-85166200D03*
%TO.N,Net-(U1-GPA7)*%
X85445600Y-84201000D03*
%TO.N,Net-(U3-GPB0)*%
X170916600Y-100888800D03*
%TO.N,Net-(U3-GPB1)*%
X171475400Y-108635800D03*
%TO.N,Net-(U3-GPB2)*%
X184810400Y-117424200D03*
%TO.N,Net-(U3-GPB3)*%
X182626000Y-115392200D03*
%TO.N,Net-(U3-GPB4)*%
X182613764Y-106898588D03*
%TO.N,Net-(U3-GPB5)*%
X181787800Y-102285800D03*
%TO.N,Net-(U3-GPB6)*%
X179679600Y-95326200D03*
%TO.N,Net-(U3-GPB7)*%
X186486800Y-88735600D03*
%TO.N,Net-(U3-GPA0)*%
X153328698Y-117750653D03*
%TO.N,Net-(U3-GPA1)*%
X152450800Y-117271800D03*
%TO.N,Net-(U3-GPA2)*%
X151155400Y-108229400D03*
%TO.N,Net-(U3-GPA3)*%
X151130000Y-102412800D03*
%TO.N,Net-(U3-GPA4)*%
X151257000Y-95732600D03*
%TO.N,Net-(U3-GPA5)*%
X154355800Y-89687400D03*
%TO.N,Net-(U3-GPA6)*%
X168376600Y-85572600D03*
%TO.N,Net-(U3-GPA7)*%
X169875200Y-85116100D03*
%TO.N,Net-(U4-GPB0)*%
X208229200Y-95885000D03*
%TO.N,Net-(U4-GPB1)*%
X204368400Y-87020400D03*
%TO.N,Net-(U4-GPB2)*%
X203301600Y-87528400D03*
%TO.N,Net-(U4-GPB3)*%
X204546200Y-88087200D03*
%TO.N,Net-(U4-GPB4)*%
X228117400Y-101828600D03*
%TO.N,Net-(U4-GPB5)*%
X217906600Y-95935800D03*
%TO.N,Net-(U4-GPA0)*%
X208889600Y-88468200D03*
%TO.N,Net-(U4-GPA1)*%
X206908400Y-89636600D03*
%TO.N,Net-(U4-GPA2)*%
X206146400Y-100558600D03*
X206298800Y-96875600D03*
X206705200Y-88366600D03*
%TO.N,Net-(U4-GPA3)*%
X207137000Y-107721400D03*
X205409800Y-86690200D03*
X207111600Y-97586800D03*
%TO.N,Net-(U4-GPA4)*%
X200075800Y-86004400D03*
X209804000Y-117043200D03*
X195275200Y-85572600D03*
%TO.N,Net-(U4-GPA5)*%
X207060800Y-116078000D03*
X202539600Y-84226400D03*
X196240400Y-85166200D03*
%TO.N,Net-(U4-GPA6)*%
X207467200Y-108864400D03*
X196951600Y-84277200D03*
X201142600Y-84201000D03*
%TO.N,Net-(U4-GPA7)*%
X207975200Y-102158800D03*
%TD*%
%TO.N,VCC*%
D23*
X187909200Y-100761800D02*
X186994800Y-99847400D01*
X151307800Y-81483200D02*
X151746339Y-81921739D01*
X120669599Y-109248000D02*
X120669599Y-113715800D01*
X222260167Y-108180913D02*
X223088200Y-107352880D01*
X218795600Y-81508600D02*
X217932000Y-82372200D01*
X220573600Y-84759800D02*
X220573600Y-85598000D01*
X82143600Y-108947803D02*
X82670766Y-108420637D01*
X221183200Y-87655400D02*
X223621600Y-87655400D01*
X163582958Y-108324042D02*
X165264000Y-108324042D01*
X151746339Y-81921739D02*
X151746339Y-82943070D01*
X220573600Y-86944200D02*
X219887800Y-87630000D01*
X124471700Y-92771599D02*
X123644299Y-93599000D01*
X127950128Y-88798400D02*
X125631097Y-88798400D01*
X107340400Y-115849400D02*
X107340400Y-108738489D01*
X217932000Y-82372200D02*
X216788755Y-82372200D01*
X185115200Y-83515200D02*
X186274200Y-84674200D01*
X124471700Y-89957797D02*
X124471700Y-91746600D01*
X220573600Y-85598000D02*
X220573600Y-86944200D01*
X218922600Y-81635600D02*
X218922600Y-84140800D01*
X139369800Y-114503200D02*
X139369800Y-108796154D01*
X128204128Y-88544400D02*
X127950128Y-88798400D01*
X218795600Y-81508600D02*
X218922600Y-81635600D01*
X120650000Y-113715800D02*
X116662200Y-117703600D01*
X223088200Y-107352880D02*
X223088200Y-106629200D01*
X220056200Y-84140800D02*
X220624400Y-84709000D01*
X223621600Y-87655400D02*
X231267000Y-95300800D01*
X220573600Y-87045800D02*
X221183200Y-87655400D01*
X186274200Y-84674200D02*
X188518800Y-84674200D01*
D24*
X107416600Y-108662289D02*
X107751680Y-108327209D01*
D23*
X217525600Y-87630000D02*
X216560400Y-86664800D01*
X186994800Y-95402400D02*
X189890400Y-92506800D01*
X104622600Y-118567200D02*
X84251800Y-118567200D01*
X189890400Y-92506800D02*
X189890400Y-85369400D01*
X195580000Y-106476800D02*
X195580000Y-103936800D01*
X231267000Y-95300800D02*
X231267000Y-102971600D01*
D24*
X180009800Y-91773800D02*
X180035200Y-91748400D01*
D23*
X192405000Y-100761800D02*
X187909200Y-100761800D01*
X95617300Y-84900500D02*
X95617300Y-91746600D01*
X109194600Y-117703600D02*
X107340400Y-115849400D01*
X136798599Y-117074401D02*
X139369800Y-114503200D01*
X120669599Y-113715800D02*
X120650000Y-113715800D01*
X130821700Y-82446600D02*
X130821700Y-84087700D01*
X224459800Y-105257600D02*
X228981000Y-105257600D01*
X151746339Y-82943070D02*
X154286339Y-82943070D01*
D24*
X133248400Y-81854800D02*
X131413500Y-81854800D01*
D23*
X107340400Y-115849400D02*
X104622600Y-118567200D01*
D24*
X196804001Y-108183401D02*
X197315760Y-108183401D01*
D23*
X195580000Y-103936800D02*
X192405000Y-100761800D01*
X197315760Y-108183401D02*
X195609159Y-106476800D01*
X139369800Y-108796154D02*
X139851560Y-108314394D01*
X95859600Y-84658200D02*
X95617300Y-84900500D01*
X210438755Y-88214445D02*
X210438755Y-91672200D01*
X220573600Y-86944200D02*
X220573600Y-87045800D01*
X119532400Y-103124000D02*
X119532400Y-105435400D01*
X124028200Y-117074401D02*
X120669599Y-113715800D01*
X163296600Y-108610400D02*
X163582958Y-108324042D01*
X189890400Y-85369400D02*
X189195200Y-84674200D01*
D24*
X188468000Y-84623400D02*
X188518800Y-84674200D01*
D23*
X124028200Y-117074401D02*
X136798599Y-117074401D01*
X220624400Y-84709000D02*
X220573600Y-84759800D01*
X189195200Y-84674200D02*
X188518800Y-84674200D01*
X195609159Y-106476800D02*
X195580000Y-106476800D01*
X123644299Y-93599000D02*
X122072400Y-93599000D01*
X120655000Y-102001400D02*
X119532400Y-103124000D01*
X185115200Y-82448400D02*
X185115200Y-83515200D01*
X216788755Y-82372200D02*
X215518755Y-82372200D01*
X188518800Y-82905600D02*
X188518800Y-84674200D01*
X130657600Y-88544400D02*
X128204128Y-88544400D01*
D24*
X218922600Y-84140800D02*
X218557355Y-84140800D01*
D23*
X133620000Y-81483200D02*
X151307800Y-81483200D01*
X84251800Y-118567200D02*
X82143600Y-116459000D01*
X107340400Y-108738489D02*
X107751680Y-108327209D01*
X120655000Y-98196400D02*
X120655000Y-102001400D01*
X216560400Y-86664800D02*
X211988400Y-86664800D01*
X125631097Y-88798400D02*
X124471700Y-89957797D01*
X178135200Y-99293600D02*
X178135200Y-98196400D01*
X116662200Y-117703600D02*
X109194600Y-117703600D01*
X180035200Y-93065600D02*
X179298600Y-93802200D01*
X124471700Y-91746600D02*
X124471700Y-92771599D01*
X188772800Y-82651600D02*
X188518800Y-82905600D01*
X228981000Y-105257600D02*
X231267000Y-102971600D01*
X180035200Y-91748400D02*
X180035200Y-93065600D01*
X186994800Y-99847400D02*
X178689000Y-99847400D01*
X218922600Y-84140800D02*
X220056200Y-84140800D01*
X178689000Y-99847400D02*
X178135200Y-99293600D01*
D24*
X131413500Y-81854800D02*
X130821700Y-82446600D01*
X130810000Y-82458300D02*
X130821700Y-82446600D01*
D23*
X130821700Y-84087700D02*
X130810000Y-84099400D01*
X211988400Y-86664800D02*
X210438755Y-88214445D01*
X223088200Y-106629200D02*
X224459800Y-105257600D01*
X133248400Y-81854800D02*
X133620000Y-81483200D01*
D24*
X180136800Y-91646800D02*
X180035200Y-91748400D01*
D23*
X219887800Y-87630000D02*
X217525600Y-87630000D01*
X82143600Y-116459000D02*
X82143600Y-108947803D01*
X186994800Y-99847400D02*
X186994800Y-95402400D01*
%TO.N,Net-(J1-Pin_3)*%
D24*
X99618800Y-89789000D02*
X103682800Y-85725000D01*
X99427300Y-89789000D02*
X99618800Y-89789000D01*
X183845200Y-91748400D02*
X183845200Y-90484304D01*
X214248755Y-91672200D02*
X214248755Y-91058755D01*
X128281700Y-89798100D02*
X128524000Y-89555800D01*
X183845200Y-90484304D02*
X183276896Y-89916000D01*
X193680400Y-85775800D02*
X192715200Y-86741000D01*
X99427300Y-89789000D02*
X99427300Y-91746600D01*
X135305800Y-86664800D02*
X134989000Y-86348000D01*
X128281700Y-91746600D02*
X128281700Y-89798100D01*
X214248755Y-91058755D02*
X213029800Y-89839800D01*
X183921400Y-91672200D02*
X183845200Y-91748400D01*
X149199600Y-86664800D02*
X149199600Y-86487000D01*
X149199600Y-86487000D02*
X149206339Y-86480261D01*
X149199600Y-86664800D02*
X135305800Y-86664800D01*
X128281700Y-89978500D02*
X128281700Y-91746600D01*
X192715200Y-86741000D02*
X191566800Y-86741000D01*
X134989000Y-86348000D02*
X129184400Y-86348000D01*
%TO.N,Net-(J1-Pin_4)*%
X194513200Y-84531200D02*
X191160400Y-84531200D01*
X106908600Y-84009500D02*
X106908600Y-81610200D01*
X167462200Y-83681000D02*
X167462200Y-83769200D01*
X190652400Y-85039200D02*
X190652400Y-87579200D01*
X100697300Y-90220800D02*
X100697300Y-91746600D01*
X166307200Y-84836000D02*
X147472400Y-84836000D01*
X129551700Y-91746600D02*
X129551700Y-89597500D01*
X215518755Y-91672200D02*
X215518755Y-90804755D01*
X167462200Y-83681000D02*
X166307200Y-84836000D01*
X129551700Y-89597500D02*
X129540000Y-89585800D01*
X185115200Y-89966800D02*
X184404000Y-89255600D01*
X146634200Y-82975209D02*
X146666339Y-82943070D01*
X129616200Y-91682100D02*
X129551700Y-91746600D01*
X146634200Y-83997800D02*
X146634200Y-82975209D01*
X191160400Y-84531200D02*
X190652400Y-85039200D01*
X215518755Y-90804755D02*
X213588600Y-88874600D01*
X190652400Y-87579200D02*
X190982600Y-87909400D01*
X180670200Y-88976200D02*
X180467000Y-89179400D01*
X185115200Y-91748400D02*
X185115200Y-89966800D01*
X100697300Y-90220800D02*
X106908600Y-84009500D01*
X184124600Y-88976200D02*
X180670200Y-88976200D01*
X147472400Y-84836000D02*
X146634200Y-83997800D01*
X184404000Y-89255600D02*
X184124600Y-88976200D01*
%TO.N,Net-(D1-DIN)*%
X77770766Y-108420637D02*
X77770766Y-107996766D01*
X76530200Y-106756200D02*
X76530200Y-100050600D01*
X78105000Y-98475800D02*
X78105000Y-93548200D01*
X76530200Y-100050600D02*
X78105000Y-98475800D01*
X77770766Y-107996766D02*
X76530200Y-106756200D01*
X78105000Y-93548200D02*
X78460600Y-93192600D01*
X78460600Y-93192600D02*
X78460600Y-93116400D01*
%TO.N,GND*%
D23*
X129551700Y-83960700D02*
X129438400Y-84074000D01*
X100697300Y-82446600D02*
X99427300Y-82446600D01*
D24*
X214147400Y-87985600D02*
X214249000Y-87884000D01*
D23*
X217322400Y-104843146D02*
X217360167Y-104880913D01*
X179095400Y-117525800D02*
X170891200Y-117525800D01*
X170891200Y-117525800D02*
X170637200Y-117271800D01*
X125741700Y-90539300D02*
X125958600Y-90322400D01*
X121925000Y-97327800D02*
X122453400Y-96799400D01*
X77770766Y-105964766D02*
X77770766Y-105120637D01*
X121925000Y-98196400D02*
X121925000Y-97327800D01*
X214884000Y-118821200D02*
X199948800Y-118821200D01*
X217322400Y-103301800D02*
X217322400Y-104843146D01*
X99796600Y-86285800D02*
X99427300Y-85916500D01*
X218160600Y-89839800D02*
X220903800Y-89839800D01*
X102920800Y-106324400D02*
X102920800Y-105096329D01*
X217881200Y-110337600D02*
X217881200Y-115824000D01*
X186385200Y-82448400D02*
X186385200Y-81661000D01*
X101967300Y-82446600D02*
X100697300Y-82446600D01*
X134632154Y-105333800D02*
X134951560Y-105014394D01*
X199948800Y-118821200D02*
X196799200Y-115671600D01*
X219100400Y-109118400D02*
X217881200Y-110337600D01*
X126212600Y-99263200D02*
X126212600Y-104292400D01*
X181305200Y-90220800D02*
X181381400Y-90144600D01*
X196088000Y-83337400D02*
X196037200Y-83388200D01*
X196799200Y-115671600D02*
X196799200Y-109982000D01*
X196189600Y-83337400D02*
X196088000Y-83337400D01*
X196799200Y-109982000D02*
X192415760Y-105598560D01*
X78232000Y-106426000D02*
X77770766Y-105964766D01*
X129438400Y-84074000D02*
X128371600Y-84074000D01*
X139649200Y-85572600D02*
X160160600Y-85572600D01*
X127254000Y-105333800D02*
X127254000Y-110261400D01*
X196799200Y-115697000D02*
X193624200Y-118872000D01*
X211708755Y-88722445D02*
X211708755Y-91672200D01*
X214249000Y-87884000D02*
X212547200Y-87884000D01*
X102997000Y-83400000D02*
X102920700Y-83400000D01*
X99427300Y-82446600D02*
X99427300Y-85916500D01*
X214249000Y-87884000D02*
X216204800Y-87884000D01*
X217656913Y-104880913D02*
X219100400Y-106324400D01*
X219100400Y-106324400D02*
X219100400Y-109118400D01*
D24*
X214223600Y-82397355D02*
X214248755Y-82372200D01*
D23*
X123748800Y-96799400D02*
X126212600Y-99263200D01*
X217360167Y-104880913D02*
X217656913Y-104880913D01*
X96887300Y-104253300D02*
X98145600Y-105511600D01*
D24*
X181330600Y-91723000D02*
X181305200Y-91748400D01*
D23*
X160451800Y-106324400D02*
X160451800Y-105111842D01*
X186740800Y-81305400D02*
X194157600Y-81305400D01*
X181305200Y-91748400D02*
X181305200Y-95224600D01*
X139046339Y-82943070D02*
X139046339Y-84969739D01*
X139046339Y-84969739D02*
X139649200Y-85572600D01*
X136506339Y-82943070D02*
X139046339Y-82943070D01*
X187147200Y-83642200D02*
X186385200Y-82880200D01*
X196799200Y-115671600D02*
X196799200Y-115697000D01*
X186385200Y-82880200D02*
X186385200Y-82448400D01*
X102367289Y-105511600D02*
X102851680Y-105027209D01*
X214248755Y-84214645D02*
X214223600Y-84239800D01*
X180441600Y-118872000D02*
X179095400Y-117525800D01*
X82118200Y-97993200D02*
X77770766Y-102340634D01*
X136499600Y-105029000D02*
X134966166Y-105029000D01*
D24*
X101967300Y-82446600D02*
X102106200Y-82446600D01*
D23*
X186385200Y-81661000D02*
X186740800Y-81305400D01*
D24*
X129551700Y-82446600D02*
X128281700Y-82446600D01*
D23*
X160160600Y-85572600D02*
X160274000Y-85686000D01*
X181305200Y-95224600D02*
X179405200Y-97124600D01*
X183845200Y-83972400D02*
X184226200Y-84353400D01*
X194157600Y-81305400D02*
X196189600Y-83337400D01*
X212547200Y-87884000D02*
X211708755Y-88722445D01*
X126568200Y-110947200D02*
X122504200Y-110947200D01*
X181305200Y-91748400D02*
X181305200Y-90220800D01*
X102920700Y-83400000D02*
X101967300Y-82446600D01*
X134966166Y-105029000D02*
X134951560Y-105014394D01*
X102920800Y-105096329D02*
X102851680Y-105027209D01*
X183845200Y-82448400D02*
X183845200Y-83972400D01*
X96887300Y-91746600D02*
X96887300Y-104253300D01*
D24*
X136550400Y-82956400D02*
X136498800Y-82904800D01*
D23*
X99796600Y-87299800D02*
X99796600Y-86285800D01*
X77770766Y-102340634D02*
X77770766Y-105120637D01*
X126212600Y-104292400D02*
X127254000Y-105333800D01*
X179405200Y-97124600D02*
X179405200Y-98196400D01*
X96887300Y-88456500D02*
X96887300Y-91746600D01*
X216204800Y-87884000D02*
X218160600Y-89839800D01*
X160451800Y-105111842D02*
X160364000Y-105024042D01*
X99427300Y-85916500D02*
X96887300Y-88456500D01*
X125741700Y-90539300D02*
X125741700Y-91746600D01*
X193624200Y-118872000D02*
X180441600Y-118872000D01*
X98145600Y-105511600D02*
X102367289Y-105511600D01*
X217881200Y-115824000D02*
X214884000Y-118821200D01*
X214248755Y-82372200D02*
X214248755Y-84214645D01*
X122453400Y-96799400D02*
X123748800Y-96799400D01*
X121939599Y-110382599D02*
X121939599Y-109248000D01*
X127254000Y-110261400D02*
X126568200Y-110947200D01*
X192415760Y-105598560D02*
X192415760Y-104883401D01*
X125958600Y-90322400D02*
X125958600Y-89814400D01*
X127254000Y-105333800D02*
X134632154Y-105333800D01*
X126669800Y-86280000D02*
X126669800Y-85775800D01*
X122504200Y-110947200D02*
X121939599Y-110382599D01*
X126669800Y-85775800D02*
X128371600Y-84074000D01*
X129551700Y-82446600D02*
X129551700Y-83960700D01*
%TO.N,Net-(D8-DOUT)*%
D24*
X177952400Y-100914200D02*
X176865200Y-99827000D01*
X151028400Y-118618000D02*
X152171400Y-119761000D01*
X181291497Y-100876148D02*
X180530452Y-100876148D01*
X177241200Y-118948200D02*
X177444400Y-118745000D01*
X133172200Y-118618000D02*
X151028400Y-118618000D01*
X171323000Y-119761000D02*
X172135800Y-118948200D01*
X180530452Y-100876148D02*
X180492400Y-100914200D01*
X176865200Y-99827000D02*
X176865200Y-98196400D01*
X180492400Y-100914200D02*
X177952400Y-100914200D01*
X172135800Y-118948200D02*
X177241200Y-118948200D01*
X152171400Y-119761000D02*
X171323000Y-119761000D01*
%TO.N,Net-(D7-DOUT)*%
X120573800Y-105054400D02*
X120929400Y-105410000D01*
X123195000Y-100706000D02*
X120573800Y-103327200D01*
X120573800Y-103327200D02*
X120573800Y-105054400D01*
X120929400Y-105410000D02*
X120929400Y-105994200D01*
X123195000Y-98196400D02*
X123195000Y-100706000D01*
X120929400Y-105994200D02*
X119938800Y-106984800D01*
X119938800Y-106984800D02*
X119507000Y-106984800D01*
%TO.N,Net-(U3-~{RESET})*%
X182575200Y-84963000D02*
X184286400Y-86674200D01*
X182575200Y-82448400D02*
X182575200Y-84963000D01*
X184286400Y-86674200D02*
X188518800Y-86674200D01*
%TO.N,Net-(D4-DOUT)*%
X170586400Y-106197400D02*
X169722800Y-105333800D01*
X170586400Y-113563400D02*
X170586400Y-106197400D01*
X192415760Y-108183401D02*
X191003199Y-108183401D01*
X191003199Y-108183401D02*
X188188600Y-110998000D01*
X165573758Y-105333800D02*
X165264000Y-105024042D01*
X186498800Y-118174200D02*
X181877400Y-118174200D01*
X181877400Y-118174200D02*
X179959000Y-116255800D01*
X173278800Y-116255800D02*
X170586400Y-113563400D01*
X188188600Y-116484400D02*
X186498800Y-118174200D01*
X169722800Y-105333800D02*
X165573758Y-105333800D01*
X179959000Y-116255800D02*
X173278800Y-116255800D01*
X188188600Y-110998000D02*
X188188600Y-116484400D01*
%TO.N,Net-(D3-DOUT)*%
X160364000Y-108324042D02*
X160832800Y-108792842D01*
X145161000Y-111633000D02*
X152603200Y-119075200D01*
X159867600Y-119075200D02*
X152603200Y-119075200D01*
X160832800Y-108792842D02*
X160832800Y-118110000D01*
X145161000Y-105943400D02*
X145161000Y-111633000D01*
X139851560Y-105014394D02*
X140272566Y-105435400D01*
X141071600Y-105410000D02*
X144627600Y-105410000D01*
X160832800Y-118110000D02*
X159867600Y-119075200D01*
X141046200Y-105435400D02*
X141071600Y-105410000D01*
X144627600Y-105410000D02*
X145161000Y-105943400D01*
X140272566Y-105435400D02*
X141046200Y-105435400D01*
%TO.N,Net-(U2-GPB0)*%
X124663200Y-96697800D02*
X125730000Y-96697800D01*
X116433600Y-96062800D02*
X116459000Y-96037400D01*
X114311700Y-93940900D02*
X116433600Y-96062800D01*
X116459000Y-96037400D02*
X124002800Y-96037400D01*
X124002800Y-96037400D02*
X124663200Y-96697800D01*
X114311700Y-91746600D02*
X114311700Y-93940900D01*
%TO.N,Net-(U2-GPB1)*%
X115581700Y-92771599D02*
X118262850Y-95452750D01*
X115581700Y-91746600D02*
X115581700Y-92771599D01*
X118262850Y-95452750D02*
X124078550Y-95452750D01*
X124078550Y-95452750D02*
X124865950Y-95452750D01*
X124865950Y-95452750D02*
X125120400Y-95707200D01*
%TO.N,Net-(U2-GPB2)*%
X127787400Y-87299800D02*
X129641600Y-87299800D01*
X132314000Y-86848000D02*
X133248400Y-87782400D01*
X116851700Y-91746600D02*
X116851700Y-90031300D01*
X129641600Y-87299800D02*
X130093400Y-86848000D01*
X116851700Y-90031300D02*
X117602000Y-89281000D01*
X117602000Y-89281000D02*
X122910600Y-89281000D01*
X127457200Y-87630000D02*
X127787400Y-87299800D01*
X130093400Y-86848000D02*
X132314000Y-86848000D01*
X133248400Y-87782400D02*
X147647800Y-87782400D01*
X147647800Y-87782400D02*
X147946965Y-88081565D01*
X122910600Y-89281000D02*
X124561600Y-87630000D01*
X124561600Y-87630000D02*
X127457200Y-87630000D01*
%TO.N,Net-(U2-GPB3)*%
X148615400Y-92329000D02*
X147980400Y-91694000D01*
X131158050Y-94952750D02*
X119997150Y-94952750D01*
X134416800Y-91694000D02*
X131158050Y-94952750D01*
X118121700Y-93077300D02*
X118121700Y-91746600D01*
X119997150Y-94952750D02*
X118121700Y-93077300D01*
X147980400Y-91694000D02*
X134416800Y-91694000D01*
%TO.N,Net-(U2-GPB4)*%
X132156200Y-87503000D02*
X133985000Y-89331800D01*
X150101300Y-91173300D02*
X150101300Y-97396300D01*
X130276600Y-87503000D02*
X132156200Y-87503000D01*
X129933700Y-87845900D02*
X130276600Y-87503000D01*
X127762000Y-88138000D02*
X128100200Y-87799800D01*
X128100200Y-87799800D02*
X129887600Y-87799800D01*
X123393200Y-89992200D02*
X125247400Y-88138000D01*
X150101300Y-97396300D02*
X147193000Y-100304600D01*
X119913400Y-89992200D02*
X123393200Y-89992200D01*
X119391700Y-91746600D02*
X119391700Y-90513900D01*
X125247400Y-88138000D02*
X127762000Y-88138000D01*
X148259800Y-89331800D02*
X150101300Y-91173300D01*
X119391700Y-90513900D02*
X119913400Y-89992200D01*
X133985000Y-89331800D02*
X148259800Y-89331800D01*
X129887600Y-87799800D02*
X129933700Y-87845900D01*
%TO.N,Net-(U2-GPB5)*%
X146088100Y-108013500D02*
X146088100Y-99860100D01*
X146532600Y-108458000D02*
X146088100Y-108013500D01*
X146088100Y-99860100D02*
X149504400Y-96443800D01*
X148031200Y-90297000D02*
X134442200Y-90297000D01*
X134442200Y-90347800D02*
X130337250Y-94452750D01*
X120661700Y-93890100D02*
X120661700Y-91746600D01*
X149504400Y-91770200D02*
X148031200Y-90297000D01*
X130337250Y-94452750D02*
X121224350Y-94452750D01*
X149504400Y-96443800D02*
X149504400Y-91770200D01*
X134442200Y-90297000D02*
X134442200Y-90347800D01*
X121224350Y-94452750D02*
X120661700Y-93890100D01*
%TO.N,Net-(U2-~{RESET})*%
X125382400Y-87130000D02*
X124917200Y-86664800D01*
X124917200Y-86664800D02*
X124917200Y-84277200D01*
X133248400Y-84124800D02*
X131775200Y-85598000D01*
X124928900Y-84277200D02*
X125151650Y-84054450D01*
X125151650Y-84054450D02*
X126675650Y-84054450D01*
X127011700Y-83718400D02*
X127011700Y-82446600D01*
X128676400Y-85598000D02*
X127144400Y-87130000D01*
X133248400Y-83854800D02*
X133248400Y-84124800D01*
X126675650Y-84054450D02*
X127011700Y-83718400D01*
X124917200Y-84277200D02*
X124928900Y-84277200D01*
X131775200Y-85598000D02*
X128676400Y-85598000D01*
X127144400Y-87130000D02*
X125382400Y-87130000D01*
%TO.N,Net-(U2-GPA0)*%
X123201700Y-87477600D02*
X123201700Y-82446600D01*
%TO.N,Net-(U2-GPA1)*%
X121945400Y-88468200D02*
X121945400Y-88239600D01*
X121945400Y-88239600D02*
X121931700Y-88225900D01*
X121931700Y-88225900D02*
X121931700Y-82446600D01*
%TO.N,Net-(U2-GPA2)*%
X120661700Y-86856300D02*
X120661700Y-82446600D01*
X112776000Y-89306400D02*
X113677700Y-88404700D01*
X113677700Y-88404700D02*
X119113300Y-88404700D01*
X119113300Y-88404700D02*
X120661700Y-86856300D01*
X115112800Y-96164400D02*
X112776000Y-93827600D01*
X112776000Y-93827600D02*
X112776000Y-89306400D01*
X115112800Y-97688400D02*
X115112800Y-96164400D01*
%TO.N,Net-(U2-GPA3)*%
X112014000Y-94411800D02*
X113944400Y-96342200D01*
X119391700Y-86780100D02*
X118618000Y-87553800D01*
X113233200Y-87553800D02*
X112014000Y-88773000D01*
X118618000Y-87553800D02*
X113233200Y-87553800D01*
X113817400Y-107543600D02*
X113944400Y-107416600D01*
X113944400Y-107416600D02*
X113944400Y-106121200D01*
X113944400Y-96342200D02*
X113944400Y-106121200D01*
X112014000Y-94411800D02*
X112014000Y-88773000D01*
X119391700Y-82446600D02*
X119391700Y-86780100D01*
%TO.N,Net-(U2-GPA4)*%
X118135400Y-86537800D02*
X118121700Y-86524100D01*
X118121700Y-86524100D02*
X118121700Y-82446600D01*
%TO.N,Net-(U2-GPA5)*%
X116814600Y-86563200D02*
X116851700Y-86526100D01*
X116851700Y-86526100D02*
X116851700Y-82446600D01*
%TO.N,Net-(U2-GPA6)*%
X111328200Y-95046800D02*
X111328200Y-88366600D01*
X113030000Y-108432600D02*
X113030000Y-96748600D01*
X115581700Y-84113100D02*
X115581700Y-82446600D01*
X113030000Y-96748600D02*
X111328200Y-95046800D01*
X125984000Y-107035600D02*
X125095000Y-107924600D01*
X113360200Y-108762800D02*
X113030000Y-108432600D01*
X118059200Y-107924600D02*
X117221000Y-108762800D01*
X117221000Y-108762800D02*
X113360200Y-108762800D01*
X125095000Y-107924600D02*
X118059200Y-107924600D01*
X111328200Y-88366600D02*
X115581700Y-84113100D01*
%TO.N,Net-(U2-GPA7)*%
X114311700Y-83960700D02*
X114311700Y-82446600D01*
X112826800Y-85445600D02*
X114311700Y-83960700D01*
X114325400Y-82460300D02*
X114311700Y-82446600D01*
X114325400Y-83972400D02*
X114325400Y-82460300D01*
%TO.N,Net-(D2-DOUT)*%
X107751680Y-105027209D02*
X107570791Y-105027209D01*
X135483600Y-109601000D02*
X135483600Y-108846434D01*
X135483600Y-108846434D02*
X134951560Y-108314394D01*
X107570791Y-105027209D02*
X106045000Y-106553000D01*
X107880471Y-105156000D02*
X107751680Y-105027209D01*
%TO.N,Net-(D1-DOUT)*%
X100482400Y-117373400D02*
X90220800Y-117373400D01*
X103327200Y-114528600D02*
X100482400Y-117373400D01*
X87274400Y-105435400D02*
X82985529Y-105435400D01*
X82985529Y-105435400D02*
X82670766Y-105120637D01*
X102851680Y-108327209D02*
X103327200Y-108802729D01*
X103327200Y-108802729D02*
X103327200Y-114528600D01*
X88036400Y-106197400D02*
X87274400Y-105435400D01*
X90220800Y-117373400D02*
X88036400Y-115189000D01*
X88036400Y-115189000D02*
X88036400Y-106197400D01*
%TO.N,HVGND*%
D23*
X124739400Y-104140000D02*
X121564400Y-104140000D01*
X121564400Y-104140000D02*
X121539000Y-104165400D01*
%TO.N,Net-(D6-DOUT)*%
D24*
X221818200Y-114223800D02*
X216255600Y-119786400D01*
X220522800Y-106618280D02*
X220522800Y-109677200D01*
X222260167Y-104880913D02*
X220522800Y-106618280D01*
X124663200Y-119608600D02*
X121640600Y-116586000D01*
X119385000Y-101816600D02*
X119385000Y-98196400D01*
X124688600Y-119608600D02*
X124663200Y-119608600D01*
X220522800Y-109677200D02*
X220675200Y-109677200D01*
X151561800Y-120472200D02*
X150698200Y-119608600D01*
X150698200Y-119608600D02*
X124688600Y-119608600D01*
X172186600Y-120472200D02*
X151561800Y-120472200D01*
X216255600Y-119786400D02*
X172872400Y-119786400D01*
X221818200Y-110820200D02*
X221818200Y-114223800D01*
X172872400Y-119786400D02*
X172186600Y-120472200D01*
X220675200Y-109677200D02*
X221818200Y-110820200D01*
%TO.N,Net-(D10-DIN)*%
X180340000Y-106146600D02*
X177952400Y-106146600D01*
X177952400Y-106146600D02*
X176865200Y-107233800D01*
X176865200Y-107233800D02*
X176865200Y-108585000D01*
%TO.N,Net-(D5-DOUT)*%
X216001600Y-108178600D02*
X212877400Y-111302800D01*
X202590400Y-115189000D02*
X202590400Y-111582200D01*
X197740759Y-105308400D02*
X197315760Y-104883401D01*
X205587600Y-118186200D02*
X202590400Y-115189000D01*
X211556600Y-118186200D02*
X205587600Y-118186200D01*
X202590400Y-111582200D02*
X202590400Y-105994200D01*
X216003913Y-108180913D02*
X216001600Y-108178600D01*
X201904600Y-105308400D02*
X197740759Y-105308400D01*
X217360167Y-108180913D02*
X216003913Y-108180913D01*
X202590400Y-105994200D02*
X201904600Y-105308400D01*
X212877400Y-111302800D02*
X212877400Y-116865400D01*
X212877400Y-116865400D02*
X211556600Y-118186200D01*
%TO.N,Net-(U1-GPB0)*%
X88468200Y-100558600D02*
X88468200Y-95783400D01*
X85457300Y-92772500D02*
X85457300Y-91746600D01*
X88468200Y-95783400D02*
X85457300Y-92772500D01*
%TO.N,Net-(U1-GPB1)*%
X89281000Y-95453200D02*
X89281000Y-106299000D01*
X89281000Y-108127800D02*
X89281000Y-106299000D01*
X86727300Y-91746600D02*
X86727300Y-92899500D01*
X88925400Y-108483400D02*
X89281000Y-108127800D01*
X86727300Y-92899500D02*
X89281000Y-95453200D01*
%TO.N,Net-(U1-GPB2)*%
X87997300Y-92696300D02*
X87997300Y-91746600D01*
X92354400Y-116713000D02*
X89916000Y-114274600D01*
X99085400Y-115646200D02*
X98018600Y-116713000D01*
X98018600Y-116713000D02*
X92354400Y-116713000D01*
X89916000Y-114274600D02*
X89916000Y-94615000D01*
X89916000Y-94615000D02*
X87997300Y-92696300D01*
%TO.N,Net-(U1-GPB3)*%
X90728800Y-108254800D02*
X93345000Y-110871000D01*
X89267300Y-91746600D02*
X89267300Y-92797900D01*
X93345000Y-110871000D02*
X93345000Y-115443000D01*
X89267300Y-92797900D02*
X90728800Y-94259400D01*
X90728800Y-94259400D02*
X90728800Y-108254800D01*
%TO.N,Net-(U1-GPB4)*%
X90537300Y-93065600D02*
X91485100Y-94013400D01*
X93497400Y-107783600D02*
X91485100Y-105771300D01*
X90537300Y-91746600D02*
X90537300Y-93065600D01*
X91485100Y-94013400D02*
X91485100Y-105771300D01*
X93497400Y-107873800D02*
X93497400Y-107783600D01*
%TO.N,Net-(U1-GPB5)*%
X92278200Y-100863400D02*
X92278200Y-93485700D01*
X92278200Y-93485700D02*
X91807300Y-93014800D01*
X93853000Y-102438200D02*
X92278200Y-100863400D01*
X91807300Y-93014800D02*
X91807300Y-91746600D01*
%TO.N,Net-(U1-GPB6)*%
X93077300Y-96049100D02*
X93077300Y-91746600D01*
X93726000Y-96697800D02*
X93077300Y-96049100D01*
%TO.N,Net-(U1-GPB7)*%
X94347300Y-90285300D02*
X94347300Y-89497900D01*
X94347300Y-90285300D02*
X94347300Y-91746600D01*
X94347300Y-89497900D02*
X94386400Y-89458800D01*
%TO.N,Net-(U1-~{RESET})*%
X98120200Y-85140800D02*
X98120200Y-82483700D01*
X98120200Y-82483700D02*
X98157300Y-82446600D01*
%TO.N,Net-(U1-GPA0)*%
X73812400Y-91236800D02*
X73812400Y-93497400D01*
X71018400Y-99009200D02*
X71018400Y-113436400D01*
X75590400Y-89458800D02*
X73812400Y-91236800D01*
X71831200Y-95478600D02*
X71831200Y-98196400D01*
X71018400Y-113436400D02*
X75057000Y-117475000D01*
X92391500Y-89458800D02*
X75590400Y-89458800D01*
X94347300Y-82446600D02*
X94347300Y-87503000D01*
X71831200Y-98196400D02*
X71018400Y-99009200D01*
X73812400Y-93497400D02*
X71831200Y-95478600D01*
X94347300Y-87503000D02*
X92391500Y-89458800D01*
%TO.N,Net-(U1-GPA1)*%
X69888100Y-116624100D02*
X69494400Y-117017800D01*
X91643200Y-88747600D02*
X74853800Y-88747600D01*
X93091000Y-87299800D02*
X91643200Y-88747600D01*
X73050400Y-92735400D02*
X70764400Y-95021400D01*
X73050400Y-90551000D02*
X73050400Y-92735400D01*
X70764400Y-97942400D02*
X69888100Y-98818700D01*
X70764400Y-95021400D02*
X70764400Y-97942400D01*
X74853800Y-88747600D02*
X73050400Y-90551000D01*
X93077300Y-82446600D02*
X93077300Y-87286100D01*
X69888100Y-98818700D02*
X69888100Y-116624100D01*
X93077300Y-87286100D02*
X93091000Y-87299800D01*
%TO.N,Net-(U1-GPA2)*%
X68249800Y-107924600D02*
X68961000Y-107213400D01*
X69977000Y-97713800D02*
X69977000Y-94488000D01*
X72288400Y-90144600D02*
X74320400Y-88112600D01*
X68961000Y-107213400D02*
X68961000Y-98729800D01*
X91871800Y-86461600D02*
X91807300Y-86397100D01*
X69977000Y-94488000D02*
X72288400Y-92176600D01*
X68961000Y-98729800D02*
X69977000Y-97713800D01*
X74320400Y-88112600D02*
X90220800Y-88112600D01*
X91807300Y-86397100D02*
X91807300Y-82446600D01*
X90220800Y-88112600D02*
X91871800Y-86461600D01*
X72288400Y-92176600D02*
X72288400Y-90144600D01*
%TO.N,Net-(U1-GPA3)*%
X73990200Y-87452200D02*
X89408000Y-87452200D01*
X89408000Y-87452200D02*
X90537300Y-86322900D01*
X68122800Y-98501200D02*
X69367400Y-97256600D01*
X69367400Y-93827600D02*
X71653400Y-91541600D01*
X71653400Y-89789000D02*
X73990200Y-87452200D01*
X71653400Y-91541600D02*
X71653400Y-89789000D01*
X90537300Y-86322900D02*
X90537300Y-82446600D01*
X69367400Y-97256600D02*
X69367400Y-93827600D01*
X68122800Y-102438200D02*
X68122800Y-98501200D01*
%TO.N,Net-(U1-GPA4)*%
X73533000Y-86868000D02*
X70967600Y-89433400D01*
X70967600Y-89433400D02*
X70967600Y-90779600D01*
X68554600Y-96748600D02*
X68554600Y-93192600D01*
X89267300Y-86246700D02*
X88646000Y-86868000D01*
X68554600Y-93192600D02*
X70967600Y-90779600D01*
X88646000Y-86868000D02*
X73533000Y-86868000D01*
X89267300Y-82446600D02*
X89267300Y-86246700D01*
%TO.N,Net-(U1-GPA5)*%
X70075600Y-89611200D02*
X70075600Y-89182400D01*
X73012300Y-86245700D02*
X87287100Y-86245700D01*
X87997300Y-85535500D02*
X87997300Y-82446600D01*
X70075600Y-89182400D02*
X73012300Y-86245700D01*
X87287100Y-86245700D02*
X87997300Y-85535500D01*
%TO.N,Net-(U1-GPA6)*%
X86741000Y-85166200D02*
X86741000Y-84226400D01*
X86741000Y-84226400D02*
X86741000Y-82460300D01*
X86741000Y-82460300D02*
X86727300Y-82446600D01*
%TO.N,Net-(U1-GPA7)*%
X85445600Y-84201000D02*
X85445600Y-82458300D01*
X85445600Y-82458300D02*
X85457300Y-82446600D01*
%TO.N,Net-(U3-GPB0)*%
X170916600Y-96291400D02*
X169875200Y-95250000D01*
X169875200Y-95250000D02*
X169875200Y-91748400D01*
X170916600Y-100888800D02*
X170916600Y-96291400D01*
%TO.N,Net-(U3-GPB1)*%
X171145200Y-91748400D02*
X171145200Y-94945200D01*
X171145200Y-94945200D02*
X171729400Y-95529400D01*
X171729400Y-108381800D02*
X171475400Y-108635800D01*
X171729400Y-95529400D02*
X171729400Y-108381800D01*
%TO.N,Net-(U3-GPB2)*%
X177342800Y-112217200D02*
X177342800Y-112141000D01*
X182549800Y-117424200D02*
X177342800Y-112217200D01*
X172415200Y-108280200D02*
X172415200Y-91748400D01*
X176276000Y-112141000D02*
X172415200Y-108280200D01*
X177342800Y-112141000D02*
X176276000Y-112141000D01*
X184810400Y-117424200D02*
X182549800Y-117424200D01*
%TO.N,Net-(U3-GPB3)*%
X178371500Y-111137700D02*
X176491900Y-111137700D01*
X182626000Y-115392200D02*
X178371500Y-111137700D01*
X173685200Y-91748400D02*
X173685200Y-108331000D01*
X173685200Y-108331000D02*
X176491900Y-111137700D01*
%TO.N,Net-(U3-GPB4)*%
X182613764Y-106898588D02*
X179004276Y-103289100D01*
X174955200Y-93624400D02*
X174955200Y-91748400D01*
X174498000Y-102412800D02*
X174498000Y-94081600D01*
X179004276Y-103289100D02*
X175374300Y-103289100D01*
X175374300Y-103289100D02*
X174498000Y-102412800D01*
X174498000Y-94081600D02*
X174955200Y-93624400D01*
%TO.N,Net-(U3-GPB5)*%
X177012600Y-102285800D02*
X175133000Y-100406200D01*
X176225200Y-93903800D02*
X176225200Y-91748400D01*
X175133000Y-94996000D02*
X176225200Y-93903800D01*
X175133000Y-100406200D02*
X175133000Y-94996000D01*
X181787800Y-102285800D02*
X177012600Y-102285800D01*
%TO.N,Net-(U3-GPB6)*%
X177495200Y-93827600D02*
X178968400Y-95300800D01*
X179654200Y-95300800D02*
X179679600Y-95326200D01*
X177495200Y-91748400D02*
X177495200Y-93827600D01*
X178968400Y-95300800D02*
X179654200Y-95300800D01*
%TO.N,Net-(U3-GPB7)*%
X178765200Y-91748400D02*
X178765200Y-88366600D01*
X185521600Y-87655400D02*
X186486800Y-88620600D01*
X178765200Y-88366600D02*
X179476400Y-87655400D01*
X179476400Y-87655400D02*
X185521600Y-87655400D01*
X186486800Y-88620600D02*
X186486800Y-88735600D01*
%TO.N,Net-(U3-GPA0)*%
X160020000Y-90068400D02*
X154635200Y-95453200D01*
X175336200Y-90068400D02*
X160020000Y-90068400D01*
X178765200Y-86639400D02*
X175336200Y-90068400D01*
X154635200Y-95453200D02*
X154635200Y-116444151D01*
X178765200Y-82448400D02*
X178765200Y-86639400D01*
X154635200Y-116444151D02*
X153328698Y-117750653D01*
%TO.N,Net-(U3-GPA1)*%
X177520600Y-86283800D02*
X174345600Y-89458800D01*
X177495200Y-86258400D02*
X177520600Y-86283800D01*
X159410400Y-89458800D02*
X153771600Y-95097600D01*
X153771600Y-115951000D02*
X152450800Y-117271800D01*
X174345600Y-89458800D02*
X159410400Y-89458800D01*
X153771600Y-95097600D02*
X153771600Y-115951000D01*
X177495200Y-82448400D02*
X177495200Y-86258400D01*
%TO.N,Net-(U3-GPA2)*%
X176225200Y-85725000D02*
X173126400Y-88823800D01*
X152933400Y-94970600D02*
X152933400Y-106451400D01*
X173126400Y-88823800D02*
X159029400Y-88823800D01*
X152933400Y-106451400D02*
X151155400Y-108229400D01*
X153060400Y-94843600D02*
X152933400Y-94970600D01*
X153060400Y-94792800D02*
X153060400Y-94843600D01*
X176225200Y-82448400D02*
X176225200Y-85725000D01*
X159029400Y-88823800D02*
X153060400Y-94792800D01*
%TO.N,Net-(U3-GPA3)*%
X172643800Y-88188800D02*
X158496000Y-88188800D01*
X174955200Y-85877400D02*
X172643800Y-88188800D01*
X158496000Y-88188800D02*
X152196800Y-94488000D01*
X174955200Y-82448400D02*
X174955200Y-85877400D01*
X152222200Y-94513400D02*
X152222200Y-101320600D01*
X152196800Y-94488000D02*
X152222200Y-94513400D01*
X152222200Y-101320600D02*
X151130000Y-102412800D01*
%TO.N,Net-(U3-GPA4)*%
X151257000Y-94259400D02*
X155524200Y-89992200D01*
X155524200Y-89992200D02*
X155532200Y-89992200D01*
X173685200Y-85572600D02*
X173685200Y-82448400D01*
X171704000Y-87553800D02*
X173685200Y-85572600D01*
X157970600Y-87553800D02*
X171704000Y-87553800D01*
X151257000Y-95732600D02*
X151257000Y-94259400D01*
X155532200Y-89992200D02*
X157970600Y-87553800D01*
%TO.N,Net-(U3-GPA5)*%
X170980100Y-86880700D02*
X157162500Y-86880700D01*
X172415200Y-85445600D02*
X170980100Y-86880700D01*
X154355800Y-89687400D02*
X157162500Y-86880700D01*
X172415200Y-82448400D02*
X172415200Y-85445600D01*
%TO.N,Net-(U3-GPA6)*%
X168376600Y-85572600D02*
X168960800Y-86156800D01*
X171145200Y-85394800D02*
X171145200Y-82448400D01*
X170383200Y-86156800D02*
X171145200Y-85394800D01*
X168960800Y-86156800D02*
X170383200Y-86156800D01*
X171145200Y-82448400D02*
X171170600Y-82473800D01*
%TO.N,Net-(U3-GPA7)*%
X169875200Y-85116100D02*
X169875200Y-82448400D01*
%TO.N,Net-(U4-~{RESET})*%
X217865200Y-86140800D02*
X218922600Y-86140800D01*
X213944200Y-85572600D02*
X217297000Y-85572600D01*
X212978755Y-84607155D02*
X212978755Y-82372200D01*
X217297000Y-85572600D02*
X217865200Y-86140800D01*
X213944200Y-85572600D02*
X212978755Y-84607155D01*
%TO.N,Net-(U4-GPB0)*%
X200278755Y-92404955D02*
X200278755Y-91672200D01*
X208229200Y-95885000D02*
X207289400Y-94945200D01*
X202819000Y-94945200D02*
X200278755Y-92404955D01*
X207289400Y-94945200D02*
X202819000Y-94945200D01*
%TO.N,Net-(U4-GPB1)*%
X201548755Y-87528400D02*
X201548755Y-87452445D01*
X201548755Y-87528400D02*
X201548755Y-91672200D01*
X204012800Y-86664800D02*
X204368400Y-87020400D01*
X202336400Y-86664800D02*
X204012800Y-86664800D01*
X201548755Y-87452445D02*
X202336400Y-86664800D01*
%TO.N,Net-(U4-GPB2)*%
X202818755Y-88011245D02*
X202818755Y-91672200D01*
X203301600Y-87528400D02*
X202818755Y-88011245D01*
%TO.N,Net-(U4-GPB3)*%
X204546200Y-88087200D02*
X204088755Y-88544645D01*
X204088755Y-88544645D02*
X204088755Y-91672200D01*
%TO.N,Net-(U4-GPB4)*%
X224891600Y-100787200D02*
X221157800Y-97053400D01*
X205968600Y-94030800D02*
X205968600Y-94005400D01*
X228117400Y-101828600D02*
X227076000Y-100787200D01*
X221157800Y-97053400D02*
X215163400Y-97053400D01*
X212140800Y-94030800D02*
X205968600Y-94030800D01*
X227076000Y-100787200D02*
X224891600Y-100787200D01*
X215163400Y-97053400D02*
X212140800Y-94030800D01*
X205968600Y-94005400D02*
X205358755Y-93395555D01*
X205358755Y-93395555D02*
X205358755Y-91672200D01*
%TO.N,Net-(U4-GPB5)*%
X217373200Y-93218000D02*
X206933800Y-93218000D01*
X206628755Y-92912955D02*
X206628755Y-91672200D01*
X206933800Y-93218000D02*
X206628755Y-92912955D01*
X217411300Y-93179900D02*
X217373200Y-93218000D01*
X217906600Y-95935800D02*
X217906600Y-93675200D01*
X217906600Y-93675200D02*
X217411300Y-93179900D01*
%TO.N,Net-(U4-GPA0)*%
X208889600Y-88468200D02*
X209143600Y-88214200D01*
X209168755Y-82372200D02*
X209168755Y-87452445D01*
X209168755Y-87452445D02*
X209143600Y-87477600D01*
X209143600Y-88214200D02*
X209143600Y-87477600D01*
%TO.N,Net-(U4-GPA1)*%
X207314800Y-89636600D02*
X207340200Y-89662000D01*
X206908400Y-89636600D02*
X207314800Y-89636600D01*
X207898755Y-89103445D02*
X207898755Y-88036645D01*
X207898755Y-88036645D02*
X207898755Y-82372200D01*
X207340200Y-89662000D02*
X207898755Y-89103445D01*
%TO.N,Net-(U4-GPA2)*%
X206146400Y-100558600D02*
X206298800Y-100406200D01*
X206628755Y-82372200D02*
X206628755Y-88290155D01*
X206298800Y-96875600D02*
X206298800Y-96850200D01*
X206298800Y-100406200D02*
X206298800Y-96875600D01*
X206628755Y-88290155D02*
X206705200Y-88366600D01*
%TO.N,Net-(U4-GPA3)*%
X207137000Y-107721400D02*
X207137000Y-97612200D01*
X207137000Y-97612200D02*
X207111600Y-97586800D01*
X205358755Y-86639155D02*
X205409800Y-86690200D01*
X205358755Y-82372200D02*
X205358755Y-86639155D01*
%TO.N,Net-(U4-GPA4)*%
X203454000Y-114046000D02*
X203581000Y-113919000D01*
X209804000Y-117043200D02*
X206451200Y-117043200D01*
X192836800Y-88011000D02*
X192836800Y-89077800D01*
X204139800Y-84836000D02*
X204139800Y-82423245D01*
X203581000Y-113919000D02*
X203581000Y-102514400D01*
X197815200Y-100990400D02*
X192836800Y-96012000D01*
X202057000Y-100990400D02*
X197815200Y-100990400D01*
X204139800Y-82423245D02*
X204088755Y-82372200D01*
X192836800Y-96012000D02*
X192836800Y-89077800D01*
X203631800Y-85979000D02*
X200101200Y-85979000D01*
X195275200Y-85572600D02*
X192836800Y-88011000D01*
X206451200Y-117043200D02*
X203454000Y-114046000D01*
X204165200Y-84861400D02*
X204139800Y-84836000D01*
X200101200Y-85979000D02*
X200075800Y-86004400D01*
X203581000Y-102514400D02*
X202057000Y-100990400D01*
X204165200Y-85445600D02*
X204165200Y-84861400D01*
X203631800Y-85979000D02*
X204165200Y-85445600D01*
%TO.N,Net-(U4-GPA5)*%
X202818755Y-83947245D02*
X202539600Y-84226400D01*
X204673200Y-113690400D02*
X204673200Y-102641400D01*
X196570600Y-85496400D02*
X196240400Y-85166200D01*
X204673200Y-102641400D02*
X202272900Y-100241100D01*
X207060800Y-116078000D02*
X204673200Y-113690400D01*
X202818755Y-82372200D02*
X202818755Y-83947245D01*
X202272900Y-100241100D02*
X198640700Y-100241100D01*
X202844400Y-82397845D02*
X202818755Y-82372200D01*
X196570600Y-98171000D02*
X196570600Y-85496400D01*
X198640700Y-100241100D02*
X196570600Y-98171000D01*
%TO.N,Net-(U4-GPA6)*%
X201548755Y-83794845D02*
X201142600Y-84201000D01*
X205765400Y-102006400D02*
X204724000Y-100965000D01*
X197815200Y-96799400D02*
X197231000Y-96215200D01*
X204724000Y-100965000D02*
X204724000Y-97434400D01*
X197231000Y-84556600D02*
X196951600Y-84277200D01*
X205765400Y-108280200D02*
X205765400Y-102006400D01*
X206349600Y-108864400D02*
X205765400Y-108280200D01*
X204724000Y-97434400D02*
X204089000Y-96799400D01*
X201523600Y-82397355D02*
X201548755Y-82372200D01*
X201548755Y-82372200D02*
X201548755Y-83794845D01*
X197231000Y-96215200D02*
X197231000Y-84556600D01*
X204089000Y-96799400D02*
X197815200Y-96799400D01*
X207467200Y-108864400D02*
X206349600Y-108864400D01*
%TO.N,Net-(U4-GPA7)*%
X199313800Y-92735400D02*
X199313800Y-84454755D01*
X199313800Y-84454755D02*
X200278755Y-83489800D01*
X206995861Y-95953200D02*
X202531600Y-95953200D01*
X208217200Y-97174539D02*
X206995861Y-95953200D01*
X208217200Y-101916800D02*
X208217200Y-97174539D01*
X207975200Y-102158800D02*
X208217200Y-101916800D01*
X200278755Y-83489800D02*
X200278755Y-82372200D01*
X202531600Y-95953200D02*
X199313800Y-92735400D01*
%TD*%
M02*
