%TF.GenerationSoftware,KiCad,Pcbnew,10.0.0*%
%TF.CreationDate,2026-06-06T16:17:09+02:00*%
%TF.ProjectId,nixieclockin12_V2,6e697869-6563-46c6-9f63-6b696e31325f,0.9*%
%TF.SameCoordinates,Original*%
%TF.FileFunction,Paste,Bot*%
%TF.FilePolarity,Positive*%
%FSLAX46Y46*%
G04 Gerber Fmt 4.6, Leading zero omitted, Abs format (unit mm)*
G04 Created by KiCad (PCBNEW 10.0.0) date 2026-06-06 16:17:09*
%MOMM*%
%LPD*%
G01*
G04 APERTURE LIST*
G04 Aperture macros list*
%AMRoundRect*
0 Rectangle with rounded corners*
0 $1 Rounding radius*
0 $2 $3 $4 $5 $6 $7 $8 $9 X,Y pos of 4 corners*
0 Add a 4 corners polygon primitive as box body*
4,1,4,$2,$3,$4,$5,$6,$7,$8,$9,$2,$3,0*
0 Add four circle primitives for the rounded corners*
1,1,$1+$1,$2,$3*
1,1,$1+$1,$4,$5*
1,1,$1+$1,$6,$7*
1,1,$1+$1,$8,$9*
0 Add four rect primitives between the rounded corners*
20,1,$1+$1,$2,$3,$4,$5,0*
20,1,$1+$1,$4,$5,$6,$7,0*
20,1,$1+$1,$6,$7,$8,$9,0*
20,1,$1+$1,$8,$9,$2,$3,0*%
G04 Aperture macros list end*
%ADD10RoundRect,0.250000X-0.350000X-0.450000X0.350000X-0.450000X0.350000X0.450000X-0.350000X0.450000X0*%
%ADD11RoundRect,0.162500X-0.837500X-0.162500X0.837500X-0.162500X0.837500X0.162500X-0.837500X0.162500X0*%
%ADD12RoundRect,0.250000X0.350000X0.450000X-0.350000X0.450000X-0.350000X-0.450000X0.350000X-0.450000X0*%
%ADD13RoundRect,0.162500X0.837500X0.162500X-0.837500X0.162500X-0.837500X-0.162500X0.837500X-0.162500X0*%
%ADD14RoundRect,0.250000X0.337500X0.475000X-0.337500X0.475000X-0.337500X-0.475000X0.337500X-0.475000X0*%
%ADD15RoundRect,0.250000X0.450000X-0.350000X0.450000X0.350000X-0.450000X0.350000X-0.450000X-0.350000X0*%
%ADD16RoundRect,0.250000X-0.450000X0.350000X-0.450000X-0.350000X0.450000X-0.350000X0.450000X0.350000X0*%
%ADD17RoundRect,0.250000X-0.337500X-0.475000X0.337500X-0.475000X0.337500X0.475000X-0.337500X0.475000X0*%
G04 APERTURE END LIST*
D10*
%TO.C,R36*%
X154321000Y-90576400D03*
X156321000Y-90576400D03*
%TD*%
D11*
%TO.C,Q13*%
X94293800Y-106131400D03*
X97713800Y-105181400D03*
X94293800Y-104231400D03*
%TD*%
D10*
%TO.C,R29*%
X147082000Y-101701600D03*
X149082000Y-101701600D03*
%TD*%
D12*
%TO.C,R17*%
X115782600Y-89839800D03*
X113782600Y-89839800D03*
%TD*%
D11*
%TO.C,Q24*%
X126111000Y-100584000D03*
X129531000Y-99634000D03*
X126111000Y-98684000D03*
%TD*%
D12*
%TO.C,R1*%
X73542400Y-117525800D03*
X71542400Y-117525800D03*
%TD*%
D10*
%TO.C,R35*%
X152085800Y-96621600D03*
X154085800Y-96621600D03*
%TD*%
D11*
%TO.C,Q52*%
X209457400Y-111414600D03*
X212877400Y-110464600D03*
X209457400Y-109514600D03*
%TD*%
%TO.C,Q32*%
X152704800Y-111937800D03*
X156124800Y-110987800D03*
X152704800Y-110037800D03*
%TD*%
%TO.C,Q2*%
X69776946Y-111721546D03*
X73196946Y-110771546D03*
X69776946Y-109821546D03*
%TD*%
D12*
%TO.C,R28*%
X147913600Y-91744800D03*
X145913600Y-91744800D03*
%TD*%
D11*
%TO.C,Q6*%
X75447000Y-92161400D03*
X78867000Y-91211400D03*
X75447000Y-90261400D03*
%TD*%
D10*
%TO.C,R45*%
X182896000Y-96697800D03*
X184896000Y-96697800D03*
%TD*%
%TO.C,R20*%
X115001800Y-107518200D03*
X117001800Y-107518200D03*
%TD*%
%TO.C,R15*%
X94910400Y-96723200D03*
X96910400Y-96723200D03*
%TD*%
D11*
%TO.C,Q5*%
X69325600Y-94729517D03*
X72745600Y-93779517D03*
X69325600Y-92829517D03*
%TD*%
D13*
%TO.C,Q48*%
X205096000Y-93842800D03*
X201676000Y-94792800D03*
X205096000Y-95742800D03*
%TD*%
D12*
%TO.C,R37*%
X173339000Y-90043000D03*
X171339000Y-90043000D03*
%TD*%
D14*
%TO.C,C3*%
X184861200Y-82727800D03*
X182786200Y-82727800D03*
%TD*%
D13*
%TO.C,Q40*%
X173549200Y-109413000D03*
X170129200Y-110363000D03*
X173549200Y-111313000D03*
%TD*%
D11*
%TO.C,Q11*%
X97164000Y-115402400D03*
X100584000Y-114452400D03*
X97164000Y-113502400D03*
%TD*%
D10*
%TO.C,R46*%
X186502800Y-90881200D03*
X188502800Y-90881200D03*
%TD*%
D13*
%TO.C,Q37*%
X168977200Y-90236000D03*
X165557200Y-91186000D03*
X168977200Y-92136000D03*
%TD*%
%TO.C,Q18*%
X115967400Y-93665000D03*
X112547400Y-94615000D03*
X115967400Y-95565000D03*
%TD*%
D10*
%TO.C,R39*%
X172075600Y-101904800D03*
X174075600Y-101904800D03*
%TD*%
D11*
%TO.C,Q4*%
X68876600Y-100613700D03*
X72296600Y-99663700D03*
X68876600Y-98713700D03*
%TD*%
%TO.C,Q21*%
X129447400Y-115427800D03*
X132867400Y-114477800D03*
X129447400Y-113527800D03*
%TD*%
D12*
%TO.C,R11*%
X98748600Y-117424200D03*
X96748600Y-117424200D03*
%TD*%
D13*
%TO.C,Q10*%
X91024600Y-109108200D03*
X87604600Y-110058200D03*
X91024600Y-111008200D03*
%TD*%
D11*
%TO.C,Q54*%
X208805200Y-100416400D03*
X212225200Y-99466400D03*
X208805200Y-98516400D03*
%TD*%
D13*
%TO.C,Q39*%
X173930200Y-103901200D03*
X170510200Y-104851200D03*
X173930200Y-105801200D03*
%TD*%
D11*
%TO.C,Q1*%
X71891000Y-115569084D03*
X75311000Y-114619084D03*
X71891000Y-113669084D03*
%TD*%
%TO.C,Q3*%
X69279020Y-106130538D03*
X72699020Y-105180538D03*
X69279020Y-104230538D03*
%TD*%
D10*
%TO.C,R9*%
X89474800Y-101701600D03*
X91474800Y-101701600D03*
%TD*%
D11*
%TO.C,Q33*%
X151901000Y-106207600D03*
X155321000Y-105257600D03*
X151901000Y-104307600D03*
%TD*%
D10*
%TO.C,R6*%
X71101200Y-90972173D03*
X73101200Y-90972173D03*
%TD*%
D11*
%TO.C,Q25*%
X126974600Y-94640400D03*
X130394600Y-93690400D03*
X126974600Y-92740400D03*
%TD*%
D12*
%TO.C,R7*%
X90281000Y-90017600D03*
X88281000Y-90017600D03*
%TD*%
D13*
%TO.C,Q49*%
X205852868Y-103876636D03*
X202432868Y-104826636D03*
X205852868Y-105776636D03*
%TD*%
%TO.C,Q38*%
X173320600Y-93792000D03*
X169900600Y-94742000D03*
X173320600Y-95692000D03*
%TD*%
D12*
%TO.C,R49*%
X206176068Y-101880236D03*
X204176068Y-101880236D03*
%TD*%
D13*
%TO.C,Q59*%
X231334200Y-103875800D03*
X227914200Y-104825800D03*
X231334200Y-105775800D03*
%TD*%
%TO.C,Q9*%
X91397400Y-103723400D03*
X87977400Y-104673400D03*
X91397400Y-105623400D03*
%TD*%
D11*
%TO.C,Q31*%
X154863800Y-115646200D03*
X158283800Y-114696200D03*
X154863800Y-113746200D03*
%TD*%
D15*
%TO.C,R22*%
X126898400Y-115579400D03*
X126898400Y-113579400D03*
%TD*%
D10*
%TO.C,R24*%
X126914400Y-102362000D03*
X128914400Y-102362000D03*
%TD*%
D11*
%TO.C,Q53*%
X208847800Y-105852000D03*
X212267800Y-104902000D03*
X208847800Y-103952000D03*
%TD*%
D10*
%TO.C,R41*%
X186375800Y-117525800D03*
X188375800Y-117525800D03*
%TD*%
D12*
%TO.C,R47*%
X205368400Y-90043000D03*
X203368400Y-90043000D03*
%TD*%
D13*
%TO.C,Q28*%
X147912400Y-93467700D03*
X144492400Y-94417700D03*
X147912400Y-95367700D03*
%TD*%
D12*
%TO.C,R48*%
X205444600Y-92100400D03*
X203444600Y-92100400D03*
%TD*%
D15*
%TO.C,R2*%
X69418200Y-115554000D03*
X69418200Y-113554000D03*
%TD*%
D11*
%TO.C,Q26*%
X133121400Y-91790600D03*
X136541400Y-90840600D03*
X133121400Y-89890600D03*
%TD*%
D10*
%TO.C,R13*%
X94697800Y-107924600D03*
X96697800Y-107924600D03*
%TD*%
%TO.C,R54*%
X209007200Y-102184200D03*
X211007200Y-102184200D03*
%TD*%
D13*
%TO.C,Q47*%
X200955800Y-90109000D03*
X197535800Y-91059000D03*
X200955800Y-92009000D03*
%TD*%
%TO.C,Q7*%
X85868400Y-90261400D03*
X82448400Y-91211400D03*
X85868400Y-92161400D03*
%TD*%
D10*
%TO.C,R21*%
X126695200Y-117576600D03*
X128695200Y-117576600D03*
%TD*%
D12*
%TO.C,R8*%
X91001600Y-92202000D03*
X89001600Y-92202000D03*
%TD*%
D10*
%TO.C,R10*%
X89440000Y-107315000D03*
X91440000Y-107315000D03*
%TD*%
D11*
%TO.C,Q12*%
X95106600Y-111668600D03*
X98526600Y-110718600D03*
X95106600Y-109768600D03*
%TD*%
D10*
%TO.C,R30*%
X146751800Y-107416600D03*
X148751800Y-107416600D03*
%TD*%
%TO.C,R60*%
X228819200Y-107619800D03*
X230819200Y-107619800D03*
%TD*%
D16*
%TO.C,R57*%
X228498400Y-89957400D03*
X228498400Y-91957400D03*
%TD*%
D11*
%TO.C,Q34*%
X151520000Y-100594200D03*
X154940000Y-99644200D03*
X151520000Y-98694200D03*
%TD*%
D12*
%TO.C,R18*%
X116163600Y-91821000D03*
X114163600Y-91821000D03*
%TD*%
D11*
%TO.C,Q14*%
X93819400Y-100568800D03*
X97239400Y-99618800D03*
X93819400Y-98668800D03*
%TD*%
%TO.C,Q44*%
X183413400Y-100482400D03*
X186833400Y-99532400D03*
X183413400Y-98582400D03*
%TD*%
D10*
%TO.C,R33*%
X152365200Y-108204000D03*
X154365200Y-108204000D03*
%TD*%
%TO.C,R44*%
X182718200Y-102311200D03*
X184718200Y-102311200D03*
%TD*%
%TO.C,R59*%
X229759000Y-101904800D03*
X231759000Y-101904800D03*
%TD*%
%TO.C,R3*%
X69374000Y-107943236D03*
X71374000Y-107943236D03*
%TD*%
D11*
%TO.C,Q42*%
X184632600Y-111602600D03*
X188052600Y-110652600D03*
X184632600Y-109702600D03*
%TD*%
D13*
%TO.C,Q20*%
X116577000Y-109235200D03*
X113157000Y-110185200D03*
X116577000Y-111135200D03*
%TD*%
D12*
%TO.C,R38*%
X173339000Y-92075000D03*
X171339000Y-92075000D03*
%TD*%
D11*
%TO.C,Q16*%
X100974000Y-91958200D03*
X104394000Y-91008200D03*
X100974000Y-90058200D03*
%TD*%
D13*
%TO.C,Q58*%
X230013400Y-93766600D03*
X226593400Y-94716600D03*
X230013400Y-95666600D03*
%TD*%
D10*
%TO.C,R16*%
X96637600Y-91109800D03*
X98637600Y-91109800D03*
%TD*%
%TO.C,R23*%
X126787400Y-107950000D03*
X128787400Y-107950000D03*
%TD*%
D13*
%TO.C,Q30*%
X148412200Y-109301200D03*
X144992200Y-110251200D03*
X148412200Y-111201200D03*
%TD*%
D10*
%TO.C,R34*%
X152314400Y-102412800D03*
X154314400Y-102412800D03*
%TD*%
D11*
%TO.C,Q56*%
X215756600Y-91907400D03*
X219176600Y-90957400D03*
X215756600Y-90007400D03*
%TD*%
D10*
%TO.C,R4*%
X69459027Y-102412800D03*
X71459027Y-102412800D03*
%TD*%
D12*
%TO.C,R50*%
X205978000Y-107696000D03*
X203978000Y-107696000D03*
%TD*%
D11*
%TO.C,Q46*%
X190855600Y-92044600D03*
X194275600Y-91094600D03*
X190855600Y-90144600D03*
%TD*%
D10*
%TO.C,R43*%
X183632600Y-107873800D03*
X185632600Y-107873800D03*
%TD*%
D13*
%TO.C,Q17*%
X111420800Y-90007400D03*
X108000800Y-90957400D03*
X111420800Y-91907400D03*
%TD*%
D10*
%TO.C,R14*%
X94977200Y-102412800D03*
X96977200Y-102412800D03*
%TD*%
D11*
%TO.C,Q36*%
X158682800Y-92136000D03*
X162102800Y-91186000D03*
X158682800Y-90236000D03*
%TD*%
D15*
%TO.C,R32*%
X152425400Y-115833400D03*
X152425400Y-113833400D03*
%TD*%
%TO.C,R12*%
X94792800Y-115477800D03*
X94792800Y-113477800D03*
%TD*%
D13*
%TO.C,Q29*%
X149072600Y-103687800D03*
X145652600Y-104637800D03*
X149072600Y-105587800D03*
%TD*%
D10*
%TO.C,R25*%
X126803400Y-96748600D03*
X128803400Y-96748600D03*
%TD*%
D14*
%TO.C,C4*%
X217728800Y-85623400D03*
X215653800Y-85623400D03*
%TD*%
D10*
%TO.C,R55*%
X209235800Y-96697800D03*
X211235800Y-96697800D03*
%TD*%
D11*
%TO.C,Q22*%
X127177800Y-111704200D03*
X130597800Y-110754200D03*
X127177800Y-109804200D03*
%TD*%
D14*
%TO.C,C1*%
X101672300Y-86182200D03*
X99597300Y-86182200D03*
%TD*%
D17*
%TO.C,C2*%
X130610700Y-86766400D03*
X132685700Y-86766400D03*
%TD*%
D10*
%TO.C,R19*%
X115052600Y-101803200D03*
X117052600Y-101803200D03*
%TD*%
%TO.C,R5*%
X69993000Y-96697800D03*
X71993000Y-96697800D03*
%TD*%
D13*
%TO.C,Q27*%
X143551800Y-89880400D03*
X140131800Y-90830400D03*
X143551800Y-91780400D03*
%TD*%
D11*
%TO.C,Q41*%
X186715400Y-115392200D03*
X190135400Y-114442200D03*
X186715400Y-113492200D03*
%TD*%
D10*
%TO.C,R26*%
X128616200Y-90855800D03*
X130616200Y-90855800D03*
%TD*%
D11*
%TO.C,Q45*%
X184810400Y-94686200D03*
X188230400Y-93736200D03*
X184810400Y-92786200D03*
%TD*%
D10*
%TO.C,R56*%
X211420200Y-91262200D03*
X213420200Y-91262200D03*
%TD*%
D13*
%TO.C,Q19*%
X116958000Y-103825000D03*
X113538000Y-104775000D03*
X116958000Y-105725000D03*
%TD*%
D11*
%TO.C,Q43*%
X183896000Y-106116200D03*
X187316000Y-105166200D03*
X183896000Y-104216200D03*
%TD*%
%TO.C,Q15*%
X94776400Y-94777600D03*
X98196400Y-93827600D03*
X94776400Y-92877600D03*
%TD*%
D13*
%TO.C,Q8*%
X90745200Y-94046000D03*
X87325200Y-94996000D03*
X90745200Y-95946000D03*
%TD*%
%TO.C,Q60*%
X230597600Y-109387600D03*
X227177600Y-110337600D03*
X230597600Y-111287600D03*
%TD*%
D10*
%TO.C,R51*%
X211217000Y-117144800D03*
X213217000Y-117144800D03*
%TD*%
D11*
%TO.C,Q51*%
X211718000Y-115173800D03*
X215138000Y-114223800D03*
X211718000Y-113273800D03*
%TD*%
D10*
%TO.C,R40*%
X171948600Y-107645200D03*
X173948600Y-107645200D03*
%TD*%
D11*
%TO.C,Q23*%
X126441200Y-106014600D03*
X129861200Y-105064600D03*
X126441200Y-104114600D03*
%TD*%
D16*
%TO.C,R58*%
X230682800Y-89881200D03*
X230682800Y-91881200D03*
%TD*%
D10*
%TO.C,R31*%
X154473400Y-117779800D03*
X156473400Y-117779800D03*
%TD*%
D12*
%TO.C,R61*%
X97824800Y-86207600D03*
X95824800Y-86207600D03*
%TD*%
D10*
%TO.C,R53*%
X209007200Y-107543600D03*
X211007200Y-107543600D03*
%TD*%
D11*
%TO.C,Q55*%
X209736800Y-94853800D03*
X213156800Y-93903800D03*
X209736800Y-92953800D03*
%TD*%
D13*
%TO.C,Q57*%
X225974800Y-90007400D03*
X222554800Y-90957400D03*
X225974800Y-91907400D03*
%TD*%
D12*
%TO.C,R27*%
X147913600Y-89839800D03*
X145913600Y-89839800D03*
%TD*%
D15*
%TO.C,R52*%
X209067400Y-115300000D03*
X209067400Y-113300000D03*
%TD*%
%TO.C,R42*%
X184327800Y-115427000D03*
X184327800Y-113427000D03*
%TD*%
D11*
%TO.C,Q35*%
X152688400Y-94676000D03*
X156108400Y-93726000D03*
X152688400Y-92776000D03*
%TD*%
D13*
%TO.C,Q50*%
X205527800Y-109413000D03*
X202107800Y-110363000D03*
X205527800Y-111313000D03*
%TD*%
M02*
