%TF.GenerationSoftware,KiCad,Pcbnew,10.0.0*%
%TF.CreationDate,2026-06-06T16:17:09+02:00*%
%TF.ProjectId,nixieclockin12_V2,6e697869-6563-46c6-9f63-6b696e31325f,0.9*%
%TF.SameCoordinates,Original*%
%TF.FileFunction,Copper,L2,Bot*%
%TF.FilePolarity,Positive*%
%FSLAX46Y46*%
G04 Gerber Fmt 4.6, Leading zero omitted, Abs format (unit mm)*
G04 Created by KiCad (PCBNEW 10.0.0) date 2026-06-06 16:17:09*
%MOMM*%
%LPD*%
G01*
G04 APERTURE LIST*
G04 Aperture macros list*
%AMRoundRect*
0 Rectangle with rounded corners*
0 $1 Rounding radius*
0 $2 $3 $4 $5 $6 $7 $8 $9 X,Y pos of 4 corners*
0 Add a 4 corners polygon primitive as box body*
4,1,4,$2,$3,$4,$5,$6,$7,$8,$9,$2,$3,0*
0 Add four circle primitives for the rounded corners*
1,1,$1+$1,$2,$3*
1,1,$1+$1,$4,$5*
1,1,$1+$1,$6,$7*
1,1,$1+$1,$8,$9*
0 Add four rect primitives between the rounded corners*
20,1,$1+$1,$2,$3,$4,$5,0*
20,1,$1+$1,$4,$5,$6,$7,0*
20,1,$1+$1,$6,$7,$8,$9,0*
20,1,$1+$1,$8,$9,$2,$3,0*%
G04 Aperture macros list end*
%TA.AperFunction,ComponentPad*%
%ADD10R,2.313000X2.313000*%
%TD*%
%TA.AperFunction,ComponentPad*%
%ADD11C,2.313000*%
%TD*%
%TA.AperFunction,ComponentPad*%
%ADD12R,1.700000X1.700000*%
%TD*%
%TA.AperFunction,ComponentPad*%
%ADD13C,1.700000*%
%TD*%
%TA.AperFunction,ComponentPad*%
%ADD14C,1.600000*%
%TD*%
%TA.AperFunction,ComponentPad*%
%ADD15O,0.980000X1.500000*%
%TD*%
%TA.AperFunction,ComponentPad*%
%ADD16O,1.000000X1.500000*%
%TD*%
%TA.AperFunction,ComponentPad*%
%ADD17R,1.000000X1.500000*%
%TD*%
%TA.AperFunction,SMDPad,CuDef*%
%ADD18RoundRect,0.250000X-0.350000X-0.450000X0.350000X-0.450000X0.350000X0.450000X-0.350000X0.450000X0*%
%TD*%
%TA.AperFunction,SMDPad,CuDef*%
%ADD19RoundRect,0.162500X-0.837500X-0.162500X0.837500X-0.162500X0.837500X0.162500X-0.837500X0.162500X0*%
%TD*%
%TA.AperFunction,SMDPad,CuDef*%
%ADD20RoundRect,0.250000X0.350000X0.450000X-0.350000X0.450000X-0.350000X-0.450000X0.350000X-0.450000X0*%
%TD*%
%TA.AperFunction,SMDPad,CuDef*%
%ADD21RoundRect,0.162500X0.837500X0.162500X-0.837500X0.162500X-0.837500X-0.162500X0.837500X-0.162500X0*%
%TD*%
%TA.AperFunction,SMDPad,CuDef*%
%ADD22RoundRect,0.250000X0.337500X0.475000X-0.337500X0.475000X-0.337500X-0.475000X0.337500X-0.475000X0*%
%TD*%
%TA.AperFunction,SMDPad,CuDef*%
%ADD23RoundRect,0.250000X0.450000X-0.350000X0.450000X0.350000X-0.450000X0.350000X-0.450000X-0.350000X0*%
%TD*%
%TA.AperFunction,SMDPad,CuDef*%
%ADD24RoundRect,0.250000X-0.450000X0.350000X-0.450000X-0.350000X0.450000X-0.350000X0.450000X0.350000X0*%
%TD*%
%TA.AperFunction,SMDPad,CuDef*%
%ADD25RoundRect,0.250000X-0.337500X-0.475000X0.337500X-0.475000X0.337500X0.475000X-0.337500X0.475000X0*%
%TD*%
%TA.AperFunction,ViaPad*%
%ADD26C,1.000000*%
%TD*%
%TA.AperFunction,ViaPad*%
%ADD27C,0.800000*%
%TD*%
%TA.AperFunction,Conductor*%
%ADD28C,0.300000*%
%TD*%
%TA.AperFunction,Conductor*%
%ADD29C,0.500000*%
%TD*%
G04 APERTURE END LIST*
D10*
%TO.P,NX2,1,A_1*%
%TO.N,Net-(NX2-A)*%
X109342753Y-111170600D03*
D11*
%TO.P,NX2,2,"0"_2*%
%TO.N,Net-(NX2-"0")*%
X111092753Y-107670600D03*
%TO.P,NX2,3,"9"_3*%
%TO.N,Net-(NX2-"9")*%
X111092753Y-103170600D03*
%TO.P,NX2,4,"8"_4*%
%TO.N,Net-(NX2-"8")*%
X111092753Y-98670600D03*
%TO.P,NX2,5,"7"_5*%
%TO.N,Net-(NX2-"7")*%
X109342753Y-95170600D03*
%TO.P,NX2,6,"6"_6*%
%TO.N,Net-(NX2-"6")*%
X105342753Y-94170600D03*
%TO.P,NX2,7,"5"_7*%
%TO.N,Net-(NX2-"5")*%
X101342753Y-95170600D03*
%TO.P,NX2,8,"4"_8*%
%TO.N,Net-(NX2-"4")*%
X99592753Y-98670600D03*
%TO.P,NX2,9,"3"_9*%
%TO.N,Net-(NX2-"3")*%
X99592753Y-103170600D03*
%TO.P,NX2,10,"2"_10*%
%TO.N,Net-(NX2-"2")*%
X99592753Y-107670600D03*
%TO.P,NX2,11,"1"_11*%
%TO.N,Net-(NX2-"1")*%
X101342753Y-111170600D03*
%TO.P,NX2,12,"."_12*%
%TO.N,unconnected-(NX2-"."-Pad12)*%
X105342753Y-112170600D03*
%TD*%
D12*
%TO.P,J1,1,Pin_1_1*%
%TO.N,VCC*%
X154286339Y-82943070D03*
D13*
%TO.P,J1,2,Pin_2_2*%
X151746339Y-82943070D03*
%TO.P,J1,3,Pin_3_3*%
%TO.N,Net-(J1-Pin_3)*%
X149206339Y-82943070D03*
%TO.P,J1,4,Pin_4_4*%
%TO.N,Net-(J1-Pin_4)*%
X146666339Y-82943070D03*
%TO.P,J1,5,Pin_5_5*%
%TO.N,unconnected-(J1-Pin_5-Pad5)*%
X144126339Y-82943070D03*
%TO.P,J1,6,Pin_6_6*%
%TO.N,Net-(D1-DIN)*%
X141586339Y-82943070D03*
%TO.P,J1,7,Pin_7_7*%
%TO.N,GND*%
X139046339Y-82943070D03*
%TO.P,J1,8,Pin_8_8*%
X136506339Y-82943070D03*
%TD*%
D14*
%TO.P,R70,1*%
%TO.N,/HV*%
X218897200Y-121310400D03*
%TO.P,R70,2*%
%TO.N,Net-(NX6-A)*%
X226517200Y-121310400D03*
%TD*%
D15*
%TO.P,D8,1,VDD_1*%
%TO.N,VCC*%
X120659599Y-109248000D03*
D16*
%TO.P,D8,2,DOUT_2*%
%TO.N,Net-(D8-DOUT)*%
X123209599Y-109248000D03*
%TO.P,D8,3,VSS_3*%
%TO.N,GND*%
X121939599Y-109248000D03*
D17*
%TO.P,D8,4,DIN_4*%
%TO.N,Net-(D7-DOUT)*%
X119399599Y-109248000D03*
%TD*%
D10*
%TO.P,NX3,1,A_1*%
%TO.N,Net-(NX3-A)*%
X141473073Y-111126906D03*
D11*
%TO.P,NX3,2,"0"_2*%
%TO.N,Net-(NX3-"0")*%
X143223073Y-107626906D03*
%TO.P,NX3,3,"9"_3*%
%TO.N,Net-(NX3-"9")*%
X143223073Y-103126906D03*
%TO.P,NX3,4,"8"_4*%
%TO.N,Net-(NX3-"8")*%
X143223073Y-98626906D03*
%TO.P,NX3,5,"7"_5*%
%TO.N,Net-(NX3-"7")*%
X141473073Y-95126906D03*
%TO.P,NX3,6,"6"_6*%
%TO.N,Net-(NX3-"6")*%
X137473073Y-94126906D03*
%TO.P,NX3,7,"5"_7*%
%TO.N,Net-(NX3-"5")*%
X133473073Y-95126906D03*
%TO.P,NX3,8,"4"_8*%
%TO.N,Net-(NX3-"4")*%
X131723073Y-98626906D03*
%TO.P,NX3,9,"3"_9*%
%TO.N,Net-(NX3-"3")*%
X131723073Y-103126906D03*
%TO.P,NX3,10,"2"_10*%
%TO.N,Net-(NX3-"2")*%
X131723073Y-107626906D03*
%TO.P,NX3,11,"1"_11*%
%TO.N,Net-(NX3-"1")*%
X133473073Y-111126906D03*
%TO.P,NX3,12,"."_12*%
%TO.N,unconnected-(NX3-"."-Pad12)*%
X137473073Y-112126906D03*
%TD*%
D14*
%TO.P,R67,1*%
%TO.N,/HV*%
X149072600Y-121339531D03*
%TO.P,R67,2*%
%TO.N,Net-(NX3-A)*%
X149072600Y-113719531D03*
%TD*%
D12*
%TO.P,J2,1,Pin_1_1*%
%TO.N,/HV*%
X85775800Y-123799600D03*
D13*
%TO.P,J2,2,Pin_2_2*%
X83235800Y-123799600D03*
%TO.P,J2,3,Pin_3_3*%
%TO.N,HVGND*%
X80695800Y-123799600D03*
%TO.P,J2,4,Pin_4_4*%
X78155800Y-123799600D03*
%TD*%
D10*
%TO.P,NX6,1,A_1*%
%TO.N,Net-(NX6-A)*%
X223829861Y-110987010D03*
D11*
%TO.P,NX6,2,"0"_2*%
%TO.N,Net-(NX6-"0")*%
X225579861Y-107487010D03*
%TO.P,NX6,3,"9"_3*%
%TO.N,Net-(NX6-"9")*%
X225579861Y-102987010D03*
%TO.P,NX6,4,"8"_4*%
%TO.N,Net-(NX6-"8")*%
X225579861Y-98487010D03*
%TO.P,NX6,5,"7"_5*%
%TO.N,Net-(NX6-"7")*%
X223829861Y-94987010D03*
%TO.P,NX6,6,"6"_6*%
%TO.N,Net-(NX6-"6")*%
X219829861Y-93987010D03*
%TO.P,NX6,7,"5"_7*%
%TO.N,Net-(NX6-"5")*%
X215829861Y-94987010D03*
%TO.P,NX6,8,"4"_8*%
%TO.N,Net-(NX6-"4")*%
X214079861Y-98487010D03*
%TO.P,NX6,9,"3"_9*%
%TO.N,Net-(NX6-"3")*%
X214079861Y-102987010D03*
%TO.P,NX6,10,"2"_10*%
%TO.N,Net-(NX6-"2")*%
X214079861Y-107487010D03*
%TO.P,NX6,11,"1"_11*%
%TO.N,Net-(NX6-"1")*%
X215829861Y-110987010D03*
%TO.P,NX6,12,"."_12*%
%TO.N,unconnected-(NX6-"."-Pad12)*%
X219829861Y-111987010D03*
%TD*%
D15*
%TO.P,D7,1,VDD_1*%
%TO.N,VCC*%
X120645000Y-98196400D03*
D16*
%TO.P,D7,2,DOUT_2*%
%TO.N,Net-(D7-DOUT)*%
X123195000Y-98196400D03*
%TO.P,D7,3,VSS_3*%
%TO.N,GND*%
X121925000Y-98196400D03*
D17*
%TO.P,D7,4,DIN_4*%
%TO.N,Net-(D6-DOUT)*%
X119385000Y-98196400D03*
%TD*%
D10*
%TO.P,NX1,1,A_1*%
%TO.N,Net-(NX1-A)*%
X84220766Y-111188000D03*
D11*
%TO.P,NX1,2,"0"_2*%
%TO.N,Net-(NX1-"0")*%
X85970766Y-107688000D03*
%TO.P,NX1,3,"9"_3*%
%TO.N,Net-(NX1-"9")*%
X85970766Y-103188000D03*
%TO.P,NX1,4,"8"_4*%
%TO.N,Net-(NX1-"8")*%
X85970766Y-98688000D03*
%TO.P,NX1,5,"7"_5*%
%TO.N,Net-(NX1-"7")*%
X84220766Y-95188000D03*
%TO.P,NX1,6,"6"_6*%
%TO.N,Net-(NX1-"6")*%
X80220766Y-94188000D03*
%TO.P,NX1,7,"5"_7*%
%TO.N,Net-(NX1-"5")*%
X76220766Y-95188000D03*
%TO.P,NX1,8,"4"_8*%
%TO.N,Net-(NX1-"4")*%
X74470766Y-98688000D03*
%TO.P,NX1,9,"3"_9*%
%TO.N,Net-(NX1-"3")*%
X74470766Y-103188000D03*
%TO.P,NX1,10,"2"_10*%
%TO.N,Net-(NX1-"2")*%
X74470766Y-107688000D03*
%TO.P,NX1,11,"1"_11*%
%TO.N,Net-(NX1-"1")*%
X76220766Y-111188000D03*
%TO.P,NX1,12,"."_12*%
%TO.N,unconnected-(NX1-"."-Pad12)*%
X80220766Y-112188000D03*
%TD*%
D14*
%TO.P,R66,1*%
%TO.N,/HV*%
X117360907Y-121063371D03*
%TO.P,R66,2*%
%TO.N,Net-(NX2-A)*%
X117360907Y-113443371D03*
%TD*%
D10*
%TO.P,NX4,1,A_1*%
%TO.N,Net-(NX4-A)*%
X166890200Y-111149400D03*
D11*
%TO.P,NX4,2,"0"_2*%
%TO.N,Net-(NX4-"0")*%
X168640200Y-107649400D03*
%TO.P,NX4,3,"9"_3*%
%TO.N,Net-(NX4-"9")*%
X168640200Y-103149400D03*
%TO.P,NX4,4,"8"_4*%
%TO.N,Net-(NX4-"8")*%
X168640200Y-98649400D03*
%TO.P,NX4,5,"7"_5*%
%TO.N,Net-(NX4-"7")*%
X166890200Y-95149400D03*
%TO.P,NX4,6,"6"_6*%
%TO.N,Net-(NX4-"6")*%
X162890200Y-94149400D03*
%TO.P,NX4,7,"5"_7*%
%TO.N,Net-(NX4-"5")*%
X158890200Y-95149400D03*
%TO.P,NX4,8,"4"_8*%
%TO.N,Net-(NX4-"4")*%
X157140200Y-98649400D03*
%TO.P,NX4,9,"3"_9*%
%TO.N,Net-(NX4-"3")*%
X157140200Y-103149400D03*
%TO.P,NX4,10,"2"_10*%
%TO.N,Net-(NX4-"2")*%
X157140200Y-107649400D03*
%TO.P,NX4,11,"1"_11*%
%TO.N,Net-(NX4-"1")*%
X158890200Y-111149400D03*
%TO.P,NX4,12,"."_12*%
%TO.N,unconnected-(NX4-"."-Pad12)*%
X162890200Y-112149400D03*
%TD*%
D14*
%TO.P,R69,1*%
%TO.N,/HV*%
X206527400Y-121338822D03*
%TO.P,R69,2*%
%TO.N,Net-(NX5-A)*%
X206527400Y-113718822D03*
%TD*%
D15*
%TO.P,D10,1,VDD_1*%
%TO.N,VCC*%
X178125200Y-108585000D03*
D16*
%TO.P,D10,2,DOUT_2*%
%TO.N,unconnected-(D10-DOUT-Pad2)*%
X180675200Y-108585000D03*
%TO.P,D10,3,VSS_3*%
%TO.N,GND*%
X179405200Y-108585000D03*
D17*
%TO.P,D10,4,DIN_4*%
%TO.N,Net-(D10-DIN)*%
X176865200Y-108585000D03*
%TD*%
D15*
%TO.P,D9,1,VDD_1*%
%TO.N,VCC*%
X178125200Y-98196400D03*
D16*
%TO.P,D9,2,DOUT_2*%
%TO.N,Net-(D10-DIN)*%
X180675200Y-98196400D03*
%TO.P,D9,3,VSS_3*%
%TO.N,GND*%
X179405200Y-98196400D03*
D17*
%TO.P,D9,4,DIN_4*%
%TO.N,Net-(D8-DOUT)*%
X176865200Y-98196400D03*
%TD*%
D14*
%TO.P,R68,1*%
%TO.N,/HV*%
X174599600Y-121304421D03*
%TO.P,R68,2*%
%TO.N,Net-(NX4-A)*%
X174599600Y-113684421D03*
%TD*%
%TO.P,R65,1*%
%TO.N,/HV*%
X92151200Y-121080411D03*
%TO.P,R65,2*%
%TO.N,Net-(NX1-A)*%
X92151200Y-113460411D03*
%TD*%
D10*
%TO.P,NX5,1,A_1*%
%TO.N,Net-(NX5-A)*%
X198834833Y-111019793D03*
D11*
%TO.P,NX5,2,"0"_2*%
%TO.N,Net-(NX5-"0")*%
X200584833Y-107519793D03*
%TO.P,NX5,3,"9"_3*%
%TO.N,Net-(NX5-"9")*%
X200584833Y-103019793D03*
%TO.P,NX5,4,"8"_4*%
%TO.N,Net-(NX5-"8")*%
X200584833Y-98519793D03*
%TO.P,NX5,5,"7"_5*%
%TO.N,Net-(NX5-"7")*%
X198834833Y-95019793D03*
%TO.P,NX5,6,"6"_6*%
%TO.N,Net-(NX5-"6")*%
X194834833Y-94019793D03*
%TO.P,NX5,7,"5"_7*%
%TO.N,Net-(NX5-"5")*%
X190834833Y-95019793D03*
%TO.P,NX5,8,"4"_8*%
%TO.N,Net-(NX5-"4")*%
X189084833Y-98519793D03*
%TO.P,NX5,9,"3"_9*%
%TO.N,Net-(NX5-"3")*%
X189084833Y-103019793D03*
%TO.P,NX5,10,"2"_10*%
%TO.N,Net-(NX5-"2")*%
X189084833Y-107519793D03*
%TO.P,NX5,11,"1"_11*%
%TO.N,Net-(NX5-"1")*%
X190834833Y-111019793D03*
%TO.P,NX5,12,"."_12*%
%TO.N,unconnected-(NX5-"."-Pad12)*%
X194834833Y-112019793D03*
%TD*%
D18*
%TO.P,R36,1*%
%TO.N,Net-(U3-GPA5)*%
X154321000Y-90576400D03*
%TO.P,R36,2*%
%TO.N,Net-(Q36-PadB)*%
X156321000Y-90576400D03*
%TD*%
D19*
%TO.P,Q13,B,B_B*%
%TO.N,Net-(Q13-PadB)*%
X94293800Y-106131400D03*
%TO.P,Q13,C,C_C*%
%TO.N,Net-(NX2-"3")*%
X97713800Y-105181400D03*
%TO.P,Q13,E,E_E*%
%TO.N,HVGND*%
X94293800Y-104231400D03*
%TD*%
D18*
%TO.P,R29,1*%
%TO.N,Net-(U2-GPB4)*%
X147082000Y-101701600D03*
%TO.P,R29,2*%
%TO.N,Net-(Q29-PadB)*%
X149082000Y-101701600D03*
%TD*%
D20*
%TO.P,R17,1*%
%TO.N,Net-(U2-GPA0)*%
X115782600Y-89839800D03*
%TO.P,R17,2*%
%TO.N,Net-(Q17-PadB)*%
X113782600Y-89839800D03*
%TD*%
D19*
%TO.P,Q24,B,B_B*%
%TO.N,Net-(Q24-PadB)*%
X126111000Y-100584000D03*
%TO.P,Q24,C,C_C*%
%TO.N,Net-(NX3-"4")*%
X129531000Y-99634000D03*
%TO.P,Q24,E,E_E*%
%TO.N,HVGND*%
X126111000Y-98684000D03*
%TD*%
D20*
%TO.P,R1,1*%
%TO.N,Net-(U1-GPA0)*%
X73542400Y-117525800D03*
%TO.P,R1,2*%
%TO.N,Net-(Q1-PadB)*%
X71542400Y-117525800D03*
%TD*%
D18*
%TO.P,R35,1*%
%TO.N,Net-(U3-GPA4)*%
X152085800Y-96621600D03*
%TO.P,R35,2*%
%TO.N,Net-(Q35-PadB)*%
X154085800Y-96621600D03*
%TD*%
D19*
%TO.P,Q52,B,B_B*%
%TO.N,Net-(Q52-PadB)*%
X209457400Y-111414600D03*
%TO.P,Q52,C,C_C*%
%TO.N,Net-(NX6-"2")*%
X212877400Y-110464600D03*
%TO.P,Q52,E,E_E*%
%TO.N,HVGND*%
X209457400Y-109514600D03*
%TD*%
%TO.P,Q32,B,B_B*%
%TO.N,Net-(Q32-PadB)*%
X152704800Y-111937800D03*
%TO.P,Q32,C,C_C*%
%TO.N,Net-(NX4-"2")*%
X156124800Y-110987800D03*
%TO.P,Q32,E,E_E*%
%TO.N,HVGND*%
X152704800Y-110037800D03*
%TD*%
%TO.P,Q2,B,B_B*%
%TO.N,Net-(Q2-PadB)*%
X69776946Y-111721546D03*
%TO.P,Q2,C,C_C*%
%TO.N,Net-(NX1-"2")*%
X73196946Y-110771546D03*
%TO.P,Q2,E,E_E*%
%TO.N,HVGND*%
X69776946Y-109821546D03*
%TD*%
D20*
%TO.P,R28,1*%
%TO.N,Net-(U2-GPB3)*%
X147913600Y-91744800D03*
%TO.P,R28,2*%
%TO.N,Net-(Q28-PadB)*%
X145913600Y-91744800D03*
%TD*%
D19*
%TO.P,Q6,B,B_B*%
%TO.N,Net-(Q6-PadB)*%
X75447000Y-92161400D03*
%TO.P,Q6,C,C_C*%
%TO.N,Net-(NX1-"6")*%
X78867000Y-91211400D03*
%TO.P,Q6,E,E_E*%
%TO.N,HVGND*%
X75447000Y-90261400D03*
%TD*%
D18*
%TO.P,R45,1*%
%TO.N,Net-(U3-GPB6)*%
X182896000Y-96697800D03*
%TO.P,R45,2*%
%TO.N,Net-(Q45-PadB)*%
X184896000Y-96697800D03*
%TD*%
%TO.P,R20,1*%
%TO.N,Net-(U2-GPA3)*%
X115001800Y-107518200D03*
%TO.P,R20,2*%
%TO.N,Net-(Q20-PadB)*%
X117001800Y-107518200D03*
%TD*%
%TO.P,R15,1*%
%TO.N,Net-(U1-GPB6)*%
X94910400Y-96723200D03*
%TO.P,R15,2*%
%TO.N,Net-(Q15-PadB)*%
X96910400Y-96723200D03*
%TD*%
D19*
%TO.P,Q5,B,B_B*%
%TO.N,Net-(Q5-PadB)*%
X69325600Y-94729517D03*
%TO.P,Q5,C,C_C*%
%TO.N,Net-(NX1-"5")*%
X72745600Y-93779517D03*
%TO.P,Q5,E,E_E*%
%TO.N,HVGND*%
X69325600Y-92829517D03*
%TD*%
D21*
%TO.P,Q48,B,B_B*%
%TO.N,Net-(Q48-PadB)*%
X205096000Y-93842800D03*
%TO.P,Q48,C,C_C*%
%TO.N,Net-(NX5-"8")*%
X201676000Y-94792800D03*
%TO.P,Q48,E,E_E*%
%TO.N,HVGND*%
X205096000Y-95742800D03*
%TD*%
D20*
%TO.P,R37,1*%
%TO.N,Net-(U3-GPA6)*%
X173339000Y-90043000D03*
%TO.P,R37,2*%
%TO.N,Net-(Q37-PadB)*%
X171339000Y-90043000D03*
%TD*%
D22*
%TO.P,C3,1*%
%TO.N,VCC*%
X184861200Y-82727800D03*
%TO.P,C3,2*%
%TO.N,GND*%
X182786200Y-82727800D03*
%TD*%
D21*
%TO.P,Q40,B,B_B*%
%TO.N,Net-(Q40-PadB)*%
X173549200Y-109413000D03*
%TO.P,Q40,C,C_C*%
%TO.N,Net-(NX4-"0")*%
X170129200Y-110363000D03*
%TO.P,Q40,E,E_E*%
%TO.N,HVGND*%
X173549200Y-111313000D03*
%TD*%
D19*
%TO.P,Q11,B,B_B*%
%TO.N,Net-(Q11-PadB)*%
X97164000Y-115402400D03*
%TO.P,Q11,C,C_C*%
%TO.N,Net-(NX2-"1")*%
X100584000Y-114452400D03*
%TO.P,Q11,E,E_E*%
%TO.N,HVGND*%
X97164000Y-113502400D03*
%TD*%
D18*
%TO.P,R46,1*%
%TO.N,Net-(U3-GPB7)*%
X186502800Y-90881200D03*
%TO.P,R46,2*%
%TO.N,Net-(Q46-PadB)*%
X188502800Y-90881200D03*
%TD*%
D21*
%TO.P,Q37,B,B_B*%
%TO.N,Net-(Q37-PadB)*%
X168977200Y-90236000D03*
%TO.P,Q37,C,C_C*%
%TO.N,Net-(NX4-"7")*%
X165557200Y-91186000D03*
%TO.P,Q37,E,E_E*%
%TO.N,HVGND*%
X168977200Y-92136000D03*
%TD*%
%TO.P,Q18,B,B_B*%
%TO.N,Net-(Q18-PadB)*%
X115967400Y-93665000D03*
%TO.P,Q18,C,C_C*%
%TO.N,Net-(NX2-"8")*%
X112547400Y-94615000D03*
%TO.P,Q18,E,E_E*%
%TO.N,HVGND*%
X115967400Y-95565000D03*
%TD*%
D18*
%TO.P,R39,1*%
%TO.N,Net-(U3-GPB0)*%
X172075600Y-101904800D03*
%TO.P,R39,2*%
%TO.N,Net-(Q39-PadB)*%
X174075600Y-101904800D03*
%TD*%
D19*
%TO.P,Q4,B,B_B*%
%TO.N,Net-(Q4-PadB)*%
X68876600Y-100613700D03*
%TO.P,Q4,C,C_C*%
%TO.N,Net-(NX1-"4")*%
X72296600Y-99663700D03*
%TO.P,Q4,E,E_E*%
%TO.N,HVGND*%
X68876600Y-98713700D03*
%TD*%
%TO.P,Q21,B,B_B*%
%TO.N,Net-(Q21-PadB)*%
X129447400Y-115427800D03*
%TO.P,Q21,C,C_C*%
%TO.N,Net-(NX3-"1")*%
X132867400Y-114477800D03*
%TO.P,Q21,E,E_E*%
%TO.N,HVGND*%
X129447400Y-113527800D03*
%TD*%
D20*
%TO.P,R11,1*%
%TO.N,Net-(U1-GPB2)*%
X98748600Y-117424200D03*
%TO.P,R11,2*%
%TO.N,Net-(Q11-PadB)*%
X96748600Y-117424200D03*
%TD*%
D21*
%TO.P,Q10,B,B_B*%
%TO.N,Net-(Q10-PadB)*%
X91024600Y-109108200D03*
%TO.P,Q10,C,C_C*%
%TO.N,Net-(NX1-"0")*%
X87604600Y-110058200D03*
%TO.P,Q10,E,E_E*%
%TO.N,HVGND*%
X91024600Y-111008200D03*
%TD*%
D19*
%TO.P,Q54,B,B_B*%
%TO.N,Net-(Q54-PadB)*%
X208805200Y-100416400D03*
%TO.P,Q54,C,C_C*%
%TO.N,Net-(NX6-"4")*%
X212225200Y-99466400D03*
%TO.P,Q54,E,E_E*%
%TO.N,HVGND*%
X208805200Y-98516400D03*
%TD*%
D21*
%TO.P,Q39,B,B_B*%
%TO.N,Net-(Q39-PadB)*%
X173930200Y-103901200D03*
%TO.P,Q39,C,C_C*%
%TO.N,Net-(NX4-"9")*%
X170510200Y-104851200D03*
%TO.P,Q39,E,E_E*%
%TO.N,HVGND*%
X173930200Y-105801200D03*
%TD*%
D19*
%TO.P,Q1,B,B_B*%
%TO.N,Net-(Q1-PadB)*%
X71891000Y-115569084D03*
%TO.P,Q1,C,C_C*%
%TO.N,Net-(NX1-"1")*%
X75311000Y-114619084D03*
%TO.P,Q1,E,E_E*%
%TO.N,HVGND*%
X71891000Y-113669084D03*
%TD*%
%TO.P,Q3,B,B_B*%
%TO.N,Net-(Q3-PadB)*%
X69279020Y-106130538D03*
%TO.P,Q3,C,C_C*%
%TO.N,Net-(NX1-"3")*%
X72699020Y-105180538D03*
%TO.P,Q3,E,E_E*%
%TO.N,HVGND*%
X69279020Y-104230538D03*
%TD*%
D18*
%TO.P,R9,1*%
%TO.N,Net-(U1-GPB0)*%
X89474800Y-101701600D03*
%TO.P,R9,2*%
%TO.N,Net-(Q9-PadB)*%
X91474800Y-101701600D03*
%TD*%
D19*
%TO.P,Q33,B,B_B*%
%TO.N,Net-(Q33-PadB)*%
X151901000Y-106207600D03*
%TO.P,Q33,C,C_C*%
%TO.N,Net-(NX4-"3")*%
X155321000Y-105257600D03*
%TO.P,Q33,E,E_E*%
%TO.N,HVGND*%
X151901000Y-104307600D03*
%TD*%
D18*
%TO.P,R6,1*%
%TO.N,Net-(U1-GPA5)*%
X71101200Y-90972173D03*
%TO.P,R6,2*%
%TO.N,Net-(Q6-PadB)*%
X73101200Y-90972173D03*
%TD*%
D19*
%TO.P,Q25,B,B_B*%
%TO.N,Net-(Q25-PadB)*%
X126974600Y-94640400D03*
%TO.P,Q25,C,C_C*%
%TO.N,Net-(NX3-"5")*%
X130394600Y-93690400D03*
%TO.P,Q25,E,E_E*%
%TO.N,HVGND*%
X126974600Y-92740400D03*
%TD*%
D20*
%TO.P,R7,1*%
%TO.N,Net-(U1-GPA6)*%
X90281000Y-90017600D03*
%TO.P,R7,2*%
%TO.N,Net-(Q7-PadB)*%
X88281000Y-90017600D03*
%TD*%
D21*
%TO.P,Q49,B,B_B*%
%TO.N,Net-(Q49-PadB)*%
X205852868Y-103876636D03*
%TO.P,Q49,C,C_C*%
%TO.N,Net-(NX5-"9")*%
X202432868Y-104826636D03*
%TO.P,Q49,E,E_E*%
%TO.N,HVGND*%
X205852868Y-105776636D03*
%TD*%
%TO.P,Q38,B,B_B*%
%TO.N,Net-(Q38-PadB)*%
X173320600Y-93792000D03*
%TO.P,Q38,C,C_C*%
%TO.N,Net-(NX4-"8")*%
X169900600Y-94742000D03*
%TO.P,Q38,E,E_E*%
%TO.N,HVGND*%
X173320600Y-95692000D03*
%TD*%
D20*
%TO.P,R49,1*%
%TO.N,Net-(U4-GPA2)*%
X206176068Y-101880236D03*
%TO.P,R49,2*%
%TO.N,Net-(Q49-PadB)*%
X204176068Y-101880236D03*
%TD*%
D21*
%TO.P,Q59,B,B_B*%
%TO.N,Net-(Q59-PadB)*%
X231334200Y-103875800D03*
%TO.P,Q59,C,C_C*%
%TO.N,Net-(NX6-"9")*%
X227914200Y-104825800D03*
%TO.P,Q59,E,E_E*%
%TO.N,HVGND*%
X231334200Y-105775800D03*
%TD*%
%TO.P,Q9,B,B_B*%
%TO.N,Net-(Q9-PadB)*%
X91397400Y-103723400D03*
%TO.P,Q9,C,C_C*%
%TO.N,Net-(NX1-"9")*%
X87977400Y-104673400D03*
%TO.P,Q9,E,E_E*%
%TO.N,HVGND*%
X91397400Y-105623400D03*
%TD*%
D19*
%TO.P,Q31,B,B_B*%
%TO.N,Net-(Q31-PadB)*%
X154863800Y-115646200D03*
%TO.P,Q31,C,C_C*%
%TO.N,Net-(NX4-"1")*%
X158283800Y-114696200D03*
%TO.P,Q31,E,E_E*%
%TO.N,HVGND*%
X154863800Y-113746200D03*
%TD*%
D23*
%TO.P,R22,1*%
%TO.N,Net-(U2-GPA5)*%
X126898400Y-115579400D03*
%TO.P,R22,2*%
%TO.N,Net-(Q22-PadB)*%
X126898400Y-113579400D03*
%TD*%
D18*
%TO.P,R24,1*%
%TO.N,Net-(U2-GPA7)*%
X126914400Y-102362000D03*
%TO.P,R24,2*%
%TO.N,Net-(Q24-PadB)*%
X128914400Y-102362000D03*
%TD*%
D19*
%TO.P,Q53,B,B_B*%
%TO.N,Net-(Q53-PadB)*%
X208847800Y-105852000D03*
%TO.P,Q53,C,C_C*%
%TO.N,Net-(NX6-"3")*%
X212267800Y-104902000D03*
%TO.P,Q53,E,E_E*%
%TO.N,HVGND*%
X208847800Y-103952000D03*
%TD*%
D18*
%TO.P,R41,1*%
%TO.N,Net-(U3-GPB2)*%
X186375800Y-117525800D03*
%TO.P,R41,2*%
%TO.N,Net-(Q41-PadB)*%
X188375800Y-117525800D03*
%TD*%
D20*
%TO.P,R47,1*%
%TO.N,Net-(U4-GPA0)*%
X205368400Y-90043000D03*
%TO.P,R47,2*%
%TO.N,Net-(Q47-PadB)*%
X203368400Y-90043000D03*
%TD*%
D21*
%TO.P,Q28,B,B_B*%
%TO.N,Net-(Q28-PadB)*%
X147912400Y-93467700D03*
%TO.P,Q28,C,C_C*%
%TO.N,Net-(NX3-"8")*%
X144492400Y-94417700D03*
%TO.P,Q28,E,E_E*%
%TO.N,HVGND*%
X147912400Y-95367700D03*
%TD*%
D20*
%TO.P,R48,1*%
%TO.N,Net-(U4-GPA1)*%
X205444600Y-92100400D03*
%TO.P,R48,2*%
%TO.N,Net-(Q48-PadB)*%
X203444600Y-92100400D03*
%TD*%
D23*
%TO.P,R2,1*%
%TO.N,Net-(U1-GPA1)*%
X69418200Y-115554000D03*
%TO.P,R2,2*%
%TO.N,Net-(Q2-PadB)*%
X69418200Y-113554000D03*
%TD*%
D19*
%TO.P,Q26,B,B_B*%
%TO.N,Net-(Q26-PadB)*%
X133121400Y-91790600D03*
%TO.P,Q26,C,C_C*%
%TO.N,Net-(NX3-"6")*%
X136541400Y-90840600D03*
%TO.P,Q26,E,E_E*%
%TO.N,HVGND*%
X133121400Y-89890600D03*
%TD*%
D18*
%TO.P,R13,1*%
%TO.N,Net-(U1-GPB4)*%
X94697800Y-107924600D03*
%TO.P,R13,2*%
%TO.N,Net-(Q13-PadB)*%
X96697800Y-107924600D03*
%TD*%
%TO.P,R54,1*%
%TO.N,Net-(U4-GPA7)*%
X209007200Y-102184200D03*
%TO.P,R54,2*%
%TO.N,Net-(Q54-PadB)*%
X211007200Y-102184200D03*
%TD*%
D21*
%TO.P,Q47,B,B_B*%
%TO.N,Net-(Q47-PadB)*%
X200955800Y-90109000D03*
%TO.P,Q47,C,C_C*%
%TO.N,Net-(NX5-"7")*%
X197535800Y-91059000D03*
%TO.P,Q47,E,E_E*%
%TO.N,HVGND*%
X200955800Y-92009000D03*
%TD*%
%TO.P,Q7,B,B_B*%
%TO.N,Net-(Q7-PadB)*%
X85868400Y-90261400D03*
%TO.P,Q7,C,C_C*%
%TO.N,Net-(NX1-"7")*%
X82448400Y-91211400D03*
%TO.P,Q7,E,E_E*%
%TO.N,HVGND*%
X85868400Y-92161400D03*
%TD*%
D18*
%TO.P,R21,1*%
%TO.N,Net-(U2-GPA4)*%
X126695200Y-117576600D03*
%TO.P,R21,2*%
%TO.N,Net-(Q21-PadB)*%
X128695200Y-117576600D03*
%TD*%
D20*
%TO.P,R8,1*%
%TO.N,Net-(U1-GPA7)*%
X91001600Y-92202000D03*
%TO.P,R8,2*%
%TO.N,Net-(Q8-PadB)*%
X89001600Y-92202000D03*
%TD*%
D18*
%TO.P,R10,1*%
%TO.N,Net-(U1-GPB1)*%
X89440000Y-107315000D03*
%TO.P,R10,2*%
%TO.N,Net-(Q10-PadB)*%
X91440000Y-107315000D03*
%TD*%
D19*
%TO.P,Q12,B,B_B*%
%TO.N,Net-(Q12-PadB)*%
X95106600Y-111668600D03*
%TO.P,Q12,C,C_C*%
%TO.N,Net-(NX2-"2")*%
X98526600Y-110718600D03*
%TO.P,Q12,E,E_E*%
%TO.N,HVGND*%
X95106600Y-109768600D03*
%TD*%
D18*
%TO.P,R30,1*%
%TO.N,Net-(U2-GPB5)*%
X146751800Y-107416600D03*
%TO.P,R30,2*%
%TO.N,Net-(Q30-PadB)*%
X148751800Y-107416600D03*
%TD*%
%TO.P,R60,1*%
%TO.N,Net-(U4-GPB5)*%
X228819200Y-107619800D03*
%TO.P,R60,2*%
%TO.N,Net-(Q60-PadB)*%
X230819200Y-107619800D03*
%TD*%
D24*
%TO.P,R57,1*%
%TO.N,Net-(U4-GPB2)*%
X228498400Y-89957400D03*
%TO.P,R57,2*%
%TO.N,Net-(Q57-PadB)*%
X228498400Y-91957400D03*
%TD*%
D19*
%TO.P,Q34,B,B_B*%
%TO.N,Net-(Q34-PadB)*%
X151520000Y-100594200D03*
%TO.P,Q34,C,C_C*%
%TO.N,Net-(NX4-"4")*%
X154940000Y-99644200D03*
%TO.P,Q34,E,E_E*%
%TO.N,HVGND*%
X151520000Y-98694200D03*
%TD*%
D20*
%TO.P,R18,1*%
%TO.N,Net-(U2-GPA1)*%
X116163600Y-91821000D03*
%TO.P,R18,2*%
%TO.N,Net-(Q18-PadB)*%
X114163600Y-91821000D03*
%TD*%
D19*
%TO.P,Q14,B,B_B*%
%TO.N,Net-(Q14-PadB)*%
X93819400Y-100568800D03*
%TO.P,Q14,C,C_C*%
%TO.N,Net-(NX2-"4")*%
X97239400Y-99618800D03*
%TO.P,Q14,E,E_E*%
%TO.N,HVGND*%
X93819400Y-98668800D03*
%TD*%
%TO.P,Q44,B,B_B*%
%TO.N,Net-(Q44-PadB)*%
X183413400Y-100482400D03*
%TO.P,Q44,C,C_C*%
%TO.N,Net-(NX5-"4")*%
X186833400Y-99532400D03*
%TO.P,Q44,E,E_E*%
%TO.N,HVGND*%
X183413400Y-98582400D03*
%TD*%
D18*
%TO.P,R33,1*%
%TO.N,Net-(U3-GPA2)*%
X152365200Y-108204000D03*
%TO.P,R33,2*%
%TO.N,Net-(Q33-PadB)*%
X154365200Y-108204000D03*
%TD*%
%TO.P,R44,1*%
%TO.N,Net-(U3-GPB5)*%
X182718200Y-102311200D03*
%TO.P,R44,2*%
%TO.N,Net-(Q44-PadB)*%
X184718200Y-102311200D03*
%TD*%
%TO.P,R59,1*%
%TO.N,Net-(U4-GPB4)*%
X229759000Y-101904800D03*
%TO.P,R59,2*%
%TO.N,Net-(Q59-PadB)*%
X231759000Y-101904800D03*
%TD*%
%TO.P,R3,1*%
%TO.N,Net-(U1-GPA2)*%
X69374000Y-107943236D03*
%TO.P,R3,2*%
%TO.N,Net-(Q3-PadB)*%
X71374000Y-107943236D03*
%TD*%
D19*
%TO.P,Q42,B,B_B*%
%TO.N,Net-(Q42-PadB)*%
X184632600Y-111602600D03*
%TO.P,Q42,C,C_C*%
%TO.N,Net-(NX5-"2")*%
X188052600Y-110652600D03*
%TO.P,Q42,E,E_E*%
%TO.N,HVGND*%
X184632600Y-109702600D03*
%TD*%
D21*
%TO.P,Q20,B,B_B*%
%TO.N,Net-(Q20-PadB)*%
X116577000Y-109235200D03*
%TO.P,Q20,C,C_C*%
%TO.N,Net-(NX2-"0")*%
X113157000Y-110185200D03*
%TO.P,Q20,E,E_E*%
%TO.N,HVGND*%
X116577000Y-111135200D03*
%TD*%
D20*
%TO.P,R38,1*%
%TO.N,Net-(U3-GPA7)*%
X173339000Y-92075000D03*
%TO.P,R38,2*%
%TO.N,Net-(Q38-PadB)*%
X171339000Y-92075000D03*
%TD*%
D19*
%TO.P,Q16,B,B_B*%
%TO.N,Net-(Q16-PadB)*%
X100974000Y-91958200D03*
%TO.P,Q16,C,C_C*%
%TO.N,Net-(NX2-"6")*%
X104394000Y-91008200D03*
%TO.P,Q16,E,E_E*%
%TO.N,HVGND*%
X100974000Y-90058200D03*
%TD*%
D21*
%TO.P,Q58,B,B_B*%
%TO.N,Net-(Q58-PadB)*%
X230013400Y-93766600D03*
%TO.P,Q58,C,C_C*%
%TO.N,Net-(NX6-"8")*%
X226593400Y-94716600D03*
%TO.P,Q58,E,E_E*%
%TO.N,HVGND*%
X230013400Y-95666600D03*
%TD*%
D18*
%TO.P,R16,1*%
%TO.N,Net-(U1-GPB7)*%
X96637600Y-91109800D03*
%TO.P,R16,2*%
%TO.N,Net-(Q16-PadB)*%
X98637600Y-91109800D03*
%TD*%
%TO.P,R23,1*%
%TO.N,Net-(U2-GPA6)*%
X126787400Y-107950000D03*
%TO.P,R23,2*%
%TO.N,Net-(Q23-PadB)*%
X128787400Y-107950000D03*
%TD*%
D21*
%TO.P,Q30,B,B_B*%
%TO.N,Net-(Q30-PadB)*%
X148412200Y-109301200D03*
%TO.P,Q30,C,C_C*%
%TO.N,Net-(NX3-"0")*%
X144992200Y-110251200D03*
%TO.P,Q30,E,E_E*%
%TO.N,HVGND*%
X148412200Y-111201200D03*
%TD*%
D18*
%TO.P,R34,1*%
%TO.N,Net-(U3-GPA3)*%
X152314400Y-102412800D03*
%TO.P,R34,2*%
%TO.N,Net-(Q34-PadB)*%
X154314400Y-102412800D03*
%TD*%
D19*
%TO.P,Q56,B,B_B*%
%TO.N,Net-(Q56-PadB)*%
X215756600Y-91907400D03*
%TO.P,Q56,C,C_C*%
%TO.N,Net-(NX6-"6")*%
X219176600Y-90957400D03*
%TO.P,Q56,E,E_E*%
%TO.N,HVGND*%
X215756600Y-90007400D03*
%TD*%
D18*
%TO.P,R4,1*%
%TO.N,Net-(U1-GPA3)*%
X69459027Y-102412800D03*
%TO.P,R4,2*%
%TO.N,Net-(Q4-PadB)*%
X71459027Y-102412800D03*
%TD*%
D20*
%TO.P,R50,1*%
%TO.N,Net-(U4-GPA3)*%
X205978000Y-107696000D03*
%TO.P,R50,2*%
%TO.N,Net-(Q50-PadB)*%
X203978000Y-107696000D03*
%TD*%
D19*
%TO.P,Q46,B,B_B*%
%TO.N,Net-(Q46-PadB)*%
X190855600Y-92044600D03*
%TO.P,Q46,C,C_C*%
%TO.N,Net-(NX5-"6")*%
X194275600Y-91094600D03*
%TO.P,Q46,E,E_E*%
%TO.N,HVGND*%
X190855600Y-90144600D03*
%TD*%
D18*
%TO.P,R43,1*%
%TO.N,Net-(U3-GPB4)*%
X183632600Y-107873800D03*
%TO.P,R43,2*%
%TO.N,Net-(Q43-PadB)*%
X185632600Y-107873800D03*
%TD*%
D21*
%TO.P,Q17,B,B_B*%
%TO.N,Net-(Q17-PadB)*%
X111420800Y-90007400D03*
%TO.P,Q17,C,C_C*%
%TO.N,Net-(NX2-"7")*%
X108000800Y-90957400D03*
%TO.P,Q17,E,E_E*%
%TO.N,HVGND*%
X111420800Y-91907400D03*
%TD*%
D18*
%TO.P,R14,1*%
%TO.N,Net-(U1-GPB5)*%
X94977200Y-102412800D03*
%TO.P,R14,2*%
%TO.N,Net-(Q14-PadB)*%
X96977200Y-102412800D03*
%TD*%
D19*
%TO.P,Q36,B,B_B*%
%TO.N,Net-(Q36-PadB)*%
X158682800Y-92136000D03*
%TO.P,Q36,C,C_C*%
%TO.N,Net-(NX4-"6")*%
X162102800Y-91186000D03*
%TO.P,Q36,E,E_E*%
%TO.N,HVGND*%
X158682800Y-90236000D03*
%TD*%
D23*
%TO.P,R32,1*%
%TO.N,Net-(U3-GPA1)*%
X152425400Y-115833400D03*
%TO.P,R32,2*%
%TO.N,Net-(Q32-PadB)*%
X152425400Y-113833400D03*
%TD*%
%TO.P,R12,1*%
%TO.N,Net-(U1-GPB3)*%
X94792800Y-115477800D03*
%TO.P,R12,2*%
%TO.N,Net-(Q12-PadB)*%
X94792800Y-113477800D03*
%TD*%
D21*
%TO.P,Q29,B,B_B*%
%TO.N,Net-(Q29-PadB)*%
X149072600Y-103687800D03*
%TO.P,Q29,C,C_C*%
%TO.N,Net-(NX3-"9")*%
X145652600Y-104637800D03*
%TO.P,Q29,E,E_E*%
%TO.N,HVGND*%
X149072600Y-105587800D03*
%TD*%
D18*
%TO.P,R25,1*%
%TO.N,Net-(U2-GPB0)*%
X126803400Y-96748600D03*
%TO.P,R25,2*%
%TO.N,Net-(Q25-PadB)*%
X128803400Y-96748600D03*
%TD*%
D22*
%TO.P,C4,1*%
%TO.N,VCC*%
X217728800Y-85623400D03*
%TO.P,C4,2*%
%TO.N,GND*%
X215653800Y-85623400D03*
%TD*%
D18*
%TO.P,R55,1*%
%TO.N,Net-(U4-GPB0)*%
X209235800Y-96697800D03*
%TO.P,R55,2*%
%TO.N,Net-(Q55-PadB)*%
X211235800Y-96697800D03*
%TD*%
D19*
%TO.P,Q22,B,B_B*%
%TO.N,Net-(Q22-PadB)*%
X127177800Y-111704200D03*
%TO.P,Q22,C,C_C*%
%TO.N,Net-(NX3-"2")*%
X130597800Y-110754200D03*
%TO.P,Q22,E,E_E*%
%TO.N,HVGND*%
X127177800Y-109804200D03*
%TD*%
D22*
%TO.P,C1,1*%
%TO.N,VCC*%
X101672300Y-86182200D03*
%TO.P,C1,2*%
%TO.N,GND*%
X99597300Y-86182200D03*
%TD*%
D25*
%TO.P,C2,1*%
%TO.N,VCC*%
X130610700Y-86766400D03*
%TO.P,C2,2*%
%TO.N,GND*%
X132685700Y-86766400D03*
%TD*%
D18*
%TO.P,R19,1*%
%TO.N,Net-(U2-GPA2)*%
X115052600Y-101803200D03*
%TO.P,R19,2*%
%TO.N,Net-(Q19-PadB)*%
X117052600Y-101803200D03*
%TD*%
%TO.P,R5,1*%
%TO.N,Net-(U1-GPA4)*%
X69993000Y-96697800D03*
%TO.P,R5,2*%
%TO.N,Net-(Q5-PadB)*%
X71993000Y-96697800D03*
%TD*%
D21*
%TO.P,Q27,B,B_B*%
%TO.N,Net-(Q27-PadB)*%
X143551800Y-89880400D03*
%TO.P,Q27,C,C_C*%
%TO.N,Net-(NX3-"7")*%
X140131800Y-90830400D03*
%TO.P,Q27,E,E_E*%
%TO.N,HVGND*%
X143551800Y-91780400D03*
%TD*%
D19*
%TO.P,Q41,B,B_B*%
%TO.N,Net-(Q41-PadB)*%
X186715400Y-115392200D03*
%TO.P,Q41,C,C_C*%
%TO.N,Net-(NX5-"1")*%
X190135400Y-114442200D03*
%TO.P,Q41,E,E_E*%
%TO.N,HVGND*%
X186715400Y-113492200D03*
%TD*%
D18*
%TO.P,R26,1*%
%TO.N,Net-(U2-GPB1)*%
X128616200Y-90855800D03*
%TO.P,R26,2*%
%TO.N,Net-(Q26-PadB)*%
X130616200Y-90855800D03*
%TD*%
D19*
%TO.P,Q45,B,B_B*%
%TO.N,Net-(Q45-PadB)*%
X184810400Y-94686200D03*
%TO.P,Q45,C,C_C*%
%TO.N,Net-(NX5-"5")*%
X188230400Y-93736200D03*
%TO.P,Q45,E,E_E*%
%TO.N,HVGND*%
X184810400Y-92786200D03*
%TD*%
D18*
%TO.P,R56,1*%
%TO.N,Net-(U4-GPB1)*%
X211420200Y-91262200D03*
%TO.P,R56,2*%
%TO.N,Net-(Q56-PadB)*%
X213420200Y-91262200D03*
%TD*%
D21*
%TO.P,Q19,B,B_B*%
%TO.N,Net-(Q19-PadB)*%
X116958000Y-103825000D03*
%TO.P,Q19,C,C_C*%
%TO.N,Net-(NX2-"9")*%
X113538000Y-104775000D03*
%TO.P,Q19,E,E_E*%
%TO.N,HVGND*%
X116958000Y-105725000D03*
%TD*%
D19*
%TO.P,Q43,B,B_B*%
%TO.N,Net-(Q43-PadB)*%
X183896000Y-106116200D03*
%TO.P,Q43,C,C_C*%
%TO.N,Net-(NX5-"3")*%
X187316000Y-105166200D03*
%TO.P,Q43,E,E_E*%
%TO.N,HVGND*%
X183896000Y-104216200D03*
%TD*%
%TO.P,Q15,B,B_B*%
%TO.N,Net-(Q15-PadB)*%
X94776400Y-94777600D03*
%TO.P,Q15,C,C_C*%
%TO.N,Net-(NX2-"5")*%
X98196400Y-93827600D03*
%TO.P,Q15,E,E_E*%
%TO.N,HVGND*%
X94776400Y-92877600D03*
%TD*%
D21*
%TO.P,Q8,B,B_B*%
%TO.N,Net-(Q8-PadB)*%
X90745200Y-94046000D03*
%TO.P,Q8,C,C_C*%
%TO.N,Net-(NX1-"8")*%
X87325200Y-94996000D03*
%TO.P,Q8,E,E_E*%
%TO.N,HVGND*%
X90745200Y-95946000D03*
%TD*%
%TO.P,Q60,B,B_B*%
%TO.N,Net-(Q60-PadB)*%
X230597600Y-109387600D03*
%TO.P,Q60,C,C_C*%
%TO.N,Net-(NX6-"0")*%
X227177600Y-110337600D03*
%TO.P,Q60,E,E_E*%
%TO.N,HVGND*%
X230597600Y-111287600D03*
%TD*%
D18*
%TO.P,R51,1*%
%TO.N,Net-(U4-GPA4)*%
X211217000Y-117144800D03*
%TO.P,R51,2*%
%TO.N,Net-(Q51-PadB)*%
X213217000Y-117144800D03*
%TD*%
D19*
%TO.P,Q51,B,B_B*%
%TO.N,Net-(Q51-PadB)*%
X211718000Y-115173800D03*
%TO.P,Q51,C,C_C*%
%TO.N,Net-(NX6-"1")*%
X215138000Y-114223800D03*
%TO.P,Q51,E,E_E*%
%TO.N,HVGND*%
X211718000Y-113273800D03*
%TD*%
D18*
%TO.P,R40,1*%
%TO.N,Net-(U3-GPB1)*%
X171948600Y-107645200D03*
%TO.P,R40,2*%
%TO.N,Net-(Q40-PadB)*%
X173948600Y-107645200D03*
%TD*%
D19*
%TO.P,Q23,B,B_B*%
%TO.N,Net-(Q23-PadB)*%
X126441200Y-106014600D03*
%TO.P,Q23,C,C_C*%
%TO.N,Net-(NX3-"3")*%
X129861200Y-105064600D03*
%TO.P,Q23,E,E_E*%
%TO.N,HVGND*%
X126441200Y-104114600D03*
%TD*%
D24*
%TO.P,R58,1*%
%TO.N,Net-(U4-GPB3)*%
X230682800Y-89881200D03*
%TO.P,R58,2*%
%TO.N,Net-(Q58-PadB)*%
X230682800Y-91881200D03*
%TD*%
D18*
%TO.P,R31,1*%
%TO.N,Net-(U3-GPA0)*%
X154473400Y-117779800D03*
%TO.P,R31,2*%
%TO.N,Net-(Q31-PadB)*%
X156473400Y-117779800D03*
%TD*%
D20*
%TO.P,R61,1*%
%TO.N,Net-(U1-~{RESET})*%
X97824800Y-86207600D03*
%TO.P,R61,2*%
%TO.N,VCC*%
X95824800Y-86207600D03*
%TD*%
D18*
%TO.P,R53,1*%
%TO.N,Net-(U4-GPA6)*%
X209007200Y-107543600D03*
%TO.P,R53,2*%
%TO.N,Net-(Q53-PadB)*%
X211007200Y-107543600D03*
%TD*%
D19*
%TO.P,Q55,B,B_B*%
%TO.N,Net-(Q55-PadB)*%
X209736800Y-94853800D03*
%TO.P,Q55,C,C_C*%
%TO.N,Net-(NX6-"5")*%
X213156800Y-93903800D03*
%TO.P,Q55,E,E_E*%
%TO.N,HVGND*%
X209736800Y-92953800D03*
%TD*%
D21*
%TO.P,Q57,B,B_B*%
%TO.N,Net-(Q57-PadB)*%
X225974800Y-90007400D03*
%TO.P,Q57,C,C_C*%
%TO.N,Net-(NX6-"7")*%
X222554800Y-90957400D03*
%TO.P,Q57,E,E_E*%
%TO.N,HVGND*%
X225974800Y-91907400D03*
%TD*%
D20*
%TO.P,R27,1*%
%TO.N,Net-(U2-GPB2)*%
X147913600Y-89839800D03*
%TO.P,R27,2*%
%TO.N,Net-(Q27-PadB)*%
X145913600Y-89839800D03*
%TD*%
D23*
%TO.P,R52,1*%
%TO.N,Net-(U4-GPA5)*%
X209067400Y-115300000D03*
%TO.P,R52,2*%
%TO.N,Net-(Q52-PadB)*%
X209067400Y-113300000D03*
%TD*%
%TO.P,R42,1*%
%TO.N,Net-(U3-GPB3)*%
X184327800Y-115427000D03*
%TO.P,R42,2*%
%TO.N,Net-(Q42-PadB)*%
X184327800Y-113427000D03*
%TD*%
D19*
%TO.P,Q35,B,B_B*%
%TO.N,Net-(Q35-PadB)*%
X152688400Y-94676000D03*
%TO.P,Q35,C,C_C*%
%TO.N,Net-(NX4-"5")*%
X156108400Y-93726000D03*
%TO.P,Q35,E,E_E*%
%TO.N,HVGND*%
X152688400Y-92776000D03*
%TD*%
D21*
%TO.P,Q50,B,B_B*%
%TO.N,Net-(Q50-PadB)*%
X205527800Y-109413000D03*
%TO.P,Q50,C,C_C*%
%TO.N,Net-(NX5-"0")*%
X202107800Y-110363000D03*
%TO.P,Q50,E,E_E*%
%TO.N,HVGND*%
X205527800Y-111313000D03*
%TD*%
D26*
%TO.N,VCC*%
X218795600Y-81508600D03*
X130810000Y-84099400D03*
X119532400Y-105435400D03*
X220573600Y-85598000D03*
X95859600Y-84658200D03*
X188772800Y-82651600D03*
X179298600Y-93802200D03*
X130657600Y-88544400D03*
X122072400Y-93599000D03*
X163296600Y-108610400D03*
D27*
%TO.N,Net-(J1-Pin_3)*%
X149199600Y-86664800D03*
X213029800Y-89839800D03*
X191566800Y-86741000D03*
X193680400Y-85775800D03*
X129184400Y-86348000D03*
X128524000Y-89555800D03*
X103682800Y-85725000D03*
X183276896Y-89916000D03*
%TO.N,Net-(J1-Pin_4)*%
X213588600Y-88874600D03*
X106908600Y-81610200D03*
X167462200Y-83681000D03*
X129540000Y-89585800D03*
X184404000Y-89255600D03*
X194513200Y-84531200D03*
X180467000Y-89179400D03*
X190982600Y-87909400D03*
%TO.N,Net-(D1-DIN)*%
X78460600Y-93116400D03*
D26*
%TO.N,GND*%
X126669800Y-86280000D03*
X214249000Y-87884000D03*
X102997000Y-83400000D03*
X129438400Y-84074000D03*
X196037200Y-83388200D03*
X217322400Y-103301800D03*
X160451800Y-106324400D03*
X181381400Y-90144600D03*
X82118200Y-97993200D03*
X170637200Y-117271800D03*
X214223600Y-84239800D03*
X102920800Y-106324400D03*
X184226200Y-84353400D03*
X160274000Y-85686000D03*
X136499600Y-105029000D03*
X220903800Y-89839800D03*
X125958600Y-89814400D03*
X78232000Y-106426000D03*
X99796600Y-87299800D03*
X187147200Y-83642200D03*
D27*
%TO.N,Net-(D8-DOUT)*%
X181291497Y-100876148D03*
X177444400Y-118745000D03*
X133172200Y-118618000D03*
%TO.N,Net-(D7-DOUT)*%
X119507000Y-106984800D03*
%TO.N,Net-(U2-GPB0)*%
X125730000Y-96697800D03*
%TO.N,Net-(U2-GPB1)*%
X125120400Y-95707200D03*
%TO.N,Net-(U2-GPB2)*%
X147946965Y-88081565D03*
%TO.N,Net-(U2-GPB3)*%
X148615400Y-92329000D03*
%TO.N,Net-(U2-GPB4)*%
X147193000Y-100304600D03*
%TO.N,Net-(U2-GPB5)*%
X146532600Y-108458000D03*
%TO.N,Net-(U2-GPA0)*%
X123201700Y-87477600D03*
%TO.N,Net-(U2-GPA1)*%
X121945400Y-88468200D03*
%TO.N,Net-(U2-GPA2)*%
X115112800Y-97688400D03*
%TO.N,Net-(U2-GPA3)*%
X113817400Y-107543600D03*
%TO.N,Net-(U2-GPA4)*%
X118135400Y-86537800D03*
%TO.N,Net-(U2-GPA5)*%
X116814600Y-86563200D03*
%TO.N,Net-(U2-GPA6)*%
X125984000Y-107035600D03*
%TO.N,Net-(U2-GPA7)*%
X112826800Y-85445600D03*
%TO.N,Net-(D2-DOUT)*%
X106045000Y-106553000D03*
X135483600Y-109601000D03*
D26*
%TO.N,HVGND*%
X121539000Y-104165400D03*
X124739400Y-104140000D03*
D27*
%TO.N,Net-(D6-DOUT)*%
X119385000Y-101816600D03*
X121640600Y-116586000D03*
%TO.N,Net-(D10-DIN)*%
X180340000Y-106146600D03*
%TO.N,Net-(U1-GPB0)*%
X88468200Y-100558600D03*
%TO.N,Net-(U1-GPB1)*%
X88925400Y-108483400D03*
%TO.N,Net-(U1-GPB2)*%
X99085400Y-115646200D03*
%TO.N,Net-(U1-GPB3)*%
X93345000Y-115443000D03*
%TO.N,Net-(U1-GPB4)*%
X93497400Y-107873800D03*
%TO.N,Net-(U1-GPB5)*%
X93853000Y-102438200D03*
%TO.N,Net-(U1-GPB6)*%
X93726000Y-96697800D03*
%TO.N,Net-(U1-GPB7)*%
X94386400Y-89458800D03*
%TO.N,Net-(U1-~{RESET})*%
X98120200Y-85140800D03*
%TO.N,Net-(U1-GPA0)*%
X75057000Y-117475000D03*
%TO.N,Net-(U1-GPA1)*%
X69494400Y-117017800D03*
%TO.N,Net-(U1-GPA2)*%
X68249800Y-107924600D03*
%TO.N,Net-(U1-GPA3)*%
X68122800Y-102438200D03*
%TO.N,Net-(U1-GPA4)*%
X68554600Y-96748600D03*
%TO.N,Net-(U1-GPA5)*%
X70075600Y-89611200D03*
%TO.N,Net-(U1-GPA6)*%
X86741000Y-85166200D03*
%TO.N,Net-(U1-GPA7)*%
X85445600Y-84201000D03*
%TO.N,Net-(U3-GPB0)*%
X170916600Y-100888800D03*
%TO.N,Net-(U3-GPB1)*%
X171475400Y-108635800D03*
%TO.N,Net-(U3-GPB2)*%
X184810400Y-117424200D03*
%TO.N,Net-(U3-GPB3)*%
X182626000Y-115392200D03*
%TO.N,Net-(U3-GPB4)*%
X182613764Y-106898588D03*
%TO.N,Net-(U3-GPB5)*%
X181787800Y-102285800D03*
%TO.N,Net-(U3-GPB6)*%
X179679600Y-95326200D03*
%TO.N,Net-(U3-GPB7)*%
X186486800Y-88735600D03*
%TO.N,Net-(U3-GPA0)*%
X153328698Y-117750653D03*
%TO.N,Net-(U3-GPA1)*%
X152450800Y-117271800D03*
%TO.N,Net-(U3-GPA2)*%
X151155400Y-108229400D03*
%TO.N,Net-(U3-GPA3)*%
X151130000Y-102412800D03*
%TO.N,Net-(U3-GPA4)*%
X151257000Y-95732600D03*
%TO.N,Net-(U3-GPA5)*%
X154355800Y-89687400D03*
%TO.N,Net-(U3-GPA6)*%
X168376600Y-85572600D03*
%TO.N,Net-(U3-GPA7)*%
X169875200Y-85116100D03*
%TO.N,Net-(U4-GPB0)*%
X208229200Y-95885000D03*
%TO.N,Net-(U4-GPB1)*%
X204368400Y-87020400D03*
%TO.N,Net-(U4-GPB2)*%
X203301600Y-87528400D03*
%TO.N,Net-(U4-GPB3)*%
X204546200Y-88087200D03*
%TO.N,Net-(U4-GPB4)*%
X228117400Y-101828600D03*
%TO.N,Net-(U4-GPB5)*%
X217906600Y-95935800D03*
%TO.N,Net-(U4-GPA0)*%
X208889600Y-88468200D03*
%TO.N,Net-(U4-GPA1)*%
X206908400Y-89636600D03*
%TO.N,Net-(U4-GPA2)*%
X206146400Y-100558600D03*
X206298800Y-96875600D03*
X206705200Y-88366600D03*
%TO.N,Net-(U4-GPA3)*%
X207137000Y-107721400D03*
X205409800Y-86690200D03*
X207111600Y-97586800D03*
%TO.N,Net-(U4-GPA4)*%
X200075800Y-86004400D03*
X209804000Y-117043200D03*
X195275200Y-85572600D03*
%TO.N,Net-(U4-GPA5)*%
X207060800Y-116078000D03*
X202539600Y-84226400D03*
X196240400Y-85166200D03*
%TO.N,Net-(U4-GPA6)*%
X207467200Y-108864400D03*
X196951600Y-84277200D03*
X201142600Y-84201000D03*
%TO.N,Net-(U4-GPA7)*%
X207975200Y-102158800D03*
%TD*%
%TO.N,Net-(NX2-A)*%
D28*
X109342753Y-111170600D02*
X111615524Y-113443371D01*
X111615524Y-113443371D02*
X117360907Y-113443371D01*
%TO.N,Net-(NX2-"0")*%
X111092753Y-107670600D02*
X113157000Y-109734847D01*
X113157000Y-109734847D02*
X113157000Y-110185200D01*
%TO.N,Net-(NX2-"9")*%
X112697153Y-104775000D02*
X113538000Y-104775000D01*
X111092753Y-103170600D02*
X112697153Y-104775000D01*
%TO.N,Net-(NX2-"8")*%
X112547400Y-97215953D02*
X112547400Y-94615000D01*
X111092753Y-98670600D02*
X112547400Y-97215953D01*
%TO.N,Net-(NX2-"7")*%
X109342753Y-95170600D02*
X108000800Y-93828647D01*
X108000800Y-93828647D02*
X108000800Y-90957400D01*
%TO.N,Net-(NX2-"6")*%
X105342753Y-91956953D02*
X104394000Y-91008200D01*
X105342753Y-94170600D02*
X105342753Y-91956953D01*
%TO.N,Net-(NX2-"5")*%
X101342753Y-95170600D02*
X99539400Y-95170600D01*
X99539400Y-95170600D02*
X98196400Y-93827600D01*
%TO.N,Net-(NX2-"4")*%
X99592753Y-98670600D02*
X98187600Y-98670600D01*
X98187600Y-98670600D02*
X97239400Y-99618800D01*
%TO.N,Net-(NX2-"3")*%
X99592753Y-103302447D02*
X97713800Y-105181400D01*
X99592753Y-103170600D02*
X99592753Y-103302447D01*
%TO.N,Net-(NX2-"2")*%
X99592753Y-107670600D02*
X99592753Y-109652447D01*
X99592753Y-109652447D02*
X98526600Y-110718600D01*
%TO.N,Net-(NX2-"1")*%
X101342753Y-111170600D02*
X101342753Y-113693647D01*
X101342753Y-113693647D02*
X100584000Y-114452400D01*
%TO.N,VCC*%
D29*
X96393000Y-84124800D02*
X95859600Y-84658200D01*
X166141400Y-115798600D02*
X164846000Y-114503200D01*
X129006600Y-85267800D02*
X130352800Y-85267800D01*
X127568400Y-83829600D02*
X129006600Y-85267800D01*
X122072400Y-93599000D02*
X120655000Y-95016400D01*
X217728800Y-85623400D02*
X220548200Y-85623400D01*
X178135200Y-98196400D02*
X178135200Y-108585000D01*
X111039200Y-83829600D02*
X127568400Y-83829600D01*
X130352800Y-85267800D02*
X130657600Y-85572600D01*
X220548200Y-85623400D02*
X220573600Y-85598000D01*
X154286339Y-82943070D02*
X154286339Y-82644861D01*
X111039200Y-83829600D02*
X109286600Y-83829600D01*
X166192200Y-115747800D02*
X166141400Y-115798600D01*
X119532400Y-105435400D02*
X120669599Y-106572599D01*
X120655000Y-95016400D02*
X120655000Y-98196400D01*
X120669599Y-106572599D02*
X120669599Y-109248000D01*
X130657600Y-85572600D02*
X130657600Y-88544400D01*
X184861200Y-81268000D02*
X184810400Y-81217200D01*
X99923600Y-84582000D02*
X99466400Y-84124800D01*
X179298600Y-93802200D02*
X178135200Y-94965600D01*
X130352800Y-85267800D02*
X130810000Y-84810600D01*
X178135200Y-108585000D02*
X178135200Y-113202800D01*
X155714000Y-81217200D02*
X184810400Y-81217200D01*
X188772800Y-82651600D02*
X190207200Y-81217200D01*
X184861200Y-82727800D02*
X184861200Y-81268000D01*
X154286339Y-82644861D02*
X155714000Y-81217200D01*
X175590200Y-115747800D02*
X166192200Y-115747800D01*
X101672300Y-86182200D02*
X101672300Y-84636700D01*
X184810400Y-81217200D02*
X187338400Y-81217200D01*
X218504200Y-81217200D02*
X218795600Y-81508600D01*
X95859600Y-86172800D02*
X95824800Y-86207600D01*
D28*
X130810000Y-84099400D02*
X130810000Y-83972400D01*
D29*
X99466400Y-84124800D02*
X96393000Y-84124800D01*
X163296600Y-108661200D02*
X163296600Y-108610400D01*
X109286600Y-83829600D02*
X108534200Y-84582000D01*
X190207200Y-81217200D02*
X218504200Y-81217200D01*
X164846000Y-110210600D02*
X163296600Y-108661200D01*
X178135200Y-113202800D02*
X175590200Y-115747800D01*
X164846000Y-114503200D02*
X164846000Y-110210600D01*
X130810000Y-84810600D02*
X130810000Y-84099400D01*
X101672300Y-84636700D02*
X101727000Y-84582000D01*
X95859600Y-84658200D02*
X95859600Y-86172800D01*
X178135200Y-94965600D02*
X178135200Y-98196400D01*
X101727000Y-84582000D02*
X99923600Y-84582000D01*
X108534200Y-84582000D02*
X101727000Y-84582000D01*
X187338400Y-81217200D02*
X188772800Y-82651600D01*
%TO.N,Net-(J1-Pin_3)*%
D28*
X194424300Y-87591900D02*
X193624200Y-86791800D01*
X184505600Y-86487000D02*
X191312800Y-86487000D01*
X149199600Y-86664800D02*
X165684200Y-86664800D01*
X129044000Y-86348000D02*
X129184400Y-86348000D01*
X111963200Y-84429600D02*
X127266000Y-84429600D01*
X212699600Y-89839800D02*
X212090000Y-89230200D01*
X149206339Y-82943070D02*
X149206339Y-86658061D01*
X127266000Y-84429600D02*
X129184400Y-86348000D01*
X191312800Y-86487000D02*
X191566800Y-86741000D01*
X172961300Y-84366100D02*
X180238400Y-91643200D01*
X201472800Y-87591900D02*
X194424300Y-87591900D01*
X167982900Y-84366100D02*
X172961300Y-84366100D01*
X182600600Y-91643200D02*
X183276896Y-90966904D01*
X212090000Y-89230200D02*
X212090000Y-86258400D01*
X213029800Y-89839800D02*
X212699600Y-89839800D01*
X210845400Y-85013800D02*
X204050900Y-85013800D01*
X165684200Y-86664800D02*
X167982900Y-84366100D01*
X183276896Y-90966904D02*
X183276896Y-89916000D01*
X212090000Y-86258400D02*
X210845400Y-85013800D01*
X128524000Y-89555800D02*
X128524000Y-87008400D01*
X110667800Y-85725000D02*
X111963200Y-84429600D01*
X103682800Y-85725000D02*
X110667800Y-85725000D01*
X183276896Y-89916000D02*
X183276896Y-87715704D01*
X193624200Y-86791800D02*
X193624200Y-85832000D01*
X149206339Y-86658061D02*
X149199600Y-86664800D01*
X180238400Y-91643200D02*
X182600600Y-91643200D01*
X193624200Y-85832000D02*
X193680400Y-85775800D01*
X183276896Y-87715704D02*
X184505600Y-86487000D01*
X128524000Y-87008400D02*
X129184400Y-86348000D01*
X204050900Y-85013800D02*
X201472800Y-87591900D01*
%TO.N,Net-(J1-Pin_4)*%
X126731000Y-81117200D02*
X126238000Y-81610200D01*
X129667000Y-89712800D02*
X131191000Y-89712800D01*
X184404000Y-88011000D02*
X184404000Y-89255600D01*
X190982600Y-87909400D02*
X190271400Y-87198200D01*
X194945000Y-86944200D02*
X194513200Y-86512400D01*
X180467000Y-89179400D02*
X179019200Y-89179400D01*
X145465800Y-85496400D02*
X146666339Y-84295861D01*
X212902800Y-88188800D02*
X212902800Y-85471000D01*
X134797800Y-88696800D02*
X137998200Y-85496400D01*
X190271400Y-87198200D02*
X185216800Y-87198200D01*
X213588600Y-88874600D02*
X212902800Y-88188800D01*
X145709400Y-81117200D02*
X126731000Y-81117200D01*
X212902800Y-85471000D02*
X211683600Y-84251800D01*
X211683600Y-84251800D02*
X203682600Y-84251800D01*
X200990200Y-86944200D02*
X194945000Y-86944200D01*
X203682600Y-84251800D02*
X200990200Y-86944200D01*
X129540000Y-89585800D02*
X129667000Y-89712800D01*
X132207000Y-88696800D02*
X134797800Y-88696800D01*
X185216800Y-87198200D02*
X184404000Y-88011000D01*
X146666339Y-82943070D02*
X146666339Y-82074139D01*
X167843200Y-83616800D02*
X167779000Y-83681000D01*
X126238000Y-81610200D02*
X106908600Y-81610200D01*
X146666339Y-84295861D02*
X146666339Y-82943070D01*
X131191000Y-89712800D02*
X132207000Y-88696800D01*
X137998200Y-85496400D02*
X145465800Y-85496400D01*
X146666339Y-82074139D02*
X145709400Y-81117200D01*
X173456600Y-83616800D02*
X167843200Y-83616800D01*
X167779000Y-83681000D02*
X167462200Y-83681000D01*
X179019200Y-89179400D02*
X173456600Y-83616800D01*
X194513200Y-86512400D02*
X194513200Y-84531200D01*
%TO.N,unconnected-(J1-Pin_5-Pad5)*%
X144170400Y-82956400D02*
X144170400Y-82245200D01*
%TO.N,Net-(D1-DIN)*%
X78460600Y-93116400D02*
X78460600Y-92989400D01*
X140386339Y-81743070D02*
X127273530Y-81743070D01*
X107797600Y-82270600D02*
X126746000Y-82270600D01*
X141586339Y-82943070D02*
X140386339Y-81743070D01*
X77089000Y-91617800D02*
X77089000Y-86004400D01*
X78460600Y-92989400D02*
X77089000Y-91617800D01*
X127273530Y-81743070D02*
X126746000Y-82270600D01*
X77089000Y-86004400D02*
X80543400Y-82550000D01*
X107518200Y-82550000D02*
X107797600Y-82270600D01*
X80543400Y-82550000D02*
X107518200Y-82550000D01*
%TO.N,GND*%
D29*
X160274000Y-85686000D02*
X160287600Y-85686000D01*
X105968800Y-118160800D02*
X105003600Y-119126000D01*
X82194400Y-97917000D02*
X82118200Y-97993200D01*
X184226200Y-84353400D02*
X182448200Y-82575400D01*
X126669800Y-89103200D02*
X126669800Y-86280000D01*
X162255200Y-117271800D02*
X160858200Y-115874800D01*
X142265400Y-118440200D02*
X139928600Y-120777000D01*
X107873800Y-83362800D02*
X103034200Y-83362800D01*
X78232000Y-115544600D02*
X78232000Y-106426000D01*
X99597300Y-86182200D02*
X99597300Y-87100500D01*
X160858200Y-106730800D02*
X160451800Y-106324400D01*
X120980200Y-120777000D02*
X118364000Y-118160800D01*
X102997000Y-83400000D02*
X102756600Y-83159600D01*
X214270200Y-84239800D02*
X215653800Y-85623400D01*
X179197000Y-99542600D02*
X179405200Y-99334400D01*
X179405200Y-99334400D02*
X179405200Y-98196400D01*
X132685700Y-86766400D02*
X134670800Y-86766400D01*
X182118000Y-86461600D02*
X184226200Y-84353400D01*
X196088000Y-83337400D02*
X213321200Y-83337400D01*
X103327200Y-115519200D02*
X103327200Y-106730800D01*
X160858200Y-115874800D02*
X160858200Y-106730800D01*
X123393200Y-91770200D02*
X123393200Y-94488000D01*
X160121600Y-119405400D02*
X160121600Y-119456200D01*
X220903800Y-89839800D02*
X220903800Y-91744800D01*
X182118000Y-89408000D02*
X182118000Y-86461600D01*
X214223600Y-84239800D02*
X214223600Y-87858600D01*
X139395200Y-107924600D02*
X139395200Y-115570000D01*
X82194400Y-93167200D02*
X82194400Y-97917000D01*
X103327200Y-106730800D02*
X102920800Y-106324400D01*
X81813400Y-119126000D02*
X78232000Y-115544600D01*
X80695800Y-85191600D02*
X80695800Y-91668600D01*
X136499600Y-105029000D02*
X139395200Y-107924600D01*
X170637200Y-117271800D02*
X177038000Y-117271800D01*
X123393200Y-91770200D02*
X125349000Y-89814400D01*
X181381400Y-90144600D02*
X182118000Y-89408000D01*
X118364000Y-118160800D02*
X105968800Y-118160800D01*
X179197000Y-107010200D02*
X179197000Y-99542600D01*
X102756600Y-83159600D02*
X82727800Y-83159600D01*
X150342600Y-119456200D02*
X160121600Y-119456200D01*
X123393200Y-94488000D02*
X121925000Y-95956200D01*
X214223600Y-84239800D02*
X214270200Y-84239800D01*
X186436000Y-84353400D02*
X187147200Y-83642200D01*
X126974600Y-83032600D02*
X108204000Y-83032600D01*
X125958600Y-89814400D02*
X126669800Y-89103200D01*
X121925000Y-95956200D02*
X121925000Y-98196400D01*
X214223600Y-87858600D02*
X214249000Y-87884000D01*
X184226200Y-84353400D02*
X186436000Y-84353400D01*
X105003600Y-119126000D02*
X81813400Y-119126000D01*
X179405200Y-108585000D02*
X179405200Y-107218400D01*
X108204000Y-83032600D02*
X107873800Y-83362800D01*
X221843600Y-98780600D02*
X217322400Y-103301800D01*
X139928600Y-120777000D02*
X120980200Y-120777000D01*
X134670800Y-86766400D02*
X136506339Y-84930861D01*
X129438400Y-84074000D02*
X128397000Y-83032600D01*
X142265400Y-118440200D02*
X149326600Y-118440200D01*
X162255200Y-117271800D02*
X160121600Y-119405400D01*
X213321200Y-83337400D02*
X214223600Y-84239800D01*
X103034200Y-83362800D02*
X102997000Y-83400000D01*
X160287600Y-85686000D02*
X163398200Y-82575400D01*
X99597300Y-87100500D02*
X99796600Y-87299800D01*
X82727800Y-83159600D02*
X80695800Y-85191600D01*
X136506339Y-84930861D02*
X136506339Y-82943070D01*
X136506339Y-82943070D02*
X129921000Y-82943070D01*
X221843600Y-92684600D02*
X221843600Y-98780600D01*
X80695800Y-91668600D02*
X82194400Y-93167200D01*
X125349000Y-89814400D02*
X125958600Y-89814400D01*
X139395200Y-115570000D02*
X142265400Y-118440200D01*
X196037200Y-83388200D02*
X196088000Y-83337400D01*
X179405200Y-107218400D02*
X179197000Y-107010200D01*
X220903800Y-91744800D02*
X221843600Y-92684600D01*
X129438400Y-84074000D02*
X129438400Y-83425670D01*
X179405200Y-114904600D02*
X179405200Y-108585000D01*
X177038000Y-117271800D02*
X179405200Y-114904600D01*
X149326600Y-118440200D02*
X150342600Y-119456200D01*
X163398200Y-82575400D02*
X182448200Y-82575400D01*
X128397000Y-83032600D02*
X126974600Y-83032600D01*
X170637200Y-117271800D02*
X162255200Y-117271800D01*
X129438400Y-83425670D02*
X129921000Y-82943070D01*
X105968800Y-118160800D02*
X103327200Y-115519200D01*
%TO.N,/HV*%
X85775800Y-123799600D02*
X83235800Y-123799600D01*
X117343867Y-121080411D02*
X117360907Y-121063371D01*
D28*
X149152531Y-121339531D02*
X149187641Y-121304421D01*
D29*
X92127189Y-121080411D02*
X89408000Y-123799600D01*
X150186469Y-122453400D02*
X173450621Y-122453400D01*
D28*
X149072600Y-121339531D02*
X149152531Y-121339531D01*
D29*
X92151200Y-121080411D02*
X117343867Y-121080411D01*
X206527400Y-121338822D02*
X218868778Y-121338822D01*
X146917331Y-123494800D02*
X149072600Y-121339531D01*
X149072600Y-121339531D02*
X149072600Y-121488200D01*
X89408000Y-123799600D02*
X85775800Y-123799600D01*
X218868778Y-121338822D02*
X218897200Y-121310400D01*
X149072600Y-121339531D02*
X150186469Y-122453400D01*
X92151200Y-121080411D02*
X92127189Y-121080411D01*
X119792336Y-123494800D02*
X146917331Y-123494800D01*
X173450621Y-122453400D02*
X174599600Y-121304421D01*
X117360907Y-121063371D02*
X119792336Y-123494800D01*
X174599600Y-121304421D02*
X206492999Y-121304421D01*
X206492999Y-121304421D02*
X206527400Y-121338822D01*
%TO.N,Net-(NX6-A)*%
D28*
X226517200Y-121310400D02*
X226517200Y-113674348D01*
X226517200Y-113674348D02*
X223829862Y-110987010D01*
X223829862Y-110987010D02*
X223829861Y-110987010D01*
%TO.N,Net-(D8-DOUT)*%
X181291497Y-100876148D02*
X181291497Y-100902503D01*
X181330600Y-107188000D02*
X182041800Y-107899200D01*
X180886100Y-101307900D02*
X180886100Y-103517700D01*
X133172200Y-118618000D02*
X132855307Y-118934893D01*
X181330600Y-103962200D02*
X181330600Y-107188000D01*
X119608600Y-114427000D02*
X119608600Y-116001800D01*
X182041800Y-110312200D02*
X181432200Y-110921800D01*
X123209599Y-110826001D02*
X119608600Y-114427000D01*
X182041800Y-107899200D02*
X182041800Y-110312200D01*
X132855307Y-118934893D02*
X122541693Y-118934893D01*
X180886100Y-103517700D02*
X181330600Y-103962200D01*
X179247800Y-118745000D02*
X181432200Y-116560600D01*
X181432200Y-110921800D02*
X181432200Y-116560600D01*
X177444400Y-118745000D02*
X179247800Y-118745000D01*
X181291497Y-100902503D02*
X180886100Y-101307900D01*
X123209599Y-109248000D02*
X123209599Y-110826001D01*
X119608600Y-116001800D02*
X122541693Y-118934893D01*
%TO.N,Net-(D7-DOUT)*%
X119507000Y-106984800D02*
X119399599Y-107092201D01*
X119399599Y-107092201D02*
X119399599Y-109248000D01*
%TO.N,Net-(U2-GPB0)*%
X126803400Y-96748600D02*
X125780800Y-96748600D01*
X125780800Y-96748600D02*
X125730000Y-96697800D01*
%TO.N,Net-(U2-GPB1)*%
X125920500Y-91681300D02*
X125120400Y-92481400D01*
X125920500Y-91681300D02*
X127790700Y-91681300D01*
X127790700Y-91681300D02*
X128616200Y-90855800D01*
X125120400Y-95707200D02*
X125120400Y-92481400D01*
%TO.N,Net-(U2-GPB2)*%
X147913600Y-88114930D02*
X147946965Y-88081565D01*
X147913600Y-89839800D02*
X147913600Y-88114930D01*
%TO.N,Net-(U2-GPB3)*%
X147913600Y-91744800D02*
X148031200Y-91744800D01*
X148031200Y-91744800D02*
X148615400Y-92329000D01*
%TO.N,Net-(U2-GPB4)*%
X147082000Y-101701600D02*
X147082000Y-100415600D01*
X147082000Y-100415600D02*
X147193000Y-100304600D01*
%TO.N,Net-(U2-GPB5)*%
X146751800Y-108238800D02*
X146532600Y-108458000D01*
X146751800Y-107416600D02*
X146751800Y-108238800D01*
%TO.N,Net-(U2-GPA0)*%
X121589800Y-87477600D02*
X119227600Y-89839800D01*
X121589800Y-87477600D02*
X123201700Y-87477600D01*
X119227600Y-89839800D02*
X115782600Y-89839800D01*
%TO.N,Net-(U2-GPA1)*%
X116163600Y-91821000D02*
X117094000Y-90890600D01*
X119523000Y-90890600D02*
X117094000Y-90890600D01*
X121945400Y-88468200D02*
X119523000Y-90890600D01*
%TO.N,Net-(U2-GPA2)*%
X115052600Y-101803200D02*
X115052600Y-101438200D01*
X115052600Y-101803200D02*
X115052600Y-97748600D01*
X115052600Y-97748600D02*
X115112800Y-97688400D01*
%TO.N,Net-(U2-GPA3)*%
X115001800Y-107518200D02*
X114325400Y-107518200D01*
X115001800Y-107518200D02*
X113842800Y-107518200D01*
X113842800Y-107518200D02*
X113817400Y-107543600D01*
%TO.N,Net-(U2-GPA4)*%
X117525800Y-99517200D02*
X118668800Y-100660200D01*
X123113800Y-106392600D02*
X124921200Y-108200000D01*
X121335800Y-100660200D02*
X123113800Y-102438200D01*
X117525800Y-94665800D02*
X117525800Y-99517200D01*
X124079000Y-88112600D02*
X117525800Y-94665800D01*
X124921200Y-115802600D02*
X126695200Y-117576600D01*
X124079000Y-86944200D02*
X124079000Y-88112600D01*
X118135400Y-86537800D02*
X123672600Y-86537800D01*
X118668800Y-100660200D02*
X121335800Y-100660200D01*
X123113800Y-102438200D02*
X123113800Y-106392600D01*
X123672600Y-86537800D02*
X124079000Y-86944200D01*
X124921200Y-108200000D02*
X124921200Y-115802600D01*
%TO.N,Net-(U2-GPA5)*%
X117627400Y-85750400D02*
X116814600Y-86563200D01*
X118160800Y-99161600D02*
X118160800Y-95300800D01*
X121577100Y-99987100D02*
X118986300Y-99987100D01*
X124815600Y-86410800D02*
X124155200Y-85750400D01*
X123850400Y-102260400D02*
X121577100Y-99987100D01*
X118160800Y-95300800D02*
X124815600Y-88646000D01*
X125577600Y-108000800D02*
X123850400Y-106273600D01*
X124815600Y-88646000D02*
X124815600Y-86410800D01*
X118986300Y-99987100D02*
X118160800Y-99161600D01*
X126898400Y-115579400D02*
X126069600Y-115579400D01*
X126069600Y-115579400D02*
X125577600Y-115087400D01*
X123850400Y-106273600D02*
X123850400Y-102260400D01*
X124155200Y-85750400D02*
X117627400Y-85750400D01*
X125577600Y-115087400D02*
X125577600Y-108000800D01*
%TO.N,Net-(U2-GPA6)*%
X126787400Y-107950000D02*
X126787400Y-107839000D01*
X126787400Y-107839000D02*
X125984000Y-107035600D01*
%TO.N,Net-(U2-GPA7)*%
X125095000Y-102362000D02*
X124612400Y-101879400D01*
X113157000Y-85115400D02*
X112826800Y-85445600D01*
X126746000Y-90982800D02*
X127609600Y-90119200D01*
X127609600Y-85725000D02*
X127000000Y-85115400D01*
X124612400Y-97637600D02*
X124104400Y-97129600D01*
X127000000Y-85115400D02*
X113157000Y-85115400D01*
X125704600Y-90982800D02*
X124104400Y-92583000D01*
X124104400Y-92583000D02*
X124104400Y-97129600D01*
X126914400Y-102362000D02*
X125095000Y-102362000D01*
X125704600Y-90982800D02*
X126746000Y-90982800D01*
X127609600Y-90119200D02*
X127609600Y-85725000D01*
X124612400Y-101879400D02*
X124612400Y-97637600D01*
%TO.N,Net-(D2-DOUT)*%
X135483600Y-109601000D02*
X135483600Y-117652800D01*
X135483600Y-117652800D02*
X133701507Y-119434893D01*
X108784106Y-116484400D02*
X107183907Y-114884200D01*
X107183907Y-114884200D02*
X107162600Y-114884200D01*
X107162600Y-107670600D02*
X106045000Y-106553000D01*
X118897400Y-116484400D02*
X108784106Y-116484400D01*
X121847893Y-119434893D02*
X118897400Y-116484400D01*
X133701507Y-119434893D02*
X121847893Y-119434893D01*
X107162600Y-114884200D02*
X107162600Y-107670600D01*
%TO.N,Net-(NX3-A)*%
X141473073Y-111126906D02*
X144065698Y-113719531D01*
X144065698Y-113719531D02*
X149072600Y-113719531D01*
%TO.N,Net-(NX3-"0")*%
X143223073Y-107626906D02*
X144992200Y-109396033D01*
X144992200Y-109396033D02*
X144992200Y-110251200D01*
%TO.N,Net-(NX3-"9")*%
X143223073Y-103126906D02*
X144733967Y-104637800D01*
X144733967Y-104637800D02*
X145652600Y-104637800D01*
%TO.N,Net-(NX3-"8")*%
X143223073Y-98626906D02*
X144492400Y-97357579D01*
X144492400Y-97357579D02*
X144492400Y-94417700D01*
%TO.N,Net-(NX3-"7")*%
X140131800Y-93785633D02*
X140131800Y-90830400D01*
X141473073Y-95126906D02*
X140131800Y-93785633D01*
%TO.N,Net-(NX3-"6")*%
X137473073Y-94126906D02*
X137473073Y-91772273D01*
X137473073Y-91772273D02*
X136541400Y-90840600D01*
%TO.N,Net-(NX3-"5")*%
X132036567Y-93690400D02*
X130394600Y-93690400D01*
X133473073Y-95126906D02*
X132036567Y-93690400D01*
%TO.N,Net-(NX3-"4")*%
X130538094Y-98626906D02*
X129531000Y-99634000D01*
X131723073Y-98626906D02*
X130538094Y-98626906D01*
%TO.N,Net-(NX3-"3")*%
X131544894Y-103126906D02*
X129607200Y-105064600D01*
X131723073Y-103126906D02*
X131544894Y-103126906D01*
%TO.N,Net-(NX3-"2")*%
X130937000Y-110415000D02*
X130937000Y-108412979D01*
X130597800Y-110754200D02*
X130937000Y-110415000D01*
X130937000Y-108412979D02*
X131723073Y-107626906D01*
%TO.N,Net-(NX3-"1")*%
X133473073Y-113872127D02*
X132867400Y-114477800D01*
X133473073Y-111126906D02*
X133473073Y-113872127D01*
%TO.N,HVGND*%
D29*
X119811800Y-104165400D02*
X121539000Y-104165400D01*
X143266200Y-91780400D02*
X143551800Y-91780400D01*
X212725000Y-95631000D02*
X212725000Y-97205800D01*
X74498200Y-88315800D02*
X75447000Y-89264600D01*
X108559600Y-89306400D02*
X111160600Y-91907400D01*
D28*
X69737338Y-104230538D02*
X69279020Y-104230538D01*
D29*
X94776400Y-92877600D02*
X93040200Y-91141400D01*
X185470800Y-88265000D02*
X185877200Y-87858600D01*
X81940400Y-100838000D02*
X78181200Y-97078800D01*
X93969800Y-109768600D02*
X95106600Y-109768600D01*
X157810200Y-88493600D02*
X158682800Y-89366200D01*
X217601800Y-92506800D02*
X217601800Y-91440000D01*
D28*
X209457400Y-109514600D02*
X209895400Y-109514600D01*
D29*
X129438400Y-106375200D02*
X129971800Y-106908600D01*
X118262400Y-106273600D02*
X118262400Y-110261400D01*
X149961600Y-96316800D02*
X149961600Y-97739200D01*
X183413400Y-98582400D02*
X185415000Y-98582400D01*
X92633800Y-108432600D02*
X93969800Y-109768600D01*
X67803662Y-104230538D02*
X67552938Y-104230538D01*
X118338600Y-101193600D02*
X116357400Y-99212400D01*
X134823200Y-92278200D02*
X134823200Y-90678000D01*
D28*
X149072600Y-105587800D02*
X148767800Y-105587800D01*
D29*
X145592800Y-97687300D02*
X147912400Y-95367700D01*
X92217200Y-105623400D02*
X93609200Y-104231400D01*
X90754200Y-96774000D02*
X86690200Y-100838000D01*
X184632600Y-109702600D02*
X186232800Y-109702600D01*
D28*
X94776400Y-92877600D02*
X94168000Y-92877600D01*
D29*
X206695000Y-111313000D02*
X208493400Y-109514600D01*
X127386000Y-92740400D02*
X126974600Y-92740400D01*
X146837400Y-103378000D02*
X145999200Y-103378000D01*
D28*
X205598636Y-105776636D02*
X205852868Y-105776636D01*
X71763054Y-111074200D02*
X71763054Y-113541138D01*
D29*
X129565400Y-100838000D02*
X128600200Y-100838000D01*
D28*
X206465564Y-105776636D02*
X205852868Y-105776636D01*
D29*
X174716400Y-111313000D02*
X175361600Y-110667800D01*
X147447000Y-103987600D02*
X146837400Y-103378000D01*
X119811800Y-104165400D02*
X118338600Y-102692200D01*
X126111000Y-98684000D02*
X126207600Y-98684000D01*
X151546600Y-92776000D02*
X152688400Y-92776000D01*
X112934600Y-93421200D02*
X111420800Y-91907400D01*
X149910800Y-105587800D02*
X151191000Y-104307600D01*
D28*
X117236200Y-111135200D02*
X116577000Y-111135200D01*
D29*
X186232800Y-109702600D02*
X187071000Y-108864400D01*
X231861400Y-95666600D02*
X233629200Y-97434400D01*
X191211200Y-89789000D02*
X190855600Y-90144600D01*
X152704800Y-110037800D02*
X153395600Y-110037800D01*
D28*
X174843400Y-105801200D02*
X173930200Y-105801200D01*
D29*
X209457400Y-109514600D02*
X209743000Y-109514600D01*
X150164800Y-108737400D02*
X150164800Y-106197400D01*
X130302000Y-97383600D02*
X130302000Y-95656400D01*
D28*
X147590100Y-95367700D02*
X147912400Y-95367700D01*
D29*
X150916600Y-98694200D02*
X151520000Y-98694200D01*
X229753200Y-95666600D02*
X230013400Y-95666600D01*
X186715400Y-111480600D02*
X184937400Y-109702600D01*
X128600200Y-100812600D02*
X126471600Y-98684000D01*
X92313800Y-105623400D02*
X92633800Y-105943400D01*
D28*
X91099600Y-95946000D02*
X90745200Y-95946000D01*
D29*
X75447000Y-89264600D02*
X75447000Y-90261400D01*
X78181200Y-94361000D02*
X78079600Y-94259400D01*
D28*
X184988200Y-109702600D02*
X184632600Y-109702600D01*
D29*
X189026800Y-87858600D02*
X190855600Y-89687400D01*
X202641200Y-108788200D02*
X202641200Y-106451400D01*
X145091000Y-93319600D02*
X145618200Y-93319600D01*
X149012500Y-95367700D02*
X149961600Y-96316800D01*
X209743000Y-109514600D02*
X211718000Y-111489600D01*
X184658000Y-92633800D02*
X184810400Y-92786200D01*
X216991000Y-88773000D02*
X222631000Y-88773000D01*
X159022000Y-89027000D02*
X158682800Y-89366200D01*
D28*
X172821600Y-95529400D02*
X172984200Y-95692000D01*
D29*
X66675000Y-111099600D02*
X67953054Y-109821546D01*
X134035800Y-89890600D02*
X133121400Y-89890600D01*
X205527800Y-111313000D02*
X205166000Y-111313000D01*
D28*
X126415800Y-104140000D02*
X126441200Y-104114600D01*
D29*
X165582600Y-89027000D02*
X159022000Y-89027000D01*
X130022600Y-103327200D02*
X130022600Y-101295200D01*
D28*
X116958000Y-105725000D02*
X117790000Y-105725000D01*
D29*
X183896000Y-104216200D02*
X185369200Y-104216200D01*
X129971800Y-106908600D02*
X129971800Y-109067600D01*
X149555200Y-105587800D02*
X149072600Y-105587800D01*
X95106600Y-109768600D02*
X95773200Y-109768600D01*
X186715400Y-113492200D02*
X186715400Y-111480600D01*
X101725800Y-89306400D02*
X108559600Y-89306400D01*
X76911200Y-92989400D02*
X74142600Y-92989400D01*
X175361600Y-106040000D02*
X175122800Y-105801200D01*
X173320600Y-95692000D02*
X174818000Y-95692000D01*
X233426000Y-110591600D02*
X233426000Y-106344800D01*
X183774000Y-98582400D02*
X183413400Y-98582400D01*
X128854200Y-109804200D02*
X127177800Y-109804200D01*
X68884800Y-88315800D02*
X74498200Y-88315800D01*
X173549200Y-111313000D02*
X174716400Y-111313000D01*
X93040200Y-88925400D02*
X93751400Y-88214200D01*
X205096000Y-95742800D02*
X205096000Y-97418000D01*
X92633800Y-105943400D02*
X92633800Y-108432600D01*
X147666300Y-95367700D02*
X147912400Y-95367700D01*
X133121400Y-89890600D02*
X134137400Y-89890600D01*
X149961600Y-97739200D02*
X150916600Y-98694200D01*
X67497100Y-98713700D02*
X66649600Y-97866200D01*
X230597600Y-111287600D02*
X232730000Y-111287600D01*
X200955800Y-92009000D02*
X201102000Y-92009000D01*
X187071000Y-107111800D02*
X184175400Y-104216200D01*
X151191000Y-104307600D02*
X151901000Y-104307600D01*
X67630900Y-98713700D02*
X67497100Y-98713700D01*
X85868400Y-92161400D02*
X86649600Y-92161400D01*
X166791600Y-90236000D02*
X168691600Y-92136000D01*
X145999200Y-103378000D02*
X145592800Y-102971600D01*
D28*
X69597517Y-92557600D02*
X69325600Y-92829517D01*
X205013600Y-111313000D02*
X205527800Y-111313000D01*
D29*
X91397400Y-105623400D02*
X90967600Y-105623400D01*
D28*
X143551800Y-91780400D02*
X144002800Y-91780400D01*
D29*
X174818000Y-95692000D02*
X177876200Y-92633800D01*
X217170000Y-92953800D02*
X217170000Y-92938600D01*
X148954900Y-95367700D02*
X149012500Y-95367700D01*
X96799400Y-110794800D02*
X96799400Y-113137800D01*
X175122800Y-105801200D02*
X173930200Y-105801200D01*
X173320600Y-95692000D02*
X173320600Y-97654000D01*
X205096000Y-97418000D02*
X202615800Y-99898200D01*
D28*
X168977200Y-92136000D02*
X168590000Y-92136000D01*
D29*
X204597000Y-106045000D02*
X204865364Y-105776636D01*
X78079600Y-94157800D02*
X76911200Y-92989400D01*
X205166000Y-111313000D02*
X202641200Y-108788200D01*
X200955800Y-92009000D02*
X200746400Y-92009000D01*
X128854200Y-109804200D02*
X128854200Y-112934600D01*
X74142600Y-92989400D02*
X73982717Y-92829517D01*
X115656400Y-95565000D02*
X113512600Y-93421200D01*
X134518400Y-89509600D02*
X134569200Y-89560400D01*
X222631000Y-88773000D02*
X225765400Y-91907400D01*
X74041000Y-123799600D02*
X66675000Y-116433600D01*
D28*
X116958000Y-105725000D02*
X117363200Y-105725000D01*
D29*
X124764800Y-104114600D02*
X124739400Y-104140000D01*
D28*
X151520000Y-98694200D02*
X151238900Y-98694200D01*
D29*
X149072600Y-105587800D02*
X149910800Y-105587800D01*
X118262400Y-110261400D02*
X117388600Y-111135200D01*
X119253000Y-104165400D02*
X117693400Y-105725000D01*
X166791600Y-90236000D02*
X165582600Y-89027000D01*
X169926000Y-93573600D02*
X170891200Y-93573600D01*
X150301800Y-111201200D02*
X151465200Y-110037800D01*
X184810400Y-92786200D02*
X184810400Y-90347800D01*
X204835800Y-95742800D02*
X205096000Y-95742800D01*
X141046200Y-89560400D02*
X143266200Y-91780400D01*
X78079600Y-94259400D02*
X78079600Y-94157800D01*
X206194400Y-98516400D02*
X205096000Y-97418000D01*
X208493400Y-109514600D02*
X209457400Y-109514600D01*
X90754200Y-96774000D02*
X92649000Y-98668800D01*
X216169200Y-90007400D02*
X215756600Y-90007400D01*
X186105800Y-100914200D02*
X183774000Y-98582400D01*
X134361000Y-92740400D02*
X134823200Y-92278200D01*
X184175400Y-104216200D02*
X183896000Y-104216200D01*
X185877200Y-87858600D02*
X189026800Y-87858600D01*
X225765400Y-91907400D02*
X225974800Y-91907400D01*
X126619000Y-98272600D02*
X129413000Y-98272600D01*
X90967600Y-105623400D02*
X88112600Y-102768400D01*
X66675000Y-105359200D02*
X67803662Y-104230538D01*
X152704800Y-110037800D02*
X151465200Y-110037800D01*
D28*
X70510400Y-109821546D02*
X69776946Y-109821546D01*
D29*
X90745200Y-95946000D02*
X90745200Y-96765000D01*
D28*
X190855600Y-90144600D02*
X191058800Y-89941400D01*
D29*
X67673083Y-92829517D02*
X69325600Y-92829517D01*
X190855600Y-89687400D02*
X190855600Y-90144600D01*
X168691600Y-92136000D02*
X168977200Y-92136000D01*
X116958000Y-105725000D02*
X117713800Y-105725000D01*
X113512600Y-93421200D02*
X112934600Y-93421200D01*
D28*
X91397400Y-105623400D02*
X91983600Y-105623400D01*
D29*
X134137400Y-89890600D02*
X134518400Y-89509600D01*
X92649000Y-98668800D02*
X93819400Y-98668800D01*
X205852868Y-105776636D02*
X206643364Y-105776636D01*
X119811800Y-104165400D02*
X119253000Y-104165400D01*
X67953054Y-109821546D02*
X66675000Y-108543492D01*
D28*
X210124000Y-92953800D02*
X209736800Y-92953800D01*
D29*
X90434200Y-95946000D02*
X90745200Y-95946000D01*
X173009600Y-95692000D02*
X173320600Y-95692000D01*
X186613800Y-97383600D02*
X186613800Y-94183200D01*
X177876200Y-92633800D02*
X184658000Y-92633800D01*
X212725000Y-97205800D02*
X211683600Y-98247200D01*
X66700400Y-103378000D02*
X66700400Y-99644200D01*
X153009600Y-88493600D02*
X157810200Y-88493600D01*
X217170000Y-92938600D02*
X217601800Y-92506800D01*
X154457400Y-113339800D02*
X154863800Y-113746200D01*
X198551800Y-89789000D02*
X191211200Y-89789000D01*
X66675000Y-116433600D02*
X66675000Y-111099600D01*
X129235200Y-104114600D02*
X130022600Y-103327200D01*
X202615800Y-102819200D02*
X205573236Y-105776636D01*
X86690200Y-100838000D02*
X81940400Y-100838000D01*
D28*
X68892283Y-92829517D02*
X69325600Y-92829517D01*
D29*
X187071000Y-108864400D02*
X187071000Y-107111800D01*
X211683600Y-98247200D02*
X209074400Y-98247200D01*
X205527800Y-111313000D02*
X206695000Y-111313000D01*
X117693400Y-105725000D02*
X116958000Y-105725000D01*
X93751400Y-88214200D02*
X98729800Y-88214200D01*
X100974000Y-90058200D02*
X101725800Y-89306400D01*
X129413000Y-98272600D02*
X130302000Y-97383600D01*
X154457400Y-111099600D02*
X154457400Y-113339800D01*
X116357400Y-99212400D02*
X116357400Y-95955000D01*
D28*
X127665400Y-92740400D02*
X126974600Y-92740400D01*
D29*
X233629200Y-105003600D02*
X232857000Y-105775800D01*
X185470800Y-89636600D02*
X185470800Y-88265000D01*
X66700400Y-99644200D02*
X67630900Y-98713700D01*
X148158200Y-105587800D02*
X147447000Y-104876600D01*
X98729800Y-88214200D02*
X100573800Y-90058200D01*
X225974800Y-91907400D02*
X225994000Y-91907400D01*
X126974600Y-92740400D02*
X134361000Y-92740400D01*
X168977200Y-92624800D02*
X169926000Y-93573600D01*
X100573800Y-90058200D02*
X100974000Y-90058200D01*
X203047600Y-106045000D02*
X204597000Y-106045000D01*
X186613800Y-94183200D02*
X185216800Y-92786200D01*
X94776400Y-92877600D02*
X94295000Y-92877600D01*
X215756600Y-90007400D02*
X216991000Y-88773000D01*
X170891200Y-93573600D02*
X173009600Y-95692000D01*
X211718000Y-111489600D02*
X211718000Y-113273800D01*
X232730000Y-111287600D02*
X233426000Y-110591600D01*
D28*
X149072600Y-105587800D02*
X149682200Y-105587800D01*
X94604800Y-92877600D02*
X94776400Y-92877600D01*
D29*
X117388600Y-111135200D02*
X116577000Y-111135200D01*
X129971800Y-109067600D02*
X129235200Y-109804200D01*
X95773200Y-109768600D02*
X96799400Y-110794800D01*
D28*
X204886600Y-95742800D02*
X205096000Y-95742800D01*
D29*
X78181200Y-97078800D02*
X78181200Y-94361000D01*
X67803662Y-104230538D02*
X69279020Y-104230538D01*
D28*
X93710800Y-104231400D02*
X94293800Y-104231400D01*
D29*
X86649600Y-92161400D02*
X90434200Y-95946000D01*
X91397400Y-105623400D02*
X92217200Y-105623400D01*
X147447000Y-104876600D02*
X147447000Y-103987600D01*
D28*
X173035000Y-95692000D02*
X173320600Y-95692000D01*
D29*
X145592800Y-102971600D02*
X145592800Y-97687300D01*
X208468000Y-103952000D02*
X208847800Y-103952000D01*
X230013400Y-95666600D02*
X231861400Y-95666600D01*
X134823200Y-90678000D02*
X134035800Y-89890600D01*
X126720600Y-104114600D02*
X128981200Y-106375200D01*
X175361600Y-110667800D02*
X175361600Y-106040000D01*
D28*
X75447000Y-90261400D02*
X75447000Y-90052000D01*
D29*
X129235200Y-109804200D02*
X128854200Y-109804200D01*
D28*
X208847800Y-103952000D02*
X208290200Y-103952000D01*
X173320600Y-95692000D02*
X172984200Y-95692000D01*
D29*
X158682800Y-89366200D02*
X158682800Y-90236000D01*
D28*
X91556800Y-111008200D02*
X91024600Y-111008200D01*
X153421000Y-110037800D02*
X152704800Y-110037800D01*
D29*
X88112600Y-102768400D02*
X88112600Y-102260400D01*
X200746400Y-92009000D02*
X198551800Y-89814400D01*
X185415000Y-98582400D02*
X186613800Y-97383600D01*
X208805200Y-98516400D02*
X206194400Y-98516400D01*
X66649600Y-97866200D02*
X66649600Y-93853000D01*
D28*
X71763054Y-111074200D02*
X70510400Y-109821546D01*
D29*
X204865364Y-105776636D02*
X205852868Y-105776636D01*
X209736800Y-92953800D02*
X210047800Y-92953800D01*
D28*
X229734000Y-95666600D02*
X230013400Y-95666600D01*
D29*
X225994000Y-91907400D02*
X229753200Y-95666600D01*
X173320600Y-97654000D02*
X176250600Y-100584000D01*
X202641200Y-106451400D02*
X203047600Y-106045000D01*
X176250600Y-100584000D02*
X176250600Y-104673400D01*
X126441200Y-104114600D02*
X124764800Y-104114600D01*
X67673083Y-92829517D02*
X67673083Y-89527517D01*
X126441200Y-104114600D02*
X129235200Y-104114600D01*
D28*
X174813000Y-105801200D02*
X173930200Y-105801200D01*
D29*
X80695800Y-123799600D02*
X78155800Y-123799600D01*
X201102000Y-92009000D02*
X204835800Y-95742800D01*
D28*
X91096600Y-95946000D02*
X90745200Y-95946000D01*
D29*
X185369200Y-104216200D02*
X186105800Y-103479600D01*
X116357400Y-95955000D02*
X115967400Y-95565000D01*
X91397400Y-105623400D02*
X92313800Y-105623400D01*
X202615800Y-99898200D02*
X202615800Y-102819200D01*
X209074400Y-98247200D02*
X208805200Y-98516400D01*
X233426000Y-106344800D02*
X232857000Y-105775800D01*
X233629200Y-97434400D02*
X233629200Y-105003600D01*
X90745200Y-96765000D02*
X90754200Y-96774000D01*
X73982717Y-92829517D02*
X69325600Y-92829517D01*
X91226600Y-95946000D02*
X90745200Y-95946000D01*
X126471600Y-98684000D02*
X126111000Y-98684000D01*
X66675000Y-108543492D02*
X66675000Y-105359200D01*
D28*
X200086000Y-92009000D02*
X200955800Y-92009000D01*
D29*
X88112600Y-102260400D02*
X86690200Y-100838000D01*
X67953054Y-109821546D02*
X69776946Y-109821546D01*
X93040200Y-91141400D02*
X93040200Y-88925400D01*
D28*
X71763054Y-113541138D02*
X71891000Y-113669084D01*
D29*
X67673083Y-89527517D02*
X68884800Y-88315800D01*
X206643364Y-105776636D02*
X208468000Y-103952000D01*
X209736800Y-92953800D02*
X217170000Y-92953800D01*
X148412200Y-111201200D02*
X150301800Y-111201200D01*
X67552938Y-104230538D02*
X66700400Y-103378000D01*
D28*
X215966000Y-90007400D02*
X215756600Y-90007400D01*
D29*
X66649600Y-93853000D02*
X67673083Y-92829517D01*
X128854200Y-112934600D02*
X129447400Y-113527800D01*
X176250600Y-104673400D02*
X175122800Y-105801200D01*
X126441200Y-104114600D02*
X126720600Y-104114600D01*
X185216800Y-92786200D02*
X184810400Y-92786200D01*
D28*
X147912400Y-95367700D02*
X148497700Y-95367700D01*
D29*
X152688400Y-88814800D02*
X153009600Y-88493600D01*
D28*
X127736600Y-109804200D02*
X127177800Y-109804200D01*
D29*
X151465200Y-110037800D02*
X150164800Y-108737400D01*
X217601800Y-91440000D02*
X216169200Y-90007400D01*
X130022600Y-101295200D02*
X129565400Y-100838000D01*
X111160600Y-91907400D02*
X111420800Y-91907400D01*
X198551800Y-89814400D02*
X198551800Y-89789000D01*
X92730200Y-111008200D02*
X91024600Y-111008200D01*
X145618200Y-93319600D02*
X147666300Y-95367700D01*
X153395600Y-110037800D02*
X154457400Y-111099600D01*
X184937400Y-109702600D02*
X184632600Y-109702600D01*
X134569200Y-89560400D02*
X141046200Y-89560400D01*
X148954900Y-95367700D02*
X151546600Y-92776000D01*
X128981200Y-106375200D02*
X129438400Y-106375200D01*
X186105800Y-103479600D02*
X186105800Y-100914200D01*
X185496200Y-89662000D02*
X185470800Y-89636600D01*
X96799400Y-113137800D02*
X97164000Y-113502400D01*
X130302000Y-95656400D02*
X127386000Y-92740400D01*
X93609200Y-104231400D02*
X94293800Y-104231400D01*
X150164800Y-106197400D02*
X149555200Y-105587800D01*
D28*
X183235600Y-104216200D02*
X183896000Y-104216200D01*
D29*
X152688400Y-92776000D02*
X152688400Y-88814800D01*
X128600200Y-100838000D02*
X128600200Y-100812600D01*
X78155800Y-123799600D02*
X74041000Y-123799600D01*
X117713800Y-105725000D02*
X118262400Y-106273600D01*
X143551800Y-91780400D02*
X145091000Y-93319600D01*
X205573236Y-105776636D02*
X205852868Y-105776636D01*
X115967400Y-95565000D02*
X115656400Y-95565000D01*
X67630900Y-98713700D02*
X68876600Y-98713700D01*
X93969800Y-109768600D02*
X92730200Y-111008200D01*
D28*
X185623200Y-92786200D02*
X184810400Y-92786200D01*
D29*
X168977200Y-92136000D02*
X168977200Y-92624800D01*
X94295000Y-92877600D02*
X91226600Y-95946000D01*
X232857000Y-105775800D02*
X231334200Y-105775800D01*
X118338600Y-102692200D02*
X118338600Y-101193600D01*
X184810400Y-90347800D02*
X185496200Y-89662000D01*
X149072600Y-105587800D02*
X148158200Y-105587800D01*
X126207600Y-98684000D02*
X126619000Y-98272600D01*
X210047800Y-92953800D02*
X212725000Y-95631000D01*
X147912400Y-95367700D02*
X148954900Y-95367700D01*
%TO.N,Net-(NX6-"0")*%
D28*
X225579861Y-108739861D02*
X227177600Y-110337600D01*
X225579861Y-107487010D02*
X225579861Y-108739861D01*
%TO.N,Net-(NX6-"9")*%
X227418651Y-104825800D02*
X227914200Y-104825800D01*
X225579861Y-102987010D02*
X227418651Y-104825800D01*
%TO.N,Net-(NX6-"8")*%
X225579861Y-98487010D02*
X226593400Y-97473471D01*
X226593400Y-97473471D02*
X226593400Y-94716600D01*
%TO.N,Net-(NX6-"7")*%
X223829861Y-94987010D02*
X222554800Y-93711949D01*
X222554800Y-93711949D02*
X222554800Y-90957400D01*
%TO.N,Net-(NX6-"6")*%
X219829861Y-93987010D02*
X219829861Y-91610661D01*
X219829861Y-91610661D02*
X219176600Y-90957400D01*
%TO.N,Net-(NX6-"5")*%
X215829861Y-94987010D02*
X214746651Y-93903800D01*
X214746651Y-93903800D02*
X213156800Y-93903800D01*
%TO.N,Net-(NX6-"4")*%
X214079861Y-98487010D02*
X213204590Y-98487010D01*
X213204590Y-98487010D02*
X212225200Y-99466400D01*
%TO.N,Net-(NX6-"3")*%
X214079861Y-103089939D02*
X212267800Y-104902000D01*
X214079861Y-102987010D02*
X214079861Y-103089939D01*
%TO.N,Net-(NX6-"2")*%
X214079861Y-109262139D02*
X212877400Y-110464600D01*
X214079861Y-107487010D02*
X214079861Y-109262139D01*
%TO.N,Net-(NX6-"1")*%
X215829861Y-113531939D02*
X215138000Y-114223800D01*
X215829861Y-110987010D02*
X215829861Y-113531939D01*
%TO.N,Net-(D6-DOUT)*%
X124231400Y-108356400D02*
X122555000Y-106680000D01*
X122555000Y-106680000D02*
X122555000Y-102920800D01*
X122555000Y-102920800D02*
X121200800Y-101566600D01*
X119635000Y-101566600D02*
X119385000Y-101816600D01*
X121640600Y-116586000D02*
X120700800Y-115646200D01*
X121200800Y-101566600D02*
X119635000Y-101566600D01*
X120700800Y-114554000D02*
X124231400Y-111023400D01*
X120700800Y-115646200D02*
X120700800Y-114554000D01*
X124231400Y-111023400D02*
X124231400Y-108356400D01*
%TO.N,Net-(NX1-A)*%
X86493177Y-113460411D02*
X84220766Y-111188000D01*
X92151200Y-113460411D02*
X86493177Y-113460411D01*
%TO.N,Net-(NX1-"0")*%
X87604600Y-110058200D02*
X85970766Y-108424366D01*
X85970766Y-108424366D02*
X85970766Y-107688000D01*
%TO.N,Net-(NX1-"9")*%
X87977400Y-104673400D02*
X87456166Y-104673400D01*
X87456166Y-104673400D02*
X85970766Y-103188000D01*
%TO.N,Net-(NX1-"8")*%
X85970766Y-96350434D02*
X85970766Y-98688000D01*
X87325200Y-94996000D02*
X85970766Y-96350434D01*
%TO.N,Net-(NX1-"7")*%
X84220766Y-92983766D02*
X82448400Y-91211400D01*
X84220766Y-92983766D02*
X84220766Y-95188000D01*
%TO.N,Net-(NX1-"6")*%
X78867000Y-91211400D02*
X80220766Y-92565166D01*
X80220766Y-92565166D02*
X80220766Y-94188000D01*
%TO.N,Net-(NX1-"5")*%
X74812283Y-93779517D02*
X76220766Y-95188000D01*
X72745600Y-93779517D02*
X74812283Y-93779517D01*
%TO.N,Net-(NX1-"4")*%
X73495066Y-99663700D02*
X74470766Y-98688000D01*
X72296600Y-99663700D02*
X73495066Y-99663700D01*
%TO.N,Net-(NX1-"3")*%
X72699020Y-105180538D02*
X72699020Y-104959746D01*
X72699020Y-104959746D02*
X74470766Y-103188000D01*
%TO.N,Net-(NX1-"2")*%
X74470766Y-109497726D02*
X74470766Y-107688000D01*
X73196946Y-110771546D02*
X74470766Y-109497726D01*
%TO.N,Net-(NX1-"1")*%
X76220766Y-113709318D02*
X76220766Y-111188000D01*
X75311000Y-114619084D02*
X76220766Y-113709318D01*
X75814000Y-111983600D02*
X75814000Y-111108000D01*
%TO.N,Net-(NX4-A)*%
X169425221Y-113684421D02*
X166890200Y-111149400D01*
X174599600Y-113684421D02*
X169425221Y-113684421D01*
%TO.N,Net-(NX4-"0")*%
X170129200Y-109138400D02*
X170129200Y-110363000D01*
X168640200Y-107649400D02*
X170129200Y-109138400D01*
%TO.N,Net-(NX4-"9")*%
X168640200Y-103149400D02*
X168808400Y-103149400D01*
X168808400Y-103149400D02*
X170510200Y-104851200D01*
%TO.N,Net-(NX4-"8")*%
X168640200Y-98649400D02*
X169900600Y-97389000D01*
X169900600Y-97389000D02*
X169900600Y-94742000D01*
%TO.N,Net-(NX4-"7")*%
X165557200Y-93816400D02*
X165557200Y-91186000D01*
X166890200Y-95149400D02*
X165557200Y-93816400D01*
%TO.N,Net-(NX4-"6")*%
X162890200Y-91973400D02*
X162102800Y-91186000D01*
X162890200Y-94149400D02*
X162890200Y-91973400D01*
%TO.N,Net-(NX4-"5")*%
X158890200Y-95149400D02*
X157466800Y-93726000D01*
X157466800Y-93726000D02*
X156108400Y-93726000D01*
%TO.N,Net-(NX4-"4")*%
X157140200Y-98649400D02*
X155934800Y-98649400D01*
X155934800Y-98649400D02*
X154940000Y-99644200D01*
%TO.N,Net-(NX4-"3")*%
X157140200Y-103438400D02*
X155321000Y-105257600D01*
X157140200Y-103149400D02*
X157140200Y-103438400D01*
%TO.N,Net-(NX4-"2")*%
X157140200Y-109972400D02*
X156124800Y-110987800D01*
X157140200Y-107649400D02*
X157140200Y-109972400D01*
%TO.N,Net-(NX4-"1")*%
X158890200Y-111149400D02*
X158890200Y-114089800D01*
X158890200Y-114089800D02*
X158283800Y-114696200D01*
%TO.N,Net-(NX5-A)*%
X198834833Y-111019793D02*
X201533862Y-113718822D01*
X201533862Y-113718822D02*
X206527400Y-113718822D01*
%TO.N,Net-(D10-DIN)*%
X180340000Y-106146600D02*
X180086000Y-105892600D01*
X180086000Y-100304600D02*
X180675200Y-99715400D01*
X180086000Y-105892600D02*
X180086000Y-100304600D01*
X180675200Y-99715400D02*
X180675200Y-98196400D01*
%TO.N,Net-(U1-GPB0)*%
X89474800Y-101701600D02*
X89474800Y-101565200D01*
X89474800Y-101565200D02*
X88468200Y-100558600D01*
%TO.N,Net-(U1-GPB1)*%
X89440000Y-107968800D02*
X88925400Y-108483400D01*
X89440000Y-107315000D02*
X89440000Y-107968800D01*
%TO.N,Net-(U1-GPB2)*%
X98748600Y-115983000D02*
X99085400Y-115646200D01*
X98748600Y-117424200D02*
X98748600Y-115983000D01*
%TO.N,Net-(U1-GPB3)*%
X93379800Y-115477800D02*
X93345000Y-115443000D01*
X94792800Y-115477800D02*
X93379800Y-115477800D01*
%TO.N,Net-(U1-GPB4)*%
X93548200Y-107924600D02*
X93497400Y-107873800D01*
X94697800Y-107924600D02*
X93548200Y-107924600D01*
%TO.N,Net-(U1-GPB5)*%
X93878400Y-102412800D02*
X93853000Y-102438200D01*
X94977200Y-102412800D02*
X93878400Y-102412800D01*
%TO.N,Net-(U1-GPB6)*%
X93751400Y-96723200D02*
X93726000Y-96697800D01*
X94910400Y-96723200D02*
X93751400Y-96723200D01*
%TO.N,Net-(U1-GPB7)*%
X96637600Y-90135200D02*
X95961200Y-89458800D01*
X96637600Y-91109800D02*
X96637600Y-90135200D01*
X95961200Y-89458800D02*
X94386400Y-89458800D01*
%TO.N,Net-(U1-~{RESET})*%
X97824800Y-85436200D02*
X98120200Y-85140800D01*
X97824800Y-86207600D02*
X97824800Y-85436200D01*
%TO.N,Net-(U1-GPA0)*%
X75006200Y-117525800D02*
X75057000Y-117475000D01*
X73542400Y-117525800D02*
X75006200Y-117525800D01*
%TO.N,Net-(U1-GPA1)*%
X69418200Y-116941600D02*
X69494400Y-117017800D01*
X69418200Y-115554000D02*
X69418200Y-116941600D01*
%TO.N,Net-(U1-GPA2)*%
X68268436Y-107943236D02*
X68249800Y-107924600D01*
X69374000Y-107943236D02*
X68268436Y-107943236D01*
%TO.N,Net-(U1-GPA3)*%
X69459027Y-102412800D02*
X68148200Y-102412800D01*
X68148200Y-102412800D02*
X68122800Y-102438200D01*
%TO.N,Net-(U1-GPA4)*%
X68605400Y-96697800D02*
X68554600Y-96748600D01*
X69993000Y-96697800D02*
X68605400Y-96697800D01*
%TO.N,Net-(U1-GPA5)*%
X71058573Y-90972173D02*
X70075600Y-89989200D01*
X70075600Y-89989200D02*
X70075600Y-89611200D01*
X71101200Y-90972173D02*
X71058573Y-90972173D01*
%TO.N,Net-(U1-GPA6)*%
X86741000Y-85309200D02*
X86741000Y-85166200D01*
X90281000Y-90017600D02*
X90281000Y-88849200D01*
X90281000Y-88849200D02*
X86741000Y-85309200D01*
%TO.N,Net-(U1-GPA7)*%
X91541600Y-87553800D02*
X88188800Y-84201000D01*
X91541600Y-91592400D02*
X91541600Y-87553800D01*
X91592400Y-91643200D02*
X91541600Y-91592400D01*
X91033600Y-92202000D02*
X91592400Y-91643200D01*
X91001600Y-92202000D02*
X91033600Y-92202000D01*
X88188800Y-84201000D02*
X85445600Y-84201000D01*
%TO.N,Net-(U3-GPB0)*%
X171932600Y-101904800D02*
X170916600Y-100888800D01*
X172075600Y-101904800D02*
X171932600Y-101904800D01*
%TO.N,Net-(U3-GPB1)*%
X171948600Y-108162600D02*
X171475400Y-108635800D01*
X171948600Y-107645200D02*
X171948600Y-107585000D01*
X171948600Y-107645200D02*
X171948600Y-108162600D01*
%TO.N,Net-(U3-GPB2)*%
X184912000Y-117525800D02*
X184810400Y-117424200D01*
X186375800Y-117525800D02*
X184912000Y-117525800D01*
%TO.N,Net-(U3-GPB3)*%
X184327800Y-115427000D02*
X182660800Y-115427000D01*
X182660800Y-115427000D02*
X182626000Y-115392200D01*
%TO.N,Net-(U3-GPB4)*%
X183588976Y-107873800D02*
X182613764Y-106898588D01*
X183632600Y-107873800D02*
X183588976Y-107873800D01*
%TO.N,Net-(U3-GPB5)*%
X182718200Y-102311200D02*
X181813200Y-102311200D01*
X181813200Y-102311200D02*
X181787800Y-102285800D01*
%TO.N,Net-(U3-GPB6)*%
X181524400Y-95326200D02*
X182184800Y-95986600D01*
X182896000Y-96697800D02*
X182184800Y-95986600D01*
X179679600Y-95326200D02*
X181524400Y-95326200D01*
%TO.N,Net-(U3-GPB7)*%
X186486800Y-90865200D02*
X186502800Y-90881200D01*
X186486800Y-88735600D02*
X186486800Y-90865200D01*
%TO.N,Net-(U3-GPA0)*%
X154473400Y-117779800D02*
X154330400Y-117779800D01*
X154473400Y-117779800D02*
X153357845Y-117779800D01*
X153357845Y-117779800D02*
X153328698Y-117750653D01*
%TO.N,Net-(U3-GPA1)*%
X152425400Y-115833400D02*
X152425400Y-117246400D01*
X152425400Y-117246400D02*
X152450800Y-117271800D01*
%TO.N,Net-(U3-GPA2)*%
X152365200Y-108204000D02*
X151180800Y-108204000D01*
X151180800Y-108204000D02*
X151155400Y-108229400D01*
%TO.N,Net-(U3-GPA3)*%
X152314400Y-102412800D02*
X151130000Y-102412800D01*
%TO.N,Net-(U3-GPA4)*%
X152085800Y-96561400D02*
X151257000Y-95732600D01*
X152085800Y-96621600D02*
X152085800Y-96561400D01*
%TO.N,Net-(U3-GPA5)*%
X154321000Y-90576400D02*
X154321000Y-89722200D01*
X154321000Y-89722200D02*
X154355800Y-89687400D01*
%TO.N,Net-(U3-GPA6)*%
X171526200Y-86156800D02*
X168960800Y-86156800D01*
X173339000Y-87969600D02*
X171526200Y-86156800D01*
X173339000Y-90043000D02*
X173339000Y-87969600D01*
X168960800Y-86156800D02*
X168376600Y-85572600D01*
%TO.N,Net-(U3-GPA7)*%
X174828200Y-88392000D02*
X174828200Y-87604600D01*
X173339000Y-92075000D02*
X174142400Y-92075000D01*
X174828200Y-91389200D02*
X174828200Y-88392000D01*
X174828200Y-87604600D02*
X172339700Y-85116100D01*
X172339700Y-85116100D02*
X169875200Y-85116100D01*
X174142400Y-92075000D02*
X174828200Y-91389200D01*
%TO.N,Net-(U4-GPB0)*%
X209042000Y-96697800D02*
X208229200Y-95885000D01*
X209235800Y-96697800D02*
X209042000Y-96697800D01*
%TO.N,Net-(U4-GPB1)*%
X204368400Y-86182200D02*
X204889100Y-85661500D01*
X204368400Y-87020400D02*
X204368400Y-86182200D01*
X204889100Y-85661500D02*
X210477100Y-85661500D01*
X210477100Y-85661500D02*
X211420200Y-86604600D01*
X211420200Y-86604600D02*
X211420200Y-91262200D01*
%TO.N,Net-(U4-GPB2)*%
X215849200Y-82499200D02*
X216839800Y-83489800D01*
X201883200Y-88218200D02*
X193852706Y-88218200D01*
X192930400Y-87295894D02*
X192930400Y-83955000D01*
X203301600Y-87528400D02*
X202573000Y-87528400D01*
X193852706Y-88218200D02*
X192930400Y-87295894D01*
X194386200Y-82499200D02*
X215849200Y-82499200D01*
X202573000Y-87528400D02*
X201883200Y-88218200D01*
X222030800Y-83489800D02*
X228498400Y-89957400D01*
X216839800Y-83489800D02*
X222030800Y-83489800D01*
X192930400Y-83955000D02*
X194386200Y-82499200D01*
%TO.N,Net-(U4-GPB3)*%
X202082400Y-88874600D02*
X193319400Y-88874600D01*
X192328800Y-87884000D02*
X192328800Y-83388200D01*
X202488800Y-88468200D02*
X202082400Y-88874600D01*
X217220800Y-82727800D02*
X223529400Y-82727800D01*
X193319400Y-88874600D02*
X192328800Y-87884000D01*
X204165200Y-88468200D02*
X202488800Y-88468200D01*
X223529400Y-82727800D02*
X230682800Y-89881200D01*
X204546200Y-88087200D02*
X204165200Y-88468200D01*
X216522300Y-81978500D02*
X217220800Y-82677000D01*
X193738500Y-81978500D02*
X216522300Y-81978500D01*
X217220800Y-82677000D02*
X217220800Y-82727800D01*
X192328800Y-83388200D02*
X193738500Y-81978500D01*
%TO.N,Net-(U4-GPB4)*%
X229759000Y-101904800D02*
X228193600Y-101904800D01*
X228193600Y-101904800D02*
X228117400Y-101828600D01*
%TO.N,Net-(U4-GPB5)*%
X216204800Y-104444800D02*
X216204800Y-97637600D01*
X216204800Y-97637600D02*
X217906600Y-95935800D01*
X216941400Y-105181400D02*
X216204800Y-104444800D01*
X228447600Y-107619800D02*
X226009200Y-105181400D01*
X228819200Y-107619800D02*
X228819200Y-107178600D01*
X226009200Y-105181400D02*
X216941400Y-105181400D01*
X228819200Y-107619800D02*
X228447600Y-107619800D01*
%TO.N,Net-(U4-GPA0)*%
X206044800Y-87401400D02*
X207822800Y-87401400D01*
X205368400Y-88077800D02*
X205368400Y-90043000D01*
X206044800Y-87401400D02*
X205368400Y-88077800D01*
X207822800Y-87401400D02*
X208889600Y-88468200D01*
%TO.N,Net-(U4-GPA1)*%
X206629000Y-89839800D02*
X206705200Y-89839800D01*
X205444600Y-92100400D02*
X205689200Y-92100400D01*
X206705200Y-89839800D02*
X206908400Y-89636600D01*
X205562200Y-92100400D02*
X206629000Y-91033600D01*
X206629000Y-91033600D02*
X206629000Y-89839800D01*
X205444600Y-92100400D02*
X205562200Y-92100400D01*
%TO.N,Net-(U4-GPA2)*%
X207086200Y-88366600D02*
X207822800Y-89103200D01*
X206176068Y-100588268D02*
X206146400Y-100558600D01*
X206616300Y-92417900D02*
X207822800Y-91211400D01*
X206616300Y-96558100D02*
X206616300Y-92417900D01*
X206176068Y-101880236D02*
X206176068Y-100588268D01*
X206298800Y-96875600D02*
X206616300Y-96558100D01*
X207822800Y-91211400D02*
X207822800Y-89103200D01*
X206705200Y-88366600D02*
X207086200Y-88366600D01*
%TO.N,Net-(U4-GPA3)*%
X205978000Y-107696000D02*
X207111600Y-107696000D01*
X207111600Y-107696000D02*
X207137000Y-107721400D01*
X207340200Y-97358200D02*
X207340200Y-93750700D01*
X210032600Y-88036400D02*
X210032600Y-90258900D01*
X205409800Y-86690200D02*
X208686400Y-86690200D01*
X208686400Y-86690200D02*
X210032600Y-88036400D01*
X210032600Y-90258900D02*
X207340200Y-92951300D01*
X207340200Y-92951300D02*
X207340200Y-93750700D01*
%TO.N,Net-(U4-GPA4)*%
X195326000Y-85572600D02*
X195275200Y-85572600D01*
X200075800Y-86004400D02*
X195757800Y-86004400D01*
X209905600Y-117144800D02*
X209804000Y-117043200D01*
X211217000Y-117144800D02*
X209905600Y-117144800D01*
X195757800Y-86004400D02*
X195326000Y-85572600D01*
%TO.N,Net-(U4-GPA5)*%
X202539600Y-84226400D02*
X201587800Y-85178200D01*
X209067400Y-115300000D02*
X207838800Y-115300000D01*
X196252400Y-85178200D02*
X196240400Y-85166200D01*
X207838800Y-115300000D02*
X207060800Y-116078000D01*
X201587800Y-85178200D02*
X196252400Y-85178200D01*
%TO.N,Net-(U4-GPA6)*%
X197027800Y-84201000D02*
X196951600Y-84277200D01*
X208788000Y-107543600D02*
X207467200Y-108864400D01*
X201142600Y-84201000D02*
X197027800Y-84201000D01*
X209007200Y-107543600D02*
X208788000Y-107543600D01*
%TO.N,Net-(U4-GPA7)*%
X209007200Y-102184200D02*
X208000600Y-102184200D01*
X208000600Y-102184200D02*
X207975200Y-102158800D01*
%TO.N,Net-(NX5-"0")*%
X202107800Y-110363000D02*
X200584833Y-108840033D01*
X200584833Y-108840033D02*
X200584833Y-107519793D01*
%TO.N,Net-(NX5-"9")*%
X200584833Y-103019793D02*
X200626025Y-103019793D01*
X200626025Y-103019793D02*
X202432868Y-104826636D01*
%TO.N,Net-(NX5-"8")*%
X200584833Y-98519793D02*
X201676000Y-97428626D01*
X201676000Y-97428626D02*
X201676000Y-94792800D01*
%TO.N,Net-(NX5-"7")*%
X197535800Y-93720760D02*
X197535800Y-91059000D01*
X198834833Y-95019793D02*
X197535800Y-93720760D01*
%TO.N,Net-(NX5-"6")*%
X194834833Y-94019793D02*
X194834833Y-91653833D01*
X194834833Y-91653833D02*
X194275600Y-91094600D01*
%TO.N,Net-(NX5-"5")*%
X189551240Y-93736200D02*
X188230400Y-93736200D01*
X190834833Y-95019793D02*
X189551240Y-93736200D01*
%TO.N,Net-(NX5-"4")*%
X187846007Y-98519793D02*
X186833400Y-99532400D01*
X189084833Y-98519793D02*
X187846007Y-98519793D01*
%TO.N,Net-(NX5-"3")*%
X189084833Y-103397367D02*
X187316000Y-105166200D01*
X189084833Y-103019793D02*
X189084833Y-103397367D01*
%TO.N,Net-(NX5-"2")*%
X189084833Y-107519793D02*
X188052600Y-108552026D01*
X188052600Y-108552026D02*
X188052600Y-110652600D01*
%TO.N,Net-(NX5-"1")*%
X190834833Y-113742767D02*
X190135400Y-114442200D01*
X190834833Y-111019793D02*
X190834833Y-113742767D01*
%TO.N,Net-(Q36-PadB)*%
X157880600Y-92136000D02*
X158682800Y-92136000D01*
X156321000Y-90576400D02*
X157880600Y-92136000D01*
%TO.N,Net-(Q13-PadB)*%
X94904600Y-106131400D02*
X94293800Y-106131400D01*
X96697800Y-107924600D02*
X94904600Y-106131400D01*
%TO.N,Net-(Q29-PadB)*%
X149082000Y-103678400D02*
X149072600Y-103687800D01*
X149082000Y-101701600D02*
X149082000Y-103678400D01*
%TO.N,Net-(Q17-PadB)*%
X113782600Y-89839800D02*
X111588400Y-89839800D01*
X111588400Y-89839800D02*
X111420800Y-90007400D01*
%TO.N,Net-(Q24-PadB)*%
X127136400Y-100584000D02*
X126111000Y-100584000D01*
X128914400Y-102362000D02*
X127136400Y-100584000D01*
%TO.N,Net-(Q1-PadB)*%
X71811200Y-115489284D02*
X71891000Y-115569084D01*
X71542400Y-115917684D02*
X71891000Y-115569084D01*
X71542400Y-117525800D02*
X71542400Y-115917684D01*
%TO.N,Net-(Q35-PadB)*%
X154085800Y-96621600D02*
X154085800Y-96073400D01*
X154085800Y-96073400D02*
X152688400Y-94676000D01*
%TO.N,Net-(Q52-PadB)*%
X209067400Y-111804600D02*
X209067400Y-113300000D01*
X209457400Y-111414600D02*
X209067400Y-111804600D01*
%TO.N,Net-(Q32-PadB)*%
X152425400Y-112217200D02*
X152704800Y-111937800D01*
X152425400Y-113833400D02*
X152425400Y-112217200D01*
%TO.N,Net-(Q2-PadB)*%
X69418200Y-113554000D02*
X69418200Y-112080292D01*
X69418200Y-112080292D02*
X69776946Y-111721546D01*
%TO.N,Net-(Q28-PadB)*%
X147163300Y-93467700D02*
X145913600Y-92218000D01*
X145913600Y-92218000D02*
X145913600Y-91744800D01*
X147912400Y-93467700D02*
X147163300Y-93467700D01*
%TO.N,Net-(Q6-PadB)*%
X73101200Y-90972173D02*
X74290427Y-92161400D01*
X74290427Y-92161400D02*
X75447000Y-92161400D01*
%TO.N,Net-(Q45-PadB)*%
X184810400Y-96612200D02*
X184896000Y-96697800D01*
X184810400Y-94686200D02*
X184810400Y-96612200D01*
%TO.N,Net-(Q20-PadB)*%
X117001800Y-107518200D02*
X117001800Y-108810400D01*
X117001800Y-108810400D02*
X116577000Y-109235200D01*
%TO.N,Net-(Q15-PadB)*%
X94964800Y-94777600D02*
X94776400Y-94777600D01*
X96910400Y-96723200D02*
X94964800Y-94777600D01*
%TO.N,Net-(Q5-PadB)*%
X70724717Y-94729517D02*
X69325600Y-94729517D01*
X71993000Y-96697800D02*
X71993000Y-95997800D01*
X71993000Y-95997800D02*
X70724717Y-94729517D01*
%TO.N,Net-(Q48-PadB)*%
X203444600Y-92191400D02*
X205096000Y-93842800D01*
X203444600Y-92100400D02*
X203444600Y-92191400D01*
%TO.N,Net-(Q37-PadB)*%
X169170200Y-90043000D02*
X168977200Y-90236000D01*
X171339000Y-90043000D02*
X169170200Y-90043000D01*
%TO.N,Net-(Q40-PadB)*%
X173948600Y-109013600D02*
X173549200Y-109413000D01*
X173948600Y-107645200D02*
X173948600Y-109013600D01*
%TO.N,Net-(Q11-PadB)*%
X96748600Y-115817800D02*
X97164000Y-115402400D01*
X96748600Y-117424200D02*
X96748600Y-115817800D01*
%TO.N,Net-(Q46-PadB)*%
X190855600Y-92044600D02*
X189666200Y-92044600D01*
X189666200Y-92044600D02*
X188502800Y-90881200D01*
%TO.N,Net-(Q18-PadB)*%
X114163600Y-91861200D02*
X115967400Y-93665000D01*
X114163600Y-91821000D02*
X114163600Y-91861200D01*
%TO.N,Net-(Q39-PadB)*%
X174075600Y-101904800D02*
X174075600Y-103755800D01*
X174075600Y-103755800D02*
X173930200Y-103901200D01*
%TO.N,Net-(Q4-PadB)*%
X68926200Y-100663300D02*
X68876600Y-100613700D01*
X71459027Y-102412800D02*
X69659927Y-100613700D01*
X69659927Y-100613700D02*
X68876600Y-100613700D01*
%TO.N,Net-(Q21-PadB)*%
X128695200Y-117576600D02*
X129447400Y-116824400D01*
X129073400Y-115801800D02*
X129447400Y-115427800D01*
X129447400Y-116824400D02*
X129447400Y-115427800D01*
%TO.N,Net-(Q10-PadB)*%
X91440000Y-108692800D02*
X91024600Y-109108200D01*
X91440000Y-107315000D02*
X91440000Y-108692800D01*
%TO.N,Net-(Q54-PadB)*%
X208805200Y-100416400D02*
X209239400Y-100416400D01*
X209239400Y-100416400D02*
X211007200Y-102184200D01*
%TO.N,Net-(Q3-PadB)*%
X69561302Y-106130538D02*
X69279020Y-106130538D01*
X71374000Y-107943236D02*
X71374000Y-107899200D01*
X71374000Y-107943236D02*
X69561302Y-106130538D01*
X69374000Y-106225518D02*
X69279020Y-106130538D01*
%TO.N,Net-(Q9-PadB)*%
X91474800Y-101701600D02*
X91474800Y-103646000D01*
X91474800Y-103646000D02*
X91397400Y-103723400D01*
%TO.N,Net-(Q33-PadB)*%
X152368800Y-106207600D02*
X151901000Y-106207600D01*
X154365200Y-108204000D02*
X152368800Y-106207600D01*
%TO.N,Net-(Q25-PadB)*%
X128803400Y-96748600D02*
X128803400Y-95554800D01*
X127889000Y-94640400D02*
X126974600Y-94640400D01*
X128803400Y-95554800D02*
X127889000Y-94640400D01*
%TO.N,Net-(Q7-PadB)*%
X86112200Y-90017600D02*
X85868400Y-90261400D01*
X88281000Y-90017600D02*
X86112200Y-90017600D01*
%TO.N,Net-(Q49-PadB)*%
X204176068Y-102199836D02*
X204176068Y-101880236D01*
X205852868Y-103876636D02*
X204176068Y-102199836D01*
%TO.N,Net-(Q38-PadB)*%
X173056000Y-93792000D02*
X173320600Y-93792000D01*
X171339000Y-92075000D02*
X173056000Y-93792000D01*
%TO.N,Net-(Q59-PadB)*%
X231759000Y-103451000D02*
X231334200Y-103875800D01*
X231759000Y-101904800D02*
X231759000Y-103451000D01*
%TO.N,Net-(Q31-PadB)*%
X156473400Y-117255800D02*
X154863800Y-115646200D01*
X156473400Y-117779800D02*
X156473400Y-117255800D01*
%TO.N,Net-(Q22-PadB)*%
X126898400Y-113579400D02*
X126898400Y-111983600D01*
X126898400Y-111983600D02*
X127177800Y-111704200D01*
%TO.N,Net-(Q53-PadB)*%
X209315600Y-105852000D02*
X211007200Y-107543600D01*
X208847800Y-105852000D02*
X209315600Y-105852000D01*
%TO.N,Net-(Q41-PadB)*%
X188375800Y-117052600D02*
X188375800Y-117525800D01*
X186715400Y-115392200D02*
X188375800Y-117052600D01*
%TO.N,Net-(Q47-PadB)*%
X200955800Y-90109000D02*
X203302400Y-90109000D01*
X203302400Y-90109000D02*
X203368400Y-90043000D01*
%TO.N,Net-(Q26-PadB)*%
X130616200Y-90855800D02*
X131551000Y-91790600D01*
X131551000Y-91790600D02*
X133121400Y-91790600D01*
%TO.N,Net-(Q8-PadB)*%
X89001600Y-92202000D02*
X89001600Y-92302400D01*
X89001600Y-92302400D02*
X90745200Y-94046000D01*
X91001600Y-93789600D02*
X90745200Y-94046000D01*
%TO.N,Net-(Q12-PadB)*%
X94792800Y-113477800D02*
X94792800Y-111982400D01*
X94792800Y-111982400D02*
X95106600Y-111668600D01*
%TO.N,Net-(Q30-PadB)*%
X148751800Y-108961600D02*
X148412200Y-109301200D01*
X148751800Y-107416600D02*
X148751800Y-108961600D01*
%TO.N,Net-(Q60-PadB)*%
X230819200Y-107619800D02*
X230819200Y-109166000D01*
X230819200Y-109166000D02*
X230597600Y-109387600D01*
%TO.N,Net-(Q57-PadB)*%
X226548400Y-90007400D02*
X225974800Y-90007400D01*
X228498400Y-91957400D02*
X226548400Y-90007400D01*
%TO.N,Net-(Q34-PadB)*%
X152495800Y-100594200D02*
X151520000Y-100594200D01*
X154314400Y-102412800D02*
X152495800Y-100594200D01*
X154314400Y-102412800D02*
X154381200Y-102412800D01*
%TO.N,Net-(Q14-PadB)*%
X96977200Y-102412800D02*
X95133200Y-100568800D01*
X95133200Y-100568800D02*
X93819400Y-100568800D01*
%TO.N,Net-(Q44-PadB)*%
X184718200Y-101787200D02*
X184718200Y-102311200D01*
X183413400Y-100482400D02*
X184718200Y-101787200D01*
%TO.N,Net-(Q42-PadB)*%
X184632600Y-111602600D02*
X184632600Y-113122200D01*
X184632600Y-113122200D02*
X184327800Y-113427000D01*
%TO.N,Net-(Q16-PadB)*%
X98637600Y-91109800D02*
X99486000Y-91958200D01*
X99486000Y-91958200D02*
X100974000Y-91958200D01*
%TO.N,Net-(Q58-PadB)*%
X230682800Y-91881200D02*
X230682800Y-93097200D01*
X230682800Y-93097200D02*
X230013400Y-93766600D01*
%TO.N,Net-(Q23-PadB)*%
X128787400Y-107950000D02*
X126852000Y-106014600D01*
X126852000Y-106014600D02*
X126441200Y-106014600D01*
%TO.N,Net-(Q56-PadB)*%
X215756600Y-91907400D02*
X214065400Y-91907400D01*
X214065400Y-91907400D02*
X213420200Y-91262200D01*
%TO.N,Net-(Q50-PadB)*%
X205527800Y-109413000D02*
X203978000Y-107863200D01*
X203978000Y-107863200D02*
X203978000Y-107696000D01*
%TO.N,Net-(Q43-PadB)*%
X183896000Y-106116200D02*
X183901000Y-106121200D01*
X185632600Y-107553000D02*
X184195800Y-106116200D01*
X184195800Y-106116200D02*
X183896000Y-106116200D01*
X185632600Y-107873800D02*
X185632600Y-107553000D01*
%TO.N,Net-(Q55-PadB)*%
X209736800Y-94853800D02*
X211235800Y-96352800D01*
X211235800Y-96352800D02*
X211235800Y-96697800D01*
%TO.N,Net-(Q19-PadB)*%
X117052600Y-101803200D02*
X117052600Y-103730400D01*
X117052600Y-103730400D02*
X116958000Y-103825000D01*
%TO.N,Net-(Q27-PadB)*%
X145913600Y-89839800D02*
X143592400Y-89839800D01*
X143592400Y-89839800D02*
X143551800Y-89880400D01*
%TO.N,Net-(Q51-PadB)*%
X211718000Y-115173800D02*
X213217000Y-116672800D01*
X213217000Y-116672800D02*
X213217000Y-117144800D01*
%TD*%
M02*
