M48
; DRILL file KiCad 10.0.0 date 2026-06-06T16:17:16
; FORMAT={-:-/ absolute / metric / decimal}
; #@! TF.CreationDate,2026-06-06T16:17:16+02:00
; #@! TF.GenerationSoftware,Kicad,Pcbnew,10.0.0
; #@! TF.FileFunction,Plated,1,2,PTH
FMAT,2
METRIC
; #@! TA.AperFunction,Plated,PTH,ViaDrill
T1C0.300
; #@! TA.AperFunction,Plated,PTH,ViaDrill
T2C0.500
; #@! TA.AperFunction,Plated,PTH,ComponentDrill
T3C0.650
; #@! TA.AperFunction,Plated,PTH,ComponentDrill
T4C0.800
; #@! TA.AperFunction,Plated,PTH,ComponentDrill
T5C1.000
; #@! TA.AperFunction,Plated,PTH,ComponentDrill
T6C1.143
%
G90
G05
T1
X68.123Y-102.438
X68.25Y-107.925
X68.555Y-96.749
X69.494Y-117.018
X70.076Y-89.611
X75.057Y-117.475
X78.461Y-93.116
X85.446Y-84.201
X86.741Y-85.166
X88.468Y-100.559
X88.925Y-108.483
X93.345Y-115.443
X93.497Y-107.874
X93.726Y-96.698
X93.853Y-102.438
X94.386Y-89.459
X98.12Y-85.141
X99.085Y-115.646
X103.683Y-85.725
X106.045Y-106.553
X106.909Y-81.61
X112.827Y-85.446
X113.817Y-107.544
X115.113Y-97.688
X116.815Y-86.563
X118.135Y-86.538
X119.385Y-101.817
X119.507Y-106.985
X121.641Y-116.586
X121.945Y-88.468
X123.202Y-87.478
X125.12Y-95.707
X125.73Y-96.698
X125.984Y-107.036
X128.524Y-89.556
X129.184Y-86.348
X129.54Y-89.586
X133.172Y-118.618
X135.484Y-109.601
X146.533Y-108.458
X147.193Y-100.305
X147.947Y-88.082
X148.615Y-92.329
X149.2Y-86.665
X151.13Y-102.413
X151.155Y-108.229
X151.257Y-95.733
X152.451Y-117.272
X153.329Y-117.751
X154.356Y-89.687
X167.462Y-83.681
X168.377Y-85.573
X169.875Y-85.116
X170.917Y-100.889
X171.475Y-108.636
X177.444Y-118.745
X179.68Y-95.326
X180.34Y-106.147
X180.467Y-89.179
X181.291Y-100.876
X181.788Y-102.286
X182.614Y-106.899
X182.626Y-115.392
X183.277Y-89.916
X184.404Y-89.256
X184.81Y-117.424
X186.487Y-88.736
X190.983Y-87.909
X191.567Y-86.741
X193.68Y-85.776
X194.513Y-84.531
X195.275Y-85.573
X196.24Y-85.166
X196.952Y-84.277
X200.076Y-86.004
X201.143Y-84.201
X202.54Y-84.226
X203.302Y-87.528
X204.368Y-87.02
X204.546Y-88.087
X205.41Y-86.69
X206.146Y-100.559
X206.299Y-96.876
X206.705Y-88.367
X206.908Y-89.637
X207.061Y-116.078
X207.112Y-97.587
X207.137Y-107.721
X207.467Y-108.864
X207.975Y-102.159
X208.229Y-95.885
X208.89Y-88.468
X209.804Y-117.043
X213.03Y-89.84
X213.589Y-88.875
X217.907Y-95.936
X228.117Y-101.829
T2
X78.232Y-106.426
X82.118Y-97.993
X95.86Y-84.658
X99.797Y-87.3
X102.921Y-106.324
X102.997Y-83.4
X119.532Y-105.435
X121.539Y-104.165
X122.072Y-93.599
X124.739Y-104.14
X125.959Y-89.814
X126.67Y-86.28
X129.438Y-84.074
X130.658Y-88.544
X130.81Y-84.099
X136.5Y-105.029
X160.274Y-85.686
X160.452Y-106.324
X163.297Y-108.61
X170.637Y-117.272
X179.299Y-93.802
X181.381Y-90.145
X184.226Y-84.353
X187.147Y-83.642
X188.773Y-82.652
X196.037Y-83.388
X214.224Y-84.24
X214.249Y-87.884
X217.322Y-103.302
X218.796Y-81.509
X220.574Y-85.598
X220.904Y-89.84
T3
X119.385Y-98.196
X119.4Y-109.248
X120.655Y-98.196
X120.67Y-109.248
X121.925Y-98.196
X121.94Y-109.248
X123.195Y-98.196
X123.21Y-109.248
X176.865Y-98.196
X176.865Y-108.585
X178.135Y-98.196
X178.135Y-108.585
X179.405Y-98.196
X179.405Y-108.585
X180.675Y-98.196
X180.675Y-108.585
T4
X92.151Y-113.46
X92.151Y-121.08
X117.361Y-113.443
X117.361Y-121.063
X149.073Y-113.72
X149.073Y-121.34
X174.6Y-113.684
X174.6Y-121.304
X206.527Y-113.719
X206.527Y-121.339
X218.897Y-121.31
X226.517Y-121.31
T5
X78.156Y-123.8
X80.696Y-123.8
X83.236Y-123.8
X85.776Y-123.8
X136.506Y-82.943
X139.046Y-82.943
X141.586Y-82.943
X144.126Y-82.943
X146.666Y-82.943
X149.206Y-82.943
X151.746Y-82.943
X154.286Y-82.943
T6
X74.471Y-98.688
X74.471Y-103.188
X74.471Y-107.688
X76.221Y-95.188
X76.221Y-111.188
X80.221Y-94.188
X80.221Y-112.188
X84.221Y-95.188
X84.221Y-111.188
X85.971Y-98.688
X85.971Y-103.188
X85.971Y-107.688
X99.593Y-98.671
X99.593Y-103.171
X99.593Y-107.671
X101.343Y-95.171
X101.343Y-111.171
X105.343Y-94.171
X105.343Y-112.171
X109.343Y-95.171
X109.343Y-111.171
X111.093Y-98.671
X111.093Y-103.171
X111.093Y-107.671
X131.723Y-98.627
X131.723Y-103.127
X131.723Y-107.627
X133.473Y-95.127
X133.473Y-111.127
X137.473Y-94.127
X137.473Y-112.127
X141.473Y-95.127
X141.473Y-111.127
X143.223Y-98.627
X143.223Y-103.127
X143.223Y-107.627
X157.14Y-98.649
X157.14Y-103.149
X157.14Y-107.649
X158.89Y-95.149
X158.89Y-111.149
X162.89Y-94.149
X162.89Y-112.149
X166.89Y-95.149
X166.89Y-111.149
X168.64Y-98.649
X168.64Y-103.149
X168.64Y-107.649
X189.085Y-98.52
X189.085Y-103.02
X189.085Y-107.52
X190.835Y-95.02
X190.835Y-111.02
X194.835Y-94.02
X194.835Y-112.02
X198.835Y-95.02
X198.835Y-111.02
X200.585Y-98.52
X200.585Y-103.02
X200.585Y-107.52
X214.08Y-98.487
X214.08Y-102.987
X214.08Y-107.487
X215.83Y-94.987
X215.83Y-110.987
X219.83Y-93.987
X219.83Y-111.987
X223.83Y-94.987
X223.83Y-110.987
X225.58Y-98.487
X225.58Y-102.987
X225.58Y-107.487
M30
