<?xml version="1.0" standalone="no"?>
<!DOCTYPE svg PUBLIC "-//W3C//DTD SVG 1.1//EN"
  "http://www.w3.org/Graphics/SVG/1.1/DTD/svg11.dtd">
<svg width="67.00000762939453mm" height="57.799998283386216mm" viewBox="-182.10000610351562 -62.09999847412108 67.00000762939453 57.799998283386216" xmlns="http://www.w3.org/2000/svg" version="1.1">
	<title>svgOutput</title>
	<desc>made with tinkercad</desc>
<path d="M -116.0999984741211 -46.89899826049804 L -119.10299682617188 -46.89899826049804 L -119.10299682617188 -43.10300064086913 L -116.0999984741211 -43.10300064086913 L -116.0999984741211 -23.09700012207031 L -119.10299682617188 -23.09700012207031 L -119.10299682617188 -19.30100059509277 L -116.0999984741211 -19.30100059509277 L -116.0999984741211 -8.302000045776365 L -119.10299682617188 -8.302000045776365 L -136.10299682617188 -8.302000045776365 L -136.10299682617188 -5.300000190734862 L -139.9980010986328 -5.300000190734862 L -139.9980010986328 -8.302000045776365 L -159.60299682617188 -8.302000045776365 L -159.60299682617188 -5.300000190734862 L -163.197998046875 -5.300000190734862 L -163.197998046875 -8.302000045776365 L -181.10000610351562 -8.302000045776365 L -181.10000610351562 -58.0970001220703 L -163.197998046875 -58.0970001220703 L -163.197998046875 -61.09999847412108 L -159.60299682617188 -61.09999847412108 L -159.60299682617188 -58.0970001220703 L -139.9980010986328 -58.0970001220703 L -139.9980010986328 -61.09999847412108 L -136.10299682617188 -61.09999847412108 L -136.10299682617188 -58.0970001220703 L -119.10299682617188 -58.0970001220703 L -116.0999984741211 -58.0970001220703 L -116.0999984741211 -46.89899826049804 z" fill="none" stroke="rgb(255,0,0)" stroke-width="0.001mm" />
</svg>