<?xml version="1.0" standalone="no"?>
<!DOCTYPE svg PUBLIC "-//W3C//DTD SVG 1.1//EN"
  "http://www.w3.org/Graphics/SVG/1.1/DTD/svg11.dtd">
<svg width="187mm" height="67.00000071525572mm" viewBox="-94.0999984741211 -3.2999999523162837 187 67.00000071525572" xmlns="http://www.w3.org/2000/svg" version="1.1">
	<title>svgOutput</title>
	<desc>made with tinkercad</desc>
<path d="M -93.0999984741211 62.70000076293944 L -93.0999984741211 44.798999786376946 L -90.10199737548828 44.798999786376946 L -90.10199737548828 41.20299911499023 L -93.0999984741211 41.20299911499023 L -93.0999984741211 21.59700012207031 L -90.10199737548828 21.59700012207031 L -90.10199737548828 17.701999664306637 L -93.0999984741211 17.701999664306637 L -93.0999984741211 -2.2999999523162837 L -90.10199737548828 -2.2999999523162837 L -90.0999984741211 -2.2999999523162837 L -70.6989974975586 -2.2999999523162837 L -70.6989974975586 0.6980000138282776 L -66.10399627685547 0.6980000138282776 L -66.10399627685547 -2.2999999523162837 L -2.697999954223633 -2.2999999523162837 L -2.697999954223633 0.6980000138282776 L 2.697999954223633 0.6980000138282776 L 2.697999954223633 -2.2999999523162837 L 66.10399627685547 -2.2999999523162837 L 66.10399627685547 0.6980000138282776 L 70.89900207519531 0.6980000138282776 L 70.89900207519531 -2.2999999523162837 L 90.90499877929688 -2.2999999523162837 L 91.9000015258789 -2.2999999523162837 L 91.9000015258789 0.6980000138282776 L 91.9000015258789 17.701999664306637 L 88.9020004272461 17.701999664306637 L 88.9020004272461 21.59700012207031 L 91.9000015258789 21.59700012207031 L 91.9000015258789 41.20299911499023 L 88.9020004272461 41.20299911499023 L 88.9020004272461 44.798999786376946 L 91.9000015258789 44.798999786376946 L 91.9000015258789 62.70000076293944 L 88.9020004272461 62.70000076293944 L -90.10199737548828 62.70000076293944 L -93.0999984741211 62.70000076293944 z" fill="none" stroke="rgb(255,0,0)" stroke-width="0.001mm" />
</svg>