<?xml version="1.0" standalone="no"?>
<!DOCTYPE svg PUBLIC "-//W3C//DTD SVG 1.1//EN"
  "http://www.w3.org/Graphics/SVG/1.1/DTD/svg11.dtd">
<svg width="66.99999237060547mm" height="57.80000066757201mm" viewBox="100.9000015258789 -62.20000076293944 66.99999237060547 57.80000066757201" xmlns="http://www.w3.org/2000/svg" version="1.1">
	<title>svgOutput</title>
	<desc>made with tinkercad</desc>
<path d="M 101.9000015258789 -19.400999069213864 L 104.90299987792969 -19.400999069213864 L 104.90299987792969 -23.197000503540036 L 101.9000015258789 -23.197000503540036 L 101.9000015258789 -43.20299911499023 L 104.90299987792969 -43.20299911499023 L 104.90299987792969 -46.9990005493164 L 101.9000015258789 -46.9990005493164 L 101.9000015258789 -58.19800186157225 L 104.90299987792969 -58.19800186157225 L 109.90599822998047 -58.19800186157225 L 119.00299835205078 -58.19800186157225 L 121.90299987792969 -58.19800186157225 L 121.90299987792969 -61.20000076293944 L 125.7979965209961 -61.20000076293944 L 125.7979965209961 -58.19800186157225 L 145.4029998779297 -58.19800186157225 L 145.4029998779297 -61.20000076293944 L 148.9980010986328 -61.20000076293944 L 148.9980010986328 -58.19800186157225 L 166.89999389648438 -58.19800186157225 L 166.89999389648438 -8.402999877929686 L 148.9980010986328 -8.402999877929686 L 148.9980010986328 -5.400000095367431 L 145.4029998779297 -5.400000095367431 L 145.4029998779297 -8.402999877929686 L 125.7979965209961 -8.402999877929686 L 125.7979965209961 -5.400000095367431 L 121.90299987792969 -5.400000095367431 L 121.90299987792969 -8.402999877929686 L 109.90599822998047 -8.402999877929686 L 104.90299987792969 -8.402999877929686 L 101.9000015258789 -8.402999877929686 L 101.9000015258789 -19.400999069213864 M 116.58394622802734 -25.78528213500976 L 116.73600006103516 -25.80339622497558 L 116.80965423583984 -25.812170028686516 L 116.8124008178711 -25.81319046020507 L 116.90966796875 -25.849311828613274 L 117.12971496582031 -25.930679321289055 L 117.13102722167969 -25.93151092529296 L 117.22505950927734 -25.99121665954589 L 117.43449401855469 -26.12494277954101 L 117.52252197265625 -26.20800018310546 L 117.71568298339844 -26.389839172363274 L 117.71678924560547 -26.39130020141601 L 117.79405975341797 -26.49278259277343 L 117.89411163330078 -26.6240005493164 L 117.9666976928711 -26.719198226928704 L 118.0336685180664 -26.839981079101555 L 118.18013000488281 -27.10531044006347 L 118.23394012451172 -27.240716934204094 L 118.35281372070312 -27.53788757324218 L 118.35443115234375 -27.543907165527337 L 118.39229583740234 -27.68440628051757 L 118.4786148071289 -28.007047653198235 L 118.50259399414062 -28.16146278381347 L 118.5556640625 -28.50037765502929 L 118.55587768554688 -28.504545211791985 L 118.56385040283203 -28.65859413146972 L 118.56452941894531 -28.67200088500976 L 118.58153533935547 -29.00600051879882 L 118.58153533935547 -32.76800155639648 L 118.58153533935547 -34.81600189208984 L 118.58153533935547 -35.24700164794921 L 118.57334899902344 -35.40521621704101 L 118.5556640625 -35.75333023071288 L 118.55516815185547 -35.75650024414062 L 118.53167724609375 -35.90774536132812 L 118.4786148071289 -36.24666213989257 L 118.43913269042969 -36.39347076416015 L 118.35281372070312 -36.71540451049804 L 118.3520278930664 -36.71737670898437 L 118.29900360107422 -36.85051727294921 L 118.29360961914062 -36.86399841308593 L 118.18013000488281 -37.14768981933593 L 118.1131591796875 -37.26847076416015 L 117.9666976928711 -37.533802032470696 L 117.9642562866211 -37.53701400756835 L 117.88832092285156 -37.637039184570305 L 117.71568298339844 -37.863452911376946 L 117.62764739990234 -37.946216583251946 L 117.43449401855469 -38.128765106201165 L 117.43138885498047 -38.130744934082024 L 117.33914947509766 -38.18959426879882 L 117.12971496582031 -38.322612762451165 L 117.02970123291016 -38.359756469726555 L 116.80965423583984 -38.44112396240234 L 116.73600006103516 -38.44990921020507 L 116.70671081542969 -38.45340728759765 L 116.48100280761719 -38.480998992919915 L 116.4754409790039 -38.480998992919915 L 114.68800354003906 -38.480998992919915 L 112.63999938964844 -38.480998992919915 L 112.427001953125 -38.480998992919915 L 112.32434844970703 -38.4687156677246 L 112.09864044189453 -38.44112396240234 L 111.99832916259766 -38.403980255126946 L 111.77828216552734 -38.322612762451165 L 111.77788543701172 -38.32235717773437 L 111.68294525146484 -38.26178359985351 L 111.4735107421875 -38.128765106201165 L 111.47151947021484 -38.12688827514648 L 111.38577270507812 -38.046001434326165 L 111.21858978271484 -37.88800048828124 L 111.19261169433594 -37.863452911376946 L 111.1142349243164 -37.76021575927734 L 110.94229888916016 -37.533802032470696 L 110.94219970703125 -37.53361511230468 L 110.87532806396484 -37.41301727294921 L 110.72815704345703 -37.14768981933593 L 110.72803497314453 -37.14736938476562 L 110.67434692382812 -37.01257705688476 L 110.61527252197266 -36.86399841308593 L 110.59200286865234 -36.805469512939446 L 110.55619049072266 -36.71540451049804 L 110.51670837402344 -36.56859588623046 L 110.42967987060547 -36.24666213989257 L 110.42903900146484 -36.24261093139648 L 110.40540313720703 -36.09224700927734 L 110.3530502319336 -35.75333023071288 L 110.34515380859375 -35.59511184692382 L 110.32675170898438 -35.24700164794921 L 110.32675170898438 -35.226509094238274 L 110.32675170898438 -34.81600189208984 L 110.32675170898438 -32.76800155639648 L 110.32675170898438 -29.00600051879882 L 110.33464813232422 -28.84778213500976 L 110.34395599365234 -28.67200088500976 L 110.3530502319336 -28.50037765502929 L 110.3773193359375 -28.345962524414055 L 110.42967987060547 -28.007047653198235 L 110.431884765625 -27.998870849609368 L 110.46916198730469 -27.860528945922844 L 110.55619049072266 -27.53788757324218 L 110.59200286865234 -27.447774887084954 L 110.61000061035156 -27.402481079101555 L 110.72815704345703 -27.10531044006347 L 110.79513549804688 -26.984527587890618 L 110.94229888916016 -26.719198226928704 L 111.01478576660156 -26.6240005493164 L 111.02067565917969 -26.616254806518548 L 111.19261169433594 -26.389839172363274 L 111.19422912597656 -26.388313293457024 L 111.28034973144531 -26.306783676147454 L 111.4735107421875 -26.12494277954101 L 111.56884765625 -26.064405441284173 L 111.77828216552734 -25.930679321289055 L 111.78108978271484 -25.929641723632805 L 111.87859344482422 -25.893537521362298 L 112.09864044189453 -25.812170028686516 L 112.2012939453125 -25.799594879150384 L 112.427001953125 -25.772706985473626 L 112.63999938964844 -25.772706985473626 L 114.68800354003906 -25.772706985473626 L 116.48100280761719 -25.772706985473626 L 116.58394622802734 -25.78528213500976 z" fill="none" stroke="rgb(255,0,0)" stroke-width="0.001mm" />
</svg>