<?xml version="1.0" standalone="no"?>
<!DOCTYPE svg PUBLIC "-//W3C//DTD SVG 1.1//EN"
  "http://www.w3.org/Graphics/SVG/1.1/DTD/svg11.dtd">
<svg width="187mm" height="57.799998283386216mm" viewBox="-94.0999984741211 -62.09999847412108 187 57.799998283386216" xmlns="http://www.w3.org/2000/svg" version="1.1">
	<title>svgOutput</title>
	<desc>made with tinkercad</desc>
<path d="M -81.7020034790039 -48.47900009155272 L -81.7020034790039 -48.46150970458983 L -81.7020034790039 -47.86062240600585 L -81.7020034790039 -47.367237091064446 L -81.7020034790039 -46.874431610107415 L -81.7020034790039 -45.05599975585937 L -81.7020034790039 -41.476001739501946 L -81.7020034790039 -22.697000503540036 L -79.98899841308594 -22.697000503540036 L -79.98899841308594 -41.476001739501946 L -79.98899841308594 -45.05599975585937 L -79.98899841308594 -46.51700210571288 L -79.98899841308594 -46.90139389038085 L -79.98899841308594 -47.277961730957024 L -79.98899841308594 -47.64543151855468 L -79.98899841308594 -48.0170440673828 L -79.98899841308594 -48.47700119018553 L -79.98899841308594 -48.47900009155272 L -79.9888687133789 -48.47900009155272 L -79.94564056396484 -49.15200042724608 L -79.94499969482422 -49.16199874877928 L -79.81400299072266 -49.835998535156236 L -79.5979995727539 -50.48600006103514 L -79.3010025024414 -51.10200119018553 L -79 -51.56154632568358 L -78.927001953125 -51.673000335693345 L -78.48400115966797 -52.188999176025376 L -77.97899627685547 -52.64199829101561 L -77.8239974975586 -52.74792098999022 L -77.41999816894531 -53.02399826049803 L -76.81700134277344 -53.32799911499022 L -76.18000030517578 -53.548000335693345 L -75.52100372314453 -53.681999206542955 L -74.8499984741211 -53.72700119018553 L -74.17900085449219 -53.681999206542955 L -73.72799682617188 -53.59029388427733 L -73.5199966430664 -53.548000335693345 L -72.88300323486328 -53.32799911499022 L -72.72431945800781 -53.2480010986328 L -72.27999877929688 -53.02399826049803 L -71.72100067138672 -52.64199829101561 L -71.21600341796875 -52.188999176025376 L -70.79000091552734 -51.692802429199205 L -70.77300262451172 -51.673000335693345 L -70.39900207519531 -51.10200119018553 L -70.10199737548828 -50.48600006103514 L -69.88600158691406 -49.835998535156236 L -69.75399780273438 -49.16199874877928 L -69.75335693359375 -49.15200042724608 L -69.71199798583984 -48.508136749267564 L -69.71199798583984 -45.05599975585937 L -69.71199798583984 -41.476001739501946 L -69.71199798583984 -24.5300006866455 L -69.71199798583984 -22.718999862670895 L -69.7030029296875 -22.718999862670895 L -69.7020034790039 -22.718999862670895 L -69.7020034790039 -22.697000503540036 L -67.98899841308594 -22.697000503540036 L -67.98899841308594 -24.5300006866455 L -67.98899841308594 -41.476001739501946 L -67.98899841308594 -45.05599975585937 L -67.98899841308594 -46.51700210571288 L -67.98899841308594 -46.90139389038085 L -67.98899841308594 -47.277961730957024 L -67.98899841308594 -47.64543151855468 L -67.98899841308594 -48.0170440673828 L -67.98899841308594 -48.47700119018553 L -67.98899841308594 -48.47900009155272 L -67.9888687133789 -48.47900009155272 L -67.94564056396484 -49.15200042724608 L -67.94499969482422 -49.16199874877928 L -67.81400299072266 -49.835998535156236 L -67.5979995727539 -50.48600006103514 L -67.3010025024414 -51.10200119018553 L -66.927001953125 -51.673000335693345 L -66.48400115966797 -52.188999176025376 L -66.31900024414062 -52.337009429931626 L -65.97899627685547 -52.64199829101561 L -65.53600311279297 -52.944728851318345 L -65.41999816894531 -53.02399826049803 L -64.81700134277344 -53.32799911499022 L -64.18000030517578 -53.548000335693345 L -63.520999908447266 -53.681999206542955 L -62.849998474121094 -53.72700119018553 L -62.17900085449219 -53.681999206542955 L -61.52000045776367 -53.548000335693345 L -61.439998626708984 -53.52037048339842 L -60.882999420166016 -53.32799911499022 L -60.72431564331055 -53.2480010986328 L -60.279998779296875 -53.02399826049803 L -60 -52.83265686035155 L -59.72100067138672 -52.64199829101561 L -59.215999603271484 -52.188999176025376 L -58.77299880981445 -51.673000335693345 L -58.39899826049805 -51.10200119018553 L -58.10200119018555 -50.48600006103514 L -57.88600158691406 -49.835998535156236 L -57.75400161743164 -49.16199874877928 L -57.75335693359375 -49.15200042724608 L -57.71200180053711 -48.508136749267564 L -57.71200180053711 -45.05599975585937 L -57.71200180053711 -41.476001739501946 L -57.71200180053711 -24.5300006866455 L -57.71200180053711 -22.718999862670895 L -57.702999114990234 -22.718999862670895 L -57.70199966430664 -22.718999862670895 L -57.70199966430664 -22.697000503540036 L -55.98899841308594 -22.697000503540036 L -55.98899841308594 -24.5300006866455 L -55.98899841308594 -41.476001739501946 L -55.98899841308594 -45.05599975585937 L -55.98899841308594 -46.51700210571288 L -55.98899841308594 -46.90139389038085 L -55.98899841308594 -47.277961730957024 L -55.98899841308594 -47.64543151855468 L -55.98899841308594 -48.0170440673828 L -55.98899841308594 -48.47700119018553 L -55.98899841308594 -48.47900009155272 L -55.98887252807617 -48.47900009155272 L -55.945640563964844 -49.15200042724608 L -55.94499969482422 -49.16199874877928 L -55.81399917602539 -49.835998535156236 L -55.597999572753906 -50.48600006103514 L -55.30099868774414 -51.10200119018553 L -54.926998138427734 -51.673000335693345 L -54.48400115966797 -52.188999176025376 L -53.979000091552734 -52.64199829101561 L -53.45500183105469 -53.00008392333983 L -53.41999816894531 -53.02399826049803 L -53.24800109863281 -53.11071395874022 L -52.81700134277344 -53.32799911499022 L -52.18000030517578 -53.548000335693345 L -51.520999908447266 -53.681999206542955 L -50.849998474121094 -53.72700119018553 L -50.17900085449219 -53.681999206542955 L -49.52000045776367 -53.548000335693345 L -49.152000427246094 -53.42090606689452 L -48.882999420166016 -53.32799911499022 L -48.72431564331055 -53.2480010986328 L -48.279998779296875 -53.02399826049803 L -47.72100067138672 -52.64199829101561 L -47.215999603271484 -52.188999176025376 L -47 -51.937404632568345 L -46.77299880981445 -51.673000335693345 L -46.39899826049805 -51.10200119018553 L -46.10200119018555 -50.48600006103514 L -45.88600158691406 -49.835998535156236 L -45.75400161743164 -49.16199874877928 L -45.75335693359375 -49.15200042724608 L -45.71200180053711 -48.508136749267564 L -45.71200180053711 -45.05599975585937 L -45.71200180053711 -41.476001739501946 L -45.71200180053711 -35.31999969482421 L -45.71200180053711 -24.5300006866455 L -45.71200180053711 -22.718999862670895 L -45.702999114990234 -22.718999862670895 L -45.70199966430664 -22.718999862670895 L -45.70199966430664 -22.697000503540036 L -43.98899841308594 -22.697000503540036 L -43.98899841308594 -24.5300006866455 L -43.98899841308594 -35.31999969482421 L -43.98899841308594 -41.476001739501946 L -43.98899841308594 -45.05599975585937 L -43.98899841308594 -46.51700210571288 L -43.98899841308594 -46.90139389038085 L -43.98899841308594 -47.277961730957024 L -43.98899841308594 -47.64543151855468 L -43.98899841308594 -48.0170440673828 L -43.98899841308594 -48.47700119018553 L -43.98899841308594 -48.47900009155272 L -43.98887252807617 -48.47900009155272 L -43.945640563964844 -49.15200042724608 L -43.94499969482422 -49.16199874877928 L -43.81399917602539 -49.835998535156236 L -43.597999572753906 -50.48600006103514 L -43.30099868774414 -51.10200119018553 L -42.926998138427734 -51.673000335693345 L -42.48400115966797 -52.188999176025376 L -41.979000091552734 -52.64199829101561 L -41.49100112915039 -52.975482940673814 L -41.41999816894531 -53.02399826049803 L -40.975685119628906 -53.2480010986328 L -40.959999084472656 -53.25590896606444 L -40.81700134277344 -53.32799911499022 L -40.18000030517578 -53.548000335693345 L -39.520999908447266 -53.681999206542955 L -38.849998474121094 -53.72700119018553 L -38.17900085449219 -53.681999206542955 L -37.52000045776367 -53.548000335693345 L -36.882999420166016 -53.32799911499022 L -36.86399841308594 -53.318420410156236 L -36.72431564331055 -53.2480010986328 L -36.279998779296875 -53.02399826049803 L -36 -52.83265686035155 L -35.72100067138672 -52.64199829101561 L -35.215999603271484 -52.188999176025376 L -34.77299880981445 -51.673000335693345 L -34.39899826049805 -51.10200119018553 L -34.10200119018555 -50.48600006103514 L -33.88600158691406 -49.835998535156236 L -33.75400161743164 -49.16199874877928 L -33.75335693359375 -49.15200042724608 L -33.71200180053711 -48.508136749267564 L -33.71200180053711 -45.05599975585937 L -33.71200180053711 -41.476001739501946 L -33.71200180053711 -31.999999999999993 L -33.71200180053711 -22.718999862670895 L -31.999000549316406 -22.718999862670895 L -31.999000549316406 -31.999999999999993 L -31.999000549316406 -41.476001739501946 L -31.999000549316406 -48.446018218994126 L -31.999000549316406 -48.47900009155272 L -31.997129440307617 -48.47900009155272 L -31.999000549316406 -48.50794982910155 L -31.999000549316406 -48.56900024414061 L -32.00294494628906 -48.56900024414061 L -32.040618896484375 -49.15200042724608 L -32.055999755859375 -49.38999938964842 L -32.23099899291992 -50.289001464843736 L -32.51900100708008 -51.155998229980455 L -32.768001556396484 -51.672233581542955 L -32.915000915527344 -51.97700119018553 L -33.41299819946289 -52.73899841308592 L -33.85023880004883 -53.2480010986328 L -34.00400161743164 -53.42699813842772 L -34.678001403808594 -54.030998229980455 L -35.42399978637695 -54.54000091552733 L -36 -54.83015060424803 L -36.22800064086914 -54.944999694824205 L -36.86399841308594 -55.165500640869126 L -37.046630859375 -55.22881698608397 L -37.07600021362305 -55.23899841308592 L -37.95500183105469 -55.41799926757811 L -38.849998474121094 -55.478000640869126 L -39.74399948120117 -55.41799926757811 L -40.624000549316406 -55.23899841308592 L -40.959999084472656 -55.12250900268553 L -41.47200012207031 -54.944999694824205 L -41.49100112915039 -54.93542861938475 L -42.2760009765625 -54.54000091552733 L -43.02199935913086 -54.030998229980455 L -43.69499969482422 -53.42699813842772 L -43.84876251220703 -53.2480010986328 L -44.2859992980957 -52.73899841308592 L -44.784000396728516 -51.97700119018553 L -44.83970642089844 -51.86179351806639 L -44.84958267211914 -51.8413734436035 L -44.9110221862793 -51.968749999999986 L -44.915000915527344 -51.97700119018553 L -45.088680267333984 -52.2427520751953 L -45.41299819946289 -52.73899841308592 L -45.42655944824219 -52.754787445068345 L -45.702999114990234 -53.076599121093736 L -45.85023880004883 -53.2480010986328 L -46.00400161743164 -53.42699813842772 L -46.678001403808594 -54.030998229980455 L -47 -54.25070190429686 L -47.42399978637695 -54.54000091552733 L -48.22800064086914 -54.944999694824205 L -49.07600021362305 -55.23899841308592 L -49.152000427246094 -55.25447845458983 L -49.95500183105469 -55.41799926757811 L -50.849998474121094 -55.478000640869126 L -51.74399948120117 -55.41799926757811 L -52.624000549316406 -55.23899841308592 L -53.24800109863281 -55.0226593017578 L -53.45500183105469 -54.950893402099595 L -53.47200012207031 -54.944999694824205 L -54.2760009765625 -54.54000091552733 L -55.02199935913086 -54.030998229980455 L -55.69499969482422 -53.42699813842772 L -55.84876251220703 -53.2480010986328 L -56.2859992980957 -52.73899841308592 L -56.784000396728516 -51.97700119018553 L -56.83970642089844 -51.86179351806639 L -56.84958267211914 -51.8413734436035 L -56.9110221862793 -51.968749999999986 L -56.915000915527344 -51.97700119018553 L -57.34400177001953 -52.633422851562486 L -57.41299819946289 -52.73899841308592 L -57.42655944824219 -52.754787445068345 L -57.702999114990234 -53.076599121093736 L -57.85023880004883 -53.2480010986328 L -58.00400161743164 -53.42699813842772 L -58.678001403808594 -54.030998229980455 L -59.42399978637695 -54.54000091552733 L -60 -54.83015060424803 L -60.22800064086914 -54.944999694824205 L -61.07600021362305 -55.23899841308592 L -61.439998626708984 -55.31312561035155 L -61.92552185058594 -55.41199874877928 L -61.95500183105469 -55.41799926757811 L -62.849998474121094 -55.478000640869126 L -63.74399948120117 -55.41799926757811 L -64.6240005493164 -55.23899841308592 L -65.47200012207031 -54.944999694824205 L -65.53600311279297 -54.91276168823241 L -66.2760009765625 -54.54000091552733 L -66.31900024414062 -54.51066207885741 L -67.02200317382812 -54.030998229980455 L -67.69499969482422 -53.42699813842772 L -67.84876251220703 -53.2480010986328 L -68.28600311279297 -52.73899841308592 L -68.78399658203125 -51.97700119018553 L -68.83970642089844 -51.86179351806639 L -68.84957885742188 -51.8413734436035 L -68.91101837158203 -51.968749999999986 L -68.91500091552734 -51.97700119018553 L -69.08868408203125 -52.2427520751953 L -69.41300201416016 -52.73899841308592 L -69.42655944824219 -52.754787445068345 L -69.7030029296875 -53.076599121093736 L -69.85023498535156 -53.2480010986328 L -70.00399780273438 -53.42699813842772 L -70.6780014038086 -54.030998229980455 L -70.79000091552734 -54.10741806030272 L -71.42400360107422 -54.54000091552733 L -72.22799682617188 -54.944999694824205 L -73.07599639892578 -55.23899841308592 L -73.72799682617188 -55.37177276611327 L -73.92552185058594 -55.41199874877928 L -73.95500183105469 -55.41799926757811 L -74.8499984741211 -55.478000640869126 L -75.74400329589844 -55.41799926757811 L -76.6240005493164 -55.23899841308592 L -77.47200012207031 -54.944999694824205 L -77.8239974975586 -54.76768493652342 L -78.2760009765625 -54.54000091552733 L -79 -54.04600906372069 L -79.02200317382812 -54.030998229980455 L -79.69499969482422 -53.42699813842772 L -79.84876251220703 -53.2480010986328 L -80.28600311279297 -52.73899841308592 L -80.78399658203125 -51.97700119018553 L -81.18099975585938 -51.155998229980455 L -81.46900177001953 -50.289001464843736 L -81.64399719238281 -49.38999938964842 L -81.65937805175781 -49.15200042724608 L -81.69847869873047 -48.54700088500975 L -81.7020034790039 -48.54700088500975 L -81.7020034790039 -48.51227951049803 L -81.7020034790039 -48.49247360229491 L -81.70287322998047 -48.47900009155272 L -81.7020034790039 -48.47900009155272 M -93.0999984741211 -46.897998809814446 L -90.09700012207031 -46.897998809814446 L -90.09700012207031 -58.09799957275389 L -86.10199737548828 -58.09799957275389 L -82.89800262451172 -58.09799957275389 L -81.7030029296875 -58.09799957275389 L -79 -58.09799957275389 L -72.09700012207031 -58.09799957275389 L -72.09700012207031 -61.09999847412108 L -70.79000091552734 -61.09999847412108 L -69.7030029296875 -61.09999847412108 L -67.3030014038086 -61.09999847412108 L -67.3030014038086 -58.09799957275389 L -66.31900024414062 -58.09799957275389 L -60 -58.09799957275389 L -57.702999114990234 -58.09799957275389 L -53.45500183105469 -58.09799957275389 L -47 -58.09799957275389 L -45.702999114990234 -58.09799957275389 L -41.49100112915039 -58.09799957275389 L -36 -58.09799957275389 L -31.996999740600586 -58.09799957275389 L -30.003000259399414 -58.09799957275389 L -26.99799919128418 -58.09799957275389 L -25.003000259399414 -58.09799957275389 L -21.99799919128418 -58.09799957275389 L -15.003000259399414 -58.09799957275389 L -11.998000144958496 -58.09799957275389 L -5.002999782562256 -58.09799957275389 L -3.8970000743865967 -58.09799957275389 L -3.8970000743865967 -61.09999847412108 L 1.4980000257492065 -61.09999847412108 L 1.4980000257492065 -58.09799957275389 L 4.998000144958496 -58.09799957275389 L 8.001999855041504 -58.09799957275389 L 9.998000144958496 -58.09799957275389 L 13.003000259399414 -58.09799957275389 L 14.998000144958496 -58.09799957275389 L 18.003000259399414 -58.09799957275389 L 18.99799919128418 -58.09799957275389 L 39.00299835205078 -58.09799957275389 L 39.99800109863281 -58.09799957275389 L 43.00299835205078 -58.09799957275389 L 49.99800109863281 -58.09799957275389 L 53.00299835205078 -58.09799957275389 L 59.99800109863281 -58.09799957275389 L 63.00299835205078 -58.09799957275389 L 64.90299987792969 -58.09799957275389 L 64.90299987792969 -61.09999847412108 L 69.49800109863281 -61.09999847412108 L 69.49800109863281 -58.09799957275389 L 69.99800109863281 -58.09799957275389 L 73.00299835205078 -58.09799957275389 L 81.5979995727539 -58.09799957275389 L 84.8030014038086 -58.09799957275389 L 88.89800262451172 -58.09799957275389 L 88.89800262451172 -48.19800186157225 L 88.89800262451172 -46.897998809814446 L 91.9000015258789 -46.897998809814446 L 91.9000015258789 -43.10300064086913 L 88.89800262451172 -43.10300064086913 L 88.89800262451172 -41.476001739501946 L 88.89800262451172 -35.998001098632805 L 88.89800262451172 -31.999999999999993 L 88.89800262451172 -23.097999572753903 L 91.9000015258789 -23.097999572753903 L 91.9000015258789 -19.302999496459957 L 88.89800262451172 -19.302999496459957 L 88.89800262451172 -15.19799995422363 L 88.89800262451172 -8.303000450134276 L 81.5979995727539 -8.303000450134276 L 69.49800109863281 -8.303000450134276 L 69.49800109863281 -5.300000190734862 L 64.90299987792969 -5.300000190734862 L 64.90299987792969 -8.303000450134276 L 1.4980000257492065 -8.303000450134276 L 1.4980000257492065 -5.300000190734862 L -3.8970000743865967 -5.300000190734862 L -3.8970000743865967 -8.303000450134276 L -25.003000259399414 -8.303000450134276 L -31.999000549316406 -8.303000450134276 L -33.71200180053711 -8.303000450134276 L -41.49100112915039 -8.303000450134276 L -43.98899841308594 -8.303000450134276 L -45.70199966430664 -8.303000450134276 L -45.702999114990234 -8.303000450134276 L -45.71200180053711 -8.303000450134276 L -55.98899841308594 -8.303000450134276 L -57.70199966430664 -8.303000450134276 L -57.702999114990234 -8.303000450134276 L -57.71200180053711 -8.303000450134276 L -66.31900024414062 -8.303000450134276 L -67.3030014038086 -8.303000450134276 L -67.3030014038086 -5.300000190734862 L -67.98899841308594 -5.300000190734862 L -69.7020034790039 -5.300000190734862 L -69.7030029296875 -5.300000190734862 L -69.71199798583984 -5.300000190734862 L -72.09700012207031 -5.300000190734862 L -72.09700012207031 -8.303000450134276 L -79 -8.303000450134276 L -79.98899841308594 -8.303000450134276 L -81.7020034790039 -8.303000450134276 L -81.7030029296875 -8.303000450134276 L -86.10199737548828 -8.303000450134276 L -90.09700012207031 -8.303000450134276 L -90.09700012207031 -19.302999496459957 L -93.0999984741211 -19.302999496459957 L -93.0999984741211 -23.097999572753903 L -90.09700012207031 -23.097999572753903 L -90.09700012207031 -43.10300064086913 L -93.0999984741211 -43.10300064086913 L -93.0999984741211 -46.897998809814446 M -85.88800048828125 -48.99900054931639 L -85.77100372314453 -48.824001312255845 L -85.63300323486328 -48.66699981689452 L -85.47599792480469 -48.52899932861327 L -85.3010025024414 -48.41199874877928 L -85.11299896240234 -48.31900024414061 L -84.91500091552734 -48.25199890136717 L -84.70899963378906 -48.210998535156236 L -84.5 -48.19800186157225 L -84.29100036621094 -48.210998535156236 L -84.08499908447266 -48.25199890136717 L -83.96800231933594 -48.291591644287095 L -83.88700103759766 -48.31900024414061 L -83.6989974975586 -48.41199874877928 L -83.52400207519531 -48.52899932861327 L -83.36699676513672 -48.66699981689452 L -83.22899627685547 -48.824001312255845 L -83.11199951171875 -48.99900054931639 L -83.03631591796875 -49.15200042724608 L -83.01899719238281 -49.18700027465819 L -82.9520034790039 -49.38499832153319 L -82.91100311279297 -49.59099960327147 L -82.89800262451172 -49.79999923706053 L -82.91100311279297 -50.008998870849595 L -82.9520034790039 -50.215000152587876 L -83.01899719238281 -50.412998199462876 L -83.11199951171875 -50.60100173950194 L -83.22899627685547 -50.776000976562486 L -83.36699676513672 -50.93299865722655 L -83.52400207519531 -51.0709991455078 L -83.6989974975586 -51.18799972534178 L -83.88700103759766 -51.280998229980455 L -83.96800231933594 -51.308410644531236 L -84.08499908447266 -51.34799957275389 L -84.29100036621094 -51.38899993896483 L -84.5 -51.40299987792967 L -84.70899963378906 -51.38899993896483 L -84.91500091552734 -51.34799957275389 L -85.11299896240234 -51.280998229980455 L -85.3010025024414 -51.18799972534178 L -85.47599792480469 -51.0709991455078 L -85.63300323486328 -50.93299865722655 L -85.77100372314453 -50.776000976562486 L -85.88800048828125 -50.60100173950194 L -85.98100280761719 -50.412998199462876 L -86.01599884033203 -50.30956649780272 L -86.0479965209961 -50.215000152587876 L -86.08899688720703 -50.008998870849595 L -86.10199737548828 -49.79999923706053 L -86.08899688720703 -49.59099960327147 L -86.0479965209961 -49.38499832153319 L -86.01599884033203 -49.290431976318345 L -85.98100280761719 -49.18700027465819 L -85.96368408203125 -49.15200042724608 L -85.88800048828125 -48.99900054931639 M -85.98100280761719 -16.1870002746582 L -85.88800048828125 -15.998999595642086 L -85.77100372314453 -15.82400035858154 L -85.63300323486328 -15.666999816894528 L -85.47599792480469 -15.529000282287594 L -85.3010025024414 -15.41199970245361 L -85.11299896240234 -15.319000244140621 L -84.91500091552734 -15.2519998550415 L -84.70899963378906 -15.21100044250488 L -84.5 -15.19799995422363 L -84.29100036621094 -15.21100044250488 L -84.08499908447266 -15.2519998550415 L -83.96800231933594 -15.29159069061279 L -83.88700103759766 -15.319000244140621 L -83.6989974975586 -15.41199970245361 L -83.52400207519531 -15.529000282287594 L -83.36699676513672 -15.666999816894528 L -83.22899627685547 -15.82400035858154 L -83.11199951171875 -15.998999595642086 L -83.01899719238281 -16.1870002746582 L -82.95233917236328 -16.38400077819824 L -82.9520034790039 -16.385000228881832 L -82.91100311279297 -16.59099960327148 L -82.89800262451172 -16.799999237060543 L -82.91100311279297 -17.00900077819824 L -82.9520034790039 -17.215000152587887 L -83.01899719238281 -17.41300010681152 L -83.11199951171875 -17.600999832153317 L -83.22899627685547 -17.775999069213864 L -83.36699676513672 -17.93300056457519 L -83.52400207519531 -18.07099914550781 L -83.6989974975586 -18.187999725341793 L -83.88700103759766 -18.281000137329098 L -83.96800231933594 -18.308408737182614 L -84.08499908447266 -18.347999572753903 L -84.29100036621094 -18.38899993896484 L -84.5 -18.402999877929684 L -84.70899963378906 -18.38899993896484 L -84.91500091552734 -18.347999572753903 L -85.11299896240234 -18.281000137329098 L -85.3010025024414 -18.187999725341793 L -85.47599792480469 -18.07099914550781 L -85.63300323486328 -17.93300056457519 L -85.77100372314453 -17.775999069213864 L -85.88800048828125 -17.600999832153317 L -85.98100280761719 -17.41300010681152 L -86.01599884033203 -17.30956649780273 L -86.0479965209961 -17.215000152587887 L -86.08899688720703 -17.00900077819824 L -86.10199737548828 -16.799999237060543 L -86.08899688720703 -16.59099960327148 L -86.0479965209961 -16.385000228881832 L -86.04766082763672 -16.38400077819824 L -86.01599884033203 -16.290431976318356 L -85.98100280761719 -16.1870002746582 M 81.92900085449219 -15.82400035858154 L 82.06700134277344 -15.666999816894528 L 82.2239990234375 -15.529000282287594 L 82.39900207519531 -15.41199970245361 L 82.58699798583984 -15.319000244140621 L 82.78500366210938 -15.2519998550415 L 82.99099731445312 -15.21100044250488 L 83.19999694824219 -15.19799995422363 L 83.40899658203125 -15.21100044250488 L 83.61499786376953 -15.2519998550415 L 83.81300354003906 -15.319000244140621 L 83.96800231933594 -15.395675659179684 L 84.0009994506836 -15.41199970245361 L 84.1760025024414 -15.529000282287594 L 84.33300018310547 -15.666999816894528 L 84.47100067138672 -15.82400035858154 L 84.58799743652344 -15.998999595642086 L 84.68099975585938 -16.1870002746582 L 84.74766540527344 -16.38400077819824 L 84.74800109863281 -16.385000228881832 L 84.78900146484375 -16.59099960327148 L 84.8030014038086 -16.799999237060543 L 84.78900146484375 -17.00900077819824 L 84.74800109863281 -17.215000152587887 L 84.68099975585938 -17.41300010681152 L 84.58799743652344 -17.600999832153317 L 84.47100067138672 -17.775999069213864 L 84.33300018310547 -17.93300056457519 L 84.1760025024414 -18.07099914550781 L 84.0009994506836 -18.187999725341793 L 83.96800231933594 -18.204324722290036 L 83.81300354003906 -18.281000137329098 L 83.61499786376953 -18.347999572753903 L 83.40899658203125 -18.38899993896484 L 83.19999694824219 -18.402999877929684 L 82.99099731445312 -18.38899993896484 L 82.78500366210938 -18.347999572753903 L 82.58699798583984 -18.281000137329098 L 82.39900207519531 -18.187999725341793 L 82.2239990234375 -18.07099914550781 L 82.06700134277344 -17.93300056457519 L 81.92900085449219 -17.775999069213864 L 81.91999816894531 -17.762538909912106 L 81.81199645996094 -17.600999832153317 L 81.71900177001953 -17.41300010681152 L 81.6520004272461 -17.215000152587887 L 81.61100006103516 -17.00900077819824 L 81.5979995727539 -16.799999237060543 L 81.61100006103516 -16.59099960327148 L 81.6520004272461 -16.385000228881832 L 81.65233612060547 -16.38400077819824 L 81.71900177001953 -16.1870002746582 L 81.81199645996094 -15.998999595642086 L 81.91999816894531 -15.837461471557614 L 81.92900085449219 -15.82400035858154 M -23.26099967956543 -16.014999389648434 L -23 -15.998000144958493 L -22.73900032043457 -16.014999389648434 L -22.48200035095215 -16.065999984741207 L -22.233999252319336 -16.14999961853027 L -21.999000549316406 -16.26600074768066 L -21.821592330932617 -16.38400077819824 L -21.7810001373291 -16.4109992980957 L -21.583999633789062 -16.58399963378906 L -21.410999298095703 -16.781000137329098 L -21.266000747680664 -16.999000549316403 L -21.149999618530273 -17.233999252319332 L -21.06599998474121 -17.482000350952145 L -21.014999389648438 -17.739000320434567 L -20.99799919128418 -17.999999999999996 L -21.014999389648438 -18.260999679565426 L -21.048933029174805 -18.431999206542965 L -21.06599998474121 -18.517999649047848 L -21.149999618530273 -18.76600074768066 L -21.266000747680664 -19.00099945068359 L -21.410999298095703 -19.218999862670895 L -21.583999633789062 -19.416000366210934 L -21.7810001373291 -19.589000701904293 L -21.999000549316406 -19.733999252319332 L -22.233999252319336 -19.850000381469723 L -22.48200035095215 -19.934000015258786 L -22.527999877929688 -19.943128585815426 L -22.73900032043457 -19.98500061035156 L -23 -20.00300025939941 L -23.26099967956543 -19.98500061035156 L -23.51799964904785 -19.934000015258786 L -23.766000747680664 -19.850000381469723 L -24.000999450683594 -19.733999252319332 L -24.2189998626709 -19.589000701904293 L -24.416000366210938 -19.416000366210934 L -24.576000213623047 -19.233802795410153 L -24.589000701904297 -19.218999862670895 L -24.733999252319336 -19.00099945068359 L -24.850000381469727 -18.76600074768066 L -24.93400001525879 -18.517999649047848 L -24.985000610351562 -18.260999679565426 L -25.003000259399414 -17.999999999999996 L -24.985000610351562 -17.739000320434567 L -24.93400001525879 -17.482000350952145 L -24.850000381469727 -17.233999252319332 L -24.733999252319336 -16.999000549316403 L -24.589000701904297 -16.781000137329098 L -24.576000213623047 -16.76619720458984 L -24.416000366210938 -16.58399963378906 L -24.2189998626709 -16.4109992980957 L -24.178407669067383 -16.38400077819824 L -24.000999450683594 -16.26600074768066 L -23.766000747680664 -16.14999961853027 L -23.51799964904785 -16.065999984741207 L -23.26099967956543 -16.014999389648434 M 83.40899658203125 -48.210998535156236 L 83.61499786376953 -48.25199890136717 L 83.81300354003906 -48.31900024414061 L 83.96800231933594 -48.39567565917967 L 84.0009994506836 -48.41199874877928 L 84.1760025024414 -48.52899932861327 L 84.33300018310547 -48.66699981689452 L 84.47100067138672 -48.824001312255845 L 84.58799743652344 -48.99900054931639 L 84.66368865966797 -49.15200042724608 L 84.68099975585938 -49.18700027465819 L 84.74800109863281 -49.38499832153319 L 84.78900146484375 -49.59099960327147 L 84.8030014038086 -49.79999923706053 L 84.78900146484375 -50.008998870849595 L 84.74800109863281 -50.215000152587876 L 84.68099975585938 -50.412998199462876 L 84.58799743652344 -50.60100173950194 L 84.47100067138672 -50.776000976562486 L 84.33300018310547 -50.93299865722655 L 84.1760025024414 -51.0709991455078 L 84.0009994506836 -51.18799972534178 L 83.96800231933594 -51.20432281494139 L 83.81300354003906 -51.280998229980455 L 83.61499786376953 -51.34799957275389 L 83.40899658203125 -51.38899993896483 L 83.19999694824219 -51.40299987792967 L 82.99099731445312 -51.38899993896483 L 82.78500366210938 -51.34799957275389 L 82.58699798583984 -51.280998229980455 L 82.39900207519531 -51.18799972534178 L 82.2239990234375 -51.0709991455078 L 82.06700134277344 -50.93299865722655 L 81.92900085449219 -50.776000976562486 L 81.91999816894531 -50.762538909912095 L 81.81199645996094 -50.60100173950194 L 81.71900177001953 -50.412998199462876 L 81.6520004272461 -50.215000152587876 L 81.61100006103516 -50.008998870849595 L 81.5979995727539 -49.79999923706053 L 81.61100006103516 -49.59099960327147 L 81.6520004272461 -49.38499832153319 L 81.71900177001953 -49.18700027465819 L 81.73631286621094 -49.15200042724608 L 81.81199645996094 -48.99900054931639 L 81.91999816894531 -48.837463378906236 L 81.92900085449219 -48.824001312255845 L 82.06700134277344 -48.66699981689452 L 82.2239990234375 -48.52899932861327 L 82.39900207519531 -48.41199874877928 L 82.58699798583984 -48.31900024414061 L 82.78500366210938 -48.25199890136717 L 82.99099731445312 -48.210998535156236 L 83.19999694824219 -48.19800186157225 L 83.40899658203125 -48.210998535156236 M 10.199000358581543 -46.7490005493164 L 10.239999771118164 -46.68731307983398 L 10.307999610900879 -46.58499908447265 L 10.437999725341797 -46.43799972534179 L 10.585000038146973 -46.307998657226555 L 10.74899959564209 -46.19900131225585 L 10.925000190734863 -46.11199951171874 L 11.111000061035156 -46.048999786376946 L 11.303999900817871 -46.009998321533196 L 11.5 -45.998001098632805 L 11.696000099182129 -46.009998321533196 L 11.888999938964844 -46.048999786376946 L 12.074999809265137 -46.11199951171874 L 12.25100040435791 -46.19900131225585 L 12.288000106811523 -46.22359085083007 L 12.414999961853027 -46.307998657226555 L 12.562000274658203 -46.43799972534179 L 12.692000389099121 -46.58499908447265 L 12.800999641418457 -46.7490005493164 L 12.887999534606934 -46.92499923706054 L 12.948629379272461 -47.10400009155273 L 12.951000213623047 -47.11100006103515 L 12.989999771118164 -47.30400085449218 L 13.003000259399414 -47.49999999999999 L 12.989999771118164 -47.695999145507805 L 12.951000213623047 -47.88899993896484 L 12.887999534606934 -48.07500076293944 L 12.800999641418457 -48.25099945068358 L 12.692000389099121 -48.41500091552733 L 12.562000274658203 -48.56200027465819 L 12.414999961853027 -48.69200134277342 L 12.288000106811523 -48.77640914916991 L 12.25100040435791 -48.800998687744126 L 12.074999809265137 -48.888000488281236 L 11.888999938964844 -48.95100021362303 L 11.696000099182129 -48.99000167846678 L 11.5 -49.00299835205077 L 11.303999900817871 -48.99000167846678 L 11.111000061035156 -48.95100021362303 L 10.925000190734863 -48.888000488281236 L 10.74899959564209 -48.800998687744126 L 10.585000038146973 -48.69200134277342 L 10.437999725341797 -48.56200027465819 L 10.307999610900879 -48.41500091552733 L 10.239999771118164 -48.312686920166 L 10.199000358581543 -48.25099945068358 L 10.112000465393066 -48.07500076293944 L 10.048999786376953 -47.88899993896484 L 10.010000228881836 -47.695999145507805 L 9.998000144958496 -47.49999999999999 L 10.010000228881836 -47.30400085449218 L 10.048999786376953 -47.11100006103515 L 10.051370620727539 -47.10400009155273 L 10.112000465393066 -46.92499923706054 L 10.199000358581543 -46.7490005493164 M 21.06399917602539 -48.872001647949205 L 20.33799934387207 -48.00099945068358 L 19.759000778198242 -47.062000274658196 L 19.33799934387207 -46.070999145507805 L 19.319856643676758 -45.998001098632805 L 19.08300018310547 -45.044998168945305 L 18.99799919128418 -43.99999999999999 L 19.08300018310547 -42.95500183105468 L 19.33799934387207 -41.92900085449218 L 19.530445098876953 -41.476001739501946 L 19.759000778198242 -40.93799972534179 L 20.33799934387207 -39.9990005493164 L 21.06399917602539 -39.127998352050774 L 21.927000045776367 -38.34099960327148 L 22.910999298095703 -37.65100097656249 L 23.999000549316406 -37.06999969482421 L 24.576000213623047 -36.8422508239746 L 25.172000885009766 -36.60699844360351 L 26.410999298095703 -36.270000457763665 L 27.694000244140625 -36.06600189208984 L 29 -35.998001098632805 L 30.305999755859375 -36.06600189208984 L 31.589000701904297 -36.270000457763665 L 32.768001556396484 -36.590679168701165 L 32.827999114990234 -36.60699844360351 L 34.000999450683594 -37.06999969482421 L 35.0890007019043 -37.65100097656249 L 36.073001861572266 -38.34099960327148 L 36.93600082397461 -39.127998352050774 L 37.6619987487793 -39.9990005493164 L 38.24100112915039 -40.93799972534179 L 38.25034713745117 -40.95999908447265 L 38.46955490112305 -41.476001739501946 L 38.6619987487793 -41.92900085449218 L 38.91699981689453 -42.95500183105468 L 39.00299835205078 -43.99999999999999 L 38.91699981689453 -45.044998168945305 L 38.68014144897461 -45.998001098632805 L 38.6619987487793 -46.070999145507805 L 38.24100112915039 -47.062000274658196 L 37.6619987487793 -48.00099945068358 L 36.93600082397461 -48.872001647949205 L 36.62895965576172 -49.15200042724608 L 36.073001861572266 -49.6590003967285 L 35.0890007019043 -50.348999023437486 L 34.000999450683594 -50.93000030517577 L 32.827999114990234 -51.39300155639647 L 32.768001556396484 -51.409320831298814 L 31.589000701904297 -51.729999542236314 L 30.305999755859375 -51.93399810791014 L 29 -52.00299835205077 L 27.694000244140625 -51.93399810791014 L 26.410999298095703 -51.729999542236314 L 25.172000885009766 -51.39300155639647 L 23.999000549316406 -50.93000030517577 L 22.910999298095703 -50.348999023437486 L 21.927000045776367 -49.6590003967285 L 21.37103843688965 -49.15200042724608 L 21.06399917602539 -48.872001647949205 M 40.92499923706055 -51.111999511718736 L 40.959999084472656 -51.10014343261717 L 41.111000061035156 -51.04899978637694 L 41.30400085449219 -51.00999832153319 L 41.5 -50.9980010986328 L 41.69599914550781 -51.00999832153319 L 41.888999938964844 -51.04899978637694 L 42.07500076293945 -51.111999511718736 L 42.250999450683594 -51.199001312255845 L 42.252506256103516 -51.20000076293944 L 42.415000915527344 -51.30799865722655 L 42.5620002746582 -51.43799972534178 L 42.69200134277344 -51.58499908447264 L 42.80099868774414 -51.74900054931639 L 42.88800048828125 -51.92499923706053 L 42.95100021362305 -52.11100006103514 L 42.9900016784668 -52.30400085449217 L 43.00299835205078 -52.499999999999986 L 42.9900016784668 -52.6959991455078 L 42.95100021362305 -52.88899993896483 L 42.88800048828125 -53.07500076293944 L 42.80248260498047 -53.2480010986328 L 42.80099868774414 -53.25099945068358 L 42.69200134277344 -53.41500091552733 L 42.5620002746582 -53.56200027465819 L 42.415000915527344 -53.69200134277342 L 42.250999450683594 -53.800998687744126 L 42.07500076293945 -53.888000488281236 L 41.888999938964844 -53.95100021362303 L 41.69599914550781 -53.99000167846678 L 41.5 -54.00299835205077 L 41.30400085449219 -53.99000167846678 L 41.111000061035156 -53.95100021362303 L 40.959999084472656 -53.8998565673828 L 40.92499923706055 -53.888000488281236 L 40.749000549316406 -53.800998687744126 L 40.584999084472656 -53.69200134277342 L 40.4379997253418 -53.56200027465819 L 40.30799865722656 -53.41500091552733 L 40.19900131225586 -53.25099945068358 L 40.19751739501953 -53.2480010986328 L 40.11199951171875 -53.07500076293944 L 40.04899978637695 -52.88899993896483 L 40.0099983215332 -52.6959991455078 L 39.99800109863281 -52.499999999999986 L 40.0099983215332 -52.30400085449217 L 40.04899978637695 -52.11100006103514 L 40.11199951171875 -51.92499923706053 L 40.19900131225586 -51.74900054931639 L 40.30799865722656 -51.58499908447264 L 40.4379997253418 -51.43799972534178 L 40.584999084472656 -51.30799865722655 L 40.749000549316406 -51.199001312255845 L 40.92499923706055 -51.111999511718736 M 50.584999084472656 -51.30799865722655 L 50.747493743896484 -51.20000076293944 L 50.749000549316406 -51.199001312255845 L 50.92499923706055 -51.111999511718736 L 51.111000061035156 -51.04899978637694 L 51.20000076293945 -51.03101730346678 L 51.30400085449219 -51.00999832153319 L 51.5 -50.9980010986328 L 51.69599914550781 -51.00999832153319 L 51.888999938964844 -51.04899978637694 L 52.07500076293945 -51.111999511718736 L 52.250999450683594 -51.199001312255845 L 52.252506256103516 -51.20000076293944 L 52.415000915527344 -51.30799865722655 L 52.5620002746582 -51.43799972534178 L 52.69200134277344 -51.58499908447264 L 52.80099868774414 -51.74900054931639 L 52.88800048828125 -51.92499923706053 L 52.95100021362305 -52.11100006103514 L 52.9900016784668 -52.30400085449217 L 53.00299835205078 -52.499999999999986 L 52.9900016784668 -52.6959991455078 L 52.95100021362305 -52.88899993896483 L 52.88800048828125 -53.07500076293944 L 52.80248260498047 -53.2480010986328 L 52.80099868774414 -53.25099945068358 L 52.69200134277344 -53.41500091552733 L 52.5620002746582 -53.56200027465819 L 52.415000915527344 -53.69200134277342 L 52.250999450683594 -53.800998687744126 L 52.07500076293945 -53.888000488281236 L 51.888999938964844 -53.95100021362303 L 51.69599914550781 -53.99000167846678 L 51.5 -54.00299835205077 L 51.30400085449219 -53.99000167846678 L 51.20000076293945 -53.96898269653319 L 51.111000061035156 -53.95100021362303 L 50.92499923706055 -53.888000488281236 L 50.749000549316406 -53.800998687744126 L 50.584999084472656 -53.69200134277342 L 50.4379997253418 -53.56200027465819 L 50.30799865722656 -53.41500091552733 L 50.19900131225586 -53.25099945068358 L 50.19751739501953 -53.2480010986328 L 50.11199951171875 -53.07500076293944 L 50.04899978637695 -52.88899993896483 L 50.0099983215332 -52.6959991455078 L 49.99800109863281 -52.499999999999986 L 50.0099983215332 -52.30400085449217 L 50.04899978637695 -52.11100006103514 L 50.11199951171875 -51.92499923706053 L 50.19900131225586 -51.74900054931639 L 50.30799865722656 -51.58499908447264 L 50.4379997253418 -51.43799972534178 L 50.584999084472656 -51.30799865722655 M 61.439998626708984 -51.001674652099595 L 61.5 -50.9980010986328 L 61.69599914550781 -51.00999832153319 L 61.888999938964844 -51.04899978637694 L 62.07500076293945 -51.111999511718736 L 62.250999450683594 -51.199001312255845 L 62.252506256103516 -51.20000076293944 L 62.415000915527344 -51.30799865722655 L 62.5620002746582 -51.43799972534178 L 62.69200134277344 -51.58499908447264 L 62.80099868774414 -51.74900054931639 L 62.88800048828125 -51.92499923706053 L 62.95100021362305 -52.11100006103514 L 62.9900016784668 -52.30400085449217 L 63.00299835205078 -52.499999999999986 L 62.9900016784668 -52.6959991455078 L 62.95100021362305 -52.88899993896483 L 62.88800048828125 -53.07500076293944 L 62.80248260498047 -53.2480010986328 L 62.80099868774414 -53.25099945068358 L 62.69200134277344 -53.41500091552733 L 62.5620002746582 -53.56200027465819 L 62.415000915527344 -53.69200134277342 L 62.250999450683594 -53.800998687744126 L 62.07500076293945 -53.888000488281236 L 61.888999938964844 -53.95100021362303 L 61.69599914550781 -53.99000167846678 L 61.5 -54.00299835205077 L 61.439998626708984 -53.99901962280272 L 61.30400085449219 -53.99000167846678 L 61.111000061035156 -53.95100021362303 L 60.92499923706055 -53.888000488281236 L 60.749000549316406 -53.800998687744126 L 60.584999084472656 -53.69200134277342 L 60.4379997253418 -53.56200027465819 L 60.30799865722656 -53.41500091552733 L 60.19900131225586 -53.25099945068358 L 60.19751739501953 -53.2480010986328 L 60.11199951171875 -53.07500076293944 L 60.04899978637695 -52.88899993896483 L 60.0099983215332 -52.6959991455078 L 59.99800109863281 -52.499999999999986 L 60.0099983215332 -52.30400085449217 L 60.04899978637695 -52.11100006103514 L 60.11199951171875 -51.92499923706053 L 60.19900131225586 -51.74900054931639 L 60.30799865722656 -51.58499908447264 L 60.4379997253418 -51.43799972534178 L 60.584999084472656 -51.30799865722655 L 60.747493743896484 -51.20000076293944 L 60.749000549316406 -51.199001312255845 L 60.92499923706055 -51.111999511718736 L 61.111000061035156 -51.04899978637694 L 61.30400085449219 -51.00999832153319 L 61.439998626708984 -51.001674652099595 M 71.30400085449219 -51.00999832153319 L 71.5 -50.9980010986328 L 71.68000030517578 -51.00902175903319 L 71.69599914550781 -51.00999832153319 L 71.88899993896484 -51.04899978637694 L 72.07499694824219 -51.111999511718736 L 72.2509994506836 -51.199001312255845 L 72.25250244140625 -51.20000076293944 L 72.41500091552734 -51.30799865722655 L 72.56199645996094 -51.43799972534178 L 72.69200134277344 -51.58499908447264 L 72.8010025024414 -51.74900054931639 L 72.88800048828125 -51.92499923706053 L 72.95099639892578 -52.11100006103514 L 72.98999786376953 -52.30400085449217 L 73.00299835205078 -52.499999999999986 L 72.98999786376953 -52.6959991455078 L 72.95099639892578 -52.88899993896483 L 72.88800048828125 -53.07500076293944 L 72.80248260498047 -53.2480010986328 L 72.8010025024414 -53.25099945068358 L 72.69200134277344 -53.41500091552733 L 72.56199645996094 -53.56200027465819 L 72.41500091552734 -53.69200134277342 L 72.2509994506836 -53.800998687744126 L 72.07499694824219 -53.888000488281236 L 71.88899993896484 -53.95100021362303 L 71.69599914550781 -53.99000167846678 L 71.68000030517578 -53.991062164306626 L 71.5 -54.00299835205077 L 71.30400085449219 -53.99000167846678 L 71.11100006103516 -53.95100021362303 L 70.92500305175781 -53.888000488281236 L 70.7490005493164 -53.800998687744126 L 70.58499908447266 -53.69200134277342 L 70.43800354003906 -53.56200027465819 L 70.30799865722656 -53.41500091552733 L 70.1989974975586 -53.25099945068358 L 70.19751739501953 -53.2480010986328 L 70.11199951171875 -53.07500076293944 L 70.04900360107422 -52.88899993896483 L 70.01000213623047 -52.6959991455078 L 69.99800109863281 -52.499999999999986 L 70.01000213623047 -52.30400085449217 L 70.04900360107422 -52.11100006103514 L 70.11199951171875 -51.92499923706053 L 70.1989974975586 -51.74900054931639 L 70.30799865722656 -51.58499908447264 L 70.43800354003906 -51.43799972534178 L 70.58499908447266 -51.30799865722655 L 70.74749755859375 -51.20000076293944 L 70.7490005493164 -51.199001312255845 L 70.92500305175781 -51.111999511718736 L 71.11100006103516 -51.04899978637694 L 71.30400085449219 -51.00999832153319 M 46.30400085449219 -46.009998321533196 L 46.5 -45.998001098632805 L 46.69599914550781 -46.009998321533196 L 46.888999938964844 -46.048999786376946 L 47.07500076293945 -46.11199951171874 L 47.104000091552734 -46.12633514404296 L 47.250999450683594 -46.19900131225585 L 47.415000915527344 -46.307998657226555 L 47.5620002746582 -46.43799972534179 L 47.69200134277344 -46.58499908447265 L 47.80099868774414 -46.7490005493164 L 47.88800048828125 -46.92499923706054 L 47.94862747192383 -47.10400009155273 L 47.95100021362305 -47.11100006103515 L 47.9900016784668 -47.30400085449218 L 48.00299835205078 -47.49999999999999 L 47.9900016784668 -47.695999145507805 L 47.95100021362305 -47.88899993896484 L 47.88800048828125 -48.07500076293944 L 47.80099868774414 -48.25099945068358 L 47.69200134277344 -48.41500091552733 L 47.5620002746582 -48.56200027465819 L 47.415000915527344 -48.69200134277342 L 47.250999450683594 -48.800998687744126 L 47.104000091552734 -48.87366485595702 L 47.07500076293945 -48.888000488281236 L 46.888999938964844 -48.95100021362303 L 46.69599914550781 -48.99000167846678 L 46.5 -49.00299835205077 L 46.30400085449219 -48.99000167846678 L 46.111000061035156 -48.95100021362303 L 45.92499923706055 -48.888000488281236 L 45.749000549316406 -48.800998687744126 L 45.584999084472656 -48.69200134277342 L 45.4379997253418 -48.56200027465819 L 45.30799865722656 -48.41500091552733 L 45.19900131225586 -48.25099945068358 L 45.11199951171875 -48.07500076293944 L 45.055999755859375 -47.90966796874999 L 45.04899978637695 -47.88899993896484 L 45.0099983215332 -47.695999145507805 L 44.99800109863281 -47.49999999999999 L 45.0099983215332 -47.30400085449218 L 45.04899978637695 -47.11100006103515 L 45.05137252807617 -47.10400009155273 L 45.055999755859375 -47.09033203124999 L 45.11199951171875 -46.92499923706054 L 45.19900131225586 -46.7490005493164 L 45.30799865722656 -46.58499908447265 L 45.4379997253418 -46.43799972534179 L 45.584999084472656 -46.307998657226555 L 45.749000549316406 -46.19900131225585 L 45.92499923706055 -46.11199951171874 L 46.111000061035156 -46.048999786376946 L 46.30400085449219 -46.009998321533196 M 55.19900131225586 -46.7490005493164 L 55.29600143432617 -46.60305404663085 L 55.30799865722656 -46.58499908447265 L 55.4379997253418 -46.43799972534179 L 55.584999084472656 -46.307998657226555 L 55.749000549316406 -46.19900131225585 L 55.92499923706055 -46.11199951171874 L 56.111000061035156 -46.048999786376946 L 56.30400085449219 -46.009998321533196 L 56.5 -45.998001098632805 L 56.69599914550781 -46.009998321533196 L 56.888999938964844 -46.048999786376946 L 57.07500076293945 -46.11199951171874 L 57.250999450683594 -46.19900131225585 L 57.34400177001953 -46.260810852050774 L 57.415000915527344 -46.307998657226555 L 57.5620002746582 -46.43799972534179 L 57.69200134277344 -46.58499908447265 L 57.80099868774414 -46.7490005493164 L 57.88800048828125 -46.92499923706054 L 57.94862747192383 -47.10400009155273 L 57.95100021362305 -47.11100006103515 L 57.9900016784668 -47.30400085449218 L 58.00299835205078 -47.49999999999999 L 57.9900016784668 -47.695999145507805 L 57.95100021362305 -47.88899993896484 L 57.88800048828125 -48.07500076293944 L 57.80099868774414 -48.25099945068358 L 57.69200134277344 -48.41500091552733 L 57.5620002746582 -48.56200027465819 L 57.415000915527344 -48.69200134277342 L 57.34400177001953 -48.739189147949205 L 57.250999450683594 -48.800998687744126 L 57.07500076293945 -48.888000488281236 L 56.888999938964844 -48.95100021362303 L 56.69599914550781 -48.99000167846678 L 56.5 -49.00299835205077 L 56.30400085449219 -48.99000167846678 L 56.111000061035156 -48.95100021362303 L 55.92499923706055 -48.888000488281236 L 55.749000549316406 -48.800998687744126 L 55.584999084472656 -48.69200134277342 L 55.4379997253418 -48.56200027465819 L 55.30799865722656 -48.41500091552733 L 55.29600143432617 -48.396945953369126 L 55.19900131225586 -48.25099945068358 L 55.11199951171875 -48.07500076293944 L 55.04899978637695 -47.88899993896484 L 55.0099983215332 -47.695999145507805 L 54.99800109863281 -47.49999999999999 L 55.0099983215332 -47.30400085449218 L 55.04899978637695 -47.11100006103515 L 55.05137252807617 -47.10400009155273 L 55.11199951171875 -46.92499923706054 L 55.19900131225586 -46.7490005493164 M 65.43800354003906 -46.43799972534179 L 65.53600311279297 -46.351333618164055 L 65.58499908447266 -46.307998657226555 L 65.7490005493164 -46.19900131225585 L 65.92500305175781 -46.11199951171874 L 66.11100006103516 -46.048999786376946 L 66.30400085449219 -46.009998321533196 L 66.5 -45.998001098632805 L 66.69599914550781 -46.009998321533196 L 66.88899993896484 -46.048999786376946 L 67.07499694824219 -46.11199951171874 L 67.2509994506836 -46.19900131225585 L 67.41500091552734 -46.307998657226555 L 67.56199645996094 -46.43799972534179 L 67.58399963378906 -46.46287536621093 L 67.69200134277344 -46.58499908447265 L 67.8010025024414 -46.7490005493164 L 67.88800048828125 -46.92499923706054 L 67.9486312866211 -47.10400009155273 L 67.95099639892578 -47.11100006103515 L 67.98999786376953 -47.30400085449218 L 68.00299835205078 -47.49999999999999 L 67.98999786376953 -47.695999145507805 L 67.95099639892578 -47.88899993896484 L 67.88800048828125 -48.07500076293944 L 67.8010025024414 -48.25099945068358 L 67.69200134277344 -48.41500091552733 L 67.58399963378906 -48.53712463378905 L 67.56199645996094 -48.56200027465819 L 67.41500091552734 -48.69200134277342 L 67.2509994506836 -48.800998687744126 L 67.07499694824219 -48.888000488281236 L 66.88899993896484 -48.95100021362303 L 66.69599914550781 -48.99000167846678 L 66.5 -49.00299835205077 L 66.30400085449219 -48.99000167846678 L 66.11100006103516 -48.95100021362303 L 65.92500305175781 -48.888000488281236 L 65.7490005493164 -48.800998687744126 L 65.58499908447266 -48.69200134277342 L 65.53600311279297 -48.64866638183592 L 65.43800354003906 -48.56200027465819 L 65.30799865722656 -48.41500091552733 L 65.1989974975586 -48.25099945068358 L 65.11199951171875 -48.07500076293944 L 65.04900360107422 -47.88899993896484 L 65.01000213623047 -47.695999145507805 L 64.99700164794922 -47.49999999999999 L 65.01000213623047 -47.30400085449218 L 65.04900360107422 -47.11100006103515 L 65.11199951171875 -46.92499923706054 L 65.1989974975586 -46.7490005493164 L 65.30799865722656 -46.58499908447265 L 65.43800354003906 -46.43799972534179 M 75.7490005493164 -46.19900131225585 L 75.7760009765625 -46.18565368652343 L 75.92500305175781 -46.11199951171874 L 76.11100006103516 -46.048999786376946 L 76.30400085449219 -46.009998321533196 L 76.5 -45.998001098632805 L 76.69599914550781 -46.009998321533196 L 76.88899993896484 -46.048999786376946 L 77.07499694824219 -46.11199951171874 L 77.2509994506836 -46.19900131225585 L 77.41500091552734 -46.307998657226555 L 77.56199645996094 -46.43799972534179 L 77.69200134277344 -46.58499908447265 L 77.8010025024414 -46.7490005493164 L 77.8239974975586 -46.79552841186523 L 77.88800048828125 -46.92499923706054 L 77.9486312866211 -47.10400009155273 L 77.95099639892578 -47.11100006103515 L 77.98999786376953 -47.30400085449218 L 78.00299835205078 -47.49999999999999 L 77.98999786376953 -47.695999145507805 L 77.95099639892578 -47.88899993896484 L 77.88800048828125 -48.07500076293944 L 77.8239974975586 -48.20447158813475 L 77.8010025024414 -48.25099945068358 L 77.69200134277344 -48.41500091552733 L 77.56199645996094 -48.56200027465819 L 77.41500091552734 -48.69200134277342 L 77.2509994506836 -48.800998687744126 L 77.07499694824219 -48.888000488281236 L 76.88899993896484 -48.95100021362303 L 76.69599914550781 -48.99000167846678 L 76.5 -49.00299835205077 L 76.30400085449219 -48.99000167846678 L 76.11100006103516 -48.95100021362303 L 75.92500305175781 -48.888000488281236 L 75.7760009765625 -48.81434631347655 L 75.7490005493164 -48.800998687744126 L 75.58499908447266 -48.69200134277342 L 75.43800354003906 -48.56200027465819 L 75.30799865722656 -48.41500091552733 L 75.1989974975586 -48.25099945068358 L 75.11199951171875 -48.07500076293944 L 75.04900360107422 -47.88899993896484 L 75.01000213623047 -47.695999145507805 L 74.99800109863281 -47.49999999999999 L 75.01000213623047 -47.30400085449218 L 75.04900360107422 -47.11100006103515 L 75.0513687133789 -47.10400009155273 L 75.11199951171875 -46.92499923706054 L 75.1989974975586 -46.7490005493164 L 75.30799865722656 -46.58499908447265 L 75.43800354003906 -46.43799972534179 L 75.58499908447266 -46.307998657226555 L 75.7490005493164 -46.19900131225585 M 16.384000778198242 -51.005100250244126 L 16.5 -50.9980010986328 L 16.695999145507812 -51.00999832153319 L 16.888999938964844 -51.04899978637694 L 17.075000762939453 -51.111999511718736 L 17.250999450683594 -51.199001312255845 L 17.252504348754883 -51.20000076293944 L 17.415000915527344 -51.30799865722655 L 17.562000274658203 -51.43799972534178 L 17.691999435424805 -51.58499908447264 L 17.801000595092773 -51.74900054931639 L 17.88800048828125 -51.92499923706053 L 17.951000213623047 -52.11100006103514 L 17.989999771118164 -52.30400085449217 L 18.003000259399414 -52.499999999999986 L 17.989999771118164 -52.6959991455078 L 17.951000213623047 -52.88899993896483 L 17.88800048828125 -53.07500076293944 L 17.80248260498047 -53.2480010986328 L 17.801000595092773 -53.25099945068358 L 17.691999435424805 -53.41500091552733 L 17.562000274658203 -53.56200027465819 L 17.415000915527344 -53.69200134277342 L 17.250999450683594 -53.800998687744126 L 17.075000762939453 -53.888000488281236 L 16.888999938964844 -53.95100021362303 L 16.695999145507812 -53.99000167846678 L 16.5 -54.00299835205077 L 16.384000778198242 -53.99530792236327 L 16.304000854492188 -53.99000167846678 L 16.111000061035156 -53.95100021362303 L 15.925000190734863 -53.888000488281236 L 15.74899959564209 -53.800998687744126 L 15.585000038146973 -53.69200134277342 L 15.437999725341797 -53.56200027465819 L 15.307999610900879 -53.41500091552733 L 15.199000358581543 -53.25099945068358 L 15.197517395019531 -53.2480010986328 L 15.112000465393066 -53.07500076293944 L 15.048999786376953 -52.88899993896483 L 15.010000228881836 -52.6959991455078 L 14.998000144958496 -52.499999999999986 L 15.010000228881836 -52.30400085449217 L 15.048999786376953 -52.11100006103514 L 15.112000465393066 -51.92499923706053 L 15.199000358581543 -51.74900054931639 L 15.307999610900879 -51.58499908447264 L 15.437999725341797 -51.43799972534178 L 15.585000038146973 -51.30799865722655 L 15.747495651245117 -51.20000076293944 L 15.74899959564209 -51.199001312255845 L 15.925000190734863 -51.111999511718736 L 16.111000061035156 -51.04899978637694 L 16.304000854492188 -51.00999832153319 L 16.384000778198242 -51.005100250244126 M -24.691999435424805 -51.58499908447264 L -24.576000213623047 -51.453830718994126 L -24.562000274658203 -51.43799972534178 L -24.415000915527344 -51.30799865722655 L -24.250999450683594 -51.199001312255845 L -24.075000762939453 -51.111999511718736 L -23.888999938964844 -51.04899978637694 L -23.695999145507812 -51.00999832153319 L -23.5 -50.9980010986328 L -23.304000854492188 -51.00999832153319 L -23.111000061035156 -51.04899978637694 L -22.924999237060547 -51.111999511718736 L -22.749000549316406 -51.199001312255845 L -22.584999084472656 -51.30799865722655 L -22.527999877929688 -51.35840988159178 L -22.437999725341797 -51.43799972534178 L -22.308000564575195 -51.58499908447264 L -22.198999404907227 -51.74900054931639 L -22.11199951171875 -51.92499923706053 L -22.048999786376953 -52.11100006103514 L -22.010000228881836 -52.30400085449217 L -21.99799919128418 -52.499999999999986 L -22.010000228881836 -52.6959991455078 L -22.048999786376953 -52.88899993896483 L -22.11199951171875 -53.07500076293944 L -22.19751739501953 -53.2480010986328 L -22.198999404907227 -53.25099945068358 L -22.308000564575195 -53.41500091552733 L -22.437999725341797 -53.56200027465819 L -22.527999877929688 -53.64159011840819 L -22.584999084472656 -53.69200134277342 L -22.749000549316406 -53.800998687744126 L -22.924999237060547 -53.888000488281236 L -23.111000061035156 -53.95100021362303 L -23.304000854492188 -53.99000167846678 L -23.5 -54.00299835205077 L -23.695999145507812 -53.99000167846678 L -23.888999938964844 -53.95100021362303 L -24.075000762939453 -53.888000488281236 L -24.250999450683594 -53.800998687744126 L -24.415000915527344 -53.69200134277342 L -24.562000274658203 -53.56200027465819 L -24.576000213623047 -53.546169281005845 L -24.691999435424805 -53.41500091552733 L -24.801000595092773 -53.25099945068358 L -24.80248260498047 -53.2480010986328 L -24.88800048828125 -53.07500076293944 L -24.951000213623047 -52.88899993896483 L -24.989999771118164 -52.6959991455078 L -25.003000259399414 -52.499999999999986 L -24.989999771118164 -52.30400085449217 L -24.951000213623047 -52.11100006103514 L -24.88800048828125 -51.92499923706053 L -24.801000595092773 -51.74900054931639 L -24.691999435424805 -51.58499908447264 M -14.414999961853027 -51.30799865722655 L -14.336000442504883 -51.255493164062486 L -14.25100040435791 -51.199001312255845 L -14.074999809265137 -51.111999511718736 L -13.888999938964844 -51.04899978637694 L -13.696000099182129 -51.00999832153319 L -13.5 -50.9980010986328 L -13.303999900817871 -51.00999832153319 L -13.111000061035156 -51.04899978637694 L -12.925000190734863 -51.111999511718736 L -12.74899959564209 -51.199001312255845 L -12.585000038146973 -51.30799865722655 L -12.437999725341797 -51.43799972534178 L -12.307999610900879 -51.58499908447264 L -12.288000106811523 -51.61509323120116 L -12.199000358581543 -51.74900054931639 L -12.112000465393066 -51.92499923706053 L -12.048999786376953 -52.11100006103514 L -12.010000228881836 -52.30400085449217 L -11.998000144958496 -52.499999999999986 L -12.010000228881836 -52.6959991455078 L -12.048999786376953 -52.88899993896483 L -12.112000465393066 -53.07500076293944 L -12.197517395019531 -53.2480010986328 L -12.199000358581543 -53.25099945068358 L -12.288000106811523 -53.384906768798814 L -12.307999610900879 -53.41500091552733 L -12.437999725341797 -53.56200027465819 L -12.585000038146973 -53.69200134277342 L -12.74899959564209 -53.800998687744126 L -12.925000190734863 -53.888000488281236 L -13.111000061035156 -53.95100021362303 L -13.303999900817871 -53.99000167846678 L -13.5 -54.00299835205077 L -13.696000099182129 -53.99000167846678 L -13.888999938964844 -53.95100021362303 L -14.074999809265137 -53.888000488281236 L -14.25100040435791 -53.800998687744126 L -14.336000442504883 -53.744506835937486 L -14.414999961853027 -53.69200134277342 L -14.562000274658203 -53.56200027465819 L -14.692000389099121 -53.41500091552733 L -14.800999641418457 -53.25099945068358 L -14.802482604980469 -53.2480010986328 L -14.887999534606934 -53.07500076293944 L -14.951000213623047 -52.88899993896483 L -14.989999771118164 -52.6959991455078 L -15.003000259399414 -52.499999999999986 L -14.989999771118164 -52.30400085449217 L -14.951000213623047 -52.11100006103514 L -14.887999534606934 -51.92499923706053 L -14.800999641418457 -51.74900054931639 L -14.692000389099121 -51.58499908447264 L -14.562000274658203 -51.43799972534178 L -14.414999961853027 -51.30799865722655 M -4.250999927520752 -51.199001312255845 L -4.0960001945495605 -51.1223793029785 L -4.074999809265137 -51.111999511718736 L -3.8889999389648438 -51.04899978637694 L -3.696000099182129 -51.00999832153319 L -3.5 -50.9980010986328 L -3.303999900817871 -51.00999832153319 L -3.1110000610351562 -51.04899978637694 L -2.924999952316284 -51.111999511718736 L -2.749000072479248 -51.199001312255845 L -2.747495412826538 -51.20000076293944 L -2.5850000381469727 -51.30799865722655 L -2.437999963760376 -51.43799972534178 L -2.308000087738037 -51.58499908447264 L -2.1989998817443848 -51.74900054931639 L -2.111999988555908 -51.92499923706053 L -2.0490000247955322 -52.11100006103514 L -2.009999990463257 -52.30400085449217 L -1.9980000257492065 -52.499999999999986 L -2.009999990463257 -52.6959991455078 L -2.0490000247955322 -52.88899993896483 L -2.111999988555908 -53.07500076293944 L -2.197517156600952 -53.2480010986328 L -2.1989998817443848 -53.25099945068358 L -2.308000087738037 -53.41500091552733 L -2.437999963760376 -53.56200027465819 L -2.5850000381469727 -53.69200134277342 L -2.749000072479248 -53.800998687744126 L -2.924999952316284 -53.888000488281236 L -3.1110000610351562 -53.95100021362303 L -3.303999900817871 -53.99000167846678 L -3.5 -54.00299835205077 L -3.696000099182129 -53.99000167846678 L -3.8889999389648438 -53.95100021362303 L -4.074999809265137 -53.888000488281236 L -4.0960001945495605 -53.87762069702147 L -4.250999927520752 -53.800998687744126 L -4.414999961853027 -53.69200134277342 L -4.561999797821045 -53.56200027465819 L -4.691999912261963 -53.41500091552733 L -4.801000118255615 -53.25099945068358 L -4.802483081817627 -53.2480010986328 L -4.888000011444092 -53.07500076293944 L -4.951000213623047 -52.88899993896483 L -4.989999771118164 -52.6959991455078 L -5.002999782562256 -52.499999999999986 L -4.989999771118164 -52.30400085449217 L -4.951000213623047 -52.11100006103514 L -4.888000011444092 -51.92499923706053 L -4.801000118255615 -51.74900054931639 L -4.691999912261963 -51.58499908447264 L -4.561999797821045 -51.43799972534178 L -4.414999961853027 -51.30799865722655 L -4.250999927520752 -51.199001312255845 M 6.111000061035156 -51.04899978637694 L 6.144000053405762 -51.042331695556626 L 6.303999900817871 -51.00999832153319 L 6.5 -50.9980010986328 L 6.696000099182129 -51.00999832153319 L 6.888999938964844 -51.04899978637694 L 7.074999809265137 -51.111999511718736 L 7.250999927520752 -51.199001312255845 L 7.252504348754883 -51.20000076293944 L 7.414999961853027 -51.30799865722655 L 7.561999797821045 -51.43799972534178 L 7.691999912261963 -51.58499908447264 L 7.801000118255615 -51.74900054931639 L 7.888000011444092 -51.92499923706053 L 7.951000213623047 -52.11100006103514 L 7.989999771118164 -52.30400085449217 L 8.001999855041504 -52.499999999999986 L 7.989999771118164 -52.6959991455078 L 7.951000213623047 -52.88899993896483 L 7.888000011444092 -53.07500076293944 L 7.802483081817627 -53.2480010986328 L 7.801000118255615 -53.25099945068358 L 7.691999912261963 -53.41500091552733 L 7.561999797821045 -53.56200027465819 L 7.414999961853027 -53.69200134277342 L 7.250999927520752 -53.800998687744126 L 7.074999809265137 -53.888000488281236 L 6.888999938964844 -53.95100021362303 L 6.696000099182129 -53.99000167846678 L 6.5 -54.00299835205077 L 6.303999900817871 -53.99000167846678 L 6.144000053405762 -53.957668304443345 L 6.111000061035156 -53.95100021362303 L 5.925000190734863 -53.888000488281236 L 5.749000072479248 -53.800998687744126 L 5.585000038146973 -53.69200134277342 L 5.438000202178955 -53.56200027465819 L 5.308000087738037 -53.41500091552733 L 5.198999881744385 -53.25099945068358 L 5.197516918182373 -53.2480010986328 L 5.111999988555908 -53.07500076293944 L 5.048999786376953 -52.88899993896483 L 5.010000228881836 -52.6959991455078 L 4.998000144958496 -52.499999999999986 L 5.010000228881836 -52.30400085449217 L 5.048999786376953 -52.11100006103514 L 5.111999988555908 -51.92499923706053 L 5.198999881744385 -51.74900054931639 L 5.308000087738037 -51.58499908447264 L 5.438000202178955 -51.43799972534178 L 5.585000038146973 -51.30799865722655 L 5.747495651245117 -51.20000076293944 L 5.749000072479248 -51.199001312255845 L 5.925000190734863 -51.111999511718736 L 6.111000061035156 -51.04899978637694 M -18.695999145507812 -46.009998321533196 L -18.5 -45.998001098632805 L -18.43199920654297 -46.0021629333496 L -18.304000854492188 -46.009998321533196 L -18.111000061035156 -46.048999786376946 L -17.924999237060547 -46.11199951171874 L -17.749000549316406 -46.19900131225585 L -17.584999084472656 -46.307998657226555 L -17.437999725341797 -46.43799972534179 L -17.308000564575195 -46.58499908447265 L -17.198999404907227 -46.7490005493164 L -17.11199951171875 -46.92499923706054 L -17.05137062072754 -47.10400009155273 L -17.048999786376953 -47.11100006103515 L -17.010000228881836 -47.30400085449218 L -16.99799919128418 -47.49999999999999 L -17.010000228881836 -47.695999145507805 L -17.048999786376953 -47.88899993896484 L -17.11199951171875 -48.07500076293944 L -17.138198852539062 -48.12799835205077 L -17.198999404907227 -48.25099945068358 L -17.308000564575195 -48.41500091552733 L -17.437999725341797 -48.56200027465819 L -17.584999084472656 -48.69200134277342 L -17.749000549316406 -48.800998687744126 L -17.924999237060547 -48.888000488281236 L -18.111000061035156 -48.95100021362303 L -18.304000854492188 -48.99000167846678 L -18.43199920654297 -48.9984893798828 L -18.5 -49.00299835205077 L -18.695999145507812 -48.99000167846678 L -18.888999938964844 -48.95100021362303 L -19.075000762939453 -48.888000488281236 L -19.250999450683594 -48.800998687744126 L -19.415000915527344 -48.69200134277342 L -19.562000274658203 -48.56200027465819 L -19.691999435424805 -48.41500091552733 L -19.801000595092773 -48.25099945068358 L -19.861801147460938 -48.12799835205077 L -19.88800048828125 -48.07500076293944 L -19.951000213623047 -47.88899993896484 L -19.989999771118164 -47.695999145507805 L -20.003000259399414 -47.49999999999999 L -19.989999771118164 -47.30400085449218 L -19.951000213623047 -47.11100006103515 L -19.94862937927246 -47.10400009155273 L -19.88800048828125 -46.92499923706054 L -19.801000595092773 -46.7490005493164 L -19.691999435424805 -46.58499908447265 L -19.562000274658203 -46.43799972534179 L -19.415000915527344 -46.307998657226555 L -19.250999450683594 -46.19900131225585 L -19.075000762939453 -46.11199951171874 L -18.888999938964844 -46.048999786376946 L -18.695999145507812 -46.009998321533196 M -8.696000099182129 -46.009998321533196 L -8.5 -45.998001098632805 L -8.303999900817871 -46.009998321533196 L -8.192000389099121 -46.03263092041015 L -8.111000061035156 -46.048999786376946 L -7.925000190734863 -46.11199951171874 L -7.749000072479248 -46.19900131225585 L -7.585000038146973 -46.307998657226555 L -7.438000202178955 -46.43799972534179 L -7.308000087738037 -46.58499908447265 L -7.198999881744385 -46.7490005493164 L -7.111999988555908 -46.92499923706054 L -7.051371097564697 -47.10400009155273 L -7.048999786376953 -47.11100006103515 L -7.010000228881836 -47.30400085449218 L -6.998000144958496 -47.49999999999999 L -7.010000228881836 -47.695999145507805 L -7.048999786376953 -47.88899993896484 L -7.111999988555908 -48.07500076293944 L -7.198999881744385 -48.25099945068358 L -7.308000087738037 -48.41500091552733 L -7.438000202178955 -48.56200027465819 L -7.585000038146973 -48.69200134277342 L -7.749000072479248 -48.800998687744126 L -7.925000190734863 -48.888000488281236 L -8.111000061035156 -48.95100021362303 L -8.192000389099121 -48.96736907958983 L -8.303999900817871 -48.99000167846678 L -8.5 -49.00299835205077 L -8.696000099182129 -48.99000167846678 L -8.888999938964844 -48.95100021362303 L -9.074999809265137 -48.888000488281236 L -9.25100040435791 -48.800998687744126 L -9.414999961853027 -48.69200134277342 L -9.562000274658203 -48.56200027465819 L -9.692000389099121 -48.41500091552733 L -9.800999641418457 -48.25099945068358 L -9.861801147460938 -48.12799835205077 L -9.887999534606934 -48.07500076293944 L -9.951000213623047 -47.88899993896484 L -9.989999771118164 -47.695999145507805 L -10.003000259399414 -47.49999999999999 L -9.989999771118164 -47.30400085449218 L -9.951000213623047 -47.11100006103515 L -9.948629379272461 -47.10400009155273 L -9.887999534606934 -46.92499923706054 L -9.800999641418457 -46.7490005493164 L -9.692000389099121 -46.58499908447265 L -9.562000274658203 -46.43799972534179 L -9.414999961853027 -46.307998657226555 L -9.25100040435791 -46.19900131225585 L -9.074999809265137 -46.11199951171874 L -8.888999938964844 -46.048999786376946 L -8.696000099182129 -46.009998321533196 M 0 -47.54523086547851 L -0.003000000026077032 -47.49999999999999 L 0 -47.45476913452148 L 0.009999999776482582 -47.30400085449218 L 0.04899999871850014 -47.11100006103515 L 0.05137096717953682 -47.10400009155273 L 0.1120000034570694 -46.92499923706054 L 0.19900000095367432 -46.7490005493164 L 0.30799999833106995 -46.58499908447265 L 0.43799999356269836 -46.43799972534179 L 0.5849999785423279 -46.307998657226555 L 0.7490000128746033 -46.19900131225585 L 0.925000011920929 -46.11199951171874 L 1.1109999418258667 -46.048999786376946 L 1.3040000200271606 -46.009998321533196 L 1.5 -45.998001098632805 L 1.6959999799728394 -46.009998321533196 L 1.8890000581741333 -46.048999786376946 L 2.0480000972747803 -46.10285568237304 L 2.075000047683716 -46.11199951171874 L 2.250999927520752 -46.19900131225585 L 2.4149999618530273 -46.307998657226555 L 2.562000036239624 -46.43799972534179 L 2.691999912261963 -46.58499908447265 L 2.8010001182556152 -46.7490005493164 L 2.888000011444092 -46.92499923706054 L 2.948629140853882 -47.10400009155273 L 2.9509999752044678 -47.11100006103515 L 2.990000009536743 -47.30400085449218 L 3.003000020980835 -47.49999999999999 L 2.990000009536743 -47.695999145507805 L 2.9509999752044678 -47.88899993896484 L 2.888000011444092 -48.07500076293944 L 2.8010001182556152 -48.25099945068358 L 2.691999912261963 -48.41500091552733 L 2.562000036239624 -48.56200027465819 L 2.4149999618530273 -48.69200134277342 L 2.250999927520752 -48.800998687744126 L 2.075000047683716 -48.888000488281236 L 2.0480000972747803 -48.89714431762694 L 1.8890000581741333 -48.95100021362303 L 1.6959999799728394 -48.99000167846678 L 1.5 -49.00299835205077 L 1.3040000200271606 -48.99000167846678 L 1.1109999418258667 -48.95100021362303 L 1.0240000486373901 -48.92153167724608 L 0.925000011920929 -48.888000488281236 L 0.7490000128746033 -48.800998687744126 L 0.5849999785423279 -48.69200134277342 L 0.43799999356269836 -48.56200027465819 L 0.30799999833106995 -48.41500091552733 L 0.19900000095367432 -48.25099945068358 L 0.1120000034570694 -48.07500076293944 L 0.04899999871850014 -47.88899993896484 L 0.009999999776482582 -47.695999145507805 L 0 -47.54523086547851 M -28.672000885009766 -46.00852966308593 L -28.5 -45.998001098632805 L -28.304000854492188 -46.009998321533196 L -28.111000061035156 -46.048999786376946 L -27.924999237060547 -46.11199951171874 L -27.749000549316406 -46.19900131225585 L -27.584999084472656 -46.307998657226555 L -27.437999725341797 -46.43799972534179 L -27.308000564575195 -46.58499908447265 L -27.198999404907227 -46.7490005493164 L -27.11199951171875 -46.92499923706054 L -27.05137062072754 -47.10400009155273 L -27.048999786376953 -47.11100006103515 L -27.010000228881836 -47.30400085449218 L -26.99799919128418 -47.49999999999999 L -27.010000228881836 -47.695999145507805 L -27.048999786376953 -47.88899993896484 L -27.11199951171875 -48.07500076293944 L -27.138198852539062 -48.12799835205077 L -27.198999404907227 -48.25099945068358 L -27.308000564575195 -48.41500091552733 L -27.437999725341797 -48.56200027465819 L -27.584999084472656 -48.69200134277342 L -27.749000549316406 -48.800998687744126 L -27.924999237060547 -48.888000488281236 L -28.111000061035156 -48.95100021362303 L -28.304000854492188 -48.99000167846678 L -28.5 -49.00299835205077 L -28.672000885009766 -48.99159240722655 L -28.695999145507812 -48.99000167846678 L -28.888999938964844 -48.95100021362303 L -29.075000762939453 -48.888000488281236 L -29.250999450683594 -48.800998687744126 L -29.415000915527344 -48.69200134277342 L -29.562000274658203 -48.56200027465819 L -29.691999435424805 -48.41500091552733 L -29.801000595092773 -48.25099945068358 L -29.861801147460938 -48.12799835205077 L -29.88800048828125 -48.07500076293944 L -29.951000213623047 -47.88899993896484 L -29.989999771118164 -47.695999145507805 L -30.003000259399414 -47.49999999999999 L -29.989999771118164 -47.30400085449218 L -29.951000213623047 -47.11100006103515 L -29.94862937927246 -47.10400009155273 L -29.88800048828125 -46.92499923706054 L -29.801000595092773 -46.7490005493164 L -29.691999435424805 -46.58499908447265 L -29.562000274658203 -46.43799972534179 L -29.415000915527344 -46.307998657226555 L -29.250999450683594 -46.19900131225585 L -29.075000762939453 -46.11199951171874 L -28.888999938964844 -46.048999786376946 L -28.695999145507812 -46.009998321533196 L -28.672000885009766 -46.00852966308593 z" fill="none" stroke="rgb(255,0,0)" stroke-width="0.001mm" />
</svg>