<?xml version="1.0" standalone="no"?>
<!DOCTYPE svg PUBLIC "-//W3C//DTD SVG 1.1//EN"
  "http://www.w3.org/Graphics/SVG/1.1/DTD/svg11.dtd">
<svg width="177mm" height="47.8000030517578mm" viewBox="-89 70.49999999999999 177 47.8000030517578" xmlns="http://www.w3.org/2000/svg" version="1.1">
	<title>svgOutput</title>
	<desc>made with tinkercad</desc>
<path d="M 87 117.30000305175778 L 81.7979965209961 117.30000305175778 L 80.8030014038086 117.30000305175778 L 58.79800033569336 117.30000305175778 L 55.803001403808594 117.30000305175778 L 33.79800033569336 117.30000305175778 L 23.80299949645996 117.30000305175778 L 1.7979999780654907 117.30000305175778 L -1.3969999551773071 117.30000305175778 L -23.402999877929688 117.30000305175778 L -29.80299949645996 117.30000305175778 L -33.597999572753906 117.30000305175778 L -55.60300064086914 117.30000305175778 L -58.698001861572266 117.30000305175778 L -80.7030029296875 117.30000305175778 L -85.90299987792969 117.30000305175778 L -88 117.30000305175778 L -88 71.49999999999999 L -85.90299987792969 71.49999999999999 L -82.697998046875 71.49999999999999 L -80.7030029296875 71.49999999999999 L -58.698001861572266 71.49999999999999 L -55.60300064086914 71.49999999999999 L -33.597999572753906 71.49999999999999 L -29.80299949645996 71.49999999999999 L -26.79800033569336 71.49999999999999 L -23.402999877929688 71.49999999999999 L -1.3969999551773071 71.49999999999999 L 1.7979999780654907 71.49999999999999 L 23.80299949645996 71.49999999999999 L 27.29800033569336 71.49999999999999 L 30.30299949645996 71.49999999999999 L 33.79800033569336 71.49999999999999 L 55.803001403808594 71.49999999999999 L 58.79800033569336 71.49999999999999 L 80.8030014038086 71.49999999999999 L 81.7979965209961 71.49999999999999 L 85.00299835205078 71.49999999999999 L 87 71.49999999999999 L 87 79.40299987792967 L 87 90.60299682617186 L 87 101.30300140380857 L 87 112.40299987792966 L 87 117.30000305175778 M -28.68899917602539 101.25099945068357 L -28.672000885009766 101.25443267822263 L -28.496000289916992 101.29000091552732 L -28.299999237060547 101.30300140380857 L -28.104000091552734 101.29000091552732 L -27.910999298095703 101.25099945068357 L -27.725000381469727 101.18800354003903 L -27.548999786376953 101.10099792480466 L -27.385000228881836 100.99199676513669 L -27.238000869750977 100.86199951171872 L -27.107999801635742 100.7149963378906 L -26.999000549316406 100.55100250244138 L -26.91200065612793 100.37499999999997 L -26.90420913696289 100.35199737548825 L -26.849000930786133 100.18900299072263 L -26.809999465942383 99.9960021972656 L -26.79800033569336 99.80000305175778 L -26.809999465942383 99.60399627685544 L -26.849000930786133 99.41100311279294 L -26.877113342285156 99.32800292968747 L -26.91200065612793 99.22499847412107 L -26.999000549316406 99.04900360107419 L -27.107999801635742 98.88500213623044 L -27.238000869750977 98.73799896240232 L -27.385000228881836 98.60800170898435 L -27.548999786376953 98.49900054931638 L -27.725000381469727 98.41200256347653 L -27.910999298095703 98.34899902343747 L -28.104000091552734 98.30999755859372 L -28.20199966430664 98.30400085449216 L -28.299999237060547 98.29799652099607 L -28.398000717163086 98.30400085449216 L -28.496000289916992 98.30999755859372 L -28.672000885009766 98.34556579589841 L -28.68899917602539 98.34899902343747 L -28.875 98.41200256347653 L -29.051000595092773 98.49900054931638 L -29.21500015258789 98.60800170898435 L -29.36199951171875 98.73799896240232 L -29.492000579833984 98.88500213623044 L -29.60099983215332 99.04900360107419 L -29.687999725341797 99.22499847412107 L -29.750999450683594 99.41100311279294 L -29.790000915527344 99.60399627685544 L -29.80299949645996 99.80000305175778 L -29.790000915527344 99.9960021972656 L -29.750999450683594 100.18900299072263 L -29.695791244506836 100.35199737548825 L -29.687999725341797 100.37499999999997 L -29.60099983215332 100.55100250244138 L -29.492000579833984 100.7149963378906 L -29.36199951171875 100.86199951171872 L -29.21500015258789 100.99199676513669 L -29.051000595092773 101.10099792480466 L -28.875 101.18800354003903 L -28.68899917602539 101.25099945068357 M -28.496000289916992 90.58999633789061 L -28.299999237060547 90.60299682617186 L -28.104000091552734 90.58999633789061 L -27.910999298095703 90.55100250244139 L -27.725000381469727 90.48799896240233 L -27.548999786376953 90.40100097656249 L -27.385000228881836 90.29199981689452 L -27.238000869750977 90.16200256347655 L -27.193782806396484 90.11199951171874 L -27.107999801635742 90.01499938964842 L -26.999000549316406 89.85099792480467 L -26.91200065612793 89.6750030517578 L -26.849000930786133 89.48899841308592 L -26.809999465942383 89.29599761962889 L -26.79800033569336 89.09999847412108 L -26.809999465942383 88.90399932861327 L -26.849000930786133 88.71099853515624 L -26.91200065612793 88.52500152587889 L -26.999000549316406 88.34899902343749 L -27.107999801635742 88.18499755859374 L -27.21500587463379 88.06400299072264 L -27.238000869750977 88.03800201416014 L -27.385000228881836 87.90799713134764 L -27.548999786376953 87.7990036010742 L -27.725000381469727 87.71199798583983 L -27.910999298095703 87.6490020751953 L -28.104000091552734 87.61000061035155 L -28.299999237060547 87.59799957275389 L -28.496000289916992 87.61000061035155 L -28.672000885009766 87.6455612182617 L -28.68899917602539 87.6490020751953 L -28.875 87.71199798583983 L -29.051000595092773 87.7990036010742 L -29.21500015258789 87.90799713134764 L -29.36199951171875 88.03800201416014 L -29.384992599487305 88.06400299072264 L -29.492000579833984 88.18499755859374 L -29.60099983215332 88.34899902343749 L -29.687999725341797 88.52500152587889 L -29.750999450683594 88.71099853515624 L -29.790000915527344 88.90399932861327 L -29.80299949645996 89.09999847412108 L -29.790000915527344 89.29599761962889 L -29.750999450683594 89.48899841308592 L -29.687999725341797 89.6750030517578 L -29.60099983215332 89.85099792480467 L -29.492000579833984 90.01499938964842 L -29.406217575073242 90.11199951171874 L -29.36199951171875 90.16200256347655 L -29.21500015258789 90.29199981689452 L -29.051000595092773 90.40100097656249 L -28.875 90.48799896240233 L -28.68899917602539 90.55100250244139 L -28.496000289916992 90.58999633789061 M 28.604000091552734 90.58999633789061 L 28.799999237060547 90.60299682617186 L 28.996000289916992 90.58999633789061 L 29.18899917602539 90.55100250244139 L 29.375 90.48799896240233 L 29.551000595092773 90.40100097656249 L 29.71500015258789 90.29199981689452 L 29.86199951171875 90.16200256347655 L 29.906217575073242 90.11199951171874 L 29.992000579833984 90.01499938964842 L 30.10099983215332 89.85099792480467 L 30.187999725341797 89.6750030517578 L 30.250999450683594 89.48899841308592 L 30.290000915527344 89.29599761962889 L 30.30299949645996 89.09999847412108 L 30.290000915527344 88.90399932861327 L 30.250999450683594 88.71099853515624 L 30.187999725341797 88.52500152587889 L 30.10099983215332 88.34899902343749 L 29.992000579833984 88.18499755859374 L 29.884992599487305 88.06400299072264 L 29.86199951171875 88.03800201416014 L 29.71500015258789 87.90799713134764 L 29.551000595092773 87.7990036010742 L 29.375 87.71199798583983 L 29.18899917602539 87.6490020751953 L 28.996000289916992 87.61000061035155 L 28.799999237060547 87.59799957275389 L 28.672000885009766 87.60583496093749 L 28.604000091552734 87.61000061035155 L 28.410999298095703 87.6490020751953 L 28.225000381469727 87.71199798583983 L 28.048999786376953 87.7990036010742 L 27.885000228881836 87.90799713134764 L 27.738000869750977 88.03800201416014 L 27.71500587463379 88.06400299072264 L 27.607999801635742 88.18499755859374 L 27.499000549316406 88.34899902343749 L 27.41200065612793 88.52500152587889 L 27.349000930786133 88.71099853515624 L 27.309999465942383 88.90399932861327 L 27.29800033569336 89.09999847412108 L 27.309999465942383 89.29599761962889 L 27.349000930786133 89.48899841308592 L 27.41200065612793 89.6750030517578 L 27.499000549316406 89.85099792480467 L 27.607999801635742 90.01499938964842 L 27.693782806396484 90.11199951171874 L 27.738000869750977 90.16200256347655 L 27.885000228881836 90.29199981689452 L 28.048999786376953 90.40100097656249 L 28.225000381469727 90.48799896240233 L 28.410999298095703 90.55100250244139 L 28.604000091552734 90.58999633789061 M 33.79800033569336 83.33200073242186 L 33.79800033569336 90.60299682617186 L 33.79800033569336 101.30300140380857 L 33.79800033569336 104.6679992675781 L 33.849998474121094 105.19100189208982 L 34.00899887084961 105.70899963378903 L 34.270999908447266 106.21700286865232 L 34.6349983215332 106.70999908447263 L 35.09700012207031 107.18299865722653 L 35.652000427246094 107.63200378417966 L 36.29499816894531 108.05200195312497 L 37.02000045776367 108.44000244140622 L 37.81999969482422 108.7919998168945 L 38.6870002746582 109.10399627685544 L 39.612998962402344 109.37300109863278 L 40.59000015258789 109.59600067138669 L 40.959999084472656 109.66046142578122 L 41.60599899291992 109.77300262451169 L 42.65399932861328 109.90000152587888 L 43.72200012207031 109.97699737548825 L 44.79999923706055 110.00299835205075 L 45.87799835205078 109.97699737548825 L 46.94599914550781 109.90000152587888 L 47.99399948120117 109.77300262451169 L 49.0099983215332 109.59600067138669 L 49.152000427246094 109.56359100341794 L 49.98699951171875 109.37300109863278 L 50.91299819946289 109.10399627685544 L 51.779998779296875 108.7919998168945 L 52.58000183105469 108.44000244140622 L 53.30500030517578 108.05200195312497 L 53.948001861572266 107.63200378417966 L 54.50299835205078 107.18299865722653 L 54.96500015258789 106.70999908447263 L 55.32899856567383 106.21700286865232 L 55.590999603271484 105.70899963378903 L 55.75 105.19100189208982 L 55.803001403808594 104.6679992675781 L 55.803001403808594 101.30300140380857 L 55.803001403808594 90.60299682617186 L 55.803001403808594 83.33200073242186 L 55.75 82.80899810791014 L 55.590999603271484 82.29100036621092 L 55.32899856567383 81.78299713134764 L 54.96500015258789 81.29000091552733 L 54.50299835205078 80.81700134277342 L 53.948001861572266 80.3679962158203 L 53.30500030517578 79.94799804687499 L 52.58000183105469 79.55999755859374 L 51.779998779296875 79.20800018310545 L 50.91299819946289 78.89600372314452 L 49.98699951171875 78.62699890136717 L 49.152000427246094 78.43640899658202 L 49.0099983215332 78.40399932861327 L 47.99399948120117 78.22699737548827 L 46.94599914550781 78.09999847412108 L 45.87799835205078 78.0230026245117 L 44.79999923706055 77.9980010986328 L 43.72200012207031 78.0230026245117 L 42.65399932861328 78.09999847412108 L 41.60599899291992 78.22699737548827 L 40.959999084472656 78.33953857421874 L 40.59000015258789 78.40399932861327 L 39.612998962402344 78.62699890136717 L 38.6870002746582 78.89600372314452 L 37.81999969482422 79.20800018310545 L 37.02000045776367 79.55999755859374 L 36.29499816894531 79.94799804687499 L 35.652000427246094 80.3679962158203 L 35.09700012207031 80.81700134277342 L 34.6349983215332 81.29000091552733 L 34.270999908447266 81.78299713134764 L 34.00899887084961 82.29100036621092 L 33.849998474121094 82.80899810791014 L 33.79800033569336 83.33200073242186 M 58.79800033569336 83.33200073242186 L 58.79800033569336 90.60299682617186 L 58.79800033569336 101.30300140380857 L 58.79800033569336 104.6679992675781 L 58.849998474121094 105.19100189208982 L 59.00899887084961 105.70899963378903 L 59.270999908447266 106.21700286865232 L 59.6349983215332 106.70999908447263 L 60.09700012207031 107.18299865722653 L 60.652000427246094 107.63200378417966 L 61.29499816894531 108.05200195312497 L 62.02000045776367 108.44000244140622 L 62.81999969482422 108.7919998168945 L 63.6870002746582 109.10399627685544 L 64.61299896240234 109.37300109863278 L 65.53600311279297 109.58367156982419 L 65.58999633789062 109.59600067138669 L 66.60600280761719 109.77300262451169 L 67.65399932861328 109.90000152587888 L 68.72200012207031 109.97699737548825 L 69.80000305175781 110.00299835205075 L 70.87799835205078 109.97699737548825 L 71.94599914550781 109.90000152587888 L 72.99400329589844 109.77300262451169 L 73.72799682617188 109.64512634277341 L 74.01000213623047 109.59600067138669 L 74.98699951171875 109.37300109863278 L 75.91300201416016 109.10399627685544 L 76.77999877929688 108.7919998168945 L 77.58000183105469 108.44000244140622 L 78.30500030517578 108.05200195312497 L 78.947998046875 107.63200378417966 L 79.50299835205078 107.18299865722653 L 79.96499633789062 106.70999908447263 L 80.3290023803711 106.21700286865232 L 80.59100341796875 105.70899963378903 L 80.75 105.19100189208982 L 80.8030014038086 104.6679992675781 L 80.8030014038086 101.30300140380857 L 80.8030014038086 90.60299682617186 L 80.8030014038086 83.33200073242186 L 80.75 82.80899810791014 L 80.59100341796875 82.29100036621092 L 80.3290023803711 81.78299713134764 L 79.96499633789062 81.29000091552733 L 79.50299835205078 80.81700134277342 L 78.947998046875 80.3679962158203 L 78.30500030517578 79.94799804687499 L 77.58000183105469 79.55999755859374 L 76.77999877929688 79.20800018310545 L 75.91300201416016 78.89600372314452 L 74.98699951171875 78.62699890136717 L 74.01000213623047 78.40399932861327 L 73.72799682617188 78.35487365722655 L 72.99400329589844 78.22699737548827 L 71.94599914550781 78.09999847412108 L 70.87799835205078 78.0230026245117 L 69.80000305175781 77.9980010986328 L 68.72200012207031 78.0230026245117 L 67.65399932861328 78.09999847412108 L 66.60600280761719 78.22699737548827 L 65.58999633789062 78.40399932861327 L 65.53600311279297 78.41632843017577 L 64.61299896240234 78.62699890136717 L 63.6870002746582 78.89600372314452 L 62.81999969482422 79.20800018310545 L 62.02000045776367 79.55999755859374 L 61.29499816894531 79.94799804687499 L 60.652000427246094 80.3679962158203 L 60.09700012207031 80.81700134277342 L 59.6349983215332 81.29000091552733 L 59.270999908447266 81.78299713134764 L 59.00899887084961 82.29100036621092 L 58.849998474121094 82.80899810791014 L 58.79800033569336 83.33200073242186 M 81.91899871826172 78.41300201416014 L 81.91999816894531 78.41502380371092 L 82.01200103759766 78.60099792480467 L 82.12899780273438 78.77600097656249 L 82.26699829101562 78.93299865722655 L 82.42400360107422 79.0709991455078 L 82.5989990234375 79.18800354003905 L 82.78700256347656 79.28099822998045 L 82.98500061035156 79.34799957275389 L 83.19100189208984 79.38899993896483 L 83.4000015258789 79.40299987792967 L 83.60900115966797 79.38899993896483 L 83.81500244140625 79.34799957275389 L 83.96800231933594 79.29622650146483 L 84.01300048828125 79.28099822998045 L 84.20099639892578 79.18800354003905 L 84.3759994506836 79.0709991455078 L 84.53299713134766 78.93299865722655 L 84.6709976196289 78.77600097656249 L 84.78800201416016 78.60099792480467 L 84.88099670410156 78.41300201416014 L 84.947998046875 78.21499633789061 L 84.98899841308594 78.00900268554686 L 85.00138854980469 77.82399749755858 L 85.00299835205078 77.8000030517578 L 84.98899841308594 77.59100341796874 L 84.947998046875 77.38500213623045 L 84.88099670410156 77.18699645996092 L 84.78800201416016 76.99900054931639 L 84.6709976196289 76.82399749755858 L 84.53299713134766 76.66699981689452 L 84.3759994506836 76.52899932861327 L 84.20099639892578 76.41200256347655 L 84.01300048828125 76.31900024414061 L 83.96800231933594 76.30377197265624 L 83.81500244140625 76.25199890136717 L 83.60900115966797 76.21099853515624 L 83.4000015258789 76.19799804687499 L 83.19100189208984 76.21099853515624 L 82.98500061035156 76.25199890136717 L 82.78700256347656 76.31900024414061 L 82.5989990234375 76.41200256347655 L 82.42400360107422 76.52899932861327 L 82.26699829101562 76.66699981689452 L 82.12899780273438 76.82399749755858 L 82.01200103759766 76.99900054931639 L 81.91999816894531 77.18498229980467 L 81.91899871826172 77.18699645996092 L 81.85199737548828 77.38500213623045 L 81.81099700927734 77.59100341796874 L 81.7979965209961 77.8000030517578 L 81.79949188232422 77.82399749755858 L 81.81099700927734 78.00900268554686 L 81.85199737548828 78.21499633789061 L 81.91899871826172 78.41300201416014 M 28.672000885009766 101.29450988769528 L 28.799999237060547 101.30300140380857 L 28.996000289916992 101.29000091552732 L 29.18899917602539 101.25099945068357 L 29.375 101.18800354003903 L 29.551000595092773 101.10099792480466 L 29.71500015258789 100.99199676513669 L 29.86199951171875 100.86199951171872 L 29.992000579833984 100.7149963378906 L 30.10099983215332 100.55100250244138 L 30.187999725341797 100.37499999999997 L 30.195791244506836 100.35199737548825 L 30.250999450683594 100.18900299072263 L 30.290000915527344 99.9960021972656 L 30.30299949645996 99.80000305175778 L 30.290000915527344 99.60399627685544 L 30.250999450683594 99.41100311279294 L 30.22288703918457 99.32800292968747 L 30.187999725341797 99.22499847412107 L 30.10099983215332 99.04900360107419 L 29.992000579833984 98.88500213623044 L 29.86199951171875 98.73799896240232 L 29.71500015258789 98.60800170898435 L 29.551000595092773 98.49900054931638 L 29.375 98.41200256347653 L 29.18899917602539 98.34899902343747 L 28.996000289916992 98.30999755859372 L 28.898000717163086 98.30400085449216 L 28.799999237060547 98.29799652099607 L 28.70199966430664 98.30400085449216 L 28.672000885009766 98.30583953857419 L 28.604000091552734 98.30999755859372 L 28.410999298095703 98.34899902343747 L 28.225000381469727 98.41200256347653 L 28.048999786376953 98.49900054931638 L 27.885000228881836 98.60800170898435 L 27.738000869750977 98.73799896240232 L 27.607999801635742 98.88500213623044 L 27.499000549316406 99.04900360107419 L 27.41200065612793 99.22499847412107 L 27.377113342285156 99.32800292968747 L 27.349000930786133 99.41100311279294 L 27.309999465942383 99.60399627685544 L 27.29800033569336 99.80000305175778 L 27.309999465942383 99.9960021972656 L 27.349000930786133 100.18900299072263 L 27.40420913696289 100.35199737548825 L 27.41200065612793 100.37499999999997 L 27.499000549316406 100.55100250244138 L 27.607999801635742 100.7149963378906 L 27.738000869750977 100.86199951171872 L 27.885000228881836 100.99199676513669 L 28.048999786376953 101.10099792480466 L 28.225000381469727 101.18800354003903 L 28.410999298095703 101.25099945068357 L 28.604000091552734 101.29000091552732 L 28.672000885009766 101.29450988769528 M -23.402999877929688 83.33200073242186 L -23.402999877929688 101.30300140380857 L -23.402999877929688 104.6679992675781 L -23.350000381469727 105.19100189208982 L -23.19099998474121 105.70899963378903 L -22.929000854492188 106.21700286865232 L -22.565000534057617 106.70999908447263 L -22.10300064086914 107.18299865722653 L -21.54800033569336 107.63200378417966 L -20.905000686645508 108.05200195312497 L -20.18000030517578 108.44000244140622 L -19.3799991607666 108.7919998168945 L -18.51300048828125 109.10399627685544 L -17.586999893188477 109.37300109863278 L -16.610000610351562 109.59600067138669 L -16.384000778198242 109.63536834716794 L -15.593999862670898 109.77300262451169 L -14.545999526977539 109.90000152587888 L -13.477999687194824 109.97699737548825 L -12.399999618530273 110.00299835205075 L -11.321999549865723 109.97699737548825 L -10.253999710083008 109.90000152587888 L -9.206000328063965 109.77300262451169 L -8.192000389099121 109.59635162353513 L -8.1899995803833 109.59600067138669 L -7.2129998207092285 109.37300109863278 L -6.2870001792907715 109.10399627685544 L -5.420000076293945 108.7919998168945 L -4.619999885559082 108.44000244140622 L -3.8949999809265137 108.05200195312497 L -3.252000093460083 107.63200378417966 L -2.697000026702881 107.18299865722653 L -2.234999895095825 106.70999908447263 L -1.871000051498413 106.21700286865232 L -1.6089999675750732 105.70899963378903 L -1.4500000476837158 105.19100189208982 L -1.3969999551773071 104.6679992675781 L -1.3969999551773071 101.30300140380857 L -1.3969999551773071 83.33200073242186 L -1.4500000476837158 82.80899810791014 L -1.6089999675750732 82.29100036621092 L -1.871000051498413 81.78299713134764 L -2.234999895095825 81.29000091552733 L -2.697000026702881 80.81700134277342 L -3.252000093460083 80.3679962158203 L -3.8949999809265137 79.94799804687499 L -4.619999885559082 79.55999755859374 L -5.420000076293945 79.20800018310545 L -6.2870001792907715 78.89600372314452 L -7.2129998207092285 78.62699890136717 L -8.1899995803833 78.40399932861327 L -8.192000389099121 78.40364837646483 L -9.206000328063965 78.22699737548827 L -10.253999710083008 78.09999847412108 L -11.321999549865723 78.0230026245117 L -12.399999618530273 77.9980010986328 L -13.477999687194824 78.0230026245117 L -14.545999526977539 78.09999847412108 L -15.593999862670898 78.22699737548827 L -16.384000778198242 78.36463165283202 L -16.610000610351562 78.40399932861327 L -17.586999893188477 78.62699890136717 L -18.51300048828125 78.89600372314452 L -19.3799991607666 79.20800018310545 L -20.18000030517578 79.55999755859374 L -20.905000686645508 79.94799804687499 L -21.54800033569336 80.3679962158203 L -22.10300064086914 80.81700134277342 L -22.565000534057617 81.29000091552733 L -22.929000854492188 81.78299713134764 L -23.19099998474121 82.29100036621092 L -23.350000381469727 82.80899810791014 L -23.402999877929688 83.33200073242186 M 1.7979999780654907 83.33200073242186 L 1.7979999780654907 101.30300140380857 L 1.7979999780654907 104.6679992675781 L 1.850000023841858 105.19100189208982 L 2.009000062942505 105.70899963378903 L 2.2709999084472656 106.21700286865232 L 2.634999990463257 106.70999908447263 L 3.0969998836517334 107.18299865722653 L 3.6519999504089355 107.63200378417966 L 4.295000076293945 108.05200195312497 L 5.019999980926514 108.44000244140622 L 5.820000171661377 108.7919998168945 L 6.686999797821045 109.10399627685544 L 7.61299991607666 109.37300109863278 L 8.192000389099121 109.5051574707031 L 8.59000015258789 109.59600067138669 L 9.605999946594238 109.77300262451169 L 10.654000282287598 109.90000152587888 L 11.722000122070312 109.97699737548825 L 12.800000190734863 110.00299835205075 L 13.878000259399414 109.97699737548825 L 14.946000099182129 109.90000152587888 L 15.994000434875488 109.77300262451169 L 16.384000778198242 109.70505523681638 L 17.010000228881836 109.59600067138669 L 17.98699951171875 109.37300109863278 L 18.913000106811523 109.10399627685544 L 19.780000686645508 108.7919998168945 L 20.579999923706055 108.44000244140622 L 21.30500030517578 108.05200195312497 L 21.947999954223633 107.63200378417966 L 22.503000259399414 107.18299865722653 L 22.96500015258789 106.70999908447263 L 23.32900047302246 106.21700286865232 L 23.590999603271484 105.70899963378903 L 23.75 105.19100189208982 L 23.80299949645996 104.6679992675781 L 23.80299949645996 101.30300140380857 L 23.80299949645996 83.33200073242186 L 23.75 82.80899810791014 L 23.590999603271484 82.29100036621092 L 23.32900047302246 81.78299713134764 L 22.96500015258789 81.29000091552733 L 22.503000259399414 80.81700134277342 L 21.947999954223633 80.3679962158203 L 21.30500030517578 79.94799804687499 L 20.579999923706055 79.55999755859374 L 19.780000686645508 79.20800018310545 L 18.913000106811523 78.89600372314452 L 17.98699951171875 78.62699890136717 L 17.010000228881836 78.40399932861327 L 16.384000778198242 78.29494476318358 L 15.994000434875488 78.22699737548827 L 14.946000099182129 78.09999847412108 L 13.878000259399414 78.0230026245117 L 12.800000190734863 77.9980010986328 L 11.722000122070312 78.0230026245117 L 10.654000282287598 78.09999847412108 L 9.605999946594238 78.22699737548827 L 8.59000015258789 78.40399932861327 L 8.192000389099121 78.49484252929686 L 7.61299991607666 78.62699890136717 L 6.686999797821045 78.89600372314452 L 5.820000171661377 79.20800018310545 L 5.019999980926514 79.55999755859374 L 4.295000076293945 79.94799804687499 L 3.6519999504089355 80.3679962158203 L 3.0969998836517334 80.81700134277342 L 2.634999990463257 81.29000091552733 L 2.2709999084472656 81.78299713134764 L 2.009000062942505 82.29100036621092 L 1.850000023841858 82.80899810791014 L 1.7979999780654907 83.33200073242186 M 81.91899871826172 111.41300201416013 L 81.91999816894531 111.41502380371091 L 82.01200103759766 111.60099792480466 L 82.12899780273438 111.77600097656247 L 82.26699829101562 111.93299865722653 L 82.42400360107422 112.07099914550778 L 82.5989990234375 112.18800354003903 L 82.78700256347656 112.28099822998044 L 82.98500061035156 112.34799957275388 L 83.19100189208984 112.38899993896482 L 83.4000015258789 112.40299987792966 L 83.60900115966797 112.38899993896482 L 83.81500244140625 112.34799957275388 L 83.96800231933594 112.29622650146482 L 84.01300048828125 112.28099822998044 L 84.20099639892578 112.18800354003903 L 84.3759994506836 112.07099914550778 L 84.53299713134766 111.93299865722653 L 84.6709976196289 111.77600097656247 L 84.78800201416016 111.60099792480466 L 84.88099670410156 111.41300201416013 L 84.947998046875 111.2149963378906 L 84.98899841308594 111.00900268554685 L 85.00299835205078 110.80000305175778 L 84.98906707763672 110.59200286865232 L 84.98899841308594 110.59100341796872 L 84.947998046875 110.38500213623044 L 84.88099670410156 110.18699645996091 L 84.78800201416016 109.99900054931638 L 84.6709976196289 109.82399749755857 L 84.53299713134766 109.6669998168945 L 84.3759994506836 109.52899932861325 L 84.20099639892578 109.41200256347653 L 84.01300048828125 109.3190002441406 L 83.96800231933594 109.30377197265622 L 83.81500244140625 109.25199890136716 L 83.60900115966797 109.21099853515622 L 83.4000015258789 109.19799804687497 L 83.19100189208984 109.21099853515622 L 82.98500061035156 109.25199890136716 L 82.78700256347656 109.3190002441406 L 82.5989990234375 109.41200256347653 L 82.42400360107422 109.52899932861325 L 82.26699829101562 109.6669998168945 L 82.12899780273438 109.82399749755857 L 82.01200103759766 109.99900054931638 L 81.91999816894531 110.18498229980466 L 81.91899871826172 110.18699645996091 L 81.85199737548828 110.38500213623044 L 81.81099700927734 110.59100341796872 L 81.8109359741211 110.59200286865232 L 81.7979965209961 110.80000305175778 L 81.81099700927734 111.00900268554685 L 81.85199737548828 111.2149963378906 L 81.91899871826172 111.41300201416013 M -55.54999923706055 82.80899810791014 L -55.60300064086914 83.33200073242186 L -55.60300064086914 104.6679992675781 L -55.54999923706055 105.19100189208982 L -55.39099884033203 105.70899963378903 L -55.12900161743164 106.21700286865232 L -54.76499938964844 106.70999908447263 L -54.303001403808594 107.18299865722653 L -53.74800109863281 107.63200378417966 L -53.10499954223633 108.05200195312497 L -52.380001068115234 108.44000244140622 L -51.58000183105469 108.7919998168945 L -50.7130012512207 109.10399627685544 L -49.7869987487793 109.37300109863278 L -49.152000427246094 109.51793670654294 L -48.810001373291016 109.59600067138669 L -47.79399871826172 109.77300262451169 L -46.74599838256836 109.90000152587888 L -45.678001403808594 109.97699737548825 L -44.599998474121094 110.00299835205075 L -43.52199935913086 109.97699737548825 L -42.45399856567383 109.90000152587888 L -41.40599822998047 109.77300262451169 L -40.959999084472656 109.69530487060544 L -40.38999938964844 109.59600067138669 L -39.41299819946289 109.37300109863278 L -38.48699951171875 109.10399627685544 L -37.619998931884766 108.7919998168945 L -36.81999969482422 108.44000244140622 L -36.095001220703125 108.05200195312497 L -35.45199966430664 107.63200378417966 L -34.89699935913086 107.18299865722653 L -34.435001373291016 106.70999908447263 L -34.07099914550781 106.21700286865232 L -33.808998107910156 105.70899963378903 L -33.650001525878906 105.19100189208982 L -33.597999572753906 104.6679992675781 L -33.597999572753906 83.33200073242186 L -33.650001525878906 82.80899810791014 L -33.808998107910156 82.29100036621092 L -34.07099914550781 81.78299713134764 L -34.435001373291016 81.29000091552733 L -34.89699935913086 80.81700134277342 L -35.45199966430664 80.3679962158203 L -36.095001220703125 79.94799804687499 L -36.81999969482422 79.55999755859374 L -37.619998931884766 79.20800018310545 L -38.48699951171875 78.89600372314452 L -39.41299819946289 78.62699890136717 L -40.38999938964844 78.40399932861327 L -40.959999084472656 78.30469512939452 L -41.40599822998047 78.22699737548827 L -42.45399856567383 78.09999847412108 L -43.52199935913086 78.0230026245117 L -44.599998474121094 77.9980010986328 L -45.678001403808594 78.0230026245117 L -46.74599838256836 78.09999847412108 L -47.79399871826172 78.22699737548827 L -48.810001373291016 78.40399932861327 L -49.152000427246094 78.48206329345702 L -49.7869987487793 78.62699890136717 L -50.7130012512207 78.89600372314452 L -51.58000183105469 79.20800018310545 L -52.380001068115234 79.55999755859374 L -53.10499954223633 79.94799804687499 L -53.74800109863281 80.3679962158203 L -54.303001403808594 80.81700134277342 L -54.76499938964844 81.29000091552733 L -55.12900161743164 81.78299713134764 L -55.39099884033203 82.29100036621092 L -55.54999923706055 82.80899810791014 M -80.6500015258789 82.80899810791014 L -80.7030029296875 83.33200073242186 L -80.7030029296875 104.6679992675781 L -80.6500015258789 105.19100189208982 L -80.49099731445312 105.70899963378903 L -80.22899627685547 106.21700286865232 L -79.86499786376953 106.70999908447263 L -79.40299987792969 107.18299865722653 L -78.8479995727539 107.63200378417966 L -78.20500183105469 108.05200195312497 L -77.4800033569336 108.44000244140622 L -76.68000030517578 108.7919998168945 L -75.81300354003906 109.10399627685544 L -74.88700103759766 109.37300109863278 L -73.91000366210938 109.59600067138669 L -73.72799682617188 109.62770843505857 L -72.89399719238281 109.77300262451169 L -71.84600067138672 109.90000152587888 L -70.77799987792969 109.97699737548825 L -69.69999694824219 110.00299835205075 L -68.62200164794922 109.97699737548825 L -67.55400085449219 109.90000152587888 L -66.50599670410156 109.77300262451169 L -65.53600311279297 109.6040115356445 L -65.48999786376953 109.59600067138669 L -64.51300048828125 109.37300109863278 L -63.58700180053711 109.10399627685544 L -62.720001220703125 108.7919998168945 L -61.91999816894531 108.44000244140622 L -61.19499969482422 108.05200195312497 L -60.551998138427734 107.63200378417966 L -59.99700164794922 107.18299865722653 L -59.53499984741211 106.70999908447263 L -59.17100143432617 106.21700286865232 L -58.909000396728516 105.70899963378903 L -58.75 105.19100189208982 L -58.698001861572266 104.6679992675781 L -58.698001861572266 83.33200073242186 L -58.75 82.80899810791014 L -58.909000396728516 82.29100036621092 L -59.17100143432617 81.78299713134764 L -59.53499984741211 81.29000091552733 L -59.99700164794922 80.81700134277342 L -60.551998138427734 80.3679962158203 L -61.19499969482422 79.94799804687499 L -61.91999816894531 79.55999755859374 L -62.720001220703125 79.20800018310545 L -63.58700180053711 78.89600372314452 L -64.51300048828125 78.62699890136717 L -65.48999786376953 78.40399932861327 L -65.53600311279297 78.39598846435545 L -66.50599670410156 78.22699737548827 L -67.55400085449219 78.09999847412108 L -68.62200164794922 78.0230026245117 L -69.69999694824219 77.9980010986328 L -70.77799987792969 78.0230026245117 L -71.84600067138672 78.09999847412108 L -72.89399719238281 78.22699737548827 L -73.72799682617188 78.37229156494139 L -73.91000366210938 78.40399932861327 L -74.88700103759766 78.62699890136717 L -75.81300354003906 78.89600372314452 L -76.68000030517578 79.20800018310545 L -77.4800033569336 79.55999755859374 L -78.20500183105469 79.94799804687499 L -78.8479995727539 80.3679962158203 L -79.40299987792969 80.81700134277342 L -79.86499786376953 81.29000091552733 L -80.22899627685547 81.78299713134764 L -80.49099731445312 82.29100036621092 L -80.6500015258789 82.80899810791014 M -84.50900268554688 79.38899993896483 L -84.30000305175781 79.40299987792967 L -84.09100341796875 79.38899993896483 L -83.96800231933594 79.36451721191405 L -83.88500213623047 79.34799957275389 L -83.68699645996094 79.28099822998045 L -83.4990005493164 79.18800354003905 L -83.3239974975586 79.0709991455078 L -83.16699981689453 78.93299865722655 L -83.02899932861328 78.77600097656249 L -82.91200256347656 78.60099792480467 L -82.81900024414062 78.41300201416014 L -82.75199890136719 78.21499633789061 L -82.71099853515625 78.00900268554686 L -82.69949340820312 77.82399749755858 L -82.697998046875 77.8000030517578 L -82.71099853515625 77.59100341796874 L -82.75199890136719 77.38500213623045 L -82.81900024414062 77.18699645996092 L -82.91200256347656 76.99900054931639 L -83.02899932861328 76.82399749755858 L -83.16699981689453 76.66699981689452 L -83.3239974975586 76.52899932861327 L -83.4990005493164 76.41200256347655 L -83.68699645996094 76.31900024414061 L -83.88500213623047 76.25199890136717 L -83.96800231933594 76.23548126220702 L -84.09100341796875 76.21099853515624 L -84.30000305175781 76.19799804687499 L -84.50900268554688 76.21099853515624 L -84.71499633789062 76.25199890136717 L -84.91300201416016 76.31900024414061 L -84.99199676513672 76.35807800292967 L -85.10099792480469 76.41200256347655 L -85.2760009765625 76.52899932861327 L -85.43299865722656 76.66699981689452 L -85.57099914550781 76.82399749755858 L -85.68800354003906 76.99900054931639 L -85.78099822998047 77.18699645996092 L -85.8479995727539 77.38500213623045 L -85.88899993896484 77.59100341796874 L -85.90299987792969 77.8000030517578 L -85.9013900756836 77.82399749755858 L -85.88899993896484 78.00900268554686 L -85.8479995727539 78.21499633789061 L -85.78099822998047 78.41300201416014 L -85.68800354003906 78.60099792480467 L -85.57099914550781 78.77600097656249 L -85.43299865722656 78.93299865722655 L -85.2760009765625 79.0709991455078 L -85.10099792480469 79.18800354003905 L -84.91300201416016 79.28099822998045 L -84.71499633789062 79.34799957275389 L -84.50900268554688 79.38899993896483 M -85.10099792480469 112.18800354003903 L -84.99199676513672 112.24192047119138 L -84.91300201416016 112.28099822998044 L -84.71499633789062 112.34799957275388 L -84.50900268554688 112.38899993896482 L -84.30000305175781 112.40299987792966 L -84.09100341796875 112.38899993896482 L -83.96800231933594 112.36451721191403 L -83.88500213623047 112.34799957275388 L -83.68699645996094 112.28099822998044 L -83.4990005493164 112.18800354003903 L -83.3239974975586 112.07099914550778 L -83.16699981689453 111.93299865722653 L -83.02899932861328 111.77600097656247 L -82.91200256347656 111.60099792480466 L -82.81900024414062 111.41300201416013 L -82.75199890136719 111.2149963378906 L -82.71099853515625 111.00900268554685 L -82.697998046875 110.80000305175778 L -82.7109375 110.59200286865232 L -82.71099853515625 110.59100341796872 L -82.75199890136719 110.38500213623044 L -82.81900024414062 110.18699645996091 L -82.91200256347656 109.99900054931638 L -83.02899932861328 109.82399749755857 L -83.16699981689453 109.6669998168945 L -83.3239974975586 109.52899932861325 L -83.4990005493164 109.41200256347653 L -83.68699645996094 109.3190002441406 L -83.88500213623047 109.25199890136716 L -83.96800231933594 109.235481262207 L -84.09100341796875 109.21099853515622 L -84.30000305175781 109.19799804687497 L -84.50900268554688 109.21099853515622 L -84.71499633789062 109.25199890136716 L -84.91300201416016 109.3190002441406 L -85.10099792480469 109.41200256347653 L -85.2760009765625 109.52899932861325 L -85.43299865722656 109.6669998168945 L -85.57099914550781 109.82399749755857 L -85.68800354003906 109.99900054931638 L -85.78099822998047 110.18699645996091 L -85.8479995727539 110.38500213623044 L -85.88899993896484 110.59100341796872 L -85.88906860351562 110.59200286865232 L -85.90299987792969 110.80000305175778 L -85.88899993896484 111.00900268554685 L -85.8479995727539 111.2149963378906 L -85.78099822998047 111.41300201416013 L -85.68800354003906 111.60099792480466 L -85.57099914550781 111.77600097656247 L -85.43299865722656 111.93299865722653 L -85.2760009765625 112.07099914550778 L -85.10099792480469 112.18800354003903 z" fill="none" stroke="rgb(255,0,0)" stroke-width="0.001mm" />
</svg>