<?xml version="1.0" standalone="no"?>
<!DOCTYPE svg PUBLIC "-//W3C//DTD SVG 1.1//EN"
  "http://www.w3.org/Graphics/SVG/1.1/DTD/svg11.dtd">
<svg width="187mm" height="67.00000762939452mm" viewBox="-94.19999694824219 -135.1000061035156 187 67.00000762939452" xmlns="http://www.w3.org/2000/svg" version="1.1">
	<title>svgOutput</title>
	<desc>made with tinkercad</desc>
<path d="M -93.19999694824219 -134.1000061035156 L -90.2020034790039 -134.1000061035156 L 88.802001953125 -134.1000061035156 L 91.80000305175781 -134.1000061035156 L 91.80000305175781 -116.19899749755857 L 88.802001953125 -116.19899749755857 L 88.802001953125 -112.60299682617185 L 91.80000305175781 -112.60299682617185 L 91.80000305175781 -92.9970016479492 L 88.802001953125 -92.9970016479492 L 88.802001953125 -89.10199737548827 L 91.80000305175781 -89.10199737548827 L 91.80000305175781 -72.09799957275389 L 91.80000305175781 -69.09999847412108 L 90.80500030517578 -69.09999847412108 L 70.79900360107422 -69.09999847412108 L 70.79900360107422 -72.09799957275389 L 66.00399780273438 -72.09799957275389 L 66.00399780273438 -69.09999847412108 L 2.5980000495910645 -69.09999847412108 L 2.5980000495910645 -72.09799957275389 L -2.7980000972747803 -72.09799957275389 L -2.7980000972747803 -69.09999847412108 L -66.2040023803711 -69.09999847412108 L -66.2040023803711 -72.09799957275389 L -70.79900360107422 -72.09799957275389 L -70.79900360107422 -69.09999847412108 L -90.19999694824219 -69.09999847412108 L -90.2020034790039 -69.09999847412108 L -93.19999694824219 -69.09999847412108 L -93.19999694824219 -89.10199737548827 L -90.2020034790039 -89.10199737548827 L -90.2020034790039 -92.9970016479492 L -93.19999694824219 -92.9970016479492 L -93.19999694824219 -112.60299682617185 L -90.2020034790039 -112.60299682617185 L -90.2020034790039 -116.19899749755857 L -93.19999694824219 -116.19899749755857 L -93.19999694824219 -134.1000061035156 z" fill="none" stroke="rgb(255,0,0)" stroke-width="0.001mm" />
</svg>